<?xml version="1.0" encoding="UTF-8" standalone="no"?>
<!-- Created with Inkscape (http://www.inkscape.org/) -->

<svg
   xmlns:dc="http://purl.org/dc/elements/1.1/"
   xmlns:cc="http://creativecommons.org/ns#"
   xmlns:rdf="http://www.w3.org/1999/02/22-rdf-syntax-ns#"
   xmlns:svg="http://www.w3.org/2000/svg"
   xmlns="http://www.w3.org/2000/svg"
   xmlns:sodipodi="http://sodipodi.sourceforge.net/DTD/sodipodi-0.dtd"
   xmlns:inkscape="http://www.inkscape.org/namespaces/inkscape"
   version="1.1"
   id="svg29"
   xml:space="preserve"
   width="463.35199"
   height="268.0809"
   viewBox="0 0 463.35197 268.0809"
   sodipodi:docname="BRshare20.svg"
   inkscape:version="0.92.3 (2405546, 2018-03-11)"><metadata
     id="metadata35"><rdf:RDF><cc:Work
         rdf:about=""><dc:format>image/svg+xml</dc:format><dc:type
           rdf:resource="http://purl.org/dc/dcmitype/StillImage" /><dc:title></dc:title></cc:Work></rdf:RDF></metadata><defs
     id="defs33"><clipPath
       clipPathUnits="userSpaceOnUse"
       id="clipPath75"><path
         d="M 0,0 H 907.087 V 680.315 H 0 Z"
         id="path73"
         inkscape:connector-curvature="0" /></clipPath><clipPath
       clipPathUnits="userSpaceOnUse"
       id="clipPath235"><path
         d="M 0,0 H 907.087 V 680.315 H 0 Z"
         id="path233"
         inkscape:connector-curvature="0" /></clipPath><clipPath
       clipPathUnits="userSpaceOnUse"
       id="clipPath243"><path
         d="m 67.325,703.434 h -6.124 v -6.123 h 6.124 z"
         id="path241"
         inkscape:connector-curvature="0" /></clipPath><clipPath
       clipPathUnits="userSpaceOnUse"
       id="clipPath523"><path
         d="M 0,0 H 907.087 V 680.315 H 0 Z"
         id="path521"
         inkscape:connector-curvature="0" /></clipPath><clipPath
       clipPathUnits="userSpaceOnUse"
       id="clipPath687"><path
         d="M 0,0 H 907.087 V 680.315 H 0 Z"
         id="path685"
         inkscape:connector-curvature="0" /></clipPath></defs><sodipodi:namedview
     pagecolor="#ffffff"
     bordercolor="#666666"
     borderopacity="1"
     objecttolerance="10"
     gridtolerance="10"
     guidetolerance="10"
     inkscape:pageopacity="0"
     inkscape:pageshadow="2"
     inkscape:window-width="1366"
     inkscape:window-height="713"
     id="namedview31"
     showgrid="false"
     fit-margin-top="0"
     fit-margin-left="0"
     fit-margin-right="0"
     fit-margin-bottom="0"
     inkscape:zoom="1.172986"
     inkscape:cx="256.30361"
     inkscape:cy="141.57467"
     inkscape:window-x="0"
     inkscape:window-y="27"
     inkscape:window-maximized="1"
     inkscape:current-layer="g37" /><g
     id="g37"
     inkscape:groupmode="layer"
     inkscape:label="EN_Boletim-Anual-de-Geração-2019"
     transform="matrix(1.3333333,0,0,-1.3333333,-2160.4055,943.84912)"><g
       id="g69"><g
         id="g71"
         clip-path="url(#clipPath75)"><g
           id="g77"
           transform="translate(-19.9513,643.8601)"><path
             d="m 0,0 c 5.814,1.878 10.693,5.948 13.593,11.291 l -0.11,0.228 c -0.208,0.01 -0.414,0.014 -0.619,0.014 C 6.281,11.533 0.718,6.565 0,0"
             style="fill:#ad54a4;fill-opacity:1;fill-rule:nonzero;stroke:none"
             id="path79"
             inkscape:connector-curvature="0" /></g></g></g><g
       id="g229"><g
         id="g231"
         clip-path="url(#clipPath235)"><g
           id="g237"><g
             id="g239"
             clip-path="url(#clipPath243)"><g
               id="g245"
               transform="translate(64.1711,697.3107)"><path
                 d="M 0,0 H 0.183 C 1.748,0.046 3.049,1.277 3.148,2.87 L 3.153,3.006 V 3.118 C 3.125,4.699 1.887,6.017 0.284,6.119 L 0.185,6.123 H -0.006 C -1.567,6.076 -2.864,4.846 -2.963,3.254 -3.072,1.567 -1.788,0.112 -0.101,0.005 L 0,0"
                 style="fill:#bde4e4;fill-opacity:1;fill-rule:nonzero;stroke:none"
                 id="path247"
                 inkscape:connector-curvature="0" /></g></g></g></g></g><g
       id="g2318"
       transform="translate(1114.0229,97.657856)"><path
         d="m 633.4576,497.4234 22.625,-39.187 c 0.961,0.562 1.901,1.154 2.814,1.783 z"
         style="fill:#171614;fill-opacity:1;fill-rule:nonzero;stroke:none"
         id="path349"
         inkscape:connector-curvature="0" /><path
         d="m 670.9504,432.6746 c -35.865,-20.705 -81.725,-8.418 -102.431,27.447 -20.708,35.864 -8.419,81.725 27.446,102.43 14.571,8.414 31.547,11.681 48.2,9.279 l -10.708,-74.217 z"
         style="fill:#336aa1;fill-opacity:1;fill-rule:nonzero;stroke:none"
         id="path353"
         inkscape:connector-curvature="0" /><path
         d="m 608.9591,497.6089 c 0,-13.526 10.965,-24.492 24.492,-24.492 13.526,0 24.491,10.966 24.491,24.492 0,13.526 -10.965,24.492 -24.491,24.492 -13.527,0 -24.492,-10.966 -24.492,-24.492"
         style="fill:#ffffff;fill-opacity:1;fill-rule:nonzero;stroke:none"
         id="path357"
         inkscape:connector-curvature="0" /><path
         d="m 642.2675,558.4878 -8.81,-61.064 40.415,46.536 c -8.721,7.611 -19.599,12.804 -31.605,14.528"
         style="fill:#3fa63c;fill-opacity:1;fill-rule:nonzero;stroke:none"
         id="path361"
         inkscape:connector-curvature="0" /><path
         d="m 673.8726,543.9603 -40.415,-46.537 58.785,18.337 c -3.41,11.059 -9.864,20.776 -18.37,28.2"
         style="fill:#3aa697;fill-opacity:1;fill-rule:nonzero;stroke:none"
         id="path365"
         inkscape:connector-curvature="0" /><path
         d="m 687.0941,467.5024 c 4.854,8.63 7.682,18.546 7.85,29.112 l -61.486,0.809 z"
         style="fill:#8d9275;fill-opacity:1;fill-rule:nonzero;stroke:none"
         id="path369"
         inkscape:connector-curvature="0" /><path
         d="m 633.4576,497.4234 39.495,-44.099 c 4.877,4.351 9.023,9.498 12.244,15.236 z"
         style="fill:#666a59;fill-opacity:1;fill-rule:nonzero;stroke:none"
         id="path373"
         inkscape:connector-curvature="0" /><path
         d="m 633.4576,497.4234 26.05,-38.303 c 1.68,1.188 3.28,2.478 4.788,3.87 z"
         style="fill:#262520;fill-opacity:1;fill-rule:nonzero;stroke:none"
         id="path377"
         inkscape:connector-curvature="0" /><path
         d="m 679.0485,496.824 c 0.01,0.377 0.029,0.753 0.029,1.133 0,1.022 -0.046,2.035 -0.112,3.041 l -45.508,-3.575 z"
         style="fill:#5cc7ad;fill-opacity:1;fill-rule:nonzero;stroke:none"
         id="path381"
         inkscape:connector-curvature="0" /><path
         d="m 682.2345,501.255 c -0.273,3.716 -0.946,7.319 -1.997,10.76 l -46.78,-14.592 z"
         style="fill:#69c6c9;fill-opacity:1;fill-rule:nonzero;stroke:none"
         id="path385"
         inkscape:connector-curvature="0" /><path
         d="m 606.2863,497.6089 c 0,-14.803 11.999,-26.803 26.802,-26.803 14.803,0 26.802,12 26.802,26.803 0,14.803 -11.999,26.802 -26.802,26.802 -14.803,0 -26.802,-11.999 -26.802,-26.802"
         style="fill:#ffffff;fill-opacity:1;fill-rule:nonzero;stroke:none"
         id="path389"
         inkscape:connector-curvature="0" /><path
         d="m 673.2922,509.8495 -14.527,-4.532 14.527,4.531 z m -33.884,29.005 -2.131,-14.768 0.027,-0.005 2.13,14.768 z"
         style="fill:#ffffff;fill-opacity:1;fill-rule:nonzero;stroke:none"
         id="path393"
         inkscape:connector-curvature="0" /><path
         d="m 633.4507,539.2766 c -23.012,0 -41.668,-18.656 -41.668,-41.669 0,-23.013 18.656,-41.668 41.668,-41.668 7.56,0 14.65,2.012 20.763,5.533 l -7.526,13.035 c -3.986,-2.352 -8.635,-3.702 -13.599,-3.702 -14.803,0 -26.802,12.001 -26.802,26.803 0,14.803 11.999,26.802 26.802,26.802 1.424,0 2.823,-0.111 4.188,-0.325 l 2.131,14.768 c -1.945,0.279 -3.935,0.423 -5.957,0.423"
         style="fill:#5f92c2;fill-opacity:1;fill-rule:nonzero;stroke:none"
         id="path397"
         inkscape:connector-curvature="0" /><path
         d="m 639.4342,538.8497 -2.13,-14.768 c 5.203,-0.821 9.906,-3.14 13.659,-6.501 l 9.905,11.405 c -5.909,5.167 -13.293,8.693 -21.434,9.864"
         style="fill:#7cc12a;fill-opacity:1;fill-rule:nonzero;stroke:none"
         id="path401"
         inkscape:connector-curvature="0" /><path
         d="m 660.8679,528.9858 -9.905,-11.405 c 3.629,-3.251 6.367,-7.476 7.803,-12.263 l 14.526,4.532 c -2.301,7.5 -6.662,14.098 -12.424,19.136"
         style="fill:#79c4bc;fill-opacity:1;fill-rule:nonzero;stroke:none"
         id="path405"
         inkscape:connector-curvature="0" /><path
         d="m 659.8851,497.0757 c -0.088,-4.536 -1.303,-8.796 -3.378,-12.511 l 13.262,-7.398 c 3.294,5.841 5.22,12.555 5.344,19.709 z"
         style="fill:#bebea9;fill-opacity:1;fill-rule:nonzero;stroke:none"
         id="path409"
         inkscape:connector-curvature="0" /><path
         d="m 656.5074,484.5651 c -1.43,-2.562 -3.267,-4.865 -5.425,-6.821 l 10.079,-11.255 c 3.423,3.05 6.34,6.657 8.608,10.678 z"
         style="fill:#9e9e8d;fill-opacity:1;fill-rule:nonzero;stroke:none"
         id="path413"
         inkscape:connector-curvature="0" /><path
         d="m 648.3285,475.5576 v 0 l 8.477,-12.463 z"
         style="fill:#ffffff;fill-opacity:1;fill-rule:nonzero;stroke:none"
         id="path417"
         inkscape:connector-curvature="0" /><path
         d="m 651.0824,477.7444 c -0.868,-0.787 -1.789,-1.518 -2.754,-2.187 l 8.477,-12.463 c 1.527,1.036 2.983,2.171 4.356,3.395 z"
         style="fill:#5b5851;fill-opacity:1;fill-rule:nonzero;stroke:none"
         id="path421"
         inkscape:connector-curvature="0" /><path
         d="m 648.3285,475.5576 c -0.533,-0.369 -1.079,-0.719 -1.641,-1.05 l 7.526,-13.035 c 0.884,0.51 1.749,1.051 2.592,1.622 z"
         style="fill:#434040;fill-opacity:1;fill-rule:nonzero;stroke:none"
         id="path425"
         inkscape:connector-curvature="0" /><path
         d="m 675.0068,500.687 -15.182,-1.193 z"
         style="fill:#ffffff;fill-opacity:1;fill-rule:nonzero;stroke:none"
         id="path429"
         inkscape:connector-curvature="0" /><path
         d="m 675.0068,500.687 -15.182,-1.193 c 0.044,-0.623 0.066,-1.251 0.066,-1.885 0,-0.179 -0.002,-0.356 -0.006,-0.533 l 15.228,-0.201 c 0.004,0.244 0.006,0.489 0.006,0.733 0,1.035 -0.037,2.063 -0.112,3.079"
         style="fill:#99dccd;fill-opacity:1;fill-rule:nonzero;stroke:none"
         id="path433"
         inkscape:connector-curvature="0" /><path
         d="m 673.2922,509.8487 -14.527,-4.531 c 0.559,-1.864 0.92,-3.814 1.06,-5.823 l 15.182,1.192 c -0.231,3.166 -0.816,6.232 -1.715,9.162"
         style="fill:#a3dcdf;fill-opacity:1;fill-rule:nonzero;stroke:none"
         id="path437"
         inkscape:connector-curvature="0" /><path
         d="m 633.0883,524.411 c -14.803,0 -26.802,-11.999 -26.802,-26.802 0,-14.803 11.999,-26.803 26.802,-26.803 4.964,0 9.613,1.35 13.6,3.702 0.561,0.331 1.107,0.68 1.64,1.05 0.966,0.669 1.886,1.4 2.754,2.186 2.158,1.956 3.996,4.259 5.425,6.821 2.075,3.715 3.29,7.974 3.378,12.511 0.003,0.177 0.005,0.354 0.005,0.533 0,0.634 -0.022,1.262 -0.065,1.885 -0.14,2.01 -0.501,3.96 -1.06,5.823 -1.435,4.788 -4.174,9.013 -7.802,12.264 -3.753,3.361 -8.456,5.679 -13.659,6.501 l -0.027,0.004 c -1.365,0.213 -2.765,0.325 -4.189,0.325"
         style="fill:#ffffff;fill-opacity:1;fill-rule:nonzero;stroke:none"
         id="path441"
         inkscape:connector-curvature="0" /><path
         d="m 654.2902,461.5311 -7.523,13.029 c -4.005,-2.382 -8.681,-3.754 -13.679,-3.754 -14.803,0 -26.802,12 -26.802,26.803 0,14.803 11.999,26.802 26.802,26.802 1.425,0 2.824,-0.113 4.189,-0.328 l 2.13,14.763 c -1.946,0.279 -3.934,0.431 -5.956,0.431 -23.013,0 -41.669,-18.657 -41.669,-41.669 0,-23.013 18.656,-41.668 41.669,-41.668 7.594,0 14.707,2.042 20.839,5.591"
         style="fill:#3871c1;fill-opacity:1;fill-rule:nonzero;stroke:none"
         id="path445"
         inkscape:connector-curvature="0" /><text
         id="text449"
         style="font-variant:normal;font-weight:300;font-stretch:normal;font-size:9.81340027px;font-family:'FS Albert Pro Light';-inkscape-font-specification:FSAlbertPro-Light;writing-mode:lr-tb;fill:#2e8177;fill-opacity:1;fill-rule:nonzero;stroke:none"
         transform="matrix(1,0,0,-1,691.9835,577.8898)"><tspan
           id="tspan447"
           sodipodi:role="line"
           y="0"
           x="0 5.2992358 7.2128491 12.512085">8.8%</tspan></text>
<text
         id="text455"
         style="font-variant:normal;font-weight:bold;font-stretch:normal;font-size:5.35279989px;font-family:'FS Albert Pro';-inkscape-font-specification:FSAlbertPro-Bold;writing-mode:lr-tb;fill:#353c48;fill-opacity:1;fill-rule:nonzero;stroke:none"
         transform="matrix(1,0,0,-1,690.2703,567.1843)"><tspan
           id="tspan451"
           sodipodi:role="line"
           y="0"
           x="0 3.0029209 6.0058417 7.1781049 10.181026 13.183947 14.479324 18.071053">14.95 GW</tspan><tspan
           id="tspan453"
           sodipodi:role="line"
           y="7.1352825"
           x="1.8092464 5.010221 6.4073014 9.3513412 13.901221 16.888084 19.088085">Biomass</tspan></text>
<text
         id="text459"
         style="font-variant:normal;font-weight:300;font-stretch:normal;font-size:9.81340027px;font-family:'FS Albert Pro Light';-inkscape-font-specification:FSAlbertPro-Light;writing-mode:lr-tb;fill:#0d0e0e;fill-opacity:1;fill-rule:nonzero;stroke:none"
         transform="matrix(1,0,0,-1,691.9835,427.0849)"><tspan
           id="tspan457"
           sodipodi:role="line"
           y="0"
           x="0 5.2992358 7.2128491 12.512085">1.2%</tspan></text>
<text
         id="text465"
         style="font-variant:normal;font-weight:bold;font-stretch:normal;font-size:5.35279989px;font-family:'FS Albert Pro';-inkscape-font-specification:FSAlbertPro-Bold;writing-mode:lr-tb;fill:#353c48;fill-opacity:1;fill-rule:nonzero;stroke:none"
         transform="matrix(1,0,0,-1,691.7717,416.3794)"><tspan
           id="tspan461"
           sodipodi:role="line"
           y="0"
           x="0 3.0029209 4.1751838 7.1781049 10.181026 11.476403 15.068132">1.99 GW</tspan><tspan
           id="tspan463"
           sodipodi:role="line"
           y="7.1352825"
           x="0.95815122 4.849637 7.8311462 10.223848 11.54599 14.302682 17.289543">Nuclear</tspan></text>
<text
         id="text469"
         style="font-variant:normal;font-weight:300;font-stretch:normal;font-size:9.81340027px;font-family:'FS Albert Pro Light';-inkscape-font-specification:FSAlbertPro-Light;writing-mode:lr-tb;fill:#65bdba;fill-opacity:1;fill-rule:nonzero;stroke:none"
         transform="matrix(1,0,0,-1,738.874,547.5436)"><tspan
           id="tspan467"
           sodipodi:role="line"
           y="0"
           x="0 5.2992358 7.2128491 12.512085">3.6%</tspan></text>
<text
         id="text475"
         style="font-variant:normal;font-weight:bold;font-stretch:normal;font-size:5.35279989px;font-family:'FS Albert Pro';-inkscape-font-specification:FSAlbertPro-Bold;writing-mode:lr-tb;fill:#353c48;fill-opacity:1;fill-rule:nonzero;stroke:none"
         transform="matrix(1,0,0,-1,738.6622,536.8381)"><tspan
           id="tspan471"
           sodipodi:role="line"
           y="0"
           x="0 3.0029209 4.1751838 7.1781049 10.181026 11.476403 15.068132">6.05 GW</tspan><tspan
           id="tspan473"
           sodipodi:role="line"
           y="7.1352825"
           x="-4.1858897 -1.2953776 3.2545023 6.241365 7.5635066 8.8856478 10.181026 13.869104 16.556746 19.538256 21.34215">Small Hydro</tspan></text>
<text
         id="text479"
         style="font-variant:normal;font-weight:300;font-stretch:normal;font-size:9.81340027px;font-family:'FS Albert Pro Light';-inkscape-font-specification:FSAlbertPro-Light;writing-mode:lr-tb;fill:#1a1a17;fill-opacity:1;fill-rule:nonzero;stroke:none"
         transform="matrix(1,0,0,-1,741.7352,445.3466)"><tspan
           id="tspan477"
           sodipodi:role="line"
           y="0"
           x="0 5.2992358 7.1834087 12.482645">2,1%</tspan></text>
<text
         id="text485"
         style="font-variant:normal;font-weight:bold;font-stretch:normal;font-size:5.35279989px;font-family:'FS Albert Pro';-inkscape-font-specification:FSAlbertPro-Bold;writing-mode:lr-tb;fill:#353c48;fill-opacity:1;fill-rule:nonzero;stroke:none"
         transform="matrix(1,0,0,-1,741.5087,434.6411)"><tspan
           id="tspan481"
           sodipodi:role="line"
           y="0"
           x="0 3.0029209 4.1751838 7.1781049 10.181026 11.476403 15.068132">3.60 GW</tspan><tspan
           id="tspan483"
           sodipodi:role="line"
           y="7.1352825"
           x="-4.7800503 -0.107056 1.2900248 4.2929454 7.0496378 8.8529959 11.839858 13.162 14.457377 17.626236 20.570274 23.557138">Mineral Coal</tspan></text>
<text
         id="text489"
         style="font-variant:normal;font-weight:300;font-stretch:normal;font-size:9.81340027px;font-family:'FS Albert Pro Light';-inkscape-font-specification:FSAlbertPro-Light;writing-mode:lr-tb;fill:#7c7f6c;fill-opacity:1;fill-rule:nonzero;stroke:none"
         transform="matrix(1,0,0,-1,828.4756,485.3336)"><tspan
           id="tspan487"
           sodipodi:role="line"
           y="0"
           x="0 5.2992358 7.2128491 12.512085">7.9%</tspan></text>
<text
         id="text495"
         style="font-variant:normal;font-weight:bold;font-stretch:normal;font-size:5.35279989px;font-family:'FS Albert Pro';-inkscape-font-specification:FSAlbertPro-Bold;writing-mode:lr-tb;fill:#353c48;fill-opacity:1;fill-rule:nonzero;stroke:none"
         transform="matrix(1,0,0,-1,826.7625,474.6281)"><tspan
           id="tspan491"
           sodipodi:role="line"
           y="0"
           x="0 3.0029209 6.0058417 7.1781049 10.181026 13.183947 14.479324 18.071053">13.39 GW</tspan><tspan
           id="tspan493"
           sodipodi:role="line"
           y="7.1352825"
           x="-2.5104632 1.3810225 4.3678846 6.4019489 9.3834581 11.186817 14.173679 15.495821 16.791199 20.425749 23.412611">Natural Gas</tspan></text>
<text
         id="text499"
         style="font-variant:normal;font-weight:300;font-stretch:normal;font-size:9.81340027px;font-family:'FS Albert Pro Light';-inkscape-font-specification:FSAlbertPro-Light;writing-mode:lr-tb;fill:#52ab96;fill-opacity:1;fill-rule:nonzero;stroke:none"
         transform="matrix(1,0,0,-1,783.4348,517.1973)"><tspan
           id="tspan497"
           sodipodi:role="line"
           y="0"
           x="0 5.2992358 7.2128491 12.512085">1.5%</tspan></text>
<text
         id="text505"
         style="font-variant:normal;font-weight:bold;font-stretch:normal;font-size:5.35279989px;font-family:'FS Albert Pro';-inkscape-font-specification:FSAlbertPro-Bold;writing-mode:lr-tb;fill:#353c48;fill-opacity:1;fill-rule:nonzero;stroke:none"
         transform="matrix(1,0,0,-1,783.223,506.4918)"><tspan
           id="tspan501"
           sodipodi:role="line"
           y="0"
           x="0 3.0029209 4.1751838 7.1781049 10.181026 11.476403 15.068132">2.47 GW</tspan><tspan
           id="tspan503"
           sodipodi:role="line"
           y="7.1352825"
           x="-4.6729946 -1.6968375 1.3167888 4.260829 6.2948928 9.1741638 11.700686 14.644726 15.966867 18.000931 20.987793 22.384874">Photovoltaic</tspan></text>
<text
         id="text509"
         style="font-variant:normal;font-weight:300;font-stretch:normal;font-size:9.81340027px;font-family:'FS Albert Pro Light';-inkscape-font-specification:FSAlbertPro-Light;writing-mode:lr-tb;fill:#45463d;fill-opacity:1;fill-rule:nonzero;stroke:none"
         transform="matrix(1,0,0,-1,783.4348,463.7751)"><tspan
           id="tspan507"
           sodipodi:role="line"
           y="0"
           x="0 5.2992358 7.2128491 12.512085">5.3%</tspan></text>
<text
         id="text515"
         style="font-variant:normal;font-weight:bold;font-stretch:normal;font-size:5.35279989px;font-family:'FS Albert Pro';-inkscape-font-specification:FSAlbertPro-Bold;writing-mode:lr-tb;fill:#353c48;fill-opacity:1;fill-rule:nonzero;stroke:none"
         transform="matrix(1,0,0,-1,783.223,453.0696)"><tspan
           id="tspan511"
           sodipodi:role="line"
           y="0"
           x="0 3.0029209 4.1751838 7.1781049 10.181026 11.476403 15.068132">8.96 GW</tspan><tspan
           id="tspan513"
           sodipodi:role="line"
           y="7.1352825"
           x="1.3328472 3.9664247 6.9479346 9.7046261 11.026768 12.322145 16.042341 17.439423">Fuel Oil</tspan></text>
<g
         id="g517"><g
           clip-path="url(#clipPath523)"
           id="g519"><g
             transform="translate(506.2813,497.3154)"
             id="g525"><path
               inkscape:connector-curvature="0"
               id="path527"
               style="fill:none;stroke:#224e75;stroke-width:0.44600001;stroke-linecap:butt;stroke-linejoin:miter;stroke-miterlimit:10;stroke-dasharray:none;stroke-opacity:1"
               d="M 0,0 H 53.232" /></g><g
             transform="translate(566.5372,497.6078)"
             id="g529"><path
               inkscape:connector-curvature="0"
               id="path531"
               style="fill:#224e75;fill-opacity:1;fill-rule:nonzero;stroke:none"
               d="m 0,0 c 0,-4.384 -3.554,-7.937 -7.937,-7.937 -4.384,0 -7.938,3.553 -7.938,7.937 0,4.384 3.554,7.937 7.938,7.937 C -3.554,7.937 0,4.384 0,0" /></g><g
             transform="translate(563.231,495.0276)"
             id="g533"><path
               inkscape:connector-curvature="0"
               id="path535"
               style="fill:#faf8f7;fill-opacity:1;fill-rule:nonzero;stroke:none"
               d="M 0,0 -0.065,0.089 -0.172,0.104 -0.259,0.036 c -0.266,-0.475 -0.761,-0.77 -1.292,-0.77 -0.53,0 -1.025,0.295 -1.292,0.77 L -2.965,0.1 -3.088,0.036 c -0.265,-0.475 -0.76,-0.77 -1.292,-0.77 -0.53,0 -1.025,0.295 -1.292,0.769 L -5.794,0.1 -5.917,0.035 c -0.265,-0.474 -0.76,-0.769 -1.291,-0.769 -0.531,0 -1.027,0.295 -1.292,0.77 L -8.586,0.104 -8.694,0.089 -8.759,0 -8.745,-0.111 c 0.316,-0.564 0.905,-0.915 1.537,-0.915 0.468,0 0.927,0.197 1.259,0.542 l 0.155,0.161 0.155,-0.161 c 0.332,-0.345 0.791,-0.542 1.26,-0.542 0.468,0 0.927,0.197 1.259,0.542 l 0.155,0.161 0.154,-0.161 c 0.333,-0.345 0.792,-0.542 1.26,-0.542 0.632,0 1.221,0.351 1.537,0.915 L 0,0" /></g><g
             transform="translate(563.231,493.5901)"
             id="g537"><path
               inkscape:connector-curvature="0"
               id="path539"
               style="fill:#faf8f7;fill-opacity:1;fill-rule:nonzero;stroke:none"
               d="M 0,0 -0.065,0.088 -0.172,0.103 -0.259,0.036 c -0.266,-0.475 -0.761,-0.77 -1.292,-0.77 -0.53,0 -1.025,0.295 -1.292,0.77 L -2.965,0.099 -3.088,0.035 c -0.265,-0.475 -0.76,-0.769 -1.292,-0.769 -0.53,0 -1.025,0.294 -1.292,0.769 L -5.794,0.099 -5.917,0.035 c -0.265,-0.475 -0.76,-0.769 -1.291,-0.769 -0.531,0 -1.027,0.295 -1.292,0.77 L -8.586,0.103 -8.694,0.089 -8.759,0 -8.745,-0.111 c 0.316,-0.564 0.905,-0.915 1.537,-0.915 0.468,0 0.927,0.197 1.259,0.542 l 0.155,0.16 0.155,-0.16 c 0.332,-0.345 0.791,-0.542 1.26,-0.542 0.468,0 0.927,0.197 1.259,0.542 l 0.155,0.16 0.154,-0.16 c 0.333,-0.345 0.792,-0.542 1.26,-0.542 0.632,0 1.221,0.351 1.537,0.915 L 0,0" /></g><g
             transform="translate(558.0062,496.747)"
             id="g541"><path
               inkscape:connector-curvature="0"
               id="path543"
               style="fill:#faf8f7;fill-opacity:1;fill-rule:nonzero;stroke:none"
               d="m 0,0 0.044,-0.007 c 0.243,-0.087 0.498,-0.13 0.758,-0.13 l 0.139,-0.145 v -0.756 c 0.451,0.071 0.798,0.472 0.798,0.956 v 0.056 L 1.817,0.103 C 2.054,0.222 2.269,0.381 2.454,0.575 L 2.554,0.618 2.653,0.576 3.19,0.021 c 0.12,0.166 0.183,0.365 0.183,0.575 0,0.258 -0.097,0.5 -0.273,0.683 L 3.037,1.343 3.003,1.492 C 3.084,1.739 3.126,1.997 3.126,2.26 L 3.265,2.405 H 4.044 C 3.977,2.87 3.588,3.228 3.118,3.228 h -0.1 L 2.892,3.309 C 2.777,3.551 2.625,3.771 2.439,3.962 L 2.398,4.064 2.439,4.166 2.983,4.728 C 2.61,5.009 2.094,4.975 1.764,4.635 L 1.696,4.565 1.552,4.53 C 1.311,4.615 1.059,4.658 0.802,4.658 L 0.661,4.802 V 5.605 C 0.21,5.536 -0.136,5.134 -0.136,4.65 V 4.547 L -0.215,4.417 C -0.447,4.301 -0.658,4.146 -0.841,3.958 H -1.038 L -1.579,4.516 C -1.699,4.35 -1.763,4.15 -1.763,3.941 c 0,-0.258 0.097,-0.501 0.274,-0.683 l 0.06,-0.062 0.033,-0.149 C -1.48,2.794 -1.523,2.53 -1.523,2.26 L -1.663,2.116 H -2.43 c 0.068,-0.465 0.458,-0.823 0.926,-0.823 h 0.088 l 0.127,-0.081 c 0.114,-0.241 0.264,-0.46 0.449,-0.65 L -0.799,0.461 -0.84,0.359 -1.374,-0.193 c 0.362,-0.279 0.886,-0.249 1.22,0.095 L -0.099,-0.042 0,0 m 0.802,-1.336 -0.141,0.144 v 0.77 C 0.45,-0.41 0.24,-0.372 0.037,-0.308 -0.437,-0.791 -1.204,-0.789 -1.676,-0.302 l -0.041,0.102 0.041,0.103 0.542,0.56 c -0.143,0.165 -0.267,0.346 -0.367,0.542 h -0.003 c -0.671,0 -1.216,0.562 -1.216,1.254 l 0.14,0.146 h 0.781 c 0.011,0.22 0.049,0.438 0.112,0.65 -0.23,0.236 -0.356,0.551 -0.356,0.886 0,0.335 0.126,0.65 0.356,0.886 l 0.199,0.002 0.551,-0.568 c 0.158,0.146 0.332,0.272 0.521,0.374 V 4.65 c 0,0.691 0.545,1.254 1.216,1.254 L 0.941,5.76 V 4.943 C 1.152,4.932 1.358,4.894 1.559,4.831 l 0.007,0.008 c 0.474,0.489 1.246,0.489 1.72,0 L 3.287,4.634 2.733,4.062 C 2.879,3.896 3.002,3.713 3.103,3.516 h 0.015 c 0.671,0 1.216,-0.563 1.216,-1.254 L 4.194,2.116 H 3.401 C 3.39,1.901 3.354,1.69 3.295,1.485 L 3.297,1.482 C 3.527,1.246 3.653,0.931 3.653,0.596 3.653,0.261 3.527,-0.054 3.297,-0.291 L 3.098,-0.292 2.552,0.272 C 2.39,0.12 2.211,-0.01 2.018,-0.115 2.001,-0.791 1.463,-1.336 0.802,-1.336" /></g><g
             transform="translate(558.813,500.5891)"
             id="g545"><path
               inkscape:connector-curvature="0"
               id="path547"
               style="fill:#faf8f7;fill-opacity:1;fill-rule:nonzero;stroke:none"
               d="m 0,0 c -0.833,0 -1.51,-0.699 -1.51,-1.558 0,-0.859 0.677,-1.558 1.51,-1.558 0.833,0 1.511,0.699 1.511,1.558 C 1.511,-0.699 0.833,0 0,0 m 0,-3.405 c -0.986,0 -1.789,0.828 -1.789,1.847 0,1.018 0.803,1.846 1.789,1.846 0.987,0 1.79,-0.828 1.79,-1.846 0,-1.019 -0.803,-1.847 -1.79,-1.847" /></g><g
             transform="translate(558.7852,500.2785)"
             id="g549"><path
               inkscape:connector-curvature="0"
               id="path551"
               style="fill:#faf8f7;fill-opacity:1;fill-rule:nonzero;stroke:none"
               d="M 0,0 H 0.549 L 0,-0.917 H 0.687 L -0.519,-2.495 0,-1.307 h -0.63 z" /></g><g
             transform="translate(684.5658,506.5651)"
             id="g553"><path
               inkscape:connector-curvature="0"
               id="path555"
               style="fill:#65bdba;fill-opacity:1;fill-rule:nonzero;stroke:none"
               d="m 0,0 c 0,-2.235 -1.812,-4.046 -4.046,-4.046 -2.235,0 -4.046,1.811 -4.046,4.046 0,2.235 1.811,4.046 4.046,4.046 C -1.812,4.046 0,2.235 0,0" /></g><g
             transform="translate(680.5255,505.2531)"
             id="g557"><path
               inkscape:connector-curvature="0"
               id="path559"
               style="fill:#ffffff;fill-opacity:1;fill-rule:nonzero;stroke:none"
               d="m 0,0 c 0.83,0 1.671,0.192 1.671,0.557 0,0.098 -0.063,0.187 -0.187,0.268 L 1.342,0.806 1.324,0.741 1.364,0.683 1.468,0.557 C 1.468,0.398 0.909,0.177 0,0.177 c -0.91,0 -1.468,0.221 -1.468,0.38 L -1.342,0.696 -1.3,0.752 -1.315,0.819 -1.456,0.843 C -1.599,0.758 -1.671,0.663 -1.671,0.557 -1.671,0.192 -0.831,0 0,0" /></g><g
             transform="translate(682.626,506.3107)"
             id="g561"><path
               inkscape:connector-curvature="0"
               id="path563"
               style="fill:#ffffff;fill-opacity:1;fill-rule:nonzero;stroke:none"
               d="m 0,0 -0.132,-0.048 0.055,-0.116 c 0.361,-0.128 0.568,-0.287 0.568,-0.435 0,-0.339 -1.064,-0.716 -2.591,-0.716 -1.528,0 -2.592,0.377 -2.592,0.716 0,0.153 0.219,0.316 0.603,0.447 l 0.058,0.115 -0.054,0.049 -0.078,10e-4 c -0.479,-0.164 -0.732,-0.375 -0.732,-0.612 0,-0.501 1.227,-0.893 2.795,-0.893 1.566,0 2.794,0.392 2.794,0.893 0,0.23 -0.24,0.438 -0.694,0.599" /></g><g
             transform="translate(680.5255,509.2801)"
             id="g565"><path
               inkscape:connector-curvature="0"
               id="path567"
               style="fill:#ffffff;fill-opacity:1;fill-rule:nonzero;stroke:none"
               d="m 0,0 0.033,-0.043 c 0.195,-0.261 1.171,-1.592 1.171,-2.141 0,-0.619 -0.54,-1.122 -1.204,-1.122 -0.664,0 -1.204,0.503 -1.204,1.122 0,0.549 0.976,1.88 1.171,2.141 z m -1.397,-2.184 c 0,-0.718 0.626,-1.303 1.397,-1.303 0.77,0 1.397,0.585 1.397,1.303 0,0.686 -1.266,2.322 -1.319,2.392 L 0,0.244 -0.078,0.207 C -0.132,0.138 -1.397,-1.497 -1.397,-2.184" /></g><g
             transform="translate(680.5173,506.4456)"
             id="g569"><path
               inkscape:connector-curvature="0"
               id="path571"
               style="fill:#ffffff;fill-opacity:1;fill-rule:nonzero;stroke:none"
               d="m 0,0 c -0.393,0 -0.712,0.298 -0.712,0.663 l -0.096,0.09 -0.097,-0.09 C -0.905,0.198 -0.499,-0.18 0,-0.18 L 0.096,-0.09 0,0" /></g><g
             transform="translate(680.8181,498.8807)"
             id="g573"><path
               inkscape:connector-curvature="0"
               id="path575"
               style="fill:#52ab96;fill-opacity:1;fill-rule:nonzero;stroke:none"
               d="m 0,0 c 0,-1.074 -0.87,-1.945 -1.945,-1.945 -1.074,0 -1.944,0.871 -1.944,1.945 0,1.074 0.87,1.945 1.944,1.945 C -0.87,1.945 0,1.074 0,0" /></g><g
             transform="translate(678.8734,500.3961)"
             id="g577"><path
               inkscape:connector-curvature="0"
               id="path579"
               style="fill:#fffffc;fill-opacity:1;fill-rule:nonzero;stroke:none"
               d="m 0,0 c -0.126,0 -0.23,-0.103 -0.23,-0.23 0,-0.126 0.104,-0.229 0.23,-0.229 0.127,0 0.23,0.103 0.23,0.229 C 0.23,-0.103 0.127,0 0,0 M 0,-0.367 -0.138,-0.23 0,-0.091 0.138,-0.23 Z" /></g><g
             transform="translate(678.8734,500.6411)"
             id="g581"><path
               inkscape:connector-curvature="0"
               id="path583"
               style="fill:#fffffc;fill-opacity:1;fill-rule:nonzero;stroke:none"
               d="M 0,0 -0.046,-0.046 V -0.107 L 0,-0.153 0.046,-0.107 v 0.061 z" /></g><g
             transform="translate(678.646,500.4591)"
             id="g585"><path
               inkscape:connector-curvature="0"
               id="path587"
               style="fill:#fffffc;fill-opacity:1;fill-rule:nonzero;stroke:none"
               d="M 0,0 -0.043,0.043 H -0.108 V -0.022 L -0.065,-0.065 -0.033,-0.078 0,-0.065 Z" /></g><g
             transform="translate(678.5056,500.2122)"
             id="g589"><path
               inkscape:connector-curvature="0"
               id="path591"
               style="fill:#fffffc;fill-opacity:1;fill-rule:nonzero;stroke:none"
               d="m 0,0 h -0.061 l -0.046,-0.046 0.046,-0.046 H 0 l 0.046,0.046 z" /></g><g
             transform="translate(678.646,499.9391)"
             id="g593"><path
               inkscape:connector-curvature="0"
               id="path595"
               style="fill:#fffffc;fill-opacity:1;fill-rule:nonzero;stroke:none"
               d="m 0,0 h -0.065 l -0.043,-0.043 v -0.065 l 0.032,-0.014 0.033,0.014 L 0,-0.065 Z" /></g><g
             transform="translate(678.8734,499.8449)"
             id="g597"><path
               inkscape:connector-curvature="0"
               id="path599"
               style="fill:#fffffc;fill-opacity:1;fill-rule:nonzero;stroke:none"
               d="M 0,0 -0.046,-0.046 V -0.107 L 0,-0.153 0.046,-0.107 v 0.061 z" /></g><g
             transform="translate(679.209,499.8957)"
             id="g601"><path
               inkscape:connector-curvature="0"
               id="path603"
               style="fill:#fffffc;fill-opacity:1;fill-rule:nonzero;stroke:none"
               d="M 0,0 -0.043,0.043 H -0.108 V -0.021 L -0.065,-0.065 -0.032,-0.078 0,-0.065 Z" /></g><g
             transform="translate(679.3022,500.2122)"
             id="g605"><path
               inkscape:connector-curvature="0"
               id="path607"
               style="fill:#fffffc;fill-opacity:1;fill-rule:nonzero;stroke:none"
               d="m 0,0 h -0.061 l -0.046,-0.046 0.046,-0.046 H 0 l 0.046,0.046 z" /></g><g
             transform="translate(679.209,500.5021)"
             id="g609"><path
               inkscape:connector-curvature="0"
               id="path611"
               style="fill:#fffffc;fill-opacity:1;fill-rule:nonzero;stroke:none"
               d="m 0,0 h -0.065 l -0.043,-0.043 v -0.065 l 0.032,-0.013 0.033,0.013 L 0,-0.065 Z" /></g><g
             transform="translate(680.1442,498.2943)"
             id="g613"><path
               inkscape:connector-curvature="0"
               id="path615"
               style="fill:#fffffc;fill-opacity:1;fill-rule:nonzero;stroke:none"
               d="m 0,0 v 0.002 l -0.001,0.005 -0.081,0.388 v 0 l -0.082,0.388 v 0.001 l -0.082,0.387 -0.045,0.037 h -1.96 L -2.296,1.171 -2.377,0.784 -2.378,0.783 -2.459,0.395 v 0 L -2.541,0.007 -2.542,0.002 V 0.001 -0.002 -0.186 l 0.046,-0.046 h 1.088 v -0.257 h -0.353 l -0.046,-0.046 v -0.138 h -0.444 l -0.046,-0.046 0.046,-0.045 h 0.49 0.98 0.49 l 0.046,0.045 -0.046,0.046 h -0.444 v 0.138 l -0.046,0.046 h -0.352 v 0.257 h 1.087 L 0,-0.186 v 0.183 0.001 z M -0.102,0.043 H -0.82 L -0.841,0.34 h 0.677 z M -0.246,0.728 -0.184,0.432 H -0.847 L -0.868,0.728 Z M -0.328,1.116 -0.265,0.82 h -0.609 l -0.021,0.296 z m -1.227,0 h 0.568 L -0.966,0.82 h -0.61 z M -1.582,0.728 H -0.96 L -0.939,0.432 H -1.603 Z M -1.609,0.34 h 0.677 l 0.02,-0.297 H -1.63 Z m -0.605,0.776 h 0.567 L -1.667,0.82 H -2.276 Z M -2.295,0.728 h 0.621 L -1.695,0.432 h -0.663 z m 1.468,-1.309 v -0.092 h -0.888 v 0.092 h 0.352 0.184 z m -0.49,0.349 h 0.092 v -0.257 h -0.092 z m 0.139,0.092 h -0.001 -0.184 v 0 H -2.45 v 0.092 h 0.218 l 0.046,0.046 -0.046,0.045 h -0.207 l 0.062,0.297 h 0.676 L -1.722,0.043 h -0.311 l -0.047,-0.045 0.047,-0.046 h 0.354 v 0 h 0.817 0.771 V -0.14 Z" /></g><g
             transform="translate(700.4989,482.0157)"
             id="g617"><path
               inkscape:connector-curvature="0"
               id="path619"
               style="fill:#7c7f6c;fill-opacity:1;fill-rule:nonzero;stroke:none"
               d="m 0,0 c 0,-4.749 -3.85,-8.598 -8.599,-8.598 -4.748,0 -8.599,3.849 -8.599,8.598 0,4.748 3.851,8.598 8.599,8.598 C -3.85,8.598 0,4.748 0,0" /></g><g
             transform="translate(688.7505,483.4593)"
             id="g621"><path
               inkscape:connector-curvature="0"
               id="path623"
               style="fill:#ffffff;fill-opacity:1;fill-rule:nonzero;stroke:none"
               d="m 0,0 c -0.128,-0.418 -0.325,-0.812 -0.518,-1.198 -0.235,-0.47 -0.479,-0.958 -0.584,-1.471 -0.255,-1.228 -0.026,-2.31 1.824,-3.501 -0.396,1.241 0.026,2.028 0.472,2.678 0.552,0.807 0.704,1.618 0.705,1.626 l 0.16,0.172 0.222,-0.078 c 0.016,-0.02 0.276,-0.367 0.348,-0.939 0.405,0.785 0.488,1.717 0.396,2.133 l 0.09,0.224 0.244,-0.002 C 5.14,-1.6 5.924,-4.125 5.26,-6.154 6.659,-5.222 7.404,-4.1 7.479,-2.811 7.573,-1.172 6.562,0.374 5.86,1.169 5.902,0.673 5.798,0.128 5.413,-0.216 L 5.207,-0.261 5.062,-0.109 C 4.456,2.186 3.18,3.124 2.589,3.447 2.63,2.141 1.935,0.602 0.516,-1.137 L 0.283,-1.205 0.134,-1.014 C 0.112,-0.624 0.088,-0.315 0,0 M 4.807,-6.9 4.658,-6.841 4.615,-6.587 C 5.532,-4.8 5.007,-2.355 3.485,-1.004 3.472,-1.725 3.236,-2.823 2.548,-3.588 L 2.293,-3.637 c -0.087,0.044 -0.135,0.139 -0.116,0.235 0.07,0.351 0.04,0.646 -0.019,0.874 C 2.041,-2.861 1.849,-3.296 1.549,-3.735 1.064,-4.444 0.684,-5.196 1.355,-6.592 L 1.308,-6.842 1.055,-6.873 c -2.204,1.243 -2.952,2.486 -2.579,4.291 0.116,0.567 0.373,1.081 0.62,1.577 0.295,0.589 0.574,1.147 0.613,1.757 0.005,0.097 0.075,0.176 0.168,0.198 C -0.029,0.969 0.066,0.926 0.113,0.843 0.37,0.374 0.469,-0.002 0.52,-0.437 1.761,1.194 2.302,2.607 2.129,3.765 L 2.202,3.961 2.407,4.003 C 2.492,3.976 4.421,3.338 5.35,0.441 5.507,0.852 5.434,1.409 5.278,1.75 L 5.337,2.007 5.6,2.014 C 5.987,1.733 8.051,-0.356 7.908,-2.836 7.816,-4.442 6.808,-5.8 4.913,-6.873 L 4.807,-6.9" /></g><g
             transform="translate(685.2558,460.5548)"
             id="g625"><path
               inkscape:connector-curvature="0"
               id="path627"
               style="fill:#45463d;fill-opacity:1;fill-rule:nonzero;stroke:none"
               d="m 0,0 c 0,-3.333 -2.702,-6.035 -6.035,-6.035 -3.332,0 -6.035,2.702 -6.035,6.035 0,3.332 2.703,6.035 6.035,6.035 C -2.702,6.035 0,3.332 0,0" /></g><path
             inkscape:connector-curvature="0"
             id="path629"
             style="fill:#ffffff;fill-opacity:1;fill-rule:nonzero;stroke:none"
             d="m 681.327,459.312 h -4.211 v 2.486 h 4.211 z m 0,-1.582 h -4.211 v 1.316 h 4.211 z m -4.211,5.648 h 4.211 v -1.316 h -4.211 z m 4.583,-1.581 0.162,0.133 -0.162,0.133 h -0.049 v 1.315 h 0.049 l 0.162,0.134 -0.162,0.132 h -4.956 l -0.161,-0.132 0.161,-0.134 h 0.05 v -1.315 h -0.05 l -0.161,-0.133 0.161,-0.133 h 0.05 v -2.485 h -0.05 l -0.161,-0.133 0.161,-0.133 h 0.05 v -1.316 h -0.05 l -0.161,-0.133 0.161,-0.132 h 4.956 l 0.162,0.132 -0.162,0.133 h -0.049 v 1.316 h 0.049 l 0.162,0.133 -0.162,0.133 h -0.049 v 2.485 z" /><g
             transform="translate(679.2958,459.8491)"
             id="g631"><path
               inkscape:connector-curvature="0"
               id="path633"
               style="fill:#ffffff;fill-opacity:1;fill-rule:nonzero;stroke:none"
               d="m 0,0 -0.119,-0.015 c -0.288,0 -0.522,0.235 -0.522,0.522 0,0.039 0.013,0.112 0.07,0.228 L -0.538,0.749 -0.52,0.72 -0.522,0.688 c 0,-0.307 0.219,-0.576 0.521,-0.636 L 0.021,0.026 0,0 M 0.314,1.246 C 0.139,1.481 -0.038,1.672 -0.039,1.674 L -0.074,1.688 -0.11,1.674 C -0.112,1.672 -0.288,1.481 -0.463,1.246 -0.701,0.925 -0.822,0.675 -0.822,0.505 c 0,-0.412 0.335,-0.747 0.748,-0.747 0.411,0 0.747,0.335 0.747,0.747 0,0.17 -0.121,0.42 -0.359,0.741" /></g><g
             transform="translate(658.0128,458.2446)"
             id="g635"><path
               inkscape:connector-curvature="0"
               id="path637"
               style="fill:none;stroke:#0d0e0e;stroke-width:0.44600001;stroke-linecap:butt;stroke-linejoin:miter;stroke-miterlimit:10;stroke-dasharray:none;stroke-opacity:1"
               d="M 0,0 20.885,-35.528 H 60.216" /></g><g
             transform="translate(662.4384,459.3826)"
             id="g639"><path
               inkscape:connector-curvature="0"
               id="path641"
               style="fill:none;stroke:#1a1a17;stroke-width:0.44600001;stroke-linecap:butt;stroke-linejoin:miter;stroke-miterlimit:10;stroke-dasharray:none;stroke-opacity:1"
               d="m 0,0 11.924,-17.886 h 91.045" /></g><g
             transform="translate(658.0698,553.8354)"
             id="g643"><path
               inkscape:connector-curvature="0"
               id="path645"
               style="fill:none;stroke:#3fa63c;stroke-width:0.44600001;stroke-linecap:butt;stroke-linejoin:miter;stroke-miterlimit:10;stroke-dasharray:none;stroke-opacity:1"
               d="M 0,0 V 22.507" /></g><g
             transform="translate(641,610.229)"
             id="g647"><path
               inkscape:connector-curvature="0"
               id="path649"
               style="fill:#358938;fill-opacity:1;fill-rule:nonzero;stroke:none"
               d="m 0,0 c 0,0 -5.058,0 -5.058,-5.058 v -25.036 c 0,0 0,-5.057 5.058,-5.057 h 34.14 c 0,0 5.057,0 5.057,5.057 v 25.036 c 0,0 0,5.058 -5.057,5.058 z" /></g><g
             transform="translate(666.6051,553.3271)"
             id="g651"><path
               inkscape:connector-curvature="0"
               id="path653"
               style="fill:#358938;fill-opacity:1;fill-rule:nonzero;stroke:none"
               d="m 0,0 c 0.034,-4.714 -3.76,-8.563 -8.474,-8.597 -4.714,-0.034 -8.563,3.76 -8.597,8.474 -0.034,4.714 3.761,8.563 8.474,8.597 C -3.883,8.508 -0.034,4.714 0,0" /></g><g
             transform="translate(660.2775,553.5594)"
             id="g655"><path
               inkscape:connector-curvature="0"
               id="path657"
               style="fill:#ffffff;fill-opacity:1;fill-rule:nonzero;stroke:none"
               d="m 0,0 -0.067,-0.258 0.164,-0.093 0.094,0.026 1.219,0.716 1.229,-0.698 0.094,-0.025 0.162,0.096 c 0.052,0.09 0.02,0.205 -0.071,0.256 L 1.595,0.719 1.586,2.132 C 1.585,2.235 1.499,2.32 1.396,2.319 1.292,2.318 1.208,2.233 1.208,2.129 L 1.219,0.716 Z" /></g><g
             transform="translate(653.0908,553.5689)"
             id="g659"><path
               inkscape:connector-curvature="0"
               id="path661"
               style="fill:#ffffff;fill-opacity:1;fill-rule:nonzero;stroke:none"
               d="M 0,0 0.094,0.026 1.313,0.741 2.542,0.043 2.636,0.019 2.798,0.114 C 2.851,0.205 2.818,0.32 2.728,0.371 L 1.499,1.069 1.489,2.483 C 1.488,2.586 1.403,2.67 1.299,2.669 1.195,2.669 1.112,2.584 1.112,2.479 L 1.122,1.066 -0.097,0.351 -0.164,0.093 0,0" /></g><g
             transform="translate(658.028,556.4988)"
             id="g663"><path
               inkscape:connector-curvature="0"
               id="path665"
               style="fill:#ffffff;fill-opacity:1;fill-rule:nonzero;stroke:none"
               d="M 0,0 C 0.104,0.001 0.189,-0.083 0.19,-0.187 0.191,-0.291 0.107,-0.376 0.003,-0.376 -0.101,-0.377 -0.186,-0.294 -0.186,-0.189 -0.187,-0.086 -0.104,-0.001 0,0 m -2.386,-1.779 0.094,0.026 1.93,1.133 c 0.1,-0.084 0.228,-0.134 0.368,-0.133 0.14,0.001 0.268,0.053 0.366,0.138 l 1.946,-1.105 0.094,-0.025 0.163,0.096 c 0.052,0.09 0.019,0.205 -0.07,0.256 l -1.947,1.106 0.008,0.103 C 0.565,0.061 0.406,0.269 0.186,0.345 L 0.17,2.584 C 0.169,2.688 0.084,2.772 -0.02,2.771 -0.124,2.77 -0.207,2.685 -0.207,2.581 L -0.191,0.343 C -0.409,0.264 -0.565,0.053 -0.564,-0.192 l 0.011,-0.103 -1.93,-1.134 -0.067,-0.257 0.164,-0.093" /></g><g
             transform="translate(663.8746,549.239)"
             id="g667"><path
               inkscape:connector-curvature="0"
               id="path669"
               style="fill:#ffffff;fill-opacity:1;fill-rule:nonzero;stroke:none"
               d="M 0,0 C -0.641,0.304 -1.3,0.555 -1.971,0.752 L -1.995,4.177 C -1.996,4.281 -2.081,4.365 -2.185,4.364 -2.29,4.363 -2.373,4.278 -2.372,4.174 l 0.024,-3.318 c -1.059,0.276 -2.151,0.419 -3.267,0.425 l -0.034,4.662 c 0,0.104 -0.085,0.188 -0.189,0.187 C -5.943,6.129 -6.026,6.044 -6.025,5.941 L -5.991,1.278 C -7.107,1.256 -8.197,1.097 -9.252,0.806 L -9.278,4.537 C -9.28,4.641 -9.365,4.725 -9.468,4.724 -9.573,4.723 -9.656,4.638 -9.656,4.534 l 0.028,-3.837 c -0.668,-0.207 -1.322,-0.467 -1.959,-0.78 -0.093,-0.046 -0.132,-0.16 -0.085,-0.253 0.045,-0.093 0.158,-0.131 0.251,-0.085 0.654,0.322 1.325,0.586 2.013,0.79 l 0.046,0.014 c 1.147,0.338 2.338,0.513 3.561,0.522 1.223,0.008 2.416,-0.149 3.569,-0.47 l 0.047,-0.013 c 0.69,-0.196 1.365,-0.45 2.023,-0.762 l 0.082,-0.019 0.169,0.108 C 0.133,-0.157 0.093,-0.045 0,0" /></g></g></g><text
         id="text673"
         style="font-variant:normal;font-weight:300;font-stretch:normal;font-size:9.81340027px;font-family:'FS Albert Pro Light';-inkscape-font-specification:FSAlbertPro-Light;writing-mode:lr-tb;fill:#ffffff;fill-opacity:1;fill-rule:nonzero;stroke:none"
         transform="matrix(1,0,0,-1,648.232,598.2471)"><tspan
           id="tspan671"
           sodipodi:role="line"
           y="0"
           x="0 5.2992358 7.2128491 12.512085">9.1%</tspan></text>
<text
         id="text679"
         style="font-variant:normal;font-weight:bold;font-stretch:normal;font-size:5.35279989px;font-family:'FS Albert Pro';-inkscape-font-specification:FSAlbertPro-Bold;writing-mode:lr-tb;fill:#ffffff;fill-opacity:1;fill-rule:nonzero;stroke:none"
         transform="matrix(1,0,0,-1,646.5188,587.5416)"><tspan
           id="tspan675"
           sodipodi:role="line"
           y="0"
           x="0 3.0029209 6.0058417 7.1781049 10.181026 13.183947 14.479324 18.071053">15.45 GW</tspan><tspan
           id="tspan677"
           sodipodi:role="line"
           y="7.1352825"
           x="5.3420944 10.373727 11.770807 14.773728">Wind</tspan></text>
<g
         id="g681"><g
           clip-path="url(#clipPath687)"
           id="g683"><g
             transform="translate(642.081,594.2971)"
             id="g689"><path
               inkscape:connector-curvature="0"
               id="path691"
               style="fill:none;stroke:#ffffff;stroke-width:0.66900003;stroke-linecap:butt;stroke-linejoin:miter;stroke-miterlimit:4;stroke-dasharray:none;stroke-opacity:1"
               d="M 0,0 H 31.864" /></g><g
             transform="translate(684.0601,532.3401)"
             id="g693"><path
               inkscape:connector-curvature="0"
               id="path695"
               style="fill:none;stroke:#2e8177;stroke-width:0.44600001;stroke-linecap:butt;stroke-linejoin:miter;stroke-miterlimit:10;stroke-dasharray:none;stroke-opacity:1"
               d="M 0,0 V 41.726 H 34.716" /></g><g
             transform="translate(684.0601,507.0515)"
             id="g697"><path
               inkscape:connector-curvature="0"
               id="path699"
               style="fill:none;stroke:#65bdba;stroke-width:0.44600001;stroke-linecap:butt;stroke-linejoin:miter;stroke-miterlimit:10;stroke-dasharray:none;stroke-opacity:1"
               d="m 0,0 h 40.462 4.675 v 36.995 h 36.919" /></g><g
             transform="translate(679.4316,498.8325)"
             id="g701"><path
               inkscape:connector-curvature="0"
               id="path703"
               style="fill:none;stroke:#52ab96;stroke-width:0.44600001;stroke-linecap:butt;stroke-linejoin:miter;stroke-miterlimit:10;stroke-dasharray:none;stroke-opacity:1"
               d="M 0,0 H 92.271 V 15.173 H 132.83" /></g><g
             transform="translate(696.7043,482.0159)"
             id="g705"><path
               inkscape:connector-curvature="0"
               id="path707"
               style="fill:none;stroke:#7c7f6c;stroke-width:0.44600001;stroke-linecap:butt;stroke-linejoin:miter;stroke-miterlimit:10;stroke-dasharray:none;stroke-opacity:1"
               d="M 0,0 H 157.091" /></g><g
             transform="translate(677.9982,460.5549)"
             id="g709"><path
               inkscape:connector-curvature="0"
               id="path711"
               style="fill:none;stroke:#45463d;stroke-width:0.44600001;stroke-linecap:butt;stroke-linejoin:miter;stroke-miterlimit:10;stroke-dasharray:none;stroke-opacity:1"
               d="M 0,0 H 131.664" /></g><g
             transform="translate(692.9088,532.002)"
             id="g713"><path
               inkscape:connector-curvature="0"
               id="path715"
               style="fill:#2e8177;fill-opacity:1;fill-rule:nonzero;stroke:none"
               d="m 0,0 c 0.093,-4.887 -3.794,-8.924 -8.681,-9.017 -4.887,-0.093 -8.925,3.794 -9.017,8.681 -0.093,4.888 3.793,8.925 8.681,9.018 C -4.13,8.774 -0.092,4.887 0,0" /></g><g
             transform="translate(686.0256,527.5649)"
             id="g717"><path
               inkscape:connector-curvature="0"
               id="path719"
               style="fill:#ffffff;fill-opacity:1;fill-rule:nonzero;stroke:none"
               d="m 0,0 -1.469,-0.027 c -0.094,-0.002 -0.167,-0.077 -0.165,-0.167 10e-4,-0.09 0.078,-0.162 0.171,-0.161 l 1.469,0.029 C 0.1,-0.325 0.172,-0.25 0.171,-0.16 0.169,-0.07 0.093,0.002 0,0" /></g><g
             transform="translate(683.2299,534.3625)"
             id="g721"><path
               inkscape:connector-curvature="0"
               id="path723"
               style="fill:#ffffff;fill-opacity:1;fill-rule:nonzero;stroke:none"
               d="m 0,0 0.013,-0.088 -1.084,-0.02 0.009,0.088 c 0.045,0.43 0.064,0.906 0.055,1.378 -0.009,0.472 -0.046,0.948 -0.107,1.374 l -0.012,0.087 1.084,0.02 -0.01,-0.087 C -0.097,2.322 -0.116,1.846 -0.107,1.374 -0.098,0.903 -0.061,0.427 0,0 M 0.144,3.17 -1.325,3.141 -1.452,3.082 -1.487,2.951 c 0.084,-0.484 0.135,-1.036 0.145,-1.6 0.012,-0.563 -0.017,-1.115 -0.084,-1.599 l -0.001,-0.048 c 0.002,-0.018 0.047,-0.296 0.065,-0.438 0.011,-0.089 0.094,-0.152 0.186,-0.142 l 0.113,0.061 0.034,0.121 -0.024,0.173 -0.011,0.087 1.083,0.02 L 0.01,-0.501 C -0.024,-0.818 -0.042,-1.156 -0.047,-1.505 L 0,-1.621 0.119,-1.671 c 0.096,0.002 0.168,0.074 0.17,0.163 0.004,0.438 0.033,0.855 0.087,1.239 L 0.373,-0.215 C 0.289,0.268 0.238,0.82 0.227,1.381 0.217,1.944 0.247,2.499 0.313,2.985 L 0.272,3.115 0.144,3.17" /></g><g
             transform="translate(687.3021,530.7983)"
             id="g725"><path
               inkscape:connector-curvature="0"
               id="path727"
               style="fill:#ffffff;fill-opacity:1;fill-rule:nonzero;stroke:none"
               d="m 0,0 c -0.286,-0.813 -0.684,-1.538 -1.118,-2.044 l -0.133,-0.155 -0.008,0.203 c -0.023,0.659 0.123,1.469 0.409,2.281 0.286,0.812 0.684,1.538 1.118,2.043 L 0.402,2.484 0.409,2.281 C 0.432,1.623 0.287,0.813 0,0.001 Z m -1.887,-2.388 c -0.766,0.012 -1.701,0.23 -2.635,0.614 -0.933,0.384 -1.747,0.885 -2.29,1.41 l -0.14,0.136 0.198,-0.004 c 0.669,-0.01 1.492,-0.184 2.315,-0.489 0.116,-0.043 0.217,-0.083 0.319,-0.125 0.933,-0.383 1.747,-0.883 2.29,-1.409 l 0.141,-0.136 z m -4.595,4.67 -0.111,0.21 0.217,-0.104 c 0.815,-0.393 1.743,-1.069 2.613,-1.905 0.616,-0.59 1.16,-1.223 1.574,-1.828 l 0.243,-0.353 -0.355,0.247 c -0.49,0.34 -1.074,0.654 -1.688,0.907 -0.092,0.038 -0.185,0.074 -0.277,0.109 l -0.026,0.016 -0.196,0.184 C -5.358,0.6 -6.067,1.494 -6.482,2.282 M 0.681,2.842 0.571,2.964 0.408,2.933 C -0.193,2.434 -0.781,1.483 -1.167,0.391 -1.383,-0.222 -1.523,-0.848 -1.574,-1.419 l -0.021,-0.236 -0.126,0.202 c -0.447,0.714 -1.072,1.465 -1.807,2.169 -1.119,1.076 -2.355,1.902 -3.304,2.211 L -7.003,2.886 -7.042,2.717 c 0.28,-0.776 0.952,-1.763 1.844,-2.708 l 0.184,-0.194 -0.262,0.066 C -5.875,0.032 -6.43,0.104 -6.905,0.095 -7.043,0.092 -7.175,0.083 -7.297,0.066 l -0.133,-0.098 0.02,-0.161 c 0.519,-0.682 1.55,-1.386 2.758,-1.883 1.026,-0.421 2.09,-0.654 2.921,-0.638 0.153,0.003 0.276,0.012 0.385,0.028 l 0.09,0.039 c 0.599,0.499 1.187,1.449 1.573,2.541 0.386,1.093 0.521,2.195 0.364,2.948" /></g><g
             transform="translate(686.0448,535.1625)"
             id="g729"><path
               inkscape:connector-curvature="0"
               id="path731"
               style="fill:#ffffff;fill-opacity:1;fill-rule:nonzero;stroke:none"
               d="M 0,0 C 0.094,0.434 0.321,0.924 0.635,1.381 0.949,1.837 1.33,2.226 1.707,2.476 L 1.871,2.584 1.83,2.395 C 1.735,1.961 1.509,1.471 1.195,1.015 0.879,0.558 0.498,0.169 0.123,-0.081 l -0.165,-0.108 z m -0.353,-0.753 0.013,-0.088 -1.083,-0.02 0.008,0.087 c 0.045,0.428 0.064,0.906 0.055,1.378 -0.009,0.473 -0.046,0.948 -0.107,1.375 L -1.48,2.065 -0.396,2.086 -0.405,1.999 C -0.45,1.57 -0.469,1.094 -0.46,0.621 -0.451,0.148 -0.414,-0.327 -0.353,-0.753 M -1.679,2.388 -1.804,2.329 -1.841,2.198 c 0.085,-0.484 0.136,-1.037 0.147,-1.6 0.011,-0.562 -0.02,-1.115 -0.085,-1.599 V -1.06 c 0.123,-0.696 0.172,-1.493 0.141,-2.304 l 0.037,-0.107 0.523,-0.64 0.235,-0.026 0.026,0.23 -0.484,0.592 10e-4,0.029 c 0.021,0.694 -0.015,1.389 -0.104,2.011 l -0.013,0.087 1.082,0.021 -0.009,-0.087 c -0.06,-0.557 -0.073,-1.157 -0.041,-1.781 l 0.172,-0.154 h 0.005 c 0.092,0.004 0.163,0.081 0.158,0.171 -0.037,0.71 -0.013,1.381 0.072,1.996 L 0.02,-0.969 c -0.02,0.12 -0.039,0.241 -0.055,0.365 l -0.007,0.055 0.05,0.024 c 0.508,0.25 1.042,0.744 1.464,1.357 0.471,0.683 0.75,1.434 0.742,2.01 L 2.14,2.975 1.986,2.992 C 1.437,2.78 0.828,2.246 0.358,1.563 0.234,1.384 0.123,1.198 0.026,1.009 l -0.158,-0.303 0.007,0.34 c 0.006,0.422 0.036,0.821 0.085,1.186 l -0.041,0.13 -0.127,0.054 z" /></g><g
             transform="translate(682.1003,527.1637)"
             id="g733"><path
               inkscape:connector-curvature="0"
               id="path735"
               style="fill:#ffffff;fill-opacity:1;fill-rule:nonzero;stroke:none"
               d="m 0,0 1.469,0.028 0.127,0.06 0.036,0.131 C 1.607,0.359 1.586,0.505 1.567,0.653 1.556,0.742 1.474,0.806 1.38,0.796 1.289,0.785 1.223,0.703 1.234,0.613 L 1.259,0.438 1.27,0.351 0.187,0.33 0.197,0.418 C 0.221,0.654 0.238,0.901 0.247,1.154 0.249,1.244 0.178,1.32 0.084,1.323 H 0.077 L -0.088,1.165 C -0.1,0.82 -0.128,0.491 -0.169,0.185 L -0.128,0.055 0,0" /></g><g
             transform="translate(664.4809,461.4309)"
             id="g737"><path
               inkscape:connector-curvature="0"
               id="path739"
               style="fill:#1a1a17;fill-opacity:1;fill-rule:nonzero;stroke:none"
               d="m 0,0 c 0,-1.592 -1.29,-2.883 -2.883,-2.883 -1.592,0 -2.883,1.291 -2.883,2.883 0,1.592 1.291,2.883 2.883,2.883 C -1.29,2.883 0,1.592 0,0" /></g><g
             transform="translate(662.8843,462.687)"
             id="g741"><path
               inkscape:connector-curvature="0"
               id="path743"
               style="fill:#ffffff;fill-opacity:1;fill-rule:nonzero;stroke:none"
               d="M 0,0 -0.008,0.009 -0.217,0.139 -0.247,0.136 -0.293,0.084 -0.34,0.24 -0.348,0.251 -0.612,0.45 -0.635,0.453 -0.879,0.35 -1.155,0.305 -1.394,0.421 -1.397,0.422 -1.594,0.485 -1.615,0.482 -1.789,0.354 -2.013,0.362 -2.027,0.358 -2.271,0.189 -2.281,0.17 V 0.094 l -0.16,-0.131 -0.001,-0.002 -0.328,-0.335 2.971,-0.002 z" /></g><g
             transform="translate(660.0042,462.0526)"
             id="g745"><path
               inkscape:connector-curvature="0"
               id="path747"
               style="fill:#ffffff;fill-opacity:1;fill-rule:nonzero;stroke:none"
               d="m 0,0 -0.014,-0.014 v -0.542 l 0.303,-0.827 0.014,-0.009 h 2.583 l 0.012,0.009 0.303,0.822 10e-4,0.547 L 3.188,0 Z M 2.886,-1.519 H 0.303 l -0.134,0.092 -0.303,0.823 -0.008,0.048 v 0.542 L 0,0.127 H 3.188 L 3.33,-0.014 V -0.556 L 3.321,-0.604 3.018,-1.427 Z" /></g><g
             transform="translate(662.5936,459.8773)"
             id="g749"><path
               inkscape:connector-curvature="0"
               id="path751"
               style="fill:#ffffff;fill-opacity:1;fill-rule:nonzero;stroke:none"
               d="M 0,0 -0.149,0.148 0,0.295 0.149,0.148 0,0 M -1.985,0.004 -2.13,0.148 -1.985,0.292 -1.84,0.148 -1.985,0.004 m 2.46,0.521 H -2.466 L -2.583,0.409 -2.466,0.293 h 0.177 L -2.324,0.144 c 0,-0.184 0.149,-0.333 0.335,-0.333 0.186,0 0.335,0.149 0.335,0.333 l -0.035,0.149 h 0.274 V 0.087 l 0.039,-0.039 h 0.76 l 0.04,0.039 v 0.206 h 0.275 L -0.338,0.144 c 0,-0.184 0.151,-0.333 0.336,-0.333 0.185,0 0.336,0.149 0.336,0.333 L 0.297,0.293 H 0.475 L 0.592,0.409 0.475,0.525" /></g><g
             transform="translate(658.8473,459.3318)"
             id="g753"><path
               inkscape:connector-curvature="0"
               id="path755"
               style="fill:#0d0e0e;fill-opacity:1;fill-rule:nonzero;stroke:none"
               d="m 0,0 c 0,-0.782 -0.634,-1.416 -1.416,-1.416 -0.782,0 -1.416,0.634 -1.416,1.416 0,0.782 0.634,1.416 1.416,1.416 C -0.634,1.416 0,0.782 0,0" /></g><g
             transform="translate(658.6102,458.7435)"
             id="g757"><path
               inkscape:connector-curvature="0"
               id="path759"
               style="fill:#fffff7;fill-opacity:1;fill-rule:nonzero;stroke:none"
               d="M 0,0 0.034,0.033 0,0.067 H -2.31 L -2.343,0.033 -2.31,0 Z" /></g><g
             transform="translate(658.0809,458.5871)"
             id="g761"><path
               inkscape:connector-curvature="0"
               id="path763"
               style="fill:#fffff7;fill-opacity:1;fill-rule:nonzero;stroke:none"
               d="M 0,0 0.033,0.033 0,0.066 H -1.155 L -1.188,0.033 -1.155,0 Z" /></g><g
             transform="translate(656.7728,458.5871)"
             id="g765"><path
               inkscape:connector-curvature="0"
               id="path767"
               style="fill:#fffff7;fill-opacity:1;fill-rule:nonzero;stroke:none"
               d="M 0,0 0.033,0.033 0,0.066 H -0.158 L -0.191,0.033 -0.158,0 Z" /></g><g
             transform="translate(656.5542,458.9664)"
             id="g769"><path
               inkscape:connector-curvature="0"
               id="path771"
               style="fill:#fffff7;fill-opacity:1;fill-rule:nonzero;stroke:none"
               d="m 0,0 0.005,0.019 0.035,0.143 0.002,0.01 c 0.035,0.156 0.079,0.39 0.097,0.633 L 0.141,0.819 H 0.664 L 0.665,0.805 C 0.69,0.468 0.768,0.143 0.8,0.019 L 0.805,0 Z M 0.145,0.902 0.147,0.961 V 0.976 H 0.658 V 0.961 L 0.66,0.902 0.661,0.886 H 0.144 Z m 0.66,-0.586 0.004,0.009 c 0.032,0.171 0.054,0.333 0.065,0.48 L 0.875,0.819 H 1.4 L 1.401,0.805 C 1.414,0.628 1.442,0.433 1.486,0.227 L 1.49,0.208 H 1.006 L 0.973,0.175 V 0 H 0.874 L 0.871,0.012 C 0.857,0.063 0.831,0.17 0.804,0.306 L 0.803,0.311 Z M 0.88,0.902 0.881,0.961 0.882,0.976 H 1.393 V 0.961 L 1.395,0.902 1.396,0.886 H 0.879 Z M 1.708,0 H 1.04 V 0.142 H 1.708 Z M -0.039,0.123 -0.066,0.012 -0.069,0 h -0.256 v 0.142 h 0.291 z m 2.129,-0.19 v 0.19 L 2.056,0.156 2.023,0.123 V 0 H 1.932 V 0.227 L 1.899,0.261 1.865,0.227 V 0 H 1.774 V 0.175 L 1.741,0.208 H 1.559 L 1.556,0.221 C 1.512,0.424 1.459,0.726 1.459,1.009 L 1.426,1.042 H 0.849 L 0.815,1.009 C 0.815,0.886 0.805,0.748 0.786,0.6 L 0.77,0.483 0.755,0.6 C 0.735,0.749 0.724,0.886 0.724,1.009 L 0.691,1.042 H 0.113 L 0.08,1.009 C 0.08,0.727 0.028,0.425 -0.016,0.221 L -0.019,0.208 h -0.34 L -0.392,0.175 v -0.242 h 1.243 z" /></g><g
             transform="translate(657.0521,459.6744)"
             id="g773"><path
               inkscape:connector-curvature="0"
               id="path775"
               style="fill:#fffff7;fill-opacity:1;fill-rule:nonzero;stroke:none"
               d="m 0,0 -0.07,-0.12 0.031,-0.052 H 0.1 Z" /></g><g
             transform="translate(656.9521,459.4419)"
             id="g777"><path
               inkscape:connector-curvature="0"
               id="path779"
               style="fill:#fffff7;fill-opacity:1;fill-rule:nonzero;stroke:none"
               d="M 0,0 -0.031,0.008 -0.1,-0.111 0,-0.138 0.1,-0.111 0.03,0.008 Z" /></g><g
             transform="translate(656.9215,459.5547)"
             id="g781"><path
               inkscape:connector-curvature="0"
               id="path783"
               style="fill:#fffff7;fill-opacity:1;fill-rule:nonzero;stroke:none"
               d="m 0,0 -0.069,0.12 -0.1,-0.172 h 0.139 z" /></g></g></g><text
         id="text787"
         style="font-variant:normal;font-weight:300;font-stretch:normal;font-size:9.81340027px;font-family:'FS Albert Pro Light';-inkscape-font-specification:FSAlbertPro-Light;writing-mode:lr-tb;fill:#353c48;fill-opacity:1;fill-rule:nonzero;stroke:none"
         transform="matrix(1,0,0,-1,510.1472,500.2539)"><tspan
           id="tspan785"
           sodipodi:role="line"
           y="0"
           x="0 5.2992358 10.598472 12.512085 17.811321">60.6%</tspan></text>
<text
         id="text793"
         style="font-variant:normal;font-weight:bold;font-stretch:normal;font-size:5.35279989px;font-family:'FS Albert Pro';-inkscape-font-specification:FSAlbertPro-Bold;writing-mode:lr-tb;fill:#353c48;fill-opacity:1;fill-rule:nonzero;stroke:none"
         transform="matrix(1,0,0,-1,509.5822,489.5484)"><tspan
           id="tspan789"
           sodipodi:role="line"
           y="0"
           x="0 3.0029209 6.0058417 9.0087624 10.181026 13.183947 16.186867 17.482244 21.073973">102.90 GW</tspan><tspan
           id="tspan791"
           sodipodi:role="line"
           y="7.1352825"
           x="6.0004888 9.6885681 12.375673 15.357183 17.161077">Hydro</tspan></text>
</g></g></svg>