<?xml version="1.0" encoding="utf-8" standalone="no"?>
<!DOCTYPE svg PUBLIC "-//W3C//DTD SVG 1.1//EN"
  "http://www.w3.org/Graphics/SVG/1.1/DTD/svg11.dtd">
<!-- Created with matplotlib (https://matplotlib.org/) -->
<svg height="345.6pt" version="1.1" viewBox="0 0 460.8 345.6" width="460.8pt" xmlns="http://www.w3.org/2000/svg" xmlns:xlink="http://www.w3.org/1999/xlink">
 <defs>
  <style type="text/css">
*{stroke-linecap:butt;stroke-linejoin:round;}
  </style>
 </defs>
 <g id="figure_1">
  <g id="patch_1">
   <path d="M 0 345.6 
L 460.8 345.6 
L 460.8 0 
L 0 0 
z
" style="fill:#ffffff;"/>
  </g>
  <g id="axes_1">
   <g id="patch_2">
    <path d="M 57.6 307.584 
L 414.72 307.584 
L 414.72 41.472 
L 57.6 41.472 
z
" style="fill:#ffffff;"/>
   </g>
   <g id="PathCollection_1">
    <path clip-path="url(#p12fa1c00b9)" d="M 60.576 307.584 
L 63.552 307.584 
L 66.528 307.584 
L 69.504 307.584 
L 72.48 307.584 
L 75.456 307.584 
L 78.432 307.584 
L 81.408 307.584 
L 84.384 307.584 
L 87.36 307.584 
L 90.336 307.584 
L 93.312 307.584 
L 96.288 307.584 
L 99.264 307.584 
L 102.24 307.584 
L 105.216 307.584 
L 108.192 307.584 
L 111.168 307.584 
L 114.144 307.584 
L 117.12 307.584 
L 120.096 307.584 
L 123.072 307.584 
L 126.048 307.584 
L 129.024 307.584 
L 132 307.584 
L 134.976 307.584 
L 137.952 307.584 
L 140.928 307.584 
L 143.904 307.584 
L 146.88 307.584 
L 149.856 307.584 
L 152.832 307.584 
L 155.808 307.584 
L 158.784 307.584 
L 161.76 307.584 
L 164.736 307.584 
L 167.712 307.584 
L 170.688 307.584 
L 173.664 307.584 
L 176.64 307.584 
L 179.616 307.584 
L 182.592 307.584 
L 185.568 307.584 
L 188.544 307.584 
L 191.52 307.584 
L 194.496 307.584 
L 197.472 307.584 
L 200.448 307.584 
L 203.424 307.584 
L 206.4 307.584 
L 209.376 307.584 
L 212.352 307.584 
L 215.328 307.584 
L 218.304 307.584 
L 221.28 307.584 
L 224.256 307.584 
L 227.232 307.584 
L 230.208 307.584 
L 233.184 307.584 
L 236.16 307.584 
L 239.136 307.584 
L 242.112 307.584 
L 245.088 307.584 
L 248.064 307.584 
L 251.04 307.584 
L 254.016 307.584 
L 256.992 307.584 
L 259.968 307.584 
L 262.944 307.584 
L 265.92 307.584 
L 268.896 307.584 
L 271.872 307.584 
L 274.848 307.584 
L 277.824 307.584 
L 280.8 307.584 
L 283.776 307.584 
L 286.752 307.584 
L 289.728 307.584 
L 292.704 307.584 
L 295.68 307.584 
L 298.656 307.584 
L 301.632 307.584 
L 304.608 307.584 
L 307.584 307.584 
L 310.56 307.584 
L 313.536 307.584 
L 316.512 307.584 
L 319.488 307.584 
L 322.464 307.584 
L 325.44 307.584 
L 328.416 307.584 
L 331.392 307.584 
L 334.368 307.584 
L 337.344 307.584 
L 340.32 307.584 
L 343.296 307.584 
L 346.272 307.584 
L 349.248 307.584 
L 352.224 307.584 
L 355.2 307.584 
L 358.176 307.584 
L 361.152 307.584 
L 364.128 307.584 
L 367.104 307.584 
L 370.08 307.584 
L 373.056 307.584 
L 376.032 307.584 
L 379.008 307.584 
L 381.984 307.584 
L 384.96 307.584 
L 387.936 307.584 
L 390.912 307.584 
L 393.888 307.584 
L 396.864 307.584 
L 399.84 307.584 
L 402.816 307.584 
L 405.792 307.584 
L 408.768 307.584 
L 411.744 307.584 
L 414.72 307.584 
L 414.72 305.3664 
L 414.72 303.1488 
L 414.72 300.9312 
L 414.72 298.7136 
L 414.72 296.496 
L 414.72 294.2784 
L 414.72 292.0608 
L 414.72 289.8432 
L 414.72 287.6256 
L 414.72 285.408 
L 414.72 283.1904 
L 414.72 280.9728 
L 414.72 278.7552 
L 414.72 276.5376 
L 414.72 274.32 
L 414.72 272.1024 
L 414.72 269.8848 
L 414.72 267.6672 
L 414.72 265.4496 
L 414.72 263.232 
L 414.72 261.0144 
L 414.72 258.7968 
L 414.72 256.5792 
L 414.72 254.3616 
L 414.72 252.144 
L 414.72 249.9264 
L 414.72 247.7088 
L 414.72 245.4912 
L 414.72 243.2736 
L 414.72 241.056 
L 414.72 238.8384 
L 414.72 237.7296 
L 411.744 237.7296 
L 408.768 237.7296 
L 405.792 237.7296 
L 404.304 236.6208 
L 405.792 235.512 
L 408.768 235.512 
L 411.744 235.512 
L 414.72 235.512 
L 414.72 234.4032 
L 414.72 232.1856 
L 414.72 229.968 
L 414.72 227.7504 
L 414.72 225.5328 
L 414.72 224.424 
L 411.744 224.424 
L 410.256 225.5328 
L 408.768 226.6416 
L 405.792 226.6416 
L 402.816 226.6416 
L 401.328 227.7504 
L 399.84 228.8592 
L 396.864 228.8592 
L 395.376 229.968 
L 393.888 231.0768 
L 390.912 231.0768 
L 387.936 231.0768 
L 386.448 232.1856 
L 384.96 233.2944 
L 381.984 233.2944 
L 380.496 234.4032 
L 379.008 235.512 
L 377.52 236.6208 
L 379.008 237.7296 
L 381.984 237.7296 
L 384.96 237.7296 
L 387.936 237.7296 
L 390.912 237.7296 
L 393.888 237.7296 
L 396.864 237.7296 
L 398.352 236.6208 
L 399.84 235.512 
L 401.328 236.6208 
L 402.816 237.7296 
L 404.304 238.8384 
L 402.816 239.9472 
L 399.84 239.9472 
L 396.864 239.9472 
L 393.888 239.9472 
L 390.912 239.9472 
L 389.424 241.056 
L 387.936 242.1648 
L 384.96 242.1648 
L 381.984 242.1648 
L 379.008 242.1648 
L 377.52 243.2736 
L 376.032 244.3824 
L 373.056 244.3824 
L 370.08 244.3824 
L 367.104 244.3824 
L 365.616 245.4912 
L 364.128 246.6 
L 361.152 246.6 
L 358.176 246.6 
L 355.2 246.6 
L 352.224 246.6 
L 350.736 247.7088 
L 349.248 248.8176 
L 346.272 248.8176 
L 343.296 248.8176 
L 340.32 248.8176 
L 338.832 249.9264 
L 337.344 251.0352 
L 334.368 251.0352 
L 332.88 252.144 
L 331.392 253.2528 
L 328.416 253.2528 
L 325.44 253.2528 
L 322.464 253.2528 
L 320.976 254.3616 
L 319.488 255.4704 
L 316.512 255.4704 
L 313.536 255.4704 
L 310.56 255.4704 
L 309.072 256.5792 
L 307.584 257.688 
L 304.608 257.688 
L 301.632 257.688 
L 298.656 257.688 
L 295.68 257.688 
L 294.192 258.7968 
L 292.704 259.9056 
L 289.728 259.9056 
L 286.752 259.9056 
L 283.776 259.9056 
L 282.288 261.0144 
L 280.8 262.1232 
L 277.824 262.1232 
L 274.848 262.1232 
L 273.36 263.232 
L 271.872 264.3408 
L 268.896 264.3408 
L 265.92 264.3408 
L 262.944 264.3408 
L 261.456 265.4496 
L 259.968 266.5584 
L 256.992 266.5584 
L 254.016 266.5584 
L 252.528 267.6672 
L 251.04 268.776 
L 248.064 268.776 
L 245.088 268.776 
L 243.6 269.8848 
L 243.6 272.1024 
L 242.112 273.2112 
L 239.136 273.2112 
L 236.16 273.2112 
L 233.184 273.2112 
L 231.696 274.32 
L 230.208 275.4288 
L 227.232 275.4288 
L 224.256 275.4288 
L 221.28 275.4288 
L 219.792 276.5376 
L 218.304 277.6464 
L 215.328 277.6464 
L 212.352 277.6464 
L 209.376 277.6464 
L 207.888 278.7552 
L 206.4 279.864 
L 203.424 279.864 
L 200.448 279.864 
L 197.472 279.864 
L 194.496 279.864 
L 193.008 280.9728 
L 191.52 282.0816 
L 188.544 282.0816 
L 185.568 282.0816 
L 182.592 282.0816 
L 181.104 283.1904 
L 181.104 285.408 
L 179.616 286.5168 
L 178.128 285.408 
L 176.64 284.2992 
L 173.664 284.2992 
L 170.688 284.2992 
L 169.2 285.408 
L 167.712 286.5168 
L 164.736 286.5168 
L 161.76 286.5168 
L 158.784 286.5168 
L 157.296 287.6256 
L 155.808 288.7344 
L 154.32 289.8432 
L 152.832 290.952 
L 149.856 290.952 
L 146.88 290.952 
L 143.904 290.952 
L 140.928 290.952 
L 139.44 292.0608 
L 137.952 293.1696 
L 134.976 293.1696 
L 132 293.1696 
L 129.024 293.1696 
L 127.536 294.2784 
L 126.048 295.3872 
L 123.072 295.3872 
L 120.096 295.3872 
L 117.12 295.3872 
L 115.632 296.496 
L 114.144 297.6048 
L 111.168 297.6048 
L 108.192 297.6048 
L 106.704 298.7136 
L 105.216 299.8224 
L 102.24 299.8224 
L 99.264 299.8224 
L 96.288 299.8224 
L 93.312 299.8224 
L 91.824 300.9312 
L 90.336 302.04 
L 87.36 302.04 
L 84.384 302.04 
L 82.896 303.1488 
L 81.408 304.2576 
L 78.432 304.2576 
L 75.456 304.2576 
L 72.48 304.2576 
L 70.992 305.3664 
L 69.504 306.4752 
L 66.528 306.4752 
L 63.552 306.4752 
L 60.576 306.4752 
L 59.088 305.3664 
L 60.576 304.2576 
L 62.064 303.1488 
L 63.552 302.04 
L 65.04 300.9312 
L 66.528 299.8224 
L 68.016 298.7136 
L 68.016 296.496 
L 68.016 294.2784 
L 69.504 293.1696 
L 72.48 293.1696 
L 73.968 292.0608 
L 75.456 290.952 
L 76.944 289.8432 
L 78.432 288.7344 
L 79.92 287.6256 
L 79.92 285.408 
L 81.408 284.2992 
L 82.896 283.1904 
L 81.408 282.0816 
L 79.92 280.9728 
L 81.408 279.864 
L 84.384 279.864 
L 85.872 278.7552 
L 87.36 277.6464 
L 90.336 277.6464 
L 91.824 276.5376 
L 93.312 275.4288 
L 94.8 274.32 
L 94.8 272.1024 
L 96.288 270.9936 
L 97.776 269.8848 
L 99.264 268.776 
L 100.752 267.6672 
L 100.752 265.4496 
L 102.24 264.3408 
L 103.728 263.232 
L 103.728 261.0144 
L 105.216 259.9056 
L 106.704 258.7968 
L 108.192 257.688 
L 109.68 256.5792 
L 109.68 254.3616 
L 111.168 253.2528 
L 112.656 252.144 
L 112.656 249.9264 
L 114.144 248.8176 
L 115.632 247.7088 
L 117.12 246.6 
L 118.608 247.7088 
L 120.096 248.8176 
L 121.584 247.7088 
L 123.072 246.6 
L 126.048 246.6 
L 127.536 245.4912 
L 127.536 243.2736 
L 129.024 242.1648 
L 130.512 241.056 
L 132 239.9472 
L 133.488 238.8384 
L 133.488 236.6208 
L 134.976 235.512 
L 136.464 234.4032 
L 137.952 233.2944 
L 139.44 232.1856 
L 139.44 229.968 
L 140.928 228.8592 
L 142.416 227.7504 
L 143.904 226.6416 
L 145.392 225.5328 
L 145.392 223.3152 
L 146.88 222.2064 
L 148.368 221.0976 
L 148.368 218.88 
L 149.856 217.7712 
L 151.344 216.6624 
L 152.832 215.5536 
L 154.32 214.4448 
L 154.32 212.2272 
L 155.808 211.1184 
L 157.296 210.0096 
L 157.296 207.792 
L 158.784 206.6832 
L 160.272 205.5744 
L 161.76 204.4656 
L 163.248 203.3568 
L 163.248 201.1392 
L 164.736 200.0304 
L 166.224 198.9216 
L 166.224 196.704 
L 167.712 195.5952 
L 169.2 194.4864 
L 170.688 193.3776 
L 172.176 192.2688 
L 172.176 190.0512 
L 173.664 188.9424 
L 175.152 187.8336 
L 175.152 185.616 
L 176.64 184.5072 
L 178.128 183.3984 
L 179.616 182.2896 
L 181.104 181.1808 
L 181.104 178.9632 
L 182.592 177.8544 
L 184.08 176.7456 
L 184.08 174.528 
L 185.568 173.4192 
L 187.056 172.3104 
L 188.544 171.2016 
L 190.032 170.0928 
L 190.032 167.8752 
L 191.52 166.7664 
L 193.008 165.6576 
L 193.008 163.44 
L 194.496 162.3312 
L 195.984 161.2224 
L 195.984 159.0048 
L 197.472 157.896 
L 198.96 156.7872 
L 200.448 155.6784 
L 201.936 156.7872 
L 201.936 159.0048 
L 200.448 160.1136 
L 198.96 161.2224 
L 198.96 163.44 
L 197.472 164.5488 
L 195.984 165.6576 
L 195.984 167.8752 
L 194.496 168.984 
L 193.008 170.0928 
L 193.008 172.3104 
L 191.52 173.4192 
L 190.032 174.528 
L 188.544 175.6368 
L 187.056 176.7456 
L 187.056 178.9632 
L 185.568 180.072 
L 184.08 181.1808 
L 184.08 183.3984 
L 182.592 184.5072 
L 181.104 185.616 
L 181.104 187.8336 
L 179.616 188.9424 
L 178.128 190.0512 
L 178.128 192.2688 
L 176.64 193.3776 
L 175.152 194.4864 
L 175.152 196.704 
L 173.664 197.8128 
L 172.176 198.9216 
L 172.176 201.1392 
L 170.688 202.248 
L 169.2 203.3568 
L 169.2 205.5744 
L 167.712 206.6832 
L 166.224 207.792 
L 166.224 210.0096 
L 167.712 211.1184 
L 169.2 210.0096 
L 170.688 208.9008 
L 172.176 207.792 
L 173.664 206.6832 
L 175.152 205.5744 
L 176.64 204.4656 
L 178.128 203.3568 
L 179.616 202.248 
L 181.104 201.1392 
L 182.592 200.0304 
L 184.08 198.9216 
L 184.08 196.704 
L 185.568 195.5952 
L 187.056 194.4864 
L 188.544 193.3776 
L 190.032 192.2688 
L 191.52 191.16 
L 193.008 190.0512 
L 193.008 187.8336 
L 194.496 186.7248 
L 195.984 185.616 
L 197.472 184.5072 
L 198.96 183.3984 
L 200.448 182.2896 
L 201.936 181.1808 
L 201.936 178.9632 
L 203.424 177.8544 
L 204.912 176.7456 
L 206.4 175.6368 
L 207.888 174.528 
L 207.888 172.3104 
L 209.376 171.2016 
L 210.864 170.0928 
L 212.352 168.984 
L 213.84 167.8752 
L 213.84 165.6576 
L 215.328 164.5488 
L 216.816 163.44 
L 218.304 162.3312 
L 219.792 161.2224 
L 219.792 159.0048 
L 221.28 157.896 
L 222.768 156.7872 
L 224.256 155.6784 
L 225.744 154.5696 
L 225.744 152.352 
L 227.232 151.2432 
L 228.72 150.1344 
L 230.208 149.0256 
L 231.696 147.9168 
L 231.696 145.6992 
L 233.184 144.5904 
L 234.672 143.4816 
L 234.672 141.264 
L 236.16 140.1552 
L 237.648 139.0464 
L 239.136 137.9376 
L 240.624 136.8288 
L 240.624 134.6112 
L 242.112 133.5024 
L 243.6 132.3936 
L 243.6 130.176 
L 245.088 129.0672 
L 246.576 127.9584 
L 248.064 126.8496 
L 249.552 125.7408 
L 249.552 123.5232 
L 251.04 122.4144 
L 252.528 121.3056 
L 252.528 119.088 
L 254.016 117.9792 
L 255.504 116.8704 
L 256.992 115.7616 
L 258.48 114.6528 
L 258.48 112.4352 
L 259.968 111.3264 
L 261.456 110.2176 
L 262.944 109.1088 
L 264.432 108 
L 264.432 105.7824 
L 265.92 104.6736 
L 267.408 103.5648 
L 267.408 101.3472 
L 268.896 100.2384 
L 270.384 99.1296 
L 270.384 96.912 
L 271.872 95.8032 
L 273.36 94.6944 
L 274.848 93.5856 
L 276.336 92.4768 
L 276.336 90.2592 
L 277.824 89.1504 
L 279.312 88.0416 
L 279.312 85.824 
L 280.8 84.7152 
L 282.288 83.6064 
L 283.776 82.4976 
L 285.264 81.3888 
L 285.264 79.1712 
L 286.752 78.0624 
L 288.24 76.9536 
L 288.24 74.736 
L 289.728 73.6272 
L 291.216 72.5184 
L 292.704 71.4096 
L 294.192 70.3008 
L 294.192 68.0832 
L 295.68 66.9744 
L 297.168 65.8656 
L 297.168 63.648 
L 298.656 62.5392 
L 300.144 61.4304 
L 300.144 59.2128 
L 301.632 58.104 
L 303.12 56.9952 
L 304.608 55.8864 
L 306.096 54.7776 
L 306.096 52.56 
L 307.584 51.4512 
L 309.072 50.3424 
L 309.072 48.1248 
L 310.56 47.016 
L 312.048 45.9072 
L 313.536 44.7984 
L 315.024 43.6896 
L 315.024 41.472 
L 313.536 41.472 
L 310.56 41.472 
L 307.584 41.472 
L 304.608 41.472 
L 301.632 41.472 
L 298.656 41.472 
L 295.68 41.472 
L 292.704 41.472 
L 289.728 41.472 
L 288.24 41.472 
L 288.24 43.6896 
L 286.752 44.7984 
L 285.264 43.6896 
L 285.264 41.472 
L 283.776 41.472 
L 280.8 41.472 
L 277.824 41.472 
L 274.848 41.472 
L 273.36 41.472 
L 271.872 42.5808 
L 270.384 41.472 
L 268.896 41.472 
L 265.92 41.472 
L 262.944 41.472 
L 259.968 41.472 
L 256.992 41.472 
L 254.016 41.472 
L 251.04 41.472 
L 248.064 41.472 
L 245.088 41.472 
L 242.112 41.472 
L 239.136 41.472 
L 236.16 41.472 
L 233.184 41.472 
L 230.208 41.472 
L 227.232 41.472 
L 224.256 41.472 
L 221.28 41.472 
L 218.304 41.472 
L 215.328 41.472 
L 212.352 41.472 
L 209.376 41.472 
L 206.4 41.472 
L 203.424 41.472 
L 200.448 41.472 
L 197.472 41.472 
L 194.496 41.472 
L 191.52 41.472 
L 188.544 41.472 
L 185.568 41.472 
L 182.592 41.472 
L 179.616 41.472 
L 176.64 41.472 
L 173.664 41.472 
L 170.688 41.472 
L 167.712 41.472 
L 164.736 41.472 
L 161.76 41.472 
L 158.784 41.472 
L 155.808 41.472 
L 152.832 41.472 
L 149.856 41.472 
L 146.88 41.472 
L 143.904 41.472 
L 140.928 41.472 
L 137.952 41.472 
L 134.976 41.472 
L 132 41.472 
L 129.024 41.472 
L 126.048 41.472 
L 123.072 41.472 
L 120.096 41.472 
L 117.12 41.472 
L 114.144 41.472 
L 111.168 41.472 
L 108.192 41.472 
L 105.216 41.472 
L 102.24 41.472 
L 99.264 41.472 
L 96.288 41.472 
L 93.312 41.472 
L 90.336 41.472 
L 87.36 41.472 
L 84.384 41.472 
L 81.408 41.472 
L 78.432 41.472 
L 75.456 41.472 
L 72.48 41.472 
L 69.504 41.472 
L 66.528 41.472 
L 63.552 41.472 
L 60.576 41.472 
L 57.6 41.472 
L 57.6 43.6896 
L 57.6 45.9072 
L 57.6 48.1248 
L 57.6 50.3424 
L 57.6 52.56 
L 57.6 54.7776 
L 57.6 56.9952 
L 57.6 59.2128 
L 57.6 61.4304 
L 57.6 63.648 
L 57.6 65.8656 
L 57.6 68.0832 
L 57.6 70.3008 
L 57.6 72.5184 
L 57.6 74.736 
L 57.6 76.9536 
L 57.6 79.1712 
L 57.6 81.3888 
L 57.6 83.6064 
L 57.6 85.824 
L 57.6 88.0416 
L 57.6 90.2592 
L 57.6 92.4768 
L 57.6 94.6944 
L 57.6 96.912 
L 57.6 99.1296 
L 57.6 101.3472 
L 57.6 103.5648 
L 57.6 105.7824 
L 57.6 108 
L 57.6 110.2176 
L 57.6 112.4352 
L 57.6 114.6528 
L 57.6 116.8704 
L 57.6 119.088 
L 57.6 121.3056 
L 57.6 123.5232 
L 57.6 125.7408 
L 57.6 127.9584 
L 57.6 130.176 
L 57.6 132.3936 
L 57.6 134.6112 
L 57.6 136.8288 
L 57.6 139.0464 
L 57.6 141.264 
L 57.6 143.4816 
L 57.6 145.6992 
L 57.6 147.9168 
L 57.6 150.1344 
L 57.6 152.352 
L 57.6 154.5696 
L 57.6 156.7872 
L 57.6 159.0048 
L 57.6 161.2224 
L 57.6 163.44 
L 57.6 165.6576 
L 57.6 167.8752 
L 57.6 170.0928 
L 57.6 172.3104 
L 57.6 174.528 
L 57.6 176.7456 
L 57.6 178.9632 
L 57.6 181.1808 
L 57.6 183.3984 
L 57.6 185.616 
L 57.6 187.8336 
L 57.6 190.0512 
L 57.6 192.2688 
L 57.6 194.4864 
L 57.6 196.704 
L 57.6 198.9216 
L 57.6 201.1392 
L 57.6 203.3568 
L 57.6 205.5744 
L 57.6 207.792 
L 57.6 210.0096 
L 57.6 212.2272 
L 57.6 214.4448 
L 57.6 216.6624 
L 57.6 218.88 
L 57.6 221.0976 
L 57.6 223.3152 
L 57.6 225.5328 
L 57.6 227.7504 
L 57.6 229.968 
L 57.6 232.1856 
L 57.6 234.4032 
L 57.6 236.6208 
L 57.6 238.8384 
L 57.6 241.056 
L 57.6 243.2736 
L 57.6 245.4912 
L 57.6 247.7088 
L 57.6 249.9264 
L 57.6 252.144 
L 57.6 254.3616 
L 57.6 256.5792 
L 57.6 258.7968 
L 57.6 261.0144 
L 57.6 263.232 
L 57.6 265.4496 
L 57.6 267.6672 
L 57.6 269.8848 
L 57.6 272.1024 
L 57.6 274.32 
L 57.6 276.5376 
L 57.6 278.7552 
L 57.6 280.9728 
L 57.6 283.1904 
L 57.6 285.408 
L 57.6 287.6256 
L 57.6 289.8432 
L 57.6 292.0608 
L 57.6 294.2784 
L 57.6 296.496 
L 57.6 298.7136 
L 57.6 300.9312 
L 57.6 303.1488 
L 57.6 305.3664 
L 57.6 307.584 
z
M 193.008 283.1904 
L 194.496 282.0816 
L 195.984 283.1904 
L 194.496 284.2992 
z
M 207.888 280.9728 
L 209.376 279.864 
L 210.864 280.9728 
L 209.376 282.0816 
z
M 82.896 274.32 
L 84.384 273.2112 
L 85.872 274.32 
L 84.384 275.4288 
z
M 88.848 274.32 
L 90.336 273.2112 
L 91.824 274.32 
L 90.336 275.4288 
z
M 91.824 269.8848 
L 93.312 268.776 
L 94.8 269.8848 
L 93.312 270.9936 
z
M 252.528 269.8848 
L 254.016 268.776 
L 256.992 268.776 
L 258.48 269.8848 
L 256.992 270.9936 
L 254.016 270.9936 
z
M 270.384 267.6672 
L 271.872 266.5584 
L 273.36 267.6672 
L 271.872 268.776 
z
M 94.8 265.4496 
L 96.288 264.3408 
L 97.776 265.4496 
L 96.288 266.5584 
z
M 285.264 265.4496 
L 286.752 264.3408 
L 288.24 265.4496 
L 286.752 266.5584 
z
M 94.8 261.0144 
L 96.288 259.9056 
L 97.776 261.0144 
L 96.288 262.1232 
z
M 312.048 261.0144 
L 313.536 259.9056 
L 315.024 261.0144 
L 313.536 262.1232 
z
M 341.808 256.5792 
L 343.296 255.4704 
L 344.784 256.5792 
L 343.296 257.688 
z
M 103.728 254.3616 
L 105.216 253.2528 
L 106.704 254.3616 
L 105.216 255.4704 
z
M 106.704 249.9264 
L 108.192 248.8176 
L 109.68 249.9264 
L 108.192 251.0352 
z
M 398.352 247.7088 
L 399.84 246.6 
L 401.328 247.7088 
L 399.84 248.8176 
z
M 118.608 245.4912 
L 118.608 243.2736 
L 120.096 242.1648 
L 121.584 243.2736 
L 121.584 245.4912 
L 120.096 246.6 
z
M 109.68 241.056 
L 111.168 239.9472 
L 112.656 241.056 
L 111.168 242.1648 
z
M 121.584 241.056 
L 121.584 238.8384 
L 123.072 237.7296 
L 124.56 238.8384 
L 124.56 241.056 
L 123.072 242.1648 
z
M 115.632 238.8384 
L 117.12 237.7296 
L 118.608 238.8384 
L 117.12 239.9472 
z
M 124.56 236.6208 
L 126.048 235.512 
L 127.536 236.6208 
L 126.048 237.7296 
z
M 118.608 234.4032 
L 120.096 233.2944 
L 121.584 234.4032 
L 120.096 235.512 
z
M 127.536 232.1856 
L 129.024 231.0768 
L 130.512 232.1856 
L 129.024 233.2944 
z
M 121.584 229.968 
L 123.072 228.8592 
L 124.56 229.968 
L 123.072 231.0768 
z
M 130.512 227.7504 
L 132 226.6416 
L 133.488 227.7504 
L 132 228.8592 
z
M 133.488 225.5328 
L 133.488 223.3152 
L 134.976 222.2064 
L 136.464 223.3152 
L 136.464 225.5328 
L 134.976 226.6416 
z
M 124.56 221.0976 
L 126.048 219.9888 
L 127.536 221.0976 
L 126.048 222.2064 
z
M 136.464 221.0976 
L 137.952 219.9888 
L 139.44 221.0976 
L 137.952 222.2064 
z
M 139.44 216.6624 
L 140.928 215.5536 
L 142.416 216.6624 
L 140.928 217.7712 
z
M 133.488 214.4448 
L 134.976 213.336 
L 136.464 214.4448 
L 134.976 215.5536 
z
M 142.416 212.2272 
L 143.904 211.1184 
L 145.392 212.2272 
L 143.904 213.336 
z
M 145.392 207.792 
L 146.88 206.6832 
L 148.368 207.792 
L 146.88 208.9008 
z
M 148.368 205.5744 
L 149.856 204.4656 
L 151.344 205.5744 
L 149.856 206.6832 
z
M 151.344 201.1392 
L 152.832 200.0304 
L 154.32 201.1392 
L 152.832 202.248 
z
M 154.32 196.704 
L 155.808 195.5952 
L 157.296 196.704 
L 155.808 197.8128 
z
M 148.368 194.4864 
L 149.856 193.3776 
L 151.344 194.4864 
L 149.856 195.5952 
z
M 157.296 192.2688 
L 158.784 191.16 
L 160.272 192.2688 
L 158.784 193.3776 
z
M 160.272 190.0512 
L 160.272 187.8336 
L 161.76 186.7248 
L 163.248 187.8336 
L 163.248 190.0512 
L 161.76 191.16 
z
M 151.344 185.616 
L 152.832 184.5072 
L 154.32 185.616 
L 152.832 186.7248 
z
M 163.248 185.616 
L 164.736 184.5072 
L 166.224 185.616 
L 164.736 186.7248 
z
M 166.224 181.1808 
L 167.712 180.072 
L 169.2 181.1808 
L 167.712 182.2896 
z
M 160.272 178.9632 
L 161.76 177.8544 
L 163.248 178.9632 
L 161.76 180.072 
z
M 169.2 176.7456 
L 170.688 175.6368 
L 172.176 176.7456 
L 170.688 177.8544 
z
M 163.248 174.528 
L 164.736 173.4192 
L 166.224 174.528 
L 164.736 175.6368 
z
M 172.176 172.3104 
L 173.664 171.2016 
L 175.152 172.3104 
L 173.664 173.4192 
z
M 178.128 165.6576 
L 179.616 164.5488 
L 181.104 165.6576 
L 179.616 166.7664 
z
M 181.104 161.2224 
L 182.592 160.1136 
L 184.08 161.2224 
L 182.592 162.3312 
z
M 175.152 159.0048 
L 176.64 157.896 
L 178.128 159.0048 
L 176.64 160.1136 
z
M 184.08 156.7872 
L 185.568 155.6784 
L 187.056 156.7872 
L 185.568 157.896 
z
M 178.128 154.5696 
L 179.616 153.4608 
L 181.104 154.5696 
L 179.616 155.6784 
z
M 201.936 154.5696 
L 201.936 152.352 
L 203.424 151.2432 
L 204.912 150.1344 
L 204.912 147.9168 
L 206.4 146.808 
L 207.888 145.6992 
L 207.888 143.4816 
L 209.376 142.3728 
L 210.864 141.264 
L 212.352 140.1552 
L 213.84 141.264 
L 213.84 143.4816 
L 212.352 144.5904 
L 210.864 145.6992 
L 210.864 147.9168 
L 209.376 149.0256 
L 207.888 150.1344 
L 207.888 152.352 
L 206.4 153.4608 
L 204.912 154.5696 
L 203.424 155.6784 
z
M 187.056 152.352 
L 188.544 151.2432 
L 190.032 152.352 
L 188.544 153.4608 
z
M 193.008 145.6992 
L 194.496 144.5904 
L 195.984 145.6992 
L 194.496 146.808 
z
M 195.984 141.264 
L 197.472 140.1552 
L 198.96 141.264 
L 197.472 142.3728 
z
M 190.032 139.0464 
L 191.52 137.9376 
L 193.008 139.0464 
L 191.52 140.1552 
z
M 213.84 139.0464 
L 213.84 136.8288 
L 215.328 135.72 
L 216.816 136.8288 
L 216.816 139.0464 
L 215.328 140.1552 
z
M 198.96 136.8288 
L 200.448 135.72 
L 201.936 136.8288 
L 200.448 137.9376 
z
M 193.008 134.6112 
L 194.496 133.5024 
L 195.984 134.6112 
L 194.496 135.72 
z
M 216.816 134.6112 
L 216.816 132.3936 
L 218.304 131.2848 
L 219.792 130.176 
L 219.792 127.9584 
L 221.28 126.8496 
L 222.768 125.7408 
L 224.256 124.632 
L 225.744 125.7408 
L 225.744 127.9584 
L 224.256 129.0672 
L 222.768 130.176 
L 222.768 132.3936 
L 221.28 133.5024 
L 219.792 134.6112 
L 218.304 135.72 
z
M 201.936 132.3936 
L 203.424 131.2848 
L 204.912 132.3936 
L 203.424 133.5024 
z
M 195.984 125.7408 
L 197.472 124.632 
L 198.96 125.7408 
L 197.472 126.8496 
z
M 207.888 125.7408 
L 209.376 124.632 
L 210.864 125.7408 
L 209.376 126.8496 
z
M 225.744 123.5232 
L 225.744 121.3056 
L 227.232 120.1968 
L 228.72 121.3056 
L 228.72 123.5232 
L 227.232 124.632 
z
M 210.864 121.3056 
L 212.352 120.1968 
L 213.84 121.3056 
L 212.352 122.4144 
z
M 198.96 119.088 
L 200.448 117.9792 
L 201.936 119.088 
L 200.448 120.1968 
z
M 204.912 119.088 
L 206.4 117.9792 
L 207.888 119.088 
L 206.4 120.1968 
z
M 228.72 119.088 
L 228.72 116.8704 
L 230.208 115.7616 
L 231.696 116.8704 
L 231.696 119.088 
L 230.208 120.1968 
z
M 213.84 116.8704 
L 215.328 115.7616 
L 216.816 116.8704 
L 215.328 117.9792 
z
M 231.696 114.6528 
L 231.696 112.4352 
L 233.184 111.3264 
L 234.672 110.2176 
L 234.672 108 
L 236.16 106.8912 
L 237.648 105.7824 
L 239.136 104.6736 
L 240.624 105.7824 
L 240.624 108 
L 239.136 109.1088 
L 237.648 110.2176 
L 237.648 112.4352 
L 236.16 113.544 
L 234.672 114.6528 
L 233.184 115.7616 
z
M 216.816 112.4352 
L 218.304 111.3264 
L 219.792 112.4352 
L 218.304 113.544 
z
M 210.864 105.7824 
L 212.352 104.6736 
L 213.84 105.7824 
L 212.352 106.8912 
z
M 222.768 105.7824 
L 224.256 104.6736 
L 225.744 105.7824 
L 224.256 106.8912 
z
M 240.624 103.5648 
L 240.624 101.3472 
L 242.112 100.2384 
L 243.6 101.3472 
L 243.6 103.5648 
L 242.112 104.6736 
z
M 225.744 101.3472 
L 227.232 100.2384 
L 228.72 101.3472 
L 227.232 102.456 
z
M 213.84 99.1296 
L 215.328 98.0208 
L 216.816 99.1296 
L 215.328 100.2384 
z
M 219.792 99.1296 
L 221.28 98.0208 
L 222.768 99.1296 
L 221.28 100.2384 
z
M 243.6 99.1296 
L 243.6 96.912 
L 245.088 95.8032 
L 246.576 94.6944 
L 246.576 92.4768 
L 248.064 91.368 
L 249.552 92.4768 
L 249.552 94.6944 
L 249.552 96.912 
L 248.064 98.0208 
L 246.576 99.1296 
L 245.088 100.2384 
z
M 228.72 96.912 
L 230.208 95.8032 
L 231.696 96.912 
L 230.208 98.0208 
z
M 231.696 92.4768 
L 233.184 91.368 
L 234.672 92.4768 
L 233.184 93.5856 
z
M 234.672 90.2592 
L 236.16 89.1504 
L 237.648 90.2592 
L 236.16 91.368 
z
M 249.552 90.2592 
L 251.04 89.1504 
L 252.528 90.2592 
L 251.04 91.368 
z
M 252.528 88.0416 
L 252.528 85.824 
L 254.016 84.7152 
L 255.504 85.824 
L 255.504 88.0416 
L 254.016 89.1504 
z
M 225.744 85.824 
L 227.232 84.7152 
L 228.72 85.824 
L 227.232 86.9328 
z
M 237.648 85.824 
L 239.136 84.7152 
L 240.624 85.824 
L 239.136 86.9328 
z
M 231.696 83.6064 
L 233.184 82.4976 
L 234.672 83.6064 
L 233.184 84.7152 
z
M 255.504 83.6064 
L 255.504 81.3888 
L 256.992 80.28 
L 258.48 81.3888 
L 258.48 83.6064 
L 256.992 84.7152 
z
M 240.624 81.3888 
L 242.112 80.28 
L 243.6 81.3888 
L 242.112 82.4976 
z
M 234.672 79.1712 
L 236.16 78.0624 
L 237.648 79.1712 
L 236.16 80.28 
z
M 258.48 79.1712 
L 258.48 76.9536 
L 259.968 75.8448 
L 261.456 74.736 
L 261.456 72.5184 
L 262.944 71.4096 
L 264.432 70.3008 
L 265.92 69.192 
L 267.408 70.3008 
L 267.408 72.5184 
L 265.92 73.6272 
L 264.432 74.736 
L 264.432 76.9536 
L 262.944 78.0624 
L 261.456 79.1712 
L 259.968 80.28 
z
M 246.576 74.736 
L 246.576 72.5184 
L 248.064 71.4096 
L 249.552 72.5184 
L 249.552 74.736 
L 248.064 75.8448 
z
M 249.552 70.3008 
L 251.04 69.192 
L 252.528 70.3008 
L 251.04 71.4096 
z
M 267.408 68.0832 
L 267.408 65.8656 
L 268.896 64.7568 
L 270.384 65.8656 
L 270.384 68.0832 
L 268.896 69.192 
z
M 240.624 65.8656 
L 242.112 64.7568 
L 243.6 65.8656 
L 242.112 66.9744 
z
M 252.528 65.8656 
L 254.016 64.7568 
L 255.504 65.8656 
L 254.016 66.9744 
z
M 270.384 63.648 
L 270.384 61.4304 
L 271.872 60.3216 
L 273.36 61.4304 
L 273.36 63.648 
L 271.872 64.7568 
z
M 255.504 61.4304 
L 256.992 60.3216 
L 258.48 61.4304 
L 256.992 62.5392 
z
M 249.552 59.2128 
L 251.04 58.104 
L 252.528 59.2128 
L 251.04 60.3216 
z
M 273.36 59.2128 
L 273.36 56.9952 
L 274.848 55.8864 
L 276.336 54.7776 
L 276.336 52.56 
L 277.824 51.4512 
L 279.312 52.56 
L 279.312 54.7776 
L 279.312 56.9952 
L 277.824 58.104 
L 276.336 59.2128 
L 274.848 60.3216 
z
M 261.456 54.7776 
L 262.944 53.6688 
L 264.432 54.7776 
L 262.944 55.8864 
z
M 264.432 50.3424 
L 265.92 49.2336 
L 267.408 50.3424 
L 265.92 51.4512 
z
M 279.312 50.3424 
L 280.8 49.2336 
L 282.288 50.3424 
L 280.8 51.4512 
z
M 282.288 48.1248 
L 282.288 45.9072 
L 283.776 44.7984 
L 285.264 45.9072 
L 285.264 48.1248 
L 283.776 49.2336 
z
M 255.504 45.9072 
L 256.992 44.7984 
L 258.48 45.9072 
L 256.992 47.016 
z
M 267.408 45.9072 
L 268.896 44.7984 
L 270.384 45.9072 
L 268.896 47.016 
z
" style="fill:#f98e52;"/>
    <path clip-path="url(#p12fa1c00b9)" d="M 117.12 253.2528 
L 118.608 252.144 
L 117.12 251.0352 
L 115.632 252.144 
z
" style="fill:#f98e52;"/>
    <path clip-path="url(#p12fa1c00b9)" d="M 373.056 237.7296 
L 374.544 236.6208 
L 373.056 235.512 
L 371.568 236.6208 
z
" style="fill:#f98e52;"/>
    <path clip-path="url(#p12fa1c00b9)" d="M 408.768 193.3776 
L 411.744 193.3776 
L 414.72 193.3776 
L 414.72 192.2688 
L 414.72 190.0512 
L 414.72 187.8336 
L 414.72 185.616 
L 414.72 183.3984 
L 414.72 181.1808 
L 414.72 178.9632 
L 414.72 176.7456 
L 414.72 175.6368 
L 413.232 174.528 
L 414.72 173.4192 
L 414.72 172.3104 
L 414.72 170.0928 
L 414.72 167.8752 
L 414.72 165.6576 
L 414.72 163.44 
L 414.72 161.2224 
L 414.72 159.0048 
L 414.72 156.7872 
L 414.72 154.5696 
L 414.72 152.352 
L 414.72 150.1344 
L 414.72 147.9168 
L 414.72 145.6992 
L 414.72 143.4816 
L 414.72 141.264 
L 414.72 139.0464 
L 414.72 136.8288 
L 414.72 134.6112 
L 414.72 132.3936 
L 414.72 130.176 
L 414.72 127.9584 
L 414.72 125.7408 
L 414.72 123.5232 
L 414.72 121.3056 
L 414.72 119.088 
L 414.72 116.8704 
L 414.72 114.6528 
L 414.72 112.4352 
L 414.72 110.2176 
L 414.72 108 
L 414.72 105.7824 
L 414.72 103.5648 
L 414.72 101.3472 
L 414.72 99.1296 
L 414.72 96.912 
L 414.72 94.6944 
L 414.72 92.4768 
L 414.72 90.2592 
L 414.72 88.0416 
L 414.72 85.824 
L 414.72 83.6064 
L 414.72 81.3888 
L 414.72 79.1712 
L 414.72 76.9536 
L 414.72 74.736 
L 414.72 72.5184 
L 414.72 70.3008 
L 414.72 68.0832 
L 414.72 65.8656 
L 414.72 63.648 
L 414.72 61.4304 
L 414.72 59.2128 
L 414.72 56.9952 
L 414.72 54.7776 
L 414.72 52.56 
L 414.72 50.3424 
L 414.72 48.1248 
L 414.72 45.9072 
L 414.72 43.6896 
L 414.72 41.472 
L 411.744 41.472 
L 408.768 41.472 
L 405.792 41.472 
L 402.816 41.472 
L 399.84 41.472 
L 396.864 41.472 
L 393.888 41.472 
L 392.4 41.472 
L 392.4 43.6896 
L 390.912 44.7984 
L 389.424 45.9072 
L 387.936 47.016 
L 386.448 48.1248 
L 386.448 50.3424 
L 384.96 51.4512 
L 383.472 52.56 
L 383.472 54.7776 
L 381.984 55.8864 
L 380.496 56.9952 
L 380.496 59.2128 
L 379.008 60.3216 
L 377.52 61.4304 
L 376.032 62.5392 
L 374.544 63.648 
L 374.544 65.8656 
L 373.056 66.9744 
L 371.568 68.0832 
L 371.568 70.3008 
L 370.08 71.4096 
L 368.592 72.5184 
L 367.104 73.6272 
L 365.616 74.736 
L 365.616 76.9536 
L 364.128 78.0624 
L 362.64 79.1712 
L 362.64 81.3888 
L 361.152 82.4976 
L 359.664 83.6064 
L 359.664 85.824 
L 358.176 86.9328 
L 356.688 88.0416 
L 355.2 89.1504 
L 353.712 90.2592 
L 353.712 92.4768 
L 352.224 93.5856 
L 350.736 94.6944 
L 350.736 96.912 
L 349.248 98.0208 
L 347.76 99.1296 
L 347.76 101.3472 
L 346.272 102.456 
L 344.784 103.5648 
L 344.784 105.7824 
L 343.296 106.8912 
L 341.808 108 
L 340.32 109.1088 
L 338.832 110.2176 
L 338.832 112.4352 
L 337.344 113.544 
L 335.856 114.6528 
L 335.856 116.8704 
L 334.368 117.9792 
L 332.88 119.088 
L 332.88 121.3056 
L 331.392 122.4144 
L 329.904 123.5232 
L 329.904 125.7408 
L 328.416 126.8496 
L 326.928 127.9584 
L 326.928 130.176 
L 325.44 131.2848 
L 323.952 132.3936 
L 323.952 134.6112 
L 322.464 135.72 
L 320.976 136.8288 
L 320.976 139.0464 
L 320.976 141.264 
L 319.488 142.3728 
L 318 143.4816 
L 318 145.6992 
L 318 147.9168 
L 316.512 149.0256 
L 315.024 150.1344 
L 315.024 152.352 
L 315.024 154.5696 
L 313.536 155.6784 
L 312.048 156.7872 
L 312.048 159.0048 
L 312.048 161.2224 
L 312.048 163.44 
L 312.048 165.6576 
L 312.048 167.8752 
L 312.048 170.0928 
L 313.536 171.2016 
L 315.024 172.3104 
L 316.512 173.4192 
L 318 172.3104 
L 318 170.0928 
L 319.488 168.984 
L 320.976 170.0928 
L 320.976 172.3104 
L 322.464 173.4192 
L 323.952 174.528 
L 323.952 176.7456 
L 325.44 177.8544 
L 326.928 178.9632 
L 328.416 180.072 
L 331.392 180.072 
L 332.88 181.1808 
L 334.368 182.2896 
L 337.344 182.2896 
L 340.32 182.2896 
L 343.296 182.2896 
L 346.272 182.2896 
L 349.248 182.2896 
L 352.224 182.2896 
L 355.2 182.2896 
L 358.176 182.2896 
L 361.152 182.2896 
L 364.128 182.2896 
L 367.104 182.2896 
L 370.08 182.2896 
L 371.568 181.1808 
L 373.056 180.072 
L 376.032 180.072 
L 379.008 180.072 
L 381.984 180.072 
L 384.96 180.072 
L 387.936 180.072 
L 389.424 178.9632 
L 390.912 177.8544 
L 393.888 177.8544 
L 396.864 177.8544 
L 399.84 177.8544 
L 401.328 176.7456 
L 402.816 175.6368 
L 405.792 175.6368 
L 408.768 175.6368 
L 411.744 175.6368 
L 413.232 176.7456 
L 413.232 178.9632 
L 411.744 180.072 
L 410.256 181.1808 
L 408.768 182.2896 
L 407.28 183.3984 
L 407.28 185.616 
L 407.28 187.8336 
L 408.768 188.9424 
L 410.256 190.0512 
L 408.768 191.16 
L 407.28 192.2688 
z
M 320.976 156.7872 
L 322.464 155.6784 
L 323.952 156.7872 
L 322.464 157.896 
z
M 318 152.352 
L 319.488 151.2432 
L 320.976 152.352 
L 319.488 153.4608 
z
" style="fill:#f98e52;"/>
    <path clip-path="url(#p12fa1c00b9)" d="M 242.112 162.3312 
L 245.088 162.3312 
L 248.064 162.3312 
L 249.552 161.2224 
L 251.04 160.1136 
L 254.016 160.1136 
L 255.504 159.0048 
L 256.992 157.896 
L 258.48 156.7872 
L 258.48 154.5696 
L 259.968 153.4608 
L 261.456 152.352 
L 262.944 151.2432 
L 264.432 150.1344 
L 265.92 149.0256 
L 267.408 147.9168 
L 268.896 146.808 
L 270.384 145.6992 
L 271.872 144.5904 
L 273.36 143.4816 
L 274.848 142.3728 
L 276.336 141.264 
L 277.824 140.1552 
L 279.312 139.0464 
L 280.8 137.9376 
L 282.288 136.8288 
L 283.776 135.72 
L 285.264 134.6112 
L 286.752 133.5024 
L 288.24 132.3936 
L 288.24 130.176 
L 289.728 129.0672 
L 291.216 127.9584 
L 292.704 126.8496 
L 294.192 125.7408 
L 295.68 124.632 
L 297.168 123.5232 
L 298.656 122.4144 
L 300.144 121.3056 
L 300.144 119.088 
L 301.632 117.9792 
L 303.12 116.8704 
L 304.608 115.7616 
L 306.096 114.6528 
L 307.584 113.544 
L 309.072 112.4352 
L 310.56 111.3264 
L 312.048 110.2176 
L 312.048 108 
L 313.536 106.8912 
L 315.024 105.7824 
L 316.512 104.6736 
L 318 103.5648 
L 318 101.3472 
L 319.488 100.2384 
L 320.976 99.1296 
L 322.464 98.0208 
L 323.952 96.912 
L 325.44 95.8032 
L 326.928 94.6944 
L 326.928 92.4768 
L 328.416 91.368 
L 329.904 90.2592 
L 331.392 89.1504 
L 332.88 88.0416 
L 332.88 85.824 
L 334.368 84.7152 
L 335.856 83.6064 
L 337.344 82.4976 
L 338.832 81.3888 
L 338.832 79.1712 
L 340.32 78.0624 
L 341.808 76.9536 
L 343.296 75.8448 
L 344.784 74.736 
L 344.784 72.5184 
L 346.272 71.4096 
L 347.76 70.3008 
L 349.248 69.192 
L 350.736 68.0832 
L 350.736 65.8656 
L 352.224 64.7568 
L 353.712 63.648 
L 355.2 62.5392 
L 356.688 61.4304 
L 356.688 59.2128 
L 358.176 58.104 
L 359.664 56.9952 
L 361.152 55.8864 
L 362.64 54.7776 
L 362.64 52.56 
L 364.128 51.4512 
L 365.616 50.3424 
L 367.104 49.2336 
L 368.592 48.1248 
L 368.592 45.9072 
L 370.08 44.7984 
L 371.568 43.6896 
L 373.056 42.5808 
L 374.544 41.472 
L 373.056 41.472 
L 370.08 41.472 
L 367.104 41.472 
L 364.128 41.472 
L 361.152 41.472 
L 358.176 41.472 
L 355.2 41.472 
L 352.224 41.472 
L 349.248 41.472 
L 346.272 41.472 
L 343.296 41.472 
L 340.32 41.472 
L 337.344 41.472 
L 334.368 41.472 
L 331.392 41.472 
L 328.416 41.472 
L 325.44 41.472 
L 323.952 41.472 
L 322.464 42.5808 
L 320.976 43.6896 
L 320.976 45.9072 
L 319.488 47.016 
L 318 48.1248 
L 318 50.3424 
L 316.512 51.4512 
L 315.024 52.56 
L 313.536 53.6688 
L 312.048 54.7776 
L 312.048 56.9952 
L 310.56 58.104 
L 309.072 59.2128 
L 309.072 61.4304 
L 307.584 62.5392 
L 306.096 63.648 
L 306.096 65.8656 
L 304.608 66.9744 
L 303.12 68.0832 
L 303.12 70.3008 
L 301.632 71.4096 
L 300.144 72.5184 
L 298.656 73.6272 
L 297.168 74.736 
L 297.168 76.9536 
L 295.68 78.0624 
L 294.192 79.1712 
L 294.192 81.3888 
L 292.704 82.4976 
L 291.216 83.6064 
L 291.216 85.824 
L 289.728 86.9328 
L 288.24 88.0416 
L 286.752 89.1504 
L 285.264 90.2592 
L 285.264 92.4768 
L 283.776 93.5856 
L 282.288 94.6944 
L 282.288 96.912 
L 280.8 98.0208 
L 279.312 99.1296 
L 279.312 101.3472 
L 277.824 102.456 
L 276.336 103.5648 
L 276.336 105.7824 
L 276.336 108 
L 274.848 109.1088 
L 271.872 109.1088 
L 270.384 110.2176 
L 270.384 112.4352 
L 268.896 113.544 
L 267.408 114.6528 
L 267.408 116.8704 
L 265.92 117.9792 
L 264.432 119.088 
L 264.432 121.3056 
L 262.944 122.4144 
L 261.456 123.5232 
L 261.456 125.7408 
L 259.968 126.8496 
L 258.48 127.9584 
L 258.48 130.176 
L 256.992 131.2848 
L 255.504 132.3936 
L 255.504 134.6112 
L 254.016 135.72 
L 252.528 136.8288 
L 252.528 139.0464 
L 251.04 140.1552 
L 249.552 141.264 
L 249.552 143.4816 
L 248.064 144.5904 
L 246.576 145.6992 
L 246.576 147.9168 
L 245.088 149.0256 
L 243.6 150.1344 
L 243.6 152.352 
L 243.6 154.5696 
L 242.112 155.6784 
L 240.624 156.7872 
L 240.624 159.0048 
L 240.624 161.2224 
z
M 252.528 156.7872 
L 254.016 155.6784 
L 255.504 156.7872 
L 254.016 157.896 
z
" style="fill:#f98e52;"/>
   </g>
   <g id="PathCollection_2">
    <path clip-path="url(#p12fa1c00b9)" d="M 60.576 306.4752 
L 63.552 306.4752 
L 66.528 306.4752 
L 69.504 306.4752 
L 70.992 305.3664 
L 72.48 304.2576 
L 75.456 304.2576 
L 78.432 304.2576 
L 81.408 304.2576 
L 82.896 303.1488 
L 84.384 302.04 
L 87.36 302.04 
L 90.336 302.04 
L 91.824 300.9312 
L 93.312 299.8224 
L 96.288 299.8224 
L 99.264 299.8224 
L 102.24 299.8224 
L 105.216 299.8224 
L 106.704 298.7136 
L 108.192 297.6048 
L 111.168 297.6048 
L 114.144 297.6048 
L 115.632 296.496 
L 117.12 295.3872 
L 120.096 295.3872 
L 123.072 295.3872 
L 126.048 295.3872 
L 127.536 294.2784 
L 129.024 293.1696 
L 132 293.1696 
L 134.976 293.1696 
L 137.952 293.1696 
L 139.44 292.0608 
L 140.928 290.952 
L 143.904 290.952 
L 146.88 290.952 
L 149.856 290.952 
L 152.832 290.952 
L 154.32 289.8432 
L 155.808 288.7344 
L 157.296 287.6256 
L 158.784 286.5168 
L 161.76 286.5168 
L 164.736 286.5168 
L 167.712 286.5168 
L 169.2 285.408 
L 170.688 284.2992 
L 173.664 284.2992 
L 176.64 284.2992 
L 178.128 285.408 
L 179.616 286.5168 
L 181.104 285.408 
L 181.104 283.1904 
L 182.592 282.0816 
L 185.568 282.0816 
L 188.544 282.0816 
L 191.52 282.0816 
L 193.008 280.9728 
L 194.496 279.864 
L 197.472 279.864 
L 200.448 279.864 
L 203.424 279.864 
L 206.4 279.864 
L 207.888 278.7552 
L 209.376 277.6464 
L 212.352 277.6464 
L 215.328 277.6464 
L 218.304 277.6464 
L 219.792 276.5376 
L 221.28 275.4288 
L 224.256 275.4288 
L 227.232 275.4288 
L 230.208 275.4288 
L 231.696 274.32 
L 233.184 273.2112 
L 236.16 273.2112 
L 239.136 273.2112 
L 242.112 273.2112 
L 243.6 272.1024 
L 243.6 269.8848 
L 245.088 268.776 
L 248.064 268.776 
L 251.04 268.776 
L 252.528 267.6672 
L 254.016 266.5584 
L 256.992 266.5584 
L 259.968 266.5584 
L 261.456 265.4496 
L 262.944 264.3408 
L 265.92 264.3408 
L 268.896 264.3408 
L 271.872 264.3408 
L 273.36 263.232 
L 274.848 262.1232 
L 277.824 262.1232 
L 280.8 262.1232 
L 282.288 261.0144 
L 283.776 259.9056 
L 286.752 259.9056 
L 289.728 259.9056 
L 292.704 259.9056 
L 294.192 258.7968 
L 295.68 257.688 
L 298.656 257.688 
L 301.632 257.688 
L 304.608 257.688 
L 307.584 257.688 
L 309.072 256.5792 
L 310.56 255.4704 
L 313.536 255.4704 
L 316.512 255.4704 
L 319.488 255.4704 
L 320.976 254.3616 
L 322.464 253.2528 
L 325.44 253.2528 
L 328.416 253.2528 
L 331.392 253.2528 
L 332.88 252.144 
L 334.368 251.0352 
L 337.344 251.0352 
L 338.832 249.9264 
L 340.32 248.8176 
L 343.296 248.8176 
L 346.272 248.8176 
L 349.248 248.8176 
L 350.736 247.7088 
L 352.224 246.6 
L 355.2 246.6 
L 358.176 246.6 
L 361.152 246.6 
L 364.128 246.6 
L 365.616 245.4912 
L 367.104 244.3824 
L 370.08 244.3824 
L 373.056 244.3824 
L 376.032 244.3824 
L 377.52 243.2736 
L 379.008 242.1648 
L 381.984 242.1648 
L 384.96 242.1648 
L 387.936 242.1648 
L 389.424 241.056 
L 390.912 239.9472 
L 393.888 239.9472 
L 396.864 239.9472 
L 399.84 239.9472 
L 402.816 239.9472 
L 404.304 238.8384 
L 402.816 237.7296 
L 401.328 236.6208 
L 399.84 235.512 
L 398.352 236.6208 
L 396.864 237.7296 
L 393.888 237.7296 
L 390.912 237.7296 
L 387.936 237.7296 
L 384.96 237.7296 
L 381.984 237.7296 
L 379.008 237.7296 
L 377.52 236.6208 
L 379.008 235.512 
L 380.496 234.4032 
L 381.984 233.2944 
L 384.96 233.2944 
L 386.448 232.1856 
L 387.936 231.0768 
L 390.912 231.0768 
L 393.888 231.0768 
L 395.376 229.968 
L 396.864 228.8592 
L 399.84 228.8592 
L 401.328 227.7504 
L 402.816 226.6416 
L 405.792 226.6416 
L 408.768 226.6416 
L 410.256 225.5328 
L 411.744 224.424 
L 414.72 224.424 
L 414.72 223.3152 
L 414.72 221.0976 
L 414.72 218.88 
L 414.72 216.6624 
L 414.72 214.4448 
L 414.72 212.2272 
L 414.72 210.0096 
L 414.72 207.792 
L 414.72 205.5744 
L 414.72 203.3568 
L 414.72 201.1392 
L 414.72 198.9216 
L 414.72 196.704 
L 414.72 194.4864 
L 414.72 193.3776 
L 411.744 193.3776 
L 408.768 193.3776 
L 407.28 192.2688 
L 408.768 191.16 
L 410.256 190.0512 
L 408.768 188.9424 
L 407.28 187.8336 
L 407.28 185.616 
L 407.28 183.3984 
L 408.768 182.2896 
L 410.256 181.1808 
L 411.744 180.072 
L 413.232 178.9632 
L 413.232 176.7456 
L 411.744 175.6368 
L 408.768 175.6368 
L 405.792 175.6368 
L 402.816 175.6368 
L 401.328 176.7456 
L 399.84 177.8544 
L 396.864 177.8544 
L 393.888 177.8544 
L 390.912 177.8544 
L 389.424 178.9632 
L 387.936 180.072 
L 384.96 180.072 
L 381.984 180.072 
L 379.008 180.072 
L 376.032 180.072 
L 373.056 180.072 
L 371.568 181.1808 
L 370.08 182.2896 
L 367.104 182.2896 
L 364.128 182.2896 
L 361.152 182.2896 
L 358.176 182.2896 
L 355.2 182.2896 
L 352.224 182.2896 
L 349.248 182.2896 
L 346.272 182.2896 
L 343.296 182.2896 
L 340.32 182.2896 
L 337.344 182.2896 
L 334.368 182.2896 
L 332.88 181.1808 
L 331.392 180.072 
L 328.416 180.072 
L 326.928 178.9632 
L 325.44 177.8544 
L 323.952 176.7456 
L 323.952 174.528 
L 322.464 173.4192 
L 320.976 172.3104 
L 320.976 170.0928 
L 319.488 168.984 
L 318 170.0928 
L 318 172.3104 
L 316.512 173.4192 
L 315.024 172.3104 
L 313.536 171.2016 
L 312.048 170.0928 
L 312.048 167.8752 
L 312.048 165.6576 
L 312.048 163.44 
L 312.048 161.2224 
L 312.048 159.0048 
L 312.048 156.7872 
L 313.536 155.6784 
L 315.024 154.5696 
L 315.024 152.352 
L 315.024 150.1344 
L 316.512 149.0256 
L 318 147.9168 
L 318 145.6992 
L 318 143.4816 
L 319.488 142.3728 
L 320.976 141.264 
L 320.976 139.0464 
L 320.976 136.8288 
L 322.464 135.72 
L 323.952 134.6112 
L 323.952 132.3936 
L 325.44 131.2848 
L 326.928 130.176 
L 326.928 127.9584 
L 328.416 126.8496 
L 329.904 125.7408 
L 329.904 123.5232 
L 331.392 122.4144 
L 332.88 121.3056 
L 332.88 119.088 
L 334.368 117.9792 
L 335.856 116.8704 
L 335.856 114.6528 
L 337.344 113.544 
L 338.832 112.4352 
L 338.832 110.2176 
L 340.32 109.1088 
L 341.808 108 
L 343.296 106.8912 
L 344.784 105.7824 
L 344.784 103.5648 
L 346.272 102.456 
L 347.76 101.3472 
L 347.76 99.1296 
L 349.248 98.0208 
L 350.736 96.912 
L 350.736 94.6944 
L 352.224 93.5856 
L 353.712 92.4768 
L 353.712 90.2592 
L 355.2 89.1504 
L 356.688 88.0416 
L 358.176 86.9328 
L 359.664 85.824 
L 359.664 83.6064 
L 361.152 82.4976 
L 362.64 81.3888 
L 362.64 79.1712 
L 364.128 78.0624 
L 365.616 76.9536 
L 365.616 74.736 
L 367.104 73.6272 
L 368.592 72.5184 
L 370.08 71.4096 
L 371.568 70.3008 
L 371.568 68.0832 
L 373.056 66.9744 
L 374.544 65.8656 
L 374.544 63.648 
L 376.032 62.5392 
L 377.52 61.4304 
L 379.008 60.3216 
L 380.496 59.2128 
L 380.496 56.9952 
L 381.984 55.8864 
L 383.472 54.7776 
L 383.472 52.56 
L 384.96 51.4512 
L 386.448 50.3424 
L 386.448 48.1248 
L 387.936 47.016 
L 389.424 45.9072 
L 390.912 44.7984 
L 392.4 43.6896 
L 392.4 41.472 
L 390.912 41.472 
L 387.936 41.472 
L 384.96 41.472 
L 381.984 41.472 
L 379.008 41.472 
L 376.032 41.472 
L 374.544 41.472 
L 373.056 42.5808 
L 371.568 43.6896 
L 370.08 44.7984 
L 368.592 45.9072 
L 368.592 48.1248 
L 367.104 49.2336 
L 365.616 50.3424 
L 364.128 51.4512 
L 362.64 52.56 
L 362.64 54.7776 
L 361.152 55.8864 
L 359.664 56.9952 
L 358.176 58.104 
L 356.688 59.2128 
L 356.688 61.4304 
L 355.2 62.5392 
L 353.712 63.648 
L 352.224 64.7568 
L 350.736 65.8656 
L 350.736 68.0832 
L 349.248 69.192 
L 347.76 70.3008 
L 346.272 71.4096 
L 344.784 72.5184 
L 344.784 74.736 
L 343.296 75.8448 
L 341.808 76.9536 
L 340.32 78.0624 
L 338.832 79.1712 
L 338.832 81.3888 
L 337.344 82.4976 
L 335.856 83.6064 
L 334.368 84.7152 
L 332.88 85.824 
L 332.88 88.0416 
L 331.392 89.1504 
L 329.904 90.2592 
L 328.416 91.368 
L 326.928 92.4768 
L 326.928 94.6944 
L 325.44 95.8032 
L 323.952 96.912 
L 322.464 98.0208 
L 320.976 99.1296 
L 319.488 100.2384 
L 318 101.3472 
L 318 103.5648 
L 316.512 104.6736 
L 315.024 105.7824 
L 313.536 106.8912 
L 312.048 108 
L 312.048 110.2176 
L 310.56 111.3264 
L 309.072 112.4352 
L 307.584 113.544 
L 306.096 114.6528 
L 304.608 115.7616 
L 303.12 116.8704 
L 301.632 117.9792 
L 300.144 119.088 
L 300.144 121.3056 
L 298.656 122.4144 
L 297.168 123.5232 
L 295.68 124.632 
L 294.192 125.7408 
L 292.704 126.8496 
L 291.216 127.9584 
L 289.728 129.0672 
L 288.24 130.176 
L 288.24 132.3936 
L 286.752 133.5024 
L 285.264 134.6112 
L 283.776 135.72 
L 282.288 136.8288 
L 280.8 137.9376 
L 279.312 139.0464 
L 277.824 140.1552 
L 276.336 141.264 
L 274.848 142.3728 
L 273.36 143.4816 
L 271.872 144.5904 
L 270.384 145.6992 
L 268.896 146.808 
L 267.408 147.9168 
L 265.92 149.0256 
L 264.432 150.1344 
L 262.944 151.2432 
L 261.456 152.352 
L 259.968 153.4608 
L 258.48 154.5696 
L 258.48 156.7872 
L 256.992 157.896 
L 255.504 159.0048 
L 254.016 160.1136 
L 251.04 160.1136 
L 249.552 161.2224 
L 248.064 162.3312 
L 245.088 162.3312 
L 242.112 162.3312 
L 240.624 161.2224 
L 240.624 159.0048 
L 240.624 156.7872 
L 242.112 155.6784 
L 243.6 154.5696 
L 243.6 152.352 
L 243.6 150.1344 
L 245.088 149.0256 
L 246.576 147.9168 
L 246.576 145.6992 
L 248.064 144.5904 
L 249.552 143.4816 
L 249.552 141.264 
L 251.04 140.1552 
L 252.528 139.0464 
L 252.528 136.8288 
L 254.016 135.72 
L 255.504 134.6112 
L 255.504 132.3936 
L 256.992 131.2848 
L 258.48 130.176 
L 258.48 127.9584 
L 259.968 126.8496 
L 261.456 125.7408 
L 261.456 123.5232 
L 262.944 122.4144 
L 264.432 121.3056 
L 264.432 119.088 
L 265.92 117.9792 
L 267.408 116.8704 
L 267.408 114.6528 
L 268.896 113.544 
L 270.384 112.4352 
L 270.384 110.2176 
L 271.872 109.1088 
L 274.848 109.1088 
L 276.336 108 
L 276.336 105.7824 
L 276.336 103.5648 
L 277.824 102.456 
L 279.312 101.3472 
L 279.312 99.1296 
L 280.8 98.0208 
L 282.288 96.912 
L 282.288 94.6944 
L 283.776 93.5856 
L 285.264 92.4768 
L 285.264 90.2592 
L 286.752 89.1504 
L 288.24 88.0416 
L 289.728 86.9328 
L 291.216 85.824 
L 291.216 83.6064 
L 292.704 82.4976 
L 294.192 81.3888 
L 294.192 79.1712 
L 295.68 78.0624 
L 297.168 76.9536 
L 297.168 74.736 
L 298.656 73.6272 
L 300.144 72.5184 
L 301.632 71.4096 
L 303.12 70.3008 
L 303.12 68.0832 
L 304.608 66.9744 
L 306.096 65.8656 
L 306.096 63.648 
L 307.584 62.5392 
L 309.072 61.4304 
L 309.072 59.2128 
L 310.56 58.104 
L 312.048 56.9952 
L 312.048 54.7776 
L 313.536 53.6688 
L 315.024 52.56 
L 316.512 51.4512 
L 318 50.3424 
L 318 48.1248 
L 319.488 47.016 
L 320.976 45.9072 
L 320.976 43.6896 
L 322.464 42.5808 
L 323.952 41.472 
L 322.464 41.472 
L 319.488 41.472 
L 316.512 41.472 
L 315.024 41.472 
L 315.024 43.6896 
L 313.536 44.7984 
L 312.048 45.9072 
L 310.56 47.016 
L 309.072 48.1248 
L 309.072 50.3424 
L 307.584 51.4512 
L 306.096 52.56 
L 306.096 54.7776 
L 304.608 55.8864 
L 303.12 56.9952 
L 301.632 58.104 
L 300.144 59.2128 
L 300.144 61.4304 
L 298.656 62.5392 
L 297.168 63.648 
L 297.168 65.8656 
L 295.68 66.9744 
L 294.192 68.0832 
L 294.192 70.3008 
L 292.704 71.4096 
L 291.216 72.5184 
L 289.728 73.6272 
L 288.24 74.736 
L 288.24 76.9536 
L 286.752 78.0624 
L 285.264 79.1712 
L 285.264 81.3888 
L 283.776 82.4976 
L 282.288 83.6064 
L 280.8 84.7152 
L 279.312 85.824 
L 279.312 88.0416 
L 277.824 89.1504 
L 276.336 90.2592 
L 276.336 92.4768 
L 274.848 93.5856 
L 273.36 94.6944 
L 271.872 95.8032 
L 270.384 96.912 
L 270.384 99.1296 
L 268.896 100.2384 
L 267.408 101.3472 
L 267.408 103.5648 
L 265.92 104.6736 
L 264.432 105.7824 
L 264.432 108 
L 262.944 109.1088 
L 261.456 110.2176 
L 259.968 111.3264 
L 258.48 112.4352 
L 258.48 114.6528 
L 256.992 115.7616 
L 255.504 116.8704 
L 254.016 117.9792 
L 252.528 119.088 
L 252.528 121.3056 
L 251.04 122.4144 
L 249.552 123.5232 
L 249.552 125.7408 
L 248.064 126.8496 
L 246.576 127.9584 
L 245.088 129.0672 
L 243.6 130.176 
L 243.6 132.3936 
L 242.112 133.5024 
L 240.624 134.6112 
L 240.624 136.8288 
L 239.136 137.9376 
L 237.648 139.0464 
L 236.16 140.1552 
L 234.672 141.264 
L 234.672 143.4816 
L 233.184 144.5904 
L 231.696 145.6992 
L 231.696 147.9168 
L 230.208 149.0256 
L 228.72 150.1344 
L 227.232 151.2432 
L 225.744 152.352 
L 225.744 154.5696 
L 224.256 155.6784 
L 222.768 156.7872 
L 221.28 157.896 
L 219.792 159.0048 
L 219.792 161.2224 
L 218.304 162.3312 
L 216.816 163.44 
L 215.328 164.5488 
L 213.84 165.6576 
L 213.84 167.8752 
L 212.352 168.984 
L 210.864 170.0928 
L 209.376 171.2016 
L 207.888 172.3104 
L 207.888 174.528 
L 206.4 175.6368 
L 204.912 176.7456 
L 203.424 177.8544 
L 201.936 178.9632 
L 201.936 181.1808 
L 200.448 182.2896 
L 198.96 183.3984 
L 197.472 184.5072 
L 195.984 185.616 
L 194.496 186.7248 
L 193.008 187.8336 
L 193.008 190.0512 
L 191.52 191.16 
L 190.032 192.2688 
L 188.544 193.3776 
L 187.056 194.4864 
L 185.568 195.5952 
L 184.08 196.704 
L 184.08 198.9216 
L 182.592 200.0304 
L 181.104 201.1392 
L 179.616 202.248 
L 178.128 203.3568 
L 176.64 204.4656 
L 175.152 205.5744 
L 173.664 206.6832 
L 172.176 207.792 
L 170.688 208.9008 
L 169.2 210.0096 
L 167.712 211.1184 
L 166.224 210.0096 
L 166.224 207.792 
L 167.712 206.6832 
L 169.2 205.5744 
L 169.2 203.3568 
L 170.688 202.248 
L 172.176 201.1392 
L 172.176 198.9216 
L 173.664 197.8128 
L 175.152 196.704 
L 175.152 194.4864 
L 176.64 193.3776 
L 178.128 192.2688 
L 178.128 190.0512 
L 179.616 188.9424 
L 181.104 187.8336 
L 181.104 185.616 
L 182.592 184.5072 
L 184.08 183.3984 
L 184.08 181.1808 
L 185.568 180.072 
L 187.056 178.9632 
L 187.056 176.7456 
L 188.544 175.6368 
L 190.032 174.528 
L 191.52 173.4192 
L 193.008 172.3104 
L 193.008 170.0928 
L 194.496 168.984 
L 195.984 167.8752 
L 195.984 165.6576 
L 197.472 164.5488 
L 198.96 163.44 
L 198.96 161.2224 
L 200.448 160.1136 
L 201.936 159.0048 
L 201.936 156.7872 
L 200.448 155.6784 
L 198.96 156.7872 
L 197.472 157.896 
L 195.984 159.0048 
L 195.984 161.2224 
L 194.496 162.3312 
L 193.008 163.44 
L 193.008 165.6576 
L 191.52 166.7664 
L 190.032 167.8752 
L 190.032 170.0928 
L 188.544 171.2016 
L 187.056 172.3104 
L 185.568 173.4192 
L 184.08 174.528 
L 184.08 176.7456 
L 182.592 177.8544 
L 181.104 178.9632 
L 181.104 181.1808 
L 179.616 182.2896 
L 178.128 183.3984 
L 176.64 184.5072 
L 175.152 185.616 
L 175.152 187.8336 
L 173.664 188.9424 
L 172.176 190.0512 
L 172.176 192.2688 
L 170.688 193.3776 
L 169.2 194.4864 
L 167.712 195.5952 
L 166.224 196.704 
L 166.224 198.9216 
L 164.736 200.0304 
L 163.248 201.1392 
L 163.248 203.3568 
L 161.76 204.4656 
L 160.272 205.5744 
L 158.784 206.6832 
L 157.296 207.792 
L 157.296 210.0096 
L 155.808 211.1184 
L 154.32 212.2272 
L 154.32 214.4448 
L 152.832 215.5536 
L 151.344 216.6624 
L 149.856 217.7712 
L 148.368 218.88 
L 148.368 221.0976 
L 146.88 222.2064 
L 145.392 223.3152 
L 145.392 225.5328 
L 143.904 226.6416 
L 142.416 227.7504 
L 140.928 228.8592 
L 139.44 229.968 
L 139.44 232.1856 
L 137.952 233.2944 
L 136.464 234.4032 
L 134.976 235.512 
L 133.488 236.6208 
L 133.488 238.8384 
L 132 239.9472 
L 130.512 241.056 
L 129.024 242.1648 
L 127.536 243.2736 
L 127.536 245.4912 
L 126.048 246.6 
L 123.072 246.6 
L 121.584 247.7088 
L 120.096 248.8176 
L 118.608 247.7088 
L 117.12 246.6 
L 115.632 247.7088 
L 114.144 248.8176 
L 112.656 249.9264 
L 112.656 252.144 
L 111.168 253.2528 
L 109.68 254.3616 
L 109.68 256.5792 
L 108.192 257.688 
L 106.704 258.7968 
L 105.216 259.9056 
L 103.728 261.0144 
L 103.728 263.232 
L 102.24 264.3408 
L 100.752 265.4496 
L 100.752 267.6672 
L 99.264 268.776 
L 97.776 269.8848 
L 96.288 270.9936 
L 94.8 272.1024 
L 94.8 274.32 
L 93.312 275.4288 
L 91.824 276.5376 
L 90.336 277.6464 
L 87.36 277.6464 
L 85.872 278.7552 
L 84.384 279.864 
L 81.408 279.864 
L 79.92 280.9728 
L 81.408 282.0816 
L 82.896 283.1904 
L 81.408 284.2992 
L 79.92 285.408 
L 79.92 287.6256 
L 78.432 288.7344 
L 76.944 289.8432 
L 75.456 290.952 
L 73.968 292.0608 
L 72.48 293.1696 
L 69.504 293.1696 
L 68.016 294.2784 
L 68.016 296.496 
L 68.016 298.7136 
L 66.528 299.8224 
L 65.04 300.9312 
L 63.552 302.04 
L 62.064 303.1488 
L 60.576 304.2576 
L 59.088 305.3664 
z
M 115.632 252.144 
L 117.12 251.0352 
L 118.608 252.144 
L 117.12 253.2528 
z
M 371.568 236.6208 
L 373.056 235.512 
L 374.544 236.6208 
L 373.056 237.7296 
z
" style="fill:#84ca66;"/>
    <path clip-path="url(#p12fa1c00b9)" d="M 194.496 284.2992 
L 195.984 283.1904 
L 194.496 282.0816 
L 193.008 283.1904 
z
" style="fill:#84ca66;"/>
    <path clip-path="url(#p12fa1c00b9)" d="M 209.376 282.0816 
L 210.864 280.9728 
L 209.376 279.864 
L 207.888 280.9728 
z
" style="fill:#84ca66;"/>
    <path clip-path="url(#p12fa1c00b9)" d="M 84.384 275.4288 
L 85.872 274.32 
L 84.384 273.2112 
L 82.896 274.32 
z
" style="fill:#84ca66;"/>
    <path clip-path="url(#p12fa1c00b9)" d="M 90.336 275.4288 
L 91.824 274.32 
L 90.336 273.2112 
L 88.848 274.32 
z
" style="fill:#84ca66;"/>
    <path clip-path="url(#p12fa1c00b9)" d="M 93.312 270.9936 
L 94.8 269.8848 
L 93.312 268.776 
L 91.824 269.8848 
z
" style="fill:#84ca66;"/>
    <path clip-path="url(#p12fa1c00b9)" d="M 254.016 270.9936 
L 256.992 270.9936 
L 258.48 269.8848 
L 256.992 268.776 
L 254.016 268.776 
L 252.528 269.8848 
z
" style="fill:#84ca66;"/>
    <path clip-path="url(#p12fa1c00b9)" d="M 271.872 268.776 
L 273.36 267.6672 
L 271.872 266.5584 
L 270.384 267.6672 
z
" style="fill:#84ca66;"/>
    <path clip-path="url(#p12fa1c00b9)" d="M 96.288 266.5584 
L 97.776 265.4496 
L 96.288 264.3408 
L 94.8 265.4496 
z
" style="fill:#84ca66;"/>
    <path clip-path="url(#p12fa1c00b9)" d="M 286.752 266.5584 
L 288.24 265.4496 
L 286.752 264.3408 
L 285.264 265.4496 
z
" style="fill:#84ca66;"/>
    <path clip-path="url(#p12fa1c00b9)" d="M 96.288 262.1232 
L 97.776 261.0144 
L 96.288 259.9056 
L 94.8 261.0144 
z
" style="fill:#84ca66;"/>
    <path clip-path="url(#p12fa1c00b9)" d="M 313.536 262.1232 
L 315.024 261.0144 
L 313.536 259.9056 
L 312.048 261.0144 
z
" style="fill:#84ca66;"/>
    <path clip-path="url(#p12fa1c00b9)" d="M 343.296 257.688 
L 344.784 256.5792 
L 343.296 255.4704 
L 341.808 256.5792 
z
" style="fill:#84ca66;"/>
    <path clip-path="url(#p12fa1c00b9)" d="M 105.216 255.4704 
L 106.704 254.3616 
L 105.216 253.2528 
L 103.728 254.3616 
z
" style="fill:#84ca66;"/>
    <path clip-path="url(#p12fa1c00b9)" d="M 108.192 251.0352 
L 109.68 249.9264 
L 108.192 248.8176 
L 106.704 249.9264 
z
" style="fill:#84ca66;"/>
    <path clip-path="url(#p12fa1c00b9)" d="M 399.84 248.8176 
L 401.328 247.7088 
L 399.84 246.6 
L 398.352 247.7088 
z
" style="fill:#84ca66;"/>
    <path clip-path="url(#p12fa1c00b9)" d="M 120.096 246.6 
L 121.584 245.4912 
L 121.584 243.2736 
L 120.096 242.1648 
L 118.608 243.2736 
L 118.608 245.4912 
z
" style="fill:#84ca66;"/>
    <path clip-path="url(#p12fa1c00b9)" d="M 111.168 242.1648 
L 112.656 241.056 
L 111.168 239.9472 
L 109.68 241.056 
z
" style="fill:#84ca66;"/>
    <path clip-path="url(#p12fa1c00b9)" d="M 123.072 242.1648 
L 124.56 241.056 
L 124.56 238.8384 
L 123.072 237.7296 
L 121.584 238.8384 
L 121.584 241.056 
z
" style="fill:#84ca66;"/>
    <path clip-path="url(#p12fa1c00b9)" d="M 117.12 239.9472 
L 118.608 238.8384 
L 117.12 237.7296 
L 115.632 238.8384 
z
" style="fill:#84ca66;"/>
    <path clip-path="url(#p12fa1c00b9)" d="M 126.048 237.7296 
L 127.536 236.6208 
L 126.048 235.512 
L 124.56 236.6208 
z
" style="fill:#84ca66;"/>
    <path clip-path="url(#p12fa1c00b9)" d="M 405.792 237.7296 
L 408.768 237.7296 
L 411.744 237.7296 
L 414.72 237.7296 
L 414.72 236.6208 
L 414.72 235.512 
L 411.744 235.512 
L 408.768 235.512 
L 405.792 235.512 
L 404.304 236.6208 
z
" style="fill:#84ca66;"/>
    <path clip-path="url(#p12fa1c00b9)" d="M 120.096 235.512 
L 121.584 234.4032 
L 120.096 233.2944 
L 118.608 234.4032 
z
" style="fill:#84ca66;"/>
    <path clip-path="url(#p12fa1c00b9)" d="M 129.024 233.2944 
L 130.512 232.1856 
L 129.024 231.0768 
L 127.536 232.1856 
z
" style="fill:#84ca66;"/>
    <path clip-path="url(#p12fa1c00b9)" d="M 123.072 231.0768 
L 124.56 229.968 
L 123.072 228.8592 
L 121.584 229.968 
z
" style="fill:#84ca66;"/>
    <path clip-path="url(#p12fa1c00b9)" d="M 132 228.8592 
L 133.488 227.7504 
L 132 226.6416 
L 130.512 227.7504 
z
" style="fill:#84ca66;"/>
    <path clip-path="url(#p12fa1c00b9)" d="M 134.976 226.6416 
L 136.464 225.5328 
L 136.464 223.3152 
L 134.976 222.2064 
L 133.488 223.3152 
L 133.488 225.5328 
z
" style="fill:#84ca66;"/>
    <path clip-path="url(#p12fa1c00b9)" d="M 126.048 222.2064 
L 127.536 221.0976 
L 126.048 219.9888 
L 124.56 221.0976 
z
" style="fill:#84ca66;"/>
    <path clip-path="url(#p12fa1c00b9)" d="M 137.952 222.2064 
L 139.44 221.0976 
L 137.952 219.9888 
L 136.464 221.0976 
z
" style="fill:#84ca66;"/>
    <path clip-path="url(#p12fa1c00b9)" d="M 140.928 217.7712 
L 142.416 216.6624 
L 140.928 215.5536 
L 139.44 216.6624 
z
" style="fill:#84ca66;"/>
    <path clip-path="url(#p12fa1c00b9)" d="M 134.976 215.5536 
L 136.464 214.4448 
L 134.976 213.336 
L 133.488 214.4448 
z
" style="fill:#84ca66;"/>
    <path clip-path="url(#p12fa1c00b9)" d="M 143.904 213.336 
L 145.392 212.2272 
L 143.904 211.1184 
L 142.416 212.2272 
z
" style="fill:#84ca66;"/>
    <path clip-path="url(#p12fa1c00b9)" d="M 146.88 208.9008 
L 148.368 207.792 
L 146.88 206.6832 
L 145.392 207.792 
z
" style="fill:#84ca66;"/>
    <path clip-path="url(#p12fa1c00b9)" d="M 149.856 206.6832 
L 151.344 205.5744 
L 149.856 204.4656 
L 148.368 205.5744 
z
" style="fill:#84ca66;"/>
    <path clip-path="url(#p12fa1c00b9)" d="M 152.832 202.248 
L 154.32 201.1392 
L 152.832 200.0304 
L 151.344 201.1392 
z
" style="fill:#84ca66;"/>
    <path clip-path="url(#p12fa1c00b9)" d="M 155.808 197.8128 
L 157.296 196.704 
L 155.808 195.5952 
L 154.32 196.704 
z
" style="fill:#84ca66;"/>
    <path clip-path="url(#p12fa1c00b9)" d="M 149.856 195.5952 
L 151.344 194.4864 
L 149.856 193.3776 
L 148.368 194.4864 
z
" style="fill:#84ca66;"/>
    <path clip-path="url(#p12fa1c00b9)" d="M 158.784 193.3776 
L 160.272 192.2688 
L 158.784 191.16 
L 157.296 192.2688 
z
" style="fill:#84ca66;"/>
    <path clip-path="url(#p12fa1c00b9)" d="M 161.76 191.16 
L 163.248 190.0512 
L 163.248 187.8336 
L 161.76 186.7248 
L 160.272 187.8336 
L 160.272 190.0512 
z
" style="fill:#84ca66;"/>
    <path clip-path="url(#p12fa1c00b9)" d="M 152.832 186.7248 
L 154.32 185.616 
L 152.832 184.5072 
L 151.344 185.616 
z
" style="fill:#84ca66;"/>
    <path clip-path="url(#p12fa1c00b9)" d="M 164.736 186.7248 
L 166.224 185.616 
L 164.736 184.5072 
L 163.248 185.616 
z
" style="fill:#84ca66;"/>
    <path clip-path="url(#p12fa1c00b9)" d="M 167.712 182.2896 
L 169.2 181.1808 
L 167.712 180.072 
L 166.224 181.1808 
z
" style="fill:#84ca66;"/>
    <path clip-path="url(#p12fa1c00b9)" d="M 161.76 180.072 
L 163.248 178.9632 
L 161.76 177.8544 
L 160.272 178.9632 
z
" style="fill:#84ca66;"/>
    <path clip-path="url(#p12fa1c00b9)" d="M 170.688 177.8544 
L 172.176 176.7456 
L 170.688 175.6368 
L 169.2 176.7456 
z
" style="fill:#84ca66;"/>
    <path clip-path="url(#p12fa1c00b9)" d="M 164.736 175.6368 
L 166.224 174.528 
L 164.736 173.4192 
L 163.248 174.528 
z
" style="fill:#84ca66;"/>
    <path clip-path="url(#p12fa1c00b9)" d="M 414.72 175.6368 
L 414.72 174.528 
L 414.72 173.4192 
L 413.232 174.528 
z
" style="fill:#84ca66;"/>
    <path clip-path="url(#p12fa1c00b9)" d="M 173.664 173.4192 
L 175.152 172.3104 
L 173.664 171.2016 
L 172.176 172.3104 
z
" style="fill:#84ca66;"/>
    <path clip-path="url(#p12fa1c00b9)" d="M 179.616 166.7664 
L 181.104 165.6576 
L 179.616 164.5488 
L 178.128 165.6576 
z
" style="fill:#84ca66;"/>
    <path clip-path="url(#p12fa1c00b9)" d="M 182.592 162.3312 
L 184.08 161.2224 
L 182.592 160.1136 
L 181.104 161.2224 
z
" style="fill:#84ca66;"/>
    <path clip-path="url(#p12fa1c00b9)" d="M 176.64 160.1136 
L 178.128 159.0048 
L 176.64 157.896 
L 175.152 159.0048 
z
" style="fill:#84ca66;"/>
    <path clip-path="url(#p12fa1c00b9)" d="M 185.568 157.896 
L 187.056 156.7872 
L 185.568 155.6784 
L 184.08 156.7872 
z
" style="fill:#84ca66;"/>
    <path clip-path="url(#p12fa1c00b9)" d="M 254.016 157.896 
L 255.504 156.7872 
L 254.016 155.6784 
L 252.528 156.7872 
z
" style="fill:#84ca66;"/>
    <path clip-path="url(#p12fa1c00b9)" d="M 322.464 157.896 
L 323.952 156.7872 
L 322.464 155.6784 
L 320.976 156.7872 
z
" style="fill:#84ca66;"/>
    <path clip-path="url(#p12fa1c00b9)" d="M 179.616 155.6784 
L 181.104 154.5696 
L 179.616 153.4608 
L 178.128 154.5696 
z
" style="fill:#84ca66;"/>
    <path clip-path="url(#p12fa1c00b9)" d="M 203.424 155.6784 
L 204.912 154.5696 
L 206.4 153.4608 
L 207.888 152.352 
L 207.888 150.1344 
L 209.376 149.0256 
L 210.864 147.9168 
L 210.864 145.6992 
L 212.352 144.5904 
L 213.84 143.4816 
L 213.84 141.264 
L 212.352 140.1552 
L 210.864 141.264 
L 209.376 142.3728 
L 207.888 143.4816 
L 207.888 145.6992 
L 206.4 146.808 
L 204.912 147.9168 
L 204.912 150.1344 
L 203.424 151.2432 
L 201.936 152.352 
L 201.936 154.5696 
z
" style="fill:#84ca66;"/>
    <path clip-path="url(#p12fa1c00b9)" d="M 188.544 153.4608 
L 190.032 152.352 
L 188.544 151.2432 
L 187.056 152.352 
z
" style="fill:#84ca66;"/>
    <path clip-path="url(#p12fa1c00b9)" d="M 319.488 153.4608 
L 320.976 152.352 
L 319.488 151.2432 
L 318 152.352 
z
" style="fill:#84ca66;"/>
    <path clip-path="url(#p12fa1c00b9)" d="M 194.496 146.808 
L 195.984 145.6992 
L 194.496 144.5904 
L 193.008 145.6992 
z
" style="fill:#84ca66;"/>
    <path clip-path="url(#p12fa1c00b9)" d="M 197.472 142.3728 
L 198.96 141.264 
L 197.472 140.1552 
L 195.984 141.264 
z
" style="fill:#84ca66;"/>
    <path clip-path="url(#p12fa1c00b9)" d="M 191.52 140.1552 
L 193.008 139.0464 
L 191.52 137.9376 
L 190.032 139.0464 
z
" style="fill:#84ca66;"/>
    <path clip-path="url(#p12fa1c00b9)" d="M 215.328 140.1552 
L 216.816 139.0464 
L 216.816 136.8288 
L 215.328 135.72 
L 213.84 136.8288 
L 213.84 139.0464 
z
" style="fill:#84ca66;"/>
    <path clip-path="url(#p12fa1c00b9)" d="M 200.448 137.9376 
L 201.936 136.8288 
L 200.448 135.72 
L 198.96 136.8288 
z
" style="fill:#84ca66;"/>
    <path clip-path="url(#p12fa1c00b9)" d="M 194.496 135.72 
L 195.984 134.6112 
L 194.496 133.5024 
L 193.008 134.6112 
z
" style="fill:#84ca66;"/>
    <path clip-path="url(#p12fa1c00b9)" d="M 218.304 135.72 
L 219.792 134.6112 
L 221.28 133.5024 
L 222.768 132.3936 
L 222.768 130.176 
L 224.256 129.0672 
L 225.744 127.9584 
L 225.744 125.7408 
L 224.256 124.632 
L 222.768 125.7408 
L 221.28 126.8496 
L 219.792 127.9584 
L 219.792 130.176 
L 218.304 131.2848 
L 216.816 132.3936 
L 216.816 134.6112 
z
" style="fill:#84ca66;"/>
    <path clip-path="url(#p12fa1c00b9)" d="M 203.424 133.5024 
L 204.912 132.3936 
L 203.424 131.2848 
L 201.936 132.3936 
z
" style="fill:#84ca66;"/>
    <path clip-path="url(#p12fa1c00b9)" d="M 197.472 126.8496 
L 198.96 125.7408 
L 197.472 124.632 
L 195.984 125.7408 
z
" style="fill:#84ca66;"/>
    <path clip-path="url(#p12fa1c00b9)" d="M 209.376 126.8496 
L 210.864 125.7408 
L 209.376 124.632 
L 207.888 125.7408 
z
" style="fill:#84ca66;"/>
    <path clip-path="url(#p12fa1c00b9)" d="M 227.232 124.632 
L 228.72 123.5232 
L 228.72 121.3056 
L 227.232 120.1968 
L 225.744 121.3056 
L 225.744 123.5232 
z
" style="fill:#84ca66;"/>
    <path clip-path="url(#p12fa1c00b9)" d="M 212.352 122.4144 
L 213.84 121.3056 
L 212.352 120.1968 
L 210.864 121.3056 
z
" style="fill:#84ca66;"/>
    <path clip-path="url(#p12fa1c00b9)" d="M 200.448 120.1968 
L 201.936 119.088 
L 200.448 117.9792 
L 198.96 119.088 
z
" style="fill:#84ca66;"/>
    <path clip-path="url(#p12fa1c00b9)" d="M 206.4 120.1968 
L 207.888 119.088 
L 206.4 117.9792 
L 204.912 119.088 
z
" style="fill:#84ca66;"/>
    <path clip-path="url(#p12fa1c00b9)" d="M 230.208 120.1968 
L 231.696 119.088 
L 231.696 116.8704 
L 230.208 115.7616 
L 228.72 116.8704 
L 228.72 119.088 
z
" style="fill:#84ca66;"/>
    <path clip-path="url(#p12fa1c00b9)" d="M 215.328 117.9792 
L 216.816 116.8704 
L 215.328 115.7616 
L 213.84 116.8704 
z
" style="fill:#84ca66;"/>
    <path clip-path="url(#p12fa1c00b9)" d="M 233.184 115.7616 
L 234.672 114.6528 
L 236.16 113.544 
L 237.648 112.4352 
L 237.648 110.2176 
L 239.136 109.1088 
L 240.624 108 
L 240.624 105.7824 
L 239.136 104.6736 
L 237.648 105.7824 
L 236.16 106.8912 
L 234.672 108 
L 234.672 110.2176 
L 233.184 111.3264 
L 231.696 112.4352 
L 231.696 114.6528 
z
" style="fill:#84ca66;"/>
    <path clip-path="url(#p12fa1c00b9)" d="M 218.304 113.544 
L 219.792 112.4352 
L 218.304 111.3264 
L 216.816 112.4352 
z
" style="fill:#84ca66;"/>
    <path clip-path="url(#p12fa1c00b9)" d="M 212.352 106.8912 
L 213.84 105.7824 
L 212.352 104.6736 
L 210.864 105.7824 
z
" style="fill:#84ca66;"/>
    <path clip-path="url(#p12fa1c00b9)" d="M 224.256 106.8912 
L 225.744 105.7824 
L 224.256 104.6736 
L 222.768 105.7824 
z
" style="fill:#84ca66;"/>
    <path clip-path="url(#p12fa1c00b9)" d="M 242.112 104.6736 
L 243.6 103.5648 
L 243.6 101.3472 
L 242.112 100.2384 
L 240.624 101.3472 
L 240.624 103.5648 
z
" style="fill:#84ca66;"/>
    <path clip-path="url(#p12fa1c00b9)" d="M 227.232 102.456 
L 228.72 101.3472 
L 227.232 100.2384 
L 225.744 101.3472 
z
" style="fill:#84ca66;"/>
    <path clip-path="url(#p12fa1c00b9)" d="M 215.328 100.2384 
L 216.816 99.1296 
L 215.328 98.0208 
L 213.84 99.1296 
z
" style="fill:#84ca66;"/>
    <path clip-path="url(#p12fa1c00b9)" d="M 221.28 100.2384 
L 222.768 99.1296 
L 221.28 98.0208 
L 219.792 99.1296 
z
" style="fill:#84ca66;"/>
    <path clip-path="url(#p12fa1c00b9)" d="M 245.088 100.2384 
L 246.576 99.1296 
L 248.064 98.0208 
L 249.552 96.912 
L 249.552 94.6944 
L 249.552 92.4768 
L 248.064 91.368 
L 246.576 92.4768 
L 246.576 94.6944 
L 245.088 95.8032 
L 243.6 96.912 
L 243.6 99.1296 
z
" style="fill:#84ca66;"/>
    <path clip-path="url(#p12fa1c00b9)" d="M 230.208 98.0208 
L 231.696 96.912 
L 230.208 95.8032 
L 228.72 96.912 
z
" style="fill:#84ca66;"/>
    <path clip-path="url(#p12fa1c00b9)" d="M 233.184 93.5856 
L 234.672 92.4768 
L 233.184 91.368 
L 231.696 92.4768 
z
" style="fill:#84ca66;"/>
    <path clip-path="url(#p12fa1c00b9)" d="M 236.16 91.368 
L 237.648 90.2592 
L 236.16 89.1504 
L 234.672 90.2592 
z
" style="fill:#84ca66;"/>
    <path clip-path="url(#p12fa1c00b9)" d="M 251.04 91.368 
L 252.528 90.2592 
L 251.04 89.1504 
L 249.552 90.2592 
z
" style="fill:#84ca66;"/>
    <path clip-path="url(#p12fa1c00b9)" d="M 254.016 89.1504 
L 255.504 88.0416 
L 255.504 85.824 
L 254.016 84.7152 
L 252.528 85.824 
L 252.528 88.0416 
z
" style="fill:#84ca66;"/>
    <path clip-path="url(#p12fa1c00b9)" d="M 227.232 86.9328 
L 228.72 85.824 
L 227.232 84.7152 
L 225.744 85.824 
z
" style="fill:#84ca66;"/>
    <path clip-path="url(#p12fa1c00b9)" d="M 239.136 86.9328 
L 240.624 85.824 
L 239.136 84.7152 
L 237.648 85.824 
z
" style="fill:#84ca66;"/>
    <path clip-path="url(#p12fa1c00b9)" d="M 233.184 84.7152 
L 234.672 83.6064 
L 233.184 82.4976 
L 231.696 83.6064 
z
" style="fill:#84ca66;"/>
    <path clip-path="url(#p12fa1c00b9)" d="M 256.992 84.7152 
L 258.48 83.6064 
L 258.48 81.3888 
L 256.992 80.28 
L 255.504 81.3888 
L 255.504 83.6064 
z
" style="fill:#84ca66;"/>
    <path clip-path="url(#p12fa1c00b9)" d="M 242.112 82.4976 
L 243.6 81.3888 
L 242.112 80.28 
L 240.624 81.3888 
z
" style="fill:#84ca66;"/>
    <path clip-path="url(#p12fa1c00b9)" d="M 236.16 80.28 
L 237.648 79.1712 
L 236.16 78.0624 
L 234.672 79.1712 
z
" style="fill:#84ca66;"/>
    <path clip-path="url(#p12fa1c00b9)" d="M 259.968 80.28 
L 261.456 79.1712 
L 262.944 78.0624 
L 264.432 76.9536 
L 264.432 74.736 
L 265.92 73.6272 
L 267.408 72.5184 
L 267.408 70.3008 
L 265.92 69.192 
L 264.432 70.3008 
L 262.944 71.4096 
L 261.456 72.5184 
L 261.456 74.736 
L 259.968 75.8448 
L 258.48 76.9536 
L 258.48 79.1712 
z
" style="fill:#84ca66;"/>
    <path clip-path="url(#p12fa1c00b9)" d="M 248.064 75.8448 
L 249.552 74.736 
L 249.552 72.5184 
L 248.064 71.4096 
L 246.576 72.5184 
L 246.576 74.736 
z
" style="fill:#84ca66;"/>
    <path clip-path="url(#p12fa1c00b9)" d="M 251.04 71.4096 
L 252.528 70.3008 
L 251.04 69.192 
L 249.552 70.3008 
z
" style="fill:#84ca66;"/>
    <path clip-path="url(#p12fa1c00b9)" d="M 268.896 69.192 
L 270.384 68.0832 
L 270.384 65.8656 
L 268.896 64.7568 
L 267.408 65.8656 
L 267.408 68.0832 
z
" style="fill:#84ca66;"/>
    <path clip-path="url(#p12fa1c00b9)" d="M 242.112 66.9744 
L 243.6 65.8656 
L 242.112 64.7568 
L 240.624 65.8656 
z
" style="fill:#84ca66;"/>
    <path clip-path="url(#p12fa1c00b9)" d="M 254.016 66.9744 
L 255.504 65.8656 
L 254.016 64.7568 
L 252.528 65.8656 
z
" style="fill:#84ca66;"/>
    <path clip-path="url(#p12fa1c00b9)" d="M 271.872 64.7568 
L 273.36 63.648 
L 273.36 61.4304 
L 271.872 60.3216 
L 270.384 61.4304 
L 270.384 63.648 
z
" style="fill:#84ca66;"/>
    <path clip-path="url(#p12fa1c00b9)" d="M 256.992 62.5392 
L 258.48 61.4304 
L 256.992 60.3216 
L 255.504 61.4304 
z
" style="fill:#84ca66;"/>
    <path clip-path="url(#p12fa1c00b9)" d="M 251.04 60.3216 
L 252.528 59.2128 
L 251.04 58.104 
L 249.552 59.2128 
z
" style="fill:#84ca66;"/>
    <path clip-path="url(#p12fa1c00b9)" d="M 274.848 60.3216 
L 276.336 59.2128 
L 277.824 58.104 
L 279.312 56.9952 
L 279.312 54.7776 
L 279.312 52.56 
L 277.824 51.4512 
L 276.336 52.56 
L 276.336 54.7776 
L 274.848 55.8864 
L 273.36 56.9952 
L 273.36 59.2128 
z
" style="fill:#84ca66;"/>
    <path clip-path="url(#p12fa1c00b9)" d="M 262.944 55.8864 
L 264.432 54.7776 
L 262.944 53.6688 
L 261.456 54.7776 
z
" style="fill:#84ca66;"/>
    <path clip-path="url(#p12fa1c00b9)" d="M 265.92 51.4512 
L 267.408 50.3424 
L 265.92 49.2336 
L 264.432 50.3424 
z
" style="fill:#84ca66;"/>
    <path clip-path="url(#p12fa1c00b9)" d="M 280.8 51.4512 
L 282.288 50.3424 
L 280.8 49.2336 
L 279.312 50.3424 
z
" style="fill:#84ca66;"/>
    <path clip-path="url(#p12fa1c00b9)" d="M 283.776 49.2336 
L 285.264 48.1248 
L 285.264 45.9072 
L 283.776 44.7984 
L 282.288 45.9072 
L 282.288 48.1248 
z
" style="fill:#84ca66;"/>
    <path clip-path="url(#p12fa1c00b9)" d="M 256.992 47.016 
L 258.48 45.9072 
L 256.992 44.7984 
L 255.504 45.9072 
z
" style="fill:#84ca66;"/>
    <path clip-path="url(#p12fa1c00b9)" d="M 268.896 47.016 
L 270.384 45.9072 
L 268.896 44.7984 
L 267.408 45.9072 
z
" style="fill:#84ca66;"/>
    <path clip-path="url(#p12fa1c00b9)" d="M 286.752 44.7984 
L 288.24 43.6896 
L 288.24 41.472 
L 286.752 41.472 
L 285.264 41.472 
L 285.264 43.6896 
z
" style="fill:#84ca66;"/>
    <path clip-path="url(#p12fa1c00b9)" d="M 271.872 42.5808 
L 273.36 41.472 
L 271.872 41.472 
L 270.384 41.472 
z
" style="fill:#84ca66;"/>
   </g>
   <g id="PathCollection_3">
    <defs>
     <path d="M -3 3 
L 3 -3 
M -3 -3 
L 3 3 
" id="m16dba7a82b" style="stroke:#1f77b4;stroke-width:1.5;"/>
    </defs>
    <g clip-path="url(#p12fa1c00b9)">
     <use style="fill:#1f77b4;stroke:#1f77b4;stroke-width:1.5;" x="236.16" xlink:href="#m16dba7a82b" y="241.056"/>
    </g>
   </g>
   <g id="PathCollection_4">
    <defs>
     <path d="M 0 1.5 
C 0.397805 1.5 0.77937 1.341951 1.06066 1.06066 
C 1.341951 0.77937 1.5 0.397805 1.5 0 
C 1.5 -0.397805 1.341951 -0.77937 1.06066 -1.06066 
C 0.77937 -1.341951 0.397805 -1.5 0 -1.5 
C -0.397805 -1.5 -0.77937 -1.341951 -1.06066 -1.06066 
C -1.341951 -0.77937 -1.5 -0.397805 -1.5 0 
C -1.5 0.397805 -1.341951 0.77937 -1.06066 1.06066 
C -0.77937 1.341951 -0.397805 1.5 0 1.5 
z
" id="mfde8d66b17" style="stroke:#000000;"/>
    </defs>
    <g clip-path="url(#p12fa1c00b9)">
     <use style="stroke:#000000;" x="176.64" xlink:href="#mfde8d66b17" y="274.32"/>
     <use style="stroke:#000000;" x="117.12" xlink:href="#mfde8d66b17" y="174.528"/>
    </g>
   </g>
   <g id="patch_3">
    <path clip-path="url(#p12fa1c00b9)" d="M 181.591418 273.918219 
Q 210.54906 271.368606 228.530077 250.032573 
L 227.191909 248.904828 
Q 230.421471 246.628396 233.561124 243.824371 
Q 232.076977 247.759626 230.250577 251.48253 
L 228.91241 250.354785 
Q 210.798436 271.848584 181.635272 274.416292 
L 181.591418 273.918219 
z
" style="stroke:#000000;stroke-linecap:round;"/>
   </g>
   <g id="patch_4">
    <path clip-path="url(#p12fa1c00b9)" d="M 118.918993 171.425952 
Q 131.402428 127.852619 143.885862 84.279286 
L 142.203542 83.797314 
Q 144.266408 80.227808 146.329275 76.658302 
Q 146.18906 80.778633 146.048846 84.898965 
L 144.366525 84.416992 
Q 131.883091 127.990325 119.399656 171.563659 
L 118.918993 171.425952 
z
" style="stroke:#000000;stroke-linecap:round;"/>
   </g>
   <g id="matplotlib.axis_1">
    <g id="xtick_1">
     <g id="line2d_1">
      <defs>
       <path d="M 0 0 
L 0 3.5 
" id="mf66f023355" style="stroke:#000000;stroke-width:0.8;"/>
      </defs>
      <g>
       <use style="stroke:#000000;stroke-width:0.8;" x="57.6" xlink:href="#mf66f023355" y="307.584"/>
      </g>
     </g>
     <g id="text_1">
      <!-- 0 -->
      <defs>
       <path d="M 31.78125 66.40625 
Q 24.171875 66.40625 20.328125 58.90625 
Q 16.5 51.421875 16.5 36.375 
Q 16.5 21.390625 20.328125 13.890625 
Q 24.171875 6.390625 31.78125 6.390625 
Q 39.453125 6.390625 43.28125 13.890625 
Q 47.125 21.390625 47.125 36.375 
Q 47.125 51.421875 43.28125 58.90625 
Q 39.453125 66.40625 31.78125 66.40625 
z
M 31.78125 74.21875 
Q 44.046875 74.21875 50.515625 64.515625 
Q 56.984375 54.828125 56.984375 36.375 
Q 56.984375 17.96875 50.515625 8.265625 
Q 44.046875 -1.421875 31.78125 -1.421875 
Q 19.53125 -1.421875 13.0625 8.265625 
Q 6.59375 17.96875 6.59375 36.375 
Q 6.59375 54.828125 13.0625 64.515625 
Q 19.53125 74.21875 31.78125 74.21875 
z
" id="DejaVuSans-48"/>
      </defs>
      <g transform="translate(54.41875 322.182437)scale(0.1 -0.1)">
       <use xlink:href="#DejaVuSans-48"/>
      </g>
     </g>
    </g>
    <g id="xtick_2">
     <g id="line2d_2">
      <g>
       <use style="stroke:#000000;stroke-width:0.8;" x="117.12" xlink:href="#mf66f023355" y="307.584"/>
      </g>
     </g>
     <g id="text_2">
      <!-- 2 -->
      <defs>
       <path d="M 19.1875 8.296875 
L 53.609375 8.296875 
L 53.609375 0 
L 7.328125 0 
L 7.328125 8.296875 
Q 12.9375 14.109375 22.625 23.890625 
Q 32.328125 33.6875 34.8125 36.53125 
Q 39.546875 41.84375 41.421875 45.53125 
Q 43.3125 49.21875 43.3125 52.78125 
Q 43.3125 58.59375 39.234375 62.25 
Q 35.15625 65.921875 28.609375 65.921875 
Q 23.96875 65.921875 18.8125 64.3125 
Q 13.671875 62.703125 7.8125 59.421875 
L 7.8125 69.390625 
Q 13.765625 71.78125 18.9375 73 
Q 24.125 74.21875 28.421875 74.21875 
Q 39.75 74.21875 46.484375 68.546875 
Q 53.21875 62.890625 53.21875 53.421875 
Q 53.21875 48.921875 51.53125 44.890625 
Q 49.859375 40.875 45.40625 35.40625 
Q 44.1875 33.984375 37.640625 27.21875 
Q 31.109375 20.453125 19.1875 8.296875 
z
" id="DejaVuSans-50"/>
      </defs>
      <g transform="translate(113.93875 322.182437)scale(0.1 -0.1)">
       <use xlink:href="#DejaVuSans-50"/>
      </g>
     </g>
    </g>
    <g id="xtick_3">
     <g id="line2d_3">
      <g>
       <use style="stroke:#000000;stroke-width:0.8;" x="176.64" xlink:href="#mf66f023355" y="307.584"/>
      </g>
     </g>
     <g id="text_3">
      <!-- 4 -->
      <defs>
       <path d="M 37.796875 64.3125 
L 12.890625 25.390625 
L 37.796875 25.390625 
z
M 35.203125 72.90625 
L 47.609375 72.90625 
L 47.609375 25.390625 
L 58.015625 25.390625 
L 58.015625 17.1875 
L 47.609375 17.1875 
L 47.609375 0 
L 37.796875 0 
L 37.796875 17.1875 
L 4.890625 17.1875 
L 4.890625 26.703125 
z
" id="DejaVuSans-52"/>
      </defs>
      <g transform="translate(173.45875 322.182437)scale(0.1 -0.1)">
       <use xlink:href="#DejaVuSans-52"/>
      </g>
     </g>
    </g>
    <g id="xtick_4">
     <g id="line2d_4">
      <g>
       <use style="stroke:#000000;stroke-width:0.8;" x="236.16" xlink:href="#mf66f023355" y="307.584"/>
      </g>
     </g>
     <g id="text_4">
      <!-- 6 -->
      <defs>
       <path d="M 33.015625 40.375 
Q 26.375 40.375 22.484375 35.828125 
Q 18.609375 31.296875 18.609375 23.390625 
Q 18.609375 15.53125 22.484375 10.953125 
Q 26.375 6.390625 33.015625 6.390625 
Q 39.65625 6.390625 43.53125 10.953125 
Q 47.40625 15.53125 47.40625 23.390625 
Q 47.40625 31.296875 43.53125 35.828125 
Q 39.65625 40.375 33.015625 40.375 
z
M 52.59375 71.296875 
L 52.59375 62.3125 
Q 48.875 64.0625 45.09375 64.984375 
Q 41.3125 65.921875 37.59375 65.921875 
Q 27.828125 65.921875 22.671875 59.328125 
Q 17.53125 52.734375 16.796875 39.40625 
Q 19.671875 43.65625 24.015625 45.921875 
Q 28.375 48.1875 33.59375 48.1875 
Q 44.578125 48.1875 50.953125 41.515625 
Q 57.328125 34.859375 57.328125 23.390625 
Q 57.328125 12.15625 50.6875 5.359375 
Q 44.046875 -1.421875 33.015625 -1.421875 
Q 20.359375 -1.421875 13.671875 8.265625 
Q 6.984375 17.96875 6.984375 36.375 
Q 6.984375 53.65625 15.1875 63.9375 
Q 23.390625 74.21875 37.203125 74.21875 
Q 40.921875 74.21875 44.703125 73.484375 
Q 48.484375 72.75 52.59375 71.296875 
z
" id="DejaVuSans-54"/>
      </defs>
      <g transform="translate(232.97875 322.182437)scale(0.1 -0.1)">
       <use xlink:href="#DejaVuSans-54"/>
      </g>
     </g>
    </g>
    <g id="xtick_5">
     <g id="line2d_5">
      <g>
       <use style="stroke:#000000;stroke-width:0.8;" x="295.68" xlink:href="#mf66f023355" y="307.584"/>
      </g>
     </g>
     <g id="text_5">
      <!-- 8 -->
      <defs>
       <path d="M 31.78125 34.625 
Q 24.75 34.625 20.71875 30.859375 
Q 16.703125 27.09375 16.703125 20.515625 
Q 16.703125 13.921875 20.71875 10.15625 
Q 24.75 6.390625 31.78125 6.390625 
Q 38.8125 6.390625 42.859375 10.171875 
Q 46.921875 13.96875 46.921875 20.515625 
Q 46.921875 27.09375 42.890625 30.859375 
Q 38.875 34.625 31.78125 34.625 
z
M 21.921875 38.8125 
Q 15.578125 40.375 12.03125 44.71875 
Q 8.5 49.078125 8.5 55.328125 
Q 8.5 64.0625 14.71875 69.140625 
Q 20.953125 74.21875 31.78125 74.21875 
Q 42.671875 74.21875 48.875 69.140625 
Q 55.078125 64.0625 55.078125 55.328125 
Q 55.078125 49.078125 51.53125 44.71875 
Q 48 40.375 41.703125 38.8125 
Q 48.828125 37.15625 52.796875 32.3125 
Q 56.78125 27.484375 56.78125 20.515625 
Q 56.78125 9.90625 50.3125 4.234375 
Q 43.84375 -1.421875 31.78125 -1.421875 
Q 19.734375 -1.421875 13.25 4.234375 
Q 6.78125 9.90625 6.78125 20.515625 
Q 6.78125 27.484375 10.78125 32.3125 
Q 14.796875 37.15625 21.921875 38.8125 
z
M 18.3125 54.390625 
Q 18.3125 48.734375 21.84375 45.5625 
Q 25.390625 42.390625 31.78125 42.390625 
Q 38.140625 42.390625 41.71875 45.5625 
Q 45.3125 48.734375 45.3125 54.390625 
Q 45.3125 60.0625 41.71875 63.234375 
Q 38.140625 66.40625 31.78125 66.40625 
Q 25.390625 66.40625 21.84375 63.234375 
Q 18.3125 60.0625 18.3125 54.390625 
z
" id="DejaVuSans-56"/>
      </defs>
      <g transform="translate(292.49875 322.182437)scale(0.1 -0.1)">
       <use xlink:href="#DejaVuSans-56"/>
      </g>
     </g>
    </g>
    <g id="xtick_6">
     <g id="line2d_6">
      <g>
       <use style="stroke:#000000;stroke-width:0.8;" x="355.2" xlink:href="#mf66f023355" y="307.584"/>
      </g>
     </g>
     <g id="text_6">
      <!-- 10 -->
      <defs>
       <path d="M 12.40625 8.296875 
L 28.515625 8.296875 
L 28.515625 63.921875 
L 10.984375 60.40625 
L 10.984375 69.390625 
L 28.421875 72.90625 
L 38.28125 72.90625 
L 38.28125 8.296875 
L 54.390625 8.296875 
L 54.390625 0 
L 12.40625 0 
z
" id="DejaVuSans-49"/>
      </defs>
      <g transform="translate(348.8375 322.182437)scale(0.1 -0.1)">
       <use xlink:href="#DejaVuSans-49"/>
       <use x="63.623047" xlink:href="#DejaVuSans-48"/>
      </g>
     </g>
    </g>
    <g id="xtick_7">
     <g id="line2d_7">
      <g>
       <use style="stroke:#000000;stroke-width:0.8;" x="414.72" xlink:href="#mf66f023355" y="307.584"/>
      </g>
     </g>
     <g id="text_7">
      <!-- 12 -->
      <g transform="translate(408.3575 322.182437)scale(0.1 -0.1)">
       <use xlink:href="#DejaVuSans-49"/>
       <use x="63.623047" xlink:href="#DejaVuSans-50"/>
      </g>
     </g>
    </g>
    <g id="text_8">
     <!-- k [N/m] -->
     <defs>
      <path d="M 9.078125 75.984375 
L 18.109375 75.984375 
L 18.109375 31.109375 
L 44.921875 54.6875 
L 56.390625 54.6875 
L 27.390625 29.109375 
L 57.625 0 
L 45.90625 0 
L 18.109375 26.703125 
L 18.109375 0 
L 9.078125 0 
z
" id="DejaVuSans-107"/>
      <path id="DejaVuSans-32"/>
      <path d="M 8.59375 75.984375 
L 29.296875 75.984375 
L 29.296875 69 
L 17.578125 69 
L 17.578125 -6.203125 
L 29.296875 -6.203125 
L 29.296875 -13.1875 
L 8.59375 -13.1875 
z
" id="DejaVuSans-91"/>
      <path d="M 9.8125 72.90625 
L 23.09375 72.90625 
L 55.421875 11.921875 
L 55.421875 72.90625 
L 64.984375 72.90625 
L 64.984375 0 
L 51.703125 0 
L 19.390625 60.984375 
L 19.390625 0 
L 9.8125 0 
z
" id="DejaVuSans-78"/>
      <path d="M 25.390625 72.90625 
L 33.6875 72.90625 
L 8.296875 -9.28125 
L 0 -9.28125 
z
" id="DejaVuSans-47"/>
      <path d="M 52 44.1875 
Q 55.375 50.25 60.0625 53.125 
Q 64.75 56 71.09375 56 
Q 79.640625 56 84.28125 50.015625 
Q 88.921875 44.046875 88.921875 33.015625 
L 88.921875 0 
L 79.890625 0 
L 79.890625 32.71875 
Q 79.890625 40.578125 77.09375 44.375 
Q 74.3125 48.1875 68.609375 48.1875 
Q 61.625 48.1875 57.5625 43.546875 
Q 53.515625 38.921875 53.515625 30.90625 
L 53.515625 0 
L 44.484375 0 
L 44.484375 32.71875 
Q 44.484375 40.625 41.703125 44.40625 
Q 38.921875 48.1875 33.109375 48.1875 
Q 26.21875 48.1875 22.15625 43.53125 
Q 18.109375 38.875 18.109375 30.90625 
L 18.109375 0 
L 9.078125 0 
L 9.078125 54.6875 
L 18.109375 54.6875 
L 18.109375 46.1875 
Q 21.1875 51.21875 25.484375 53.609375 
Q 29.78125 56 35.6875 56 
Q 41.65625 56 45.828125 52.96875 
Q 50 49.953125 52 44.1875 
z
" id="DejaVuSans-109"/>
      <path d="M 30.421875 75.984375 
L 30.421875 -13.1875 
L 9.71875 -13.1875 
L 9.71875 -6.203125 
L 21.390625 -6.203125 
L 21.390625 69 
L 9.71875 69 
L 9.71875 75.984375 
z
" id="DejaVuSans-93"/>
     </defs>
     <g transform="translate(217.47875 335.860562)scale(0.1 -0.1)">
      <use xlink:href="#DejaVuSans-107"/>
      <use x="57.910156" xlink:href="#DejaVuSans-32"/>
      <use x="89.697266" xlink:href="#DejaVuSans-91"/>
      <use x="128.710938" xlink:href="#DejaVuSans-78"/>
      <use x="203.515625" xlink:href="#DejaVuSans-47"/>
      <use x="237.207031" xlink:href="#DejaVuSans-109"/>
      <use x="334.619141" xlink:href="#DejaVuSans-93"/>
     </g>
    </g>
   </g>
   <g id="matplotlib.axis_2">
    <g id="ytick_1">
     <g id="line2d_8">
      <defs>
       <path d="M 0 0 
L -3.5 0 
" id="m2d61991463" style="stroke:#000000;stroke-width:0.8;"/>
      </defs>
      <g>
       <use style="stroke:#000000;stroke-width:0.8;" x="57.6" xlink:href="#m2d61991463" y="307.584"/>
      </g>
     </g>
     <g id="text_9">
      <!-- 0 -->
      <g transform="translate(44.2375 311.383219)scale(0.1 -0.1)">
       <use xlink:href="#DejaVuSans-48"/>
      </g>
     </g>
    </g>
    <g id="ytick_2">
     <g id="line2d_9">
      <g>
       <use style="stroke:#000000;stroke-width:0.8;" x="57.6" xlink:href="#m2d61991463" y="263.232"/>
      </g>
     </g>
     <g id="text_10">
      <!-- 2 -->
      <g transform="translate(44.2375 267.031219)scale(0.1 -0.1)">
       <use xlink:href="#DejaVuSans-50"/>
      </g>
     </g>
    </g>
    <g id="ytick_3">
     <g id="line2d_10">
      <g>
       <use style="stroke:#000000;stroke-width:0.8;" x="57.6" xlink:href="#m2d61991463" y="218.88"/>
      </g>
     </g>
     <g id="text_11">
      <!-- 4 -->
      <g transform="translate(44.2375 222.679219)scale(0.1 -0.1)">
       <use xlink:href="#DejaVuSans-52"/>
      </g>
     </g>
    </g>
    <g id="ytick_4">
     <g id="line2d_11">
      <g>
       <use style="stroke:#000000;stroke-width:0.8;" x="57.6" xlink:href="#m2d61991463" y="174.528"/>
      </g>
     </g>
     <g id="text_12">
      <!-- 6 -->
      <g transform="translate(44.2375 178.327219)scale(0.1 -0.1)">
       <use xlink:href="#DejaVuSans-54"/>
      </g>
     </g>
    </g>
    <g id="ytick_5">
     <g id="line2d_12">
      <g>
       <use style="stroke:#000000;stroke-width:0.8;" x="57.6" xlink:href="#m2d61991463" y="130.176"/>
      </g>
     </g>
     <g id="text_13">
      <!-- 8 -->
      <g transform="translate(44.2375 133.975219)scale(0.1 -0.1)">
       <use xlink:href="#DejaVuSans-56"/>
      </g>
     </g>
    </g>
    <g id="ytick_6">
     <g id="line2d_13">
      <g>
       <use style="stroke:#000000;stroke-width:0.8;" x="57.6" xlink:href="#m2d61991463" y="85.824"/>
      </g>
     </g>
     <g id="text_14">
      <!-- 10 -->
      <g transform="translate(37.875 89.623219)scale(0.1 -0.1)">
       <use xlink:href="#DejaVuSans-49"/>
       <use x="63.623047" xlink:href="#DejaVuSans-48"/>
      </g>
     </g>
    </g>
    <g id="ytick_7">
     <g id="line2d_14">
      <g>
       <use style="stroke:#000000;stroke-width:0.8;" x="57.6" xlink:href="#m2d61991463" y="41.472"/>
      </g>
     </g>
     <g id="text_15">
      <!-- 12 -->
      <g transform="translate(37.875 45.271219)scale(0.1 -0.1)">
       <use xlink:href="#DejaVuSans-49"/>
       <use x="63.623047" xlink:href="#DejaVuSans-50"/>
      </g>
     </g>
    </g>
    <g id="text_16">
     <!-- m [kg] -->
     <defs>
      <path d="M 45.40625 27.984375 
Q 45.40625 37.75 41.375 43.109375 
Q 37.359375 48.484375 30.078125 48.484375 
Q 22.859375 48.484375 18.828125 43.109375 
Q 14.796875 37.75 14.796875 27.984375 
Q 14.796875 18.265625 18.828125 12.890625 
Q 22.859375 7.515625 30.078125 7.515625 
Q 37.359375 7.515625 41.375 12.890625 
Q 45.40625 18.265625 45.40625 27.984375 
z
M 54.390625 6.78125 
Q 54.390625 -7.171875 48.1875 -13.984375 
Q 42 -20.796875 29.203125 -20.796875 
Q 24.46875 -20.796875 20.265625 -20.09375 
Q 16.0625 -19.390625 12.109375 -17.921875 
L 12.109375 -9.1875 
Q 16.0625 -11.328125 19.921875 -12.34375 
Q 23.78125 -13.375 27.78125 -13.375 
Q 36.625 -13.375 41.015625 -8.765625 
Q 45.40625 -4.15625 45.40625 5.171875 
L 45.40625 9.625 
Q 42.625 4.78125 38.28125 2.390625 
Q 33.9375 0 27.875 0 
Q 17.828125 0 11.671875 7.65625 
Q 5.515625 15.328125 5.515625 27.984375 
Q 5.515625 40.671875 11.671875 48.328125 
Q 17.828125 56 27.875 56 
Q 33.9375 56 38.28125 53.609375 
Q 42.625 51.21875 45.40625 46.390625 
L 45.40625 54.6875 
L 54.390625 54.6875 
z
" id="DejaVuSans-103"/>
     </defs>
     <g transform="translate(31.795312 190.958469)rotate(-90)scale(0.1 -0.1)">
      <use xlink:href="#DejaVuSans-109"/>
      <use x="97.412109" xlink:href="#DejaVuSans-32"/>
      <use x="129.199219" xlink:href="#DejaVuSans-91"/>
      <use x="168.212891" xlink:href="#DejaVuSans-107"/>
      <use x="226.123047" xlink:href="#DejaVuSans-103"/>
      <use x="289.599609" xlink:href="#DejaVuSans-93"/>
     </g>
    </g>
   </g>
   <g id="patch_5">
    <path d="M 57.6 307.584 
L 57.6 41.472 
" style="fill:none;stroke:#000000;stroke-linecap:square;stroke-linejoin:miter;stroke-width:0.8;"/>
   </g>
   <g id="patch_6">
    <path d="M 414.72 307.584 
L 414.72 41.472 
" style="fill:none;stroke:#000000;stroke-linecap:square;stroke-linejoin:miter;stroke-width:0.8;"/>
   </g>
   <g id="patch_7">
    <path d="M 57.6 307.584 
L 414.72 307.584 
" style="fill:none;stroke:#000000;stroke-linecap:square;stroke-linejoin:miter;stroke-width:0.8;"/>
   </g>
   <g id="patch_8">
    <path d="M 57.6 41.472 
L 414.72 41.472 
" style="fill:none;stroke:#000000;stroke-linecap:square;stroke-linejoin:miter;stroke-width:0.8;"/>
   </g>
   <g id="text_17">
    <!-- Divergence -->
    <defs>
     <path d="M 19.671875 64.796875 
L 19.671875 8.109375 
L 31.59375 8.109375 
Q 46.6875 8.109375 53.6875 14.9375 
Q 60.6875 21.78125 60.6875 36.53125 
Q 60.6875 51.171875 53.6875 57.984375 
Q 46.6875 64.796875 31.59375 64.796875 
z
M 9.8125 72.90625 
L 30.078125 72.90625 
Q 51.265625 72.90625 61.171875 64.09375 
Q 71.09375 55.28125 71.09375 36.53125 
Q 71.09375 17.671875 61.125 8.828125 
Q 51.171875 0 30.078125 0 
L 9.8125 0 
z
" id="DejaVuSans-68"/>
     <path d="M 9.421875 54.6875 
L 18.40625 54.6875 
L 18.40625 0 
L 9.421875 0 
z
M 9.421875 75.984375 
L 18.40625 75.984375 
L 18.40625 64.59375 
L 9.421875 64.59375 
z
" id="DejaVuSans-105"/>
     <path d="M 2.984375 54.6875 
L 12.5 54.6875 
L 29.59375 8.796875 
L 46.6875 54.6875 
L 56.203125 54.6875 
L 35.6875 0 
L 23.484375 0 
z
" id="DejaVuSans-118"/>
     <path d="M 56.203125 29.59375 
L 56.203125 25.203125 
L 14.890625 25.203125 
Q 15.484375 15.921875 20.484375 11.0625 
Q 25.484375 6.203125 34.421875 6.203125 
Q 39.59375 6.203125 44.453125 7.46875 
Q 49.3125 8.734375 54.109375 11.28125 
L 54.109375 2.78125 
Q 49.265625 0.734375 44.1875 -0.34375 
Q 39.109375 -1.421875 33.890625 -1.421875 
Q 20.796875 -1.421875 13.15625 6.1875 
Q 5.515625 13.8125 5.515625 26.8125 
Q 5.515625 40.234375 12.765625 48.109375 
Q 20.015625 56 32.328125 56 
Q 43.359375 56 49.78125 48.890625 
Q 56.203125 41.796875 56.203125 29.59375 
z
M 47.21875 32.234375 
Q 47.125 39.59375 43.09375 43.984375 
Q 39.0625 48.390625 32.421875 48.390625 
Q 24.90625 48.390625 20.390625 44.140625 
Q 15.875 39.890625 15.1875 32.171875 
z
" id="DejaVuSans-101"/>
     <path d="M 41.109375 46.296875 
Q 39.59375 47.171875 37.8125 47.578125 
Q 36.03125 48 33.890625 48 
Q 26.265625 48 22.1875 43.046875 
Q 18.109375 38.09375 18.109375 28.8125 
L 18.109375 0 
L 9.078125 0 
L 9.078125 54.6875 
L 18.109375 54.6875 
L 18.109375 46.1875 
Q 20.953125 51.171875 25.484375 53.578125 
Q 30.03125 56 36.53125 56 
Q 37.453125 56 38.578125 55.875 
Q 39.703125 55.765625 41.0625 55.515625 
z
" id="DejaVuSans-114"/>
     <path d="M 54.890625 33.015625 
L 54.890625 0 
L 45.90625 0 
L 45.90625 32.71875 
Q 45.90625 40.484375 42.875 44.328125 
Q 39.84375 48.1875 33.796875 48.1875 
Q 26.515625 48.1875 22.3125 43.546875 
Q 18.109375 38.921875 18.109375 30.90625 
L 18.109375 0 
L 9.078125 0 
L 9.078125 54.6875 
L 18.109375 54.6875 
L 18.109375 46.1875 
Q 21.34375 51.125 25.703125 53.5625 
Q 30.078125 56 35.796875 56 
Q 45.21875 56 50.046875 50.171875 
Q 54.890625 44.34375 54.890625 33.015625 
z
" id="DejaVuSans-110"/>
     <path d="M 48.78125 52.59375 
L 48.78125 44.1875 
Q 44.96875 46.296875 41.140625 47.34375 
Q 37.3125 48.390625 33.40625 48.390625 
Q 24.65625 48.390625 19.8125 42.84375 
Q 14.984375 37.3125 14.984375 27.296875 
Q 14.984375 17.28125 19.8125 11.734375 
Q 24.65625 6.203125 33.40625 6.203125 
Q 37.3125 6.203125 41.140625 7.25 
Q 44.96875 8.296875 48.78125 10.40625 
L 48.78125 2.09375 
Q 45.015625 0.34375 40.984375 -0.53125 
Q 36.96875 -1.421875 32.421875 -1.421875 
Q 20.0625 -1.421875 12.78125 6.34375 
Q 5.515625 14.109375 5.515625 27.296875 
Q 5.515625 40.671875 12.859375 48.328125 
Q 20.21875 56 33.015625 56 
Q 37.15625 56 41.109375 55.140625 
Q 45.0625 54.296875 48.78125 52.59375 
z
" id="DejaVuSans-99"/>
    </defs>
    <g transform="translate(117.12 72.5184)scale(0.1 -0.1)">
     <use xlink:href="#DejaVuSans-68"/>
     <use x="77.001953" xlink:href="#DejaVuSans-105"/>
     <use x="104.785156" xlink:href="#DejaVuSans-118"/>
     <use x="163.964844" xlink:href="#DejaVuSans-101"/>
     <use x="225.488281" xlink:href="#DejaVuSans-114"/>
     <use x="266.585938" xlink:href="#DejaVuSans-103"/>
     <use x="330.0625" xlink:href="#DejaVuSans-101"/>
     <use x="391.585938" xlink:href="#DejaVuSans-110"/>
     <use x="454.964844" xlink:href="#DejaVuSans-99"/>
     <use x="509.945312" xlink:href="#DejaVuSans-101"/>
    </g>
   </g>
   <g id="legend_1">
    <g id="patch_9">
     <path d="M 292.537188 302.584 
L 407.72 302.584 
Q 409.72 302.584 409.72 300.584 
L 409.72 272.22775 
Q 409.72 270.22775 407.72 270.22775 
L 292.537188 270.22775 
Q 290.537188 270.22775 290.537188 272.22775 
L 290.537188 300.584 
Q 290.537188 302.584 292.537188 302.584 
z
" style="fill:#ffffff;opacity:0.8;stroke:#cccccc;stroke-linejoin:miter;"/>
    </g>
    <g id="PathCollection_5">
     <g>
      <use style="fill:#1f77b4;stroke:#1f77b4;stroke-width:1.5;" x="304.537188" xlink:href="#m16dba7a82b" y="279.201187"/>
     </g>
    </g>
    <g id="text_18">
     <!-- Real parameters -->
     <defs>
      <path d="M 44.390625 34.1875 
Q 47.5625 33.109375 50.5625 29.59375 
Q 53.5625 26.078125 56.59375 19.921875 
L 66.609375 0 
L 56 0 
L 46.6875 18.703125 
Q 43.0625 26.03125 39.671875 28.421875 
Q 36.28125 30.8125 30.421875 30.8125 
L 19.671875 30.8125 
L 19.671875 0 
L 9.8125 0 
L 9.8125 72.90625 
L 32.078125 72.90625 
Q 44.578125 72.90625 50.734375 67.671875 
Q 56.890625 62.453125 56.890625 51.90625 
Q 56.890625 45.015625 53.6875 40.46875 
Q 50.484375 35.9375 44.390625 34.1875 
z
M 19.671875 64.796875 
L 19.671875 38.921875 
L 32.078125 38.921875 
Q 39.203125 38.921875 42.84375 42.21875 
Q 46.484375 45.515625 46.484375 51.90625 
Q 46.484375 58.296875 42.84375 61.546875 
Q 39.203125 64.796875 32.078125 64.796875 
z
" id="DejaVuSans-82"/>
      <path d="M 34.28125 27.484375 
Q 23.390625 27.484375 19.1875 25 
Q 14.984375 22.515625 14.984375 16.5 
Q 14.984375 11.71875 18.140625 8.90625 
Q 21.296875 6.109375 26.703125 6.109375 
Q 34.1875 6.109375 38.703125 11.40625 
Q 43.21875 16.703125 43.21875 25.484375 
L 43.21875 27.484375 
z
M 52.203125 31.203125 
L 52.203125 0 
L 43.21875 0 
L 43.21875 8.296875 
Q 40.140625 3.328125 35.546875 0.953125 
Q 30.953125 -1.421875 24.3125 -1.421875 
Q 15.921875 -1.421875 10.953125 3.296875 
Q 6 8.015625 6 15.921875 
Q 6 25.140625 12.171875 29.828125 
Q 18.359375 34.515625 30.609375 34.515625 
L 43.21875 34.515625 
L 43.21875 35.40625 
Q 43.21875 41.609375 39.140625 45 
Q 35.0625 48.390625 27.6875 48.390625 
Q 23 48.390625 18.546875 47.265625 
Q 14.109375 46.140625 10.015625 43.890625 
L 10.015625 52.203125 
Q 14.9375 54.109375 19.578125 55.046875 
Q 24.21875 56 28.609375 56 
Q 40.484375 56 46.34375 49.84375 
Q 52.203125 43.703125 52.203125 31.203125 
z
" id="DejaVuSans-97"/>
      <path d="M 9.421875 75.984375 
L 18.40625 75.984375 
L 18.40625 0 
L 9.421875 0 
z
" id="DejaVuSans-108"/>
      <path d="M 18.109375 8.203125 
L 18.109375 -20.796875 
L 9.078125 -20.796875 
L 9.078125 54.6875 
L 18.109375 54.6875 
L 18.109375 46.390625 
Q 20.953125 51.265625 25.265625 53.625 
Q 29.59375 56 35.59375 56 
Q 45.5625 56 51.78125 48.09375 
Q 58.015625 40.1875 58.015625 27.296875 
Q 58.015625 14.40625 51.78125 6.484375 
Q 45.5625 -1.421875 35.59375 -1.421875 
Q 29.59375 -1.421875 25.265625 0.953125 
Q 20.953125 3.328125 18.109375 8.203125 
z
M 48.6875 27.296875 
Q 48.6875 37.203125 44.609375 42.84375 
Q 40.53125 48.484375 33.40625 48.484375 
Q 26.265625 48.484375 22.1875 42.84375 
Q 18.109375 37.203125 18.109375 27.296875 
Q 18.109375 17.390625 22.1875 11.75 
Q 26.265625 6.109375 33.40625 6.109375 
Q 40.53125 6.109375 44.609375 11.75 
Q 48.6875 17.390625 48.6875 27.296875 
z
" id="DejaVuSans-112"/>
      <path d="M 18.3125 70.21875 
L 18.3125 54.6875 
L 36.8125 54.6875 
L 36.8125 47.703125 
L 18.3125 47.703125 
L 18.3125 18.015625 
Q 18.3125 11.328125 20.140625 9.421875 
Q 21.96875 7.515625 27.59375 7.515625 
L 36.8125 7.515625 
L 36.8125 0 
L 27.59375 0 
Q 17.1875 0 13.234375 3.875 
Q 9.28125 7.765625 9.28125 18.015625 
L 9.28125 47.703125 
L 2.6875 47.703125 
L 2.6875 54.6875 
L 9.28125 54.6875 
L 9.28125 70.21875 
z
" id="DejaVuSans-116"/>
      <path d="M 44.28125 53.078125 
L 44.28125 44.578125 
Q 40.484375 46.53125 36.375 47.5 
Q 32.28125 48.484375 27.875 48.484375 
Q 21.1875 48.484375 17.84375 46.4375 
Q 14.5 44.390625 14.5 40.28125 
Q 14.5 37.15625 16.890625 35.375 
Q 19.28125 33.59375 26.515625 31.984375 
L 29.59375 31.296875 
Q 39.15625 29.25 43.1875 25.515625 
Q 47.21875 21.78125 47.21875 15.09375 
Q 47.21875 7.46875 41.1875 3.015625 
Q 35.15625 -1.421875 24.609375 -1.421875 
Q 20.21875 -1.421875 15.453125 -0.5625 
Q 10.6875 0.296875 5.421875 2 
L 5.421875 11.28125 
Q 10.40625 8.6875 15.234375 7.390625 
Q 20.0625 6.109375 24.8125 6.109375 
Q 31.15625 6.109375 34.5625 8.28125 
Q 37.984375 10.453125 37.984375 14.40625 
Q 37.984375 18.0625 35.515625 20.015625 
Q 33.0625 21.96875 24.703125 23.78125 
L 21.578125 24.515625 
Q 13.234375 26.265625 9.515625 29.90625 
Q 5.8125 33.546875 5.8125 39.890625 
Q 5.8125 47.609375 11.28125 51.796875 
Q 16.75 56 26.8125 56 
Q 31.78125 56 36.171875 55.265625 
Q 40.578125 54.546875 44.28125 53.078125 
z
" id="DejaVuSans-115"/>
     </defs>
     <g transform="translate(322.537188 281.826187)scale(0.1 -0.1)">
      <use xlink:href="#DejaVuSans-82"/>
      <use x="69.419922" xlink:href="#DejaVuSans-101"/>
      <use x="130.943359" xlink:href="#DejaVuSans-97"/>
      <use x="192.222656" xlink:href="#DejaVuSans-108"/>
      <use x="220.005859" xlink:href="#DejaVuSans-32"/>
      <use x="251.792969" xlink:href="#DejaVuSans-112"/>
      <use x="315.269531" xlink:href="#DejaVuSans-97"/>
      <use x="376.548828" xlink:href="#DejaVuSans-114"/>
      <use x="417.662109" xlink:href="#DejaVuSans-97"/>
      <use x="478.941406" xlink:href="#DejaVuSans-109"/>
      <use x="576.353516" xlink:href="#DejaVuSans-101"/>
      <use x="637.876953" xlink:href="#DejaVuSans-116"/>
      <use x="677.085938" xlink:href="#DejaVuSans-101"/>
      <use x="738.609375" xlink:href="#DejaVuSans-114"/>
      <use x="779.722656" xlink:href="#DejaVuSans-115"/>
     </g>
    </g>
    <g id="PathCollection_6">
     <g>
      <use style="stroke:#000000;" x="304.537188" xlink:href="#mfde8d66b17" y="293.879312"/>
     </g>
    </g>
    <g id="text_19">
     <!-- Initial guess -->
     <defs>
      <path d="M 9.8125 72.90625 
L 19.671875 72.90625 
L 19.671875 0 
L 9.8125 0 
z
" id="DejaVuSans-73"/>
      <path d="M 8.5 21.578125 
L 8.5 54.6875 
L 17.484375 54.6875 
L 17.484375 21.921875 
Q 17.484375 14.15625 20.5 10.265625 
Q 23.53125 6.390625 29.59375 6.390625 
Q 36.859375 6.390625 41.078125 11.03125 
Q 45.3125 15.671875 45.3125 23.6875 
L 45.3125 54.6875 
L 54.296875 54.6875 
L 54.296875 0 
L 45.3125 0 
L 45.3125 8.40625 
Q 42.046875 3.421875 37.71875 1 
Q 33.40625 -1.421875 27.6875 -1.421875 
Q 18.265625 -1.421875 13.375 4.4375 
Q 8.5 10.296875 8.5 21.578125 
z
M 31.109375 56 
z
" id="DejaVuSans-117"/>
     </defs>
     <g transform="translate(322.537188 296.504312)scale(0.1 -0.1)">
      <use xlink:href="#DejaVuSans-73"/>
      <use x="29.492188" xlink:href="#DejaVuSans-110"/>
      <use x="92.871094" xlink:href="#DejaVuSans-105"/>
      <use x="120.654297" xlink:href="#DejaVuSans-116"/>
      <use x="159.863281" xlink:href="#DejaVuSans-105"/>
      <use x="187.646484" xlink:href="#DejaVuSans-97"/>
      <use x="248.925781" xlink:href="#DejaVuSans-108"/>
      <use x="276.708984" xlink:href="#DejaVuSans-32"/>
      <use x="308.496094" xlink:href="#DejaVuSans-103"/>
      <use x="371.972656" xlink:href="#DejaVuSans-117"/>
      <use x="435.351562" xlink:href="#DejaVuSans-101"/>
      <use x="496.875" xlink:href="#DejaVuSans-115"/>
      <use x="548.974609" xlink:href="#DejaVuSans-115"/>
     </g>
    </g>
   </g>
  </g>
 </g>
 <defs>
  <clipPath id="p12fa1c00b9">
   <rect height="266.112" width="357.12" x="57.6" y="41.472"/>
  </clipPath>
 </defs>
</svg>
