<?xml version="1.0" encoding="UTF-8" standalone="no"?>
<!-- Created with Inkscape (http://www.inkscape.org/) -->

<svg
   xmlns:dc="http://purl.org/dc/elements/1.1/"
   xmlns:cc="http://creativecommons.org/ns#"
   xmlns:rdf="http://www.w3.org/1999/02/22-rdf-syntax-ns#"
   xmlns:svg="http://www.w3.org/2000/svg"
   xmlns="http://www.w3.org/2000/svg"
   xmlns:sodipodi="http://sodipodi.sourceforge.net/DTD/sodipodi-0.dtd"
   xmlns:inkscape="http://www.inkscape.org/namespaces/inkscape"
   version="1.1"
   id="svg40"
   xml:space="preserve"
   width="578.45374"
   height="571.86871"
   viewBox="0 0 578.45373 571.8687"
   sodipodi:docname="EUrank2019.svg"
   inkscape:version="0.92.3 (2405546, 2018-03-11)"><metadata
     id="metadata46"><rdf:RDF><cc:Work
         rdf:about=""><dc:format>image/svg+xml</dc:format><dc:type
           rdf:resource="http://purl.org/dc/dcmitype/StillImage" /><dc:title></dc:title></cc:Work></rdf:RDF></metadata><defs
     id="defs44"><clipPath
       clipPathUnits="userSpaceOnUse"
       id="clipPath280"><path
         d="M 80.276,174.964 H 514.999 V 606.331 H 80.276 Z"
         id="path278"
         inkscape:connector-curvature="0" /></clipPath><clipPath
       clipPathUnits="userSpaceOnUse"
       id="clipPath358"><path
         d="M 80.276,174.964 H 514.999 V 606.331 H 80.276 Z"
         id="path356"
         inkscape:connector-curvature="0" /></clipPath><clipPath
       clipPathUnits="userSpaceOnUse"
       id="clipPath408"><path
         d="M 80.276,174.964 H 514.999 V 606.331 H 80.276 Z"
         id="path406"
         inkscape:connector-curvature="0" /></clipPath><clipPath
       clipPathUnits="userSpaceOnUse"
       id="clipPath444"><path
         d="M 80.276,174.964 H 514.999 V 606.331 H 80.276 Z"
         id="path442"
         inkscape:connector-curvature="0" /></clipPath></defs><sodipodi:namedview
     pagecolor="#ffffff"
     bordercolor="#666666"
     borderopacity="1"
     objecttolerance="10"
     gridtolerance="10"
     guidetolerance="10"
     inkscape:pageopacity="0"
     inkscape:pageshadow="2"
     inkscape:window-width="1366"
     inkscape:window-height="713"
     id="namedview42"
     showgrid="false"
     fit-margin-top="0"
     fit-margin-left="0"
     fit-margin-right="0"
     fit-margin-bottom="0"
     inkscape:zoom="1.189304"
     inkscape:cx="366.68819"
     inkscape:cy="483.58923"
     inkscape:window-x="0"
     inkscape:window-y="27"
     inkscape:window-maximized="1"
     inkscape:current-layer="g48" /><g
     id="g48"
     inkscape:groupmode="layer"
     inkscape:label="WindEurope-Annual-Statistics-2019"
     transform="matrix(1.3333333,0,0,-1.3333333,893.01918,967.78195)"><g
       id="g574"
       transform="translate(-750.9231,119.50558)"><g
         transform="translate(203.5154,606.3309)"
         id="g198"><path
           inkscape:connector-curvature="0"
           id="path200"
           style="fill:none;stroke:#918f90;stroke-width:0.33000001;stroke-linecap:butt;stroke-linejoin:round;stroke-miterlimit:10;stroke-dasharray:none;stroke-opacity:1"
           d="M 0,0 V -395.848 M 60.632,0 V -395.848 M 121.265,0 V -395.848 M 182.646,0 V -395.848 M 243.278,0 V -395.848 M 303.91,0 v -395.848" /></g><path
         inkscape:connector-curvature="0"
         id="path202"
         style="fill:#275aa2;fill-opacity:1;fill-rule:nonzero;stroke:none"
         d="M 343.12,559.509 H 142.509 v 5.535 H 343.12 Z" /><path
         inkscape:connector-curvature="0"
         id="path204"
         style="fill:#275aa2;fill-opacity:1;fill-rule:nonzero;stroke:none"
         d="M 308.687,546.713 H 142.509 v 5.535 h 166.178 z" /><path
         inkscape:connector-curvature="0"
         id="path206"
         style="fill:#275aa2;fill-opacity:1;fill-rule:nonzero;stroke:none"
         d="M 272.756,508.328 H 142.508 v 5.535 h 130.248 z" /><path
         inkscape:connector-curvature="0"
         id="path208"
         style="fill:#275aa2;fill-opacity:1;fill-rule:nonzero;stroke:none"
         d="m 230.837,495.532 h -88.329 v 5.535 h 88.329 z" /><path
         inkscape:connector-curvature="0"
         id="path210"
         style="fill:#275aa2;fill-opacity:1;fill-rule:nonzero;stroke:none"
         d="m 221.106,482.761 h -78.598 v 5.488 h 78.598 z" /><path
         inkscape:connector-curvature="0"
         id="path212"
         style="fill:#275aa2;fill-opacity:1;fill-rule:nonzero;stroke:none"
         d="m 215.118,469.942 h -72.609 v 5.535 h 72.609 z" /><path
         inkscape:connector-curvature="0"
         id="path214"
         style="fill:#275aa2;fill-opacity:1;fill-rule:nonzero;stroke:none"
         d="m 212.873,457.147 h -70.364 v 5.535 h 70.364 z" /><path
         inkscape:connector-curvature="0"
         id="path216"
         style="fill:#275aa2;fill-opacity:1;fill-rule:nonzero;stroke:none"
         d="m 210.626,431.556 h -68.118 v 5.535 h 68.118 z" /><path
         inkscape:connector-curvature="0"
         id="path218"
         style="fill:#275aa2;fill-opacity:1;fill-rule:nonzero;stroke:none"
         d="m 196.404,405.99 h -53.896 v 5.487 h 53.896 z" /><path
         inkscape:connector-curvature="0"
         id="path220"
         style="fill:#275aa2;fill-opacity:1;fill-rule:nonzero;stroke:none"
         d="m 195.656,393.195 h -53.147 v 5.487 h 53.147 z" /><path
         inkscape:connector-curvature="0"
         id="path222"
         style="fill:#275aa2;fill-opacity:1;fill-rule:nonzero;stroke:none"
         d="m 194.159,380.376 h -51.65 v 5.535 h 51.65 z" /><path
         inkscape:connector-curvature="0"
         id="path224"
         style="fill:#275aa2;fill-opacity:1;fill-rule:nonzero;stroke:none"
         d="m 187.422,367.604 h -44.913 v 5.488 h 44.913 z" /><path
         inkscape:connector-curvature="0"
         id="path226"
         style="fill:#275aa2;fill-opacity:1;fill-rule:nonzero;stroke:none"
         d="m 185.924,354.809 h -43.416 v 5.487 h 43.416 z" /><path
         inkscape:connector-curvature="0"
         id="path228"
         style="fill:#275aa2;fill-opacity:1;fill-rule:nonzero;stroke:none"
         d="m 185.924,342.013 h -43.416 v 5.488 h 43.416 z" /><path
         inkscape:connector-curvature="0"
         id="path230"
         style="fill:#275aa2;fill-opacity:1;fill-rule:nonzero;stroke:none"
         d="m 184.427,329.195 h -41.918 v 5.535 h 41.918 z" /><path
         inkscape:connector-curvature="0"
         id="path232"
         style="fill:#275aa2;fill-opacity:1;fill-rule:nonzero;stroke:none"
         d="m 176.942,316.424 h -34.433 v 5.488 h 34.433 z" /><path
         inkscape:connector-curvature="0"
         id="path234"
         style="fill:#275aa2;fill-opacity:1;fill-rule:nonzero;stroke:none"
         d="m 166.462,303.629 h -23.954 v 5.487 h 23.954 z" /><path
         inkscape:connector-curvature="0"
         id="path236"
         style="fill:#275aa2;fill-opacity:1;fill-rule:nonzero;stroke:none"
         d="m 162.72,290.809 h -20.211 v 5.535 h 20.211 z" /><path
         inkscape:connector-curvature="0"
         id="path238"
         style="fill:#275aa2;fill-opacity:1;fill-rule:nonzero;stroke:none"
         d="m 153.737,278.038 h -11.228 v 5.488 h 11.228 z" /><path
         inkscape:connector-curvature="0"
         id="path240"
         style="fill:#275aa2;fill-opacity:1;fill-rule:nonzero;stroke:none"
         d="m 152.24,265.243 h -9.731 v 5.488 h 9.731 z" /><path
         inkscape:connector-curvature="0"
         id="path242"
         style="fill:#275aa2;fill-opacity:1;fill-rule:nonzero;stroke:none"
         d="m 148.497,252.424 h -5.988 v 5.535 h 5.988 z" /><path
         inkscape:connector-curvature="0"
         id="path244"
         style="fill:#275aa2;fill-opacity:1;fill-rule:nonzero;stroke:none"
         d="m 142.508,239.653 h 0.749 v 5.487 h -0.749 z" /><path
         inkscape:connector-curvature="0"
         id="path246"
         style="fill:#275aa2;fill-opacity:1;fill-rule:nonzero;stroke:none"
         d="m 142.508,226.858 h 0.749 v 5.488 h -0.749 z" /><path
         inkscape:connector-curvature="0"
         id="path248"
         style="fill:#275aa2;fill-opacity:1;fill-rule:nonzero;stroke:none"
         d="m 142.508,213.606 h 0.749 v 6.402 h -0.749 z" /><path
         inkscape:connector-curvature="0"
         id="path250"
         style="fill:#275aa2;fill-opacity:1;fill-rule:nonzero;stroke:none"
         d="m 216.615,596.75 h -74.106 v 5.535 h 74.106 z" /><path
         inkscape:connector-curvature="0"
         id="path252"
         style="fill:#77beea;fill-opacity:1;fill-rule:nonzero;stroke:none"
         d="m 230.837,596.773 h -14.222 v 5.488 h 14.222 z" /><path
         inkscape:connector-curvature="0"
         id="path254"
         style="fill:#275aa2;fill-opacity:1;fill-rule:nonzero;stroke:none"
         d="M 331.892,572.303 H 142.509 v 5.535 h 189.383 z" /><path
         inkscape:connector-curvature="0"
         id="path256"
         style="fill:#77beea;fill-opacity:1;fill-rule:nonzero;stroke:none"
         d="M 435.939,572.327 H 331.891 v 5.488 h 104.048 z" /><path
         inkscape:connector-curvature="0"
         id="path258"
         style="fill:#275aa2;fill-opacity:1;fill-rule:nonzero;stroke:none"
         d="M 269.014,533.918 H 142.509 v 5.535 h 126.505 z" /><path
         inkscape:connector-curvature="0"
         id="path260"
         style="fill:#77beea;fill-opacity:1;fill-rule:nonzero;stroke:none"
         d="m 299.704,533.942 h -30.69 v 5.488 h 30.69 z" /><path
         inkscape:connector-curvature="0"
         id="path262"
         style="fill:#275aa2;fill-opacity:1;fill-rule:nonzero;stroke:none"
         d="m 214.37,521.123 h -71.861 v 5.535 h 71.861 z" /><path
         inkscape:connector-curvature="0"
         id="path264"
         style="fill:#77beea;fill-opacity:1;fill-rule:nonzero;stroke:none"
         d="M 276.499,521.146 H 214.37 v 5.488 h 62.129 z" /><path
         inkscape:connector-curvature="0"
         id="path266"
         style="fill:#275aa2;fill-opacity:1;fill-rule:nonzero;stroke:none"
         d="m 192.662,444.351 h -50.153 v 5.535 h 50.153 z" /><path
         inkscape:connector-curvature="0"
         id="path268"
         style="fill:#77beea;fill-opacity:1;fill-rule:nonzero;stroke:none"
         d="m 212.873,444.351 h -20.211 v 5.535 h 20.211 z" /><path
         inkscape:connector-curvature="0"
         id="path270"
         style="fill:#275aa2;fill-opacity:1;fill-rule:nonzero;stroke:none"
         d="m 167.211,418.785 h -24.702 v 5.488 h 24.702 z" /><path
         inkscape:connector-curvature="0"
         id="path272"
         style="fill:#77beea;fill-opacity:1;fill-rule:nonzero;stroke:none"
         d="m 201.644,418.785 h -34.433 v 5.488 h 34.433 z" /><g
         id="g274"><g
           clip-path="url(#clipPath280)"
           id="g276"><g
             transform="translate(142.5088,606.3309)"
             id="g282"><path
               inkscape:connector-curvature="0"
               id="path284"
               style="fill:none;stroke:#4f4c4d;stroke-width:0.5;stroke-linecap:butt;stroke-linejoin:round;stroke-miterlimit:10;stroke-dasharray:none;stroke-opacity:1"
               d="M 0,0 V -395.848 H 372.031" /></g></g></g><text
         id="text346"
         style="font-variant:normal;font-weight:normal;font-stretch:normal;font-size:8px;font-family:Nexa;-inkscape-font-specification:Nexa;writing-mode:lr-tb;fill:#4f4c4d;fill-opacity:1;fill-rule:nonzero;stroke:none"
         transform="matrix(1,0,0,-1,147.5029,214.1387)"><tspan
           id="tspan286"
           sodipodi:role="line"
           y="0"
           x="0 5.52">0%</tspan><tspan
           id="tspan288"
           sodipodi:role="line"
           y="-12.784"
           x="0 5.52">0%</tspan><tspan
           id="tspan290"
           sodipodi:role="line"
           y="-25.568001"
           x="0 5.52">0%</tspan><tspan
           id="tspan292"
           sodipodi:role="line"
           y="-38.352001"
           x="5.4959998 8.8719997">1%</tspan><tspan
           id="tspan294"
           sodipodi:role="line"
           y="-51.136002"
           x="10.496 15.896">2%</tspan><tspan
           id="tspan296"
           sodipodi:role="line"
           y="-63.919998"
           x="10.496 15.896">2%</tspan><tspan
           id="tspan298"
           sodipodi:role="line"
           y="-76.704002"
           x="21.695999 27.072001">3%</tspan><tspan
           id="tspan300"
           sodipodi:role="line"
           y="-89.487999"
           x="25.695999 30.976">4%</tspan><tspan
           id="tspan302"
           sodipodi:role="line"
           y="-102.272"
           x="34.695999 40.240002">6%</tspan><tspan
           id="tspan304"
           sodipodi:role="line"
           y="-115.056"
           x="42.695999 47.192001">7%</tspan><tspan
           id="tspan306"
           sodipodi:role="line"
           y="-127.832"
           x="43.695999 48.192001">7%</tspan><tspan
           id="tspan308"
           sodipodi:role="line"
           y="-140.616"
           x="43.695999 48.192001">7%</tspan><tspan
           id="tspan310"
           sodipodi:role="line"
           y="-153.39999"
           x="43.695999 48.192001">7%</tspan><tspan
           id="tspan312"
           sodipodi:role="line"
           y="-166.18401"
           x="57.136002 62.759998">8%</tspan><tspan
           id="tspan314"
           sodipodi:role="line"
           y="-178.968"
           x="58.264 63.784">9%</tspan><tspan
           id="tspan316"
           sodipodi:role="line"
           y="-191.744"
           x="58.264 63.784">9%</tspan><tspan
           id="tspan318"
           sodipodi:role="line"
           y="-204.528"
           x="60.695999 64.071999 69.592003">10%</tspan><tspan
           id="tspan320"
           sodipodi:role="line"
           y="-217.312"
           x="69.120003 72.496002 75.872002">11%</tspan><tspan
           id="tspan322"
           sodipodi:role="line"
           y="-230.09599"
           x="75.120003 78.496002 83.896004">12%</tspan><tspan
           id="tspan324"
           sodipodi:role="line"
           y="-242.87199"
           x="75.120003 78.496002 83.896004">12%</tspan><tspan
           id="tspan326"
           sodipodi:role="line"
           y="-255.65601"
           x="75.120003 78.496002 83.896004">12%</tspan><tspan
           id="tspan328"
           sodipodi:role="line"
           y="-268.44"
           x="80.695999 84.071999 89.447998">13%</tspan><tspan
           id="tspan330"
           sodipodi:role="line"
           y="-281.224"
           x="91.704002 95.080002 100.344">15%</tspan><tspan
           id="tspan332"
           sodipodi:role="line"
           y="-294.008"
           x="132.43201 137.832 141.20799">21%</tspan><tspan
           id="tspan334"
           sodipodi:role="line"
           y="-306.79199"
           x="136.43201 141.832 147.23199">22%</tspan><tspan
           id="tspan336"
           sodipodi:role="line"
           y="-319.57599"
           x="159.864 165.26401 170.808">26%</tspan><tspan
           id="tspan338"
           sodipodi:role="line"
           y="-332.35999"
           x="179.032 184.43201 188.92799">27%</tspan><tspan
           id="tspan340"
           sodipodi:role="line"
           y="-345.14401"
           x="206.09599 211.472 216.84801">33%</tspan><tspan
           id="tspan342"
           sodipodi:role="line"
           y="-357.92801"
           x="303.23199 308.51199 314.13599">48%</tspan><tspan
           id="tspan344"
           sodipodi:role="line"
           y="-382.92001"
           x="92.711998 96.087997 101.352">15%</tspan></text>
<text
         id="text350"
         style="font-variant:normal;font-weight:normal;font-stretch:normal;font-size:9px;font-family:Nexa;-inkscape-font-specification:Nexa;writing-mode:lr-tb;fill:#4f4c4d;fill-opacity:1;fill-rule:nonzero;stroke:none"
         transform="matrix(1,0,0,-1,136.3003,198.2568)"><tspan
           id="tspan348"
           sodipodi:role="line"
           y="0"
           x="0 6.21 58.544998 62.342999 68.553001 117.855 123.93 130.14 178.317 184.36501 190.575 238.815 244.755 250.965 299.26801 305.19 311.39999">0%10%20%30%40%50%</tspan></text>
<g
         id="g352"><g
           clip-path="url(#clipPath358)"
           id="g354"><text
             id="text362"
             style="font-variant:normal;font-weight:normal;font-stretch:normal;font-size:9px;font-family:Nexa;-inkscape-font-specification:Nexa;writing-mode:lr-tb;fill:#4f4c4d;fill-opacity:1;fill-rule:nonzero;stroke:none"
             transform="matrix(1,0,0,-1,495.8585,198.2568)"><tspan
               id="tspan360"
               sodipodi:role="line"
               y="0"
               x="0 6.237 12.447">60%</tspan></text>
</g></g><text
         id="text400"
         style="font-variant:normal;font-weight:normal;font-stretch:normal;font-size:9px;font-family:Nexa;-inkscape-font-specification:Nexa;writing-mode:lr-tb;fill:#4f4c4d;fill-opacity:1;fill-rule:nonzero;stroke:none"
         transform="matrix(1,0,0,-1,97.4834,214.1418)"><tspan
           id="tspan364"
           sodipodi:role="line"
           y="0"
           x="0 5.9759998 8.1719999 13.572 18.629999 24.372 28.836 30.933001">Slovakia</tspan><tspan
           id="tspan366"
           sodipodi:role="line"
           y="-12.78"
           x="-0.54000002 5.4359999 7.632 13.032 18.09 23.364 28.836 30.933001">Slovenia</tspan><tspan
           id="tspan368"
           sodipodi:role="line"
           y="-25.559999"
           x="-15.039 -9.0629997 -1.503 0.59399998 4.1669998 8.4060001 13.68 17.532 19.728001 25.469999 30.941999">Switzerland</tspan><tspan
           id="tspan370"
           sodipodi:role="line"
           y="-38.34"
           x="2.862 9.2519999 13.491 18.764999 23.417999 28.836 30.933001">Czechia</tspan><tspan
           id="tspan372"
           sodipodi:role="line"
           y="-51.119999"
           x="-1.071 5.7690001 11.133 16.605 22.113001 27.855 31.707001">Hungary</tspan><tspan
           id="tspan374"
           sodipodi:role="line"
           y="-63.900002"
           x="9.243 14.463 20.205 23.778 28.836 30.933001">Latvia</tspan><tspan
           id="tspan376"
           sodipodi:role="line"
           y="-76.68"
           x="-0.189 6.1739998 11.538 13.734 19.242001 24.983999 28.836 30.933001">Bulgaria</tspan><tspan
           id="tspan378"
           sodipodi:role="line"
           y="-89.459999"
           x="2.2950001 9.1529999 14.553 18.405001 25.965 31.707001">Norway</tspan><tspan
           id="tspan380"
           sodipodi:role="line"
           y="-102.24"
           x="5.868 12.258 17.226 22.968 26.82 32.183998">Cyprus</tspan><tspan
           id="tspan382"
           sodipodi:role="line"
           y="-115.02"
           x="4.329 9.9630003 12.06 17.532 19.728001 25.469999 30.941999">Finland</tspan><tspan
           id="tspan384"
           sodipodi:role="line"
           y="-127.8"
           x="6.0479999 11.682 15.534 21.275999 26.747999 31.400999">France</tspan><tspan
           id="tspan386"
           sodipodi:role="line"
           y="-140.58"
           x="17.73 20.195999 23.768999 29.511 31.707001">Italy</tspan><tspan
           id="tspan388"
           sodipodi:role="line"
           y="-153.36"
           x="7.362 12.753 18.117001 21.969 26.433001 31.707001">Turkey</tspan><tspan
           id="tspan390"
           sodipodi:role="line"
           y="-166.14"
           x="3.8789999 10.269 14.121 19.521 25.263 28.836 30.933001">Croatia</tspan><tspan
           id="tspan392"
           sodipodi:role="line"
           y="-178.92"
           x="5.9759998 12.132 17.532 19.728001 25.469999 30.941999">Poland</tspan><tspan
           id="tspan394"
           sodipodi:role="line"
           y="-191.7"
           x="4.0320001 9.8999996 14.391 17.964001 23.364 28.836 30.933001">Estonia</tspan><tspan
           id="tspan396"
           sodipodi:role="line"
           y="-204.48"
           x="1.584 7.947 13.221 15.417 20.924999 23.021999 28.386">Belgium</tspan><tspan
           id="tspan398"
           sodipodi:role="line"
           y="-217.25999"
           x="-2.484 3.9330001 9.3330002 17.622 23.364 28.836 30.933001">Romania</tspan></text>
<g
         id="g402"><g
           clip-path="url(#clipPath408)"
           id="g404"><text
             id="text412"
             style="font-variant:normal;font-weight:normal;font-stretch:normal;font-size:9px;font-family:Nexa;-inkscape-font-specification:Nexa;writing-mode:lr-tb;fill:#4f4c4d;fill-opacity:1;fill-rule:nonzero;stroke:none"
             transform="matrix(1,0,0,-1,80.2754,444.1812)"><tspan
               id="tspan410"
               sodipodi:role="line"
               y="0"
               x="0 6.8579998 12.132 15.705 21.122999 26.396999 30.249001 32.445 38.187 43.659 49.391998">Netherlands</tspan></text>
</g></g><text
         id="text436"
         style="font-variant:normal;font-weight:normal;font-stretch:normal;font-size:9px;font-family:Nexa;-inkscape-font-specification:Nexa;writing-mode:lr-tb;fill:#4f4c4d;fill-opacity:1;fill-rule:nonzero;stroke:none"
         transform="matrix(1,0,0,-1,103.1264,456.9612)"><tspan
           id="tspan414"
           sodipodi:role="line"
           y="0"
           x="0 6.7049999 10.557 15.831 21.105 25.757999">Greece</tspan><tspan
           id="tspan416"
           sodipodi:role="line"
           y="-12.78"
           x="-9.6929998 -4.473 -2.3759999 1.197 6.6149998 11.979 17.721001 23.193001 25.290001">Lithuania</tspan><tspan
           id="tspan418"
           sodipodi:role="line"
           y="-25.559999"
           x="-0.92699999 5.9130001 11.277 15.768 19.341 23.193001 25.290001">Austria</tspan><tspan
           id="tspan420"
           sodipodi:role="line"
           y="-38.34"
           x="-4.257 1.719 9.2790003 14.553 20.285999 25.559999">Sweden</tspan><tspan
           id="tspan422"
           sodipodi:role="line"
           y="-51.119999"
           x="6.0029998 11.979 17.721001 23.462999 25.559999">Spain</tspan><tspan
           id="tspan424"
           sodipodi:role="line"
           y="-63.900002"
           x="18.711 25.379999">UK</tspan><tspan
           id="tspan426"
           sodipodi:role="line"
           y="-76.68"
           x="-9.2700005 -2.5650001 2.7090001 6.5609999 14.85 20.591999 26.063999">Germany</tspan><tspan
           id="tspan428"
           sodipodi:role="line"
           y="-89.459999"
           x="-6.7589998 -0.60299999 4.7969999 8.6490002 12.222 17.586 23.094 28.836">Portugal</tspan><tspan
           id="tspan430"
           sodipodi:role="line"
           y="-102.24"
           x="0.29699999 2.763 6.6149998 11.889 14.085 19.827 25.299">Ireland</tspan><tspan
           id="tspan432"
           sodipodi:role="line"
           y="-115.02"
           x="-8.8109999 -2.0610001 3.2130001 8.6850004 16.974001 22.716 26.568001">Denmark</tspan><tspan
           id="tspan434"
           sodipodi:role="line"
           y="-140.013"
           x="1.6289999 7.4970002 14.166 18.629999 24.705">EU-28</tspan></text>
<g
         id="g438"><g
           clip-path="url(#clipPath444)"
           id="g440"><text
             id="text448"
             style="font-variant:normal;font-weight:normal;font-stretch:normal;font-size:9px;font-family:Nexa;-inkscape-font-specification:Nexa;writing-mode:lr-tb;fill:#4f4c4d;fill-opacity:1;fill-rule:nonzero;stroke:none"
             transform="matrix(1,0,0,-1,265.738,177.5568)"><tspan
               id="tspan446"
               sodipodi:role="line"
               y="0"
               x="0 7.2810001 12.753 17.243999 22.662001 28.062 31.914 68.841003 76.122002 79.559998 82.998001 87.488998 92.906998 98.306999 102.159">OnshoreOffshore</tspan></text>
</g></g><path
         inkscape:connector-curvature="0"
         id="path450"
         style="fill:#155196;fill-opacity:1;fill-rule:nonzero;stroke:none"
         d="m 261.891,177.564 h -7.087 v 7.087 h 7.087 z" /><path
         inkscape:connector-curvature="0"
         id="path452"
         style="fill:#83c2ec;fill-opacity:1;fill-rule:nonzero;stroke:none"
         d="m 331.176,177.564 h -7.087 v 7.087 h 7.087 z" /></g></g></svg>