<?xml version="1.0" encoding="UTF-8" standalone="no"?>
<!-- Created with Inkscape (http://www.inkscape.org/) -->

<svg
   xmlns:ns1="http://www.iki.fi/pav/software/textext/"
   xmlns:dc="http://purl.org/dc/elements/1.1/"
   xmlns:cc="http://creativecommons.org/ns#"
   xmlns:rdf="http://www.w3.org/1999/02/22-rdf-syntax-ns#"
   xmlns:svg="http://www.w3.org/2000/svg"
   xmlns="http://www.w3.org/2000/svg"
   xmlns:sodipodi="http://sodipodi.sourceforge.net/DTD/sodipodi-0.dtd"
   xmlns:inkscape="http://www.inkscape.org/namespaces/inkscape"
   width="99.253181mm"
   height="136.91629mm"
   viewBox="0 0 99.253185 136.91629"
   version="1.1"
   id="svg8"
   inkscape:version="0.92.3 (2405546, 2018-03-11)"
   sodipodi:docname="Flowchart.svg">
  <sodipodi:namedview
     id="base"
     pagecolor="#ffffff"
     bordercolor="#666666"
     borderopacity="1.0"
     inkscape:pageopacity="0.0"
     inkscape:pageshadow="2"
     inkscape:zoom="0.7"
     inkscape:cx="12.841713"
     inkscape:cy="234.93352"
     inkscape:document-units="mm"
     inkscape:current-layer="layer1"
     showgrid="false"
     inkscape:window-width="1366"
     inkscape:window-height="713"
     inkscape:window-x="0"
     inkscape:window-y="27"
     inkscape:window-maximized="1"
     fit-margin-top="0"
     fit-margin-left="0"
     fit-margin-right="0"
     fit-margin-bottom="0" />
  <defs
     id="defs2">
    <marker
       inkscape:stockid="Arrow2Lend"
       orient="auto"
       refY="0"
       refX="0"
       id="marker4053"
       style="overflow:visible"
       inkscape:isstock="true">
      <path
         id="path4051"
         style="fill:#000000;fill-opacity:1;fill-rule:evenodd;stroke:#000000;stroke-width:0.625;stroke-linejoin:round;stroke-opacity:1"
         d="M 8.7185878,4.0337352 -2.2072895,0.01601326 8.7185884,-4.0017078 c -1.7454984,2.3720609 -1.7354408,5.6174519 -6e-7,8.035443 z"
         transform="matrix(-1.1,0,0,-1.1,-1.1,0)"
         inkscape:connector-curvature="0" />
    </marker>
    <marker
       inkscape:stockid="Arrow2Lend"
       orient="auto"
       refY="0"
       refX="0"
       id="marker1241"
       style="overflow:visible"
       inkscape:isstock="true">
      <path
         id="path1239"
         style="fill:#000000;fill-opacity:1;fill-rule:evenodd;stroke:#000000;stroke-width:0.625;stroke-linejoin:round;stroke-opacity:1"
         d="M 8.7185878,4.0337352 -2.2072895,0.01601326 8.7185884,-4.0017078 c -1.7454984,2.3720609 -1.7354408,5.6174519 -6e-7,8.035443 z"
         transform="matrix(-1.1,0,0,-1.1,-1.1,0)"
         inkscape:connector-curvature="0" />
    </marker>
    <marker
       inkscape:collect="always"
       inkscape:isstock="true"
       style="overflow:visible"
       id="marker5941"
       refX="0"
       refY="0"
       orient="auto"
       inkscape:stockid="Arrow2Lend">
      <path
         inkscape:connector-curvature="0"
         transform="matrix(-1.1,0,0,-1.1,-1.1,0)"
         d="M 8.7185878,4.0337352 -2.2072895,0.01601326 8.7185884,-4.0017078 c -1.7454984,2.3720609 -1.7354408,5.6174519 -6e-7,8.035443 z"
         style="fill:#000000;fill-opacity:1;fill-rule:evenodd;stroke:#000000;stroke-width:0.625;stroke-linejoin:round;stroke-opacity:1"
         id="path5939" />
    </marker>
    <marker
       inkscape:collect="always"
       inkscape:isstock="true"
       style="overflow:visible"
       id="marker5827"
       refX="0"
       refY="0"
       orient="auto"
       inkscape:stockid="Arrow2Lend">
      <path
         inkscape:connector-curvature="0"
         transform="matrix(-1.1,0,0,-1.1,-1.1,0)"
         d="M 8.7185878,4.0337352 -2.2072895,0.01601326 8.7185884,-4.0017078 c -1.7454984,2.3720609 -1.7354408,5.6174519 -6e-7,8.035443 z"
         style="fill:#000000;fill-opacity:1;fill-rule:evenodd;stroke:#000000;stroke-width:0.625;stroke-linejoin:round;stroke-opacity:1"
         id="path5825" />
    </marker>
    <marker
       inkscape:collect="always"
       inkscape:stockid="Arrow2Lend"
       orient="auto"
       refY="0"
       refX="0"
       id="marker5783"
       style="overflow:visible"
       inkscape:isstock="true">
      <path
         inkscape:connector-curvature="0"
         id="path5781"
         style="fill:#000000;fill-opacity:1;fill-rule:evenodd;stroke:#000000;stroke-width:0.625;stroke-linejoin:round;stroke-opacity:1"
         d="M 8.7185878,4.0337352 -2.2072895,0.01601326 8.7185884,-4.0017078 c -1.7454984,2.3720609 -1.7354408,5.6174519 -6e-7,8.035443 z"
         transform="matrix(-1.1,0,0,-1.1,-1.1,0)" />
    </marker>
    <marker
       inkscape:collect="always"
       inkscape:stockid="Arrow2Lend"
       orient="auto"
       refY="0"
       refX="0"
       id="marker5719"
       style="overflow:visible"
       inkscape:isstock="true">
      <path
         inkscape:connector-curvature="0"
         id="path5717"
         style="fill:#000000;fill-opacity:1;fill-rule:evenodd;stroke:#000000;stroke-width:0.625;stroke-linejoin:round;stroke-opacity:1"
         d="M 8.7185878,4.0337352 -2.2072895,0.01601326 8.7185884,-4.0017078 c -1.7454984,2.3720609 -1.7354408,5.6174519 -6e-7,8.035443 z"
         transform="matrix(-1.1,0,0,-1.1,-1.1,0)" />
    </marker>
    <marker
       inkscape:collect="always"
       inkscape:isstock="true"
       style="overflow:visible"
       id="marker5663"
       refX="0"
       refY="0"
       orient="auto"
       inkscape:stockid="Arrow2Lend">
      <path
         inkscape:connector-curvature="0"
         transform="matrix(-1.1,0,0,-1.1,-1.1,0)"
         d="M 8.7185878,4.0337352 -2.2072895,0.01601326 8.7185884,-4.0017078 c -1.7454984,2.3720609 -1.7354408,5.6174519 -6e-7,8.035443 z"
         style="fill:#000000;fill-opacity:1;fill-rule:evenodd;stroke:#000000;stroke-width:0.625;stroke-linejoin:round;stroke-opacity:1"
         id="path5661" />
    </marker>
    <marker
       inkscape:collect="always"
       inkscape:isstock="true"
       style="overflow:visible"
       id="marker5617"
       refX="0"
       refY="0"
       orient="auto"
       inkscape:stockid="Arrow2Lend">
      <path
         inkscape:connector-curvature="0"
         transform="matrix(-1.1,0,0,-1.1,-1.1,0)"
         d="M 8.7185878,4.0337352 -2.2072895,0.01601326 8.7185884,-4.0017078 c -1.7454984,2.3720609 -1.7354408,5.6174519 -6e-7,8.035443 z"
         style="fill:#000000;fill-opacity:1;fill-rule:evenodd;stroke:#000000;stroke-width:0.625;stroke-linejoin:round;stroke-opacity:1"
         id="path5615" />
    </marker>
    <marker
       inkscape:collect="always"
       inkscape:stockid="Arrow2Lend"
       orient="auto"
       refY="0"
       refX="0"
       id="marker5515"
       style="overflow:visible"
       inkscape:isstock="true">
      <path
         inkscape:connector-curvature="0"
         id="path5513"
         style="fill:#000000;fill-opacity:1;fill-rule:evenodd;stroke:#000000;stroke-width:0.625;stroke-linejoin:round;stroke-opacity:1"
         d="M 8.7185878,4.0337352 -2.2072895,0.01601326 8.7185884,-4.0017078 c -1.7454984,2.3720609 -1.7354408,5.6174519 -6e-7,8.035443 z"
         transform="matrix(-1.1,0,0,-1.1,-1.1,0)" />
    </marker>
    <marker
       inkscape:collect="always"
       inkscape:isstock="true"
       style="overflow:visible"
       id="marker5263"
       refX="0"
       refY="0"
       orient="auto"
       inkscape:stockid="Arrow2Lend">
      <path
         inkscape:connector-curvature="0"
         transform="matrix(-1.1,0,0,-1.1,-1.1,0)"
         d="M 8.7185878,4.0337352 -2.2072895,0.01601326 8.7185884,-4.0017078 c -1.7454984,2.3720609 -1.7354408,5.6174519 -6e-7,8.035443 z"
         style="fill:#000000;fill-opacity:1;fill-rule:evenodd;stroke:#000000;stroke-width:0.625;stroke-linejoin:round;stroke-opacity:1"
         id="path5261" />
    </marker>
    <marker
       inkscape:isstock="true"
       style="overflow:visible"
       id="Arrow2Lend"
       refX="0"
       refY="0"
       orient="auto"
       inkscape:stockid="Arrow2Lend">
      <path
         inkscape:connector-curvature="0"
         transform="matrix(-1.1,0,0,-1.1,-1.1,0)"
         d="M 8.7185878,4.0337352 -2.2072895,0.01601326 8.7185884,-4.0017078 c -1.7454984,2.3720609 -1.7354408,5.6174519 -6e-7,8.035443 z"
         style="fill:#000000;fill-opacity:1;fill-rule:evenodd;stroke:#000000;stroke-width:0.625;stroke-linejoin:round;stroke-opacity:1"
         id="path4938" />
    </marker>
    <marker
       inkscape:isstock="true"
       style="overflow:visible"
       id="marker5195"
       refX="0"
       refY="0"
       orient="auto"
       inkscape:stockid="Arrow1Lstart">
      <path
         inkscape:connector-curvature="0"
         transform="matrix(0.8,0,0,0.8,10,0)"
         style="fill:#000000;fill-opacity:1;fill-rule:evenodd;stroke:#000000;stroke-width:1.00000003pt;stroke-opacity:1"
         d="M 0,0 5,-5 -12.5,0 5,5 Z"
         id="path5193" />
    </marker>
    <marker
       inkscape:isstock="true"
       style="overflow:visible"
       id="Arrow1Lstart"
       refX="0"
       refY="0"
       orient="auto"
       inkscape:stockid="Arrow1Lstart">
      <path
         inkscape:connector-curvature="0"
         transform="matrix(0.8,0,0,0.8,10,0)"
         style="fill:#000000;fill-opacity:1;fill-rule:evenodd;stroke:#000000;stroke-width:1.00000003pt;stroke-opacity:1"
         d="M 0,0 5,-5 -12.5,0 5,5 Z"
         id="path4917" />
    </marker>
  </defs>
  <metadata
     id="metadata5">
    <rdf:RDF>
      <cc:Work
         rdf:about="">
        <dc:format>image/svg+xml</dc:format>
        <dc:type
           rdf:resource="http://purl.org/dc/dcmitype/StillImage" />
        <dc:title></dc:title>
      </cc:Work>
    </rdf:RDF>
  </metadata>
  <g
     transform="translate(-30.847564,-27.591235)"
     id="layer1"
     inkscape:groupmode="layer"
     inkscape:label="Layer 1">
    <g
       transform="translate(0.53453906)"
       id="g5336">
      <rect
         style="fill:none;fill-opacity:1;stroke:#000000;stroke-width:0.26458332;stroke-opacity:1"
         id="rect4540"
         width="33.450893"
         height="11.150297"
         x="39.120533"
         y="69.548134" />
      <flowRoot
         xml:space="preserve"
         id="flowRoot4561"
         style="font-style:normal;font-weight:normal;font-size:16px;line-height:1.25;font-family:sans-serif;text-align:center;letter-spacing:0px;word-spacing:0px;text-anchor:middle;fill:#000000;fill-opacity:1;stroke:none"
         transform="matrix(0.26458333,0,0,0.26458333,20.410714,3.1750001)"><flowRegion
           id="flowRegion4563"
           style="font-size:16px;text-align:center;text-anchor:middle"><rect
             id="rect4565"
             width="126.42857"
             height="42.142864"
             x="70.714279"
             y="262.8591"
             style="font-size:16px;text-align:center;text-anchor:middle" /></flowRegion><flowPara
           id="flowPara4567">Model</flowPara></flowRoot>    </g>
    <g
       transform="translate(0.13363477)"
       id="g5351" />
    <flowRoot
       transform="scale(0.26458333)"
       style="font-style:normal;font-weight:normal;font-size:40px;line-height:1.25;font-family:sans-serif;letter-spacing:0px;word-spacing:0px;fill:#000000;fill-opacity:1;stroke:none"
       id="flowRoot4577"
       xml:space="preserve"><flowRegion
         id="flowRegion4579"><rect
           y="301.26566"
           x="314.15744"
           height="50.507626"
           width="83.842659"
           id="rect4581" /></flowRegion><flowPara
         id="flowPara4583" /></flowRoot>    <g
       transform="translate(0,-7.2162772)"
       id="g5377">
      <rect
         y="100.34994"
         x="52.21674"
         height="11.150297"
         width="33.450893"
         id="rect4542"
         style="fill:none;fill-opacity:1;stroke:#000000;stroke-width:0.26458332;stroke-opacity:1" />
      <flowRoot
         xml:space="preserve"
         id="flowRoot4860"
         style="font-style:normal;font-weight:normal;font-size:16px;line-height:1.25;font-family:sans-serif;text-align:center;letter-spacing:0px;word-spacing:0px;text-anchor:middle;fill:#000000;fill-opacity:1;stroke:none"
         transform="matrix(0.26458333,0,0,0.26458333,33.506921,3.1750001)"><flowRegion
           id="flowRegion4862"
           style="font-size:16px;text-align:center;text-anchor:middle"><rect
             id="rect4864"
             width="126.42857"
             height="42.142864"
             x="70.714279"
             y="379.27536"
             style="font-size:16px;text-align:center;text-anchor:middle" /></flowRegion><flowPara
           id="flowPara4866">MVMO</flowPara></flowRoot>    </g>
    <g
       transform="translate(0,-8.3154762)"
       id="g5384">
      <g
         id="g1200">
        <rect
           y="135.8797"
           x="52.21674"
           height="11.150297"
           width="33.450893"
           id="rect4544"
           style="fill:none;fill-opacity:1;stroke:#000000;stroke-width:0.26458332;stroke-opacity:1" />
        <flowRoot
           transform="matrix(0.26458333,0,0,0.26458333,33.720822,3.1750001)"
           style="font-style:normal;font-weight:normal;font-size:16px;line-height:1.25;font-family:sans-serif;text-align:center;letter-spacing:0px;word-spacing:0px;text-anchor:middle;fill:#000000;fill-opacity:1;stroke:none"
           id="flowRoot4868"
           xml:space="preserve"><flowRegion
             style="font-size:16px;text-align:center;text-anchor:middle"
             id="flowRegion4870"><rect
               style="font-size:16px;text-align:center;text-anchor:middle"
               y="513.5611"
               x="70.714279"
               height="42.142864"
               width="126.42857"
               id="rect4872" /></flowRegion><flowPara
             id="flowPara4874">TSM</flowPara></flowRoot>      </g>
    </g>
    <g
       id="g3617">
      <g
         id="g5417"
         transform="translate(20.221726,5.0837799)">
        <rect
           ry="7.6241784"
           y="22.662056"
           x="18.732128"
           height="15.248357"
           width="33.406277"
           id="rect4549"
           style="fill:none;fill-opacity:1;stroke:#000000;stroke-width:0.30920103;stroke-opacity:1" />
        <flowRoot
           transform="matrix(0.26458333,0,0,0.26458333,0,3.1750001)"
           style="font-style:normal;font-weight:normal;font-size:16px;line-height:1.25;font-family:sans-serif;text-align:center;letter-spacing:0px;word-spacing:0px;text-anchor:middle;fill:#000000;fill-opacity:1;stroke:none"
           id="flowRoot4876"
           xml:space="preserve"><flowRegion
             style="font-size:16px;text-align:center;text-anchor:middle"
             id="flowRegion4878"><rect
               style="font-size:16px;text-align:center;text-anchor:middle"
               y="85.567551"
               x="70.714279"
               height="42.142864"
               width="126.42857"
               id="rect4880" /></flowRegion><flowPara
             id="flowPara4882">Disturbance in the System</flowPara></flowRoot>      </g>
    </g>
    <g
       transform="translate(-12.85119,-9.0888411)"
       id="g5410">
      <rect
         ry="5.5967274"
         y="162.29221"
         x="115.11977"
         height="11.193455"
         width="23.337809"
         id="rect4897"
         style="fill:none;fill-opacity:1;stroke:#000000;stroke-width:0.22142543;stroke-opacity:1"
         rx="0" />
      <flowRoot
         xml:space="preserve"
         id="flowRoot4907"
         style="font-style:normal;font-weight:normal;font-size:16px;line-height:1.25;font-family:sans-serif;text-align:center;letter-spacing:0px;word-spacing:0px;text-anchor:middle;fill:#000000;fill-opacity:1;stroke:none"
         transform="matrix(0.26458333,0,0,0.26458333,37.097695,4.4034227)"><flowRegion
           id="flowRegion4909"
           style="font-size:16px;text-align:center;text-anchor:middle"><rect
             id="rect4911"
             width="88.205887"
             height="42.305958"
             x="294.8866"
             y="608.745"
             style="font-size:16px;text-align:center;text-anchor:middle" /></flowRegion><flowPara
           id="flowPara4913">End</flowPara></flowRoot>    </g>
    <path
       inkscape:connector-curvature="0"
       id="path5421"
       d="m 72.96458,75.166283 h 5.479026 V 67.950005 H 95.94976"
       style="fill:none;stroke:#000000;stroke-width:0.26458332px;stroke-linecap:butt;stroke-linejoin:miter;stroke-opacity:1;marker-end:url(#marker5263)" />
    <path
       inkscape:connector-curvature="0"
       id="path5505"
       d="m 113.95982,71.665588 c 0,16.441965 0.056,18.08303 0.056,18.08303"
       style="fill:none;stroke:#000000;stroke-width:0.26458332px;stroke-linecap:butt;stroke-linejoin:miter;stroke-opacity:1;marker-end:url(#marker5515)"
       sodipodi:nodetypes="cc" />
    <path
       inkscape:connector-curvature="0"
       id="path5653"
       d="m 114.01585,108.45662 v 15.52477"
       style="fill:none;stroke:#000000;stroke-width:0.26458332px;stroke-linecap:butt;stroke-linejoin:miter;stroke-opacity:1;marker-end:url(#marker5663)" />
    <path
       inkscape:connector-curvature="0"
       id="path5695"
       d="M 98.12286,99.367201 H 86.131322"
       style="fill:none;stroke:#000000;stroke-width:0.26458332px;stroke-linecap:butt;stroke-linejoin:miter;stroke-opacity:1;marker-end:url(#marker5617)" />
    <path
       inkscape:connector-curvature="0"
       id="path5709"
       d="M 98.12286,133.57942 H 86.071075"
       style="fill:none;stroke:#000000;stroke-width:0.26066577px;stroke-linecap:butt;stroke-linejoin:miter;stroke-opacity:1;marker-end:url(#marker5719)" />
    <path
       inkscape:connector-curvature="0"
       id="path5771"
       d="M 52.118588,98.749355 H 47.338542 V 81.193762"
       style="fill:none;stroke:#000000;stroke-width:0.26185402px;stroke-linecap:butt;stroke-linejoin:miter;stroke-opacity:1;marker-end:url(#marker5827)" />
    <path
       inkscape:connector-curvature="0"
       id="path5773"
       d="M 52.162696,132.95753 H 42.5208 V 81.074373"
       style="fill:none;stroke:#000000;stroke-width:0.26344955px;stroke-linecap:butt;stroke-linejoin:miter;stroke-opacity:1;marker-end:url(#marker5783)" />
    <path
       inkscape:connector-curvature="0"
       id="path5931"
       d="m 114.01585,142.66884 v 10.03874"
       style="fill:none;stroke:#000000;stroke-width:0.26458332px;stroke-linecap:butt;stroke-linejoin:miter;stroke-opacity:1;marker-end:url(#marker5941)" />
    <g
       id="g3575">
      <g
         transform="matrix(0.499209,0,0,0.499209,29.460601,33.138488)"
         ns1:version="0.10.0"
         ns1:texconverter="pdflatex"
         ns1:pdfconverter="pdf2svg"
         ns1:text="$J(p) \\leq t_{2}$"
         ns1:preamble="/home/psiu/.config/inkscape/extensions/textext/default_packages.tex"
         ns1:scale="1.41508101412"
         ns1:alignment="middle center"
         ns1:jacobian_sqrt="0.499209"
         id="g2554">
        <g
           id="g2516" />
        <g
           transform="matrix(0.82853106,0,0,0.90137691,26.290075,13.142759)"
           ns1:version="0.10.0"
           ns1:texconverter="pdflatex"
           ns1:pdfconverter="pdf2svg"
           ns1:text="$J(p) \\leq tol_{2}$"
           ns1:preamble="/home/psiu/.config/inkscape/extensions/textext/default_packages.tex"
           ns1:scale="1.41508101412"
           ns1:alignment="middle center"
           inkscapeversion="0.92.3"
           ns1:jacobian_sqrt="0.499209"
           id="g2552">
          <g
             id="g2658"
             ns1:jacobian_sqrt="0.499209"
             inkscapeversion="0.92.3"
             ns1:alignment="middle center"
             ns1:scale="1.41508101412"
             ns1:preamble="/home/psiu/.config/inkscape/extensions/textext/default_packages.tex"
             ns1:text="$J(p) \\leq tol_{1}$"
             ns1:pdfconverter="pdf2svg"
             ns1:texconverter="pdflatex"
             ns1:version="0.10.0"
             transform="matrix(1.1103821,0,0,1.1833373,-19.054703,-23.937267)">
            <g
               id="surface1">
              <g
                 id="g2627"
                 style="fill:#000000;fill-opacity:1">
                <path
                   id="path2625"
                   transform="translate(148.712,134.765)"
                   d="M 5.390625,-6.078125 C 5.46875,-6.40625 5.5,-6.5 6.046875,-6.5 c 0.15625,0 0.265625,0 0.265625,-0.1875 0,-0.09375 -0.0625,-0.125 -0.140625,-0.125 -0.25,0 -0.859375,0.03125 -1.109375,0.03125 -0.328125,0 -1.140625,-0.03125 -1.46875,-0.03125 -0.078125,0 -0.203125,0 -0.203125,0.203125 C 3.390625,-6.5 3.46875,-6.5 3.734375,-6.5 c 0.21875,0 0.328125,0 0.578125,0.015625 0.234375,0.03125 0.296875,0.0625 0.296875,0.203125 0,0.0625 -0.015625,0.125 -0.03125,0.203125 L 3.421875,-1.5 C 3.1875,-0.53125 2.515625,0 2,0 1.734375,0 1.203125,-0.09375 1.046875,-0.625 c 0.03125,0.015625 0.09375,0.015625 0.125,0.015625 0.390625,0 0.640625,-0.34375 0.640625,-0.640625 0,-0.3125 -0.265625,-0.421875 -0.4375,-0.421875 -0.171875,0 -0.671875,0.125 -0.671875,0.796875 0,0.625 0.53125,1.09375 1.328125,1.09375 0.90625,0 1.953125,-0.65625 2.203125,-1.640625 z m 0,0"
                   style="stroke:none;stroke-width:0"
                   inkscape:connector-curvature="0" />
              </g>
              <g
                 id="g2631"
                 style="fill:#000000;fill-opacity:1">
                <path
                   id="path2629"
                   transform="translate(155.195,134.765)"
                   d="m 3.296875,2.390625 c 0,-0.03125 0,-0.046875 -0.171875,-0.21875 C 1.890625,0.921875 1.5625,-0.96875 1.5625,-2.5 c 0,-1.734375 0.375,-3.46875 1.609375,-4.703125 0.125,-0.125 0.125,-0.140625 0.125,-0.171875 0,-0.078125 -0.03125,-0.109375 -0.09375,-0.109375 -0.109375,0 -1,0.6875 -1.59375,1.953125 -0.5,1.09375 -0.625,2.203125 -0.625,3.03125 0,0.78125 0.109375,1.984375 0.65625,3.125 C 2.25,1.84375 3.09375,2.5 3.203125,2.5 c 0.0625,0 0.09375,-0.03125 0.09375,-0.109375 z m 0,0"
                   style="stroke:none;stroke-width:0"
                   inkscape:connector-curvature="0" />
              </g>
              <g
                 id="g2635"
                 style="fill:#000000;fill-opacity:1">
                <path
                   id="path2633"
                   transform="translate(159.069,134.765)"
                   d="M 0.453125,1.21875 C 0.375,1.5625 0.34375,1.625 -0.09375,1.625 c -0.109375,0 -0.21875,0 -0.21875,0.1875 0,0.078125 0.046875,0.125 0.125,0.125 0.265625,0 0.5625,-0.03125 0.828125,-0.03125 0.34375,0 0.671875,0.03125 1,0.03125 0.046875,0 0.171875,0 0.171875,-0.203125 C 1.8125,1.625 1.71875,1.625 1.578125,1.625 c -0.5,0 -0.5,-0.0625 -0.5,-0.15625 0,-0.125 0.421875,-1.75 0.484375,-2 0.125,0.296875 0.40625,0.640625 0.921875,0.640625 1.15625,0 2.40625,-1.453125 2.40625,-2.921875 0,-0.9375 -0.578125,-1.59375 -1.328125,-1.59375 -0.5,0 -0.984375,0.359375 -1.3125,0.75 -0.09375,-0.546875 -0.53125,-0.75 -0.890625,-0.75 -0.46875,0 -0.65625,0.390625 -0.734375,0.5625 C 0.4375,-3.5 0.3125,-2.90625 0.3125,-2.875 c 0,0.109375 0.09375,0.109375 0.109375,0.109375 0.109375,0 0.109375,-0.015625 0.171875,-0.234375 0.171875,-0.703125 0.375,-1.1875 0.734375,-1.1875 0.171875,0 0.3125,0.078125 0.3125,0.453125 0,0.234375 -0.03125,0.34375 -0.078125,0.515625 z m 1.75,-4.328125 C 2.265625,-3.375 2.546875,-3.65625 2.71875,-3.8125 c 0.359375,-0.296875 0.640625,-0.375 0.8125,-0.375 0.390625,0 0.640625,0.34375 0.640625,0.9375 0,0.59375 -0.328125,1.734375 -0.515625,2.109375 -0.34375,0.703125 -0.8125,1.03125 -1.1875,1.03125 C 1.8125,-0.109375 1.6875,-0.9375 1.6875,-1 c 0,-0.015625 0,-0.03125 0.03125,-0.15625 z m 0,0"
                   style="stroke:none;stroke-width:0"
                   inkscape:connector-curvature="0" />
              </g>
              <g
                 id="g2639"
                 style="fill:#000000;fill-opacity:1">
                <path
                   id="path2637"
                   transform="translate(164.082,134.765)"
                   d="m 2.875,-2.5 c 0,-0.765625 -0.109375,-1.96875 -0.65625,-3.109375 -0.59375,-1.21875 -1.453125,-1.875 -1.546875,-1.875 -0.0625,0 -0.109375,0.046875 -0.109375,0.109375 0,0.03125 0,0.046875 0.1875,0.234375 0.984375,0.984375 1.546875,2.5625 1.546875,4.640625 0,1.71875 -0.359375,3.46875 -1.59375,4.71875 C 0.5625,2.34375 0.5625,2.359375 0.5625,2.390625 0.5625,2.453125 0.609375,2.5 0.671875,2.5 0.765625,2.5 1.671875,1.8125 2.25,0.546875 2.765625,-0.546875 2.875,-1.65625 2.875,-2.5 Z m 0,0"
                   style="stroke:none;stroke-width:0"
                   inkscape:connector-curvature="0" />
              </g>
              <g
                 id="g2643"
                 style="fill:#000000;fill-opacity:1">
                <path
                   id="path2641"
                   transform="translate(170.723,134.765)"
                   d="m 6.734375,-5.921875 c 0.109375,-0.046875 0.1875,-0.09375 0.1875,-0.21875 0,-0.109375 -0.078125,-0.203125 -0.203125,-0.203125 -0.046875,0 -0.140625,0.046875 -0.171875,0.0625 L 1.03125,-3.671875 c -0.171875,0.078125 -0.203125,0.140625 -0.203125,0.21875 0,0.09375 0.0625,0.15625 0.203125,0.21875 l 5.515625,2.59375 C 6.671875,-0.5625 6.6875,-0.5625 6.71875,-0.5625 c 0.109375,0 0.203125,-0.09375 0.203125,-0.203125 C 6.921875,-0.859375 6.875,-0.921875 6.703125,-1 L 1.5,-3.453125 Z M 6.5625,1.359375 c 0.171875,0 0.359375,0 0.359375,-0.1875 0,-0.203125 -0.21875,-0.203125 -0.359375,-0.203125 h -5.375 c -0.15625,0 -0.359375,0 -0.359375,0.203125 0,0.1875 0.171875,0.1875 0.34375,0.1875 z m 0,0"
                   style="stroke:none;stroke-width:0"
                   inkscape:connector-curvature="0" />
              </g>
              <g
                 id="g2651"
                 style="fill:#000000;fill-opacity:1">
                <path
                   id="path2645"
                   transform="translate(181.24,134.765)"
                   d="m 2.046875,-3.984375 h 0.9375 c 0.203125,0 0.3125,0 0.3125,-0.203125 0,-0.109375 -0.109375,-0.109375 -0.28125,-0.109375 h -0.875 C 2.5,-5.71875 2.546875,-5.90625 2.546875,-5.96875 c 0,-0.171875 -0.125,-0.265625 -0.296875,-0.265625 -0.03125,0 -0.3125,0 -0.390625,0.359375 L 1.46875,-4.296875 h -0.9375 c -0.203125,0 -0.296875,0 -0.296875,0.1875 0,0.125 0.078125,0.125 0.28125,0.125 h 0.875 C 0.671875,-1.15625 0.625,-0.984375 0.625,-0.8125 0.625,-0.265625 1,0.109375 1.546875,0.109375 2.5625,0.109375 3.125,-1.34375 3.125,-1.421875 3.125,-1.53125 3.046875,-1.53125 3.015625,-1.53125 2.921875,-1.53125 2.90625,-1.5 2.859375,-1.390625 2.4375,-0.34375 1.90625,-0.109375 1.5625,-0.109375 c -0.203125,0 -0.3125,-0.125 -0.3125,-0.453125 0,-0.25 0.03125,-0.3125 0.0625,-0.484375 z m 0,0"
                   style="stroke:none;stroke-width:0"
                   inkscape:connector-curvature="0" />
                <path
                   id="path2647"
                   transform="translate(184.83749,134.765)"
                   d="m 4.671875,-2.71875 c 0,-1.046875 -0.6875,-1.6875 -1.59375,-1.6875 -1.328125,0 -2.671875,1.421875 -2.671875,2.828125 0,0.984375 0.671875,1.6875 1.59375,1.6875 1.328125,0 2.671875,-1.375 2.671875,-2.828125 z m -2.65625,2.609375 c -0.4375,0 -0.875,-0.3125 -0.875,-1.09375 0,-0.484375 0.265625,-1.5625 0.578125,-2.0625 0.5,-0.765625 1.078125,-0.921875 1.359375,-0.921875 0.578125,0 0.875,0.484375 0.875,1.078125 0,0.390625 -0.203125,1.4375 -0.578125,2.078125 -0.359375,0.578125 -0.90625,0.921875 -1.359375,0.921875 z m 0,0"
                   style="stroke:none;stroke-width:0"
                   inkscape:connector-curvature="0" />
                <path
                   id="path2649"
                   transform="translate(189.66637,134.765)"
                   d="m 2.578125,-6.8125 c 0,0 0,-0.109375 -0.140625,-0.109375 -0.21875,0 -0.953125,0.078125 -1.21875,0.109375 -0.078125,0 -0.1875,0.015625 -0.1875,0.203125 0,0.109375 0.109375,0.109375 0.25,0.109375 0.484375,0 0.5,0.09375 0.5,0.171875 L 1.75,-6.125 0.484375,-1.140625 C 0.453125,-1.03125 0.4375,-0.96875 0.4375,-0.8125 c 0,0.578125 0.4375,0.921875 0.90625,0.921875 0.328125,0 0.578125,-0.203125 0.75,-0.5625 0.171875,-0.375 0.296875,-0.953125 0.296875,-0.96875 0,-0.109375 -0.09375,-0.109375 -0.125,-0.109375 -0.09375,0 -0.109375,0.046875 -0.125,0.1875 C 1.96875,-0.703125 1.78125,-0.109375 1.375,-0.109375 c -0.296875,0 -0.296875,-0.3125 -0.296875,-0.453125 0,-0.25 0.015625,-0.296875 0.0625,-0.484375 z m 0,0"
                   style="stroke:none;stroke-width:0"
                   inkscape:connector-curvature="0" />
              </g>
              <g
                 id="g2655"
                 style="fill:#000000;fill-opacity:1">
                <path
                   id="path2653"
                   transform="translate(192.639,136.259)"
                   d="m 2.328125,-4.4375 c 0,-0.1875 0,-0.1875 -0.203125,-0.1875 -0.453125,0.4375 -1.078125,0.4375 -1.359375,0.4375 v 0.25 c 0.15625,0 0.625,0 1,-0.1875 v 3.546875 c 0,0.234375 0,0.328125 -0.6875,0.328125 H 0.8125 V 0 c 0.125,0 0.984375,-0.03125 1.234375,-0.03125 0.21875,0 1.09375,0.03125 1.25,0.03125 V -0.25 H 3.03125 c -0.703125,0 -0.703125,-0.09375 -0.703125,-0.328125 z m 0,0"
                   style="stroke:none;stroke-width:0"
                   inkscape:connector-curvature="0" />
              </g>
            </g>
          </g>
        </g>
      </g>
      <g
         id="g3485">
        <g
           transform="translate(-12.85119,-6.2744047)"
           id="g5370">
          <path
             sodipodi:type="star"
             id="path12"
             sodipodi:sides="4"
             sodipodi:cx="49.136906"
             sodipodi:cy="80.797623"
             sodipodi:r1="15.892989"
             sodipodi:r2="11.23804"
             sodipodi:arg1="1.5707963"
             sodipodi:arg2="2.3561945"
             inkscape:flatsided="true"
             inkscape:rounded="0"
             inkscape:randomized="0"
             d="M 49.136906,96.690612 33.243917,80.797623 49.136905,64.904634 65.029895,80.797622 Z"
             style="fill:none;fill-opacity:1;stroke:#000000;stroke-width:0.26458332;stroke-opacity:1"
             transform="matrix(1,0,0,0.57191367,77.730135,59.432343)" />
        </g>
        <flowRoot
           transform="matrix(0.26458333,0,0,0.26458333,-34.2105,20.312484)"
           style="font-style:normal;font-weight:normal;font-size:40px;line-height:1.25;font-family:sans-serif;letter-spacing:0px;word-spacing:0px;fill:#000000;fill-opacity:1;stroke:none"
           id="flowRoot5981"
           xml:space="preserve"><flowRegion
             id="flowRegion5983"><rect
               y="311.09109"
               x="565.71429"
               height="91.428574"
               width="82.85714"
               id="rect5985" /></flowRegion><flowPara
             style="font-size:16px"
             id="flowPara5987">Y</flowPara><flowPara
             id="flowPara5997"
             style="font-size:16px" /></flowRoot>        <flowRoot
           xml:space="preserve"
           id="flowRoot6017"
           style="font-style:normal;font-weight:normal;font-size:40px;line-height:1.25;font-family:sans-serif;letter-spacing:0px;word-spacing:0px;fill:#000000;fill-opacity:1;stroke:none"
           transform="matrix(0.26458333,0,0,0.26458333,-54.784882,11.893494)"><flowRegion
             id="flowRegion6011"><rect
               id="rect6009"
               width="82.85714"
               height="91.428574"
               x="565.71429"
               y="311.09109" /></flowRegion><flowPara
             id="flowPara6019"
             style="font-size:16px">N</flowPara><flowPara
             style="font-size:16px"
             id="flowPara6015" /></flowRoot>      </g>
    </g>
    <g
       id="g3609">
      <path
         transform="matrix(1,0,0,0.57191367,64.878945,87.370157)"
         style="fill:none;fill-opacity:1;stroke:#000000;stroke-width:0.26458332;stroke-opacity:1"
         d="M 49.136906,96.690612 33.243917,80.797623 49.136905,64.904634 65.029895,80.797622 Z"
         inkscape:randomized="0"
         inkscape:rounded="0"
         inkscape:flatsided="true"
         sodipodi:arg2="2.3561945"
         sodipodi:arg1="1.5707963"
         sodipodi:r2="11.23804"
         sodipodi:r1="15.892989"
         sodipodi:cy="80.797623"
         sodipodi:cx="49.136906"
         sodipodi:sides="4"
         id="path4534"
         sodipodi:type="star" />
      <g
         id="g4796"
         ns1:jacobian_sqrt="0.499209"
         ns1:alignment="middle center"
         ns1:scale="1.41508101412"
         ns1:preamble="/home/psiu/.config/inkscape/extensions/textext/default_packages.tex"
         ns1:text="$J(p) \\leq t_{2}$"
         ns1:pdfconverter="pdf2svg"
         ns1:texconverter="pdflatex"
         ns1:version="0.10.0"
         transform="matrix(0.499209,0,0,0.499209,29.460601,67.345333)">
        <g
           id="g4794" />
        <g
           id="g1932"
           ns1:jacobian_sqrt="0.499209"
           inkscapeversion="0.92.3"
           ns1:alignment="middle center"
           ns1:scale="1.41508101412"
           ns1:preamble="/home/psiu/.config/inkscape/extensions/textext/default_packages.tex"
           ns1:text="$J(p) \\leq tol_{2}$"
           ns1:pdfconverter="pdf2svg"
           ns1:texconverter="pdflatex"
           ns1:version="0.10.0"
           transform="matrix(0.82853106,0,0,0.90137691,26.290075,13.142759)">
          <g
             id="g1930">
            <g
               id="g1900"
               style="fill:#000000;fill-opacity:1">
              <path
                 id="path1898"
                 transform="translate(148.712,134.765)"
                 d="M 5.390625,-6.078125 C 5.46875,-6.40625 5.5,-6.5 6.046875,-6.5 c 0.15625,0 0.265625,0 0.265625,-0.1875 0,-0.09375 -0.0625,-0.125 -0.140625,-0.125 -0.25,0 -0.859375,0.03125 -1.109375,0.03125 -0.328125,0 -1.140625,-0.03125 -1.46875,-0.03125 -0.078125,0 -0.203125,0 -0.203125,0.203125 C 3.390625,-6.5 3.46875,-6.5 3.734375,-6.5 c 0.21875,0 0.328125,0 0.578125,0.015625 0.234375,0.03125 0.296875,0.0625 0.296875,0.203125 0,0.0625 -0.015625,0.125 -0.03125,0.203125 L 3.421875,-1.5 C 3.1875,-0.53125 2.515625,0 2,0 1.734375,0 1.203125,-0.09375 1.046875,-0.625 c 0.03125,0.015625 0.09375,0.015625 0.125,0.015625 0.390625,0 0.640625,-0.34375 0.640625,-0.640625 0,-0.3125 -0.265625,-0.421875 -0.4375,-0.421875 -0.171875,0 -0.671875,0.125 -0.671875,0.796875 0,0.625 0.53125,1.09375 1.328125,1.09375 0.90625,0 1.953125,-0.65625 2.203125,-1.640625 z m 0,0"
                 style="stroke:none;stroke-width:0"
                 inkscape:connector-curvature="0" />
            </g>
            <g
               id="g1904"
               style="fill:#000000;fill-opacity:1">
              <path
                 id="path1902"
                 transform="translate(155.195,134.765)"
                 d="m 3.296875,2.390625 c 0,-0.03125 0,-0.046875 -0.171875,-0.21875 C 1.890625,0.921875 1.5625,-0.96875 1.5625,-2.5 c 0,-1.734375 0.375,-3.46875 1.609375,-4.703125 0.125,-0.125 0.125,-0.140625 0.125,-0.171875 0,-0.078125 -0.03125,-0.109375 -0.09375,-0.109375 -0.109375,0 -1,0.6875 -1.59375,1.953125 -0.5,1.09375 -0.625,2.203125 -0.625,3.03125 0,0.78125 0.109375,1.984375 0.65625,3.125 C 2.25,1.84375 3.09375,2.5 3.203125,2.5 c 0.0625,0 0.09375,-0.03125 0.09375,-0.109375 z m 0,0"
                 style="stroke:none;stroke-width:0"
                 inkscape:connector-curvature="0" />
            </g>
            <g
               id="g1908"
               style="fill:#000000;fill-opacity:1">
              <path
                 id="path1906"
                 transform="translate(159.069,134.765)"
                 d="M 0.453125,1.21875 C 0.375,1.5625 0.34375,1.625 -0.09375,1.625 c -0.109375,0 -0.21875,0 -0.21875,0.1875 0,0.078125 0.046875,0.125 0.125,0.125 0.265625,0 0.5625,-0.03125 0.828125,-0.03125 0.34375,0 0.671875,0.03125 1,0.03125 0.046875,0 0.171875,0 0.171875,-0.203125 C 1.8125,1.625 1.71875,1.625 1.578125,1.625 c -0.5,0 -0.5,-0.0625 -0.5,-0.15625 0,-0.125 0.421875,-1.75 0.484375,-2 0.125,0.296875 0.40625,0.640625 0.921875,0.640625 1.15625,0 2.40625,-1.453125 2.40625,-2.921875 0,-0.9375 -0.578125,-1.59375 -1.328125,-1.59375 -0.5,0 -0.984375,0.359375 -1.3125,0.75 -0.09375,-0.546875 -0.53125,-0.75 -0.890625,-0.75 -0.46875,0 -0.65625,0.390625 -0.734375,0.5625 C 0.4375,-3.5 0.3125,-2.90625 0.3125,-2.875 c 0,0.109375 0.09375,0.109375 0.109375,0.109375 0.109375,0 0.109375,-0.015625 0.171875,-0.234375 0.171875,-0.703125 0.375,-1.1875 0.734375,-1.1875 0.171875,0 0.3125,0.078125 0.3125,0.453125 0,0.234375 -0.03125,0.34375 -0.078125,0.515625 z m 1.75,-4.328125 C 2.265625,-3.375 2.546875,-3.65625 2.71875,-3.8125 c 0.359375,-0.296875 0.640625,-0.375 0.8125,-0.375 0.390625,0 0.640625,0.34375 0.640625,0.9375 0,0.59375 -0.328125,1.734375 -0.515625,2.109375 -0.34375,0.703125 -0.8125,1.03125 -1.1875,1.03125 C 1.8125,-0.109375 1.6875,-0.9375 1.6875,-1 c 0,-0.015625 0,-0.03125 0.03125,-0.15625 z m 0,0"
                 style="stroke:none;stroke-width:0"
                 inkscape:connector-curvature="0" />
            </g>
            <g
               id="g1912"
               style="fill:#000000;fill-opacity:1">
              <path
                 id="path1910"
                 transform="translate(164.082,134.765)"
                 d="m 2.875,-2.5 c 0,-0.765625 -0.109375,-1.96875 -0.65625,-3.109375 -0.59375,-1.21875 -1.453125,-1.875 -1.546875,-1.875 -0.0625,0 -0.109375,0.046875 -0.109375,0.109375 0,0.03125 0,0.046875 0.1875,0.234375 0.984375,0.984375 1.546875,2.5625 1.546875,4.640625 0,1.71875 -0.359375,3.46875 -1.59375,4.71875 C 0.5625,2.34375 0.5625,2.359375 0.5625,2.390625 0.5625,2.453125 0.609375,2.5 0.671875,2.5 0.765625,2.5 1.671875,1.8125 2.25,0.546875 2.765625,-0.546875 2.875,-1.65625 2.875,-2.5 Z m 0,0"
                 style="stroke:none;stroke-width:0"
                 inkscape:connector-curvature="0" />
            </g>
            <g
               id="g1916"
               style="fill:#000000;fill-opacity:1">
              <path
                 id="path1914"
                 transform="translate(170.723,134.765)"
                 d="m 6.734375,-5.921875 c 0.109375,-0.046875 0.1875,-0.09375 0.1875,-0.21875 0,-0.109375 -0.078125,-0.203125 -0.203125,-0.203125 -0.046875,0 -0.140625,0.046875 -0.171875,0.0625 L 1.03125,-3.671875 c -0.171875,0.078125 -0.203125,0.140625 -0.203125,0.21875 0,0.09375 0.0625,0.15625 0.203125,0.21875 l 5.515625,2.59375 C 6.671875,-0.5625 6.6875,-0.5625 6.71875,-0.5625 c 0.109375,0 0.203125,-0.09375 0.203125,-0.203125 C 6.921875,-0.859375 6.875,-0.921875 6.703125,-1 L 1.5,-3.453125 Z M 6.5625,1.359375 c 0.171875,0 0.359375,0 0.359375,-0.1875 0,-0.203125 -0.21875,-0.203125 -0.359375,-0.203125 h -5.375 c -0.15625,0 -0.359375,0 -0.359375,0.203125 0,0.1875 0.171875,0.1875 0.34375,0.1875 z m 0,0"
                 style="stroke:none;stroke-width:0"
                 inkscape:connector-curvature="0" />
            </g>
            <g
               id="g1924"
               style="fill:#000000;fill-opacity:1">
              <path
                 id="path1918"
                 transform="translate(181.24,134.765)"
                 d="m 2.046875,-3.984375 h 0.9375 c 0.203125,0 0.3125,0 0.3125,-0.203125 0,-0.109375 -0.109375,-0.109375 -0.28125,-0.109375 h -0.875 C 2.5,-5.71875 2.546875,-5.90625 2.546875,-5.96875 c 0,-0.171875 -0.125,-0.265625 -0.296875,-0.265625 -0.03125,0 -0.3125,0 -0.390625,0.359375 L 1.46875,-4.296875 h -0.9375 c -0.203125,0 -0.296875,0 -0.296875,0.1875 0,0.125 0.078125,0.125 0.28125,0.125 h 0.875 C 0.671875,-1.15625 0.625,-0.984375 0.625,-0.8125 0.625,-0.265625 1,0.109375 1.546875,0.109375 2.5625,0.109375 3.125,-1.34375 3.125,-1.421875 3.125,-1.53125 3.046875,-1.53125 3.015625,-1.53125 2.921875,-1.53125 2.90625,-1.5 2.859375,-1.390625 2.4375,-0.34375 1.90625,-0.109375 1.5625,-0.109375 c -0.203125,0 -0.3125,-0.125 -0.3125,-0.453125 0,-0.25 0.03125,-0.3125 0.0625,-0.484375 z m 0,0"
                 style="stroke:none;stroke-width:0"
                 inkscape:connector-curvature="0" />
              <path
                 id="path1920"
                 transform="translate(184.83749,134.765)"
                 d="m 4.671875,-2.71875 c 0,-1.046875 -0.6875,-1.6875 -1.59375,-1.6875 -1.328125,0 -2.671875,1.421875 -2.671875,2.828125 0,0.984375 0.671875,1.6875 1.59375,1.6875 1.328125,0 2.671875,-1.375 2.671875,-2.828125 z m -2.65625,2.609375 c -0.4375,0 -0.875,-0.3125 -0.875,-1.09375 0,-0.484375 0.265625,-1.5625 0.578125,-2.0625 0.5,-0.765625 1.078125,-0.921875 1.359375,-0.921875 0.578125,0 0.875,0.484375 0.875,1.078125 0,0.390625 -0.203125,1.4375 -0.578125,2.078125 -0.359375,0.578125 -0.90625,0.921875 -1.359375,0.921875 z m 0,0"
                 style="stroke:none;stroke-width:0"
                 inkscape:connector-curvature="0" />
              <path
                 id="path1922"
                 transform="translate(189.66637,134.765)"
                 d="m 2.578125,-6.8125 c 0,0 0,-0.109375 -0.140625,-0.109375 -0.21875,0 -0.953125,0.078125 -1.21875,0.109375 -0.078125,0 -0.1875,0.015625 -0.1875,0.203125 0,0.109375 0.109375,0.109375 0.25,0.109375 0.484375,0 0.5,0.09375 0.5,0.171875 L 1.75,-6.125 0.484375,-1.140625 C 0.453125,-1.03125 0.4375,-0.96875 0.4375,-0.8125 c 0,0.578125 0.4375,0.921875 0.90625,0.921875 0.328125,0 0.578125,-0.203125 0.75,-0.5625 0.171875,-0.375 0.296875,-0.953125 0.296875,-0.96875 0,-0.109375 -0.09375,-0.109375 -0.125,-0.109375 -0.09375,0 -0.109375,0.046875 -0.125,0.1875 C 1.96875,-0.703125 1.78125,-0.109375 1.375,-0.109375 c -0.296875,0 -0.296875,-0.3125 -0.296875,-0.453125 0,-0.25 0.015625,-0.296875 0.0625,-0.484375 z m 0,0"
                 style="stroke:none;stroke-width:0"
                 inkscape:connector-curvature="0" />
            </g>
            <g
               id="g1928"
               style="fill:#000000;fill-opacity:1">
              <path
                 id="path1926"
                 transform="translate(192.639,136.259)"
                 d="M 3.515625,-1.265625 H 3.28125 c -0.015625,0.15625 -0.09375,0.5625 -0.1875,0.625 C 3.046875,-0.59375 2.515625,-0.59375 2.40625,-0.59375 H 1.125 c 0.734375,-0.640625 0.984375,-0.84375 1.390625,-1.171875 0.515625,-0.40625 1,-0.84375 1,-1.5 0,-0.84375 -0.734375,-1.359375 -1.625,-1.359375 -0.859375,0 -1.453125,0.609375 -1.453125,1.25 0,0.34375 0.296875,0.390625 0.375,0.390625 0.15625,0 0.359375,-0.125 0.359375,-0.375 0,-0.125 -0.046875,-0.375 -0.40625,-0.375 C 0.984375,-4.21875 1.453125,-4.375 1.78125,-4.375 c 0.703125,0 1.0625,0.546875 1.0625,1.109375 0,0.609375 -0.4375,1.078125 -0.65625,1.328125 L 0.515625,-0.265625 C 0.4375,-0.203125 0.4375,-0.1875 0.4375,0 h 2.875 z m 0,0"
                 style="stroke:none;stroke-width:0"
                 inkscape:connector-curvature="0" />
            </g>
          </g>
        </g>
      </g>
      <g
         id="g3497">
        <flowRoot
           xml:space="preserve"
           id="flowRoot6007"
           style="font-style:normal;font-weight:normal;font-size:40px;line-height:1.25;font-family:sans-serif;letter-spacing:0px;word-spacing:0px;fill:#000000;fill-opacity:1;stroke:none"
           transform="matrix(0.26458333,0,0,0.26458333,-34.2105,55.057523)"><flowRegion
             id="flowRegion6001"><rect
               id="rect5999"
               width="82.85714"
               height="91.428574"
               x="565.71429"
               y="311.09109" /></flowRegion><flowPara
             id="flowPara6003"
             style="font-size:16px">Y</flowPara><flowPara
             style="font-size:16px"
             id="flowPara6005" /></flowRoot>        <flowRoot
           transform="matrix(0.26458333,0,0,0.26458333,-54.784882,46.371263)"
           style="font-style:normal;font-weight:normal;font-size:40px;line-height:1.25;font-family:sans-serif;letter-spacing:0px;word-spacing:0px;fill:#000000;fill-opacity:1;stroke:none"
           id="flowRoot6031"
           xml:space="preserve"><flowRegion
             id="flowRegion6025"><rect
               y="311.09109"
               x="565.71429"
               height="91.428574"
               width="82.85714"
               id="rect6023" /></flowRegion><flowPara
             style="font-size:16px"
             id="flowPara6027">N</flowPara><flowPara
             id="flowPara6029"
             style="font-size:16px" /></flowRoot>      </g>
    </g>
    <path
       sodipodi:nodetypes="cccc"
       inkscape:connector-curvature="0"
       id="path352"
       d="M 44.971309,42.89401 34.42646,48.982081 v 25.424424 h 4.655756"
       style="fill:none;stroke:#000000;stroke-width:0.26499999;stroke-linecap:butt;stroke-linejoin:miter;stroke-miterlimit:4;stroke-dasharray:none;stroke-opacity:1;marker-end:url(#marker4053)" />
    <path
       sodipodi:nodetypes="cccc"
       inkscape:connector-curvature="0"
       id="path354"
       d="m 67.241962,42.751947 11.135592,6.429137 v 14.07607 h 17.541181"
       style="fill:none;stroke:#000000;stroke-width:0.26499999;stroke-linecap:butt;stroke-linejoin:miter;stroke-miterlimit:4;stroke-dasharray:none;stroke-opacity:1;marker-end:url(#marker1241)" />
    <g
       id="g3471">
      <rect
         transform="translate(0.13363471)"
         y="60.476707"
         x="96.383926"
         height="11.150297"
         width="33.450893"
         id="rect4536"
         style="fill:none;fill-opacity:1;stroke:#000000;stroke-width:0.26458332;stroke-opacity:1" />
      <flowRoot
         transform="matrix(0.26458333,0,0,0.26458333,15.811779,-5.4617089)"
         style="font-style:normal;font-weight:normal;font-size:16px;line-height:1.25;font-family:sans-serif;text-align:center;letter-spacing:0px;word-spacing:0px;text-anchor:middle;fill:#000000;fill-opacity:1;stroke:none"
         id="flowRoot4569"
         xml:space="preserve"><flowRegion
           style="font-size:16px;text-align:center;text-anchor:middle"
           id="flowRegion4571"><rect
             style="font-size:16px;text-align:center;text-anchor:middle"
             y="228.57338"
             x="287.14285"
             height="42.142864"
             width="126.42856"
             id="rect4573" /></flowRegion><flowPara
           style="font-size:10.66666698px"
           id="flowPara4575">Error Evaluation</flowPara></flowRoot>      <g
         id="g3292"
         ns1:jacobian_sqrt="0.499209"
         inkscapeversion="0.92.3"
         ns1:alignment="middle center"
         ns1:scale="1.41508101412"
         ns1:preamble="/home/psiu/.config/inkscape/extensions/textext/default_packages.tex"
         ns1:text="$J(p)$"
         ns1:pdfconverter="pdf2svg"
         ns1:texconverter="pdflatex"
         ns1:version="0.10.0"
         transform="matrix(0.499209,0,0,0.499209,35.058461,-0.22200757)">
        <g
           id="g3290">
          <g
             id="g3276"
             style="fill:#000000;fill-opacity:1">
            <path
               id="path3274"
               transform="translate(148.712,134.765)"
               d="M 5.390625,-6.078125 C 5.46875,-6.40625 5.5,-6.5 6.046875,-6.5 c 0.15625,0 0.265625,0 0.265625,-0.1875 0,-0.09375 -0.0625,-0.125 -0.140625,-0.125 -0.25,0 -0.859375,0.03125 -1.109375,0.03125 -0.328125,0 -1.140625,-0.03125 -1.46875,-0.03125 -0.078125,0 -0.203125,0 -0.203125,0.203125 C 3.390625,-6.5 3.46875,-6.5 3.734375,-6.5 c 0.21875,0 0.328125,0 0.578125,0.015625 0.234375,0.03125 0.296875,0.0625 0.296875,0.203125 0,0.0625 -0.015625,0.125 -0.03125,0.203125 L 3.421875,-1.5 C 3.1875,-0.53125 2.515625,0 2,0 1.734375,0 1.203125,-0.09375 1.046875,-0.625 c 0.03125,0.015625 0.09375,0.015625 0.125,0.015625 0.390625,0 0.640625,-0.34375 0.640625,-0.640625 0,-0.3125 -0.265625,-0.421875 -0.4375,-0.421875 -0.171875,0 -0.671875,0.125 -0.671875,0.796875 0,0.625 0.53125,1.09375 1.328125,1.09375 0.90625,0 1.953125,-0.65625 2.203125,-1.640625 z m 0,0"
               style="stroke:none;stroke-width:0"
               inkscape:connector-curvature="0" />
          </g>
          <g
             id="g3280"
             style="fill:#000000;fill-opacity:1">
            <path
               id="path3278"
               transform="translate(155.195,134.765)"
               d="m 3.296875,2.390625 c 0,-0.03125 0,-0.046875 -0.171875,-0.21875 C 1.890625,0.921875 1.5625,-0.96875 1.5625,-2.5 c 0,-1.734375 0.375,-3.46875 1.609375,-4.703125 0.125,-0.125 0.125,-0.140625 0.125,-0.171875 0,-0.078125 -0.03125,-0.109375 -0.09375,-0.109375 -0.109375,0 -1,0.6875 -1.59375,1.953125 -0.5,1.09375 -0.625,2.203125 -0.625,3.03125 0,0.78125 0.109375,1.984375 0.65625,3.125 C 2.25,1.84375 3.09375,2.5 3.203125,2.5 c 0.0625,0 0.09375,-0.03125 0.09375,-0.109375 z m 0,0"
               style="stroke:none;stroke-width:0"
               inkscape:connector-curvature="0" />
          </g>
          <g
             id="g3284"
             style="fill:#000000;fill-opacity:1">
            <path
               id="path3282"
               transform="translate(159.069,134.765)"
               d="M 0.453125,1.21875 C 0.375,1.5625 0.34375,1.625 -0.09375,1.625 c -0.109375,0 -0.21875,0 -0.21875,0.1875 0,0.078125 0.046875,0.125 0.125,0.125 0.265625,0 0.5625,-0.03125 0.828125,-0.03125 0.34375,0 0.671875,0.03125 1,0.03125 0.046875,0 0.171875,0 0.171875,-0.203125 C 1.8125,1.625 1.71875,1.625 1.578125,1.625 c -0.5,0 -0.5,-0.0625 -0.5,-0.15625 0,-0.125 0.421875,-1.75 0.484375,-2 0.125,0.296875 0.40625,0.640625 0.921875,0.640625 1.15625,0 2.40625,-1.453125 2.40625,-2.921875 0,-0.9375 -0.578125,-1.59375 -1.328125,-1.59375 -0.5,0 -0.984375,0.359375 -1.3125,0.75 -0.09375,-0.546875 -0.53125,-0.75 -0.890625,-0.75 -0.46875,0 -0.65625,0.390625 -0.734375,0.5625 C 0.4375,-3.5 0.3125,-2.90625 0.3125,-2.875 c 0,0.109375 0.09375,0.109375 0.109375,0.109375 0.109375,0 0.109375,-0.015625 0.171875,-0.234375 0.171875,-0.703125 0.375,-1.1875 0.734375,-1.1875 0.171875,0 0.3125,0.078125 0.3125,0.453125 0,0.234375 -0.03125,0.34375 -0.078125,0.515625 z m 1.75,-4.328125 C 2.265625,-3.375 2.546875,-3.65625 2.71875,-3.8125 c 0.359375,-0.296875 0.640625,-0.375 0.8125,-0.375 0.390625,0 0.640625,0.34375 0.640625,0.9375 0,0.59375 -0.328125,1.734375 -0.515625,2.109375 -0.34375,0.703125 -0.8125,1.03125 -1.1875,1.03125 C 1.8125,-0.109375 1.6875,-0.9375 1.6875,-1 c 0,-0.015625 0,-0.03125 0.03125,-0.15625 z m 0,0"
               style="stroke:none;stroke-width:0"
               inkscape:connector-curvature="0" />
          </g>
          <g
             id="g3288"
             style="fill:#000000;fill-opacity:1">
            <path
               id="path3286"
               transform="translate(164.082,134.765)"
               d="m 2.875,-2.5 c 0,-0.765625 -0.109375,-1.96875 -0.65625,-3.109375 -0.59375,-1.21875 -1.453125,-1.875 -1.546875,-1.875 -0.0625,0 -0.109375,0.046875 -0.109375,0.109375 0,0.03125 0,0.046875 0.1875,0.234375 0.984375,0.984375 1.546875,2.5625 1.546875,4.640625 0,1.71875 -0.359375,3.46875 -1.59375,4.71875 C 0.5625,2.34375 0.5625,2.359375 0.5625,2.390625 0.5625,2.453125 0.609375,2.5 0.671875,2.5 0.765625,2.5 1.671875,1.8125 2.25,0.546875 2.765625,-0.546875 2.875,-1.65625 2.875,-2.5 Z m 0,0"
               style="stroke:none;stroke-width:0"
               inkscape:connector-curvature="0" />
          </g>
        </g>
      </g>
    </g>
    <text
       id="text4311"
       y="107.43311"
       x="52.406391"
       style="font-style:normal;font-weight:normal;font-size:10.58333302px;line-height:1.25;font-family:sans-serif;letter-spacing:0px;word-spacing:0px;fill:#000000;fill-opacity:1;stroke:none;stroke-width:0.26458332"
       xml:space="preserve"><tspan
         style="font-size:2.82222223px;stroke-width:0.26458332"
         y="107.43311"
         x="52.406391"
         id="tspan4309"
         sodipodi:role="line">Heuristic Method</tspan></text>
    <text
       xml:space="preserve"
       style="font-style:normal;font-weight:normal;font-size:10.58333302px;line-height:1.25;font-family:sans-serif;letter-spacing:0px;word-spacing:0px;fill:#000000;fill-opacity:1;stroke:none;stroke-width:0.26458332"
       x="52.406391"
       y="141.82895"
       id="text4315"><tspan
         sodipodi:role="line"
         id="tspan4313"
         x="52.406391"
         y="141.82895"
         style="font-size:2.82222223px;stroke-width:0.26458332">Nonlinear Method</tspan></text>
    <g
       id="g1372"
       ns1:jacobian_sqrt="0.499209"
       inkscapeversion="0.92.3"
       ns1:alignment="middle center"
       ns1:scale="1.41508101412"
       ns1:preamble="/home/psiu/.config/inkscape/extensions/textext/default_packages.tex"
       ns1:text="$y$"
       ns1:pdfconverter="pdf2svg"
       ns1:texconverter="pdflatex"
       ns1:version="0.10.0"
       transform="matrix(0.499209,0,0,0.499209,5.3722661,7.021326)">
      <g
         id="g1370">
        <g
           id="g1368"
           style="fill:#000000;fill-opacity:1">
          <path
             id="path1366"
             transform="translate(148.712,134.765)"
             d="m 4.84375,-3.796875 c 0.046875,-0.140625 0.046875,-0.15625 0.046875,-0.234375 0,-0.171875 -0.140625,-0.265625 -0.296875,-0.265625 -0.09375,0 -0.25,0.0625 -0.34375,0.203125 -0.015625,0.0625 -0.109375,0.359375 -0.140625,0.546875 -0.078125,0.25 -0.140625,0.53125 -0.203125,0.796875 l -0.453125,1.796875 c -0.03125,0.140625 -0.46875,0.84375 -1.125,0.84375 -0.5,0 -0.609375,-0.4375 -0.609375,-0.8125 C 1.71875,-1.375 1.890625,-2 2.21875,-2.875 2.375,-3.28125 2.421875,-3.390625 2.421875,-3.59375 c 0,-0.4375 -0.3125,-0.8125 -0.8125,-0.8125 -0.953125,0 -1.3125,1.453125 -1.3125,1.53125 0,0.109375 0.09375,0.109375 0.109375,0.109375 0.109375,0 0.109375,-0.03125 0.15625,-0.1875 0.28125,-0.9375 0.671875,-1.234375 1.015625,-1.234375 0.078125,0 0.25,0 0.25,0.3125 0,0.25 -0.109375,0.515625 -0.171875,0.703125 -0.40625,1.0625 -0.578125,1.625 -0.578125,2.09375 0,0.890625 0.625,1.1875 1.21875,1.1875 0.390625,0 0.71875,-0.171875 1,-0.453125 -0.125,0.515625 -0.25,1.015625 -0.640625,1.546875 -0.265625,0.328125 -0.640625,0.625 -1.09375,0.625 -0.140625,0 -0.59375,-0.03125 -0.765625,-0.421875 0.15625,0 0.296875,0 0.421875,-0.125 C 1.328125,1.203125 1.421875,1.0625 1.421875,0.875 1.421875,0.5625 1.15625,0.53125 1.0625,0.53125 0.828125,0.53125 0.5,0.6875 0.5,1.171875 c 0,0.5 0.4375,0.875 1.0625,0.875 1.015625,0 2.046875,-0.90625 2.328125,-2.03125 z m 0,0"
             style="stroke:none;stroke-width:0"
             inkscape:connector-curvature="0" />
        </g>
      </g>
    </g>
    <g
       transform="matrix(0.499209,0,0,0.499209,5.2608955,-15.467835)"
       ns1:version="0.10.0"
       ns1:texconverter="pdflatex"
       ns1:pdfconverter="pdf2svg"
       ns1:text="$y_{r}$"
       ns1:preamble="/home/psiu/.config/inkscape/extensions/textext/default_packages.tex"
       ns1:scale="1.41508101412"
       ns1:alignment="middle center"
       inkscapeversion="0.92.3"
       ns1:jacobian_sqrt="0.499209"
       id="g1722">
      <g
         id="g1720">
        <g
           style="fill:#000000;fill-opacity:1"
           id="g1714">
          <path
             inkscape:connector-curvature="0"
             style="stroke:none;stroke-width:0"
             d="m 4.84375,-3.796875 c 0.046875,-0.140625 0.046875,-0.15625 0.046875,-0.234375 0,-0.171875 -0.140625,-0.265625 -0.296875,-0.265625 -0.09375,0 -0.25,0.0625 -0.34375,0.203125 -0.015625,0.0625 -0.109375,0.359375 -0.140625,0.546875 -0.078125,0.25 -0.140625,0.53125 -0.203125,0.796875 l -0.453125,1.796875 c -0.03125,0.140625 -0.46875,0.84375 -1.125,0.84375 -0.5,0 -0.609375,-0.4375 -0.609375,-0.8125 C 1.71875,-1.375 1.890625,-2 2.21875,-2.875 2.375,-3.28125 2.421875,-3.390625 2.421875,-3.59375 c 0,-0.4375 -0.3125,-0.8125 -0.8125,-0.8125 -0.953125,0 -1.3125,1.453125 -1.3125,1.53125 0,0.109375 0.09375,0.109375 0.109375,0.109375 0.109375,0 0.109375,-0.03125 0.15625,-0.1875 0.28125,-0.9375 0.671875,-1.234375 1.015625,-1.234375 0.078125,0 0.25,0 0.25,0.3125 0,0.25 -0.109375,0.515625 -0.171875,0.703125 -0.40625,1.0625 -0.578125,1.625 -0.578125,2.09375 0,0.890625 0.625,1.1875 1.21875,1.1875 0.390625,0 0.71875,-0.171875 1,-0.453125 -0.125,0.515625 -0.25,1.015625 -0.640625,1.546875 -0.265625,0.328125 -0.640625,0.625 -1.09375,0.625 -0.140625,0 -0.59375,-0.03125 -0.765625,-0.421875 0.15625,0 0.296875,0 0.421875,-0.125 C 1.328125,1.203125 1.421875,1.0625 1.421875,0.875 1.421875,0.5625 1.15625,0.53125 1.0625,0.53125 0.828125,0.53125 0.5,0.6875 0.5,1.171875 c 0,0.5 0.4375,0.875 1.0625,0.875 1.015625,0 2.046875,-0.90625 2.328125,-2.03125 z m 0,0"
             transform="translate(148.712,134.765)"
             id="path1712" />
        </g>
        <g
           style="fill:#000000;fill-opacity:1"
           id="g1718">
          <path
             inkscape:connector-curvature="0"
             style="stroke:none;stroke-width:0"
             d="m 1.640625,-1.40625 c 0,-0.046875 0.171875,-0.671875 0.171875,-0.703125 0.015625,-0.0625 0.21875,-0.40625 0.453125,-0.578125 0.0625,-0.046875 0.25,-0.1875 0.5625,-0.1875 0.0625,0 0.234375,0 0.375,0.09375 -0.21875,0.0625 -0.296875,0.265625 -0.296875,0.390625 0,0.140625 0.109375,0.25 0.265625,0.25 0.171875,0 0.390625,-0.125 0.390625,-0.421875 0,-0.359375 -0.375,-0.515625 -0.734375,-0.515625 -0.359375,0 -0.671875,0.15625 -0.984375,0.5 -0.125,-0.421875 -0.546875,-0.5 -0.71875,-0.5 -0.25,0 -0.421875,0.171875 -0.546875,0.359375 -0.15625,0.265625 -0.25,0.671875 -0.25,0.71875 0,0.078125 0.09375,0.078125 0.125,0.078125 0.09375,0 0.09375,-0.015625 0.140625,-0.203125 0.109375,-0.421875 0.25,-0.75 0.515625,-0.75 0.1875,0 0.234375,0.15625 0.234375,0.34375 0,0.125 -0.0625,0.390625 -0.125,0.578125 -0.046875,0.1875 -0.109375,0.46875 -0.140625,0.625 L 0.84375,-0.4375 C 0.828125,-0.34375 0.78125,-0.171875 0.78125,-0.15625 0.78125,0 0.90625,0.0625 1.015625,0.0625 1.125,0.0625 1.265625,0 1.3125,-0.125 1.328125,-0.171875 1.40625,-0.484375 1.453125,-0.65625 Z m 0,0"
             transform="translate(153.597,136.259)"
             id="path1716" />
        </g>
      </g>
    </g>
    <g
       id="g2080"
       ns1:jacobian_sqrt="0.499209"
       inkscapeversion="0.92.3"
       ns1:alignment="middle center"
       ns1:scale="1.41508101412"
       ns1:preamble="/home/psiu/.config/inkscape/extensions/textext/default_packages.tex"
       ns1:text="$u$"
       ns1:pdfconverter="pdf2svg"
       ns1:texconverter="pdflatex"
       ns1:version="0.10.0"
       transform="matrix(0.499209,0,0,0.499209,-43.539007,6.7904773)">
      <g
         id="g2078">
        <g
           id="g2076"
           style="fill:#000000;fill-opacity:1">
          <path
             id="path2074"
             transform="translate(148.712,134.765)"
             d="M 3.484375,-0.5625 C 3.59375,-0.15625 3.953125,0.109375 4.375,0.109375 4.71875,0.109375 4.953125,-0.125 5.109375,-0.4375 5.28125,-0.796875 5.40625,-1.40625 5.40625,-1.421875 c 0,-0.109375 -0.078125,-0.109375 -0.109375,-0.109375 -0.109375,0 -0.109375,0.046875 -0.140625,0.1875 -0.140625,0.5625 -0.328125,1.234375 -0.75,1.234375 -0.203125,0 -0.3125,-0.125 -0.3125,-0.453125 0,-0.21875 0.125,-0.6875 0.203125,-1.046875 L 4.578125,-2.6875 C 4.609375,-2.828125 4.703125,-3.203125 4.75,-3.359375 4.796875,-3.59375 4.890625,-3.96875 4.890625,-4.03125 c 0,-0.171875 -0.140625,-0.265625 -0.28125,-0.265625 -0.046875,0 -0.3125,0.015625 -0.390625,0.34375 -0.1875,0.734375 -0.625,2.484375 -0.75,3 -0.015625,0.046875 -0.40625,0.84375 -1.140625,0.84375 -0.515625,0 -0.609375,-0.453125 -0.609375,-0.8125 0,-0.5625 0.28125,-1.34375 0.53125,-2.03125 0.125,-0.3125 0.171875,-0.453125 0.171875,-0.640625 0,-0.4375 -0.3125,-0.8125 -0.8125,-0.8125 -0.953125,0 -1.3125,1.453125 -1.3125,1.53125 0,0.109375 0.09375,0.109375 0.109375,0.109375 0.109375,0 0.109375,-0.03125 0.15625,-0.1875 0.25,-0.859375 0.640625,-1.234375 1.015625,-1.234375 0.09375,0 0.25,0.015625 0.25,0.328125 0,0.234375 -0.109375,0.53125 -0.171875,0.671875 -0.375,1 -0.578125,1.609375 -0.578125,2.09375 0,0.953125 0.6875,1.203125 1.21875,1.203125 0.65625,0 1.015625,-0.453125 1.1875,-0.671875 z m 0,0"
             style="stroke:none;stroke-width:0"
             inkscape:connector-curvature="0" />
        </g>
      </g>
    </g>
  </g>
</svg>
