<?xml version="1.0" encoding="UTF-8" standalone="no"?>
<!-- Created with Inkscape (http://www.inkscape.org/) -->

<svg
   xmlns:ns1="http://www.iki.fi/pav/software/textext/"
   xmlns:dc="http://purl.org/dc/elements/1.1/"
   xmlns:cc="http://creativecommons.org/ns#"
   xmlns:rdf="http://www.w3.org/1999/02/22-rdf-syntax-ns#"
   xmlns:svg="http://www.w3.org/2000/svg"
   xmlns="http://www.w3.org/2000/svg"
   xmlns:sodipodi="http://sodipodi.sourceforge.net/DTD/sodipodi-0.dtd"
   xmlns:inkscape="http://www.inkscape.org/namespaces/inkscape"
   width="111.52322mm"
   height="137.76674mm"
   viewBox="0 0 111.52322 137.76674"
   version="1.1"
   id="svg8"
   inkscape:version="0.92.3 (2405546, 2018-03-11)"
   sodipodi:docname="Flowchart.svg">
  <sodipodi:namedview
     id="base"
     pagecolor="#ffffff"
     bordercolor="#666666"
     borderopacity="1.0"
     inkscape:pageopacity="0.0"
     inkscape:pageshadow="2"
     inkscape:zoom="0.7"
     inkscape:cx="365.45516"
     inkscape:cy="212.004"
     inkscape:document-units="mm"
     inkscape:current-layer="layer1"
     showgrid="false"
     inkscape:window-width="1366"
     inkscape:window-height="713"
     inkscape:window-x="0"
     inkscape:window-y="27"
     inkscape:window-maximized="1"
     fit-margin-top="0"
     fit-margin-left="0"
     fit-margin-right="0"
     fit-margin-bottom="0" />
  <defs
     id="defs2">
    <marker
       inkscape:stockid="Arrow2Lend"
       orient="auto"
       refY="0"
       refX="0"
       id="marker5941"
       style="overflow:visible"
       inkscape:isstock="true">
      <path
         id="path5939"
         style="fill:#000000;fill-opacity:1;fill-rule:evenodd;stroke:#000000;stroke-width:0.625;stroke-linejoin:round;stroke-opacity:1"
         d="M 8.7185878,4.0337352 -2.2072895,0.01601326 8.7185884,-4.0017078 c -1.7454984,2.3720609 -1.7354408,5.6174519 -6e-7,8.035443 z"
         transform="matrix(-1.1,0,0,-1.1,-1.1,0)"
         inkscape:connector-curvature="0" />
    </marker>
    <marker
       inkscape:stockid="Arrow2Lend"
       orient="auto"
       refY="0"
       refX="0"
       id="marker5827"
       style="overflow:visible"
       inkscape:isstock="true">
      <path
         id="path5825"
         style="fill:#000000;fill-opacity:1;fill-rule:evenodd;stroke:#000000;stroke-width:0.625;stroke-linejoin:round;stroke-opacity:1"
         d="M 8.7185878,4.0337352 -2.2072895,0.01601326 8.7185884,-4.0017078 c -1.7454984,2.3720609 -1.7354408,5.6174519 -6e-7,8.035443 z"
         transform="matrix(-1.1,0,0,-1.1,-1.1,0)"
         inkscape:connector-curvature="0" />
    </marker>
    <marker
       inkscape:isstock="true"
       style="overflow:visible"
       id="marker5783"
       refX="0"
       refY="0"
       orient="auto"
       inkscape:stockid="Arrow2Lend"
       inkscape:collect="always">
      <path
         transform="matrix(-1.1,0,0,-1.1,-1.1,0)"
         d="M 8.7185878,4.0337352 -2.2072895,0.01601326 8.7185884,-4.0017078 c -1.7454984,2.3720609 -1.7354408,5.6174519 -6e-7,8.035443 z"
         style="fill:#000000;fill-opacity:1;fill-rule:evenodd;stroke:#000000;stroke-width:0.625;stroke-linejoin:round;stroke-opacity:1"
         id="path5781"
         inkscape:connector-curvature="0" />
    </marker>
    <marker
       inkscape:isstock="true"
       style="overflow:visible"
       id="marker5719"
       refX="0"
       refY="0"
       orient="auto"
       inkscape:stockid="Arrow2Lend"
       inkscape:collect="always">
      <path
         transform="matrix(-1.1,0,0,-1.1,-1.1,0)"
         d="M 8.7185878,4.0337352 -2.2072895,0.01601326 8.7185884,-4.0017078 c -1.7454984,2.3720609 -1.7354408,5.6174519 -6e-7,8.035443 z"
         style="fill:#000000;fill-opacity:1;fill-rule:evenodd;stroke:#000000;stroke-width:0.625;stroke-linejoin:round;stroke-opacity:1"
         id="path5717"
         inkscape:connector-curvature="0" />
    </marker>
    <marker
       inkscape:stockid="Arrow2Lend"
       orient="auto"
       refY="0"
       refX="0"
       id="marker5663"
       style="overflow:visible"
       inkscape:isstock="true"
       inkscape:collect="always">
      <path
         id="path5661"
         style="fill:#000000;fill-opacity:1;fill-rule:evenodd;stroke:#000000;stroke-width:0.625;stroke-linejoin:round;stroke-opacity:1"
         d="M 8.7185878,4.0337352 -2.2072895,0.01601326 8.7185884,-4.0017078 c -1.7454984,2.3720609 -1.7354408,5.6174519 -6e-7,8.035443 z"
         transform="matrix(-1.1,0,0,-1.1,-1.1,0)"
         inkscape:connector-curvature="0" />
    </marker>
    <marker
       inkscape:stockid="Arrow2Lend"
       orient="auto"
       refY="0"
       refX="0"
       id="marker5617"
       style="overflow:visible"
       inkscape:isstock="true"
       inkscape:collect="always">
      <path
         id="path5615"
         style="fill:#000000;fill-opacity:1;fill-rule:evenodd;stroke:#000000;stroke-width:0.625;stroke-linejoin:round;stroke-opacity:1"
         d="M 8.7185878,4.0337352 -2.2072895,0.01601326 8.7185884,-4.0017078 c -1.7454984,2.3720609 -1.7354408,5.6174519 -6e-7,8.035443 z"
         transform="matrix(-1.1,0,0,-1.1,-1.1,0)"
         inkscape:connector-curvature="0" />
    </marker>
    <marker
       inkscape:isstock="true"
       style="overflow:visible"
       id="marker5515"
       refX="0"
       refY="0"
       orient="auto"
       inkscape:stockid="Arrow2Lend"
       inkscape:collect="always">
      <path
         transform="matrix(-1.1,0,0,-1.1,-1.1,0)"
         d="M 8.7185878,4.0337352 -2.2072895,0.01601326 8.7185884,-4.0017078 c -1.7454984,2.3720609 -1.7354408,5.6174519 -6e-7,8.035443 z"
         style="fill:#000000;fill-opacity:1;fill-rule:evenodd;stroke:#000000;stroke-width:0.625;stroke-linejoin:round;stroke-opacity:1"
         id="path5513"
         inkscape:connector-curvature="0" />
    </marker>
    <marker
       inkscape:isstock="true"
       style="overflow:visible"
       id="marker5443"
       refX="0"
       refY="0"
       orient="auto"
       inkscape:stockid="Arrow2Lend"
       inkscape:collect="always">
      <path
         transform="matrix(-1.1,0,0,-1.1,-1.1,0)"
         d="M 8.7185878,4.0337352 -2.2072895,0.01601326 8.7185884,-4.0017078 c -1.7454984,2.3720609 -1.7354408,5.6174519 -6e-7,8.035443 z"
         style="fill:#000000;fill-opacity:1;fill-rule:evenodd;stroke:#000000;stroke-width:0.625;stroke-linejoin:round;stroke-opacity:1"
         id="path5441"
         inkscape:connector-curvature="0" />
    </marker>
    <marker
       inkscape:stockid="Arrow2Lend"
       orient="auto"
       refY="0"
       refX="0"
       id="marker5287"
       style="overflow:visible"
       inkscape:isstock="true"
       inkscape:collect="always">
      <path
         id="path5285"
         style="fill:#000000;fill-opacity:1;fill-rule:evenodd;stroke:#000000;stroke-width:0.625;stroke-linejoin:round;stroke-opacity:1"
         d="M 8.7185878,4.0337352 -2.2072895,0.01601326 8.7185884,-4.0017078 c -1.7454984,2.3720609 -1.7354408,5.6174519 -6e-7,8.035443 z"
         transform="matrix(-1.1,0,0,-1.1,-1.1,0)"
         inkscape:connector-curvature="0" />
    </marker>
    <marker
       inkscape:stockid="Arrow2Lend"
       orient="auto"
       refY="0"
       refX="0"
       id="marker5263"
       style="overflow:visible"
       inkscape:isstock="true"
       inkscape:collect="always">
      <path
         id="path5261"
         style="fill:#000000;fill-opacity:1;fill-rule:evenodd;stroke:#000000;stroke-width:0.625;stroke-linejoin:round;stroke-opacity:1"
         d="M 8.7185878,4.0337352 -2.2072895,0.01601326 8.7185884,-4.0017078 c -1.7454984,2.3720609 -1.7354408,5.6174519 -6e-7,8.035443 z"
         transform="matrix(-1.1,0,0,-1.1,-1.1,0)"
         inkscape:connector-curvature="0" />
    </marker>
    <marker
       inkscape:stockid="Arrow2Lend"
       orient="auto"
       refY="0"
       refX="0"
       id="Arrow2Lend"
       style="overflow:visible"
       inkscape:isstock="true">
      <path
         id="path4938"
         style="fill:#000000;fill-opacity:1;fill-rule:evenodd;stroke:#000000;stroke-width:0.625;stroke-linejoin:round;stroke-opacity:1"
         d="M 8.7185878,4.0337352 -2.2072895,0.01601326 8.7185884,-4.0017078 c -1.7454984,2.3720609 -1.7354408,5.6174519 -6e-7,8.035443 z"
         transform="matrix(-1.1,0,0,-1.1,-1.1,0)"
         inkscape:connector-curvature="0" />
    </marker>
    <marker
       inkscape:stockid="Arrow1Lstart"
       orient="auto"
       refY="0"
       refX="0"
       id="marker5195"
       style="overflow:visible"
       inkscape:isstock="true">
      <path
         id="path5193"
         d="M 0,0 5,-5 -12.5,0 5,5 Z"
         style="fill:#000000;fill-opacity:1;fill-rule:evenodd;stroke:#000000;stroke-width:1.00000003pt;stroke-opacity:1"
         transform="matrix(0.8,0,0,0.8,10,0)"
         inkscape:connector-curvature="0" />
    </marker>
    <marker
       inkscape:stockid="Arrow1Lstart"
       orient="auto"
       refY="0"
       refX="0"
       id="Arrow1Lstart"
       style="overflow:visible"
       inkscape:isstock="true">
      <path
         id="path4917"
         d="M 0,0 5,-5 -12.5,0 5,5 Z"
         style="fill:#000000;fill-opacity:1;fill-rule:evenodd;stroke:#000000;stroke-width:1.00000003pt;stroke-opacity:1"
         transform="matrix(0.8,0,0,0.8,10,0)"
         inkscape:connector-curvature="0" />
    </marker>
  </defs>
  <metadata
     id="metadata5">
    <rdf:RDF>
      <cc:Work
         rdf:about="">
        <dc:format>image/svg+xml</dc:format>
        <dc:type
           rdf:resource="http://purl.org/dc/dcmitype/StillImage" />
        <dc:title></dc:title>
      </cc:Work>
    </rdf:RDF>
  </metadata>
  <g
     inkscape:label="Layer 1"
     inkscape:groupmode="layer"
     id="layer1"
     transform="translate(-18.577528,-26.740789)">
    <g
       id="g5344"
       transform="translate(0.53453906)">
      <rect
         style="fill:none;fill-opacity:1;stroke:#000000;stroke-width:0.26458332;stroke-opacity:1"
         id="rect4538"
         width="33.450893"
         height="11.150297"
         x="39.120533"
         y="45.357658" />
      <flowRoot
         transform="matrix(0.26458333,0,0,0.26458333,20.410714,0.52916667)"
         style="font-style:normal;font-weight:normal;font-size:16px;line-height:1.25;font-family:sans-serif;letter-spacing:0px;word-spacing:0px;fill:#000000;fill-opacity:1;stroke:none"
         id="flowRoot4551"
         xml:space="preserve"><flowRegion
           style="font-size:16px"
           id="flowRegion4553"><rect
             style="font-size:16px"
             y="171.43053"
             x="70.714279"
             height="42.142864"
             width="126.42857"
             id="rect4555" /></flowRegion><flowPara
           style="text-align:center;text-anchor:middle"
           id="flowPara4557">Real</flowPara><flowPara
           style="text-align:center;text-anchor:middle"
           id="flowPara4559">System</flowPara></flowRoot>    </g>
    <g
       id="g5336"
       transform="translate(0.53453906)">
      <rect
         y="69.548134"
         x="39.120533"
         height="11.150297"
         width="33.450893"
         id="rect4540"
         style="fill:none;fill-opacity:1;stroke:#000000;stroke-width:0.26458332;stroke-opacity:1" />
      <flowRoot
         transform="matrix(0.26458333,0,0,0.26458333,20.410714,3.1750001)"
         style="font-style:normal;font-weight:normal;font-size:16px;line-height:1.25;font-family:sans-serif;text-align:center;letter-spacing:0px;word-spacing:0px;text-anchor:middle;fill:#000000;fill-opacity:1;stroke:none"
         id="flowRoot4561"
         xml:space="preserve"><flowRegion
           style="font-size:16px;text-align:center;text-anchor:middle"
           id="flowRegion4563"><rect
             style="font-size:16px;text-align:center;text-anchor:middle"
             y="262.8591"
             x="70.714279"
             height="42.142864"
             width="126.42857"
             id="rect4565" /></flowRegion><flowPara
           id="flowPara4567">Model</flowPara></flowRoot>    </g>
    <g
       id="g5351"
       transform="translate(0.13363477)">
      <rect
         y="60.476707"
         x="96.383926"
         height="11.150297"
         width="33.450893"
         id="rect4536"
         style="fill:none;fill-opacity:1;stroke:#000000;stroke-width:0.26458332;stroke-opacity:1" />
      <flowRoot
         transform="matrix(0.26458333,0,0,0.26458333,20.410714,0.52916667)"
         style="font-style:normal;font-weight:normal;font-size:16px;line-height:1.25;font-family:sans-serif;text-align:center;letter-spacing:0px;word-spacing:0px;text-anchor:middle;fill:#000000;fill-opacity:1;stroke:none"
         id="flowRoot4569"
         xml:space="preserve"><flowRegion
           style="font-size:16px;text-align:center;text-anchor:middle"
           id="flowRegion4571"><rect
             style="font-size:16px;text-align:center;text-anchor:middle"
             y="228.57338"
             x="287.14285"
             height="42.142864"
             width="126.42856"
             id="rect4573" /></flowRegion><flowPara
           id="flowPara4575">Error Evaluation</flowPara></flowRoot>    </g>
    <flowRoot
       xml:space="preserve"
       id="flowRoot4577"
       style="font-style:normal;font-weight:normal;font-size:40px;line-height:1.25;font-family:sans-serif;letter-spacing:0px;word-spacing:0px;fill:#000000;fill-opacity:1;stroke:none"
       transform="scale(0.26458333)"><flowRegion
         id="flowRegion4579"><rect
           id="rect4581"
           width="83.842659"
           height="50.507626"
           x="314.15744"
           y="301.26566" /></flowRegion><flowPara
         id="flowPara4583" /></flowRoot>    <g
       id="g5370"
       transform="translate(-12.85119,-6.2744047)">
      <path
         transform="matrix(1,0,0,0.57191367,77.730135,59.432343)"
         style="fill:none;fill-opacity:1;stroke:#000000;stroke-width:0.26458332;stroke-opacity:1"
         d="M 49.136906,96.690612 33.243917,80.797623 49.136905,64.904634 65.029895,80.797622 Z"
         inkscape:randomized="0"
         inkscape:rounded="0"
         inkscape:flatsided="true"
         sodipodi:arg2="2.3561945"
         sodipodi:arg1="1.5707963"
         sodipodi:r2="11.23804"
         sodipodi:r1="15.892989"
         sodipodi:cy="80.797623"
         sodipodi:cx="49.136906"
         sodipodi:sides="4"
         id="path12"
         sodipodi:type="star" />
      <g
         id="g4642"
         ns1:jacobian_sqrt="0.352778"
         ns1:alignment="middle center"
         ns1:scale="1.0"
         ns1:preamble="/home/psiu/.config/inkscape/extensions/textext/default_packages.tex"
         ns1:text="$J(p) \\leq t_{1}$"
         ns1:pdfconverter="pdf2svg"
         ns1:texconverter="pdflatex"
         ns1:version="0.10.0"
         transform="matrix(0.49920945,0,0,0.49920945,42.366316,39.596448)">
        <g
           id="surface1">
          <g
             id="g4615"
             style="fill:#000000;fill-opacity:1">
            <path
               id="path4613"
               transform="translate(148.712,134.765)"
               d="M 5.390625,-6.078125 C 5.46875,-6.40625 5.5,-6.5 6.046875,-6.5 c 0.15625,0 0.265625,0 0.265625,-0.1875 0,-0.09375 -0.0625,-0.125 -0.140625,-0.125 -0.25,0 -0.859375,0.03125 -1.109375,0.03125 -0.328125,0 -1.140625,-0.03125 -1.46875,-0.03125 -0.078125,0 -0.203125,0 -0.203125,0.203125 C 3.390625,-6.5 3.46875,-6.5 3.734375,-6.5 c 0.21875,0 0.328125,0 0.578125,0.015625 0.234375,0.03125 0.296875,0.0625 0.296875,0.203125 0,0.0625 -0.015625,0.125 -0.03125,0.203125 L 3.421875,-1.5 C 3.1875,-0.53125 2.515625,0 2,0 1.734375,0 1.203125,-0.09375 1.046875,-0.625 c 0.03125,0.015625 0.09375,0.015625 0.125,0.015625 0.390625,0 0.640625,-0.34375 0.640625,-0.640625 0,-0.3125 -0.265625,-0.421875 -0.4375,-0.421875 -0.171875,0 -0.671875,0.125 -0.671875,0.796875 0,0.625 0.53125,1.09375 1.328125,1.09375 0.90625,0 1.953125,-0.65625 2.203125,-1.640625 z m 0,0"
               style="stroke:none;stroke-width:0"
               inkscape:connector-curvature="0" />
          </g>
          <g
             id="g4619"
             style="fill:#000000;fill-opacity:1">
            <path
               id="path4617"
               transform="translate(155.195,134.765)"
               d="m 3.296875,2.390625 c 0,-0.03125 0,-0.046875 -0.171875,-0.21875 C 1.890625,0.921875 1.5625,-0.96875 1.5625,-2.5 c 0,-1.734375 0.375,-3.46875 1.609375,-4.703125 0.125,-0.125 0.125,-0.140625 0.125,-0.171875 0,-0.078125 -0.03125,-0.109375 -0.09375,-0.109375 -0.109375,0 -1,0.6875 -1.59375,1.953125 -0.5,1.09375 -0.625,2.203125 -0.625,3.03125 0,0.78125 0.109375,1.984375 0.65625,3.125 C 2.25,1.84375 3.09375,2.5 3.203125,2.5 c 0.0625,0 0.09375,-0.03125 0.09375,-0.109375 z m 0,0"
               style="stroke:none;stroke-width:0"
               inkscape:connector-curvature="0" />
          </g>
          <g
             id="g4623"
             style="fill:#000000;fill-opacity:1">
            <path
               id="path4621"
               transform="translate(159.069,134.765)"
               d="M 0.453125,1.21875 C 0.375,1.5625 0.34375,1.625 -0.09375,1.625 c -0.109375,0 -0.21875,0 -0.21875,0.1875 0,0.078125 0.046875,0.125 0.125,0.125 0.265625,0 0.5625,-0.03125 0.828125,-0.03125 0.34375,0 0.671875,0.03125 1,0.03125 0.046875,0 0.171875,0 0.171875,-0.203125 C 1.8125,1.625 1.71875,1.625 1.578125,1.625 c -0.5,0 -0.5,-0.0625 -0.5,-0.15625 0,-0.125 0.421875,-1.75 0.484375,-2 0.125,0.296875 0.40625,0.640625 0.921875,0.640625 1.15625,0 2.40625,-1.453125 2.40625,-2.921875 0,-0.9375 -0.578125,-1.59375 -1.328125,-1.59375 -0.5,0 -0.984375,0.359375 -1.3125,0.75 -0.09375,-0.546875 -0.53125,-0.75 -0.890625,-0.75 -0.46875,0 -0.65625,0.390625 -0.734375,0.5625 C 0.4375,-3.5 0.3125,-2.90625 0.3125,-2.875 c 0,0.109375 0.09375,0.109375 0.109375,0.109375 0.109375,0 0.109375,-0.015625 0.171875,-0.234375 0.171875,-0.703125 0.375,-1.1875 0.734375,-1.1875 0.171875,0 0.3125,0.078125 0.3125,0.453125 0,0.234375 -0.03125,0.34375 -0.078125,0.515625 z m 1.75,-4.328125 C 2.265625,-3.375 2.546875,-3.65625 2.71875,-3.8125 c 0.359375,-0.296875 0.640625,-0.375 0.8125,-0.375 0.390625,0 0.640625,0.34375 0.640625,0.9375 0,0.59375 -0.328125,1.734375 -0.515625,2.109375 -0.34375,0.703125 -0.8125,1.03125 -1.1875,1.03125 C 1.8125,-0.109375 1.6875,-0.9375 1.6875,-1 c 0,-0.015625 0,-0.03125 0.03125,-0.15625 z m 0,0"
               style="stroke:none;stroke-width:0"
               inkscape:connector-curvature="0" />
          </g>
          <g
             id="g4627"
             style="fill:#000000;fill-opacity:1">
            <path
               id="path4625"
               transform="translate(164.082,134.765)"
               d="m 2.875,-2.5 c 0,-0.765625 -0.109375,-1.96875 -0.65625,-3.109375 -0.59375,-1.21875 -1.453125,-1.875 -1.546875,-1.875 -0.0625,0 -0.109375,0.046875 -0.109375,0.109375 0,0.03125 0,0.046875 0.1875,0.234375 0.984375,0.984375 1.546875,2.5625 1.546875,4.640625 0,1.71875 -0.359375,3.46875 -1.59375,4.71875 C 0.5625,2.34375 0.5625,2.359375 0.5625,2.390625 0.5625,2.453125 0.609375,2.5 0.671875,2.5 0.765625,2.5 1.671875,1.8125 2.25,0.546875 2.765625,-0.546875 2.875,-1.65625 2.875,-2.5 Z m 0,0"
               style="stroke:none;stroke-width:0"
               inkscape:connector-curvature="0" />
          </g>
          <g
             id="g4631"
             style="fill:#000000;fill-opacity:1">
            <path
               id="path4629"
               transform="translate(170.723,134.765)"
               d="m 6.734375,-5.921875 c 0.109375,-0.046875 0.1875,-0.09375 0.1875,-0.21875 0,-0.109375 -0.078125,-0.203125 -0.203125,-0.203125 -0.046875,0 -0.140625,0.046875 -0.171875,0.0625 L 1.03125,-3.671875 c -0.171875,0.078125 -0.203125,0.140625 -0.203125,0.21875 0,0.09375 0.0625,0.15625 0.203125,0.21875 l 5.515625,2.59375 C 6.671875,-0.5625 6.6875,-0.5625 6.71875,-0.5625 c 0.109375,0 0.203125,-0.09375 0.203125,-0.203125 C 6.921875,-0.859375 6.875,-0.921875 6.703125,-1 L 1.5,-3.453125 Z M 6.5625,1.359375 c 0.171875,0 0.359375,0 0.359375,-0.1875 0,-0.203125 -0.21875,-0.203125 -0.359375,-0.203125 h -5.375 c -0.15625,0 -0.359375,0 -0.359375,0.203125 0,0.1875 0.171875,0.1875 0.34375,0.1875 z m 0,0"
               style="stroke:none;stroke-width:0"
               inkscape:connector-curvature="0" />
          </g>
          <g
             id="g4635"
             style="fill:#000000;fill-opacity:1">
            <path
               id="path4633"
               transform="translate(181.24,134.765)"
               d="m 2.046875,-3.984375 h 0.9375 c 0.203125,0 0.3125,0 0.3125,-0.203125 0,-0.109375 -0.109375,-0.109375 -0.28125,-0.109375 h -0.875 C 2.5,-5.71875 2.546875,-5.90625 2.546875,-5.96875 c 0,-0.171875 -0.125,-0.265625 -0.296875,-0.265625 -0.03125,0 -0.3125,0 -0.390625,0.359375 L 1.46875,-4.296875 h -0.9375 c -0.203125,0 -0.296875,0 -0.296875,0.1875 0,0.125 0.078125,0.125 0.28125,0.125 h 0.875 C 0.671875,-1.15625 0.625,-0.984375 0.625,-0.8125 0.625,-0.265625 1,0.109375 1.546875,0.109375 2.5625,0.109375 3.125,-1.34375 3.125,-1.421875 3.125,-1.53125 3.046875,-1.53125 3.015625,-1.53125 2.921875,-1.53125 2.90625,-1.5 2.859375,-1.390625 2.4375,-0.34375 1.90625,-0.109375 1.5625,-0.109375 c -0.203125,0 -0.3125,-0.125 -0.3125,-0.453125 0,-0.25 0.03125,-0.3125 0.0625,-0.484375 z m 0,0"
               style="stroke:none;stroke-width:0"
               inkscape:connector-curvature="0" />
          </g>
          <g
             id="g4639"
             style="fill:#000000;fill-opacity:1">
            <path
               id="path4637"
               transform="translate(184.837,136.259)"
               d="m 2.328125,-4.4375 c 0,-0.1875 0,-0.1875 -0.203125,-0.1875 -0.453125,0.4375 -1.078125,0.4375 -1.359375,0.4375 v 0.25 c 0.15625,0 0.625,0 1,-0.1875 v 3.546875 c 0,0.234375 0,0.328125 -0.6875,0.328125 H 0.8125 V 0 c 0.125,0 0.984375,-0.03125 1.234375,-0.03125 0.21875,0 1.09375,0.03125 1.25,0.03125 V -0.25 H 3.03125 c -0.703125,0 -0.703125,-0.09375 -0.703125,-0.328125 z m 0,0"
               style="stroke:none;stroke-width:0"
               inkscape:connector-curvature="0" />
          </g>
        </g>
      </g>
    </g>
    <g
       id="g5403"
       transform="translate(-12.85119,-8.5368894)">
      <path
         sodipodi:type="star"
         id="path4534"
         sodipodi:sides="4"
         sodipodi:cx="49.136906"
         sodipodi:cy="80.797623"
         sodipodi:r1="15.892989"
         sodipodi:r2="11.23804"
         sodipodi:arg1="1.5707963"
         sodipodi:arg2="2.3561945"
         inkscape:flatsided="true"
         inkscape:rounded="0"
         inkscape:randomized="0"
         d="M 49.136906,96.690612 33.243917,80.797623 49.136905,64.904634 65.029895,80.797622 Z"
         style="fill:none;fill-opacity:1;stroke:#000000;stroke-width:0.26458332;stroke-opacity:1"
         transform="matrix(1,0,0,0.57191367,77.730135,95.907046)" />
      <g
         transform="matrix(0.499209,0,0,0.499209,42.311791,75.882222)"
         ns1:version="0.10.0"
         ns1:texconverter="pdflatex"
         ns1:pdfconverter="pdf2svg"
         ns1:text="$J(p) \\leq t_{2}$"
         ns1:preamble="/home/psiu/.config/inkscape/extensions/textext/default_packages.tex"
         ns1:scale="1.41508101412"
         ns1:alignment="middle center"
         ns1:jacobian_sqrt="0.499209"
         id="g4796">
        <g
           id="g4794">
          <g
             style="fill:#000000;fill-opacity:1"
             id="g4768">
            <path
               inkscape:connector-curvature="0"
               style="stroke:none;stroke-width:0"
               d="M 5.390625,-6.078125 C 5.46875,-6.40625 5.5,-6.5 6.046875,-6.5 c 0.15625,0 0.265625,0 0.265625,-0.1875 0,-0.09375 -0.0625,-0.125 -0.140625,-0.125 -0.25,0 -0.859375,0.03125 -1.109375,0.03125 -0.328125,0 -1.140625,-0.03125 -1.46875,-0.03125 -0.078125,0 -0.203125,0 -0.203125,0.203125 C 3.390625,-6.5 3.46875,-6.5 3.734375,-6.5 c 0.21875,0 0.328125,0 0.578125,0.015625 0.234375,0.03125 0.296875,0.0625 0.296875,0.203125 0,0.0625 -0.015625,0.125 -0.03125,0.203125 L 3.421875,-1.5 C 3.1875,-0.53125 2.515625,0 2,0 1.734375,0 1.203125,-0.09375 1.046875,-0.625 c 0.03125,0.015625 0.09375,0.015625 0.125,0.015625 0.390625,0 0.640625,-0.34375 0.640625,-0.640625 0,-0.3125 -0.265625,-0.421875 -0.4375,-0.421875 -0.171875,0 -0.671875,0.125 -0.671875,0.796875 0,0.625 0.53125,1.09375 1.328125,1.09375 0.90625,0 1.953125,-0.65625 2.203125,-1.640625 z m 0,0"
               transform="translate(148.712,134.765)"
               id="path4766" />
          </g>
          <g
             style="fill:#000000;fill-opacity:1"
             id="g4772">
            <path
               inkscape:connector-curvature="0"
               style="stroke:none;stroke-width:0"
               d="m 3.296875,2.390625 c 0,-0.03125 0,-0.046875 -0.171875,-0.21875 C 1.890625,0.921875 1.5625,-0.96875 1.5625,-2.5 c 0,-1.734375 0.375,-3.46875 1.609375,-4.703125 0.125,-0.125 0.125,-0.140625 0.125,-0.171875 0,-0.078125 -0.03125,-0.109375 -0.09375,-0.109375 -0.109375,0 -1,0.6875 -1.59375,1.953125 -0.5,1.09375 -0.625,2.203125 -0.625,3.03125 0,0.78125 0.109375,1.984375 0.65625,3.125 C 2.25,1.84375 3.09375,2.5 3.203125,2.5 c 0.0625,0 0.09375,-0.03125 0.09375,-0.109375 z m 0,0"
               transform="translate(155.195,134.765)"
               id="path4770" />
          </g>
          <g
             style="fill:#000000;fill-opacity:1"
             id="g4776">
            <path
               inkscape:connector-curvature="0"
               style="stroke:none;stroke-width:0"
               d="M 0.453125,1.21875 C 0.375,1.5625 0.34375,1.625 -0.09375,1.625 c -0.109375,0 -0.21875,0 -0.21875,0.1875 0,0.078125 0.046875,0.125 0.125,0.125 0.265625,0 0.5625,-0.03125 0.828125,-0.03125 0.34375,0 0.671875,0.03125 1,0.03125 0.046875,0 0.171875,0 0.171875,-0.203125 C 1.8125,1.625 1.71875,1.625 1.578125,1.625 c -0.5,0 -0.5,-0.0625 -0.5,-0.15625 0,-0.125 0.421875,-1.75 0.484375,-2 0.125,0.296875 0.40625,0.640625 0.921875,0.640625 1.15625,0 2.40625,-1.453125 2.40625,-2.921875 0,-0.9375 -0.578125,-1.59375 -1.328125,-1.59375 -0.5,0 -0.984375,0.359375 -1.3125,0.75 -0.09375,-0.546875 -0.53125,-0.75 -0.890625,-0.75 -0.46875,0 -0.65625,0.390625 -0.734375,0.5625 C 0.4375,-3.5 0.3125,-2.90625 0.3125,-2.875 c 0,0.109375 0.09375,0.109375 0.109375,0.109375 0.109375,0 0.109375,-0.015625 0.171875,-0.234375 0.171875,-0.703125 0.375,-1.1875 0.734375,-1.1875 0.171875,0 0.3125,0.078125 0.3125,0.453125 0,0.234375 -0.03125,0.34375 -0.078125,0.515625 z m 1.75,-4.328125 C 2.265625,-3.375 2.546875,-3.65625 2.71875,-3.8125 c 0.359375,-0.296875 0.640625,-0.375 0.8125,-0.375 0.390625,0 0.640625,0.34375 0.640625,0.9375 0,0.59375 -0.328125,1.734375 -0.515625,2.109375 -0.34375,0.703125 -0.8125,1.03125 -1.1875,1.03125 C 1.8125,-0.109375 1.6875,-0.9375 1.6875,-1 c 0,-0.015625 0,-0.03125 0.03125,-0.15625 z m 0,0"
               transform="translate(159.069,134.765)"
               id="path4774" />
          </g>
          <g
             style="fill:#000000;fill-opacity:1"
             id="g4780">
            <path
               inkscape:connector-curvature="0"
               style="stroke:none;stroke-width:0"
               d="m 2.875,-2.5 c 0,-0.765625 -0.109375,-1.96875 -0.65625,-3.109375 -0.59375,-1.21875 -1.453125,-1.875 -1.546875,-1.875 -0.0625,0 -0.109375,0.046875 -0.109375,0.109375 0,0.03125 0,0.046875 0.1875,0.234375 0.984375,0.984375 1.546875,2.5625 1.546875,4.640625 0,1.71875 -0.359375,3.46875 -1.59375,4.71875 C 0.5625,2.34375 0.5625,2.359375 0.5625,2.390625 0.5625,2.453125 0.609375,2.5 0.671875,2.5 0.765625,2.5 1.671875,1.8125 2.25,0.546875 2.765625,-0.546875 2.875,-1.65625 2.875,-2.5 Z m 0,0"
               transform="translate(164.082,134.765)"
               id="path4778" />
          </g>
          <g
             style="fill:#000000;fill-opacity:1"
             id="g4784">
            <path
               inkscape:connector-curvature="0"
               style="stroke:none;stroke-width:0"
               d="m 6.734375,-5.921875 c 0.109375,-0.046875 0.1875,-0.09375 0.1875,-0.21875 0,-0.109375 -0.078125,-0.203125 -0.203125,-0.203125 -0.046875,0 -0.140625,0.046875 -0.171875,0.0625 L 1.03125,-3.671875 c -0.171875,0.078125 -0.203125,0.140625 -0.203125,0.21875 0,0.09375 0.0625,0.15625 0.203125,0.21875 l 5.515625,2.59375 C 6.671875,-0.5625 6.6875,-0.5625 6.71875,-0.5625 c 0.109375,0 0.203125,-0.09375 0.203125,-0.203125 C 6.921875,-0.859375 6.875,-0.921875 6.703125,-1 L 1.5,-3.453125 Z M 6.5625,1.359375 c 0.171875,0 0.359375,0 0.359375,-0.1875 0,-0.203125 -0.21875,-0.203125 -0.359375,-0.203125 h -5.375 c -0.15625,0 -0.359375,0 -0.359375,0.203125 0,0.1875 0.171875,0.1875 0.34375,0.1875 z m 0,0"
               transform="translate(170.723,134.765)"
               id="path4782" />
          </g>
          <g
             style="fill:#000000;fill-opacity:1"
             id="g4788">
            <path
               inkscape:connector-curvature="0"
               style="stroke:none;stroke-width:0"
               d="m 2.046875,-3.984375 h 0.9375 c 0.203125,0 0.3125,0 0.3125,-0.203125 0,-0.109375 -0.109375,-0.109375 -0.28125,-0.109375 h -0.875 C 2.5,-5.71875 2.546875,-5.90625 2.546875,-5.96875 c 0,-0.171875 -0.125,-0.265625 -0.296875,-0.265625 -0.03125,0 -0.3125,0 -0.390625,0.359375 L 1.46875,-4.296875 h -0.9375 c -0.203125,0 -0.296875,0 -0.296875,0.1875 0,0.125 0.078125,0.125 0.28125,0.125 h 0.875 C 0.671875,-1.15625 0.625,-0.984375 0.625,-0.8125 0.625,-0.265625 1,0.109375 1.546875,0.109375 2.5625,0.109375 3.125,-1.34375 3.125,-1.421875 3.125,-1.53125 3.046875,-1.53125 3.015625,-1.53125 2.921875,-1.53125 2.90625,-1.5 2.859375,-1.390625 2.4375,-0.34375 1.90625,-0.109375 1.5625,-0.109375 c -0.203125,0 -0.3125,-0.125 -0.3125,-0.453125 0,-0.25 0.03125,-0.3125 0.0625,-0.484375 z m 0,0"
               transform="translate(181.24,134.765)"
               id="path4786" />
          </g>
          <g
             style="fill:#000000;fill-opacity:1"
             id="g4792">
            <path
               inkscape:connector-curvature="0"
               style="stroke:none;stroke-width:0"
               d="M 3.515625,-1.265625 H 3.28125 c -0.015625,0.15625 -0.09375,0.5625 -0.1875,0.625 C 3.046875,-0.59375 2.515625,-0.59375 2.40625,-0.59375 H 1.125 c 0.734375,-0.640625 0.984375,-0.84375 1.390625,-1.171875 0.515625,-0.40625 1,-0.84375 1,-1.5 0,-0.84375 -0.734375,-1.359375 -1.625,-1.359375 -0.859375,0 -1.453125,0.609375 -1.453125,1.25 0,0.34375 0.296875,0.390625 0.375,0.390625 0.15625,0 0.359375,-0.125 0.359375,-0.375 0,-0.125 -0.046875,-0.375 -0.40625,-0.375 C 0.984375,-4.21875 1.453125,-4.375 1.78125,-4.375 c 0.703125,0 1.0625,0.546875 1.0625,1.109375 0,0.609375 -0.4375,1.078125 -0.65625,1.328125 L 0.515625,-0.265625 C 0.4375,-0.203125 0.4375,-0.1875 0.4375,0 h 2.875 z m 0,0"
               transform="translate(184.837,136.259)"
               id="path4790" />
          </g>
        </g>
      </g>
    </g>
    <g
       id="g5377"
       transform="translate(0,-7.2162772)">
      <rect
         style="fill:none;fill-opacity:1;stroke:#000000;stroke-width:0.26458332;stroke-opacity:1"
         id="rect4542"
         width="33.450893"
         height="11.150297"
         x="52.21674"
         y="100.34994" />
      <flowRoot
         transform="matrix(0.26458333,0,0,0.26458333,33.506921,3.1750001)"
         style="font-style:normal;font-weight:normal;font-size:16px;line-height:1.25;font-family:sans-serif;text-align:center;letter-spacing:0px;word-spacing:0px;text-anchor:middle;fill:#000000;fill-opacity:1;stroke:none"
         id="flowRoot4860"
         xml:space="preserve"><flowRegion
           style="font-size:16px;text-align:center;text-anchor:middle"
           id="flowRegion4862"><rect
             style="font-size:16px;text-align:center;text-anchor:middle"
             y="379.27536"
             x="70.714279"
             height="42.142864"
             width="126.42857"
             id="rect4864" /></flowRegion><flowPara
           id="flowPara4866">MVMO</flowPara></flowRoot>    </g>
    <g
       id="g5384"
       transform="translate(0,-8.3154762)">
      <rect
         y="135.8797"
         x="52.21674"
         height="11.150297"
         width="33.450893"
         id="rect4544"
         style="fill:none;fill-opacity:1;stroke:#000000;stroke-width:0.26458332;stroke-opacity:1" />
      <flowRoot
         transform="matrix(0.26458333,0,0,0.26458333,33.506921,3.1750001)"
         style="font-style:normal;font-weight:normal;font-size:16px;line-height:1.25;font-family:sans-serif;text-align:center;letter-spacing:0px;word-spacing:0px;text-anchor:middle;fill:#000000;fill-opacity:1;stroke:none"
         id="flowRoot4868"
         xml:space="preserve"><flowRegion
           style="font-size:16px;text-align:center;text-anchor:middle"
           id="flowRegion4870"><rect
             style="font-size:16px;text-align:center;text-anchor:middle"
             y="513.5611"
             x="70.714279"
             height="42.142864"
             width="126.42857"
             id="rect4872" /></flowRegion><flowPara
           id="flowPara4874">TS</flowPara></flowRoot>    </g>
    <g
       id="g5417"
       transform="translate(0,4.2333335)">
      <rect
         ry="5.5751486"
         y="22.639748"
         x="18.70982"
         height="11.150297"
         width="33.450893"
         id="rect4549"
         style="fill:none;fill-opacity:1;stroke:#000000;stroke-width:0.26458332;stroke-opacity:1" />
      <flowRoot
         transform="matrix(0.26458333,0,0,0.26458333,0,3.1750001)"
         style="font-style:normal;font-weight:normal;font-size:16px;line-height:1.25;font-family:sans-serif;text-align:center;letter-spacing:0px;word-spacing:0px;text-anchor:middle;fill:#000000;fill-opacity:1;stroke:none"
         id="flowRoot4876"
         xml:space="preserve"><flowRegion
           style="font-size:16px;text-align:center;text-anchor:middle"
           id="flowRegion4878"><rect
             style="font-size:16px;text-align:center;text-anchor:middle"
             y="85.567551"
             x="70.714279"
             height="42.142864"
             width="126.42857"
             id="rect4880" /></flowRegion><flowPara
           id="flowPara4882">Disturbance</flowPara></flowRoot>    </g>
    <g
       id="g5410"
       transform="translate(-12.85119,-9.0888411)">
      <rect
         rx="0"
         style="fill:none;fill-opacity:1;stroke:#000000;stroke-width:0.22142543;stroke-opacity:1"
         id="rect4897"
         width="23.337809"
         height="11.193455"
         x="115.11977"
         y="162.29221"
         ry="5.5967274" />
      <flowRoot
         transform="matrix(0.26458333,0,0,0.26458333,37.097695,4.4034227)"
         style="font-style:normal;font-weight:normal;font-size:16px;line-height:1.25;font-family:sans-serif;text-align:center;letter-spacing:0px;word-spacing:0px;text-anchor:middle;fill:#000000;fill-opacity:1;stroke:none"
         id="flowRoot4907"
         xml:space="preserve"><flowRegion
           style="font-size:16px;text-align:center;text-anchor:middle"
           id="flowRegion4909"><rect
             style="font-size:16px;text-align:center;text-anchor:middle"
             y="608.745"
             x="294.8866"
             height="42.305958"
             width="88.205887"
             id="rect4911" /></flowRegion><flowPara
           id="flowPara4913">End</flowPara></flowRoot>    </g>
    <path
       style="fill:none;stroke:#000000;stroke-width:0.25093892px;stroke-linecap:butt;stroke-linejoin:miter;stroke-opacity:1"
       d="m 35.340774,38.021683 c 0,38.334706 0,38.334706 0,38.334706 h -0.188989"
       id="path5241"
       inkscape:connector-curvature="0" />
    <path
       style="fill:none;stroke:#000000;stroke-width:0.26458332px;stroke-linecap:butt;stroke-linejoin:miter;stroke-opacity:1;marker-end:url(#Arrow2Lend)"
       d="m 35.340774,51.031983 c 3.685267,0 3.685267,0 3.685267,0"
       id="path5243"
       inkscape:connector-curvature="0" />
    <path
       style="fill:none;stroke:#000000;stroke-width:0.26458332px;stroke-linecap:butt;stroke-linejoin:miter;stroke-opacity:1;marker-end:url(#marker5287)"
       d="m 35.340774,76.356389 c 3.77976,0 3.874256,0 3.874256,0"
       id="path5317"
       inkscape:connector-curvature="0" />
    <path
       style="fill:none;stroke:#000000;stroke-width:0.26458332px;stroke-linecap:butt;stroke-linejoin:miter;stroke-opacity:1;marker-end:url(#marker5443)"
       d="m 73.098216,50.711121 c 5.211754,0 5.34539,0 5.34539,0 v 12.561667 h 17.773422"
       id="path5419"
       inkscape:connector-curvature="0" />
    <path
       style="fill:none;stroke:#000000;stroke-width:0.26458332px;stroke-linecap:butt;stroke-linejoin:miter;stroke-opacity:1;marker-end:url(#marker5263)"
       d="m 72.96458,75.166283 h 5.479026 V 67.950005 H 95.94976"
       id="path5421"
       inkscape:connector-curvature="0" />
    <path
       style="fill:none;stroke:#000000;stroke-width:0.26458332px;stroke-linecap:butt;stroke-linejoin:miter;stroke-opacity:1;marker-end:url(#marker5515)"
       d="m 113.95982,71.348205 c 0,16.441965 0.056,18.400413 0.056,18.400413"
       id="path5505"
       inkscape:connector-curvature="0" />
    <path
       style="fill:none;stroke:#000000;stroke-width:0.26458332px;stroke-linecap:butt;stroke-linejoin:miter;stroke-opacity:1;marker-end:url(#marker5663)"
       d="m 114.01585,108.45662 v 15.52477"
       id="path5653"
       inkscape:connector-curvature="0" />
    <path
       style="fill:none;stroke:#000000;stroke-width:0.26458332px;stroke-linecap:butt;stroke-linejoin:miter;stroke-opacity:1;marker-end:url(#marker5617)"
       d="M 98.12286,99.367201 H 86.131322"
       id="path5695"
       inkscape:connector-curvature="0" />
    <path
       style="fill:none;stroke:#000000;stroke-width:0.26066577px;stroke-linecap:butt;stroke-linejoin:miter;stroke-opacity:1;marker-end:url(#marker5719)"
       d="M 98.12286,133.57942 H 86.071075"
       id="path5709"
       inkscape:connector-curvature="0" />
    <path
       style="fill:none;stroke:#000000;stroke-width:0.26185402px;stroke-linecap:butt;stroke-linejoin:miter;stroke-opacity:1;marker-end:url(#marker5827)"
       d="M 52.118588,98.749355 H 47.338542 V 81.193762"
       id="path5771"
       inkscape:connector-curvature="0" />
    <path
       style="fill:none;stroke:#000000;stroke-width:0.26344955px;stroke-linecap:butt;stroke-linejoin:miter;stroke-opacity:1;marker-end:url(#marker5783)"
       d="M 52.162696,132.95753 H 42.5208 V 81.074373"
       id="path5773"
       inkscape:connector-curvature="0" />
    <path
       style="fill:none;stroke:#000000;stroke-width:0.26458332px;stroke-linecap:butt;stroke-linejoin:miter;stroke-opacity:1;marker-end:url(#marker5941)"
       d="m 114.01585,142.66884 v 10.03874"
       id="path5931"
       inkscape:connector-curvature="0" />
    <flowRoot
       xml:space="preserve"
       id="flowRoot5981"
       style="font-style:normal;font-weight:normal;font-size:40px;line-height:1.25;font-family:sans-serif;letter-spacing:0px;word-spacing:0px;fill:#000000;fill-opacity:1;stroke:none"
       transform="matrix(0.26458333,0,0,0.26458333,-34.2105,20.312484)"><flowRegion
         id="flowRegion5983"><rect
           id="rect5985"
           width="82.85714"
           height="91.428574"
           x="565.71429"
           y="311.09109" /></flowRegion><flowPara
         id="flowPara5987"
         style="font-size:16px">Y</flowPara><flowPara
         style="font-size:16px"
         id="flowPara5997" /></flowRoot>    <flowRoot
       transform="matrix(0.26458333,0,0,0.26458333,-34.2105,55.057523)"
       style="font-style:normal;font-weight:normal;font-size:40px;line-height:1.25;font-family:sans-serif;letter-spacing:0px;word-spacing:0px;fill:#000000;fill-opacity:1;stroke:none"
       id="flowRoot6007"
       xml:space="preserve"><flowRegion
         id="flowRegion6001"><rect
           y="311.09109"
           x="565.71429"
           height="91.428574"
           width="82.85714"
           id="rect5999" /></flowRegion><flowPara
         style="font-size:16px"
         id="flowPara6003">Y</flowPara><flowPara
         id="flowPara6005"
         style="font-size:16px" /></flowRoot>    <flowRoot
       transform="matrix(0.26458333,0,0,0.26458333,-54.784882,11.893494)"
       style="font-style:normal;font-weight:normal;font-size:40px;line-height:1.25;font-family:sans-serif;letter-spacing:0px;word-spacing:0px;fill:#000000;fill-opacity:1;stroke:none"
       id="flowRoot6017"
       xml:space="preserve"><flowRegion
         id="flowRegion6011"><rect
           y="311.09109"
           x="565.71429"
           height="91.428574"
           width="82.85714"
           id="rect6009" /></flowRegion><flowPara
         style="font-size:16px"
         id="flowPara6019">N</flowPara><flowPara
         id="flowPara6015"
         style="font-size:16px" /></flowRoot>    <flowRoot
       xml:space="preserve"
       id="flowRoot6031"
       style="font-style:normal;font-weight:normal;font-size:40px;line-height:1.25;font-family:sans-serif;letter-spacing:0px;word-spacing:0px;fill:#000000;fill-opacity:1;stroke:none"
       transform="matrix(0.26458333,0,0,0.26458333,-54.784882,46.371263)"><flowRegion
         id="flowRegion6025"><rect
           id="rect6023"
           width="82.85714"
           height="91.428574"
           x="565.71429"
           y="311.09109" /></flowRegion><flowPara
         id="flowPara6027"
         style="font-size:16px">N</flowPara><flowPara
         style="font-size:16px"
         id="flowPara6029" /></flowRoot>  </g>
</svg>
