<?xml version="1.0" encoding="UTF-8" standalone="no"?>
<!-- Created with matplotlib (https://matplotlib.org/) -->

<svg
   xmlns:ns1="http://www.iki.fi/pav/software/textext/"
   xmlns:dc="http://purl.org/dc/elements/1.1/"
   xmlns:cc="http://creativecommons.org/ns#"
   xmlns:rdf="http://www.w3.org/1999/02/22-rdf-syntax-ns#"
   xmlns:svg="http://www.w3.org/2000/svg"
   xmlns="http://www.w3.org/2000/svg"
   xmlns:xlink="http://www.w3.org/1999/xlink"
   xmlns:sodipodi="http://sodipodi.sourceforge.net/DTD/sodipodi-0.dtd"
   xmlns:inkscape="http://www.inkscape.org/namespaces/inkscape"
   height="294.93076pt"
   version="1.1"
   viewBox="0 0 402.87327 294.93075"
   width="402.87326pt"
   id="svg2709"
   sodipodi:docname="Hybrid_conv_.svg"
   inkscape:version="0.92.3 (2405546, 2018-03-11)">
  <sodipodi:namedview
     pagecolor="#ffffff"
     bordercolor="#666666"
     borderopacity="1"
     objecttolerance="10"
     gridtolerance="10"
     guidetolerance="10"
     inkscape:pageopacity="0"
     inkscape:pageshadow="2"
     inkscape:window-width="1920"
     inkscape:window-height="1025"
     id="namedview2711"
     showgrid="false"
     inkscape:zoom="1.0243055"
     inkscape:cx="264.01788"
     inkscape:cy="202.82292"
     inkscape:window-x="0"
     inkscape:window-y="27"
     inkscape:window-maximized="1"
     inkscape:current-layer="figure_1"
     fit-margin-top="0"
     fit-margin-left="0"
     fit-margin-right="0"
     fit-margin-bottom="0" />
  <metadata
     id="metadata2447">
    <rdf:RDF>
      <cc:Work>
        <dc:type
           rdf:resource="http://purl.org/dc/dcmitype/StillImage" />
        <dc:date>2020-10-18T15:51:05.458678</dc:date>
        <dc:format>image/svg+xml</dc:format>
        <dc:creator>
          <cc:Agent>
            <dc:title>Matplotlib v3.3.0, https://matplotlib.org/</dc:title>
          </cc:Agent>
        </dc:creator>
        <dc:title></dc:title>
      </cc:Work>
    </rdf:RDF>
  </metadata>
  <defs
     id="defs2451"
     style="stroke-linecap:butt;stroke-linejoin:round">
    <marker
       inkscape:stockid="Arrow1Lend"
       orient="auto"
       refY="0"
       refX="0"
       id="marker4446"
       style="overflow:visible;stroke-linecap:butt;stroke-linejoin:round"
       inkscape:isstock="true">
      <path
         id="path4444"
         d="M 0,0 5,-5 -12.5,0 5,5 Z"
         style="fill:#000000;fill-opacity:1;fill-rule:evenodd;stroke:#000000;stroke-width:1.00000003pt;stroke-linecap:butt;stroke-linejoin:round;stroke-opacity:1"
         transform="matrix(-0.8,0,0,-0.8,-10,0)"
         inkscape:connector-curvature="0" />
    </marker>
    <marker
       inkscape:stockid="Arrow1Lstart"
       orient="auto"
       refY="0"
       refX="0"
       id="marker4418"
       style="overflow:visible;stroke-linecap:butt;stroke-linejoin:round"
       inkscape:isstock="true">
      <path
         id="path4416"
         d="M 0,0 5,-5 -12.5,0 5,5 Z"
         style="fill:#000000;fill-opacity:1;fill-rule:evenodd;stroke:#000000;stroke-width:1.00000003pt;stroke-linecap:butt;stroke-linejoin:round;stroke-opacity:1"
         transform="matrix(0.8,0,0,0.8,10,0)"
         inkscape:connector-curvature="0" />
    </marker>
    <marker
       inkscape:stockid="Arrow1Lend"
       orient="auto"
       refY="0"
       refX="0"
       id="Arrow1Lend"
       style="overflow:visible;stroke-linecap:butt;stroke-linejoin:round"
       inkscape:isstock="true">
      <path
         id="path3556"
         d="M 0,0 5,-5 -12.5,0 5,5 Z"
         style="fill:#000000;fill-opacity:1;fill-rule:evenodd;stroke:#000000;stroke-width:1.00000003pt;stroke-linecap:butt;stroke-linejoin:round;stroke-opacity:1"
         transform="matrix(-0.8,0,0,-0.8,-10,0)"
         inkscape:connector-curvature="0" />
    </marker>
    <marker
       inkscape:isstock="true"
       style="overflow:visible;stroke-linecap:butt;stroke-linejoin:round"
       id="DotM"
       refX="0"
       refY="0"
       orient="auto"
       inkscape:stockid="DotM">
      <path
         transform="matrix(0.4,0,0,0.4,2.96,0.4)"
         style="fill:#1f77b4;fill-opacity:1;fill-rule:evenodd;stroke:#1f77b4;stroke-width:1.00000003pt;stroke-linecap:butt;stroke-linejoin:round;stroke-opacity:1"
         d="m -2.5,-1 c 0,2.76 -2.24,5 -5,5 -2.76,0 -5,-2.24 -5,-5 0,-2.76 2.24,-5 5,-5 2.76,0 5,2.24 5,5 z"
         id="path3617"
         inkscape:connector-curvature="0" />
    </marker>
    <style
       id="style2449"
       type="text/css">*{stroke-linecap:butt;stroke-linejoin:round;}</style>
  </defs>
  <g
     id="figure_1"
     style="stroke-linecap:butt;stroke-linejoin:round"
     transform="translate(-12.246728,-41.072)">
    <g
       id="g5917"
       style="stroke-linecap:butt;stroke-linejoin:round">
      <path
         d="M 43.103112,319.75103 H 400.22311 V 53.639031 H 43.103112 Z"
         style="fill:#ffffff;stroke-linecap:butt;stroke-linejoin:round"
         id="path2456"
         inkscape:connector-curvature="0" />
      <g
         id="xtick_1"
         style="stroke-linecap:butt;stroke-linejoin:round">
        <g
           id="line2d_1"
           style="stroke-linecap:butt;stroke-linejoin:round">
          <defs
             id="defs2460">
            <path
               d="M 0,0 V 3.5"
               id="m83dbdd84ac"
               style="stroke:#000000;stroke-width:0.80000001;stroke-linecap:butt;stroke-linejoin:round"
               inkscape:connector-curvature="0" />
          </defs>
          <g
             id="g2464"
             style="stroke-linecap:butt;stroke-linejoin:round">
            <use
               style="stroke:#000000;stroke-width:0.80000001;stroke-linecap:butt;stroke-linejoin:round"
               x="73.832726"
               xlink:href="#m83dbdd84ac"
               y="307.58401"
               id="use2462"
               width="100%"
               height="100%" />
          </g>
        </g>
        <g
           id="text_1"
           style="stroke-linecap:butt;stroke-linejoin:round">
          <!-- 0 -->
          <g
             transform="matrix(0.1,0,0,-0.1,70.651477,322.18244)"
             id="g2472"
             style="stroke-linecap:butt;stroke-linejoin:round">
            <defs
               id="defs2468">
              <path
                 d="m 31.78125,66.40625 q -7.609375,0 -11.453125,-7.5 Q 16.5,51.421875 16.5,36.375 q 0,-14.984375 3.828125,-22.484375 3.84375,-7.5 11.453125,-7.5 7.671875,0 11.5,7.5 3.84375,7.5 3.84375,22.484375 0,15.046875 -3.84375,22.53125 -3.828125,7.5 -11.5,7.5 z m 0,7.8125 q 12.265625,0 18.734375,-9.703125 6.46875,-9.6875 6.46875,-28.140625 0,-18.40625 -6.46875,-28.109375 -6.46875,-9.6875 -18.734375,-9.6875 -12.25,0 -18.71875,9.6875 Q 6.59375,17.96875 6.59375,36.375 q 0,18.453125 6.46875,28.140625 6.46875,9.703125 18.71875,9.703125 z"
                 id="DejaVuSans-48"
                 inkscape:connector-curvature="0"
                 style="stroke-linecap:butt;stroke-linejoin:round" />
            </defs>
            <use
               xlink:href="#DejaVuSans-48"
               id="use2470"
               style="stroke-linecap:butt;stroke-linejoin:round"
               x="0"
               y="0"
               width="100%"
               height="100%" />
          </g>
        </g>
      </g>
      <g
         id="xtick_2"
         style="stroke-linecap:butt;stroke-linejoin:round">
        <g
           id="line2d_2"
           style="stroke-linecap:butt;stroke-linejoin:round">
          <g
             id="g2478"
             style="stroke-linecap:butt;stroke-linejoin:round">
            <use
               style="stroke:#000000;stroke-width:0.80000001;stroke-linecap:butt;stroke-linejoin:round"
               x="236.16"
               xlink:href="#m83dbdd84ac"
               y="307.58401"
               id="use2476"
               width="100%"
               height="100%" />
          </g>
        </g>
        <g
           id="text_2"
           style="stroke-linecap:butt;stroke-linejoin:round">
          <!-- 1 -->
          <g
             transform="matrix(0.1,0,0,-0.1,232.97875,322.18244)"
             id="g2486"
             style="stroke-linecap:butt;stroke-linejoin:round">
            <defs
               id="defs2482">
              <path
                 d="m 12.40625,8.296875 h 16.109375 v 55.625 L 10.984375,60.40625 v 8.984375 l 17.4375,3.515625 H 38.28125 V 8.296875 H 54.390625 V 0 H 12.40625 Z"
                 id="DejaVuSans-49"
                 inkscape:connector-curvature="0"
                 style="stroke-linecap:butt;stroke-linejoin:round" />
            </defs>
            <use
               xlink:href="#DejaVuSans-49"
               id="use2484"
               style="stroke-linecap:butt;stroke-linejoin:round"
               x="0"
               y="0"
               width="100%"
               height="100%" />
          </g>
        </g>
      </g>
      <g
         id="xtick_3"
         style="stroke-linecap:butt;stroke-linejoin:round">
        <g
           id="line2d_3"
           style="stroke-linecap:butt;stroke-linejoin:round">
          <g
             id="g2492"
             style="stroke-linecap:butt;stroke-linejoin:round">
            <use
               style="stroke:#000000;stroke-width:0.80000001;stroke-linecap:butt;stroke-linejoin:round"
               x="398.48727"
               xlink:href="#m83dbdd84ac"
               y="307.58401"
               id="use2490"
               width="100%"
               height="100%" />
          </g>
        </g>
        <g
           id="text_3"
           style="stroke-linecap:butt;stroke-linejoin:round">
          <!-- 2 -->
          <g
             transform="matrix(0.1,0,0,-0.1,395.30602,322.18244)"
             id="g2500"
             style="stroke-linecap:butt;stroke-linejoin:round">
            <defs
               id="defs2496">
              <path
                 d="M 19.1875,8.296875 H 53.609375 V 0 H 7.328125 v 8.296875 q 5.609375,5.8125 15.296875,15.59375 9.703125,9.796875 12.1875,12.640625 4.734375,5.3125 6.609375,9 1.890625,3.6875 1.890625,7.25 0,5.8125 -4.078125,9.46875 -4.078125,3.671875 -10.625,3.671875 -4.640625,0 -9.796875,-1.609375 -5.140625,-1.609375 -11,-4.890625 v 9.96875 Q 13.765625,71.78125 18.9375,73 q 5.1875,1.21875 9.484375,1.21875 11.328125,0 18.0625,-5.671875 6.734375,-5.65625 6.734375,-15.125 0,-4.5 -1.6875,-8.53125 Q 49.859375,40.875 45.40625,35.40625 44.1875,33.984375 37.640625,27.21875 31.109375,20.453125 19.1875,8.296875 Z"
                 id="DejaVuSans-50"
                 inkscape:connector-curvature="0"
                 style="stroke-linecap:butt;stroke-linejoin:round" />
            </defs>
            <use
               xlink:href="#DejaVuSans-50"
               id="use2498"
               style="stroke-linecap:butt;stroke-linejoin:round"
               x="0"
               y="0"
               width="100%"
               height="100%" />
          </g>
        </g>
      </g>
      <g
         id="text_4"
         style="stroke-linecap:butt;stroke-linejoin:round">
        <!-- Iteration -->
        <g
           transform="matrix(0.1,0,0,-0.1,214.95141,335.86056)"
           id="g2532"
           style="stroke-linecap:butt;stroke-linejoin:round">
          <defs
             id="defs2512">
            <path
               d="m 9.8125,72.90625 h 9.859375 V 0 H 9.8125 Z"
               id="DejaVuSans-73"
               inkscape:connector-curvature="0"
               style="stroke-linecap:butt;stroke-linejoin:round" />
            <path
               d="M 18.3125,70.21875 V 54.6875 h 18.5 v -6.984375 h -18.5 v -29.6875 q 0,-6.6875 1.828125,-8.59375 1.828125,-1.90625 7.453125,-1.90625 H 36.8125 V 0 H 27.59375 Q 17.1875,0 13.234375,3.875 9.28125,7.765625 9.28125,18.015625 v 29.6875 H 2.6875 V 54.6875 h 6.59375 v 15.53125 z"
               id="DejaVuSans-116"
               inkscape:connector-curvature="0"
               style="stroke-linecap:butt;stroke-linejoin:round" />
            <path
               d="m 56.203125,29.59375 v -4.390625 h -41.3125 q 0.59375,-9.28125 5.59375,-14.140625 5,-4.859375 13.9375,-4.859375 5.171875,0 10.03125,1.265625 4.859375,1.265625 9.65625,3.8125 v -8.5 q -4.84375,-2.046875 -9.921875,-3.125 -5.078125,-1.078125 -10.296875,-1.078125 -13.09375,0 -20.734375,7.609375 -7.640625,7.625 -7.640625,20.625 0,13.421875 7.25,21.296875 Q 20.015625,56 32.328125,56 q 11.03125,0 17.453125,-7.109375 6.421875,-7.09375 6.421875,-19.296875 z m -8.984375,2.640625 q -0.09375,7.359375 -4.125,11.75 -4.03125,4.40625 -10.671875,4.40625 -7.515625,0 -12.03125,-4.25 -4.515625,-4.25 -5.203125,-11.96875 z"
               id="DejaVuSans-101"
               inkscape:connector-curvature="0"
               style="stroke-linecap:butt;stroke-linejoin:round" />
            <path
               d="m 41.109375,46.296875 q -1.515625,0.875 -3.296875,1.28125 Q 36.03125,48 33.890625,48 26.265625,48 22.1875,43.046875 18.109375,38.09375 18.109375,28.8125 V 0 h -9.03125 v 54.6875 h 9.03125 v -8.5 q 2.84375,4.984375 7.375,7.390625 Q 30.03125,56 36.53125,56 q 0.921875,0 2.046875,-0.125 1.125,-0.109375 2.484375,-0.359375 z"
               id="DejaVuSans-114"
               inkscape:connector-curvature="0"
               style="stroke-linecap:butt;stroke-linejoin:round" />
            <path
               d="m 34.28125,27.484375 q -10.890625,0 -15.09375,-2.484375 -4.203125,-2.484375 -4.203125,-8.5 0,-4.78125 3.15625,-7.59375 3.15625,-2.796875 8.5625,-2.796875 7.484375,0 12,5.296875 4.515625,5.296875 4.515625,14.078125 v 2 z m 17.921875,3.71875 V 0 H 43.21875 v 8.296875 q -3.078125,-4.96875 -7.671875,-7.34375 -4.59375,-2.375 -11.234375,-2.375 -8.390625,0 -13.359375,4.71875 Q 6,8.015625 6,15.921875 q 0,9.21875 6.171875,13.90625 6.1875,4.6875 18.4375,4.6875 H 43.21875 v 0.890625 q 0,6.203125 -4.078125,9.59375 -4.078125,3.390625 -11.453125,3.390625 -4.6875,0 -9.140625,-1.125 -4.4375,-1.125 -8.53125,-3.375 v 8.3125 q 4.921875,1.90625 9.5625,2.84375 Q 24.21875,56 28.609375,56 q 11.875,0 17.734375,-6.15625 5.859375,-6.140625 5.859375,-18.640625 z"
               id="DejaVuSans-97"
               inkscape:connector-curvature="0"
               style="stroke-linecap:butt;stroke-linejoin:round" />
            <path
               d="M 9.421875,54.6875 H 18.40625 V 0 H 9.421875 Z m 0,21.296875 H 18.40625 V 64.59375 H 9.421875 Z"
               id="DejaVuSans-105"
               inkscape:connector-curvature="0"
               style="stroke-linecap:butt;stroke-linejoin:round" />
            <path
               d="m 30.609375,48.390625 q -7.21875,0 -11.421875,-5.640625 -4.203125,-5.640625 -4.203125,-15.453125 0,-9.8125 4.171875,-15.453125 4.1875,-5.640625 11.453125,-5.640625 7.1875,0 11.375,5.65625 4.203125,5.671875 4.203125,15.4375 0,9.71875 -4.203125,15.40625 -4.1875,5.6875 -11.375,5.6875 z m 0,7.609375 q 11.71875,0 18.40625,-7.625 6.703125,-7.609375 6.703125,-21.078125 0,-13.421875 -6.703125,-21.078125 -6.6875,-7.640625 -18.40625,-7.640625 -11.765625,0 -18.4375,7.640625 -6.65625,7.65625 -6.65625,21.078125 0,13.46875 6.65625,21.078125 Q 18.84375,56 30.609375,56 Z"
               id="DejaVuSans-111"
               inkscape:connector-curvature="0"
               style="stroke-linecap:butt;stroke-linejoin:round" />
            <path
               d="M 54.890625,33.015625 V 0 H 45.90625 v 32.71875 q 0,7.765625 -3.03125,11.609375 -3.03125,3.859375 -9.078125,3.859375 -7.28125,0 -11.484375,-4.640625 -4.203125,-4.625 -4.203125,-12.640625 V 0 h -9.03125 v 54.6875 h 9.03125 v -8.5 q 3.234375,4.9375 7.59375,7.375 4.375,2.4375 10.09375,2.4375 9.421875,0 14.25,-5.828125 4.84375,-5.828125 4.84375,-17.15625 z"
               id="DejaVuSans-110"
               inkscape:connector-curvature="0"
               style="stroke-linecap:butt;stroke-linejoin:round" />
          </defs>
          <use
             xlink:href="#DejaVuSans-73"
             id="use2514"
             style="stroke-linecap:butt;stroke-linejoin:round"
             x="0"
             y="0"
             width="100%"
             height="100%" />
          <use
             x="29.492188"
             xlink:href="#DejaVuSans-116"
             id="use2516"
             style="stroke-linecap:butt;stroke-linejoin:round"
             y="0"
             width="100%"
             height="100%" />
          <use
             x="68.701172"
             xlink:href="#DejaVuSans-101"
             id="use2518"
             style="stroke-linecap:butt;stroke-linejoin:round"
             y="0"
             width="100%"
             height="100%" />
          <use
             x="130.22461"
             xlink:href="#DejaVuSans-114"
             id="use2520"
             style="stroke-linecap:butt;stroke-linejoin:round"
             y="0"
             width="100%"
             height="100%" />
          <use
             x="171.33789"
             xlink:href="#DejaVuSans-97"
             id="use2522"
             style="stroke-linecap:butt;stroke-linejoin:round"
             y="0"
             width="100%"
             height="100%" />
          <use
             x="232.61719"
             xlink:href="#DejaVuSans-116"
             id="use2524"
             style="stroke-linecap:butt;stroke-linejoin:round"
             y="0"
             width="100%"
             height="100%" />
          <use
             x="271.82617"
             xlink:href="#DejaVuSans-105"
             id="use2526"
             style="stroke-linecap:butt;stroke-linejoin:round"
             y="0"
             width="100%"
             height="100%" />
          <use
             x="299.60938"
             xlink:href="#DejaVuSans-111"
             id="use2528"
             style="stroke-linecap:butt;stroke-linejoin:round"
             y="0"
             width="100%"
             height="100%" />
          <use
             x="360.79102"
             xlink:href="#DejaVuSans-110"
             id="use2530"
             style="stroke-linecap:butt;stroke-linejoin:round"
             y="0"
             width="100%"
             height="100%" />
        </g>
      </g>
      <g
         id="ytick_1"
         style="stroke-linecap:butt;stroke-linejoin:round">
        <g
           id="line2d_4"
           style="stroke-linecap:butt;stroke-linejoin:round">
          <defs
             id="defs2537">
            <path
               d="M 0,0 H -3.5"
               id="m8c28f2c022"
               style="stroke:#000000;stroke-width:0.80000001;stroke-linecap:butt;stroke-linejoin:round"
               inkscape:connector-curvature="0" />
          </defs>
          <g
             id="g2541"
             style="stroke-linecap:butt;stroke-linejoin:round">
            <use
               style="stroke:#000000;stroke-width:0.80000001;stroke-linecap:butt;stroke-linejoin:round"
               x="57.599998"
               xlink:href="#m8c28f2c022"
               y="298.01965"
               id="use2539"
               width="100%"
               height="100%" />
          </g>
        </g>
        <g
           id="text_5"
           style="stroke-linecap:butt;stroke-linejoin:round">
          <!-- 0.00 -->
          <g
             transform="matrix(0.1,0,0,-0.1,28.334375,301.81887)"
             id="g2555"
             style="stroke-linecap:butt;stroke-linejoin:round">
            <defs
               id="defs2545">
              <path
                 d="M 10.6875,12.40625 H 21 V 0 H 10.6875 Z"
                 id="DejaVuSans-46"
                 inkscape:connector-curvature="0"
                 style="stroke-linecap:butt;stroke-linejoin:round" />
            </defs>
            <use
               xlink:href="#DejaVuSans-48"
               id="use2547"
               style="stroke-linecap:butt;stroke-linejoin:round"
               x="0"
               y="0"
               width="100%"
               height="100%" />
            <use
               x="63.623047"
               xlink:href="#DejaVuSans-46"
               id="use2549"
               style="stroke-linecap:butt;stroke-linejoin:round"
               y="0"
               width="100%"
               height="100%" />
            <use
               x="95.410156"
               xlink:href="#DejaVuSans-48"
               id="use2551"
               style="stroke-linecap:butt;stroke-linejoin:round"
               y="0"
               width="100%"
               height="100%" />
            <use
               x="159.0332"
               xlink:href="#DejaVuSans-48"
               id="use2553"
               style="stroke-linecap:butt;stroke-linejoin:round"
               y="0"
               width="100%"
               height="100%" />
          </g>
        </g>
      </g>
      <g
         id="ytick_2"
         style="stroke-linecap:butt;stroke-linejoin:round">
        <g
           id="line2d_5"
           style="stroke-linecap:butt;stroke-linejoin:round">
          <g
             id="g2561"
             style="stroke-linecap:butt;stroke-linejoin:round">
            <use
               style="stroke:#000000;stroke-width:0.80000001;stroke-linecap:butt;stroke-linejoin:round"
               x="57.599998"
               xlink:href="#m8c28f2c022"
               y="261.12408"
               id="use2559"
               width="100%"
               height="100%" />
          </g>
        </g>
        <g
           id="text_6"
           style="stroke-linecap:butt;stroke-linejoin:round">
          <!-- 0.02 -->
          <g
             transform="matrix(0.1,0,0,-0.1,28.334375,264.92329)"
             id="g2572"
             style="stroke-linecap:butt;stroke-linejoin:round">
            <use
               xlink:href="#DejaVuSans-48"
               id="use2564"
               style="stroke-linecap:butt;stroke-linejoin:round"
               x="0"
               y="0"
               width="100%"
               height="100%" />
            <use
               x="63.623047"
               xlink:href="#DejaVuSans-46"
               id="use2566"
               style="stroke-linecap:butt;stroke-linejoin:round"
               y="0"
               width="100%"
               height="100%" />
            <use
               x="95.410156"
               xlink:href="#DejaVuSans-48"
               id="use2568"
               style="stroke-linecap:butt;stroke-linejoin:round"
               y="0"
               width="100%"
               height="100%" />
            <use
               x="159.0332"
               xlink:href="#DejaVuSans-50"
               id="use2570"
               style="stroke-linecap:butt;stroke-linejoin:round"
               y="0"
               width="100%"
               height="100%" />
          </g>
        </g>
      </g>
      <g
         id="ytick_3"
         style="stroke-linecap:butt;stroke-linejoin:round">
        <g
           id="line2d_6"
           style="stroke-linecap:butt;stroke-linejoin:round">
          <g
             id="g2578"
             style="stroke-linecap:butt;stroke-linejoin:round">
            <use
               style="stroke:#000000;stroke-width:0.80000001;stroke-linecap:butt;stroke-linejoin:round"
               x="57.599998"
               xlink:href="#m8c28f2c022"
               y="224.2285"
               id="use2576"
               width="100%"
               height="100%" />
          </g>
        </g>
        <g
           id="text_7"
           style="stroke-linecap:butt;stroke-linejoin:round">
          <!-- 0.04 -->
          <g
             transform="matrix(0.1,0,0,-0.1,28.334375,228.02771)"
             id="g2592"
             style="stroke-linecap:butt;stroke-linejoin:round">
            <defs
               id="defs2582">
              <path
                 d="M 37.796875,64.3125 12.890625,25.390625 h 24.90625 z m -2.59375,8.59375 h 12.40625 V 25.390625 h 10.40625 V 17.1875 H 47.609375 V 0 h -9.8125 V 17.1875 H 4.890625 v 9.515625 z"
                 id="DejaVuSans-52"
                 inkscape:connector-curvature="0"
                 style="stroke-linecap:butt;stroke-linejoin:round" />
            </defs>
            <use
               xlink:href="#DejaVuSans-48"
               id="use2584"
               style="stroke-linecap:butt;stroke-linejoin:round"
               x="0"
               y="0"
               width="100%"
               height="100%" />
            <use
               x="63.623047"
               xlink:href="#DejaVuSans-46"
               id="use2586"
               style="stroke-linecap:butt;stroke-linejoin:round"
               y="0"
               width="100%"
               height="100%" />
            <use
               x="95.410156"
               xlink:href="#DejaVuSans-48"
               id="use2588"
               style="stroke-linecap:butt;stroke-linejoin:round"
               y="0"
               width="100%"
               height="100%" />
            <use
               x="159.0332"
               xlink:href="#DejaVuSans-52"
               id="use2590"
               style="stroke-linecap:butt;stroke-linejoin:round"
               y="0"
               width="100%"
               height="100%" />
          </g>
        </g>
      </g>
      <g
         id="ytick_4"
         style="stroke-linecap:butt;stroke-linejoin:round">
        <g
           id="line2d_7"
           style="stroke-linecap:butt;stroke-linejoin:round">
          <g
             id="g2598"
             style="stroke-linecap:butt;stroke-linejoin:round">
            <use
               style="stroke:#000000;stroke-width:0.80000001;stroke-linecap:butt;stroke-linejoin:round"
               x="57.599998"
               xlink:href="#m8c28f2c022"
               y="187.33292"
               id="use2596"
               width="100%"
               height="100%" />
          </g>
        </g>
        <g
           id="text_8"
           style="stroke-linecap:butt;stroke-linejoin:round">
          <!-- 0.06 -->
          <g
             transform="matrix(0.1,0,0,-0.1,28.334375,191.13214)"
             id="g2612"
             style="stroke-linecap:butt;stroke-linejoin:round">
            <defs
               id="defs2602">
              <path
                 d="m 33.015625,40.375 q -6.640625,0 -10.53125,-4.546875 -3.875,-4.53125 -3.875,-12.4375 0,-7.859375 3.875,-12.4375 3.890625,-4.5625 10.53125,-4.5625 6.640625,0 10.515625,4.5625 3.875,4.578125 3.875,12.4375 0,7.90625 -3.875,12.4375 Q 39.65625,40.375 33.015625,40.375 Z M 52.59375,71.296875 V 62.3125 q -3.71875,1.75 -7.5,2.671875 -3.78125,0.9375 -7.5,0.9375 -9.765625,0 -14.921875,-6.59375 -5.140625,-6.59375 -5.875,-19.921875 2.875,4.25 7.21875,6.515625 4.359375,2.265625 9.578125,2.265625 10.984375,0 17.359375,-6.671875 6.375,-6.65625 6.375,-18.125 0,-11.234375 -6.640625,-18.03125 -6.640625,-6.78125 -17.671875,-6.78125 -12.65625,0 -19.34375,9.6875 -6.6875,9.703125 -6.6875,28.109375 0,17.28125 8.203125,27.5625 8.203125,10.28125 22.015625,10.28125 3.71875,0 7.5,-0.734375 3.78125,-0.734375 7.890625,-2.1875 z"
                 id="DejaVuSans-54"
                 inkscape:connector-curvature="0"
                 style="stroke-linecap:butt;stroke-linejoin:round" />
            </defs>
            <use
               xlink:href="#DejaVuSans-48"
               id="use2604"
               style="stroke-linecap:butt;stroke-linejoin:round"
               x="0"
               y="0"
               width="100%"
               height="100%" />
            <use
               x="63.623047"
               xlink:href="#DejaVuSans-46"
               id="use2606"
               style="stroke-linecap:butt;stroke-linejoin:round"
               y="0"
               width="100%"
               height="100%" />
            <use
               x="95.410156"
               xlink:href="#DejaVuSans-48"
               id="use2608"
               style="stroke-linecap:butt;stroke-linejoin:round"
               y="0"
               width="100%"
               height="100%" />
            <use
               x="159.0332"
               xlink:href="#DejaVuSans-54"
               id="use2610"
               style="stroke-linecap:butt;stroke-linejoin:round"
               y="0"
               width="100%"
               height="100%" />
          </g>
        </g>
      </g>
      <g
         id="ytick_5"
         style="stroke-linecap:butt;stroke-linejoin:round">
        <g
           id="line2d_8"
           style="stroke-linecap:butt;stroke-linejoin:round">
          <g
             id="g2618"
             style="stroke-linecap:butt;stroke-linejoin:round">
            <use
               style="stroke:#000000;stroke-width:0.80000001;stroke-linecap:butt;stroke-linejoin:round"
               x="57.599998"
               xlink:href="#m8c28f2c022"
               y="150.43735"
               id="use2616"
               width="100%"
               height="100%" />
          </g>
        </g>
        <g
           id="text_9"
           style="stroke-linecap:butt;stroke-linejoin:round">
          <!-- 0.08 -->
          <g
             transform="matrix(0.1,0,0,-0.1,28.334375,154.23656)"
             id="g2632"
             style="stroke-linecap:butt;stroke-linejoin:round">
            <defs
               id="defs2622">
              <path
                 d="m 31.78125,34.625 q -7.03125,0 -11.0625,-3.765625 -4.015625,-3.765625 -4.015625,-10.34375 0,-6.59375 4.015625,-10.359375 4.03125,-3.765625 11.0625,-3.765625 7.03125,0 11.078125,3.78125 4.0625,3.796875 4.0625,10.34375 0,6.578125 -4.03125,10.34375 Q 38.875,34.625 31.78125,34.625 Z m -9.859375,4.1875 Q 15.578125,40.375 12.03125,44.71875 8.5,49.078125 8.5,55.328125 q 0,8.734375 6.21875,13.8125 6.234375,5.078125 17.0625,5.078125 10.890625,0 17.09375,-5.078125 6.203125,-5.078125 6.203125,-13.8125 0,-6.25 -3.546875,-10.609375 Q 48,40.375 41.703125,38.8125 q 7.125,-1.65625 11.09375,-6.5 3.984375,-4.828125 3.984375,-11.796875 0,-10.609375 -6.46875,-16.28125 -6.46875,-5.65625 -18.53125,-5.65625 -12.046875,0 -18.53125,5.65625 -6.46875,5.671875 -6.46875,16.28125 0,6.96875 4,11.796875 4.015625,4.84375 11.140625,6.5 z M 18.3125,54.390625 q 0,-5.65625 3.53125,-8.828125 3.546875,-3.171875 9.9375,-3.171875 6.359375,0 9.9375,3.171875 3.59375,3.171875 3.59375,8.828125 0,5.671875 -3.59375,8.84375 -3.578125,3.171875 -9.9375,3.171875 -6.390625,0 -9.9375,-3.171875 Q 18.3125,60.0625 18.3125,54.390625 Z"
                 id="DejaVuSans-56"
                 inkscape:connector-curvature="0"
                 style="stroke-linecap:butt;stroke-linejoin:round" />
            </defs>
            <use
               xlink:href="#DejaVuSans-48"
               id="use2624"
               style="stroke-linecap:butt;stroke-linejoin:round"
               x="0"
               y="0"
               width="100%"
               height="100%" />
            <use
               x="63.623047"
               xlink:href="#DejaVuSans-46"
               id="use2626"
               style="stroke-linecap:butt;stroke-linejoin:round"
               y="0"
               width="100%"
               height="100%" />
            <use
               x="95.410156"
               xlink:href="#DejaVuSans-48"
               id="use2628"
               style="stroke-linecap:butt;stroke-linejoin:round"
               y="0"
               width="100%"
               height="100%" />
            <use
               x="159.0332"
               xlink:href="#DejaVuSans-56"
               id="use2630"
               style="stroke-linecap:butt;stroke-linejoin:round"
               y="0"
               width="100%"
               height="100%" />
          </g>
        </g>
      </g>
      <g
         id="ytick_6"
         style="stroke-linecap:butt;stroke-linejoin:round">
        <g
           id="line2d_9"
           style="stroke-linecap:butt;stroke-linejoin:round">
          <g
             id="g2638"
             style="stroke-linecap:butt;stroke-linejoin:round">
            <use
               style="stroke:#000000;stroke-width:0.80000001;stroke-linecap:butt;stroke-linejoin:round"
               x="57.599998"
               xlink:href="#m8c28f2c022"
               y="113.54176"
               id="use2636"
               width="100%"
               height="100%" />
          </g>
        </g>
        <g
           id="text_10"
           style="stroke-linecap:butt;stroke-linejoin:round">
          <!-- 0.10 -->
          <g
             transform="matrix(0.1,0,0,-0.1,28.334375,117.34098)"
             id="g2649"
             style="stroke-linecap:butt;stroke-linejoin:round">
            <use
               xlink:href="#DejaVuSans-48"
               id="use2641"
               style="stroke-linecap:butt;stroke-linejoin:round"
               x="0"
               y="0"
               width="100%"
               height="100%" />
            <use
               x="63.623047"
               xlink:href="#DejaVuSans-46"
               id="use2643"
               style="stroke-linecap:butt;stroke-linejoin:round"
               y="0"
               width="100%"
               height="100%" />
            <use
               x="95.410156"
               xlink:href="#DejaVuSans-49"
               id="use2645"
               style="stroke-linecap:butt;stroke-linejoin:round"
               y="0"
               width="100%"
               height="100%" />
            <use
               x="159.0332"
               xlink:href="#DejaVuSans-48"
               id="use2647"
               style="stroke-linecap:butt;stroke-linejoin:round"
               y="0"
               width="100%"
               height="100%" />
          </g>
        </g>
      </g>
      <g
         id="ytick_7"
         style="stroke-linecap:butt;stroke-linejoin:round">
        <g
           id="line2d_10"
           style="stroke-linecap:butt;stroke-linejoin:round">
          <g
             id="g2655"
             style="stroke-linecap:butt;stroke-linejoin:round">
            <use
               style="stroke:#000000;stroke-width:0.80000001;stroke-linecap:butt;stroke-linejoin:round"
               x="57.599998"
               xlink:href="#m8c28f2c022"
               y="76.646187"
               id="use2653"
               width="100%"
               height="100%" />
          </g>
        </g>
        <g
           id="text_11"
           style="stroke-linecap:butt;stroke-linejoin:round">
          <!-- 0.12 -->
          <g
             transform="matrix(0.1,0,0,-0.1,28.334375,80.445403)"
             id="g2666"
             style="stroke-linecap:butt;stroke-linejoin:round">
            <use
               xlink:href="#DejaVuSans-48"
               id="use2658"
               style="stroke-linecap:butt;stroke-linejoin:round"
               x="0"
               y="0"
               width="100%"
               height="100%" />
            <use
               x="63.623047"
               xlink:href="#DejaVuSans-46"
               id="use2660"
               style="stroke-linecap:butt;stroke-linejoin:round"
               y="0"
               width="100%"
               height="100%" />
            <use
               x="95.410156"
               xlink:href="#DejaVuSans-49"
               id="use2662"
               style="stroke-linecap:butt;stroke-linejoin:round"
               y="0"
               width="100%"
               height="100%" />
            <use
               x="159.0332"
               xlink:href="#DejaVuSans-50"
               id="use2664"
               style="stroke-linecap:butt;stroke-linejoin:round"
               y="0"
               width="100%"
               height="100%" />
          </g>
        </g>
      </g>
      <path
         clip-path="url(#pc2e61fe75f)"
         d="M 73.832727,211.34083 236.16,53.568 398.48727,295.488"
         style="fill:none;stroke:#1f77b4;stroke-width:1.5;stroke-linecap:square;stroke-linejoin:round;marker-start:url(#DotM);marker-mid:url(#DotM);marker-end:url(#DotM);paint-order:normal"
         id="path2687"
         inkscape:connector-curvature="0" />
      <path
         d="M 57.6,307.584 V 41.472"
         style="fill:none;stroke:#000000;stroke-width:0.80000001;stroke-linecap:square;stroke-linejoin:miter"
         id="path2690"
         inkscape:connector-curvature="0" />
      <path
         d="M 414.72,307.584 V 41.472"
         style="fill:none;stroke:#000000;stroke-width:0.80000001;stroke-linecap:square;stroke-linejoin:miter"
         id="path2693"
         inkscape:connector-curvature="0" />
      <path
         d="M 57.6,307.584 H 414.72"
         style="fill:none;stroke:#000000;stroke-width:0.80000001;stroke-linecap:square;stroke-linejoin:miter"
         id="path2696"
         inkscape:connector-curvature="0" />
      <path
         d="M 57.6,41.472 H 414.72"
         style="fill:none;stroke:#000000;stroke-width:0.80000001;stroke-linecap:square;stroke-linejoin:miter"
         id="path2699"
         inkscape:connector-curvature="0" />
      <g
         style="stroke-linecap:butt;stroke-linejoin:round"
         transform="matrix(0,-1.2887622,1.2887622,0,-151.78773,377.90169)"
         ns1:version="0.11.0"
         ns1:texconverter="pdflatex"
         ns1:pdfconverter="pdf2svg"
         ns1:text="$J(p)$\n"
         ns1:preamble="default_packages.tex"
         ns1:scale="0.996579690344"
         ns1:alignment="middle center"
         ns1:jacobian_sqrt="0.99658"
         id="g4185">
        <g
           style="stroke-linecap:butt;stroke-linejoin:round"
           id="surface1">
          <g
             style="fill:#000000;fill-opacity:1;stroke-linecap:butt;stroke-linejoin:round"
             id="g4170">
            <path
               inkscape:connector-curvature="0"
               style="stroke:none;stroke-width:0;stroke-linecap:butt;stroke-linejoin:round"
               d="M 5.390625,-6.078125 C 5.46875,-6.40625 5.5,-6.5 6.046875,-6.5 c 0.15625,0 0.265625,0 0.265625,-0.1875 0,-0.09375 -0.0625,-0.125 -0.140625,-0.125 -0.25,0 -0.859375,0.03125 -1.109375,0.03125 -0.328125,0 -1.140625,-0.03125 -1.46875,-0.03125 -0.078125,0 -0.203125,0 -0.203125,0.203125 C 3.390625,-6.5 3.46875,-6.5 3.734375,-6.5 c 0.21875,0 0.328125,0 0.578125,0.015625 0.234375,0.03125 0.296875,0.0625 0.296875,0.203125 0,0.0625 -0.015625,0.125 -0.03125,0.203125 L 3.421875,-1.5 C 3.1875,-0.53125 2.515625,0 2,0 1.734375,0 1.203125,-0.09375 1.046875,-0.625 c 0.03125,0.015625 0.09375,0.015625 0.125,0.015625 0.390625,0 0.640625,-0.34375 0.640625,-0.640625 0,-0.3125 -0.265625,-0.421875 -0.4375,-0.421875 -0.171875,0 -0.671875,0.125 -0.671875,0.796875 0,0.625 0.53125,1.09375 1.328125,1.09375 0.90625,0 1.953125,-0.65625 2.203125,-1.640625 z m 0,0"
               transform="translate(148.712,134.765)"
               id="path4168" />
          </g>
          <g
             style="fill:#000000;fill-opacity:1;stroke-linecap:butt;stroke-linejoin:round"
             id="g4174">
            <path
               inkscape:connector-curvature="0"
               style="stroke:none;stroke-width:0;stroke-linecap:butt;stroke-linejoin:round"
               d="m 3.296875,2.390625 c 0,-0.03125 0,-0.046875 -0.171875,-0.21875 C 1.890625,0.921875 1.5625,-0.96875 1.5625,-2.5 c 0,-1.734375 0.375,-3.46875 1.609375,-4.703125 0.125,-0.125 0.125,-0.140625 0.125,-0.171875 0,-0.078125 -0.03125,-0.109375 -0.09375,-0.109375 -0.109375,0 -1,0.6875 -1.59375,1.953125 -0.5,1.09375 -0.625,2.203125 -0.625,3.03125 0,0.78125 0.109375,1.984375 0.65625,3.125 C 2.25,1.84375 3.09375,2.5 3.203125,2.5 c 0.0625,0 0.09375,-0.03125 0.09375,-0.109375 z m 0,0"
               transform="translate(155.195,134.765)"
               id="path4172" />
          </g>
          <g
             style="fill:#000000;fill-opacity:1;stroke-linecap:butt;stroke-linejoin:round"
             id="g4178">
            <path
               inkscape:connector-curvature="0"
               style="stroke:none;stroke-width:0;stroke-linecap:butt;stroke-linejoin:round"
               d="M 0.453125,1.21875 C 0.375,1.5625 0.34375,1.625 -0.09375,1.625 c -0.109375,0 -0.21875,0 -0.21875,0.1875 0,0.078125 0.046875,0.125 0.125,0.125 0.265625,0 0.5625,-0.03125 0.828125,-0.03125 0.34375,0 0.671875,0.03125 1,0.03125 0.046875,0 0.171875,0 0.171875,-0.203125 C 1.8125,1.625 1.71875,1.625 1.578125,1.625 c -0.5,0 -0.5,-0.0625 -0.5,-0.15625 0,-0.125 0.421875,-1.75 0.484375,-2 0.125,0.296875 0.40625,0.640625 0.921875,0.640625 1.15625,0 2.40625,-1.453125 2.40625,-2.921875 0,-0.9375 -0.578125,-1.59375 -1.328125,-1.59375 -0.5,0 -0.984375,0.359375 -1.3125,0.75 -0.09375,-0.546875 -0.53125,-0.75 -0.890625,-0.75 -0.46875,0 -0.65625,0.390625 -0.734375,0.5625 C 0.4375,-3.5 0.3125,-2.90625 0.3125,-2.875 c 0,0.109375 0.09375,0.109375 0.109375,0.109375 0.109375,0 0.109375,-0.015625 0.171875,-0.234375 0.171875,-0.703125 0.375,-1.1875 0.734375,-1.1875 0.171875,0 0.3125,0.078125 0.3125,0.453125 0,0.234375 -0.03125,0.34375 -0.078125,0.515625 z m 1.75,-4.328125 C 2.265625,-3.375 2.546875,-3.65625 2.71875,-3.8125 c 0.359375,-0.296875 0.640625,-0.375 0.8125,-0.375 0.390625,0 0.640625,0.34375 0.640625,0.9375 0,0.59375 -0.328125,1.734375 -0.515625,2.109375 -0.34375,0.703125 -0.8125,1.03125 -1.1875,1.03125 C 1.8125,-0.109375 1.6875,-0.9375 1.6875,-1 c 0,-0.015625 0,-0.03125 0.03125,-0.15625 z m 0,0"
               transform="translate(159.069,134.765)"
               id="path4176" />
          </g>
          <g
             style="fill:#000000;fill-opacity:1;stroke-linecap:butt;stroke-linejoin:round"
             id="g4182">
            <path
               inkscape:connector-curvature="0"
               style="stroke:none;stroke-width:0;stroke-linecap:butt;stroke-linejoin:round"
               d="m 2.875,-2.5 c 0,-0.765625 -0.109375,-1.96875 -0.65625,-3.109375 -0.59375,-1.21875 -1.453125,-1.875 -1.546875,-1.875 -0.0625,0 -0.109375,0.046875 -0.109375,0.109375 0,0.03125 0,0.046875 0.1875,0.234375 0.984375,0.984375 1.546875,2.5625 1.546875,4.640625 0,1.71875 -0.359375,3.46875 -1.59375,4.71875 C 0.5625,2.34375 0.5625,2.359375 0.5625,2.390625 0.5625,2.453125 0.609375,2.5 0.671875,2.5 0.765625,2.5 1.671875,1.8125 2.25,0.546875 2.765625,-0.546875 2.875,-1.65625 2.875,-2.5 Z m 0,0"
               transform="translate(164.082,134.765)"
               id="path4180" />
          </g>
        </g>
      </g>
      <flowRoot
         transform="matrix(0.26621914,0,0,0.26621914,146.0464,272.57415)"
         style="font-style:normal;font-weight:normal;font-size:40px;line-height:1.25;font-family:sans-serif;letter-spacing:0px;word-spacing:0px;fill:#000000;fill-opacity:1;stroke:none;stroke-linecap:butt;stroke-linejoin:round"
         id="flowRoot4362"
         xml:space="preserve"><flowRegion
           style="stroke-linecap:butt;stroke-linejoin:round"
           id="flowRegion4364"><rect
             style="stroke-linecap:butt;stroke-linejoin:round"
             y="-47.83728"
             x="-325.0983"
             height="45.938866"
             width="133.45322"
             id="rect4366" /></flowRegion><flowPara
           style="stroke-linecap:butt;stroke-linejoin:round"
           id="flowPara4368">MVMO</flowPara></flowRoot>      <text
         id="text4372"
         y="205.56706"
         x="227.66917"
         style="font-style:normal;font-weight:normal;font-size:10.57951069px;line-height:1.25;font-family:sans-serif;letter-spacing:0px;word-spacing:0px;fill:#000000;fill-opacity:1;stroke:none;stroke-width:0.26448774;stroke-linecap:butt;stroke-linejoin:round"
         xml:space="preserve"><tspan
           y="205.56706"
           x="227.66917"
           style="stroke-width:0.26448774;stroke-linecap:butt;stroke-linejoin:round"
           id="tspan4370"
           sodipodi:role="line">TSM</tspan></text>
      <path
         sodipodi:nodetypes="cc"
         inkscape:connector-curvature="0"
         id="path4374"
         d="m 73.261062,258.10094 0.517742,-39.08982"
         style="fill:none;stroke:#000000;stroke-width:0.75px;stroke-linecap:butt;stroke-linejoin:miter;stroke-opacity:1;marker-end:url(#Arrow1Lend)" />
      <path
         sodipodi:nodetypes="cc"
         inkscape:connector-curvature="0"
         id="path4414"
         d="M 79.47401,211.24493 H 397.11118"
         style="fill:none;stroke:#000000;stroke-width:0.75px;stroke-linecap:butt;stroke-linejoin:miter;stroke-opacity:1;marker-start:url(#marker4418);marker-end:url(#marker4446)" />
    </g>
  </g>
  <defs
     id="defs2707">
    <clipPath
       id="pc2e61fe75f"
       style="stroke-linecap:butt;stroke-linejoin:round">
      <rect
         id="rect2704"
         y="41.472"
         x="57.599998"
         width="357.12"
         height="266.112"
         style="stroke-linecap:butt;stroke-linejoin:round" />
    </clipPath>
  </defs>
</svg>
