<?xml version="1.0" encoding="utf-8" standalone="no"?>
<!DOCTYPE svg PUBLIC "-//W3C//DTD SVG 1.1//EN"
  "http://www.w3.org/Graphics/SVG/1.1/DTD/svg11.dtd">
<!-- Created with matplotlib (http://matplotlib.org/) -->
<svg height="345pt" version="1.1" viewBox="0 0 460 345" width="460pt" xmlns="http://www.w3.org/2000/svg" xmlns:xlink="http://www.w3.org/1999/xlink">
 <defs>
  <style type="text/css">
*{stroke-linecap:butt;stroke-linejoin:round;}
  </style>
 </defs>
 <g id="figure_1">
  <g id="patch_1">
   <path d="M 0 345.6 
L 460.8 345.6 
L 460.8 0 
L 0 0 
z
" style="fill:#ffffff;"/>
  </g>
  <g id="axes_1">
   <g id="patch_2">
    <path d="M 57.6 307.584 
L 414.72 307.584 
L 414.72 41.472 
L 57.6 41.472 
z
" style="fill:#ffffff;"/>
   </g>
   <g id="matplotlib.axis_1">
    <g id="xtick_1">
     <g id="line2d_1">
      <defs>
       <path d="M 0 0 
L 0 3.5 
" id="md1a982d699" style="stroke:#000000;stroke-width:0.8;"/>
      </defs>
      <g>
       <use style="stroke:#000000;stroke-width:0.8;" x="57.6" xlink:href="#md1a982d699" y="307.584"/>
      </g>
     </g>
     <g id="text_1">
      <!-- 0.0 -->
      <defs>
       <path d="M 31.78125 66.40625 
Q 24.171875 66.40625 20.328125 58.90625 
Q 16.5 51.421875 16.5 36.375 
Q 16.5 21.390625 20.328125 13.890625 
Q 24.171875 6.390625 31.78125 6.390625 
Q 39.453125 6.390625 43.28125 13.890625 
Q 47.125 21.390625 47.125 36.375 
Q 47.125 51.421875 43.28125 58.90625 
Q 39.453125 66.40625 31.78125 66.40625 
z
M 31.78125 74.21875 
Q 44.046875 74.21875 50.515625 64.515625 
Q 56.984375 54.828125 56.984375 36.375 
Q 56.984375 17.96875 50.515625 8.265625 
Q 44.046875 -1.421875 31.78125 -1.421875 
Q 19.53125 -1.421875 13.0625 8.265625 
Q 6.59375 17.96875 6.59375 36.375 
Q 6.59375 54.828125 13.0625 64.515625 
Q 19.53125 74.21875 31.78125 74.21875 
z
" id="DejaVuSans-30"/>
       <path d="M 10.6875 12.40625 
L 21 12.40625 
L 21 0 
L 10.6875 0 
z
" id="DejaVuSans-2e"/>
      </defs>
      <g transform="translate(49.648438 322.182437)scale(0.1 -0.1)">
       <use xlink:href="#DejaVuSans-30"/>
       <use x="63.623047" xlink:href="#DejaVuSans-2e"/>
       <use x="95.410156" xlink:href="#DejaVuSans-30"/>
      </g>
     </g>
    </g>
    <g id="xtick_2">
     <g id="line2d_2">
      <g>
       <use style="stroke:#000000;stroke-width:0.8;" x="129.024" xlink:href="#md1a982d699" y="307.584"/>
      </g>
     </g>
     <g id="text_2">
      <!-- 0.2 -->
      <defs>
       <path d="M 19.1875 8.296875 
L 53.609375 8.296875 
L 53.609375 0 
L 7.328125 0 
L 7.328125 8.296875 
Q 12.9375 14.109375 22.625 23.890625 
Q 32.328125 33.6875 34.8125 36.53125 
Q 39.546875 41.84375 41.421875 45.53125 
Q 43.3125 49.21875 43.3125 52.78125 
Q 43.3125 58.59375 39.234375 62.25 
Q 35.15625 65.921875 28.609375 65.921875 
Q 23.96875 65.921875 18.8125 64.3125 
Q 13.671875 62.703125 7.8125 59.421875 
L 7.8125 69.390625 
Q 13.765625 71.78125 18.9375 73 
Q 24.125 74.21875 28.421875 74.21875 
Q 39.75 74.21875 46.484375 68.546875 
Q 53.21875 62.890625 53.21875 53.421875 
Q 53.21875 48.921875 51.53125 44.890625 
Q 49.859375 40.875 45.40625 35.40625 
Q 44.1875 33.984375 37.640625 27.21875 
Q 31.109375 20.453125 19.1875 8.296875 
z
" id="DejaVuSans-32"/>
      </defs>
      <g transform="translate(121.072438 322.182437)scale(0.1 -0.1)">
       <use xlink:href="#DejaVuSans-30"/>
       <use x="63.623047" xlink:href="#DejaVuSans-2e"/>
       <use x="95.410156" xlink:href="#DejaVuSans-32"/>
      </g>
     </g>
    </g>
    <g id="xtick_3">
     <g id="line2d_3">
      <g>
       <use style="stroke:#000000;stroke-width:0.8;" x="200.448" xlink:href="#md1a982d699" y="307.584"/>
      </g>
     </g>
     <g id="text_3">
      <!-- 0.4 -->
      <defs>
       <path d="M 37.796875 64.3125 
L 12.890625 25.390625 
L 37.796875 25.390625 
z
M 35.203125 72.90625 
L 47.609375 72.90625 
L 47.609375 25.390625 
L 58.015625 25.390625 
L 58.015625 17.1875 
L 47.609375 17.1875 
L 47.609375 0 
L 37.796875 0 
L 37.796875 17.1875 
L 4.890625 17.1875 
L 4.890625 26.703125 
z
" id="DejaVuSans-34"/>
      </defs>
      <g transform="translate(192.496438 322.182437)scale(0.1 -0.1)">
       <use xlink:href="#DejaVuSans-30"/>
       <use x="63.623047" xlink:href="#DejaVuSans-2e"/>
       <use x="95.410156" xlink:href="#DejaVuSans-34"/>
      </g>
     </g>
    </g>
    <g id="xtick_4">
     <g id="line2d_4">
      <g>
       <use style="stroke:#000000;stroke-width:0.8;" x="271.872" xlink:href="#md1a982d699" y="307.584"/>
      </g>
     </g>
     <g id="text_4">
      <!-- 0.6 -->
      <defs>
       <path d="M 33.015625 40.375 
Q 26.375 40.375 22.484375 35.828125 
Q 18.609375 31.296875 18.609375 23.390625 
Q 18.609375 15.53125 22.484375 10.953125 
Q 26.375 6.390625 33.015625 6.390625 
Q 39.65625 6.390625 43.53125 10.953125 
Q 47.40625 15.53125 47.40625 23.390625 
Q 47.40625 31.296875 43.53125 35.828125 
Q 39.65625 40.375 33.015625 40.375 
z
M 52.59375 71.296875 
L 52.59375 62.3125 
Q 48.875 64.0625 45.09375 64.984375 
Q 41.3125 65.921875 37.59375 65.921875 
Q 27.828125 65.921875 22.671875 59.328125 
Q 17.53125 52.734375 16.796875 39.40625 
Q 19.671875 43.65625 24.015625 45.921875 
Q 28.375 48.1875 33.59375 48.1875 
Q 44.578125 48.1875 50.953125 41.515625 
Q 57.328125 34.859375 57.328125 23.390625 
Q 57.328125 12.15625 50.6875 5.359375 
Q 44.046875 -1.421875 33.015625 -1.421875 
Q 20.359375 -1.421875 13.671875 8.265625 
Q 6.984375 17.96875 6.984375 36.375 
Q 6.984375 53.65625 15.1875 63.9375 
Q 23.390625 74.21875 37.203125 74.21875 
Q 40.921875 74.21875 44.703125 73.484375 
Q 48.484375 72.75 52.59375 71.296875 
z
" id="DejaVuSans-36"/>
      </defs>
      <g transform="translate(263.920438 322.182437)scale(0.1 -0.1)">
       <use xlink:href="#DejaVuSans-30"/>
       <use x="63.623047" xlink:href="#DejaVuSans-2e"/>
       <use x="95.410156" xlink:href="#DejaVuSans-36"/>
      </g>
     </g>
    </g>
    <g id="xtick_5">
     <g id="line2d_5">
      <g>
       <use style="stroke:#000000;stroke-width:0.8;" x="343.296" xlink:href="#md1a982d699" y="307.584"/>
      </g>
     </g>
     <g id="text_5">
      <!-- 0.8 -->
      <defs>
       <path d="M 31.78125 34.625 
Q 24.75 34.625 20.71875 30.859375 
Q 16.703125 27.09375 16.703125 20.515625 
Q 16.703125 13.921875 20.71875 10.15625 
Q 24.75 6.390625 31.78125 6.390625 
Q 38.8125 6.390625 42.859375 10.171875 
Q 46.921875 13.96875 46.921875 20.515625 
Q 46.921875 27.09375 42.890625 30.859375 
Q 38.875 34.625 31.78125 34.625 
z
M 21.921875 38.8125 
Q 15.578125 40.375 12.03125 44.71875 
Q 8.5 49.078125 8.5 55.328125 
Q 8.5 64.0625 14.71875 69.140625 
Q 20.953125 74.21875 31.78125 74.21875 
Q 42.671875 74.21875 48.875 69.140625 
Q 55.078125 64.0625 55.078125 55.328125 
Q 55.078125 49.078125 51.53125 44.71875 
Q 48 40.375 41.703125 38.8125 
Q 48.828125 37.15625 52.796875 32.3125 
Q 56.78125 27.484375 56.78125 20.515625 
Q 56.78125 9.90625 50.3125 4.234375 
Q 43.84375 -1.421875 31.78125 -1.421875 
Q 19.734375 -1.421875 13.25 4.234375 
Q 6.78125 9.90625 6.78125 20.515625 
Q 6.78125 27.484375 10.78125 32.3125 
Q 14.796875 37.15625 21.921875 38.8125 
z
M 18.3125 54.390625 
Q 18.3125 48.734375 21.84375 45.5625 
Q 25.390625 42.390625 31.78125 42.390625 
Q 38.140625 42.390625 41.71875 45.5625 
Q 45.3125 48.734375 45.3125 54.390625 
Q 45.3125 60.0625 41.71875 63.234375 
Q 38.140625 66.40625 31.78125 66.40625 
Q 25.390625 66.40625 21.84375 63.234375 
Q 18.3125 60.0625 18.3125 54.390625 
z
" id="DejaVuSans-38"/>
      </defs>
      <g transform="translate(335.344438 322.182437)scale(0.1 -0.1)">
       <use xlink:href="#DejaVuSans-30"/>
       <use x="63.623047" xlink:href="#DejaVuSans-2e"/>
       <use x="95.410156" xlink:href="#DejaVuSans-38"/>
      </g>
     </g>
    </g>
    <g id="xtick_6">
     <g id="line2d_6">
      <g>
       <use style="stroke:#000000;stroke-width:0.8;" x="414.72" xlink:href="#md1a982d699" y="307.584"/>
      </g>
     </g>
     <g id="text_6">
      <!-- 1.0 -->
      <defs>
       <path d="M 12.40625 8.296875 
L 28.515625 8.296875 
L 28.515625 63.921875 
L 10.984375 60.40625 
L 10.984375 69.390625 
L 28.421875 72.90625 
L 38.28125 72.90625 
L 38.28125 8.296875 
L 54.390625 8.296875 
L 54.390625 0 
L 12.40625 0 
z
" id="DejaVuSans-31"/>
      </defs>
      <g transform="translate(406.768438 322.182437)scale(0.1 -0.1)">
       <use xlink:href="#DejaVuSans-31"/>
       <use x="63.623047" xlink:href="#DejaVuSans-2e"/>
       <use x="95.410156" xlink:href="#DejaVuSans-30"/>
      </g>
     </g>
    </g>
    <g id="text_7">
     <!-- $x'_{i}$ -->
     <defs>
      <path d="M 60.015625 54.6875 
L 34.90625 27.875 
L 50.296875 0 
L 39.984375 0 
L 28.421875 21.6875 
L 8.296875 0 
L -2.59375 0 
L 24.3125 28.8125 
L 10.015625 54.6875 
L 20.3125 54.6875 
L 30.8125 34.90625 
L 49.125 54.6875 
z
" id="DejaVuSans-Oblique-78"/>
      <path d="M 3.515625 5.421875 
Q 2.875 5.609375 2.875 6.390625 
L 15.09375 51.8125 
Q 15.671875 53.65625 17.078125 54.78125 
Q 18.5 55.90625 20.3125 55.90625 
Q 22.65625 55.90625 24.4375 54.359375 
Q 26.21875 52.828125 26.21875 50.484375 
Q 26.21875 49.46875 25.6875 48.1875 
L 7.625 4.984375 
Q 7.28125 4.296875 6.6875 4.296875 
Q 6.15625 4.296875 5 4.78125 
Q 3.859375 5.28125 3.515625 5.421875 
z
" id="Cmsy10-30"/>
      <path d="M 18.3125 75.984375 
L 27.296875 75.984375 
L 25.09375 64.59375 
L 16.109375 64.59375 
z
M 14.203125 54.6875 
L 23.1875 54.6875 
L 12.5 0 
L 3.515625 0 
z
" id="DejaVuSans-Oblique-69"/>
     </defs>
     <g transform="translate(230.71 335.860562)scale(0.1 -0.1)">
      <use transform="translate(0 0.584375)" xlink:href="#DejaVuSans-Oblique-78"/>
      <use transform="translate(63.645833 38.865625)scale(0.7)" xlink:href="#Cmsy10-30"/>
      <use transform="translate(86.580404 -15.821875)scale(0.7)" xlink:href="#DejaVuSans-Oblique-69"/>
     </g>
    </g>
   </g>
   <g id="matplotlib.axis_2">
    <g id="ytick_1">
     <g id="line2d_7">
      <defs>
       <path d="M 0 0 
L -3.5 0 
" id="mfe1c4b89d3" style="stroke:#000000;stroke-width:0.8;"/>
      </defs>
      <g>
       <use style="stroke:#000000;stroke-width:0.8;" x="57.6" xlink:href="#mfe1c4b89d3" y="307.584"/>
      </g>
     </g>
     <g id="text_8">
      <!-- 0.0 -->
      <g transform="translate(34.696875 311.383219)scale(0.1 -0.1)">
       <use xlink:href="#DejaVuSans-30"/>
       <use x="63.623047" xlink:href="#DejaVuSans-2e"/>
       <use x="95.410156" xlink:href="#DejaVuSans-30"/>
      </g>
     </g>
    </g>
    <g id="ytick_2">
     <g id="line2d_8">
      <g>
       <use style="stroke:#000000;stroke-width:0.8;" x="57.6" xlink:href="#mfe1c4b89d3" y="254.3616"/>
      </g>
     </g>
     <g id="text_9">
      <!-- 0.2 -->
      <g transform="translate(34.696875 258.160819)scale(0.1 -0.1)">
       <use xlink:href="#DejaVuSans-30"/>
       <use x="63.623047" xlink:href="#DejaVuSans-2e"/>
       <use x="95.410156" xlink:href="#DejaVuSans-32"/>
      </g>
     </g>
    </g>
    <g id="ytick_3">
     <g id="line2d_9">
      <g>
       <use style="stroke:#000000;stroke-width:0.8;" x="57.6" xlink:href="#mfe1c4b89d3" y="201.1392"/>
      </g>
     </g>
     <g id="text_10">
      <!-- 0.4 -->
      <g transform="translate(34.696875 204.938419)scale(0.1 -0.1)">
       <use xlink:href="#DejaVuSans-30"/>
       <use x="63.623047" xlink:href="#DejaVuSans-2e"/>
       <use x="95.410156" xlink:href="#DejaVuSans-34"/>
      </g>
     </g>
    </g>
    <g id="ytick_4">
     <g id="line2d_10">
      <g>
       <use style="stroke:#000000;stroke-width:0.8;" x="57.6" xlink:href="#mfe1c4b89d3" y="147.9168"/>
      </g>
     </g>
     <g id="text_11">
      <!-- 0.6 -->
      <g transform="translate(34.696875 151.716019)scale(0.1 -0.1)">
       <use xlink:href="#DejaVuSans-30"/>
       <use x="63.623047" xlink:href="#DejaVuSans-2e"/>
       <use x="95.410156" xlink:href="#DejaVuSans-36"/>
      </g>
     </g>
    </g>
    <g id="ytick_5">
     <g id="line2d_11">
      <g>
       <use style="stroke:#000000;stroke-width:0.8;" x="57.6" xlink:href="#mfe1c4b89d3" y="94.6944"/>
      </g>
     </g>
     <g id="text_12">
      <!-- 0.8 -->
      <g transform="translate(34.696875 98.493619)scale(0.1 -0.1)">
       <use xlink:href="#DejaVuSans-30"/>
       <use x="63.623047" xlink:href="#DejaVuSans-2e"/>
       <use x="95.410156" xlink:href="#DejaVuSans-38"/>
      </g>
     </g>
    </g>
    <g id="ytick_6">
     <g id="line2d_12">
      <g>
       <use style="stroke:#000000;stroke-width:0.8;" x="57.6" xlink:href="#mfe1c4b89d3" y="41.472"/>
      </g>
     </g>
     <g id="text_13">
      <!-- 1.0 -->
      <g transform="translate(34.696875 45.271219)scale(0.1 -0.1)">
       <use xlink:href="#DejaVuSans-31"/>
       <use x="63.623047" xlink:href="#DejaVuSans-2e"/>
       <use x="95.410156" xlink:href="#DejaVuSans-30"/>
      </g>
     </g>
    </g>
    <g id="text_14">
     <!-- $x_{i}$ -->
     <g transform="translate(28.617188 178.628)rotate(-90)scale(0.1 -0.1)">
      <use transform="translate(0 0.3125)" xlink:href="#DejaVuSans-Oblique-78"/>
      <use transform="translate(59.179688 -16.09375)scale(0.7)" xlink:href="#DejaVuSans-Oblique-69"/>
     </g>
    </g>
   </g>
   <g id="line2d_13">
    <path clip-path="url(#pb18c942533)" d="M 57.6 307.584 
L 61.1712 301.25195 
L 64.7424 295.522272 
L 68.3136 290.337622 
L 71.8848 285.646112 
L 75.456 281.40079 
L 79.0272 277.559166 
L 82.5984 274.082796 
L 86.1696 270.936886 
L 89.7408 268.089953 
L 93.312 265.513506 
L 96.8832 263.181759 
L 100.4544 261.071376 
L 104.0256 259.161238 
L 107.5968 257.432228 
L 111.168 255.867043 
L 114.7392 254.45002 
L 118.3104 253.166977 
L 121.8816 252.005074 
L 125.4528 250.952685 
L 129.024 249.999278 
L 132.5952 249.135311 
L 136.1664 248.352139 
L 139.7376 247.641926 
L 143.3088 246.997563 
L 146.88 246.412605 
L 150.4512 245.881196 
L 154.0224 245.398021 
L 157.5936 244.958244 
L 161.1648 244.557465 
L 164.736 244.191674 
L 168.3072 243.857211 
L 171.8784 243.550731 
L 175.4496 243.269167 
L 179.0208 243.009703 
L 182.592 242.769742 
L 186.1632 242.546884 
L 189.7344 242.338901 
L 193.3056 242.143711 
L 196.8768 241.959363 
L 200.448 241.784012 
L 204.0192 241.615905 
L 207.5904 241.453361 
L 211.1616 241.294754 
L 214.7328 241.138498 
L 218.304 240.98303 
L 221.8752 240.826795 
L 225.4464 240.668231 
L 229.0176 240.505753 
L 232.5888 240.337734 
L 236.16 240.162496 
L 239.7312 239.978285 
L 243.3024 239.783259 
L 246.8736 239.575467 
L 250.4448 239.352831 
L 254.016 239.113123 
L 257.5872 238.853946 
L 261.1584 238.572708 
L 264.7296 238.266594 
L 268.3008 237.932542 
L 271.872 237.56721 
L 275.4432 237.166943 
L 279.0144 236.727736 
L 282.5856 236.245195 
L 286.1568 235.714491 
L 289.728 235.130314 
L 293.2992 234.486819 
L 296.8704 233.777567 
L 300.4416 232.995459 
L 304.0128 232.132671 
L 307.584 231.180568 
L 311.1552 230.129621 
L 314.7264 228.969316 
L 318.2976 227.688039 
L 321.8688 226.272968 
L 325.44 224.709943 
L 329.0112 222.983321 
L 332.5824 221.075823 
L 336.1536 218.968359 
L 339.7248 216.639838 
L 343.296 214.066956 
L 346.8672 211.223966 
L 350.4384 208.082413 
L 354.0096 204.610858 
L 357.5808 200.774558 
L 361.152 196.535118 
L 364.7232 191.850111 
L 368.2944 186.672647 
L 371.8656 180.950912 
L 375.4368 174.62764 
L 379.008 167.639548 
L 382.5792 159.916697 
L 386.1504 151.381796 
L 389.7216 141.949426 
L 393.2928 131.525186 
L 396.864 120.004748 
L 400.4352 107.272813 
L 404.0064 93.201955 
L 407.5776 77.651352 
L 411.1488 60.465367 
L 414.72 41.472 
" style="fill:none;stroke:#1f77b4;stroke-dasharray:1.5,2.475;stroke-dashoffset:0;stroke-width:1.5;"/>
   </g>
   <g id="line2d_14">
    <path clip-path="url(#pb18c942533)" d="M 57.6 307.584 
L 61.1712 294.921291 
L 64.7424 283.46346 
L 68.3136 273.095833 
L 71.8848 263.71465 
L 75.456 255.226021 
L 79.0272 247.54499 
L 82.5984 240.594685 
L 86.1696 234.305545 
L 89.7408 228.614628 
L 93.312 223.464979 
L 96.8832 218.805059 
L 100.4544 214.588232 
L 104.0256 210.772295 
L 107.5968 207.319059 
L 111.168 204.193962 
L 114.7392 201.365731 
L 118.3104 198.806059 
L 121.8816 196.489331 
L 125.4528 194.39236 
L 129.024 192.494161 
L 132.5952 190.775736 
L 136.1664 189.21989 
L 139.7376 187.811051 
L 143.3088 186.535121 
L 146.88 185.379331 
L 150.4512 184.332114 
L 154.0224 183.382991 
L 157.5936 182.522464 
L 161.1648 181.741922 
L 164.736 181.033553 
L 168.3072 180.39027 
L 171.8784 179.805636 
L 175.4496 179.2738 
L 179.0208 178.789442 
L 182.592 178.347714 
L 186.1632 177.944196 
L 189.7344 177.574853 
L 193.3056 177.235987 
L 196.8768 176.92421 
L 200.448 176.636401 
L 204.0192 176.369682 
L 207.5904 176.121384 
L 211.1616 175.889023 
L 214.7328 175.670276 
L 218.304 175.462953 
L 221.8752 175.264982 
L 225.4464 175.074382 
L 229.0176 174.889247 
L 232.5888 174.707725 
L 236.16 174.528 
L 239.7312 174.348275 
L 243.3024 174.166753 
L 246.8736 173.981618 
L 250.4448 173.791018 
L 254.016 173.593047 
L 257.5872 173.385724 
L 261.1584 173.166977 
L 264.7296 172.934616 
L 268.3008 172.686318 
L 271.872 172.419599 
L 275.4432 172.13179 
L 279.0144 171.820013 
L 282.5856 171.481147 
L 286.1568 171.111804 
L 289.728 170.708286 
L 293.2992 170.266558 
L 296.8704 169.7822 
L 300.4416 169.250364 
L 304.0128 168.66573 
L 307.584 168.022447 
L 311.1552 167.314078 
L 314.7264 166.533536 
L 318.2976 165.673009 
L 321.8688 164.723886 
L 325.44 163.676669 
L 329.0112 162.520879 
L 332.5824 161.244949 
L 336.1536 159.83611 
L 339.7248 158.280264 
L 343.296 156.561839 
L 346.8672 154.66364 
L 350.4384 152.566669 
L 354.0096 150.249941 
L 357.5808 147.690269 
L 361.152 144.862038 
L 364.7232 141.736941 
L 368.2944 138.283705 
L 371.8656 134.467768 
L 375.4368 130.250941 
L 379.008 125.591021 
L 382.5792 120.441372 
L 386.1504 114.750455 
L 389.7216 108.461315 
L 393.2928 101.51101 
L 396.864 93.829979 
L 400.4352 85.34135 
L 404.0064 75.960167 
L 407.5776 65.59254 
L 411.1488 54.134709 
L 414.72 41.472 
" style="fill:none;stroke:#ff7f0e;stroke-dasharray:9.6,2.4,1.5,2.4;stroke-dashoffset:0;stroke-width:1.5;"/>
   </g>
   <g id="line2d_15">
    <path clip-path="url(#pb18c942533)" d="M 57.6 307.584 
L 61.1712 288.590633 
L 64.7424 271.404648 
L 68.3136 255.854045 
L 71.8848 241.783187 
L 75.456 229.051252 
L 79.0272 217.530814 
L 82.5984 207.106574 
L 86.1696 197.674204 
L 89.7408 189.139303 
L 93.312 181.416452 
L 96.8832 174.42836 
L 100.4544 168.105088 
L 104.0256 162.383353 
L 107.5968 157.205889 
L 111.168 152.520882 
L 114.7392 148.281442 
L 118.3104 144.445142 
L 121.8816 140.973587 
L 125.4528 137.832034 
L 129.024 134.989044 
L 132.5952 132.416162 
L 136.1664 130.087641 
L 139.7376 127.980177 
L 143.3088 126.072679 
L 146.88 124.346057 
L 150.4512 122.783032 
L 154.0224 121.367961 
L 157.5936 120.086684 
L 161.1648 118.926379 
L 164.736 117.875432 
L 168.3072 116.923329 
L 171.8784 116.060541 
L 175.4496 115.278433 
L 179.0208 114.569181 
L 182.592 113.925686 
L 186.1632 113.341509 
L 189.7344 112.810805 
L 193.3056 112.328264 
L 196.8768 111.889057 
L 200.448 111.48879 
L 204.0192 111.123458 
L 207.5904 110.789406 
L 211.1616 110.483292 
L 214.7328 110.202054 
L 218.304 109.942877 
L 221.8752 109.703169 
L 225.4464 109.480533 
L 229.0176 109.272741 
L 232.5888 109.077715 
L 236.16 108.893504 
L 239.7312 108.718266 
L 243.3024 108.550247 
L 246.8736 108.387769 
L 250.4448 108.229205 
L 254.016 108.07297 
L 257.5872 107.917502 
L 261.1584 107.761246 
L 264.7296 107.602639 
L 268.3008 107.440095 
L 271.872 107.271988 
L 275.4432 107.096637 
L 279.0144 106.912289 
L 282.5856 106.717099 
L 286.1568 106.509116 
L 289.728 106.286258 
L 293.2992 106.046297 
L 296.8704 105.786833 
L 300.4416 105.505269 
L 304.0128 105.198789 
L 307.584 104.864326 
L 311.1552 104.498535 
L 314.7264 104.097756 
L 318.2976 103.657979 
L 321.8688 103.174804 
L 325.44 102.643395 
L 329.0112 102.058437 
L 332.5824 101.414074 
L 336.1536 100.703861 
L 339.7248 99.920689 
L 343.296 99.056722 
L 346.8672 98.103315 
L 350.4384 97.050926 
L 354.0096 95.889023 
L 357.5808 94.60598 
L 361.152 93.188957 
L 364.7232 91.623772 
L 368.2944 89.894762 
L 371.8656 87.984624 
L 375.4368 85.874241 
L 379.008 83.542494 
L 382.5792 80.966047 
L 386.1504 78.119114 
L 389.7216 74.973204 
L 393.2928 71.496834 
L 396.864 67.65521 
L 400.4352 63.409888 
L 404.0064 58.718378 
L 407.5776 53.533728 
L 411.1488 47.80405 
L 414.72 41.472 
" style="fill:none;stroke:#2ca02c;stroke-dasharray:5.55,2.4;stroke-dashoffset:0;stroke-width:1.5;"/>
   </g>
   <g id="line2d_16">
    <path clip-path="url(#pb18c942533)" d="M 57.6 307.584 
L 61.1712 282.259974 
L 64.7424 259.345837 
L 68.3136 238.612256 
L 71.8848 219.851725 
L 75.456 202.876483 
L 79.0272 187.516637 
L 82.5984 173.618463 
L 86.1696 161.042863 
L 89.7408 149.663978 
L 93.312 139.367926 
L 96.8832 130.051661 
L 100.4544 121.621944 
L 104.0256 113.99441 
L 107.5968 107.09272 
L 111.168 100.847801 
L 114.7392 95.197153 
L 118.3104 90.084224 
L 121.8816 85.457843 
L 125.4528 81.271709 
L 129.024 77.483927 
L 132.5952 74.056588 
L 136.1664 70.955392 
L 139.7376 68.149303 
L 143.3088 65.610236 
L 146.88 63.312783 
L 150.4512 61.233949 
L 154.0224 59.352931 
L 157.5936 57.650905 
L 161.1648 56.110836 
L 164.736 54.717312 
L 168.3072 53.456388 
L 171.8784 52.315446 
L 175.4496 51.283067 
L 179.0208 50.34892 
L 182.592 49.503658 
L 186.1632 48.738821 
L 189.7344 48.046757 
L 193.3056 47.42054 
L 196.8768 46.853904 
L 200.448 46.341179 
L 204.0192 45.877234 
L 207.5904 45.457429 
L 211.1616 45.077561 
L 214.7328 44.733832 
L 218.304 44.422801 
L 221.8752 44.141357 
L 225.4464 43.886684 
L 229.0176 43.656235 
L 232.5888 43.447705 
L 236.16 43.259008 
L 239.7312 43.088256 
L 243.3024 42.933742 
L 246.8736 42.79392 
L 250.4448 42.667392 
L 254.016 42.552894 
L 257.5872 42.44928 
L 261.1584 42.355515 
L 264.7296 42.270661 
L 268.3008 42.193871 
L 271.872 42.124377 
L 275.4432 42.061484 
L 279.0144 42.004565 
L 282.5856 41.953051 
L 286.1568 41.906428 
L 289.728 41.86423 
L 293.2992 41.826036 
L 296.8704 41.791466 
L 300.4416 41.760174 
L 304.0128 41.731848 
L 307.584 41.706206 
L 311.1552 41.682992 
L 314.7264 41.661977 
L 318.2976 41.64295 
L 321.8688 41.625721 
L 325.44 41.610121 
L 329.0112 41.595994 
L 332.5824 41.5832 
L 336.1536 41.571612 
L 339.7248 41.561115 
L 343.296 41.551605 
L 346.8672 41.542989 
L 350.4384 41.535182 
L 354.0096 41.528106 
L 357.5808 41.521691 
L 361.152 41.515876 
L 364.7232 41.510603 
L 368.2944 41.50582 
L 371.8656 41.50148 
L 375.4368 41.497542 
L 379.008 41.493968 
L 382.5792 41.490721 
L 386.1504 41.487773 
L 389.7216 41.485093 
L 393.2928 41.482657 
L 396.864 41.480442 
L 400.4352 41.478425 
L 404.0064 41.476589 
L 407.5776 41.474916 
L 411.1488 41.473391 
L 414.72 41.472 
" style="fill:none;stroke:#d62728;stroke-linecap:square;stroke-width:1.5;"/>
   </g>
   <g id="patch_3">
    <path d="M 57.6 307.584 
L 57.6 41.472 
" style="fill:none;stroke:#000000;stroke-linecap:square;stroke-linejoin:miter;stroke-width:0.8;"/>
   </g>
   <g id="patch_4">
    <path d="M 414.72 307.584 
L 414.72 41.472 
" style="fill:none;stroke:#000000;stroke-linecap:square;stroke-linejoin:miter;stroke-width:0.8;"/>
   </g>
   <g id="patch_5">
    <path d="M 57.6 307.584 
L 414.72 307.584 
" style="fill:none;stroke:#000000;stroke-linecap:square;stroke-linejoin:miter;stroke-width:0.8;"/>
   </g>
   <g id="patch_6">
    <path d="M 57.6 41.472 
L 414.72 41.472 
" style="fill:none;stroke:#000000;stroke-linecap:square;stroke-linejoin:miter;stroke-width:0.8;"/>
   </g>
   <g id="legend_1">
    <g id="patch_7">
     <path d="M 332.72 302.584 
L 407.72 302.584 
Q 409.72 302.584 409.72 300.584 
L 409.72 242.8715 
Q 409.72 240.8715 407.72 240.8715 
L 332.72 240.8715 
Q 330.72 240.8715 330.72 242.8715 
L 330.72 300.584 
Q 330.72 302.584 332.72 302.584 
z
" style="fill:#ffffff;opacity:0.8;stroke:#cccccc;stroke-linejoin:miter;"/>
    </g>
    <g id="line2d_17">
     <path d="M 334.72 248.969937 
L 354.72 248.969937 
" style="fill:none;stroke:#1f77b4;stroke-dasharray:1.5,2.475;stroke-dashoffset:0;stroke-width:1.5;"/>
    </g>
    <g id="line2d_18"/>
    <g id="text_15">
     <!-- $\bar{x}$ = 0.25 -->
     <defs>
      <path d="M -39.34375 74.515625 
L -10.15625 74.515625 
L -10.15625 67.28125 
L -39.34375 67.28125 
z
" id="DejaVuSans-304"/>
      <path id="DejaVuSans-20"/>
      <path d="M 10.59375 45.40625 
L 73.1875 45.40625 
L 73.1875 37.203125 
L 10.59375 37.203125 
z
M 10.59375 25.484375 
L 73.1875 25.484375 
L 73.1875 17.1875 
L 10.59375 17.1875 
z
" id="DejaVuSans-3d"/>
      <path d="M 10.796875 72.90625 
L 49.515625 72.90625 
L 49.515625 64.59375 
L 19.828125 64.59375 
L 19.828125 46.734375 
Q 21.96875 47.46875 24.109375 47.828125 
Q 26.265625 48.1875 28.421875 48.1875 
Q 40.625 48.1875 47.75 41.5 
Q 54.890625 34.8125 54.890625 23.390625 
Q 54.890625 11.625 47.5625 5.09375 
Q 40.234375 -1.421875 26.90625 -1.421875 
Q 22.3125 -1.421875 17.546875 -0.640625 
Q 12.796875 0.140625 7.71875 1.703125 
L 7.71875 11.625 
Q 12.109375 9.234375 16.796875 8.0625 
Q 21.484375 6.890625 26.703125 6.890625 
Q 35.15625 6.890625 40.078125 11.328125 
Q 45.015625 15.765625 45.015625 23.390625 
Q 45.015625 31 40.078125 35.4375 
Q 35.15625 39.890625 26.703125 39.890625 
Q 22.75 39.890625 18.8125 39.015625 
Q 14.890625 38.140625 10.796875 36.28125 
z
" id="DejaVuSans-35"/>
     </defs>
     <g transform="translate(362.72 252.469937)scale(0.1 -0.1)">
      <use transform="translate(62.138672 0.484375)" xlink:href="#DejaVuSans-304"/>
      <use transform="translate(0 0.578125)" xlink:href="#DejaVuSans-Oblique-78"/>
      <use transform="translate(59.179688 0.578125)" xlink:href="#DejaVuSans-20"/>
      <use transform="translate(90.966797 0.578125)" xlink:href="#DejaVuSans-3d"/>
      <use transform="translate(174.755859 0.578125)" xlink:href="#DejaVuSans-20"/>
      <use transform="translate(206.542969 0.578125)" xlink:href="#DejaVuSans-30"/>
      <use transform="translate(270.166016 0.578125)" xlink:href="#DejaVuSans-2e"/>
      <use transform="translate(301.875 0.578125)" xlink:href="#DejaVuSans-32"/>
      <use transform="translate(365.498047 0.578125)" xlink:href="#DejaVuSans-35"/>
     </g>
    </g>
    <g id="line2d_19">
     <path d="M 334.72 263.648062 
L 354.72 263.648062 
" style="fill:none;stroke:#ff7f0e;stroke-dasharray:9.6,2.4,1.5,2.4;stroke-dashoffset:0;stroke-width:1.5;"/>
    </g>
    <g id="line2d_20"/>
    <g id="text_16">
     <!-- $\bar{x}$ = 0.5 -->
     <g transform="translate(362.72 267.148062)scale(0.1 -0.1)">
      <use transform="translate(62.138672 0.484375)" xlink:href="#DejaVuSans-304"/>
      <use transform="translate(0 0.578125)" xlink:href="#DejaVuSans-Oblique-78"/>
      <use transform="translate(59.179688 0.578125)" xlink:href="#DejaVuSans-20"/>
      <use transform="translate(90.966797 0.578125)" xlink:href="#DejaVuSans-3d"/>
      <use transform="translate(174.755859 0.578125)" xlink:href="#DejaVuSans-20"/>
      <use transform="translate(206.542969 0.578125)" xlink:href="#DejaVuSans-30"/>
      <use transform="translate(270.166016 0.578125)" xlink:href="#DejaVuSans-2e"/>
      <use transform="translate(301.953125 0.578125)" xlink:href="#DejaVuSans-35"/>
     </g>
    </g>
    <g id="line2d_21">
     <path d="M 334.72 278.326187 
L 354.72 278.326187 
" style="fill:none;stroke:#2ca02c;stroke-dasharray:5.55,2.4;stroke-dashoffset:0;stroke-width:1.5;"/>
    </g>
    <g id="line2d_22"/>
    <g id="text_17">
     <!-- $\bar{x}$ = 0.75 -->
     <defs>
      <path d="M 8.203125 72.90625 
L 55.078125 72.90625 
L 55.078125 68.703125 
L 28.609375 0 
L 18.3125 0 
L 43.21875 64.59375 
L 8.203125 64.59375 
z
" id="DejaVuSans-37"/>
     </defs>
     <g transform="translate(362.72 281.826187)scale(0.1 -0.1)">
      <use transform="translate(62.138672 0.484375)" xlink:href="#DejaVuSans-304"/>
      <use transform="translate(0 0.578125)" xlink:href="#DejaVuSans-Oblique-78"/>
      <use transform="translate(59.179688 0.578125)" xlink:href="#DejaVuSans-20"/>
      <use transform="translate(90.966797 0.578125)" xlink:href="#DejaVuSans-3d"/>
      <use transform="translate(174.755859 0.578125)" xlink:href="#DejaVuSans-20"/>
      <use transform="translate(206.542969 0.578125)" xlink:href="#DejaVuSans-30"/>
      <use transform="translate(270.166016 0.578125)" xlink:href="#DejaVuSans-2e"/>
      <use transform="translate(301.84375 0.578125)" xlink:href="#DejaVuSans-37"/>
      <use transform="translate(365.466797 0.578125)" xlink:href="#DejaVuSans-35"/>
     </g>
    </g>
    <g id="line2d_23">
     <path d="M 334.72 293.004312 
L 354.72 293.004312 
" style="fill:none;stroke:#d62728;stroke-linecap:square;stroke-width:1.5;"/>
    </g>
    <g id="line2d_24"/>
    <g id="text_18">
     <!-- $\bar{x}$ = 1.0 -->
     <g transform="translate(362.72 296.504312)scale(0.1 -0.1)">
      <use transform="translate(62.138672 0.484375)" xlink:href="#DejaVuSans-304"/>
      <use transform="translate(0 0.578125)" xlink:href="#DejaVuSans-Oblique-78"/>
      <use transform="translate(59.179688 0.578125)" xlink:href="#DejaVuSans-20"/>
      <use transform="translate(90.966797 0.578125)" xlink:href="#DejaVuSans-3d"/>
      <use transform="translate(174.755859 0.578125)" xlink:href="#DejaVuSans-20"/>
      <use transform="translate(206.542969 0.578125)" xlink:href="#DejaVuSans-31"/>
      <use transform="translate(270.166016 0.578125)" xlink:href="#DejaVuSans-2e"/>
      <use transform="translate(301.953125 0.578125)" xlink:href="#DejaVuSans-30"/>
     </g>
    </g>
   </g>
  </g>
 </g>
 <defs>
  <clipPath id="pb18c942533">
   <rect height="266.112" width="357.12" x="57.6" y="41.472"/>
  </clipPath>
 </defs>
</svg>
