<?xml version="1.0" encoding="utf-8" standalone="no"?>
<!DOCTYPE svg PUBLIC "-//W3C//DTD SVG 1.1//EN"
  "http://www.w3.org/Graphics/SVG/1.1/DTD/svg11.dtd">
<!-- Created with matplotlib (https://matplotlib.org/) -->
<svg height="378pt" version="1.1" viewBox="0 0 889.2 378" width="889.2pt" xmlns="http://www.w3.org/2000/svg" xmlns:xlink="http://www.w3.org/1999/xlink">
 <defs>
  <style type="text/css">
*{stroke-linecap:butt;stroke-linejoin:round;}
  </style>
 </defs>
 <g id="figure_1">
  <g id="patch_1">
   <path d="M 0 378 
L 889.2 378 
L 889.2 0 
L 0 0 
z
" style="fill:#ffffff;"/>
  </g>
  <g id="axes_1">
   <g id="patch_2">
    <path d="M 111.15 336.42 
L 424.390909 336.42 
L 424.390909 45.36 
L 111.15 45.36 
z
" style="fill:#ffffff;"/>
   </g>
   <g id="matplotlib.axis_1">
    <g id="xtick_1">
     <g id="line2d_1">
      <defs>
       <path d="M 0 0 
L 0 3.5 
" id="m9d2b771dbf" style="stroke:#000000;stroke-width:0.8;"/>
      </defs>
      <g>
       <use style="stroke:#000000;stroke-width:0.8;" x="111.15" xlink:href="#m9d2b771dbf" y="336.42"/>
      </g>
     </g>
     <g id="text_1">
      <!-- $0.0$ -->
      <defs>
       <path d="M 42 31.640625 
C 42 37.75 41.90625 48.125 37.703125 56.109375 
C 34 63.109375 28.09375 65.59375 22.90625 65.59375 
C 18.09375 65.59375 12 63.40625 8.203125 56.203125 
C 4.203125 48.71875 3.796875 39.4375 3.796875 31.640625 
C 3.796875 25.953125 3.90625 17.28125 7 9.671875 
C 11.296875 -0.609375 19 -2 22.90625 -2 
C 27.5 -2 34.5 -0.109375 38.59375 9.375 
C 41.59375 16.28125 42 24.359375 42 31.640625 
z
M 22.90625 -0.40625 
C 16.5 -0.40625 12.703125 5.078125 11.296875 12.6875 
C 10.203125 18.5625 10.203125 27.15625 10.203125 32.75 
C 10.203125 40.4375 10.203125 46.828125 11.5 52.921875 
C 13.40625 61.390625 19 64 22.90625 64 
C 27 64 32.296875 61.296875 34.203125 53.125 
C 35.5 47.4375 35.59375 40.734375 35.59375 32.75 
C 35.59375 26.25 35.59375 18.265625 34.40625 12.375 
C 32.296875 1.484375 26.40625 -0.40625 22.90625 -0.40625 
z
" id="CMR17-48"/>
       <path d="M 18.40625 4.796875 
C 18.40625 7.6875 16 9.671875 13.59375 9.671875 
C 10.703125 9.671875 8.703125 7.28125 8.703125 4.890625 
C 8.703125 2 11.09375 0 13.5 0 
C 16.40625 0 18.40625 2.390625 18.40625 4.796875 
z
" id="CMMI12-58"/>
      </defs>
      <g transform="translate(103.047944 352.414028)scale(0.13 -0.13)">
       <use transform="scale(0.996264)" xlink:href="#CMR17-48"/>
       <use transform="translate(45.690477 0)scale(0.996264)" xlink:href="#CMMI12-58"/>
       <use transform="translate(72.787654 0)scale(0.996264)" xlink:href="#CMR17-48"/>
      </g>
     </g>
    </g>
    <g id="xtick_2">
     <g id="line2d_2">
      <g>
       <use style="stroke:#000000;stroke-width:0.8;" x="173.798182" xlink:href="#m9d2b771dbf" y="336.42"/>
      </g>
     </g>
     <g id="text_2">
      <!-- $0.2$ -->
      <defs>
       <path d="M 41.703125 15.453125 
L 39.90625 15.453125 
C 38.90625 8.375 38.09375 7.171875 37.703125 6.5625 
C 37.203125 5.765625 30 5.765625 28.59375 5.765625 
L 9.40625 5.765625 
C 13 9.671875 20 16.75 28.5 24.953125 
C 34.59375 30.734375 41.703125 37.53125 41.703125 47.421875 
C 41.703125 59.21875 32.296875 66 21.796875 66 
C 10.796875 66 4.09375 56.3125 4.09375 47.34375 
C 4.09375 43.4375 7 42.9375 8.203125 42.9375 
C 9.203125 42.9375 12.203125 43.546875 12.203125 47.03125 
C 12.203125 50.109375 9.59375 51 8.203125 51 
C 7.59375 51 7 50.90625 6.59375 50.703125 
C 8.5 59.21875 14.296875 63.40625 20.40625 63.40625 
C 29.09375 63.40625 34.796875 56.515625 34.796875 47.421875 
C 34.796875 38.734375 29.703125 31.25 24 24.75 
L 4.09375 2.28125 
L 4.09375 0 
L 39.296875 0 
z
" id="CMR17-50"/>
      </defs>
      <g transform="translate(165.696126 352.414028)scale(0.13 -0.13)">
       <use transform="scale(0.996264)" xlink:href="#CMR17-48"/>
       <use transform="translate(45.690477 0)scale(0.996264)" xlink:href="#CMMI12-58"/>
       <use transform="translate(72.787654 0)scale(0.996264)" xlink:href="#CMR17-50"/>
      </g>
     </g>
    </g>
    <g id="xtick_3">
     <g id="line2d_3">
      <g>
       <use style="stroke:#000000;stroke-width:0.8;" x="236.446364" xlink:href="#m9d2b771dbf" y="336.42"/>
      </g>
     </g>
     <g id="text_3">
      <!-- $0.4$ -->
      <defs>
       <path d="M 33.59375 64.40625 
C 33.59375 66.5 33.5 66.5 31.703125 66.5 
L 2 19.59375 
L 2 17 
L 27.796875 17 
L 27.796875 7.140625 
C 27.796875 3.5 27.59375 2.5 20.59375 2.5 
L 18.703125 2.5 
L 18.703125 0 
C 21.90625 0 27.296875 0 30.703125 0 
C 34.09375 0 39.5 0 42.703125 0 
L 42.703125 2.5 
L 40.796875 2.5 
C 33.796875 2.5 33.59375 3.5 33.59375 7.140625 
L 33.59375 17 
L 43.796875 17 
L 43.796875 19.59375 
L 33.59375 19.59375 
z
M 28.09375 57.859375 
L 28.09375 19.59375 
L 4 19.59375 
z
" id="CMR17-52"/>
      </defs>
      <g transform="translate(228.344308 352.414028)scale(0.13 -0.13)">
       <use transform="scale(0.996264)" xlink:href="#CMR17-48"/>
       <use transform="translate(45.690477 0)scale(0.996264)" xlink:href="#CMMI12-58"/>
       <use transform="translate(72.787654 0)scale(0.996264)" xlink:href="#CMR17-52"/>
      </g>
     </g>
    </g>
    <g id="xtick_4">
     <g id="line2d_4">
      <g>
       <use style="stroke:#000000;stroke-width:0.8;" x="299.094545" xlink:href="#m9d2b771dbf" y="336.42"/>
      </g>
     </g>
     <g id="text_4">
      <!-- $0.6$ -->
      <defs>
       <path d="M 10.59375 34 
C 10.59375 57.65625 21.796875 63 28.296875 63 
C 30.40625 63 35.5 62.640625 37.5 59 
C 35.90625 59 32.90625 59 32.90625 55.515625 
C 32.90625 52.828125 35.09375 51.921875 36.5 51.921875 
C 37.40625 51.921875 40.09375 52.3125 40.09375 55.625 
C 40.09375 61.78125 35.09375 65.296875 28.203125 65.296875 
C 16.296875 65.296875 3.796875 52.96875 3.796875 31 
C 3.796875 3.953125 15.09375 -2 23.09375 -2 
C 32.796875 -2 42 6.671875 42 20.046875 
C 42 32.515625 33.90625 41.59375 23.703125 41.59375 
C 17.59375 41.59375 13.09375 37.609375 10.59375 30.625 
z
M 23.09375 0.390625 
C 10.796875 0.390625 10.796875 18.75 10.796875 22.4375 
C 10.796875 29.625 14.203125 40 23.5 40 
C 25.203125 40 30.09375 40 33.40625 33.125 
C 35.203125 29.21875 35.203125 25.140625 35.203125 20.140625 
C 35.203125 14.75 35.203125 10.78125 33.09375 6.78125 
C 30.90625 2.671875 27.703125 0.390625 23.09375 0.390625 
z
" id="CMR17-54"/>
      </defs>
      <g transform="translate(290.99249 352.414028)scale(0.13 -0.13)">
       <use transform="scale(0.996264)" xlink:href="#CMR17-48"/>
       <use transform="translate(45.690477 0)scale(0.996264)" xlink:href="#CMMI12-58"/>
       <use transform="translate(72.787654 0)scale(0.996264)" xlink:href="#CMR17-54"/>
      </g>
     </g>
    </g>
    <g id="xtick_5">
     <g id="line2d_5">
      <g>
       <use style="stroke:#000000;stroke-width:0.8;" x="361.742727" xlink:href="#m9d2b771dbf" y="336.42"/>
      </g>
     </g>
     <g id="text_5">
      <!-- $0.8$ -->
      <defs>
       <path d="M 27.203125 35.375 
C 33.5 38.546875 39.90625 43.328125 39.90625 50.984375 
C 39.90625 60.015625 31.09375 65.296875 23 65.296875 
C 13.90625 65.296875 5.90625 58.734375 5.90625 49.6875 
C 5.90625 47.203125 6.5 42.921875 10.40625 39.140625 
C 11.40625 38.15625 15.59375 35.171875 18.296875 33.28125 
C 13.796875 30.984375 3.296875 25.53125 3.296875 14.59375 
C 3.296875 4.359375 13.09375 -2 22.796875 -2 
C 33.5 -2 42.5 5.65625 42.5 15.78125 
C 42.5 24.84375 36.40625 29.015625 32.40625 31.703125 
z
M 14.09375 44.09375 
C 13.296875 44.59375 9.296875 47.671875 9.296875 52.359375 
C 9.296875 58.421875 15.59375 63 22.796875 63 
C 30.703125 63 36.5 57.4375 36.5 50.96875 
C 36.5 41.703125 26.09375 36.421875 25.59375 36.421875 
C 25.5 36.421875 25.40625 36.421875 24.59375 37.03125 
z
M 32.5 23.734375 
C 34 22.640625 38.796875 19.375 38.796875 13.296875 
C 38.796875 5.953125 31.40625 0.390625 23 0.390625 
C 13.90625 0.390625 7 6.84375 7 14.6875 
C 7 22.546875 13.09375 29.09375 20 32.1875 
z
" id="CMR17-56"/>
      </defs>
      <g transform="translate(353.640671 352.414028)scale(0.13 -0.13)">
       <use transform="scale(0.996264)" xlink:href="#CMR17-48"/>
       <use transform="translate(45.690477 0)scale(0.996264)" xlink:href="#CMMI12-58"/>
       <use transform="translate(72.787654 0)scale(0.996264)" xlink:href="#CMR17-56"/>
      </g>
     </g>
    </g>
    <g id="xtick_6">
     <g id="line2d_6">
      <g>
       <use style="stroke:#000000;stroke-width:0.8;" x="424.390909" xlink:href="#m9d2b771dbf" y="336.42"/>
      </g>
     </g>
     <g id="text_6">
      <!-- $1.0$ -->
      <defs>
       <path d="M 26.59375 63.40625 
C 26.59375 65.5 26.5 65.5 25.09375 65.5 
C 21.203125 61.1875 15.296875 59.796875 9.703125 59.796875 
C 9.40625 59.796875 8.90625 59.796875 8.796875 59.5 
C 8.703125 59.296875 8.703125 59.09375 8.703125 57 
C 11.796875 57 17 57.59375 21 59.984375 
L 21 7.203125 
C 21 3.6875 20.796875 2.5 12.203125 2.5 
L 9.203125 2.5 
L 9.203125 0 
C 14 0 19 0 23.796875 0 
C 28.59375 0 33.59375 0 38.40625 0 
L 38.40625 2.5 
L 35.40625 2.5 
C 26.796875 2.5 26.59375 3.59375 26.59375 7.15625 
z
" id="CMR17-49"/>
      </defs>
      <g transform="translate(416.288853 352.414028)scale(0.13 -0.13)">
       <use transform="scale(0.996264)" xlink:href="#CMR17-49"/>
       <use transform="translate(45.690477 0)scale(0.996264)" xlink:href="#CMMI12-58"/>
       <use transform="translate(72.787654 0)scale(0.996264)" xlink:href="#CMR17-48"/>
      </g>
     </g>
    </g>
    <g id="text_7">
     <!-- $\tilde{p}$ -->
     <defs>
      <path d="M 37.5 65.375 
C 34.09375 62.1875 32.203125 60.390625 29.09375 60.390625 
C 26.90625 60.390625 25.40625 61.4375 23.296875 62.875 
C 21.296875 64.234375 19.703125 65.375 17.5 65.375 
C 13.90625 65.375 11.40625 62.5625 7.203125 58.09375 
L 8.296875 57 
C 11.703125 60.15625 13.59375 62 16.703125 62 
C 18.90625 62 20.40625 60.9375 22.5 59.5 
C 24.5 58.15625 26.09375 57 28.296875 57 
C 31.90625 57 34.40625 59.8125 38.59375 64.28125 
z
" id="CMR17-126"/>
      <path d="M 4.296875 -12.328125 
C 3.59375 -15.3125 3.203125 -16.109375 -0.90625 -16.109375 
C -2.09375 -16.109375 -3.09375 -16.109375 -3.09375 -18 
C -3.09375 -18.203125 -3 -19 -1.90625 -19 
C -0.59375 -19 0.796875 -19 2.09375 -19 
L 6.40625 -19 
C 8.5 -19 13.59375 -19 15.703125 -19 
C 16.296875 -19 17.5 -19 17.5 -17.203125 
C 17.5 -16.109375 16.796875 -16.109375 15.09375 -16.109375 
C 10.5 -16.109375 10.203125 -15.421875 10.203125 -14.640625 
C 10.203125 -13.453125 14.703125 3.421875 15.296875 5.6875 
C 16.40625 2.890625 19.09375 -1 24.296875 -1 
C 35.59375 -1 47.796875 13.671875 47.796875 28.34375 
C 47.796875 37.515625 42.59375 44 35.09375 44 
C 28.703125 44 23.296875 37.8125 22.203125 36.421875 
C 21.40625 41.40625 17.5 44 13.5 44 
C 10.59375 44 8.296875 42.609375 6.40625 38.8125 
C 4.59375 35.21875 3.203125 29.140625 3.203125 28.734375 
C 3.203125 28.34375 3.59375 27.84375 4.296875 27.84375 
C 5.09375 27.84375 5.203125 27.9375 5.796875 30.234375 
C 7.296875 36.125 9.203125 42.015625 13.203125 42.015625 
C 15.5 42.015625 16.296875 40.421875 16.296875 37.453125 
C 16.296875 35.078125 16 34.078125 15.59375 32.296875 
z
M 21.59375 31.140625 
C 22.296875 33.921875 25.09375 36.828125 26.703125 38.21875 
C 27.796875 39.21875 31.09375 42.015625 34.90625 42.015625 
C 39.296875 42.015625 41.296875 37.625 41.296875 32.4375 
C 41.296875 27.640625 38.5 16.359375 36 11.171875 
C 33.5 5.78125 28.90625 1 24.296875 1 
C 17.5 1 16.40625 9.578125 16.40625 9.984375 
C 16.40625 10.28125 16.59375 11.078125 16.703125 11.578125 
z
" id="CMMI12-112"/>
     </defs>
     <g transform="translate(263.495729 369.310065)scale(0.15 -0.15)">
      <use transform="translate(9.763679 0.006461)scale(0.996264)" xlink:href="#CMR17-126"/>
      <use transform="scale(0.996264)" xlink:href="#CMMI12-112"/>
     </g>
    </g>
   </g>
   <g id="matplotlib.axis_2">
    <g id="ytick_1">
     <g id="line2d_7">
      <defs>
       <path d="M 0 0 
L -3.5 0 
" id="mead148b83b" style="stroke:#000000;stroke-width:0.8;"/>
      </defs>
      <g>
       <use style="stroke:#000000;stroke-width:0.8;" x="111.15" xlink:href="#mead148b83b" y="336.42"/>
      </g>
     </g>
     <g id="text_8">
      <!-- $0.0$ -->
      <g transform="translate(87.945888 340.917014)scale(0.13 -0.13)">
       <use transform="scale(0.996264)" xlink:href="#CMR17-48"/>
       <use transform="translate(45.690477 0)scale(0.996264)" xlink:href="#CMMI12-58"/>
       <use transform="translate(72.787654 0)scale(0.996264)" xlink:href="#CMR17-48"/>
      </g>
     </g>
    </g>
    <g id="ytick_2">
     <g id="line2d_8">
      <g>
       <use style="stroke:#000000;stroke-width:0.8;" x="111.15" xlink:href="#mead148b83b" y="278.208"/>
      </g>
     </g>
     <g id="text_9">
      <!-- $0.2$ -->
      <g transform="translate(87.945888 282.705014)scale(0.13 -0.13)">
       <use transform="scale(0.996264)" xlink:href="#CMR17-48"/>
       <use transform="translate(45.690477 0)scale(0.996264)" xlink:href="#CMMI12-58"/>
       <use transform="translate(72.787654 0)scale(0.996264)" xlink:href="#CMR17-50"/>
      </g>
     </g>
    </g>
    <g id="ytick_3">
     <g id="line2d_9">
      <g>
       <use style="stroke:#000000;stroke-width:0.8;" x="111.15" xlink:href="#mead148b83b" y="219.996"/>
      </g>
     </g>
     <g id="text_10">
      <!-- $0.4$ -->
      <g transform="translate(87.945888 224.493014)scale(0.13 -0.13)">
       <use transform="scale(0.996264)" xlink:href="#CMR17-48"/>
       <use transform="translate(45.690477 0)scale(0.996264)" xlink:href="#CMMI12-58"/>
       <use transform="translate(72.787654 0)scale(0.996264)" xlink:href="#CMR17-52"/>
      </g>
     </g>
    </g>
    <g id="ytick_4">
     <g id="line2d_10">
      <g>
       <use style="stroke:#000000;stroke-width:0.8;" x="111.15" xlink:href="#mead148b83b" y="161.784"/>
      </g>
     </g>
     <g id="text_11">
      <!-- $0.6$ -->
      <g transform="translate(87.945888 166.281014)scale(0.13 -0.13)">
       <use transform="scale(0.996264)" xlink:href="#CMR17-48"/>
       <use transform="translate(45.690477 0)scale(0.996264)" xlink:href="#CMMI12-58"/>
       <use transform="translate(72.787654 0)scale(0.996264)" xlink:href="#CMR17-54"/>
      </g>
     </g>
    </g>
    <g id="ytick_5">
     <g id="line2d_11">
      <g>
       <use style="stroke:#000000;stroke-width:0.8;" x="111.15" xlink:href="#mead148b83b" y="103.572"/>
      </g>
     </g>
     <g id="text_12">
      <!-- $0.8$ -->
      <g transform="translate(87.945888 108.069014)scale(0.13 -0.13)">
       <use transform="scale(0.996264)" xlink:href="#CMR17-48"/>
       <use transform="translate(45.690477 0)scale(0.996264)" xlink:href="#CMMI12-58"/>
       <use transform="translate(72.787654 0)scale(0.996264)" xlink:href="#CMR17-56"/>
      </g>
     </g>
    </g>
    <g id="ytick_6">
     <g id="line2d_12">
      <g>
       <use style="stroke:#000000;stroke-width:0.8;" x="111.15" xlink:href="#mead148b83b" y="45.36"/>
      </g>
     </g>
     <g id="text_13">
      <!-- $1.0$ -->
      <g transform="translate(87.945888 49.857014)scale(0.13 -0.13)">
       <use transform="scale(0.996264)" xlink:href="#CMR17-49"/>
       <use transform="translate(45.690477 0)scale(0.996264)" xlink:href="#CMMI12-58"/>
       <use transform="translate(72.787654 0)scale(0.996264)" xlink:href="#CMR17-48"/>
      </g>
     </g>
    </g>
    <g id="text_14">
     <!-- $p_{i}$ -->
     <defs>
      <path d="M 28.296875 14.265625 
C 28.296875 14.765625 27.90625 15.171875 27.296875 15.171875 
C 26.40625 15.171875 26.296875 14.875 25.796875 13.171875 
C 23.203125 4.09375 19.09375 1 15.796875 1 
C 14.59375 1 13.203125 1.296875 13.203125 4.296875 
C 13.203125 6.984375 14.40625 9.984375 15.5 12.96875 
L 22.5 31.53125 
C 22.796875 32.328125 23.5 34.125 23.5 36.015625 
C 23.5 40.21875 20.5 44 15.59375 44 
C 6.40625 44 2.703125 29.53125 2.703125 28.734375 
C 2.703125 28.34375 3.09375 27.84375 3.796875 27.84375 
C 4.703125 27.84375 4.796875 28.234375 5.203125 29.625 
C 7.59375 37.9375 11.40625 41.90625 15.296875 41.90625 
C 16.203125 41.90625 17.90625 41.90625 17.90625 38.71875 
C 17.90625 36.125 16.59375 32.828125 15.796875 30.640625 
L 8.796875 12.078125 
C 8.203125 10.484375 7.59375 8.875 7.59375 7.078125 
C 7.59375 2.59375 10.703125 -1 15.5 -1 
C 24.703125 -1 28.296875 13.578125 28.296875 14.265625 
z
M 27.5 62.703125 
C 27.5 64.203125 26.296875 66 24.09375 66 
C 21.796875 66 19.203125 63.796875 19.203125 61.203125 
C 19.203125 58.71875 21.296875 57.921875 22.5 57.921875 
C 25.203125 57.921875 27.5 60.515625 27.5 62.703125 
z
" id="CMMI12-105"/>
     </defs>
     <g transform="translate(81.040143 196.363881)rotate(-90)scale(0.15 -0.15)">
      <use transform="translate(0 14.943915)scale(0.996264)" xlink:href="#CMMI12-112"/>
      <use transform="translate(48.959514 0)scale(0.697382)" xlink:href="#CMMI12-105"/>
     </g>
    </g>
   </g>
   <g id="line2d_13">
    <path clip-path="url(#pe594661911)" d="M 111.15 336.42 
L 113.969168 330.15615 
L 116.788336 324.431245 
L 119.607505 319.19888 
L 122.426673 314.416648 
L 125.245841 310.045786 
L 128.065009 306.050867 
L 131.197418 302.013703 
L 134.329827 298.360355 
L 137.462236 295.05426 
L 140.594645 292.062332 
L 143.727055 289.354627 
L 147.172705 286.672166 
L 150.618355 284.268392 
L 154.377245 281.929807 
L 158.136136 279.854578 
L 162.208268 277.86899 
L 166.2804 276.123825 
L 170.665773 274.479499 
L 175.364386 272.952613 
L 180.376241 271.554016 
L 186.014577 270.221027 
L 191.966155 269.044405 
L 198.544214 267.969184 
L 206.061995 266.971473 
L 214.5195 266.075652 
L 224.85645 265.215808 
L 238.012568 264.358456 
L 280.926573 261.741297 
L 290.950282 260.80842 
L 299.407786 259.797146 
L 306.612327 258.715822 
L 313.190386 257.500949 
L 319.141964 256.168709 
L 324.467059 254.748536 
L 329.478914 253.177012 
L 334.177527 251.460414 
L 338.5629 249.611095 
L 342.635032 247.647847 
L 346.393923 245.596 
L 350.152814 243.283792 
L 353.598464 240.907152 
L 357.044114 238.254989 
L 360.176523 235.577881 
L 363.308932 232.619774 
L 366.441341 229.351064 
L 369.57375 225.739036 
L 372.392918 222.164876 
L 375.212086 218.254427 
L 378.031255 213.975995 
L 380.850423 209.294903 
L 383.669591 204.173208 
L 386.488759 198.569399 
L 389.307927 192.438054 
L 392.127095 185.729476 
L 394.946264 178.389292 
L 397.765432 170.358006 
L 400.5846 161.570522 
L 403.403768 151.955614 
L 405.909695 142.651561 
L 408.415623 132.572689 
L 410.92155 121.65446 
L 413.427477 109.82696 
L 415.933405 97.014454 
L 418.439332 83.134898 
L 420.945259 68.099417 
L 423.451186 51.811733 
L 424.077668 47.532118 
L 424.077668 47.532118 
" style="fill:none;stroke:#1f77b4;stroke-dasharray:5.55,2.4;stroke-dashoffset:0;stroke-width:1.5;"/>
   </g>
   <g id="line2d_14">
    <path clip-path="url(#pe594661911)" d="M 111.15 336.42 
L 113.969168 323.893664 
L 116.788336 312.445333 
L 119.607505 301.982213 
L 122.426673 292.419497 
L 125.245841 283.679675 
L 128.065009 275.691909 
L 130.884177 268.391454 
L 133.703345 261.719138 
L 136.522514 255.620879 
L 139.341682 250.04725 
L 142.16085 244.953074 
L 144.980018 240.297061 
L 147.799186 236.041474 
L 150.618355 232.15182 
L 153.750764 228.22091 
L 156.883173 224.663573 
L 160.015582 221.444206 
L 163.147991 218.530591 
L 166.593641 215.644039 
L 170.039291 213.057262 
L 173.484941 210.738929 
L 177.243832 208.483084 
L 181.002723 206.480828 
L 185.074855 204.564489 
L 189.460227 202.758643 
L 194.158841 201.08146 
L 199.170695 199.544784 
L 204.495791 198.154472 
L 210.134127 196.910917 
L 216.398945 195.756978 
L 223.290245 194.711608 
L 231.121268 193.746609 
L 240.518495 192.820878 
L 252.108409 191.912605 
L 271.529345 190.653939 
L 290.010559 189.376677 
L 300.973991 188.398026 
L 309.744736 187.400136 
L 317.262518 186.329245 
L 323.840577 185.178253 
L 329.792155 183.920729 
L 335.430491 182.497543 
L 340.442345 181.005303 
L 345.140959 179.376901 
L 349.526332 177.623789 
L 353.598464 175.763569 
L 357.670595 173.647414 
L 361.429486 171.435988 
L 364.875136 169.163357 
L 368.320786 166.627617 
L 371.766436 163.798059 
L 374.898845 160.942002 
L 378.031255 157.78626 
L 381.163664 154.299252 
L 384.296073 150.446079 
L 387.115241 146.633363 
L 389.934409 142.461966 
L 392.753577 137.89808 
L 395.572745 132.904712 
L 398.391914 127.441389 
L 401.211082 121.463831 
L 404.03025 114.923586 
L 406.849418 107.767645 
L 409.668586 99.938005 
L 412.487755 91.371206 
L 415.306923 81.997809 
L 417.81285 72.927496 
L 420.318777 63.101861 
L 422.824705 52.457987 
L 424.077668 46.808127 
L 424.077668 46.808127 
" style="fill:none;stroke:#ff7f0e;stroke-dasharray:1.5,2.475;stroke-dashoffset:0;stroke-width:1.5;"/>
   </g>
   <g id="line2d_15">
    <path clip-path="url(#pe594661911)" d="M 111.15 336.42 
L 113.969168 317.631178 
L 116.788336 300.459421 
L 119.607505 284.765546 
L 122.426673 270.422346 
L 125.245841 257.313565 
L 128.065009 245.332951 
L 130.884177 234.383396 
L 133.703345 224.376149 
L 136.522514 215.230099 
L 139.341682 206.871113 
L 142.16085 199.231439 
L 144.980018 192.249154 
L 147.799186 185.867665 
L 150.618355 180.035248 
L 153.437523 174.704629 
L 156.256691 169.832603 
L 159.075859 165.379679 
L 161.895027 161.309766 
L 165.027436 157.196827 
L 168.159845 153.474921 
L 171.292255 150.1068 
L 174.424664 147.058756 
L 177.557073 144.300284 
L 181.002723 141.567553 
L 184.448373 139.118759 
L 188.207264 136.736408 
L 191.966155 134.622383 
L 196.038286 132.599725 
L 200.110418 130.822039 
L 204.495791 129.147148 
L 209.194405 127.591979 
L 214.206259 126.167609 
L 219.531355 124.879583 
L 225.482932 123.670112 
L 232.060991 122.565439 
L 239.578773 121.541282 
L 248.036277 120.623109 
L 258.059986 119.767914 
L 270.902864 118.910603 
L 317.575759 116.015299 
L 326.972986 115.096016 
L 335.11725 114.081145 
L 342.321791 112.95718 
L 348.586609 111.759359 
L 354.224945 110.46469 
L 359.550041 109.014456 
L 364.561895 107.409471 
L 368.947268 105.781332 
L 373.332641 103.91101 
L 377.404773 101.925422 
L 381.163664 99.850193 
L 384.922555 97.511608 
L 388.368205 95.107834 
L 391.813855 92.425373 
L 394.946264 89.717668 
L 398.078673 86.72574 
L 401.211082 83.419645 
L 404.343491 79.766297 
L 407.162659 76.151241 
L 409.981827 72.196042 
L 412.800995 67.868643 
L 415.620164 63.133968 
L 418.439332 57.953643 
L 421.2585 52.28568 
L 424.077668 46.084137 
L 424.077668 46.084137 
" style="fill:none;stroke:#2ca02c;stroke-dasharray:9.6,2.4,1.5,2.4;stroke-dashoffset:0;stroke-width:1.5;"/>
   </g>
   <g id="patch_3">
    <path d="M 111.15 336.42 
L 111.15 45.36 
" style="fill:none;stroke:#000000;stroke-linecap:square;stroke-linejoin:miter;stroke-width:0.8;"/>
   </g>
   <g id="patch_4">
    <path d="M 424.390909 336.42 
L 424.390909 45.36 
" style="fill:none;stroke:#000000;stroke-linecap:square;stroke-linejoin:miter;stroke-width:0.8;"/>
   </g>
   <g id="patch_5">
    <path d="M 111.15 336.42 
L 424.390909 336.42 
" style="fill:none;stroke:#000000;stroke-linecap:square;stroke-linejoin:miter;stroke-width:0.8;"/>
   </g>
   <g id="patch_6">
    <path d="M 111.15 45.36 
L 424.390909 45.36 
" style="fill:none;stroke:#000000;stroke-linecap:square;stroke-linejoin:miter;stroke-width:0.8;"/>
   </g>
   <g id="legend_1">
    <g id="patch_7">
     <path d="M 120.25 110.114936 
L 207.818107 110.114936 
Q 210.418107 110.114936 210.418107 107.514936 
L 210.418107 54.46 
Q 210.418107 51.86 207.818107 51.86 
L 120.25 51.86 
Q 117.65 51.86 117.65 54.46 
L 117.65 107.514936 
Q 117.65 110.114936 120.25 110.114936 
z
" style="fill:#ffffff;opacity:0.8;stroke:#cccccc;stroke-linejoin:miter;"/>
    </g>
    <g id="line2d_16">
     <path d="M 122.85 61.61 
L 148.85 61.61 
" style="fill:none;stroke:#1f77b4;stroke-dasharray:5.55,2.4;stroke-dashoffset:0;stroke-width:1.5;"/>
    </g>
    <g id="line2d_17"/>
    <g id="text_15">
     <!-- $\tilde{p}=0.25$ -->
     <defs>
      <path d="M 64.296875 31.515625 
C 65.796875 31.515625 67.296875 31.515625 67.296875 33.203125 
C 67.296875 35 65.59375 35 63.90625 35 
L 8 35 
C 6.296875 35 4.59375 35 4.59375 33.203125 
C 4.59375 31.515625 6.09375 31.515625 7.59375 31.515625 
z
M 63.90625 14 
C 65.59375 14 67.296875 14 67.296875 15.796875 
C 67.296875 17.484375 65.796875 17.484375 64.296875 17.484375 
L 7.59375 17.484375 
C 6.09375 17.484375 4.59375 17.484375 4.59375 15.796875 
C 4.59375 14 6.296875 14 8 14 
z
" id="CMR17-61"/>
      <path d="M 11.40625 57.6875 
C 12.40625 57.28125 16.5 56 20.703125 56 
C 30 56 35.09375 61.109375 38 64.0625 
C 38 64.953125 38 65.5 37.40625 65.5 
C 37.296875 65.5 37.09375 65.5 36.296875 65.046875 
C 32.796875 63.40625 28.703125 62.078125 23.703125 62.078125 
C 20.703125 62.078125 16.203125 62.484375 11.296875 64.671875 
C 10.203125 65.171875 10 65.171875 9.90625 65.171875 
C 9.40625 65.171875 9.296875 65.0625 9.296875 63.078125 
L 9.296875 34.421875 
C 9.296875 32.640625 9.296875 32.140625 10.296875 32.140625 
C 10.796875 32.140625 11 32.34375 11.5 33.03125 
C 14.703125 37.515625 19.09375 39.40625 24.09375 39.40625 
C 27.59375 39.40625 35.09375 37.21875 35.09375 20.140625 
C 35.09375 16.953125 35.09375 11.171875 32.09375 6.578125 
C 29.59375 2.484375 25.703125 0.390625 21.40625 0.390625 
C 14.796875 0.390625 8.09375 5 6.296875 12.71875 
C 6.703125 12.609375 7.5 12.421875 7.90625 12.421875 
C 9.203125 12.421875 11.703125 13.125 11.703125 16.21875 
C 11.703125 18.90625 9.796875 20 7.90625 20 
C 5.59375 20 4.09375 18.59375 4.09375 15.796875 
C 4.09375 7.09375 11 -2 21.59375 -2 
C 31.90625 -2 41.703125 6.875 41.703125 19.75 
C 41.703125 31.71875 33.90625 41 24.203125 41 
C 19.09375 41 14.796875 39.109375 11.40625 35.53125 
z
" id="CMR17-53"/>
     </defs>
     <g transform="translate(159.25 66.16)scale(0.13 -0.13)">
      <use transform="translate(9.763679 0.006461)scale(0.996264)" xlink:href="#CMR17-126"/>
      <use transform="scale(0.996264)" xlink:href="#CMMI12-112"/>
      <use transform="translate(76.633523 0)scale(0.996264)" xlink:href="#CMR17-61"/>
      <use transform="translate(176.02232 0)scale(0.996264)" xlink:href="#CMR17-48"/>
      <use transform="translate(221.712797 0)scale(0.996264)" xlink:href="#CMMI12-58"/>
      <use transform="translate(248.809974 0)scale(0.996264)" xlink:href="#CMR17-50"/>
      <use transform="translate(294.500451 0)scale(0.996264)" xlink:href="#CMR17-53"/>
     </g>
    </g>
    <g id="line2d_18">
     <path d="M 122.85 79.728312 
L 148.85 79.728312 
" style="fill:none;stroke:#ff7f0e;stroke-dasharray:1.5,2.475;stroke-dashoffset:0;stroke-width:1.5;"/>
    </g>
    <g id="line2d_19"/>
    <g id="text_16">
     <!-- $\tilde{p}=0.5$ -->
     <g transform="translate(159.25 84.278312)scale(0.13 -0.13)">
      <use transform="translate(9.763679 0.006461)scale(0.996264)" xlink:href="#CMR17-126"/>
      <use transform="scale(0.996264)" xlink:href="#CMMI12-112"/>
      <use transform="translate(76.633523 0)scale(0.996264)" xlink:href="#CMR17-61"/>
      <use transform="translate(176.02232 0)scale(0.996264)" xlink:href="#CMR17-48"/>
      <use transform="translate(221.712797 0)scale(0.996264)" xlink:href="#CMMI12-58"/>
      <use transform="translate(248.809974 0)scale(0.996264)" xlink:href="#CMR17-53"/>
     </g>
    </g>
    <g id="line2d_20">
     <path d="M 122.85 97.846624 
L 148.85 97.846624 
" style="fill:none;stroke:#2ca02c;stroke-dasharray:9.6,2.4,1.5,2.4;stroke-dashoffset:0;stroke-width:1.5;"/>
    </g>
    <g id="line2d_21"/>
    <g id="text_17">
     <!-- $\tilde{p}=0.75$ -->
     <defs>
      <path d="M 45.09375 61.578125 
L 45.09375 63.765625 
L 21.59375 63.765625 
C 9.90625 63.765625 9.703125 65.078125 9.296875 67 
L 7.5 67 
L 4.59375 48.34375 
L 6.40625 48.34375 
C 6.703125 50.234375 7.40625 55.3125 8.59375 57.203125 
C 9.203125 58 16.59375 58 18.296875 58 
L 40.296875 58 
L 29.203125 41.578125 
C 21.796875 30.53125 16.703125 15.609375 16.703125 2.578125 
C 16.703125 1.390625 16.703125 -2 20.296875 -2 
C 23.90625 -2 23.90625 1.390625 23.90625 2.671875 
L 23.90625 7.265625 
C 23.90625 23.5625 26.703125 34.3125 31.296875 41.1875 
z
" id="CMR17-55"/>
     </defs>
     <g transform="translate(159.25 102.396624)scale(0.13 -0.13)">
      <use transform="translate(9.763679 0.006461)scale(0.996264)" xlink:href="#CMR17-126"/>
      <use transform="scale(0.996264)" xlink:href="#CMMI12-112"/>
      <use transform="translate(76.633523 0)scale(0.996264)" xlink:href="#CMR17-61"/>
      <use transform="translate(176.02232 0)scale(0.996264)" xlink:href="#CMR17-48"/>
      <use transform="translate(221.712797 0)scale(0.996264)" xlink:href="#CMMI12-58"/>
      <use transform="translate(248.809974 0)scale(0.996264)" xlink:href="#CMR17-55"/>
      <use transform="translate(294.500451 0)scale(0.996264)" xlink:href="#CMR17-53"/>
     </g>
    </g>
   </g>
  </g>
  <g id="axes_2">
   <g id="patch_8">
    <path d="M 487.039091 336.42 
L 800.28 336.42 
L 800.28 45.36 
L 487.039091 45.36 
z
" style="fill:#ffffff;"/>
   </g>
   <g id="matplotlib.axis_3">
    <g id="xtick_7">
     <g id="line2d_22">
      <g>
       <use style="stroke:#000000;stroke-width:0.8;" x="487.039091" xlink:href="#m9d2b771dbf" y="336.42"/>
      </g>
     </g>
     <g id="text_18">
      <!-- $0.0$ -->
      <g transform="translate(478.937035 352.414028)scale(0.13 -0.13)">
       <use transform="scale(0.996264)" xlink:href="#CMR17-48"/>
       <use transform="translate(45.690477 0)scale(0.996264)" xlink:href="#CMMI12-58"/>
       <use transform="translate(72.787654 0)scale(0.996264)" xlink:href="#CMR17-48"/>
      </g>
     </g>
    </g>
    <g id="xtick_8">
     <g id="line2d_23">
      <g>
       <use style="stroke:#000000;stroke-width:0.8;" x="549.687273" xlink:href="#m9d2b771dbf" y="336.42"/>
      </g>
     </g>
     <g id="text_19">
      <!-- $0.2$ -->
      <g transform="translate(541.585217 352.414028)scale(0.13 -0.13)">
       <use transform="scale(0.996264)" xlink:href="#CMR17-48"/>
       <use transform="translate(45.690477 0)scale(0.996264)" xlink:href="#CMMI12-58"/>
       <use transform="translate(72.787654 0)scale(0.996264)" xlink:href="#CMR17-50"/>
      </g>
     </g>
    </g>
    <g id="xtick_9">
     <g id="line2d_24">
      <g>
       <use style="stroke:#000000;stroke-width:0.8;" x="612.335455" xlink:href="#m9d2b771dbf" y="336.42"/>
      </g>
     </g>
     <g id="text_20">
      <!-- $0.4$ -->
      <g transform="translate(604.233399 352.414028)scale(0.13 -0.13)">
       <use transform="scale(0.996264)" xlink:href="#CMR17-48"/>
       <use transform="translate(45.690477 0)scale(0.996264)" xlink:href="#CMMI12-58"/>
       <use transform="translate(72.787654 0)scale(0.996264)" xlink:href="#CMR17-52"/>
      </g>
     </g>
    </g>
    <g id="xtick_10">
     <g id="line2d_25">
      <g>
       <use style="stroke:#000000;stroke-width:0.8;" x="674.983636" xlink:href="#m9d2b771dbf" y="336.42"/>
      </g>
     </g>
     <g id="text_21">
      <!-- $0.6$ -->
      <g transform="translate(666.88158 352.414028)scale(0.13 -0.13)">
       <use transform="scale(0.996264)" xlink:href="#CMR17-48"/>
       <use transform="translate(45.690477 0)scale(0.996264)" xlink:href="#CMMI12-58"/>
       <use transform="translate(72.787654 0)scale(0.996264)" xlink:href="#CMR17-54"/>
      </g>
     </g>
    </g>
    <g id="xtick_11">
     <g id="line2d_26">
      <g>
       <use style="stroke:#000000;stroke-width:0.8;" x="737.631818" xlink:href="#m9d2b771dbf" y="336.42"/>
      </g>
     </g>
     <g id="text_22">
      <!-- $0.8$ -->
      <g transform="translate(729.529762 352.414028)scale(0.13 -0.13)">
       <use transform="scale(0.996264)" xlink:href="#CMR17-48"/>
       <use transform="translate(45.690477 0)scale(0.996264)" xlink:href="#CMMI12-58"/>
       <use transform="translate(72.787654 0)scale(0.996264)" xlink:href="#CMR17-56"/>
      </g>
     </g>
    </g>
    <g id="xtick_12">
     <g id="line2d_27">
      <g>
       <use style="stroke:#000000;stroke-width:0.8;" x="800.28" xlink:href="#m9d2b771dbf" y="336.42"/>
      </g>
     </g>
     <g id="text_23">
      <!-- $1.0$ -->
      <g transform="translate(792.177944 352.414028)scale(0.13 -0.13)">
       <use transform="scale(0.996264)" xlink:href="#CMR17-49"/>
       <use transform="translate(45.690477 0)scale(0.996264)" xlink:href="#CMMI12-58"/>
       <use transform="translate(72.787654 0)scale(0.996264)" xlink:href="#CMR17-48"/>
      </g>
     </g>
    </g>
    <g id="text_24">
     <!-- $\tilde{p}$ -->
     <g transform="translate(639.384819 369.310065)scale(0.15 -0.15)">
      <use transform="translate(9.763679 0.006461)scale(0.996264)" xlink:href="#CMR17-126"/>
      <use transform="scale(0.996264)" xlink:href="#CMMI12-112"/>
     </g>
    </g>
   </g>
   <g id="matplotlib.axis_4">
    <g id="ytick_7">
     <g id="line2d_28">
      <g>
       <use style="stroke:#000000;stroke-width:0.8;" x="487.039091" xlink:href="#mead148b83b" y="336.42"/>
      </g>
     </g>
     <g id="text_25">
      <!-- $0.0$ -->
      <g transform="translate(463.834979 340.917014)scale(0.13 -0.13)">
       <use transform="scale(0.996264)" xlink:href="#CMR17-48"/>
       <use transform="translate(45.690477 0)scale(0.996264)" xlink:href="#CMMI12-58"/>
       <use transform="translate(72.787654 0)scale(0.996264)" xlink:href="#CMR17-48"/>
      </g>
     </g>
    </g>
    <g id="ytick_8">
     <g id="line2d_29">
      <g>
       <use style="stroke:#000000;stroke-width:0.8;" x="487.039091" xlink:href="#mead148b83b" y="278.208"/>
      </g>
     </g>
     <g id="text_26">
      <!-- $0.2$ -->
      <g transform="translate(463.834979 282.705014)scale(0.13 -0.13)">
       <use transform="scale(0.996264)" xlink:href="#CMR17-48"/>
       <use transform="translate(45.690477 0)scale(0.996264)" xlink:href="#CMMI12-58"/>
       <use transform="translate(72.787654 0)scale(0.996264)" xlink:href="#CMR17-50"/>
      </g>
     </g>
    </g>
    <g id="ytick_9">
     <g id="line2d_30">
      <g>
       <use style="stroke:#000000;stroke-width:0.8;" x="487.039091" xlink:href="#mead148b83b" y="219.996"/>
      </g>
     </g>
     <g id="text_27">
      <!-- $0.4$ -->
      <g transform="translate(463.834979 224.493014)scale(0.13 -0.13)">
       <use transform="scale(0.996264)" xlink:href="#CMR17-48"/>
       <use transform="translate(45.690477 0)scale(0.996264)" xlink:href="#CMMI12-58"/>
       <use transform="translate(72.787654 0)scale(0.996264)" xlink:href="#CMR17-52"/>
      </g>
     </g>
    </g>
    <g id="ytick_10">
     <g id="line2d_31">
      <g>
       <use style="stroke:#000000;stroke-width:0.8;" x="487.039091" xlink:href="#mead148b83b" y="161.784"/>
      </g>
     </g>
     <g id="text_28">
      <!-- $0.6$ -->
      <g transform="translate(463.834979 166.281014)scale(0.13 -0.13)">
       <use transform="scale(0.996264)" xlink:href="#CMR17-48"/>
       <use transform="translate(45.690477 0)scale(0.996264)" xlink:href="#CMMI12-58"/>
       <use transform="translate(72.787654 0)scale(0.996264)" xlink:href="#CMR17-54"/>
      </g>
     </g>
    </g>
    <g id="ytick_11">
     <g id="line2d_32">
      <g>
       <use style="stroke:#000000;stroke-width:0.8;" x="487.039091" xlink:href="#mead148b83b" y="103.572"/>
      </g>
     </g>
     <g id="text_29">
      <!-- $0.8$ -->
      <g transform="translate(463.834979 108.069014)scale(0.13 -0.13)">
       <use transform="scale(0.996264)" xlink:href="#CMR17-48"/>
       <use transform="translate(45.690477 0)scale(0.996264)" xlink:href="#CMMI12-58"/>
       <use transform="translate(72.787654 0)scale(0.996264)" xlink:href="#CMR17-56"/>
      </g>
     </g>
    </g>
    <g id="ytick_12">
     <g id="line2d_33">
      <g>
       <use style="stroke:#000000;stroke-width:0.8;" x="487.039091" xlink:href="#mead148b83b" y="45.36"/>
      </g>
     </g>
     <g id="text_30">
      <!-- $1.0$ -->
      <g transform="translate(463.834979 49.857014)scale(0.13 -0.13)">
       <use transform="scale(0.996264)" xlink:href="#CMR17-49"/>
       <use transform="translate(45.690477 0)scale(0.996264)" xlink:href="#CMMI12-58"/>
       <use transform="translate(72.787654 0)scale(0.996264)" xlink:href="#CMR17-48"/>
      </g>
     </g>
    </g>
    <g id="text_31">
     <!-- $p_{i}$ -->
     <g transform="translate(456.929234 196.363881)rotate(-90)scale(0.15 -0.15)">
      <use transform="translate(0 14.943915)scale(0.996264)" xlink:href="#CMMI12-112"/>
      <use transform="translate(48.959514 0)scale(0.697382)" xlink:href="#CMMI12-105"/>
     </g>
    </g>
   </g>
   <g id="line2d_34">
    <path clip-path="url(#pcc6d4efac8)" d="M 487.039091 336.42 
L 505.520305 318.510938 
L 525.567723 299.399443 
L 547.181345 279.106201 
L 571.614136 256.47965 
L 600.4323 230.105828 
L 643.033064 191.457224 
L 697.223741 142.245046 
L 726.041905 115.762998 
L 749.848214 93.592734 
L 771.148595 73.459841 
L 790.882773 54.503771 
L 799.966759 45.666097 
L 799.966759 45.666097 
" style="fill:none;stroke:#1f77b4;stroke-dasharray:5.55,2.4;stroke-dashoffset:0;stroke-width:1.5;"/>
   </g>
   <g id="line2d_35">
    <path clip-path="url(#pcc6d4efac8)" d="M 487.039091 336.42 
L 489.858259 323.893664 
L 492.677427 312.445333 
L 495.496595 301.982213 
L 498.315764 292.419497 
L 501.134932 283.679675 
L 503.9541 275.691909 
L 506.773268 268.391454 
L 509.592436 261.719138 
L 512.411605 255.620879 
L 515.230773 250.04725 
L 518.049941 244.953074 
L 520.869109 240.297061 
L 523.688277 236.041474 
L 526.507445 232.15182 
L 529.639855 228.22091 
L 532.772264 224.663573 
L 535.904673 221.444206 
L 539.037082 218.530591 
L 542.482732 215.644039 
L 545.928382 213.057262 
L 549.374032 210.738929 
L 553.132923 208.483084 
L 556.891814 206.480828 
L 560.963945 204.564489 
L 565.349318 202.758643 
L 570.047932 201.08146 
L 575.059786 199.544784 
L 580.384882 198.154472 
L 586.023218 196.910917 
L 592.288036 195.756978 
L 599.179336 194.711608 
L 607.010359 193.746609 
L 616.407586 192.820878 
L 627.9975 191.912605 
L 647.418436 190.653939 
L 665.89965 189.376677 
L 676.863082 188.398026 
L 685.633827 187.400136 
L 693.151609 186.329245 
L 699.729668 185.178253 
L 705.681245 183.920729 
L 711.319582 182.497543 
L 716.331436 181.005303 
L 721.03005 179.376901 
L 725.415423 177.623789 
L 729.487555 175.763569 
L 733.559686 173.647414 
L 737.318577 171.435988 
L 740.764227 169.163357 
L 744.209877 166.627617 
L 747.655527 163.798059 
L 750.787936 160.942002 
L 753.920345 157.78626 
L 757.052755 154.299252 
L 760.185164 150.446079 
L 763.004332 146.633363 
L 765.8235 142.461966 
L 768.642668 137.89808 
L 771.461836 132.904712 
L 774.281005 127.441389 
L 777.100173 121.463831 
L 779.919341 114.923586 
L 782.738509 107.767645 
L 785.557677 99.938005 
L 788.376845 91.371206 
L 791.196014 81.997809 
L 793.701941 72.927496 
L 796.207868 63.101861 
L 798.713795 52.457987 
L 799.966759 46.808127 
L 799.966759 46.808127 
" style="fill:none;stroke:#ff7f0e;stroke-dasharray:1.5,2.475;stroke-dashoffset:0;stroke-width:1.5;"/>
   </g>
   <g id="line2d_36">
    <path clip-path="url(#pcc6d4efac8)" d="M 487.039091 336.42 
L 487.978814 298.701276 
L 488.918536 270.758557 
L 489.858259 250.058083 
L 490.797982 234.722794 
L 491.737705 223.362132 
L 492.677427 214.945947 
L 493.61715 208.711084 
L 494.556873 204.092184 
L 495.496595 200.670418 
L 496.436318 198.135512 
L 497.376041 196.257607 
L 498.315764 194.866421 
L 499.255486 193.835805 
L 500.195209 193.072306 
L 501.448173 192.352844 
L 503.014377 191.77726 
L 504.893823 191.376938 
L 507.39975 191.108796 
L 511.158641 190.9559 
L 519.616145 190.894429 
L 605.444155 190.89 
L 777.726655 190.781349 
L 781.172305 190.563595 
L 783.364991 190.232702 
L 784.931195 189.806299 
L 786.184159 189.273308 
L 787.437123 188.478179 
L 788.376845 187.634382 
L 789.316568 186.495375 
L 790.256291 184.957876 
L 791.196014 182.882471 
L 792.135736 180.080966 
L 793.075459 176.29933 
L 794.015182 171.194656 
L 794.954905 164.304067 
L 795.894627 155.002744 
L 796.83435 142.447271 
L 797.774073 125.499156 
L 798.713795 102.621593 
L 799.653518 71.740114 
L 799.966759 59.209011 
L 799.966759 59.209011 
" style="fill:none;stroke:#2ca02c;stroke-dasharray:9.6,2.4,1.5,2.4;stroke-dashoffset:0;stroke-width:1.5;"/>
   </g>
   <g id="patch_9">
    <path d="M 487.039091 336.42 
L 487.039091 45.36 
" style="fill:none;stroke:#000000;stroke-linecap:square;stroke-linejoin:miter;stroke-width:0.8;"/>
   </g>
   <g id="patch_10">
    <path d="M 800.28 336.42 
L 800.28 45.36 
" style="fill:none;stroke:#000000;stroke-linecap:square;stroke-linejoin:miter;stroke-width:0.8;"/>
   </g>
   <g id="patch_11">
    <path d="M 487.039091 336.42 
L 800.28 336.42 
" style="fill:none;stroke:#000000;stroke-linecap:square;stroke-linejoin:miter;stroke-width:0.8;"/>
   </g>
   <g id="patch_12">
    <path d="M 487.039091 45.36 
L 800.28 45.36 
" style="fill:none;stroke:#000000;stroke-linecap:square;stroke-linejoin:miter;stroke-width:0.8;"/>
   </g>
   <g id="legend_2">
    <g id="patch_13">
     <path d="M 496.139091 110.114936 
L 579.793332 110.114936 
Q 582.393332 110.114936 582.393332 107.514936 
L 582.393332 54.46 
Q 582.393332 51.86 579.793332 51.86 
L 496.139091 51.86 
Q 493.539091 51.86 493.539091 54.46 
L 493.539091 107.514936 
Q 493.539091 110.114936 496.139091 110.114936 
z
" style="fill:#ffffff;opacity:0.8;stroke:#cccccc;stroke-linejoin:miter;"/>
    </g>
    <g id="line2d_37">
     <path d="M 498.739091 61.61 
L 524.739091 61.61 
" style="fill:none;stroke:#1f77b4;stroke-dasharray:5.55,2.4;stroke-dashoffset:0;stroke-width:1.5;"/>
    </g>
    <g id="line2d_38"/>
    <g id="text_32">
     <!-- $s=1$ -->
     <defs>
      <path d="M 22.796875 20 
C 24.5 19.703125 27.203125 19.109375 27.796875 19 
C 29.09375 18.625 33.59375 17.03125 33.59375 12.234375 
C 33.59375 9.15625 30.796875 1.09375 19.203125 1.09375 
C 17.09375 1.09375 9.59375 1.09375 7.59375 6.8125 
C 11.59375 6.3125 13.59375 9.421875 13.59375 11.640625 
C 13.59375 13.75 12.203125 14.84375 10.203125 14.84375 
C 8 14.84375 5.09375 13.140625 5.09375 8.625 
C 5.09375 2.703125 11.09375 -1 19.09375 -1 
C 34.296875 -1 38.796875 10.171875 38.796875 15.375 
C 38.796875 16.859375 38.796875 19.65625 35.59375 22.84375 
C 33.09375 25.25 30.703125 25.75 25.296875 26.84375 
C 22.59375 27.4375 18.296875 28.34375 18.296875 32.828125 
C 18.296875 34.828125 20.09375 42.015625 29.59375 42.015625 
C 33.796875 42.015625 37.90625 40.453125 38.90625 37 
C 34.5 37 34.296875 33.203125 34.296875 33.109375 
C 34.296875 31 36.203125 30.40625 37.09375 30.40625 
C 38.5 30.40625 41.296875 31.484375 41.296875 35.640625 
C 41.296875 39.765625 37.5 44 29.703125 44 
C 16.59375 44 13.09375 33.75 13.09375 29.671875 
C 13.09375 22.09375 20.5 20.5 22.796875 20 
z
" id="CMMI12-115"/>
     </defs>
     <g transform="translate(535.139091 66.16)scale(0.13 -0.13)">
      <use transform="scale(0.996264)" xlink:href="#CMMI12-115"/>
      <use transform="translate(73.624056 0)scale(0.996264)" xlink:href="#CMR17-61"/>
      <use transform="translate(173.012853 0)scale(0.996264)" xlink:href="#CMR17-49"/>
     </g>
    </g>
    <g id="line2d_39">
     <path d="M 498.739091 79.728312 
L 524.739091 79.728312 
" style="fill:none;stroke:#ff7f0e;stroke-dasharray:1.5,2.475;stroke-dashoffset:0;stroke-width:1.5;"/>
    </g>
    <g id="line2d_40"/>
    <g id="text_33">
     <!-- $s=10$ -->
     <g transform="translate(535.139091 84.278312)scale(0.13 -0.13)">
      <use transform="scale(0.996264)" xlink:href="#CMMI12-115"/>
      <use transform="translate(73.624056 0)scale(0.996264)" xlink:href="#CMR17-61"/>
      <use transform="translate(173.012853 0)scale(0.996264)" xlink:href="#CMR17-49"/>
      <use transform="translate(218.703331 0)scale(0.996264)" xlink:href="#CMR17-48"/>
     </g>
    </g>
    <g id="line2d_41">
     <path d="M 498.739091 97.846624 
L 524.739091 97.846624 
" style="fill:none;stroke:#2ca02c;stroke-dasharray:9.6,2.4,1.5,2.4;stroke-dashoffset:0;stroke-width:1.5;"/>
    </g>
    <g id="line2d_42"/>
    <g id="text_34">
     <!-- $s=100$ -->
     <g transform="translate(535.139091 102.396624)scale(0.13 -0.13)">
      <use transform="scale(0.996264)" xlink:href="#CMMI12-115"/>
      <use transform="translate(73.624056 0)scale(0.996264)" xlink:href="#CMR17-61"/>
      <use transform="translate(173.012853 0)scale(0.996264)" xlink:href="#CMR17-49"/>
      <use transform="translate(218.703331 0)scale(0.996264)" xlink:href="#CMR17-48"/>
      <use transform="translate(264.393808 0)scale(0.996264)" xlink:href="#CMR17-48"/>
     </g>
    </g>
   </g>
  </g>
 </g>
 <defs>
  <clipPath id="pe594661911">
   <rect height="291.06" width="313.240909" x="111.15" y="45.36"/>
  </clipPath>
  <clipPath id="pcc6d4efac8">
   <rect height="291.06" width="313.240909" x="487.039091" y="45.36"/>
  </clipPath>
 </defs>
</svg>
