<?xml version="1.0" encoding="UTF-8" standalone="no"?>
<!-- Created with matplotlib (https://matplotlib.org/) -->

<svg
   height="299.32996pt"
   version="1.1"
   viewBox="0 0 395.88389 299.32995"
   width="395.88388pt"
   id="svg8047"
   sodipodi:docname="mvmo_region.svg"
   inkscape:version="1.1 (ce6663b3b7, 2021-05-25)"
   xmlns:inkscape="http://www.inkscape.org/namespaces/inkscape"
   xmlns:sodipodi="http://sodipodi.sourceforge.net/DTD/sodipodi-0.dtd"
   xmlns:xlink="http://www.w3.org/1999/xlink"
   xmlns="http://www.w3.org/2000/svg"
   xmlns:svg="http://www.w3.org/2000/svg">
  <sodipodi:namedview
     id="namedview8049"
     pagecolor="#ffffff"
     bordercolor="#999999"
     borderopacity="1"
     inkscape:pageshadow="0"
     inkscape:pageopacity="0"
     inkscape:pagecheckerboard="0"
     inkscape:document-units="pt"
     showgrid="false"
     fit-margin-top="0"
     fit-margin-left="0"
     fit-margin-right="0"
     fit-margin-bottom="0"
     inkscape:zoom="0.26758192"
     inkscape:cx="117.72096"
     inkscape:cy="-99.035092"
     inkscape:window-width="1366"
     inkscape:window-height="704"
     inkscape:window-x="0"
     inkscape:window-y="27"
     inkscape:window-maximized="1"
     inkscape:current-layer="svg8047" />
  <defs
     id="defs7491">
    <style
       type="text/css"
       id="style7489">
*{stroke-linecap:butt;stroke-linejoin:round;}
  </style>
  </defs>
  <g
     id="g8843"
     transform="translate(-129.95089,-363.56053)">
    <g
       id="axes_1"
       transform="translate(105.75402,325.71119)">
      <g
         id="patch_2">
        <path
           d="M 57.6,307.584 H 414.72 V 41.472 H 57.6 Z"
           style="fill:#ffffff"
           id="path7496" />
      </g>
      <g
         id="PathCollection_1">
        <path
           clip-path="url(#p71a13f2a9a)"
           d="m 60.576,307.584 h 2.976 2.976 2.976 2.976 2.976 2.976 2.976 2.976 2.976 2.976 2.976 2.976 2.976 2.976 2.976 2.976 2.976 2.976 2.976 2.976 2.976 2.976 2.976 2.976 2.976 2.976 2.976 2.976 2.976 2.976 2.976 2.976 2.976 2.976 2.976 2.976 2.976 2.976 2.976 2.976 2.976 2.976 2.976 2.976 2.976 2.976 2.976 2.976 2.976 2.976 2.976 2.976 2.976 2.976 2.976 2.976 2.976 2.976 2.976 2.976 2.976 2.976 2.976 2.976 2.976 2.976 2.976 2.976 2.976 2.976 2.976 2.976 2.976 2.976 2.976 2.976 2.976 2.976 2.976 2.976 2.976 2.976 2.976 2.976 2.976 2.976 2.976 2.976 2.976 2.976 2.976 2.976 2.976 2.976 2.976 2.976 2.976 2.976 2.976 2.976 2.976 2.976 2.976 2.976 2.976 2.976 2.976 2.976 2.976 2.976 2.976 2.976 2.976 2.976 2.976 2.976 2.976 2.976 2.976 v -2.2176 -2.2176 -2.2176 -2.2176 -2.2176 -2.2176 -2.2176 -2.2176 -2.2176 -2.2176 -2.2176 -2.2176 -2.2176 -2.2176 -2.2176 -2.2176 -2.2176 -2.2176 -2.2176 -2.2176 -2.2176 -2.2176 -2.2176 -2.2176 -2.2176 -2.2176 -2.2176 -2.2176 -2.2176 -2.2176 -2.2176 -1.1088 h -2.976 -2.976 -2.976 l -1.488,-1.1088 1.488,-1.1088 h 2.976 2.976 2.976 v -1.1088 -2.2176 -2.2176 -2.2176 -2.2176 -1.1088 h -2.976 l -1.488,1.1088 -1.488,1.1088 h -2.976 -2.976 l -1.488,1.1088 -1.488,1.1088 h -2.976 l -1.488,1.1088 -1.488,1.1088 h -2.976 -2.976 l -1.488,1.1088 -1.488,1.1088 h -2.976 l -1.488,1.1088 -1.488,1.1088 -1.488,1.1088 1.488,1.1088 h 2.976 2.976 2.976 2.976 2.976 2.976 l 1.488,-1.1088 1.488,-1.1088 1.488,1.1088 1.488,1.1088 1.488,1.1088 -1.488,1.1088 h -2.976 -2.976 -2.976 -2.976 l -1.488,1.1088 -1.488,1.1088 h -2.976 -2.976 -2.976 l -1.488,1.1088 -1.488,1.1088 h -2.976 -2.976 -2.976 l -1.488,1.1088 -1.488,1.1088 h -2.976 -2.976 -2.976 -2.976 l -1.488,1.1088 -1.488,1.1088 h -2.976 -2.976 -2.976 l -1.488,1.1088 -1.488,1.1088 h -2.976 l -1.488,1.1088 -1.488,1.1088 h -2.976 -2.976 -2.976 l -1.488,1.1088 -1.488,1.1088 h -2.976 -2.976 -2.976 l -1.488,1.1088 -1.488,1.1088 h -2.976 -2.976 -2.976 -2.976 l -1.488,1.1088 -1.488,1.1088 h -2.976 -2.976 -2.976 l -1.488,1.1088 -1.488,1.1088 h -2.976 -2.976 l -1.488,1.1088 -1.488,1.1088 h -2.976 -2.976 -2.976 l -1.488,1.1088 -1.488,1.1088 h -2.976 -2.976 l -1.488,1.1088 -1.488,1.1088 h -2.976 -2.976 l -1.488,1.1088 v 2.2176 l -1.488,1.1088 h -2.976 -2.976 -2.976 l -1.488,1.1088 -1.488,1.1088 h -2.976 -2.976 -2.976 l -1.488,1.1088 -1.488,1.1088 h -2.976 -2.976 -2.976 l -1.488,1.1088 -1.488,1.1088 h -2.976 -2.976 -2.976 -2.976 l -1.488,1.1088 -1.488,1.1088 h -2.976 -2.976 -2.976 l -1.488,1.1088 v 2.2176 l -1.488,1.1088 -1.488,-1.1088 -1.488,-1.1088 h -2.976 -2.976 l -1.488,1.1088 -1.488,1.1088 h -2.976 -2.976 -2.976 l -1.488,1.1088 -1.488,1.1088 -1.488,1.1088 -1.488,1.1088 h -2.976 -2.976 -2.976 -2.976 l -1.488,1.1088 -1.488,1.1088 H 134.976 132 129.024 l -1.488,1.1088 -1.488,1.1088 h -2.976 -2.976 -2.976 l -1.488,1.1088 -1.488,1.1088 h -2.976 -2.976 l -1.488,1.1088 -1.488,1.1088 h -2.976 -2.976 -2.976 -2.976 l -1.488,1.1088 -1.488,1.1088 H 87.36 84.384 l -1.488,1.1088 -1.488,1.1088 H 78.432 75.456 72.48 l -1.488,1.1088 -1.488,1.1088 h -2.976 -2.976 -2.976 l -1.488,-1.1088 1.488,-1.1088 1.488,-1.1088 1.488,-1.1088 1.488,-1.1088 1.488,-1.1088 1.488,-1.1088 v -2.2176 -2.2176 l 1.488,-1.1088 h 2.976 l 1.488,-1.1088 1.488,-1.1088 1.488,-1.1088 1.488,-1.1088 1.488,-1.1088 v -2.2176 l 1.488,-1.1088 1.488,-1.1088 -1.488,-1.1088 -1.488,-1.1088 1.488,-1.1088 h 2.976 l 1.488,-1.1088 1.488,-1.1088 h 2.976 l 1.488,-1.1088 1.488,-1.1088 1.488,-1.1088 v -2.2176 l 1.488,-1.1088 1.488,-1.1088 1.488,-1.1088 1.488,-1.1088 v -2.2176 l 1.488,-1.1088 1.488,-1.1088 v -2.2176 l 1.488,-1.1088 1.488,-1.1088 1.488,-1.1088 1.488,-1.1088 v -2.2176 l 1.488,-1.1088 1.488,-1.1088 v -2.2176 l 1.488,-1.1088 1.488,-1.1088 1.488,-1.1088 1.488,1.1088 1.488,1.1088 1.488,-1.1088 1.488,-1.1088 h 2.976 l 1.488,-1.1088 v -2.2176 l 1.488,-1.1088 1.488,-1.1088 1.488,-1.1088 1.488,-1.1088 v -2.2176 l 1.488,-1.1088 1.488,-1.1088 1.488,-1.1088 1.488,-1.1088 v -2.2176 l 1.488,-1.1088 1.488,-1.1088 1.488,-1.1088 1.488,-1.1088 v -2.2176 l 1.488,-1.1088 1.488,-1.1088 V 218.88 l 1.488,-1.1088 1.488,-1.1088 1.488,-1.1088 1.488,-1.1088 v -2.2176 l 1.488,-1.1088 1.488,-1.1088 v -2.2176 l 1.488,-1.1088 1.488,-1.1088 1.488,-1.1088 1.488,-1.1088 v -2.2176 l 1.488,-1.1088 1.488,-1.1088 v -2.2176 l 1.488,-1.1088 1.488,-1.1088 1.488,-1.1088 1.488,-1.1088 v -2.2176 l 1.488,-1.1088 1.488,-1.1088 v -2.2176 l 1.488,-1.1088 1.488,-1.1088 1.488,-1.1088 1.488,-1.1088 v -2.2176 l 1.488,-1.1088 1.488,-1.1088 v -2.2176 l 1.488,-1.1088 1.488,-1.1088 1.488,-1.1088 1.488,-1.1088 v -2.2176 l 1.488,-1.1088 1.488,-1.1088 V 163.44 l 1.488,-1.1088 1.488,-1.1088 v -2.2176 l 1.488,-1.1088 1.488,-1.1088 1.488,-1.1088 1.488,1.1088 v 2.2176 l -1.488,1.1088 -1.488,1.1088 v 2.2176 l -1.488,1.1088 -1.488,1.1088 v 2.2176 l -1.488,1.1088 -1.488,1.1088 v 2.2176 l -1.488,1.1088 -1.488,1.1088 -1.488,1.1088 -1.488,1.1088 v 2.2176 l -1.488,1.1088 -1.488,1.1088 v 2.2176 l -1.488,1.1088 -1.488,1.1088 v 2.2176 l -1.488,1.1088 -1.488,1.1088 v 2.2176 l -1.488,1.1088 -1.488,1.1088 v 2.2176 l -1.488,1.1088 -1.488,1.1088 v 2.2176 l -1.488,1.1088 -1.488,1.1088 v 2.2176 l -1.488,1.1088 -1.488,1.1088 v 2.2176 l 1.488,1.1088 1.488,-1.1088 1.488,-1.1088 1.488,-1.1088 1.488,-1.1088 1.488,-1.1088 1.488,-1.1088 1.488,-1.1088 1.488,-1.1088 1.488,-1.1088 1.488,-1.1088 1.488,-1.1088 v -2.2176 l 1.488,-1.1088 1.488,-1.1088 1.488,-1.1088 1.488,-1.1088 1.488,-1.1088 1.488,-1.1088 v -2.2176 l 1.488,-1.1088 1.488,-1.1088 1.488,-1.1088 1.488,-1.1088 1.488,-1.1088 1.488,-1.1088 v -2.2176 l 1.488,-1.1088 1.488,-1.1088 1.488,-1.1088 1.488,-1.1088 v -2.2176 l 1.488,-1.1088 1.488,-1.1088 1.488,-1.1088 1.488,-1.1088 v -2.2176 l 1.488,-1.1088 1.488,-1.1088 1.488,-1.1088 1.488,-1.1088 v -2.2176 l 1.488,-1.1088 1.488,-1.1088 1.488,-1.1088 1.488,-1.1088 v -2.2176 l 1.488,-1.1088 1.488,-1.1088 1.488,-1.1088 1.488,-1.1088 v -2.2176 l 1.488,-1.1088 1.488,-1.1088 v -2.2176 l 1.488,-1.1088 1.488,-1.1088 1.488,-1.1088 1.488,-1.1088 v -2.2176 l 1.488,-1.1088 1.488,-1.1088 v -2.2176 l 1.488,-1.1088 1.488,-1.1088 1.488,-1.1088 1.488,-1.1088 v -2.2176 l 1.488,-1.1088 1.488,-1.1088 v -2.2176 l 1.488,-1.1088 1.488,-1.1088 1.488,-1.1088 1.488,-1.1088 v -2.2176 l 1.488,-1.1088 1.488,-1.1088 1.488,-1.1088 1.488,-1.1088 v -2.2176 l 1.488,-1.1088 1.488,-1.1088 v -2.2176 l 1.488,-1.1088 1.488,-1.1088 V 96.912 l 1.488,-1.1088 1.488,-1.1088 1.488,-1.1088 1.488,-1.1088 v -2.2176 l 1.488,-1.1088 1.488,-1.1088 V 85.824 l 1.488,-1.1088 1.488,-1.1088 1.488,-1.1088 1.488,-1.1088 v -2.2176 l 1.488,-1.1088 1.488,-1.1088 V 74.736 l 1.488,-1.1088 1.488,-1.1088 1.488,-1.1088 1.488,-1.1088 v -2.2176 l 1.488,-1.1088 1.488,-1.1088 V 63.648 l 1.488,-1.1088 1.488,-1.1088 v -2.2176 l 1.488,-1.1088 1.488,-1.1088 1.488,-1.1088 1.488,-1.1088 V 52.56 l 1.488,-1.1088 1.488,-1.1088 v -2.2176 l 1.488,-1.1088 1.488,-1.1088 1.488,-1.1088 1.488,-1.1088 V 41.472 h -1.488 -2.976 -2.976 -2.976 -2.976 -2.976 -2.976 -2.976 -2.976 -1.488 v 2.2176 l -1.488,1.1088 -1.488,-1.1088 V 41.472 h -1.488 -2.976 -2.976 -2.976 -1.488 l -1.488,1.1088 -1.488,-1.1088 h -1.488 -2.976 -2.976 -2.976 -2.976 -2.976 -2.976 -2.976 -2.976 -2.976 -2.976 -2.976 -2.976 -2.976 -2.976 -2.976 -2.976 -2.976 -2.976 -2.976 -2.976 -2.976 -2.976 -2.976 -2.976 -2.976 -2.976 -2.976 -2.976 -2.976 -2.976 -2.976 -2.976 -2.976 -2.976 -2.976 -2.976 -2.976 -2.976 -2.976 -2.976 -2.976 -2.976 -2.976 -2.976 -2.976 -2.976 -2.976 -2.976 -2.976 -2.976 -2.976 -2.976 -2.976 -2.976 -2.976 H 102.24 99.264 96.288 93.312 90.336 87.36 84.384 81.408 78.432 75.456 72.48 69.504 66.528 63.552 60.576 57.6 v 2.2176 2.2176 2.2176 2.2176 2.2176 2.2176 2.2176 2.2176 2.2176 2.2176 2.2176 2.2176 2.2176 2.2176 2.2176 2.2176 2.2176 2.2176 2.2176 2.2176 2.2176 2.2176 2.2176 2.2176 2.2176 2.2176 2.2176 2.2176 2.2176 2.2176 2.2176 2.2176 2.2176 2.2176 2.2176 2.2176 2.2176 2.2176 2.2176 2.2176 2.2176 2.2176 2.2176 2.2176 2.2176 2.2176 2.2176 2.2176 2.2176 2.2176 2.2176 2.2176 2.2176 2.2176 2.2176 2.2176 2.2176 2.2176 2.2176 2.2176 2.2176 2.2176 2.2176 2.2176 2.2176 2.2176 2.2176 2.2176 2.2176 2.2176 2.2176 2.2176 2.2176 2.2176 2.2176 2.2176 2.2176 2.2176 2.2176 2.2176 2.2176 2.2176 2.2176 2.2176 2.2176 2.2176 2.2176 2.2176 2.2176 2.2176 2.2176 2.2176 2.2176 2.2176 2.2176 2.2176 2.2176 2.2176 2.2176 2.2176 2.2176 2.2176 2.2176 2.2176 2.2176 2.2176 2.2176 2.2176 2.2176 2.2176 2.2176 2.2176 2.2176 2.2176 2.2176 2.2176 2.2176 2.2176 2.2176 2.2176 z m 132.432,-24.3936 1.488,-1.1088 1.488,1.1088 -1.488,1.1088 z m 14.88,-2.2176 1.488,-1.1088 1.488,1.1088 -1.488,1.1088 z M 82.896,274.32 l 1.488,-1.1088 1.488,1.1088 -1.488,1.1088 z m 5.952,0 1.488,-1.1088 1.488,1.1088 -1.488,1.1088 z m 2.976,-4.4352 1.488,-1.1088 1.488,1.1088 -1.488,1.1088 z m 160.704,0 1.488,-1.1088 h 2.976 l 1.488,1.1088 -1.488,1.1088 h -2.976 z m 17.856,-2.2176 1.488,-1.1088 1.488,1.1088 -1.488,1.1088 z M 94.8,265.4496 l 1.488,-1.1088 1.488,1.1088 -1.488,1.1088 z m 190.464,0 1.488,-1.1088 1.488,1.1088 -1.488,1.1088 z M 94.8,261.0144 l 1.488,-1.1088 1.488,1.1088 -1.488,1.1088 z m 217.248,0 1.488,-1.1088 1.488,1.1088 -1.488,1.1088 z m 29.76,-4.4352 1.488,-1.1088 1.488,1.1088 -1.488,1.1088 z m -238.08,-2.2176 1.488,-1.1088 1.488,1.1088 -1.488,1.1088 z m 2.976,-4.4352 1.488,-1.1088 1.488,1.1088 -1.488,1.1088 z m 291.648,-2.2176 1.488,-1.1088 1.488,1.1088 -1.488,1.1088 z m -279.744,-2.2176 v -2.2176 l 1.488,-1.1088 1.488,1.1088 v 2.2176 l -1.488,1.1088 z m -8.928,-4.4352 1.488,-1.1088 1.488,1.1088 -1.488,1.1088 z m 11.904,0 v -2.2176 l 1.488,-1.1088 1.488,1.1088 v 2.2176 l -1.488,1.1088 z m -5.952,-2.2176 1.488,-1.1088 1.488,1.1088 -1.488,1.1088 z m 8.928,-2.2176 1.488,-1.1088 1.488,1.1088 -1.488,1.1088 z m -5.952,-2.2176 1.488,-1.1088 1.488,1.1088 -1.488,1.1088 z m 8.928,-2.2176 1.488,-1.1088 1.488,1.1088 -1.488,1.1088 z m -5.952,-2.2176 1.488,-1.1088 1.488,1.1088 -1.488,1.1088 z m 8.928,-2.2176 1.488,-1.1088 1.488,1.1088 -1.488,1.1088 z m 2.976,-2.2176 v -2.2176 l 1.488,-1.1088 1.488,1.1088 v 2.2176 l -1.488,1.1088 z m -8.928,-4.4352 1.488,-1.1088 1.488,1.1088 -1.488,1.1088 z m 11.904,0 1.488,-1.1088 1.488,1.1088 -1.488,1.1088 z m 2.976,-4.4352 1.488,-1.1088 1.488,1.1088 -1.488,1.1088 z m -5.952,-2.2176 1.488,-1.1088 1.488,1.1088 -1.488,1.1088 z m 8.928,-2.2176 1.488,-1.1088 1.488,1.1088 -1.488,1.1088 z m 2.976,-4.4352 1.488,-1.1088 1.488,1.1088 -1.488,1.1088 z m 2.976,-2.2176 1.488,-1.1088 1.488,1.1088 -1.488,1.1088 z m 2.976,-4.4352 1.488,-1.1088 1.488,1.1088 -1.488,1.1088 z m 2.976,-4.4352 1.488,-1.1088 1.488,1.1088 -1.488,1.1088 z m -5.952,-2.2176 1.488,-1.1088 1.488,1.1088 -1.488,1.1088 z m 8.928,-2.2176 1.488,-1.1088 1.488,1.1088 -1.488,1.1088 z m 2.976,-2.2176 v -2.2176 l 1.488,-1.1088 1.488,1.1088 v 2.2176 l -1.488,1.1088 z m -8.928,-4.4352 1.488,-1.1088 1.488,1.1088 -1.488,1.1088 z m 11.904,0 1.488,-1.1088 1.488,1.1088 -1.488,1.1088 z m 2.976,-4.4352 1.488,-1.1088 1.488,1.1088 -1.488,1.1088 z m -5.952,-2.2176 1.488,-1.1088 1.488,1.1088 -1.488,1.1088 z m 8.928,-2.2176 1.488,-1.1088 1.488,1.1088 -1.488,1.1088 z m -5.952,-2.2176 1.488,-1.1088 1.488,1.1088 -1.488,1.1088 z m 8.928,-2.2176 1.488,-1.1088 1.488,1.1088 -1.488,1.1088 z m 5.952,-6.6528 1.488,-1.1088 1.488,1.1088 -1.488,1.1088 z m 2.976,-4.4352 1.488,-1.1088 1.488,1.1088 -1.488,1.1088 z m -5.952,-2.2176 1.488,-1.1088 1.488,1.1088 -1.488,1.1088 z m 8.928,-2.2176 1.488,-1.1088 1.488,1.1088 -1.488,1.1088 z m -5.952,-2.2176 1.488,-1.1088 1.488,1.1088 -1.488,1.1088 z m 23.808,0 v -2.2176 l 1.488,-1.1088 1.488,-1.1088 v -2.2176 l 1.488,-1.1088 1.488,-1.1088 v -2.2176 l 1.488,-1.1088 1.488,-1.1088 1.488,-1.1088 1.488,1.1088 v 2.2176 l -1.488,1.1088 -1.488,1.1088 v 2.2176 l -1.488,1.1088 -1.488,1.1088 v 2.2176 l -1.488,1.1088 -1.488,1.1088 -1.488,1.1088 z m -14.88,-2.2176 1.488,-1.1088 1.488,1.1088 -1.488,1.1088 z m 5.952,-6.6528 1.488,-1.1088 1.488,1.1088 -1.488,1.1088 z m 2.976,-4.4352 1.488,-1.1088 1.488,1.1088 -1.488,1.1088 z m -5.952,-2.2176 1.488,-1.1088 1.488,1.1088 -1.488,1.1088 z m 23.808,0 v -2.2176 l 1.488,-1.1088 1.488,1.1088 v 2.2176 l -1.488,1.1088 z m -14.88,-2.2176 1.488,-1.1088 1.488,1.1088 -1.488,1.1088 z m -5.952,-2.2176 1.488,-1.1088 1.488,1.1088 -1.488,1.1088 z m 23.808,0 v -2.2176 l 1.488,-1.1088 1.488,-1.1088 v -2.2176 l 1.488,-1.1088 1.488,-1.1088 1.488,-1.1088 1.488,1.1088 v 2.2176 l -1.488,1.1088 -1.488,1.1088 v 2.2176 l -1.488,1.1088 -1.488,1.1088 -1.488,1.1088 z m -14.88,-2.2176 1.488,-1.1088 1.488,1.1088 -1.488,1.1088 z m -5.952,-6.6528 1.488,-1.1088 1.488,1.1088 -1.488,1.1088 z m 11.904,0 1.488,-1.1088 1.488,1.1088 -1.488,1.1088 z m 17.856,-2.2176 v -2.2176 l 1.488,-1.1088 1.488,1.1088 v 2.2176 l -1.488,1.1088 z m -14.88,-2.2176 1.488,-1.1088 1.488,1.1088 -1.488,1.1088 z m -11.904,-2.2176 1.488,-1.1088 1.488,1.1088 -1.488,1.1088 z m 5.952,0 1.488,-1.1088 1.488,1.1088 -1.488,1.1088 z m 23.808,0 v -2.2176 l 1.488,-1.1088 1.488,1.1088 v 2.2176 l -1.488,1.1088 z m -14.88,-2.2176 1.488,-1.1088 1.488,1.1088 -1.488,1.1088 z m 17.856,-2.2176 v -2.2176 l 1.488,-1.1088 1.488,-1.1088 V 108 l 1.488,-1.1088 1.488,-1.1088 1.488,-1.1088 1.488,1.1088 V 108 l -1.488,1.1088 -1.488,1.1088 v 2.2176 l -1.488,1.1088 -1.488,1.1088 -1.488,1.1088 z m -14.88,-2.2176 1.488,-1.1088 1.488,1.1088 -1.488,1.1088 z m -5.952,-6.6528 1.488,-1.1088 1.488,1.1088 -1.488,1.1088 z m 11.904,0 1.488,-1.1088 1.488,1.1088 -1.488,1.1088 z m 17.856,-2.2176 v -2.2176 l 1.488,-1.1088 1.488,1.1088 v 2.2176 l -1.488,1.1088 z m -14.88,-2.2176 1.488,-1.1088 1.488,1.1088 -1.488,1.1088 z m -11.904,-2.2176 1.488,-1.1088 1.488,1.1088 -1.488,1.1088 z m 5.952,0 1.488,-1.1088 1.488,1.1088 -1.488,1.1088 z m 23.808,0 V 96.912 l 1.488,-1.1088 1.488,-1.1088 v -2.2176 l 1.488,-1.1088 1.488,1.1088 v 2.2176 2.2176 l -1.488,1.1088 -1.488,1.1088 -1.488,1.1088 z m -14.88,-2.2176 1.488,-1.1088 1.488,1.1088 -1.488,1.1088 z m 2.976,-4.4352 1.488,-1.1088 1.488,1.1088 -1.488,1.1088 z m 2.976,-2.2176 1.488,-1.1088 1.488,1.1088 -1.488,1.1088 z m 14.88,0 1.488,-1.1088 1.488,1.1088 -1.488,1.1088 z m 2.976,-2.2176 V 85.824 l 1.488,-1.1088 1.488,1.1088 v 2.2176 l -1.488,1.1088 z m -26.784,-2.2176 1.488,-1.1088 1.488,1.1088 -1.488,1.1088 z m 11.904,0 1.488,-1.1088 1.488,1.1088 -1.488,1.1088 z m -5.952,-2.2176 1.488,-1.1088 1.488,1.1088 -1.488,1.1088 z m 23.808,0 v -2.2176 l 1.488,-1.1088 1.488,1.1088 v 2.2176 l -1.488,1.1088 z m -14.88,-2.2176 1.488,-1.1088 1.488,1.1088 -1.488,1.1088 z m -5.952,-2.2176 1.488,-1.1088 1.488,1.1088 -1.488,1.1088 z m 23.808,0 v -2.2176 l 1.488,-1.1088 1.488,-1.1088 v -2.2176 l 1.488,-1.1088 1.488,-1.1088 1.488,-1.1088 1.488,1.1088 v 2.2176 l -1.488,1.1088 -1.488,1.1088 v 2.2176 l -1.488,1.1088 -1.488,1.1088 -1.488,1.1088 z M 246.576,74.736 v -2.2176 l 1.488,-1.1088 1.488,1.1088 v 2.2176 l -1.488,1.1088 z m 2.976,-4.4352 1.488,-1.1088 1.488,1.1088 -1.488,1.1088 z m 17.856,-2.2176 v -2.2176 l 1.488,-1.1088 1.488,1.1088 v 2.2176 l -1.488,1.1088 z m -26.784,-2.2176 1.488,-1.1088 1.488,1.1088 -1.488,1.1088 z m 11.904,0 1.488,-1.1088 1.488,1.1088 -1.488,1.1088 z m 17.856,-2.2176 v -2.2176 l 1.488,-1.1088 1.488,1.1088 v 2.2176 l -1.488,1.1088 z m -14.88,-2.2176 1.488,-1.1088 1.488,1.1088 -1.488,1.1088 z m -5.952,-2.2176 1.488,-1.1088 1.488,1.1088 -1.488,1.1088 z m 23.808,0 v -2.2176 l 1.488,-1.1088 1.488,-1.1088 V 52.56 l 1.488,-1.1088 1.488,1.1088 v 2.2176 2.2176 l -1.488,1.1088 -1.488,1.1088 -1.488,1.1088 z m -11.904,-4.4352 1.488,-1.1088 1.488,1.1088 -1.488,1.1088 z m 2.976,-4.4352 1.488,-1.1088 1.488,1.1088 -1.488,1.1088 z m 14.88,0 1.488,-1.1088 1.488,1.1088 -1.488,1.1088 z m 2.976,-2.2176 v -2.2176 l 1.488,-1.1088 1.488,1.1088 v 2.2176 l -1.488,1.1088 z m -26.784,-2.2176 1.488,-1.1088 1.488,1.1088 -1.488,1.1088 z m 11.904,0 1.488,-1.1088 1.488,1.1088 -1.488,1.1088 z"
           style="fill:#f98e52"
           id="path7499" />
        <path
           clip-path="url(#p71a13f2a9a)"
           d="m 117.12,253.2528 1.488,-1.1088 -1.488,-1.1088 -1.488,1.1088 z"
           style="fill:#f98e52"
           id="path7501" />
        <path
           clip-path="url(#p71a13f2a9a)"
           d="m 373.056,237.7296 1.488,-1.1088 -1.488,-1.1088 -1.488,1.1088 z"
           style="fill:#f98e52"
           id="path7503" />
        <path
           clip-path="url(#p71a13f2a9a)"
           d="m 408.768,193.3776 h 2.976 2.976 v -1.1088 -2.2176 -2.2176 -2.2176 -2.2176 -2.2176 -2.2176 -2.2176 -1.1088 l -1.488,-1.1088 1.488,-1.1088 v -1.1088 -2.2176 -2.2176 -2.2176 -2.2176 -2.2176 -2.2176 -2.2176 -2.2176 -2.2176 -2.2176 -2.2176 -2.2176 -2.2176 -2.2176 -2.2176 -2.2176 -2.2176 -2.2176 -2.2176 -2.2176 -2.2176 -2.2176 -2.2176 -2.2176 -2.2176 -2.2176 -2.2176 -2.2176 V 108 105.7824 103.5648 101.3472 99.1296 96.912 94.6944 92.4768 90.2592 88.0416 85.824 83.6064 81.3888 79.1712 76.9536 74.736 72.5184 70.3008 68.0832 65.8656 63.648 61.4304 59.2128 56.9952 54.7776 52.56 50.3424 48.1248 45.9072 43.6896 41.472 h -2.976 -2.976 -2.976 -2.976 -2.976 -2.976 -2.976 -1.488 v 2.2176 l -1.488,1.1088 -1.488,1.1088 -1.488,1.1088 -1.488,1.1088 v 2.2176 l -1.488,1.1088 -1.488,1.1088 v 2.2176 l -1.488,1.1088 -1.488,1.1088 v 2.2176 l -1.488,1.1088 -1.488,1.1088 -1.488,1.1088 -1.488,1.1088 v 2.2176 l -1.488,1.1088 -1.488,1.1088 v 2.2176 l -1.488,1.1088 -1.488,1.1088 -1.488,1.1088 -1.488,1.1088 v 2.2176 l -1.488,1.1088 -1.488,1.1088 v 2.2176 l -1.488,1.1088 -1.488,1.1088 v 2.2176 l -1.488,1.1088 -1.488,1.1088 -1.488,1.1088 -1.488,1.1088 v 2.2176 l -1.488,1.1088 -1.488,1.1088 v 2.2176 l -1.488,1.1088 -1.488,1.1088 v 2.2176 l -1.488,1.1088 -1.488,1.1088 v 2.2176 l -1.488,1.1088 -1.488,1.1088 -1.488,1.1088 -1.488,1.1088 v 2.2176 l -1.488,1.1088 -1.488,1.1088 v 2.2176 l -1.488,1.1088 -1.488,1.1088 v 2.2176 l -1.488,1.1088 -1.488,1.1088 v 2.2176 l -1.488,1.1088 -1.488,1.1088 v 2.2176 l -1.488,1.1088 -1.488,1.1088 v 2.2176 l -1.488,1.1088 -1.488,1.1088 v 2.2176 2.2176 l -1.488,1.1088 -1.488,1.1088 v 2.2176 2.2176 l -1.488,1.1088 -1.488,1.1088 v 2.2176 2.2176 l -1.488,1.1088 -1.488,1.1088 v 2.2176 2.2176 2.2176 2.2176 2.2176 2.2176 l 1.488,1.1088 1.488,1.1088 1.488,1.1088 1.488,-1.1088 v -2.2176 l 1.488,-1.1088 1.488,1.1088 v 2.2176 l 1.488,1.1088 1.488,1.1088 v 2.2176 l 1.488,1.1088 1.488,1.1088 1.488,1.1088 h 2.976 l 1.488,1.1088 1.488,1.1088 h 2.976 2.976 2.976 2.976 2.976 2.976 2.976 2.976 2.976 2.976 2.976 2.976 l 1.488,-1.1088 1.488,-1.1088 h 2.976 2.976 2.976 2.976 2.976 l 1.488,-1.1088 1.488,-1.1088 h 2.976 2.976 2.976 l 1.488,-1.1088 1.488,-1.1088 h 2.976 2.976 2.976 l 1.488,1.1088 v 2.2176 l -1.488,1.1088 -1.488,1.1088 -1.488,1.1088 -1.488,1.1088 v 2.2176 2.2176 l 1.488,1.1088 1.488,1.1088 -1.488,1.1088 -1.488,1.1088 z m -87.792,-36.5904 1.488,-1.1088 1.488,1.1088 -1.488,1.1088 z M 318,152.352 l 1.488,-1.1088 1.488,1.1088 -1.488,1.1088 z"
           style="fill:#f98e52"
           id="path7505" />
        <path
           clip-path="url(#p71a13f2a9a)"
           d="m 242.112,162.3312 h 2.976 2.976 l 1.488,-1.1088 1.488,-1.1088 h 2.976 l 1.488,-1.1088 1.488,-1.1088 1.488,-1.1088 v -2.2176 l 1.488,-1.1088 1.488,-1.1088 1.488,-1.1088 1.488,-1.1088 1.488,-1.1088 1.488,-1.1088 1.488,-1.1088 1.488,-1.1088 1.488,-1.1088 1.488,-1.1088 1.488,-1.1088 1.488,-1.1088 1.488,-1.1088 1.488,-1.1088 1.488,-1.1088 1.488,-1.1088 1.488,-1.1088 1.488,-1.1088 1.488,-1.1088 1.488,-1.1088 v -2.2176 l 1.488,-1.1088 1.488,-1.1088 1.488,-1.1088 1.488,-1.1088 1.488,-1.1088 1.488,-1.1088 1.488,-1.1088 1.488,-1.1088 v -2.2176 l 1.488,-1.1088 1.488,-1.1088 1.488,-1.1088 1.488,-1.1088 1.488,-1.1088 1.488,-1.1088 1.488,-1.1088 1.488,-1.1088 V 108 l 1.488,-1.1088 1.488,-1.1088 1.488,-1.1088 1.488,-1.1088 v -2.2176 l 1.488,-1.1088 1.488,-1.1088 1.488,-1.1088 1.488,-1.1088 1.488,-1.1088 1.488,-1.1088 v -2.2176 l 1.488,-1.1088 1.488,-1.1088 1.488,-1.1088 1.488,-1.1088 V 85.824 l 1.488,-1.1088 1.488,-1.1088 1.488,-1.1088 1.488,-1.1088 v -2.2176 l 1.488,-1.1088 1.488,-1.1088 1.488,-1.1088 1.488,-1.1088 v -2.2176 l 1.488,-1.1088 1.488,-1.1088 1.488,-1.1088 1.488,-1.1088 v -2.2176 l 1.488,-1.1088 1.488,-1.1088 1.488,-1.1088 1.488,-1.1088 v -2.2176 l 1.488,-1.1088 1.488,-1.1088 1.488,-1.1088 1.488,-1.1088 V 52.56 l 1.488,-1.1088 1.488,-1.1088 1.488,-1.1088 1.488,-1.1088 v -2.2176 l 1.488,-1.1088 1.488,-1.1088 1.488,-1.1088 1.488,-1.1088 h -1.488 -2.976 -2.976 -2.976 -2.976 -2.976 -2.976 -2.976 -2.976 -2.976 -2.976 -2.976 -2.976 -2.976 -2.976 -2.976 -2.976 -1.488 l -1.488,1.1088 -1.488,1.1088 v 2.2176 L 319.488,47.016 318,48.1248 v 2.2176 l -1.488,1.1088 -1.488,1.1088 -1.488,1.1088 -1.488,1.1088 v 2.2176 l -1.488,1.1088 -1.488,1.1088 v 2.2176 l -1.488,1.1088 -1.488,1.1088 v 2.2176 l -1.488,1.1088 -1.488,1.1088 v 2.2176 l -1.488,1.1088 -1.488,1.1088 -1.488,1.1088 -1.488,1.1088 v 2.2176 l -1.488,1.1088 -1.488,1.1088 v 2.2176 l -1.488,1.1088 -1.488,1.1088 v 2.2176 l -1.488,1.1088 -1.488,1.1088 -1.488,1.1088 -1.488,1.1088 v 2.2176 l -1.488,1.1088 -1.488,1.1088 v 2.2176 l -1.488,1.1088 -1.488,1.1088 v 2.2176 l -1.488,1.1088 -1.488,1.1088 V 105.7824 108 l -1.488,1.1088 h -2.976 l -1.488,1.1088 v 2.2176 l -1.488,1.1088 -1.488,1.1088 v 2.2176 l -1.488,1.1088 -1.488,1.1088 v 2.2176 l -1.488,1.1088 -1.488,1.1088 v 2.2176 l -1.488,1.1088 -1.488,1.1088 v 2.2176 l -1.488,1.1088 -1.488,1.1088 v 2.2176 l -1.488,1.1088 -1.488,1.1088 v 2.2176 l -1.488,1.1088 -1.488,1.1088 v 2.2176 l -1.488,1.1088 -1.488,1.1088 v 2.2176 l -1.488,1.1088 -1.488,1.1088 v 2.2176 2.2176 l -1.488,1.1088 -1.488,1.1088 v 2.2176 2.2176 z m 10.416,-5.544 1.488,-1.1088 1.488,1.1088 -1.488,1.1088 z"
           style="fill:#f98e52"
           id="path7507" />
      </g>
      <g
         id="PathCollection_2">
        <path
           clip-path="url(#p71a13f2a9a)"
           d="m 60.576,306.4752 h 2.976 2.976 2.976 l 1.488,-1.1088 1.488,-1.1088 h 2.976 2.976 2.976 l 1.488,-1.1088 1.488,-1.1088 h 2.976 2.976 l 1.488,-1.1088 1.488,-1.1088 h 2.976 2.976 2.976 2.976 l 1.488,-1.1088 1.488,-1.1088 h 2.976 2.976 l 1.488,-1.1088 1.488,-1.1088 h 2.976 2.976 2.976 l 1.488,-1.1088 1.488,-1.1088 h 2.976 2.976 2.976 l 1.488,-1.1088 1.488,-1.1088 h 2.976 2.976 2.976 2.976 l 1.488,-1.1088 1.488,-1.1088 1.488,-1.1088 1.488,-1.1088 h 2.976 2.976 2.976 l 1.488,-1.1088 1.488,-1.1088 h 2.976 2.976 l 1.488,1.1088 1.488,1.1088 1.488,-1.1088 v -2.2176 l 1.488,-1.1088 h 2.976 2.976 2.976 l 1.488,-1.1088 1.488,-1.1088 h 2.976 2.976 2.976 2.976 l 1.488,-1.1088 1.488,-1.1088 h 2.976 2.976 2.976 l 1.488,-1.1088 1.488,-1.1088 h 2.976 2.976 2.976 l 1.488,-1.1088 1.488,-1.1088 h 2.976 2.976 2.976 l 1.488,-1.1088 v -2.2176 l 1.488,-1.1088 h 2.976 2.976 l 1.488,-1.1088 1.488,-1.1088 h 2.976 2.976 l 1.488,-1.1088 1.488,-1.1088 h 2.976 2.976 2.976 l 1.488,-1.1088 1.488,-1.1088 h 2.976 2.976 l 1.488,-1.1088 1.488,-1.1088 h 2.976 2.976 2.976 l 1.488,-1.1088 1.488,-1.1088 h 2.976 2.976 2.976 2.976 l 1.488,-1.1088 1.488,-1.1088 h 2.976 2.976 2.976 l 1.488,-1.1088 1.488,-1.1088 h 2.976 2.976 2.976 l 1.488,-1.1088 1.488,-1.1088 h 2.976 l 1.488,-1.1088 1.488,-1.1088 h 2.976 2.976 2.976 l 1.488,-1.1088 1.488,-1.1088 h 2.976 2.976 2.976 2.976 l 1.488,-1.1088 1.488,-1.1088 h 2.976 2.976 2.976 l 1.488,-1.1088 1.488,-1.1088 h 2.976 2.976 2.976 l 1.488,-1.1088 1.488,-1.1088 h 2.976 2.976 2.976 2.976 l 1.488,-1.1088 -1.488,-1.1088 -1.488,-1.1088 -1.488,-1.1088 -1.488,1.1088 -1.488,1.1088 h -2.976 -2.976 -2.976 -2.976 -2.976 -2.976 l -1.488,-1.1088 1.488,-1.1088 1.488,-1.1088 1.488,-1.1088 h 2.976 l 1.488,-1.1088 1.488,-1.1088 h 2.976 2.976 l 1.488,-1.1088 1.488,-1.1088 h 2.976 l 1.488,-1.1088 1.488,-1.1088 h 2.976 2.976 l 1.488,-1.1088 1.488,-1.1088 h 2.976 v -1.1088 -2.2176 -2.2176 -2.2176 -2.2176 -2.2176 -2.2176 -2.2176 -2.2176 -2.2176 -2.2176 -2.2176 -2.2176 -2.2176 -1.1088 h -2.976 -2.976 l -1.488,-1.1088 1.488,-1.1088 1.488,-1.1088 -1.488,-1.1088 -1.488,-1.1088 v -2.2176 -2.2176 l 1.488,-1.1088 1.488,-1.1088 1.488,-1.1088 1.488,-1.1088 v -2.2176 l -1.488,-1.1088 h -2.976 -2.976 -2.976 l -1.488,1.1088 -1.488,1.1088 h -2.976 -2.976 -2.976 l -1.488,1.1088 -1.488,1.1088 h -2.976 -2.976 -2.976 -2.976 -2.976 l -1.488,1.1088 -1.488,1.1088 h -2.976 -2.976 -2.976 -2.976 -2.976 -2.976 -2.976 -2.976 -2.976 -2.976 -2.976 -2.976 l -1.488,-1.1088 -1.488,-1.1088 h -2.976 l -1.488,-1.1088 -1.488,-1.1088 -1.488,-1.1088 v -2.2176 l -1.488,-1.1088 -1.488,-1.1088 v -2.2176 l -1.488,-1.1088 -1.488,1.1088 v 2.2176 l -1.488,1.1088 -1.488,-1.1088 -1.488,-1.1088 -1.488,-1.1088 v -2.2176 -2.2176 -2.2176 -2.2176 -2.2176 -2.2176 l 1.488,-1.1088 1.488,-1.1088 v -2.2176 -2.2176 l 1.488,-1.1088 1.488,-1.1088 v -2.2176 -2.2176 l 1.488,-1.1088 1.488,-1.1088 v -2.2176 -2.2176 l 1.488,-1.1088 1.488,-1.1088 v -2.2176 l 1.488,-1.1088 1.488,-1.1088 v -2.2176 l 1.488,-1.1088 1.488,-1.1088 v -2.2176 l 1.488,-1.1088 1.488,-1.1088 v -2.2176 l 1.488,-1.1088 1.488,-1.1088 v -2.2176 l 1.488,-1.1088 1.488,-1.1088 v -2.2176 l 1.488,-1.1088 1.488,-1.1088 1.488,-1.1088 1.488,-1.1088 v -2.2176 l 1.488,-1.1088 1.488,-1.1088 v -2.2176 l 1.488,-1.1088 1.488,-1.1088 v -2.2176 l 1.488,-1.1088 1.488,-1.1088 v -2.2176 l 1.488,-1.1088 1.488,-1.1088 1.488,-1.1088 1.488,-1.1088 v -2.2176 l 1.488,-1.1088 1.488,-1.1088 v -2.2176 l 1.488,-1.1088 1.488,-1.1088 V 74.736 l 1.488,-1.1088 1.488,-1.1088 1.488,-1.1088 1.488,-1.1088 v -2.2176 l 1.488,-1.1088 1.488,-1.1088 V 63.648 l 1.488,-1.1088 1.488,-1.1088 1.488,-1.1088 1.488,-1.1088 v -2.2176 l 1.488,-1.1088 1.488,-1.1088 V 52.56 l 1.488,-1.1088 1.488,-1.1088 v -2.2176 l 1.488,-1.1088 1.488,-1.1088 1.488,-1.1088 1.488,-1.1088 V 41.472 h -1.488 -2.976 -2.976 -2.976 -2.976 -2.976 -1.488 l -1.488,1.1088 -1.488,1.1088 -1.488,1.1088 -1.488,1.1088 v 2.2176 l -1.488,1.1088 -1.488,1.1088 -1.488,1.1088 -1.488,1.1088 v 2.2176 l -1.488,1.1088 -1.488,1.1088 -1.488,1.1088 -1.488,1.1088 v 2.2176 l -1.488,1.1088 -1.488,1.1088 -1.488,1.1088 -1.488,1.1088 v 2.2176 l -1.488,1.1088 -1.488,1.1088 -1.488,1.1088 -1.488,1.1088 v 2.2176 l -1.488,1.1088 -1.488,1.1088 -1.488,1.1088 -1.488,1.1088 v 2.2176 l -1.488,1.1088 -1.488,1.1088 -1.488,1.1088 -1.488,1.1088 v 2.2176 l -1.488,1.1088 -1.488,1.1088 -1.488,1.1088 -1.488,1.1088 v 2.2176 l -1.488,1.1088 -1.488,1.1088 -1.488,1.1088 -1.488,1.1088 -1.488,1.1088 -1.488,1.1088 v 2.2176 l -1.488,1.1088 -1.488,1.1088 -1.488,1.1088 -1.488,1.1088 v 2.2176 l -1.488,1.1088 -1.488,1.1088 -1.488,1.1088 -1.488,1.1088 -1.488,1.1088 -1.488,1.1088 -1.488,1.1088 -1.488,1.1088 v 2.2176 l -1.488,1.1088 -1.488,1.1088 -1.488,1.1088 -1.488,1.1088 -1.488,1.1088 -1.488,1.1088 -1.488,1.1088 -1.488,1.1088 v 2.2176 l -1.488,1.1088 -1.488,1.1088 -1.488,1.1088 -1.488,1.1088 -1.488,1.1088 -1.488,1.1088 -1.488,1.1088 -1.488,1.1088 -1.488,1.1088 -1.488,1.1088 -1.488,1.1088 -1.488,1.1088 -1.488,1.1088 -1.488,1.1088 -1.488,1.1088 -1.488,1.1088 -1.488,1.1088 -1.488,1.1088 -1.488,1.1088 -1.488,1.1088 v 2.2176 l -1.488,1.1088 -1.488,1.1088 -1.488,1.1088 h -2.976 l -1.488,1.1088 -1.488,1.1088 h -2.976 -2.976 l -1.488,-1.1088 v -2.2176 -2.2176 l 1.488,-1.1088 1.488,-1.1088 v -2.2176 -2.2176 l 1.488,-1.1088 1.488,-1.1088 v -2.2176 l 1.488,-1.1088 1.488,-1.1088 v -2.2176 l 1.488,-1.1088 1.488,-1.1088 v -2.2176 l 1.488,-1.1088 1.488,-1.1088 v -2.2176 l 1.488,-1.1088 1.488,-1.1088 v -2.2176 l 1.488,-1.1088 1.488,-1.1088 v -2.2176 l 1.488,-1.1088 1.488,-1.1088 v -2.2176 l 1.488,-1.1088 1.488,-1.1088 v -2.2176 l 1.488,-1.1088 1.488,-1.1088 v -2.2176 l 1.488,-1.1088 h 2.976 L 276.336,108 v -2.2176 -2.2176 l 1.488,-1.1088 1.488,-1.1088 v -2.2176 l 1.488,-1.1088 1.488,-1.1088 v -2.2176 l 1.488,-1.1088 1.488,-1.1088 v -2.2176 l 1.488,-1.1088 1.488,-1.1088 1.488,-1.1088 1.488,-1.1088 v -2.2176 l 1.488,-1.1088 1.488,-1.1088 v -2.2176 l 1.488,-1.1088 1.488,-1.1088 V 74.736 l 1.488,-1.1088 1.488,-1.1088 1.488,-1.1088 1.488,-1.1088 v -2.2176 l 1.488,-1.1088 1.488,-1.1088 V 63.648 l 1.488,-1.1088 1.488,-1.1088 v -2.2176 l 1.488,-1.1088 1.488,-1.1088 v -2.2176 l 1.488,-1.1088 1.488,-1.1088 1.488,-1.1088 1.488,-1.1088 v -2.2176 l 1.488,-1.1088 1.488,-1.1088 v -2.2176 l 1.488,-1.1088 1.488,-1.1088 h -1.488 -2.976 -2.976 -1.488 v 2.2176 l -1.488,1.1088 -1.488,1.1088 -1.488,1.1088 -1.488,1.1088 v 2.2176 l -1.488,1.1088 -1.488,1.1088 v 2.2176 l -1.488,1.1088 -1.488,1.1088 -1.488,1.1088 -1.488,1.1088 v 2.2176 l -1.488,1.1088 -1.488,1.1088 v 2.2176 l -1.488,1.1088 -1.488,1.1088 v 2.2176 l -1.488,1.1088 -1.488,1.1088 -1.488,1.1088 -1.488,1.1088 v 2.2176 l -1.488,1.1088 -1.488,1.1088 v 2.2176 l -1.488,1.1088 -1.488,1.1088 -1.488,1.1088 -1.488,1.1088 v 2.2176 l -1.488,1.1088 -1.488,1.1088 v 2.2176 l -1.488,1.1088 -1.488,1.1088 -1.488,1.1088 -1.488,1.1088 v 2.2176 l -1.488,1.1088 -1.488,1.1088 v 2.2176 l -1.488,1.1088 -1.488,1.1088 V 108 l -1.488,1.1088 -1.488,1.1088 -1.488,1.1088 -1.488,1.1088 v 2.2176 l -1.488,1.1088 -1.488,1.1088 -1.488,1.1088 -1.488,1.1088 v 2.2176 l -1.488,1.1088 -1.488,1.1088 v 2.2176 l -1.488,1.1088 -1.488,1.1088 -1.488,1.1088 -1.488,1.1088 v 2.2176 l -1.488,1.1088 -1.488,1.1088 v 2.2176 l -1.488,1.1088 -1.488,1.1088 -1.488,1.1088 -1.488,1.1088 v 2.2176 l -1.488,1.1088 -1.488,1.1088 v 2.2176 l -1.488,1.1088 -1.488,1.1088 -1.488,1.1088 -1.488,1.1088 v 2.2176 l -1.488,1.1088 -1.488,1.1088 -1.488,1.1088 -1.488,1.1088 v 2.2176 l -1.488,1.1088 -1.488,1.1088 -1.488,1.1088 -1.488,1.1088 v 2.2176 l -1.488,1.1088 -1.488,1.1088 -1.488,1.1088 -1.488,1.1088 v 2.2176 l -1.488,1.1088 -1.488,1.1088 -1.488,1.1088 -1.488,1.1088 v 2.2176 l -1.488,1.1088 -1.488,1.1088 -1.488,1.1088 -1.488,1.1088 -1.488,1.1088 -1.488,1.1088 v 2.2176 l -1.488,1.1088 -1.488,1.1088 -1.488,1.1088 -1.488,1.1088 -1.488,1.1088 -1.488,1.1088 v 2.2176 l -1.488,1.1088 -1.488,1.1088 -1.488,1.1088 -1.488,1.1088 -1.488,1.1088 -1.488,1.1088 -1.488,1.1088 -1.488,1.1088 -1.488,1.1088 -1.488,1.1088 -1.488,1.1088 -1.488,-1.1088 v -2.2176 l 1.488,-1.1088 1.488,-1.1088 v -2.2176 l 1.488,-1.1088 1.488,-1.1088 v -2.2176 l 1.488,-1.1088 1.488,-1.1088 v -2.2176 l 1.488,-1.1088 1.488,-1.1088 v -2.2176 l 1.488,-1.1088 1.488,-1.1088 v -2.2176 l 1.488,-1.1088 1.488,-1.1088 v -2.2176 l 1.488,-1.1088 1.488,-1.1088 v -2.2176 l 1.488,-1.1088 1.488,-1.1088 1.488,-1.1088 1.488,-1.1088 v -2.2176 l 1.488,-1.1088 1.488,-1.1088 v -2.2176 l 1.488,-1.1088 1.488,-1.1088 v -2.2176 l 1.488,-1.1088 1.488,-1.1088 v -2.2176 l -1.488,-1.1088 -1.488,1.1088 -1.488,1.1088 -1.488,1.1088 v 2.2176 l -1.488,1.1088 -1.488,1.1088 v 2.2176 l -1.488,1.1088 -1.488,1.1088 v 2.2176 l -1.488,1.1088 -1.488,1.1088 -1.488,1.1088 -1.488,1.1088 v 2.2176 l -1.488,1.1088 -1.488,1.1088 v 2.2176 l -1.488,1.1088 -1.488,1.1088 -1.488,1.1088 -1.488,1.1088 v 2.2176 l -1.488,1.1088 -1.488,1.1088 v 2.2176 l -1.488,1.1088 -1.488,1.1088 -1.488,1.1088 -1.488,1.1088 v 2.2176 l -1.488,1.1088 -1.488,1.1088 v 2.2176 l -1.488,1.1088 -1.488,1.1088 -1.488,1.1088 -1.488,1.1088 v 2.2176 l -1.488,1.1088 -1.488,1.1088 v 2.2176 l -1.488,1.1088 -1.488,1.1088 -1.488,1.1088 -1.488,1.1088 v 2.2176 l -1.488,1.1088 -1.488,1.1088 v 2.2176 l -1.488,1.1088 -1.488,1.1088 -1.488,1.1088 -1.488,1.1088 v 2.2176 l -1.488,1.1088 -1.488,1.1088 -1.488,1.1088 -1.488,1.1088 v 2.2176 l -1.488,1.1088 -1.488,1.1088 -1.488,1.1088 -1.488,1.1088 v 2.2176 l -1.488,1.1088 h -2.976 l -1.488,1.1088 -1.488,1.1088 -1.488,-1.1088 -1.488,-1.1088 -1.488,1.1088 -1.488,1.1088 -1.488,1.1088 v 2.2176 l -1.488,1.1088 -1.488,1.1088 v 2.2176 l -1.488,1.1088 -1.488,1.1088 -1.488,1.1088 -1.488,1.1088 v 2.2176 l -1.488,1.1088 -1.488,1.1088 v 2.2176 l -1.488,1.1088 -1.488,1.1088 -1.488,1.1088 -1.488,1.1088 v 2.2176 l -1.488,1.1088 -1.488,1.1088 -1.488,1.1088 H 87.36 l -1.488,1.1088 -1.488,1.1088 h -2.976 l -1.488,1.1088 1.488,1.1088 1.488,1.1088 -1.488,1.1088 -1.488,1.1088 v 2.2176 l -1.488,1.1088 -1.488,1.1088 -1.488,1.1088 -1.488,1.1088 -1.488,1.1088 h -2.976 l -1.488,1.1088 v 2.2176 2.2176 l -1.488,1.1088 -1.488,1.1088 -1.488,1.1088 -1.488,1.1088 -1.488,1.1088 -1.488,1.1088 z m 55.056,-54.3312 1.488,-1.1088 1.488,1.1088 -1.488,1.1088 z m 255.936,-15.5232 1.488,-1.1088 1.488,1.1088 -1.488,1.1088 z"
           style="fill:#84ca66"
           id="path7510" />
        <path
           clip-path="url(#p71a13f2a9a)"
           d="m 194.496,284.2992 1.488,-1.1088 -1.488,-1.1088 -1.488,1.1088 z"
           style="fill:#84ca66"
           id="path7512" />
        <path
           clip-path="url(#p71a13f2a9a)"
           d="m 209.376,282.0816 1.488,-1.1088 -1.488,-1.1088 -1.488,1.1088 z"
           style="fill:#84ca66"
           id="path7514" />
        <path
           clip-path="url(#p71a13f2a9a)"
           d="m 84.384,275.4288 1.488,-1.1088 -1.488,-1.1088 -1.488,1.1088 z"
           style="fill:#84ca66"
           id="path7516" />
        <path
           clip-path="url(#p71a13f2a9a)"
           d="m 90.336,275.4288 1.488,-1.1088 -1.488,-1.1088 -1.488,1.1088 z"
           style="fill:#84ca66"
           id="path7518" />
        <path
           clip-path="url(#p71a13f2a9a)"
           d="m 93.312,270.9936 1.488,-1.1088 -1.488,-1.1088 -1.488,1.1088 z"
           style="fill:#84ca66"
           id="path7520" />
        <path
           clip-path="url(#p71a13f2a9a)"
           d="m 254.016,270.9936 h 2.976 l 1.488,-1.1088 -1.488,-1.1088 h -2.976 l -1.488,1.1088 z"
           style="fill:#84ca66"
           id="path7522" />
        <path
           clip-path="url(#p71a13f2a9a)"
           d="m 271.872,268.776 1.488,-1.1088 -1.488,-1.1088 -1.488,1.1088 z"
           style="fill:#84ca66"
           id="path7524" />
        <path
           clip-path="url(#p71a13f2a9a)"
           d="m 96.288,266.5584 1.488,-1.1088 -1.488,-1.1088 -1.488,1.1088 z"
           style="fill:#84ca66"
           id="path7526" />
        <path
           clip-path="url(#p71a13f2a9a)"
           d="m 286.752,266.5584 1.488,-1.1088 -1.488,-1.1088 -1.488,1.1088 z"
           style="fill:#84ca66"
           id="path7528" />
        <path
           clip-path="url(#p71a13f2a9a)"
           d="m 96.288,262.1232 1.488,-1.1088 -1.488,-1.1088 -1.488,1.1088 z"
           style="fill:#84ca66"
           id="path7530" />
        <path
           clip-path="url(#p71a13f2a9a)"
           d="m 313.536,262.1232 1.488,-1.1088 -1.488,-1.1088 -1.488,1.1088 z"
           style="fill:#84ca66"
           id="path7532" />
        <path
           clip-path="url(#p71a13f2a9a)"
           d="m 343.296,257.688 1.488,-1.1088 -1.488,-1.1088 -1.488,1.1088 z"
           style="fill:#84ca66"
           id="path7534" />
        <path
           clip-path="url(#p71a13f2a9a)"
           d="m 105.216,255.4704 1.488,-1.1088 -1.488,-1.1088 -1.488,1.1088 z"
           style="fill:#84ca66"
           id="path7536" />
        <path
           clip-path="url(#p71a13f2a9a)"
           d="m 108.192,251.0352 1.488,-1.1088 -1.488,-1.1088 -1.488,1.1088 z"
           style="fill:#84ca66"
           id="path7538" />
        <path
           clip-path="url(#p71a13f2a9a)"
           d="m 399.84,248.8176 1.488,-1.1088 -1.488,-1.1088 -1.488,1.1088 z"
           style="fill:#84ca66"
           id="path7540" />
        <path
           clip-path="url(#p71a13f2a9a)"
           d="m 120.096,246.6 1.488,-1.1088 v -2.2176 l -1.488,-1.1088 -1.488,1.1088 v 2.2176 z"
           style="fill:#84ca66"
           id="path7542" />
        <path
           clip-path="url(#p71a13f2a9a)"
           d="m 111.168,242.1648 1.488,-1.1088 -1.488,-1.1088 -1.488,1.1088 z"
           style="fill:#84ca66"
           id="path7544" />
        <path
           clip-path="url(#p71a13f2a9a)"
           d="m 123.072,242.1648 1.488,-1.1088 v -2.2176 l -1.488,-1.1088 -1.488,1.1088 v 2.2176 z"
           style="fill:#84ca66"
           id="path7546" />
        <path
           clip-path="url(#p71a13f2a9a)"
           d="m 117.12,239.9472 1.488,-1.1088 -1.488,-1.1088 -1.488,1.1088 z"
           style="fill:#84ca66"
           id="path7548" />
        <path
           clip-path="url(#p71a13f2a9a)"
           d="m 126.048,237.7296 1.488,-1.1088 -1.488,-1.1088 -1.488,1.1088 z"
           style="fill:#84ca66"
           id="path7550" />
        <path
           clip-path="url(#p71a13f2a9a)"
           d="m 405.792,237.7296 h 2.976 2.976 2.976 v -1.1088 -1.1088 h -2.976 -2.976 -2.976 l -1.488,1.1088 z"
           style="fill:#84ca66"
           id="path7552" />
        <path
           clip-path="url(#p71a13f2a9a)"
           d="m 120.096,235.512 1.488,-1.1088 -1.488,-1.1088 -1.488,1.1088 z"
           style="fill:#84ca66"
           id="path7554" />
        <path
           clip-path="url(#p71a13f2a9a)"
           d="m 129.024,233.2944 1.488,-1.1088 -1.488,-1.1088 -1.488,1.1088 z"
           style="fill:#84ca66"
           id="path7556" />
        <path
           clip-path="url(#p71a13f2a9a)"
           d="m 123.072,231.0768 1.488,-1.1088 -1.488,-1.1088 -1.488,1.1088 z"
           style="fill:#84ca66"
           id="path7558" />
        <path
           clip-path="url(#p71a13f2a9a)"
           d="m 132,228.8592 1.488,-1.1088 -1.488,-1.1088 -1.488,1.1088 z"
           style="fill:#84ca66"
           id="path7560" />
        <path
           clip-path="url(#p71a13f2a9a)"
           d="m 134.976,226.6416 1.488,-1.1088 v -2.2176 l -1.488,-1.1088 -1.488,1.1088 v 2.2176 z"
           style="fill:#84ca66"
           id="path7562" />
        <path
           clip-path="url(#p71a13f2a9a)"
           d="m 126.048,222.2064 1.488,-1.1088 -1.488,-1.1088 -1.488,1.1088 z"
           style="fill:#84ca66"
           id="path7564" />
        <path
           clip-path="url(#p71a13f2a9a)"
           d="m 137.952,222.2064 1.488,-1.1088 -1.488,-1.1088 -1.488,1.1088 z"
           style="fill:#84ca66"
           id="path7566" />
        <path
           clip-path="url(#p71a13f2a9a)"
           d="m 140.928,217.7712 1.488,-1.1088 -1.488,-1.1088 -1.488,1.1088 z"
           style="fill:#84ca66"
           id="path7568" />
        <path
           clip-path="url(#p71a13f2a9a)"
           d="m 134.976,215.5536 1.488,-1.1088 -1.488,-1.1088 -1.488,1.1088 z"
           style="fill:#84ca66"
           id="path7570" />
        <path
           clip-path="url(#p71a13f2a9a)"
           d="m 143.904,213.336 1.488,-1.1088 -1.488,-1.1088 -1.488,1.1088 z"
           style="fill:#84ca66"
           id="path7572" />
        <path
           clip-path="url(#p71a13f2a9a)"
           d="m 146.88,208.9008 1.488,-1.1088 -1.488,-1.1088 -1.488,1.1088 z"
           style="fill:#84ca66"
           id="path7574" />
        <path
           clip-path="url(#p71a13f2a9a)"
           d="m 149.856,206.6832 1.488,-1.1088 -1.488,-1.1088 -1.488,1.1088 z"
           style="fill:#84ca66"
           id="path7576" />
        <path
           clip-path="url(#p71a13f2a9a)"
           d="m 152.832,202.248 1.488,-1.1088 -1.488,-1.1088 -1.488,1.1088 z"
           style="fill:#84ca66"
           id="path7578" />
        <path
           clip-path="url(#p71a13f2a9a)"
           d="m 155.808,197.8128 1.488,-1.1088 -1.488,-1.1088 -1.488,1.1088 z"
           style="fill:#84ca66"
           id="path7580" />
        <path
           clip-path="url(#p71a13f2a9a)"
           d="m 149.856,195.5952 1.488,-1.1088 -1.488,-1.1088 -1.488,1.1088 z"
           style="fill:#84ca66"
           id="path7582" />
        <path
           clip-path="url(#p71a13f2a9a)"
           d="m 158.784,193.3776 1.488,-1.1088 -1.488,-1.1088 -1.488,1.1088 z"
           style="fill:#84ca66"
           id="path7584" />
        <path
           clip-path="url(#p71a13f2a9a)"
           d="m 161.76,191.16 1.488,-1.1088 v -2.2176 l -1.488,-1.1088 -1.488,1.1088 v 2.2176 z"
           style="fill:#84ca66"
           id="path7586" />
        <path
           clip-path="url(#p71a13f2a9a)"
           d="m 152.832,186.7248 1.488,-1.1088 -1.488,-1.1088 -1.488,1.1088 z"
           style="fill:#84ca66"
           id="path7588" />
        <path
           clip-path="url(#p71a13f2a9a)"
           d="m 164.736,186.7248 1.488,-1.1088 -1.488,-1.1088 -1.488,1.1088 z"
           style="fill:#84ca66"
           id="path7590" />
        <path
           clip-path="url(#p71a13f2a9a)"
           d="m 167.712,182.2896 1.488,-1.1088 -1.488,-1.1088 -1.488,1.1088 z"
           style="fill:#84ca66"
           id="path7592" />
        <path
           clip-path="url(#p71a13f2a9a)"
           d="m 161.76,180.072 1.488,-1.1088 -1.488,-1.1088 -1.488,1.1088 z"
           style="fill:#84ca66"
           id="path7594" />
        <path
           clip-path="url(#p71a13f2a9a)"
           d="m 170.688,177.8544 1.488,-1.1088 -1.488,-1.1088 -1.488,1.1088 z"
           style="fill:#84ca66"
           id="path7596" />
        <path
           clip-path="url(#p71a13f2a9a)"
           d="m 164.736,175.6368 1.488,-1.1088 -1.488,-1.1088 -1.488,1.1088 z"
           style="fill:#84ca66"
           id="path7598" />
        <path
           clip-path="url(#p71a13f2a9a)"
           d="m 414.72,175.6368 v -1.1088 -1.1088 l -1.488,1.1088 z"
           style="fill:#84ca66"
           id="path7600" />
        <path
           clip-path="url(#p71a13f2a9a)"
           d="m 173.664,173.4192 1.488,-1.1088 -1.488,-1.1088 -1.488,1.1088 z"
           style="fill:#84ca66"
           id="path7602" />
        <path
           clip-path="url(#p71a13f2a9a)"
           d="m 179.616,166.7664 1.488,-1.1088 -1.488,-1.1088 -1.488,1.1088 z"
           style="fill:#84ca66"
           id="path7604" />
        <path
           clip-path="url(#p71a13f2a9a)"
           d="m 182.592,162.3312 1.488,-1.1088 -1.488,-1.1088 -1.488,1.1088 z"
           style="fill:#84ca66"
           id="path7606" />
        <path
           clip-path="url(#p71a13f2a9a)"
           d="m 176.64,160.1136 1.488,-1.1088 -1.488,-1.1088 -1.488,1.1088 z"
           style="fill:#84ca66"
           id="path7608" />
        <path
           clip-path="url(#p71a13f2a9a)"
           d="m 185.568,157.896 1.488,-1.1088 -1.488,-1.1088 -1.488,1.1088 z"
           style="fill:#84ca66"
           id="path7610" />
        <path
           clip-path="url(#p71a13f2a9a)"
           d="m 254.016,157.896 1.488,-1.1088 -1.488,-1.1088 -1.488,1.1088 z"
           style="fill:#84ca66"
           id="path7612" />
        <path
           clip-path="url(#p71a13f2a9a)"
           d="m 322.464,157.896 1.488,-1.1088 -1.488,-1.1088 -1.488,1.1088 z"
           style="fill:#84ca66"
           id="path7614" />
        <path
           clip-path="url(#p71a13f2a9a)"
           d="m 179.616,155.6784 1.488,-1.1088 -1.488,-1.1088 -1.488,1.1088 z"
           style="fill:#84ca66"
           id="path7616" />
        <path
           clip-path="url(#p71a13f2a9a)"
           d="m 203.424,155.6784 1.488,-1.1088 1.488,-1.1088 1.488,-1.1088 v -2.2176 l 1.488,-1.1088 1.488,-1.1088 v -2.2176 l 1.488,-1.1088 1.488,-1.1088 v -2.2176 l -1.488,-1.1088 -1.488,1.1088 -1.488,1.1088 -1.488,1.1088 v 2.2176 l -1.488,1.1088 -1.488,1.1088 v 2.2176 l -1.488,1.1088 -1.488,1.1088 v 2.2176 z"
           style="fill:#84ca66"
           id="path7618" />
        <path
           clip-path="url(#p71a13f2a9a)"
           d="m 188.544,153.4608 1.488,-1.1088 -1.488,-1.1088 -1.488,1.1088 z"
           style="fill:#84ca66"
           id="path7620" />
        <path
           clip-path="url(#p71a13f2a9a)"
           d="m 319.488,153.4608 1.488,-1.1088 -1.488,-1.1088 -1.488,1.1088 z"
           style="fill:#84ca66"
           id="path7622" />
        <path
           clip-path="url(#p71a13f2a9a)"
           d="m 194.496,146.808 1.488,-1.1088 -1.488,-1.1088 -1.488,1.1088 z"
           style="fill:#84ca66"
           id="path7624" />
        <path
           clip-path="url(#p71a13f2a9a)"
           d="m 197.472,142.3728 1.488,-1.1088 -1.488,-1.1088 -1.488,1.1088 z"
           style="fill:#84ca66"
           id="path7626" />
        <path
           clip-path="url(#p71a13f2a9a)"
           d="m 191.52,140.1552 1.488,-1.1088 -1.488,-1.1088 -1.488,1.1088 z"
           style="fill:#84ca66"
           id="path7628" />
        <path
           clip-path="url(#p71a13f2a9a)"
           d="m 215.328,140.1552 1.488,-1.1088 v -2.2176 l -1.488,-1.1088 -1.488,1.1088 v 2.2176 z"
           style="fill:#84ca66"
           id="path7630" />
        <path
           clip-path="url(#p71a13f2a9a)"
           d="m 200.448,137.9376 1.488,-1.1088 -1.488,-1.1088 -1.488,1.1088 z"
           style="fill:#84ca66"
           id="path7632" />
        <path
           clip-path="url(#p71a13f2a9a)"
           d="m 194.496,135.72 1.488,-1.1088 -1.488,-1.1088 -1.488,1.1088 z"
           style="fill:#84ca66"
           id="path7634" />
        <path
           clip-path="url(#p71a13f2a9a)"
           d="m 218.304,135.72 1.488,-1.1088 1.488,-1.1088 1.488,-1.1088 v -2.2176 l 1.488,-1.1088 1.488,-1.1088 v -2.2176 l -1.488,-1.1088 -1.488,1.1088 -1.488,1.1088 -1.488,1.1088 v 2.2176 l -1.488,1.1088 -1.488,1.1088 v 2.2176 z"
           style="fill:#84ca66"
           id="path7636" />
        <path
           clip-path="url(#p71a13f2a9a)"
           d="m 203.424,133.5024 1.488,-1.1088 -1.488,-1.1088 -1.488,1.1088 z"
           style="fill:#84ca66"
           id="path7638" />
        <path
           clip-path="url(#p71a13f2a9a)"
           d="m 197.472,126.8496 1.488,-1.1088 -1.488,-1.1088 -1.488,1.1088 z"
           style="fill:#84ca66"
           id="path7640" />
        <path
           clip-path="url(#p71a13f2a9a)"
           d="m 209.376,126.8496 1.488,-1.1088 -1.488,-1.1088 -1.488,1.1088 z"
           style="fill:#84ca66"
           id="path7642" />
        <path
           clip-path="url(#p71a13f2a9a)"
           d="m 227.232,124.632 1.488,-1.1088 v -2.2176 l -1.488,-1.1088 -1.488,1.1088 v 2.2176 z"
           style="fill:#84ca66"
           id="path7644" />
        <path
           clip-path="url(#p71a13f2a9a)"
           d="m 212.352,122.4144 1.488,-1.1088 -1.488,-1.1088 -1.488,1.1088 z"
           style="fill:#84ca66"
           id="path7646" />
        <path
           clip-path="url(#p71a13f2a9a)"
           d="m 200.448,120.1968 1.488,-1.1088 -1.488,-1.1088 -1.488,1.1088 z"
           style="fill:#84ca66"
           id="path7648" />
        <path
           clip-path="url(#p71a13f2a9a)"
           d="m 206.4,120.1968 1.488,-1.1088 -1.488,-1.1088 -1.488,1.1088 z"
           style="fill:#84ca66"
           id="path7650" />
        <path
           clip-path="url(#p71a13f2a9a)"
           d="m 230.208,120.1968 1.488,-1.1088 v -2.2176 l -1.488,-1.1088 -1.488,1.1088 v 2.2176 z"
           style="fill:#84ca66"
           id="path7652" />
        <path
           clip-path="url(#p71a13f2a9a)"
           d="m 215.328,117.9792 1.488,-1.1088 -1.488,-1.1088 -1.488,1.1088 z"
           style="fill:#84ca66"
           id="path7654" />
        <path
           clip-path="url(#p71a13f2a9a)"
           d="m 233.184,115.7616 1.488,-1.1088 1.488,-1.1088 1.488,-1.1088 v -2.2176 l 1.488,-1.1088 1.488,-1.1088 v -2.2176 l -1.488,-1.1088 -1.488,1.1088 -1.488,1.1088 -1.488,1.1088 v 2.2176 l -1.488,1.1088 -1.488,1.1088 v 2.2176 z"
           style="fill:#84ca66"
           id="path7656" />
        <path
           clip-path="url(#p71a13f2a9a)"
           d="m 218.304,113.544 1.488,-1.1088 -1.488,-1.1088 -1.488,1.1088 z"
           style="fill:#84ca66"
           id="path7658" />
        <path
           clip-path="url(#p71a13f2a9a)"
           d="m 212.352,106.8912 1.488,-1.1088 -1.488,-1.1088 -1.488,1.1088 z"
           style="fill:#84ca66"
           id="path7660" />
        <path
           clip-path="url(#p71a13f2a9a)"
           d="m 224.256,106.8912 1.488,-1.1088 -1.488,-1.1088 -1.488,1.1088 z"
           style="fill:#84ca66"
           id="path7662" />
        <path
           clip-path="url(#p71a13f2a9a)"
           d="m 242.112,104.6736 1.488,-1.1088 v -2.2176 l -1.488,-1.1088 -1.488,1.1088 v 2.2176 z"
           style="fill:#84ca66"
           id="path7664" />
        <path
           clip-path="url(#p71a13f2a9a)"
           d="m 227.232,102.456 1.488,-1.1088 -1.488,-1.1088 -1.488,1.1088 z"
           style="fill:#84ca66"
           id="path7666" />
        <path
           clip-path="url(#p71a13f2a9a)"
           d="m 215.328,100.2384 1.488,-1.1088 -1.488,-1.1088 -1.488,1.1088 z"
           style="fill:#84ca66"
           id="path7668" />
        <path
           clip-path="url(#p71a13f2a9a)"
           d="m 221.28,100.2384 1.488,-1.1088 -1.488,-1.1088 -1.488,1.1088 z"
           style="fill:#84ca66"
           id="path7670" />
        <path
           clip-path="url(#p71a13f2a9a)"
           d="m 245.088,100.2384 1.488,-1.1088 1.488,-1.1088 1.488,-1.1088 v -2.2176 -2.2176 l -1.488,-1.1088 -1.488,1.1088 v 2.2176 l -1.488,1.1088 -1.488,1.1088 v 2.2176 z"
           style="fill:#84ca66"
           id="path7672" />
        <path
           clip-path="url(#p71a13f2a9a)"
           d="m 230.208,98.0208 1.488,-1.1088 -1.488,-1.1088 -1.488,1.1088 z"
           style="fill:#84ca66"
           id="path7674" />
        <path
           clip-path="url(#p71a13f2a9a)"
           d="m 233.184,93.5856 1.488,-1.1088 -1.488,-1.1088 -1.488,1.1088 z"
           style="fill:#84ca66"
           id="path7676" />
        <path
           clip-path="url(#p71a13f2a9a)"
           d="m 236.16,91.368 1.488,-1.1088 -1.488,-1.1088 -1.488,1.1088 z"
           style="fill:#84ca66"
           id="path7678" />
        <path
           clip-path="url(#p71a13f2a9a)"
           d="m 251.04,91.368 1.488,-1.1088 -1.488,-1.1088 -1.488,1.1088 z"
           style="fill:#84ca66"
           id="path7680" />
        <path
           clip-path="url(#p71a13f2a9a)"
           d="m 254.016,89.1504 1.488,-1.1088 V 85.824 l -1.488,-1.1088 -1.488,1.1088 v 2.2176 z"
           style="fill:#84ca66"
           id="path7682" />
        <path
           clip-path="url(#p71a13f2a9a)"
           d="m 227.232,86.9328 1.488,-1.1088 -1.488,-1.1088 -1.488,1.1088 z"
           style="fill:#84ca66"
           id="path7684" />
        <path
           clip-path="url(#p71a13f2a9a)"
           d="m 239.136,86.9328 1.488,-1.1088 -1.488,-1.1088 -1.488,1.1088 z"
           style="fill:#84ca66"
           id="path7686" />
        <path
           clip-path="url(#p71a13f2a9a)"
           d="m 233.184,84.7152 1.488,-1.1088 -1.488,-1.1088 -1.488,1.1088 z"
           style="fill:#84ca66"
           id="path7688" />
        <path
           clip-path="url(#p71a13f2a9a)"
           d="m 256.992,84.7152 1.488,-1.1088 v -2.2176 l -1.488,-1.1088 -1.488,1.1088 v 2.2176 z"
           style="fill:#84ca66"
           id="path7690" />
        <path
           clip-path="url(#p71a13f2a9a)"
           d="m 242.112,82.4976 1.488,-1.1088 -1.488,-1.1088 -1.488,1.1088 z"
           style="fill:#84ca66"
           id="path7692" />
        <path
           clip-path="url(#p71a13f2a9a)"
           d="m 236.16,80.28 1.488,-1.1088 -1.488,-1.1088 -1.488,1.1088 z"
           style="fill:#84ca66"
           id="path7694" />
        <path
           clip-path="url(#p71a13f2a9a)"
           d="m 259.968,80.28 1.488,-1.1088 1.488,-1.1088 1.488,-1.1088 V 74.736 l 1.488,-1.1088 1.488,-1.1088 v -2.2176 l -1.488,-1.1088 -1.488,1.1088 -1.488,1.1088 -1.488,1.1088 v 2.2176 l -1.488,1.1088 -1.488,1.1088 v 2.2176 z"
           style="fill:#84ca66"
           id="path7696" />
        <path
           clip-path="url(#p71a13f2a9a)"
           d="m 248.064,75.8448 1.488,-1.1088 v -2.2176 l -1.488,-1.1088 -1.488,1.1088 v 2.2176 z"
           style="fill:#84ca66"
           id="path7698" />
        <path
           clip-path="url(#p71a13f2a9a)"
           d="m 251.04,71.4096 1.488,-1.1088 -1.488,-1.1088 -1.488,1.1088 z"
           style="fill:#84ca66"
           id="path7700" />
        <path
           clip-path="url(#p71a13f2a9a)"
           d="m 268.896,69.192 1.488,-1.1088 v -2.2176 l -1.488,-1.1088 -1.488,1.1088 v 2.2176 z"
           style="fill:#84ca66"
           id="path7702" />
        <path
           clip-path="url(#p71a13f2a9a)"
           d="m 242.112,66.9744 1.488,-1.1088 -1.488,-1.1088 -1.488,1.1088 z"
           style="fill:#84ca66"
           id="path7704" />
        <path
           clip-path="url(#p71a13f2a9a)"
           d="m 254.016,66.9744 1.488,-1.1088 -1.488,-1.1088 -1.488,1.1088 z"
           style="fill:#84ca66"
           id="path7706" />
        <path
           clip-path="url(#p71a13f2a9a)"
           d="m 271.872,64.7568 1.488,-1.1088 v -2.2176 l -1.488,-1.1088 -1.488,1.1088 v 2.2176 z"
           style="fill:#84ca66"
           id="path7708" />
        <path
           clip-path="url(#p71a13f2a9a)"
           d="m 256.992,62.5392 1.488,-1.1088 -1.488,-1.1088 -1.488,1.1088 z"
           style="fill:#84ca66"
           id="path7710" />
        <path
           clip-path="url(#p71a13f2a9a)"
           d="m 251.04,60.3216 1.488,-1.1088 -1.488,-1.1088 -1.488,1.1088 z"
           style="fill:#84ca66"
           id="path7712" />
        <path
           clip-path="url(#p71a13f2a9a)"
           d="m 274.848,60.3216 1.488,-1.1088 1.488,-1.1088 1.488,-1.1088 V 54.7776 52.56 l -1.488,-1.1088 -1.488,1.1088 v 2.2176 l -1.488,1.1088 -1.488,1.1088 v 2.2176 z"
           style="fill:#84ca66"
           id="path7714" />
        <path
           clip-path="url(#p71a13f2a9a)"
           d="m 262.944,55.8864 1.488,-1.1088 -1.488,-1.1088 -1.488,1.1088 z"
           style="fill:#84ca66"
           id="path7716" />
        <path
           clip-path="url(#p71a13f2a9a)"
           d="m 265.92,51.4512 1.488,-1.1088 -1.488,-1.1088 -1.488,1.1088 z"
           style="fill:#84ca66"
           id="path7718" />
        <path
           clip-path="url(#p71a13f2a9a)"
           d="m 280.8,51.4512 1.488,-1.1088 -1.488,-1.1088 -1.488,1.1088 z"
           style="fill:#84ca66"
           id="path7720" />
        <path
           clip-path="url(#p71a13f2a9a)"
           d="m 283.776,49.2336 1.488,-1.1088 v -2.2176 l -1.488,-1.1088 -1.488,1.1088 v 2.2176 z"
           style="fill:#84ca66"
           id="path7722" />
        <path
           clip-path="url(#p71a13f2a9a)"
           d="m 256.992,47.016 1.488,-1.1088 -1.488,-1.1088 -1.488,1.1088 z"
           style="fill:#84ca66"
           id="path7724" />
        <path
           clip-path="url(#p71a13f2a9a)"
           d="m 268.896,47.016 1.488,-1.1088 -1.488,-1.1088 -1.488,1.1088 z"
           style="fill:#84ca66"
           id="path7726" />
        <path
           clip-path="url(#p71a13f2a9a)"
           d="m 286.752,44.7984 1.488,-1.1088 V 41.472 h -1.488 -1.488 v 2.2176 z"
           style="fill:#84ca66"
           id="path7728" />
        <path
           clip-path="url(#p71a13f2a9a)"
           d="m 271.872,42.5808 1.488,-1.1088 h -1.488 -1.488 z"
           style="fill:#84ca66"
           id="path7730" />
      </g>
      <g
         id="PathCollection_3">
        <defs
           id="defs7734">
          <path
             d="m -3,3 6,-6 m -6,0 6,6"
             id="m11161d5be4"
             style="stroke:#1f77b4;stroke-width:1.5" />
        </defs>
        <g
           clip-path="url(#p71a13f2a9a)"
           id="g7738">
          <use
             style="fill:#1f77b4;stroke:#1f77b4;stroke-width:1.5"
             x="236.16"
             xlink:href="#m11161d5be4"
             y="241.056"
             id="use7736"
             width="100%"
             height="100%" />
        </g>
      </g>
      <g
         id="patch_3">
        <path
           clip-path="url(#p71a13f2a9a)"
           d="m 146.88,265.4496 h 148.8 V 196.704 h -148.8 z"
           style="fill:none;stroke:#000000;stroke-width:1.5;stroke-linejoin:miter"
           id="path7741" />
      </g>
      <g
         id="matplotlib.axis_1">
        <g
           id="xtick_1">
          <g
             id="line2d_1">
            <defs
               id="defs7745">
              <path
                 d="M 0,0 V 3.5"
                 id="m42e2496b9d"
                 style="stroke:#000000;stroke-width:0.8" />
            </defs>
            <g
               id="g7749">
              <use
                 style="stroke:#000000;stroke-width:0.8"
                 x="57.599998"
                 xlink:href="#m42e2496b9d"
                 y="307.58401"
                 id="use7747"
                 width="100%"
                 height="100%" />
            </g>
          </g>
          <g
             id="text_1">
            <!-- 0 -->
            <defs
               id="defs7753">
              <path
                 d="m 31.78125,66.40625 q -7.609375,0 -11.453125,-7.5 Q 16.5,51.421875 16.5,36.375 q 0,-14.984375 3.828125,-22.484375 3.84375,-7.5 11.453125,-7.5 7.671875,0 11.5,7.5 3.84375,7.5 3.84375,22.484375 0,15.046875 -3.84375,22.53125 -3.828125,7.5 -11.5,7.5 z m 0,7.8125 q 12.265625,0 18.734375,-9.703125 6.46875,-9.6875 6.46875,-28.140625 0,-18.40625 -6.46875,-28.109375 -6.46875,-9.6875 -18.734375,-9.6875 -12.25,0 -18.71875,9.6875 Q 6.59375,17.96875 6.59375,36.375 q 0,18.453125 6.46875,28.140625 6.46875,9.703125 18.71875,9.703125 z"
                 id="DejaVuSans-48" />
            </defs>
            <g
               transform="matrix(0.1,0,0,-0.1,54.41875,322.18244)"
               id="g7757">
              <use
                 xlink:href="#DejaVuSans-48"
                 id="use7755"
                 x="0"
                 y="0"
                 width="100%"
                 height="100%" />
            </g>
          </g>
        </g>
        <g
           id="xtick_2">
          <g
             id="line2d_2">
            <g
               id="g7763">
              <use
                 style="stroke:#000000;stroke-width:0.8"
                 x="117.12"
                 xlink:href="#m42e2496b9d"
                 y="307.58401"
                 id="use7761"
                 width="100%"
                 height="100%" />
            </g>
          </g>
          <g
             id="text_2">
            <!-- 2 -->
            <defs
               id="defs7767">
              <path
                 d="M 19.1875,8.296875 H 53.609375 V 0 H 7.328125 v 8.296875 q 5.609375,5.8125 15.296875,15.59375 9.703125,9.796875 12.1875,12.640625 4.734375,5.3125 6.609375,9 1.890625,3.6875 1.890625,7.25 0,5.8125 -4.078125,9.46875 -4.078125,3.671875 -10.625,3.671875 -4.640625,0 -9.796875,-1.609375 -5.140625,-1.609375 -11,-4.890625 v 9.96875 Q 13.765625,71.78125 18.9375,73 q 5.1875,1.21875 9.484375,1.21875 11.328125,0 18.0625,-5.671875 6.734375,-5.65625 6.734375,-15.125 0,-4.5 -1.6875,-8.53125 Q 49.859375,40.875 45.40625,35.40625 44.1875,33.984375 37.640625,27.21875 31.109375,20.453125 19.1875,8.296875 Z"
                 id="DejaVuSans-50" />
            </defs>
            <g
               transform="matrix(0.1,0,0,-0.1,113.93875,322.18244)"
               id="g7771">
              <use
                 xlink:href="#DejaVuSans-50"
                 id="use7769"
                 x="0"
                 y="0"
                 width="100%"
                 height="100%" />
            </g>
          </g>
        </g>
        <g
           id="xtick_3">
          <g
             id="line2d_3">
            <g
               id="g7777">
              <use
                 style="stroke:#000000;stroke-width:0.8"
                 x="176.64"
                 xlink:href="#m42e2496b9d"
                 y="307.58401"
                 id="use7775"
                 width="100%"
                 height="100%" />
            </g>
          </g>
          <g
             id="text_3">
            <!-- 4 -->
            <defs
               id="defs7781">
              <path
                 d="M 37.796875,64.3125 12.890625,25.390625 h 24.90625 z m -2.59375,8.59375 h 12.40625 V 25.390625 h 10.40625 V 17.1875 H 47.609375 V 0 h -9.8125 V 17.1875 H 4.890625 v 9.515625 z"
                 id="DejaVuSans-52" />
            </defs>
            <g
               transform="matrix(0.1,0,0,-0.1,173.45875,322.18244)"
               id="g7785">
              <use
                 xlink:href="#DejaVuSans-52"
                 id="use7783"
                 x="0"
                 y="0"
                 width="100%"
                 height="100%" />
            </g>
          </g>
        </g>
        <g
           id="xtick_4">
          <g
             id="line2d_4">
            <g
               id="g7791">
              <use
                 style="stroke:#000000;stroke-width:0.8"
                 x="236.16"
                 xlink:href="#m42e2496b9d"
                 y="307.58401"
                 id="use7789"
                 width="100%"
                 height="100%" />
            </g>
          </g>
          <g
             id="text_4">
            <!-- 6 -->
            <defs
               id="defs7795">
              <path
                 d="m 33.015625,40.375 q -6.640625,0 -10.53125,-4.546875 -3.875,-4.53125 -3.875,-12.4375 0,-7.859375 3.875,-12.4375 3.890625,-4.5625 10.53125,-4.5625 6.640625,0 10.515625,4.5625 3.875,4.578125 3.875,12.4375 0,7.90625 -3.875,12.4375 Q 39.65625,40.375 33.015625,40.375 Z M 52.59375,71.296875 V 62.3125 q -3.71875,1.75 -7.5,2.671875 -3.78125,0.9375 -7.5,0.9375 -9.765625,0 -14.921875,-6.59375 -5.140625,-6.59375 -5.875,-19.921875 2.875,4.25 7.21875,6.515625 4.359375,2.265625 9.578125,2.265625 10.984375,0 17.359375,-6.671875 6.375,-6.65625 6.375,-18.125 0,-11.234375 -6.640625,-18.03125 -6.640625,-6.78125 -17.671875,-6.78125 -12.65625,0 -19.34375,9.6875 -6.6875,9.703125 -6.6875,28.109375 0,17.28125 8.203125,27.5625 8.203125,10.28125 22.015625,10.28125 3.71875,0 7.5,-0.734375 3.78125,-0.734375 7.890625,-2.1875 z"
                 id="DejaVuSans-54" />
            </defs>
            <g
               transform="matrix(0.1,0,0,-0.1,232.97875,322.18244)"
               id="g7799">
              <use
                 xlink:href="#DejaVuSans-54"
                 id="use7797"
                 x="0"
                 y="0"
                 width="100%"
                 height="100%" />
            </g>
          </g>
        </g>
        <g
           id="xtick_5">
          <g
             id="line2d_5">
            <g
               id="g7805">
              <use
                 style="stroke:#000000;stroke-width:0.8"
                 x="295.67999"
                 xlink:href="#m42e2496b9d"
                 y="307.58401"
                 id="use7803"
                 width="100%"
                 height="100%" />
            </g>
          </g>
          <g
             id="text_5">
            <!-- 8 -->
            <defs
               id="defs7809">
              <path
                 d="m 31.78125,34.625 q -7.03125,0 -11.0625,-3.765625 -4.015625,-3.765625 -4.015625,-10.34375 0,-6.59375 4.015625,-10.359375 4.03125,-3.765625 11.0625,-3.765625 7.03125,0 11.078125,3.78125 4.0625,3.796875 4.0625,10.34375 0,6.578125 -4.03125,10.34375 Q 38.875,34.625 31.78125,34.625 Z m -9.859375,4.1875 Q 15.578125,40.375 12.03125,44.71875 8.5,49.078125 8.5,55.328125 q 0,8.734375 6.21875,13.8125 6.234375,5.078125 17.0625,5.078125 10.890625,0 17.09375,-5.078125 6.203125,-5.078125 6.203125,-13.8125 0,-6.25 -3.546875,-10.609375 Q 48,40.375 41.703125,38.8125 q 7.125,-1.65625 11.09375,-6.5 3.984375,-4.828125 3.984375,-11.796875 0,-10.609375 -6.46875,-16.28125 -6.46875,-5.65625 -18.53125,-5.65625 -12.046875,0 -18.53125,5.65625 -6.46875,5.671875 -6.46875,16.28125 0,6.96875 4,11.796875 4.015625,4.84375 11.140625,6.5 z M 18.3125,54.390625 q 0,-5.65625 3.53125,-8.828125 3.546875,-3.171875 9.9375,-3.171875 6.359375,0 9.9375,3.171875 3.59375,3.171875 3.59375,8.828125 0,5.671875 -3.59375,8.84375 -3.578125,3.171875 -9.9375,3.171875 -6.390625,0 -9.9375,-3.171875 Q 18.3125,60.0625 18.3125,54.390625 Z"
                 id="DejaVuSans-56" />
            </defs>
            <g
               transform="matrix(0.1,0,0,-0.1,292.49875,322.18244)"
               id="g7813">
              <use
                 xlink:href="#DejaVuSans-56"
                 id="use7811"
                 x="0"
                 y="0"
                 width="100%"
                 height="100%" />
            </g>
          </g>
        </g>
        <g
           id="xtick_6">
          <g
             id="line2d_6">
            <g
               id="g7819">
              <use
                 style="stroke:#000000;stroke-width:0.8"
                 x="355.20001"
                 xlink:href="#m42e2496b9d"
                 y="307.58401"
                 id="use7817"
                 width="100%"
                 height="100%" />
            </g>
          </g>
          <g
             id="text_6">
            <!-- 10 -->
            <defs
               id="defs7823">
              <path
                 d="m 12.40625,8.296875 h 16.109375 v 55.625 L 10.984375,60.40625 v 8.984375 l 17.4375,3.515625 H 38.28125 V 8.296875 H 54.390625 V 0 H 12.40625 Z"
                 id="DejaVuSans-49" />
            </defs>
            <g
               transform="matrix(0.1,0,0,-0.1,348.8375,322.18244)"
               id="g7829">
              <use
                 xlink:href="#DejaVuSans-49"
                 id="use7825"
                 x="0"
                 y="0"
                 width="100%"
                 height="100%" />
              <use
                 x="63.623047"
                 xlink:href="#DejaVuSans-48"
                 id="use7827"
                 y="0"
                 width="100%"
                 height="100%" />
            </g>
          </g>
        </g>
        <g
           id="xtick_7">
          <g
             id="line2d_7">
            <g
               id="g7835">
              <use
                 style="stroke:#000000;stroke-width:0.8"
                 x="414.72"
                 xlink:href="#m42e2496b9d"
                 y="307.58401"
                 id="use7833"
                 width="100%"
                 height="100%" />
            </g>
          </g>
          <g
             id="text_7">
            <!-- 12 -->
            <g
               transform="matrix(0.1,0,0,-0.1,408.3575,322.18244)"
               id="g7842">
              <use
                 xlink:href="#DejaVuSans-49"
                 id="use7838"
                 x="0"
                 y="0"
                 width="100%"
                 height="100%" />
              <use
                 x="63.623047"
                 xlink:href="#DejaVuSans-50"
                 id="use7840"
                 y="0"
                 width="100%"
                 height="100%" />
            </g>
          </g>
        </g>
        <g
           id="text_8">
          <!-- k [N/m] -->
          <defs
             id="defs7853">
            <path
               d="m 9.078125,75.984375 h 9.03125 v -44.875 l 26.8125,23.578125 h 11.46875 l -29,-25.578125 L 57.625,0 H 45.90625 L 18.109375,26.703125 V 0 h -9.03125 z"
               id="DejaVuSans-107" />
            <path
               id="DejaVuSans-32"
               d="" />
            <path
               d="M 8.59375,75.984375 H 29.296875 V 69 H 17.578125 V -6.203125 h 11.71875 V -13.1875 H 8.59375 Z"
               id="DejaVuSans-91" />
            <path
               d="M 9.8125,72.90625 H 23.09375 L 55.421875,11.921875 V 72.90625 h 9.5625 V 0 h -13.28125 l -32.3125,60.984375 V 0 H 9.8125 Z"
               id="DejaVuSans-78" />
            <path
               d="M 25.390625,72.90625 H 33.6875 L 8.296875,-9.28125 H 0 Z"
               id="DejaVuSans-47" />
            <path
               d="M 52,44.1875 Q 55.375,50.25 60.0625,53.125 64.75,56 71.09375,56 q 8.546875,0 13.1875,-5.984375 4.640625,-5.96875 4.640625,-17 V 0 h -9.03125 v 32.71875 q 0,7.859375 -2.796875,11.65625 -2.78125,3.8125 -8.484375,3.8125 -6.984375,0 -11.046875,-4.640625 -4.046875,-4.625 -4.046875,-12.640625 V 0 h -9.03125 v 32.71875 q 0,7.90625 -2.78125,11.6875 -2.78125,3.78125 -8.59375,3.78125 -6.890625,0 -10.953125,-4.65625 -4.046875,-4.65625 -4.046875,-12.625 V 0 h -9.03125 v 54.6875 h 9.03125 v -8.5 q 3.078125,5.03125 7.375,7.421875 Q 29.78125,56 35.6875,56 41.65625,56 45.828125,52.96875 50,49.953125 52,44.1875 Z"
               id="DejaVuSans-109" />
            <path
               d="M 30.421875,75.984375 V -13.1875 H 9.71875 v 6.984375 H 21.390625 V 69 H 9.71875 v 6.984375 z"
               id="DejaVuSans-93" />
          </defs>
          <g
             transform="matrix(0.1,0,0,-0.1,217.47875,335.86056)"
             id="g7869">
            <use
               xlink:href="#DejaVuSans-107"
               id="use7855"
               x="0"
               y="0"
               width="100%"
               height="100%" />
            <use
               x="57.910156"
               xlink:href="#DejaVuSans-32"
               id="use7857"
               y="0"
               width="100%"
               height="100%" />
            <use
               x="89.697266"
               xlink:href="#DejaVuSans-91"
               id="use7859"
               y="0"
               width="100%"
               height="100%" />
            <use
               x="128.71094"
               xlink:href="#DejaVuSans-78"
               id="use7861"
               y="0"
               width="100%"
               height="100%" />
            <use
               x="203.51562"
               xlink:href="#DejaVuSans-47"
               id="use7863"
               y="0"
               width="100%"
               height="100%" />
            <use
               x="237.20703"
               xlink:href="#DejaVuSans-109"
               id="use7865"
               y="0"
               width="100%"
               height="100%" />
            <use
               x="334.61914"
               xlink:href="#DejaVuSans-93"
               id="use7867"
               y="0"
               width="100%"
               height="100%" />
          </g>
        </g>
      </g>
      <g
         id="matplotlib.axis_2">
        <g
           id="ytick_1">
          <g
             id="line2d_8">
            <defs
               id="defs7874">
              <path
                 d="M 0,0 H -3.5"
                 id="m6eeb651b55"
                 style="stroke:#000000;stroke-width:0.8" />
            </defs>
            <g
               id="g7878">
              <use
                 style="stroke:#000000;stroke-width:0.8"
                 x="57.599998"
                 xlink:href="#m6eeb651b55"
                 y="307.58401"
                 id="use7876"
                 width="100%"
                 height="100%" />
            </g>
          </g>
          <g
             id="text_9">
            <!-- 0 -->
            <g
               transform="matrix(0.1,0,0,-0.1,44.2375,311.38322)"
               id="g7883">
              <use
                 xlink:href="#DejaVuSans-48"
                 id="use7881"
                 x="0"
                 y="0"
                 width="100%"
                 height="100%" />
            </g>
          </g>
        </g>
        <g
           id="ytick_2">
          <g
             id="line2d_9">
            <g
               id="g7889">
              <use
                 style="stroke:#000000;stroke-width:0.8"
                 x="57.599998"
                 xlink:href="#m6eeb651b55"
                 y="263.23199"
                 id="use7887"
                 width="100%"
                 height="100%" />
            </g>
          </g>
          <g
             id="text_10">
            <!-- 2 -->
            <g
               transform="matrix(0.1,0,0,-0.1,44.2375,267.03122)"
               id="g7894">
              <use
                 xlink:href="#DejaVuSans-50"
                 id="use7892"
                 x="0"
                 y="0"
                 width="100%"
                 height="100%" />
            </g>
          </g>
        </g>
        <g
           id="ytick_3">
          <g
             id="line2d_10">
            <g
               id="g7900">
              <use
                 style="stroke:#000000;stroke-width:0.8"
                 x="57.599998"
                 xlink:href="#m6eeb651b55"
                 y="218.88"
                 id="use7898"
                 width="100%"
                 height="100%" />
            </g>
          </g>
          <g
             id="text_11">
            <!-- 4 -->
            <g
               transform="matrix(0.1,0,0,-0.1,44.2375,222.67922)"
               id="g7905">
              <use
                 xlink:href="#DejaVuSans-52"
                 id="use7903"
                 x="0"
                 y="0"
                 width="100%"
                 height="100%" />
            </g>
          </g>
        </g>
        <g
           id="ytick_4">
          <g
             id="line2d_11">
            <g
               id="g7911">
              <use
                 style="stroke:#000000;stroke-width:0.8"
                 x="57.599998"
                 xlink:href="#m6eeb651b55"
                 y="174.528"
                 id="use7909"
                 width="100%"
                 height="100%" />
            </g>
          </g>
          <g
             id="text_12">
            <!-- 6 -->
            <g
               transform="matrix(0.1,0,0,-0.1,44.2375,178.32722)"
               id="g7916">
              <use
                 xlink:href="#DejaVuSans-54"
                 id="use7914"
                 x="0"
                 y="0"
                 width="100%"
                 height="100%" />
            </g>
          </g>
        </g>
        <g
           id="ytick_5">
          <g
             id="line2d_12">
            <g
               id="g7922">
              <use
                 style="stroke:#000000;stroke-width:0.8"
                 x="57.599998"
                 xlink:href="#m6eeb651b55"
                 y="130.17599"
                 id="use7920"
                 width="100%"
                 height="100%" />
            </g>
          </g>
          <g
             id="text_13">
            <!-- 8 -->
            <g
               transform="matrix(0.1,0,0,-0.1,44.2375,133.97522)"
               id="g7927">
              <use
                 xlink:href="#DejaVuSans-56"
                 id="use7925"
                 x="0"
                 y="0"
                 width="100%"
                 height="100%" />
            </g>
          </g>
        </g>
        <g
           id="ytick_6">
          <g
             id="line2d_13">
            <g
               id="g7933">
              <use
                 style="stroke:#000000;stroke-width:0.8"
                 x="57.599998"
                 xlink:href="#m6eeb651b55"
                 y="85.823997"
                 id="use7931"
                 width="100%"
                 height="100%" />
            </g>
          </g>
          <g
             id="text_14">
            <!-- 10 -->
            <g
               transform="matrix(0.1,0,0,-0.1,37.875,89.623219)"
               id="g7940">
              <use
                 xlink:href="#DejaVuSans-49"
                 id="use7936"
                 x="0"
                 y="0"
                 width="100%"
                 height="100%" />
              <use
                 x="63.623047"
                 xlink:href="#DejaVuSans-48"
                 id="use7938"
                 y="0"
                 width="100%"
                 height="100%" />
            </g>
          </g>
        </g>
        <g
           id="ytick_7">
          <g
             id="line2d_14">
            <g
               id="g7946">
              <use
                 style="stroke:#000000;stroke-width:0.8"
                 x="57.599998"
                 xlink:href="#m6eeb651b55"
                 y="41.472"
                 id="use7944"
                 width="100%"
                 height="100%" />
            </g>
          </g>
          <g
             id="text_15">
            <!-- 12 -->
            <g
               transform="matrix(0.1,0,0,-0.1,37.875,45.271219)"
               id="g7953">
              <use
                 xlink:href="#DejaVuSans-49"
                 id="use7949"
                 x="0"
                 y="0"
                 width="100%"
                 height="100%" />
              <use
                 x="63.623047"
                 xlink:href="#DejaVuSans-50"
                 id="use7951"
                 y="0"
                 width="100%"
                 height="100%" />
            </g>
          </g>
        </g>
        <g
           id="text_16">
          <!-- m [kg] -->
          <defs
             id="defs7958">
            <path
               d="m 45.40625,27.984375 q 0,9.765625 -4.03125,15.125 -4.015625,5.375 -11.296875,5.375 -7.21875,0 -11.25,-5.375 -4.03125,-5.359375 -4.03125,-15.125 0,-9.71875 4.03125,-15.09375 4.03125,-5.375 11.25,-5.375 7.28125,0 11.296875,5.375 4.03125,5.375 4.03125,15.09375 z M 54.390625,6.78125 q 0,-13.953125 -6.203125,-20.765625 -6.1875,-6.8125 -18.984375,-6.8125 -4.734375,0 -8.9375,0.703125 -4.203125,0.703125 -8.15625,2.171875 V -9.1875 q 3.953125,-2.140625 7.8125,-3.15625 3.859375,-1.03125 7.859375,-1.03125 8.84375,0 13.234375,4.609375 4.390625,4.609375 4.390625,13.9375 V 9.625 Q 42.625,4.78125 38.28125,2.390625 33.9375,0 27.875,0 17.828125,0 11.671875,7.65625 q -6.15625,7.671875 -6.15625,20.328125 0,12.6875 6.15625,20.34375 Q 17.828125,56 27.875,56 q 6.0625,0 10.40625,-2.390625 4.34375,-2.390625 7.125,-7.21875 V 54.6875 h 8.984375 z"
               id="DejaVuSans-103" />
          </defs>
          <g
             transform="matrix(0,-0.1,-0.1,0,31.795312,190.95847)"
             id="g7972">
            <use
               xlink:href="#DejaVuSans-109"
               id="use7960"
               x="0"
               y="0"
               width="100%"
               height="100%" />
            <use
               x="97.412109"
               xlink:href="#DejaVuSans-32"
               id="use7962"
               y="0"
               width="100%"
               height="100%" />
            <use
               x="129.19922"
               xlink:href="#DejaVuSans-91"
               id="use7964"
               y="0"
               width="100%"
               height="100%" />
            <use
               x="168.21289"
               xlink:href="#DejaVuSans-107"
               id="use7966"
               y="0"
               width="100%"
               height="100%" />
            <use
               x="226.12305"
               xlink:href="#DejaVuSans-103"
               id="use7968"
               y="0"
               width="100%"
               height="100%" />
            <use
               x="289.59961"
               xlink:href="#DejaVuSans-93"
               id="use7970"
               y="0"
               width="100%"
               height="100%" />
          </g>
        </g>
      </g>
      <g
         id="patch_4">
        <path
           d="M 57.6,307.584 V 41.472"
           style="fill:none;stroke:#000000;stroke-width:0.8;stroke-linecap:square;stroke-linejoin:miter"
           id="path7976" />
      </g>
      <g
         id="patch_5">
        <path
           d="M 414.72,307.584 V 41.472"
           style="fill:none;stroke:#000000;stroke-width:0.8;stroke-linecap:square;stroke-linejoin:miter"
           id="path7979" />
      </g>
      <g
         id="patch_6">
        <path
           d="M 57.6,307.584 H 414.72"
           style="fill:none;stroke:#000000;stroke-width:0.8;stroke-linecap:square;stroke-linejoin:miter"
           id="path7982" />
      </g>
      <g
         id="patch_7">
        <path
           d="M 57.6,41.472 H 414.72"
           style="fill:none;stroke:#000000;stroke-width:0.8;stroke-linecap:square;stroke-linejoin:miter"
           id="path7985" />
      </g>
      <g
         id="legend_1">
        <g
           id="patch_8">
          <path
             d="M 292.53719,302.584 H 407.72 q 2,0 2,-2 v -13.67813 q 0,-2 -2,-2 H 292.53719 q -2,0 -2,2 V 300.584 q 0,2 2,2 z"
             style="opacity:0.8;fill:#ffffff;stroke:#cccccc;stroke-linejoin:miter"
             id="path7988" />
        </g>
        <g
           id="PathCollection_4">
          <g
             id="g7993">
            <use
               style="fill:#1f77b4;stroke:#1f77b4;stroke-width:1.5"
               x="304.5372"
               xlink:href="#m11161d5be4"
               y="293.8793"
               id="use7991"
               width="100%"
               height="100%" />
          </g>
        </g>
        <g
           id="text_17">
          <!-- Real parameters -->
          <defs
             id="defs8004">
            <path
               d="m 44.390625,34.1875 q 3.171875,-1.078125 6.171875,-4.59375 3,-3.515625 6.03125,-9.671875 L 66.609375,0 H 56 l -9.3125,18.703125 q -3.625,7.328125 -7.015625,9.71875 -3.390625,2.390625 -9.25,2.390625 h -10.75 V 0 H 9.8125 v 72.90625 h 22.265625 q 12.5,0 18.65625,-5.234375 6.15625,-5.21875 6.15625,-15.765625 0,-6.890625 -3.203125,-11.4375 -3.203125,-4.53125 -9.296875,-6.28125 z m -24.71875,30.609375 v -25.875 h 12.40625 q 7.125,0 10.765625,3.296875 3.640625,3.296875 3.640625,9.6875 0,6.390625 -3.640625,9.640625 -3.640625,3.25 -10.765625,3.25 z"
               id="DejaVuSans-82" />
            <path
               d="m 56.203125,29.59375 v -4.390625 h -41.3125 q 0.59375,-9.28125 5.59375,-14.140625 5,-4.859375 13.9375,-4.859375 5.171875,0 10.03125,1.265625 4.859375,1.265625 9.65625,3.8125 v -8.5 q -4.84375,-2.046875 -9.921875,-3.125 -5.078125,-1.078125 -10.296875,-1.078125 -13.09375,0 -20.734375,7.609375 -7.640625,7.625 -7.640625,20.625 0,13.421875 7.25,21.296875 Q 20.015625,56 32.328125,56 q 11.03125,0 17.453125,-7.109375 6.421875,-7.09375 6.421875,-19.296875 z m -8.984375,2.640625 q -0.09375,7.359375 -4.125,11.75 -4.03125,4.40625 -10.671875,4.40625 -7.515625,0 -12.03125,-4.25 -4.515625,-4.25 -5.203125,-11.96875 z"
               id="DejaVuSans-101" />
            <path
               d="m 34.28125,27.484375 q -10.890625,0 -15.09375,-2.484375 -4.203125,-2.484375 -4.203125,-8.5 0,-4.78125 3.15625,-7.59375 3.15625,-2.796875 8.5625,-2.796875 7.484375,0 12,5.296875 4.515625,5.296875 4.515625,14.078125 v 2 z m 17.921875,3.71875 V 0 H 43.21875 v 8.296875 q -3.078125,-4.96875 -7.671875,-7.34375 -4.59375,-2.375 -11.234375,-2.375 -8.390625,0 -13.359375,4.71875 Q 6,8.015625 6,15.921875 q 0,9.21875 6.171875,13.90625 6.1875,4.6875 18.4375,4.6875 H 43.21875 v 0.890625 q 0,6.203125 -4.078125,9.59375 -4.078125,3.390625 -11.453125,3.390625 -4.6875,0 -9.140625,-1.125 -4.4375,-1.125 -8.53125,-3.375 v 8.3125 q 4.921875,1.90625 9.5625,2.84375 Q 24.21875,56 28.609375,56 q 11.875,0 17.734375,-6.15625 5.859375,-6.140625 5.859375,-18.640625 z"
               id="DejaVuSans-97" />
            <path
               d="M 9.421875,75.984375 H 18.40625 V 0 H 9.421875 Z"
               id="DejaVuSans-108" />
            <path
               d="m 18.109375,8.203125 v -29 H 9.078125 V 54.6875 h 9.03125 v -8.296875 q 2.84375,4.875 7.15625,7.234375 Q 29.59375,56 35.59375,56 q 9.96875,0 16.1875,-7.90625 6.234375,-7.90625 6.234375,-20.796875 0,-12.890625 -6.234375,-20.8125 -6.21875,-7.90625 -16.1875,-7.90625 -6,0 -10.328125,2.375 -4.3125,2.375 -7.15625,7.25 z M 48.6875,27.296875 q 0,9.90625 -4.078125,15.546875 -4.078125,5.640625 -11.203125,5.640625 -7.140625,0 -11.21875,-5.640625 -4.078125,-5.640625 -4.078125,-15.546875 0,-9.90625 4.078125,-15.546875 4.078125,-5.640625 11.21875,-5.640625 7.125,0 11.203125,5.640625 4.078125,5.640625 4.078125,15.546875 z"
               id="DejaVuSans-112" />
            <path
               d="m 41.109375,46.296875 q -1.515625,0.875 -3.296875,1.28125 Q 36.03125,48 33.890625,48 26.265625,48 22.1875,43.046875 18.109375,38.09375 18.109375,28.8125 V 0 h -9.03125 v 54.6875 h 9.03125 v -8.5 q 2.84375,4.984375 7.375,7.390625 Q 30.03125,56 36.53125,56 q 0.921875,0 2.046875,-0.125 1.125,-0.109375 2.484375,-0.359375 z"
               id="DejaVuSans-114" />
            <path
               d="M 18.3125,70.21875 V 54.6875 h 18.5 v -6.984375 h -18.5 v -29.6875 q 0,-6.6875 1.828125,-8.59375 1.828125,-1.90625 7.453125,-1.90625 H 36.8125 V 0 H 27.59375 Q 17.1875,0 13.234375,3.875 9.28125,7.765625 9.28125,18.015625 v 29.6875 H 2.6875 V 54.6875 h 6.59375 v 15.53125 z"
               id="DejaVuSans-116" />
            <path
               d="m 44.28125,53.078125 v -8.5 Q 40.484375,46.53125 36.375,47.5 q -4.09375,0.984375 -8.5,0.984375 -6.6875,0 -10.03125,-2.046875 Q 14.5,44.390625 14.5,40.28125 q 0,-3.125 2.390625,-4.90625 2.390625,-1.78125 9.625,-3.390625 l 3.078125,-0.6875 Q 39.15625,29.25 43.1875,25.515625 47.21875,21.78125 47.21875,15.09375 q 0,-7.625 -6.03125,-12.078125 -6.03125,-4.4375 -16.578125,-4.4375 -4.390625,0 -9.15625,0.859375 Q 10.6875,0.296875 5.421875,2 v 9.28125 q 4.984375,-2.59375 9.8125,-3.890625 4.828125,-1.28125 9.578125,-1.28125 6.34375,0 9.75,2.171875 3.421875,2.171875 3.421875,6.125 0,3.65625 -2.46875,5.609375 -2.453125,1.953125 -10.8125,3.765625 l -3.125,0.734375 q -8.34375,1.75 -12.0625,5.390625 -3.703125,3.640625 -3.703125,9.984375 0,7.71875 5.46875,11.90625 Q 16.75,56 26.8125,56 q 4.96875,0 9.359375,-0.734375 4.40625,-0.71875 8.109375,-2.1875 z"
               id="DejaVuSans-115" />
          </defs>
          <g
             transform="matrix(0.1,0,0,-0.1,322.53719,296.50431)"
             id="g8036">
            <use
               xlink:href="#DejaVuSans-82"
               id="use8006"
               x="0"
               y="0"
               width="100%"
               height="100%" />
            <use
               x="69.419922"
               xlink:href="#DejaVuSans-101"
               id="use8008"
               y="0"
               width="100%"
               height="100%" />
            <use
               x="130.94336"
               xlink:href="#DejaVuSans-97"
               id="use8010"
               y="0"
               width="100%"
               height="100%" />
            <use
               x="192.22266"
               xlink:href="#DejaVuSans-108"
               id="use8012"
               y="0"
               width="100%"
               height="100%" />
            <use
               x="220.00586"
               xlink:href="#DejaVuSans-32"
               id="use8014"
               y="0"
               width="100%"
               height="100%" />
            <use
               x="251.79297"
               xlink:href="#DejaVuSans-112"
               id="use8016"
               y="0"
               width="100%"
               height="100%" />
            <use
               x="315.26953"
               xlink:href="#DejaVuSans-97"
               id="use8018"
               y="0"
               width="100%"
               height="100%" />
            <use
               x="376.54883"
               xlink:href="#DejaVuSans-114"
               id="use8020"
               y="0"
               width="100%"
               height="100%" />
            <use
               x="417.66211"
               xlink:href="#DejaVuSans-97"
               id="use8022"
               y="0"
               width="100%"
               height="100%" />
            <use
               x="478.94141"
               xlink:href="#DejaVuSans-109"
               id="use8024"
               y="0"
               width="100%"
               height="100%" />
            <use
               x="576.35352"
               xlink:href="#DejaVuSans-101"
               id="use8026"
               y="0"
               width="100%"
               height="100%" />
            <use
               x="637.87695"
               xlink:href="#DejaVuSans-116"
               id="use8028"
               y="0"
               width="100%"
               height="100%" />
            <use
               x="677.08594"
               xlink:href="#DejaVuSans-101"
               id="use8030"
               y="0"
               width="100%"
               height="100%" />
            <use
               x="738.60938"
               xlink:href="#DejaVuSans-114"
               id="use8032"
               y="0"
               width="100%"
               height="100%" />
            <use
               x="779.72266"
               xlink:href="#DejaVuSans-115"
               id="use8034"
               y="0"
               width="100%"
               height="100%" />
          </g>
        </g>
      </g>
    </g>
  </g>
  <defs
     id="defs8045">
    <clipPath
       id="p71a13f2a9a">
      <rect
         height="266.112"
         width="357.12"
         x="57.599998"
         y="41.472"
         id="rect8042" />
    </clipPath>
  </defs>
</svg>
