<?xml version="1.0" encoding="UTF-8" standalone="no"?>
<!-- Created with Inkscape (http://www.inkscape.org/) -->

<svg
   xmlns:dc="http://purl.org/dc/elements/1.1/"
   xmlns:cc="http://creativecommons.org/ns#"
   xmlns:rdf="http://www.w3.org/1999/02/22-rdf-syntax-ns#"
   xmlns:svg="http://www.w3.org/2000/svg"
   xmlns="http://www.w3.org/2000/svg"
   xmlns:sodipodi="http://sodipodi.sourceforge.net/DTD/sodipodi-0.dtd"
   xmlns:inkscape="http://www.inkscape.org/namespaces/inkscape"
   version="1.1"
   id="svg29"
   xml:space="preserve"
   width="524.51239"
   height="412.22742"
   viewBox="0 0 524.51239 412.22742"
   sodipodi:docname="MVMO_conv.svg"
   inkscape:version="0.92.3 (2405546, 2018-03-11)"><metadata
     id="metadata35"><rdf:RDF><cc:Work
         rdf:about=""><dc:format>image/svg+xml</dc:format><dc:type
           rdf:resource="http://purl.org/dc/dcmitype/StillImage" /><dc:title></dc:title></cc:Work></rdf:RDF></metadata><defs
     id="defs33"><clipPath
       clipPathUnits="userSpaceOnUse"
       id="clipPath47"><path
         d="M 6,2 V 3450 H 4610 V 2 Z"
         id="path45"
         inkscape:connector-curvature="0" /></clipPath><clipPath
       clipPathUnits="userSpaceOnUse"
       id="clipPath215"><path
         d="m 582,382.199 h 3571 v 2661 H 582 Z"
         id="path213"
         inkscape:connector-curvature="0" /></clipPath><clipPath
       clipPathUnits="userSpaceOnUse"
       id="clipPath225"><path
         d="M 6,2 V 3450 H 4610 V 2 Z"
         id="path223"
         inkscape:connector-curvature="0" /></clipPath></defs><sodipodi:namedview
     pagecolor="#ffffff"
     bordercolor="#666666"
     borderopacity="1"
     objecttolerance="10"
     gridtolerance="10"
     guidetolerance="10"
     inkscape:pageopacity="0"
     inkscape:pageshadow="2"
     inkscape:window-width="1366"
     inkscape:window-height="713"
     id="namedview31"
     showgrid="false"
     fit-margin-top="0"
     fit-margin-left="0"
     fit-margin-right="0"
     fit-margin-bottom="0"
     inkscape:zoom="0.81778436"
     inkscape:cx="455.71635"
     inkscape:cy="223.0236"
     inkscape:window-x="0"
     inkscape:window-y="27"
     inkscape:window-maximized="1"
     inkscape:current-layer="g37" /><g
     id="g37"
     inkscape:groupmode="layer"
     inkscape:label="ink_ext_XXXXXX"
     transform="matrix(1.3333333,0,0,-1.3333333,-729.23184,491.39649)"><g
       id="g620"
       transform="translate(524.58818,49.524059)"><path
         d="M 58.2,38.216 H 415.32 V 304.328 H 58.2 Z"
         style="fill:#ffffff;fill-opacity:1;fill-rule:nonzero;stroke:none;stroke-width:0.1"
         id="path51"
         inkscape:connector-curvature="0" /><path
         d="m 74.4328,38.216 v -3.5"
         style="fill:#000000;fill-opacity:1;fill-rule:nonzero;stroke:none;stroke-width:0.1"
         id="path53"
         inkscape:connector-curvature="0" /><path
         d="m 74.4328,38.216 v -3.5"
         style="fill:none;stroke:#000000;stroke-width:0.80000001;stroke-linecap:butt;stroke-linejoin:round;stroke-miterlimit:10;stroke-dasharray:none;stroke-opacity:1"
         id="path55"
         inkscape:connector-curvature="0" /><text
         y="-23.622299"
         x="71.253098"
         id="text61"
         style="font-variant:normal;font-weight:normal;font-size:10px;font-family:Arial;-inkscape-font-specification:Arial;writing-mode:lr-tb;fill:#000000;fill-opacity:1;fill-rule:nonzero;stroke:none"
         transform="scale(1,-1)"><tspan
           id="tspan59"
           y="-23.622299"
           x="71.253098">0</tspan></text>
<path
         d="m 139.618,38.216 v -3.5"
         style="fill:#000000;fill-opacity:1;fill-rule:nonzero;stroke:none;stroke-width:0.1"
         id="path63"
         inkscape:connector-curvature="0" /><path
         d="m 139.618,38.216 v -3.5"
         style="fill:none;stroke:#000000;stroke-width:0.80000001;stroke-linecap:butt;stroke-linejoin:round;stroke-miterlimit:10;stroke-dasharray:none;stroke-opacity:1"
         id="path65"
         inkscape:connector-curvature="0" /><text
         y="-23.622299"
         x="126.899"
         id="text71"
         style="font-variant:normal;font-weight:normal;font-size:10px;font-family:Arial;-inkscape-font-specification:Arial;writing-mode:lr-tb;fill:#000000;fill-opacity:1;fill-rule:nonzero;stroke:none"
         transform="scale(1,-1)"><tspan
           id="tspan69"
           sodipodi:role="line"
           y="-23.622299"
           x="126.899 133.26111 139.62361 145.98572">2000</tspan></text>
<path
         d="m 204.803,38.216 v -3.5"
         style="fill:#000000;fill-opacity:1;fill-rule:nonzero;stroke:none;stroke-width:0.1"
         id="path73"
         inkscape:connector-curvature="0" /><path
         d="m 204.803,38.216 v -3.5"
         style="fill:none;stroke:#000000;stroke-width:0.80000001;stroke-linecap:butt;stroke-linejoin:round;stroke-miterlimit:10;stroke-dasharray:none;stroke-opacity:1"
         id="path75"
         inkscape:connector-curvature="0" /><text
         y="-23.622299"
         x="192.084"
         id="text81"
         style="font-variant:normal;font-weight:normal;font-size:10px;font-family:Arial;-inkscape-font-specification:Arial;writing-mode:lr-tb;fill:#000000;fill-opacity:1;fill-rule:nonzero;stroke:none"
         transform="scale(1,-1)"><tspan
           id="tspan79"
           sodipodi:role="line"
           y="-23.622299"
           x="192.084 198.44611 204.80861 211.1707">4000</tspan></text>
<path
         d="m 269.988,38.216 v -3.5"
         style="fill:#000000;fill-opacity:1;fill-rule:nonzero;stroke:none;stroke-width:0.1"
         id="path83"
         inkscape:connector-curvature="0" /><path
         d="m 269.988,38.216 v -3.5"
         style="fill:none;stroke:#000000;stroke-width:0.80000001;stroke-linecap:butt;stroke-linejoin:round;stroke-miterlimit:10;stroke-dasharray:none;stroke-opacity:1"
         id="path85"
         inkscape:connector-curvature="0" /><text
         y="-23.622299"
         x="257.26999"
         id="text91"
         style="font-variant:normal;font-weight:normal;font-size:10px;font-family:Arial;-inkscape-font-specification:Arial;writing-mode:lr-tb;fill:#000000;fill-opacity:1;fill-rule:nonzero;stroke:none"
         transform="scale(1,-1)"><tspan
           id="tspan89"
           sodipodi:role="line"
           y="-23.622299"
           x="257.26999 263.63211 269.9946 276.35669">6000</tspan></text>
<path
         d="m 335.173,38.216 v -3.5"
         style="fill:#000000;fill-opacity:1;fill-rule:nonzero;stroke:none;stroke-width:0.1"
         id="path93"
         inkscape:connector-curvature="0" /><path
         d="m 335.173,38.216 v -3.5"
         style="fill:none;stroke:#000000;stroke-width:0.80000001;stroke-linecap:butt;stroke-linejoin:round;stroke-miterlimit:10;stroke-dasharray:none;stroke-opacity:1"
         id="path95"
         inkscape:connector-curvature="0" /><text
         y="-23.622299"
         x="322.45499"
         id="text101"
         style="font-variant:normal;font-weight:normal;font-size:10px;font-family:Arial;-inkscape-font-specification:Arial;writing-mode:lr-tb;fill:#000000;fill-opacity:1;fill-rule:nonzero;stroke:none"
         transform="scale(1,-1)"><tspan
           id="tspan99"
           sodipodi:role="line"
           y="-23.622299"
           x="322.45499 328.81711 335.1796 341.54169">8000</tspan></text>
<path
         d="m 400.358,38.216 v -3.5"
         style="fill:#000000;fill-opacity:1;fill-rule:nonzero;stroke:none;stroke-width:0.1"
         id="path103"
         inkscape:connector-curvature="0" /><path
         d="m 400.358,38.216 v -3.5"
         style="fill:none;stroke:#000000;stroke-width:0.80000001;stroke-linecap:butt;stroke-linejoin:round;stroke-miterlimit:10;stroke-dasharray:none;stroke-opacity:1"
         id="path105"
         inkscape:connector-curvature="0" /><text
         y="-23.622299"
         x="384.45999"
         id="text113"
         style="font-variant:normal;font-weight:normal;font-size:10px;font-family:Arial;-inkscape-font-specification:Arial;writing-mode:lr-tb;fill:#000000;fill-opacity:1;fill-rule:nonzero;stroke:none"
         transform="scale(1,-1)"><tspan
           id="tspan109"
           sodipodi:role="line"
           y="-23.622299"
           x="384.45999 390.82211 397.1846 403.54669 409.90918">10000</tspan><tspan
           id="tspan111"
           sodipodi:role="line"
           y="-9.9504004"
           x="208.854 216.60283 222.75517 229.09308 235.24542 239.35674 245.48486 249.40556 252.18408 258.30206">Generation</tspan></text>
<path
         d="M 58.2,44.8023 H 54.7"
         style="fill:#000000;fill-opacity:1;fill-rule:nonzero;stroke:none;stroke-width:0.1"
         id="path115"
         inkscape:connector-curvature="0" /><path
         d="M 58.2,44.8023 H 54.7"
         style="fill:none;stroke:#000000;stroke-width:0.80000001;stroke-linecap:butt;stroke-linejoin:round;stroke-miterlimit:10;stroke-dasharray:none;stroke-opacity:1"
         id="path117"
         inkscape:connector-curvature="0" /><text
         y="-41.005501"
         x="35.2938"
         id="text123"
         style="font-variant:normal;font-weight:normal;font-size:10px;font-family:Arial;-inkscape-font-specification:Arial;writing-mode:lr-tb;fill:#000000;fill-opacity:1;fill-rule:nonzero;stroke:none"
         transform="scale(1,-1)"><tspan
           id="tspan121"
           sodipodi:role="line"
           y="-41.005501"
           x="35.2938 41.6563 44.834816">0.0</tspan></text>
<path
         d="M 58.2,75.6398 H 54.7"
         style="fill:#000000;fill-opacity:1;fill-rule:nonzero;stroke:none;stroke-width:0.1"
         id="path125"
         inkscape:connector-curvature="0" /><path
         d="M 58.2,75.6398 H 54.7"
         style="fill:none;stroke:#000000;stroke-width:0.80000001;stroke-linecap:butt;stroke-linejoin:round;stroke-miterlimit:10;stroke-dasharray:none;stroke-opacity:1"
         id="path127"
         inkscape:connector-curvature="0" /><text
         y="-71.843002"
         x="35.2938"
         id="text133"
         style="font-variant:normal;font-weight:normal;font-size:10px;font-family:Arial;-inkscape-font-specification:Arial;writing-mode:lr-tb;fill:#000000;fill-opacity:1;fill-rule:nonzero;stroke:none"
         transform="scale(1,-1)"><tspan
           id="tspan131"
           sodipodi:role="line"
           y="-71.843002"
           x="35.2938 41.6563 44.834816">0.5</tspan></text>
<path
         d="M 58.2,106.478 H 54.7"
         style="fill:#000000;fill-opacity:1;fill-rule:nonzero;stroke:none;stroke-width:0.1"
         id="path135"
         inkscape:connector-curvature="0" /><path
         d="M 58.2,106.478 H 54.7"
         style="fill:none;stroke:#000000;stroke-width:0.80000001;stroke-linecap:butt;stroke-linejoin:round;stroke-miterlimit:10;stroke-dasharray:none;stroke-opacity:1"
         id="path137"
         inkscape:connector-curvature="0" /><text
         y="-102.68"
         x="35.2938"
         id="text143"
         style="font-variant:normal;font-weight:normal;font-size:10px;font-family:Arial;-inkscape-font-specification:Arial;writing-mode:lr-tb;fill:#000000;fill-opacity:1;fill-rule:nonzero;stroke:none"
         transform="scale(1,-1)"><tspan
           id="tspan141"
           sodipodi:role="line"
           y="-102.68"
           x="35.2938 41.6563 44.834816">1.0</tspan></text>
<path
         d="M 58.2,137.315 H 54.7"
         style="fill:#000000;fill-opacity:1;fill-rule:nonzero;stroke:none;stroke-width:0.1"
         id="path145"
         inkscape:connector-curvature="0" /><path
         d="M 58.2,137.315 H 54.7"
         style="fill:none;stroke:#000000;stroke-width:0.80000001;stroke-linecap:butt;stroke-linejoin:round;stroke-miterlimit:10;stroke-dasharray:none;stroke-opacity:1"
         id="path147"
         inkscape:connector-curvature="0" /><text
         y="-133.51801"
         x="35.2938"
         id="text153"
         style="font-variant:normal;font-weight:normal;font-size:10px;font-family:Arial;-inkscape-font-specification:Arial;writing-mode:lr-tb;fill:#000000;fill-opacity:1;fill-rule:nonzero;stroke:none"
         transform="scale(1,-1)"><tspan
           id="tspan151"
           sodipodi:role="line"
           y="-133.51801"
           x="35.2938 41.6563 44.834816">1.5</tspan></text>
<path
         d="M 58.2,168.153 H 54.7"
         style="fill:#000000;fill-opacity:1;fill-rule:nonzero;stroke:none;stroke-width:0.1"
         id="path155"
         inkscape:connector-curvature="0" /><path
         d="M 58.2,168.153 H 54.7"
         style="fill:none;stroke:#000000;stroke-width:0.80000001;stroke-linecap:butt;stroke-linejoin:round;stroke-miterlimit:10;stroke-dasharray:none;stroke-opacity:1"
         id="path157"
         inkscape:connector-curvature="0" /><text
         y="-164.355"
         x="35.2938"
         id="text163"
         style="font-variant:normal;font-weight:normal;font-size:10px;font-family:Arial;-inkscape-font-specification:Arial;writing-mode:lr-tb;fill:#000000;fill-opacity:1;fill-rule:nonzero;stroke:none"
         transform="scale(1,-1)"><tspan
           id="tspan161"
           sodipodi:role="line"
           y="-164.355"
           x="35.2938 41.6563 44.834816">2.0</tspan></text>
<path
         d="M 58.2,198.99 H 54.7"
         style="fill:#000000;fill-opacity:1;fill-rule:nonzero;stroke:none;stroke-width:0.1"
         id="path165"
         inkscape:connector-curvature="0" /><path
         d="M 58.2,198.99 H 54.7"
         style="fill:none;stroke:#000000;stroke-width:0.80000001;stroke-linecap:butt;stroke-linejoin:round;stroke-miterlimit:10;stroke-dasharray:none;stroke-opacity:1"
         id="path167"
         inkscape:connector-curvature="0" /><text
         y="-195.19299"
         x="35.2938"
         id="text173"
         style="font-variant:normal;font-weight:normal;font-size:10px;font-family:Arial;-inkscape-font-specification:Arial;writing-mode:lr-tb;fill:#000000;fill-opacity:1;fill-rule:nonzero;stroke:none"
         transform="scale(1,-1)"><tspan
           id="tspan171"
           sodipodi:role="line"
           y="-195.19299"
           x="35.2938 41.6563 44.834816">2.5</tspan></text>
<path
         d="M 58.2,229.828 H 54.7"
         style="fill:#000000;fill-opacity:1;fill-rule:nonzero;stroke:none;stroke-width:0.1"
         id="path175"
         inkscape:connector-curvature="0" /><path
         d="M 58.2,229.828 H 54.7"
         style="fill:none;stroke:#000000;stroke-width:0.80000001;stroke-linecap:butt;stroke-linejoin:round;stroke-miterlimit:10;stroke-dasharray:none;stroke-opacity:1"
         id="path177"
         inkscape:connector-curvature="0" /><text
         y="-226.03101"
         x="35.2938"
         id="text183"
         style="font-variant:normal;font-weight:normal;font-size:10px;font-family:Arial;-inkscape-font-specification:Arial;writing-mode:lr-tb;fill:#000000;fill-opacity:1;fill-rule:nonzero;stroke:none"
         transform="scale(1,-1)"><tspan
           id="tspan181"
           sodipodi:role="line"
           y="-226.03101"
           x="35.2938 41.6563 44.834816">3.0</tspan></text>
<path
         d="M 58.2,260.665 H 54.7"
         style="fill:#000000;fill-opacity:1;fill-rule:nonzero;stroke:none;stroke-width:0.1"
         id="path185"
         inkscape:connector-curvature="0" /><path
         d="M 58.2,260.665 H 54.7"
         style="fill:none;stroke:#000000;stroke-width:0.80000001;stroke-linecap:butt;stroke-linejoin:round;stroke-miterlimit:10;stroke-dasharray:none;stroke-opacity:1"
         id="path187"
         inkscape:connector-curvature="0" /><text
         y="-256.86801"
         x="35.2938"
         id="text193"
         style="font-variant:normal;font-weight:normal;font-size:10px;font-family:Arial;-inkscape-font-specification:Arial;writing-mode:lr-tb;fill:#000000;fill-opacity:1;fill-rule:nonzero;stroke:none"
         transform="scale(1,-1)"><tspan
           id="tspan191"
           sodipodi:role="line"
           y="-256.86801"
           x="35.2938 41.6563 44.834816">3.5</tspan></text>
<path
         d="M 58.2,291.503 H 54.7"
         style="fill:#000000;fill-opacity:1;fill-rule:nonzero;stroke:none;stroke-width:0.1"
         id="path195"
         inkscape:connector-curvature="0" /><path
         d="M 58.2,291.503 H 54.7"
         style="fill:none;stroke:#000000;stroke-width:0.80000001;stroke-linecap:butt;stroke-linejoin:round;stroke-miterlimit:10;stroke-dasharray:none;stroke-opacity:1"
         id="path197"
         inkscape:connector-curvature="0" /><text
         y="-287.70599"
         x="35.2938"
         id="text203"
         style="font-variant:normal;font-weight:normal;font-size:10px;font-family:Arial;-inkscape-font-specification:Arial;writing-mode:lr-tb;fill:#000000;fill-opacity:1;fill-rule:nonzero;stroke:none"
         transform="scale(1,-1)"><tspan
           id="tspan201"
           sodipodi:role="line"
           y="-287.70599"
           x="35.2938 41.6563 44.834816">4.0</tspan></text>
<text
         y="29.215599"
         x="158.88901"
         id="text207"
         style="font-variant:normal;font-weight:normal;font-size:10px;font-family:Arial;-inkscape-font-specification:Arial;writing-mode:lr-tb;fill:#000000;fill-opacity:1;fill-rule:nonzero;stroke:none"
         transform="matrix(0,1,1,0,0,0)"><tspan
           id="tspan205"
           sodipodi:role="line"
           y="29.215599"
           x="158.88901 165.20737 169.3187 173.43002 179.54839">Error</tspan></text>
<path
         d="m 74.4328,292.232 h 0.1305 l 0.1301,-18.512 h 0.0328 l 0.1301,-29.829 0.2609,-0.002 0.1305,-29.567 h 0.2605 l 0.1305,-0.143 h 0.0976 l 0.1305,-14.121 h 0.5867 l 0.1305,-2.052 h 0.0976 l 0.0325,-0.201 0.1304,-4.405 h 0.0977 l 0.1305,-0.632 0.2609,-0.001 0.1301,-1.594 h 0.098 l 0.1301,-0.994 h 0.0652 l 0.0328,-0.417 0.1305,-2.095 0.391,-0.001 0.1305,-4.67 4.4977,-0.11 0.1304,-0.189 h 0.2606 l 0.1304,-1.326 7.1379,-0.108 0.1301,-17.451 h 0.0652 l 0.1305,-0.392 h 2.8027 l 0.1305,-0.804 0.1305,-0.13 2.2488,-0.018 0.1305,-15.095 h 0.6519 l 0.1301,-0.509 h 1.4016 l 0.1304,-0.296 h 0.4563 l 0.1305,-5.57 15.9376,-0.019 0.13,-5.821 4.237,-10e-4 0.131,-6.937 0.13,-0.478 0.13,-0.072 h 0.099 l 0.13,-4.527 0.586,-0.057 0.131,-10.015 0.782,-0.007 0.13,-0.271 10.398,-0.002 0.13,-12.281 7.398,-0.015 0.131,-8.6841 2.705,-0.0109 0.13,-5.8117 7.757,-0.0637 0.131,-3.0262 6.942,-0.1004 0.13,-1.9734 h 0.782 l 0.131,-2.7105 h 12.581 l 0.13,-1.8176 h 4.367 l 0.131,-0.3172 h 1.466 l 0.131,-0.8977 2.607,-0.0671 0.13,-0.2957 10.267,-0.0024 0.163,-0.7762 35.395,-0.1043 0.131,-0.3699 16.166,-0.0035 0.13,-1.4453 h 0.326 l 0.131,-3.8567 11.44,-0.1039 0.13,-1.4558 h 5.704 l 0.13,-0.1176 25.911,-4e-4 0.13,-1.4195 5.085,-0.0832 0.13,-0.5324 4.368,-0.1016 0.13,-0.5301 h 6.519 l 0.13,-0.2148 h 0.065 l 0.13,-0.9715 h 0.815 l 0.131,-0.507 h 0.032 l 0.131,-0.1532 h 5.703 l 0.131,-0.3816 21.218,-0.002 0.13,-0.9238 8.898,-0.0402 0.163,-0.1336 h 0.162 l 0.131,-2.6059 h 4.074 l 0.13,-0.7277 4.042,-0.0363 0.13,-0.2789 h 0.913 l 0.13,-1.2836 h 2.314 l 0.131,-0.7114 6.192,-4e-4 0.131,-0.7453 h 0.195 l 0.13,-0.2562 h 2.836 l 0.13,-0.2891 11.343,-0.0527 0.13,-0.2738 h 7.855 l 0.13,-0.2098 0.163,-0.0359 h 1.499 l 0.131,-1.0227 13.851,-0.0578 0.131,-0.2055 1.792,-0.0015 0.098,-1.3817 v 0"
         style="fill:none;stroke:#1f77b4;stroke-width:1.5;stroke-linecap:square;stroke-linejoin:round;stroke-miterlimit:10;stroke-dasharray:none;stroke-opacity:1"
         id="path217"
         inkscape:connector-curvature="0" /><path
         d="M 58.2,38.216 V 304.328"
         style="fill:none;stroke:#000000;stroke-width:0.80000001;stroke-linecap:square;stroke-linejoin:miter;stroke-miterlimit:10;stroke-dasharray:none;stroke-opacity:1"
         id="path227"
         inkscape:connector-curvature="0" /><path
         d="M 415.32,38.216 V 304.328"
         style="fill:none;stroke:#000000;stroke-width:0.80000001;stroke-linecap:square;stroke-linejoin:miter;stroke-miterlimit:10;stroke-dasharray:none;stroke-opacity:1"
         id="path229"
         inkscape:connector-curvature="0" /><path
         d="M 58.2,38.216 H 415.32"
         style="fill:none;stroke:#000000;stroke-width:0.80000001;stroke-linecap:square;stroke-linejoin:miter;stroke-miterlimit:10;stroke-dasharray:none;stroke-opacity:1"
         id="path231"
         inkscape:connector-curvature="0" /><path
         d="M 58.2,304.328 H 415.32"
         style="fill:none;stroke:#000000;stroke-width:0.80000001;stroke-linecap:square;stroke-linejoin:miter;stroke-miterlimit:10;stroke-dasharray:none;stroke-opacity:1"
         id="path233"
         inkscape:connector-curvature="0" /><text
         y="-310.328"
         x="192.104"
         id="text239"
         style="font-variant:normal;font-weight:normal;font-size:12px;font-family:Arial;-inkscape-font-specification:Arial;writing-mode:lr-tb;fill:#000000;fill-opacity:1;fill-rule:nonzero;stroke:none"
         transform="scale(1,-1)"><tspan
           id="tspan237"
           sodipodi:role="line"
           y="-310.328"
           x="192.104 199.68604 204.61963 209.55322 216.89502 221.82861 225.64307 233.02588 240.12744 247.46924 250.80321 258.40866 263.11374 266.44772 273.78952">Error evolution</tspan></text>
</g></g></svg>