<?xml version="1.0" encoding="UTF-8" standalone="no"?>
<!-- Created with Inkscape (http://www.inkscape.org/) -->

<svg
   xmlns:ns1="http://www.iki.fi/pav/software/textext/"
   xmlns:dc="http://purl.org/dc/elements/1.1/"
   xmlns:cc="http://creativecommons.org/ns#"
   xmlns:rdf="http://www.w3.org/1999/02/22-rdf-syntax-ns#"
   xmlns:svg="http://www.w3.org/2000/svg"
   xmlns="http://www.w3.org/2000/svg"
   xmlns:sodipodi="http://sodipodi.sourceforge.net/DTD/sodipodi-0.dtd"
   xmlns:inkscape="http://www.inkscape.org/namespaces/inkscape"
   width="64.894424mm"
   height="15.810772mm"
   viewBox="0 0 64.894424 15.810772"
   version="1.1"
   id="svg8"
   inkscape:version="0.92.3 (2405546, 2018-03-11)"
   sodipodi:docname="spring_mass.svg">
  <sodipodi:namedview
     id="base"
     pagecolor="#ffffff"
     bordercolor="#666666"
     borderopacity="1.0"
     inkscape:pageopacity="0.0"
     inkscape:pageshadow="2"
     inkscape:zoom="1.4"
     inkscape:cx="154.84848"
     inkscape:cy="-47.992078"
     inkscape:document-units="mm"
     inkscape:current-layer="layer1"
     showgrid="false"
     inkscape:window-width="1366"
     inkscape:window-height="713"
     inkscape:window-x="0"
     inkscape:window-y="27"
     inkscape:window-maximized="1"
     fit-margin-top="-0.2"
     fit-margin-left="0"
     fit-margin-right="0"
     fit-margin-bottom="0" />
  <defs
     id="defs2">
    <marker
       inkscape:isstock="true"
       style="overflow:visible"
       id="Arrow1Mend"
       refX="0"
       refY="0"
       orient="auto"
       inkscape:stockid="Arrow1Mend">
      <path
         inkscape:connector-curvature="0"
         transform="matrix(-0.4,0,0,-0.4,-4,0)"
         style="fill:#000000;fill-opacity:1;fill-rule:evenodd;stroke:#000000;stroke-width:1.00000003pt;stroke-opacity:1"
         d="M 0,0 5,-5 -12.5,0 5,5 Z"
         id="path896" />
    </marker>
  </defs>
  <metadata
     id="metadata5">
    <rdf:RDF>
      <cc:Work
         rdf:about="">
        <dc:format>image/svg+xml</dc:format>
        <dc:type
           rdf:resource="http://purl.org/dc/dcmitype/StillImage" />
        <dc:title></dc:title>
      </cc:Work>
    </rdf:RDF>
  </metadata>
  <g
     transform="translate(103.82573,27.890552)"
     id="layer1"
     inkscape:groupmode="layer"
     inkscape:label="Layer 1">
    <g
       id="g2080">
      <g
         id="g867"
         transform="rotate(90,34.451122,-63.374946)">
        <path
           sodipodi:nodetypes="cc"
           inkscape:connector-curvature="0"
           id="path823"
           d="M 80.508928,43.40078 V 54.482813"
           style="fill:none;stroke:#000000;stroke-width:0.26499999;stroke-linecap:square;stroke-linejoin:miter;stroke-miterlimit:4;stroke-dasharray:none;stroke-opacity:1" />
        <g
           id="g1900">
          <path
             style="fill:none;stroke:#000000;stroke-width:0.26458332px;stroke-linecap:butt;stroke-linejoin:miter;stroke-opacity:1"
             d="m 80.508926,54.482811 c -3.971508,0 -4.01489,3.494495 0,3.494495 0.928573,0 2.186652,-0.397843 2.186652,-1.361672 0,-0.420841 -0.22988,-1.030334 -2.18665,-1.030334"
             id="path835"
             inkscape:connector-curvature="0"
             sodipodi:nodetypes="ccsc" />
          <path
             sodipodi:nodetypes="ccsc"
             inkscape:connector-curvature="0"
             id="path847"
             d="m 80.508926,55.593116 c -3.971508,0 -4.01489,3.494495 0,3.494495 0.928573,0 2.186652,-0.397843 2.186652,-1.361672 0,-0.420841 -0.22988,-1.030334 -2.18665,-1.030334"
             style="fill:none;stroke:#000000;stroke-width:0.26458332px;stroke-linecap:butt;stroke-linejoin:miter;stroke-opacity:1" />
          <path
             style="fill:none;stroke:#000000;stroke-width:0.26458332px;stroke-linecap:butt;stroke-linejoin:miter;stroke-opacity:1"
             d="m 80.508926,56.703421 c -3.971508,0 -4.01489,3.494495 0,3.494495 0.928573,0 2.186652,-0.397843 2.186652,-1.361672 0,-0.420841 -0.22988,-1.030334 -2.18665,-1.030334"
             id="path849"
             inkscape:connector-curvature="0"
             sodipodi:nodetypes="ccsc" />
          <path
             sodipodi:nodetypes="cc"
             inkscape:connector-curvature="0"
             id="path851"
             d="m 80.508926,57.813726 c -3.971508,0 -4.01489,3.494495 0,3.494495"
             style="fill:none;stroke:#000000;stroke-width:0.26458332px;stroke-linecap:butt;stroke-linejoin:miter;stroke-opacity:1" />
        </g>
        <path
           inkscape:connector-curvature="0"
           id="path853"
           d="M 80.508924,61.30822 V 72.686994"
           style="fill:none;stroke:#000000;stroke-width:0.26458332px;stroke-linecap:square;stroke-linejoin:miter;stroke-opacity:1"
           sodipodi:nodetypes="cc" />
      </g>
      <rect
         style="fill:#000000;fill-opacity:0;stroke:#000000;stroke-width:0.26499999;stroke-linecap:square;stroke-linejoin:round;stroke-miterlimit:4;stroke-dasharray:none;stroke-dashoffset:0;stroke-opacity:1"
         id="rect879"
         width="16.971298"
         height="10.488839"
         x="-72.287949"
         y="-22.965702" />
      <path
         style="fill:none;stroke:#000000;stroke-width:0.26458332px;stroke-linecap:butt;stroke-linejoin:miter;stroke-opacity:1"
         d="m -101.72699,-12.212072 h 62.79568"
         id="path881"
         inkscape:connector-curvature="0" />
      <path
         style="fill:none;stroke:#000000;stroke-width:0.26458332px;stroke-linecap:butt;stroke-linejoin:miter;stroke-opacity:1"
         d="m -101.72699,-12.212072 v -14.61903"
         id="path883"
         inkscape:connector-curvature="0" />
      <path
         style="fill:none;stroke:#000000;stroke-width:0.26499999;stroke-linecap:butt;stroke-linejoin:miter;stroke-miterlimit:4;stroke-dasharray:none;stroke-opacity:1;marker-end:url(#Arrow1Mend)"
         d="m -55.18415,-17.721283 h 7.55953"
         id="path885"
         inkscape:connector-curvature="0" />
      <path
         style="fill:none;stroke:#000000;stroke-width:0.26458332px;stroke-linecap:butt;stroke-linejoin:miter;stroke-opacity:1"
         d="m -101.72699,-26.602461 -2.0326,-1.173523"
         id="path1729"
         inkscape:connector-curvature="0" />
      <path
         inkscape:connector-curvature="0"
         id="path1731"
         d="m -101.72699,-25.433153 -2.0326,-1.173523"
         style="fill:none;stroke:#000000;stroke-width:0.26458332px;stroke-linecap:butt;stroke-linejoin:miter;stroke-opacity:1" />
      <path
         style="fill:none;stroke:#000000;stroke-width:0.26458332px;stroke-linecap:butt;stroke-linejoin:miter;stroke-opacity:1"
         d="m -101.72699,-24.263853 -2.0326,-1.173523"
         id="path1733"
         inkscape:connector-curvature="0" />
      <path
         inkscape:connector-curvature="0"
         style="fill:#000000;fill-opacity:1;stroke:none;stroke-width:0"
         d="m -86.79917,-24.272022 c 0,0 0,-0.04031 -0.0461,-0.04031 -0.0864,0 -0.35132,0.0288 -0.44922,0.04031 -0.0288,0 -0.0691,0.0058 -0.0691,0.06911 0,0.04607 0.0346,0.04607 0.0864,0.04607 0.17854,0 0.1843,0.02304 0.1843,0.06335 l -0.0115,0.07487 -0.52985,2.113638 c -0.0173,0.05183 -0.0173,0.05759 -0.0173,0.08063 0,0.08639 0.0749,0.103667 0.10943,0.103667 0.0461,0 0.0979,-0.03456 0.12094,-0.07487 0.0173,-0.03456 0.1843,-0.714145 0.20733,-0.806293 0.12671,0.01152 0.42619,0.06911 0.42619,0.310999 0,0.0288 0,0.04031 -0.0115,0.08063 -0.006,0.04031 -0.0115,0.08639 -0.0115,0.126703 0,0.213092 0.14398,0.362832 0.33404,0.362832 0.10942,0 0.21309,-0.05759 0.29372,-0.195814 0.0921,-0.161259 0.13246,-0.362832 0.13246,-0.368591 0,-0.04031 -0.0346,-0.04031 -0.0461,-0.04031 -0.0346,0 -0.0403,0.01728 -0.0518,0.06911 -0.0749,0.264925 -0.1555,0.454979 -0.31675,0.454979 -0.0749,0 -0.12095,-0.04031 -0.12095,-0.172777 0,-0.06335 0.0173,-0.14974 0.0288,-0.207332 0.0173,-0.06335 0.0173,-0.07487 0.0173,-0.115185 0,-0.236128 -0.23037,-0.339794 -0.54713,-0.385868 0.11518,-0.06335 0.23613,-0.178536 0.31676,-0.270684 0.17853,-0.195814 0.34555,-0.351313 0.52409,-0.351313 0.023,0 0.0288,0 0.0345,0.0058 0.0461,0.0058 0.0461,0.0058 0.0806,0.0288 0.006,0 0.006,0.0058 0.0115,0.01152 -0.17278,0.01152 -0.20733,0.155499 -0.20733,0.201573 0,0.05759 0.0403,0.126703 0.13822,0.126703 0.0979,0 0.20157,-0.08063 0.20157,-0.22461 0,-0.109426 -0.0864,-0.23037 -0.24765,-0.23037 -0.10366,0 -0.27068,0.0288 -0.5356,0.322517 -0.12671,0.138222 -0.27069,0.287962 -0.40891,0.339795 z m 0,0"
         id="path1823" />
      <path
         inkscape:connector-curvature="0"
         style="fill:#000000;fill-opacity:1;stroke:none;stroke-width:0"
         d="m -65.09218,-17.148241 c -0.0115,0.05759 -0.0346,0.143981 -0.0346,0.161259 0,0.06335 0.0518,0.09791 0.10943,0.09791 0.0461,0 0.10942,-0.0288 0.13822,-0.103667 0,-0.0058 0.0461,-0.178536 0.0691,-0.270683 l 0.0806,-0.328277 c 0.0173,-0.08639 0.0403,-0.167017 0.0633,-0.247647 0.0115,-0.06335 0.0403,-0.172777 0.0461,-0.184295 0.0518,-0.115185 0.24765,-0.44922 0.59896,-0.44922 0.16702,0 0.19582,0.138221 0.19582,0.259165 0,0.09215 -0.023,0.195814 -0.0518,0.305239 l -0.10367,0.426184 -0.0749,0.276443 c -0.0115,0.07487 -0.0461,0.201573 -0.0461,0.218851 0,0.06335 0.0518,0.09791 0.10366,0.09791 0.11519,0 0.13822,-0.09215 0.16702,-0.207333 0.0518,-0.207332 0.19005,-0.742941 0.21885,-0.886922 0.0115,-0.04607 0.20733,-0.489534 0.61048,-0.489534 0.1555,0 0.19581,0.126703 0.19581,0.259165 0,0.207333 -0.1555,0.627756 -0.23037,0.82357 -0.0288,0.08639 -0.0461,0.126704 -0.0461,0.201574 0,0.172777 0.1267,0.29948 0.29948,0.29948 0.34555,0 0.48377,-0.535609 0.48377,-0.564405 0,-0.04032 -0.0345,-0.04032 -0.0461,-0.04032 -0.0345,0 -0.0345,0.01152 -0.0518,0.06911 -0.0576,0.195814 -0.17278,0.454979 -0.37435,0.454979 -0.0633,0 -0.0922,-0.03456 -0.0922,-0.120944 0,-0.09215 0.0346,-0.178536 0.0691,-0.259165 0.0691,-0.195814 0.22461,-0.59896 0.22461,-0.812052 0,-0.236128 -0.14974,-0.391628 -0.42618,-0.391628 -0.27069,0 -0.46074,0.161259 -0.59896,0.357073 0,-0.04607 -0.0115,-0.172777 -0.11519,-0.259166 -0.0921,-0.08063 -0.20733,-0.09791 -0.29948,-0.09791 -0.33403,0 -0.51257,0.236129 -0.57592,0.322517 -0.0173,-0.213091 -0.17278,-0.322517 -0.3398,-0.322517 -0.16701,0 -0.23612,0.143981 -0.27068,0.207333 -0.0633,0.132462 -0.10942,0.345554 -0.10942,0.357072 0,0.04031 0.0346,0.04031 0.0403,0.04031 0.0403,0 0.0403,-0.0058 0.0634,-0.08639 0.0633,-0.259165 0.13822,-0.437701 0.27069,-0.437701 0.0576,0 0.10942,0.0288 0.10942,0.167017 0,0.08063 -0.0115,0.120944 -0.0576,0.310999 z m 0,0"
         id="path1835" />
      <g
         transform="matrix(0.37604913,0,0,0.37604913,-105.72647,-69.881418)"
         ns1:version="0.10.0"
         ns1:texconverter="pdflatex"
         ns1:pdfconverter="pdf2svg"
         ns1:text="$\\vec{F}$"
         ns1:preamble="/home/psiu/.config/inkscape/extensions/textext/default_packages.tex"
         ns1:scale="1.41508101412"
         ns1:alignment="middle center"
         inkscapeversion="0.92.3"
         ns1:jacobian_sqrt="0.499209"
         id="g2001">
        <g
           id="surface1">
          <g
             style="fill:#000000;fill-opacity:1"
             id="g1994">
            <path
               inkscape:connector-curvature="0"
               style="stroke:none;stroke-width:0"
               d="m 5.359375,-5.9375 c -0.140625,0.140625 -0.46875,0.421875 -0.46875,0.59375 0,0.09375 0.09375,0.203125 0.1875,0.203125 0.09375,0 0.140625,-0.078125 0.203125,-0.140625 C 5.390625,-5.421875 5.625,-5.703125 6.0625,-5.921875 6.125,-5.96875 6.234375,-6.015625 6.234375,-6.125 6.234375,-6.234375 6.15625,-6.28125 6.09375,-6.328125 5.875,-6.484375 5.765625,-6.65625 5.6875,-6.890625 5.65625,-6.984375 5.625,-7.125 5.484375,-7.125 c -0.140625,0 -0.203125,0.140625 -0.203125,0.21875 0,0.046875 0.078125,0.359375 0.234375,0.578125 H 2.15625 c -0.15625,0 -0.34375,0 -0.34375,0.203125 0,0.1875 0.1875,0.1875 0.34375,0.1875 z m 0,0"
               transform="translate(150.181,132.246)"
               id="path1992" />
          </g>
          <g
             style="fill:#000000;fill-opacity:1"
             id="g1998">
            <path
               inkscape:connector-curvature="0"
               style="stroke:none;stroke-width:0"
               d="m 3.015625,-3.234375 h 0.96875 c 0.75,0 0.828125,0.15625 0.828125,0.4375 0,0.078125 0,0.1875 -0.0625,0.5 C 4.71875,-2.25 4.71875,-2.21875 4.71875,-2.1875 c 0,0.078125 0.0625,0.109375 0.109375,0.109375 0.109375,0 0.109375,-0.03125 0.15625,-0.203125 L 5.53125,-4.453125 C 5.5625,-4.5625 5.5625,-4.578125 5.5625,-4.609375 5.5625,-4.625 5.546875,-4.71875 5.4375,-4.71875 5.34375,-4.71875 5.328125,-4.671875 5.296875,-4.5 5.078125,-3.734375 4.859375,-3.546875 4,-3.546875 H 3.09375 l 0.640625,-2.53125 C 3.828125,-6.4375 3.84375,-6.46875 4.28125,-6.46875 h 1.3125 c 1.21875,0 1.453125,0.328125 1.453125,1.09375 0,0.234375 0,0.265625 -0.03125,0.546875 C 7,-4.703125 7,-4.6875 7,-4.65625 c 0,0.046875 0.03125,0.125 0.125,0.125 0.109375,0 0.109375,-0.0625 0.125,-0.25 L 7.453125,-6.515625 C 7.484375,-6.78125 7.4375,-6.78125 7.1875,-6.78125 H 2.296875 c -0.1875,0 -0.296875,0 -0.296875,0.203125 0,0.109375 0.09375,0.109375 0.28125,0.109375 0.375,0 0.65625,0 0.65625,0.171875 0,0.046875 0,0.0625 -0.0625,0.25 L 1.5625,-0.78125 c -0.09375,0.390625 -0.109375,0.46875 -0.90625,0.46875 -0.171875,0 -0.28125,0 -0.28125,0.1875 C 0.375,0 0.5,0 0.53125,0 0.8125,0 1.5625,-0.03125 1.84375,-0.03125 2.171875,-0.03125 3,0 3.328125,0 3.421875,0 3.53125,0 3.53125,-0.1875 3.53125,-0.265625 3.484375,-0.296875 3.484375,-0.296875 3.453125,-0.3125 3.421875,-0.3125 3.203125,-0.3125 c -0.21875,0 -0.265625,0 -0.515625,-0.015625 -0.296875,-0.03125 -0.328125,-0.078125 -0.328125,-0.203125 0,-0.015625 0,-0.078125 0.046875,-0.21875 z m 0,0"
               transform="translate(148.712,134.765)"
               id="path1996" />
          </g>
        </g>
      </g>
    </g>
  </g>
</svg>
