<?xml version="1.0" encoding="UTF-8" standalone="no"?>
<!-- Created with Inkscape (http://www.inkscape.org/) -->

<svg
   xmlns:ns1="http://www.iki.fi/pav/software/textext/"
   xmlns:dc="http://purl.org/dc/elements/1.1/"
   xmlns:cc="http://creativecommons.org/ns#"
   xmlns:rdf="http://www.w3.org/1999/02/22-rdf-syntax-ns#"
   xmlns:svg="http://www.w3.org/2000/svg"
   xmlns="http://www.w3.org/2000/svg"
   xmlns:xlink="http://www.w3.org/1999/xlink"
   xmlns:sodipodi="http://sodipodi.sourceforge.net/DTD/sodipodi-0.dtd"
   xmlns:inkscape="http://www.inkscape.org/namespaces/inkscape"
   version="1.1"
   id="svg1498"
   xml:space="preserve"
   width="530.78741"
   height="395.5574"
   viewBox="0 0 530.78742 395.5574"
   sodipodi:docname="TS_nconv.svg"
   inkscape:version="0.92.3 (2405546, 2018-03-11)"><metadata
     id="metadata1504"><rdf:RDF><cc:Work
         rdf:about=""><dc:format>image/svg+xml</dc:format><dc:type
           rdf:resource="http://purl.org/dc/dcmitype/StillImage" /><dc:title></dc:title></cc:Work></rdf:RDF></metadata><defs
     id="defs1502"><path
       style="stroke-linecap:butt;stroke-linejoin:round"
       inkscape:connector-curvature="0"
       id="DejaVuSans-73"
       d="m 9.8125,72.90625 h 9.859375 V 0 H 9.8125 Z" /><path
       style="stroke-linecap:butt;stroke-linejoin:round"
       inkscape:connector-curvature="0"
       id="DejaVuSans-116"
       d="M 18.3125,70.21875 V 54.6875 h 18.5 v -6.984375 h -18.5 v -29.6875 q 0,-6.6875 1.828125,-8.59375 1.828125,-1.90625 7.453125,-1.90625 H 36.8125 V 0 H 27.59375 Q 17.1875,0 13.234375,3.875 9.28125,7.765625 9.28125,18.015625 v 29.6875 H 2.6875 V 54.6875 h 6.59375 v 15.53125 z" /><path
       style="stroke-linecap:butt;stroke-linejoin:round"
       inkscape:connector-curvature="0"
       id="DejaVuSans-101"
       d="m 56.203125,29.59375 v -4.390625 h -41.3125 q 0.59375,-9.28125 5.59375,-14.140625 5,-4.859375 13.9375,-4.859375 5.171875,0 10.03125,1.265625 4.859375,1.265625 9.65625,3.8125 v -8.5 q -4.84375,-2.046875 -9.921875,-3.125 -5.078125,-1.078125 -10.296875,-1.078125 -13.09375,0 -20.734375,7.609375 -7.640625,7.625 -7.640625,20.625 0,13.421875 7.25,21.296875 Q 20.015625,56 32.328125,56 q 11.03125,0 17.453125,-7.109375 6.421875,-7.09375 6.421875,-19.296875 z m -8.984375,2.640625 q -0.09375,7.359375 -4.125,11.75 -4.03125,4.40625 -10.671875,4.40625 -7.515625,0 -12.03125,-4.25 -4.515625,-4.25 -5.203125,-11.96875 z" /><path
       style="stroke-linecap:butt;stroke-linejoin:round"
       inkscape:connector-curvature="0"
       id="DejaVuSans-114"
       d="m 41.109375,46.296875 q -1.515625,0.875 -3.296875,1.28125 Q 36.03125,48 33.890625,48 26.265625,48 22.1875,43.046875 18.109375,38.09375 18.109375,28.8125 V 0 h -9.03125 v 54.6875 h 9.03125 v -8.5 q 2.84375,4.984375 7.375,7.390625 Q 30.03125,56 36.53125,56 q 0.921875,0 2.046875,-0.125 1.125,-0.109375 2.484375,-0.359375 z" /><path
       style="stroke-linecap:butt;stroke-linejoin:round"
       inkscape:connector-curvature="0"
       id="DejaVuSans-97"
       d="m 34.28125,27.484375 q -10.890625,0 -15.09375,-2.484375 -4.203125,-2.484375 -4.203125,-8.5 0,-4.78125 3.15625,-7.59375 3.15625,-2.796875 8.5625,-2.796875 7.484375,0 12,5.296875 4.515625,5.296875 4.515625,14.078125 v 2 z m 17.921875,3.71875 V 0 H 43.21875 v 8.296875 q -3.078125,-4.96875 -7.671875,-7.34375 -4.59375,-2.375 -11.234375,-2.375 -8.390625,0 -13.359375,4.71875 Q 6,8.015625 6,15.921875 q 0,9.21875 6.171875,13.90625 6.1875,4.6875 18.4375,4.6875 H 43.21875 v 0.890625 q 0,6.203125 -4.078125,9.59375 -4.078125,3.390625 -11.453125,3.390625 -4.6875,0 -9.140625,-1.125 -4.4375,-1.125 -8.53125,-3.375 v 8.3125 q 4.921875,1.90625 9.5625,2.84375 Q 24.21875,56 28.609375,56 q 11.875,0 17.734375,-6.15625 5.859375,-6.140625 5.859375,-18.640625 z" /><path
       style="stroke-linecap:butt;stroke-linejoin:round"
       inkscape:connector-curvature="0"
       id="DejaVuSans-105"
       d="M 9.421875,54.6875 H 18.40625 V 0 H 9.421875 Z m 0,21.296875 H 18.40625 V 64.59375 H 9.421875 Z" /><path
       style="stroke-linecap:butt;stroke-linejoin:round"
       inkscape:connector-curvature="0"
       id="DejaVuSans-111"
       d="m 30.609375,48.390625 q -7.21875,0 -11.421875,-5.640625 -4.203125,-5.640625 -4.203125,-15.453125 0,-9.8125 4.171875,-15.453125 4.1875,-5.640625 11.453125,-5.640625 7.1875,0 11.375,5.65625 4.203125,5.671875 4.203125,15.4375 0,9.71875 -4.203125,15.40625 -4.1875,5.6875 -11.375,5.6875 z m 0,7.609375 q 11.71875,0 18.40625,-7.625 6.703125,-7.609375 6.703125,-21.078125 0,-13.421875 -6.703125,-21.078125 -6.6875,-7.640625 -18.40625,-7.640625 -11.765625,0 -18.4375,7.640625 -6.65625,7.65625 -6.65625,21.078125 0,13.46875 6.65625,21.078125 Q 18.84375,56 30.609375,56 Z" /><path
       style="stroke-linecap:butt;stroke-linejoin:round"
       inkscape:connector-curvature="0"
       id="DejaVuSans-110"
       d="M 54.890625,33.015625 V 0 H 45.90625 v 32.71875 q 0,7.765625 -3.03125,11.609375 -3.03125,3.859375 -9.078125,3.859375 -7.28125,0 -11.484375,-4.640625 -4.203125,-4.625 -4.203125,-12.640625 V 0 h -9.03125 v 54.6875 h 9.03125 v -8.5 q 3.234375,4.9375 7.59375,7.375 4.375,2.4375 10.09375,2.4375 9.421875,0 14.25,-5.828125 4.84375,-5.828125 4.84375,-17.15625 z" /></defs><sodipodi:namedview
     pagecolor="#ffffff"
     bordercolor="#666666"
     borderopacity="1"
     objecttolerance="10"
     gridtolerance="10"
     guidetolerance="10"
     inkscape:pageopacity="0"
     inkscape:pageshadow="2"
     inkscape:window-width="1920"
     inkscape:window-height="1052"
     id="namedview1500"
     showgrid="false"
     inkscape:zoom="0.36277652"
     inkscape:cx="489.57076"
     inkscape:cy="353.57523"
     inkscape:window-x="1920"
     inkscape:window-y="0"
     inkscape:window-maximized="1"
     inkscape:current-layer="g1506"
     fit-margin-top="0"
     fit-margin-left="0"
     fit-margin-right="0"
     fit-margin-bottom="0" /><g
     id="g1506"
     inkscape:groupmode="layer"
     inkscape:label="ink_ext_XXXXXX"
     transform="matrix(1.3333333,0,0,-1.3333333,-1763.5123,474.24465)"><g
       id="g4750"><g
         transform="translate(552.14463,-62.731484)"
         id="g4659"><path
           inkscape:connector-curvature="0"
           id="path1520"
           style="fill:#ffffff;fill-opacity:1;fill-rule:nonzero;stroke:none;stroke-width:0.1"
           d="m 811.06019,150.77956 h 357.12001 v 266.112 H 811.06019 Z" /><path
           inkscape:connector-curvature="0"
           id="path1522"
           style="fill:#000000;fill-opacity:1;fill-rule:nonzero;stroke:none;stroke-width:0.1"
           d="m 820.81289,150.77956 v -3.5" /><path
           inkscape:connector-curvature="0"
           id="path1524"
           style="fill:none;stroke:#000000;stroke-width:0.80000001;stroke-linecap:butt;stroke-linejoin:round;stroke-miterlimit:10;stroke-dasharray:none;stroke-opacity:1"
           d="m 820.81289,150.77956 v -3.5" /><text
           transform="scale(1,-1)"
           style="font-variant:normal;font-weight:normal;font-size:10px;font-family:Arial;-inkscape-font-specification:Arial;writing-mode:lr-tb;fill:#000000;fill-opacity:1;fill-rule:nonzero;stroke:none"
           id="text1530"
           x="817.63318"
           y="-136.18585"><tspan
             x="817.63318"
             y="-136.18585"
             id="tspan1528">0</tspan></text>
<path
           inkscape:connector-curvature="0"
           id="path1532"
           style="fill:#000000;fill-opacity:1;fill-rule:nonzero;stroke:none;stroke-width:0.1"
           d="m 885.74419,150.77956 v -3.5" /><path
           inkscape:connector-curvature="0"
           id="path1534"
           style="fill:none;stroke:#000000;stroke-width:0.80000001;stroke-linecap:butt;stroke-linejoin:round;stroke-miterlimit:10;stroke-dasharray:none;stroke-opacity:1"
           d="m 885.74419,150.77956 v -3.5" /><text
           transform="scale(1,-1)"
           style="font-variant:normal;font-weight:normal;font-size:10px;font-family:Arial;-inkscape-font-specification:Arial;writing-mode:lr-tb;fill:#000000;fill-opacity:1;fill-rule:nonzero;stroke:none"
           id="text1540"
           x="879.38422"
           y="-136.18585"><tspan
             x="879.38422 885.7467"
             y="-136.18585"
             sodipodi:role="line"
             id="tspan1538">10</tspan></text>
<path
           inkscape:connector-curvature="0"
           id="path1542"
           style="fill:#000000;fill-opacity:1;fill-rule:nonzero;stroke:none;stroke-width:0.1"
           d="m 950.67519,150.77956 v -3.5" /><path
           inkscape:connector-curvature="0"
           id="path1544"
           style="fill:none;stroke:#000000;stroke-width:0.80000001;stroke-linecap:butt;stroke-linejoin:round;stroke-miterlimit:10;stroke-dasharray:none;stroke-opacity:1"
           d="m 950.67519,150.77956 v -3.5" /><text
           transform="scale(1,-1)"
           style="font-variant:normal;font-weight:normal;font-size:10px;font-family:Arial;-inkscape-font-specification:Arial;writing-mode:lr-tb;fill:#000000;fill-opacity:1;fill-rule:nonzero;stroke:none"
           id="text1550"
           x="944.31519"
           y="-136.18585"><tspan
             x="944.31519 950.67767"
             y="-136.18585"
             sodipodi:role="line"
             id="tspan1548">20</tspan></text>
<path
           inkscape:connector-curvature="0"
           id="path1552"
           style="fill:#000000;fill-opacity:1;fill-rule:nonzero;stroke:none;stroke-width:0.1"
           d="m 1015.6052,150.77956 v -3.5" /><path
           inkscape:connector-curvature="0"
           id="path1554"
           style="fill:none;stroke:#000000;stroke-width:0.80000001;stroke-linecap:butt;stroke-linejoin:round;stroke-miterlimit:10;stroke-dasharray:none;stroke-opacity:1"
           d="m 1015.6052,150.77956 v -3.5" /><text
           transform="scale(1,-1)"
           style="font-variant:normal;font-weight:normal;font-size:10px;font-family:Arial;-inkscape-font-specification:Arial;writing-mode:lr-tb;fill:#000000;fill-opacity:1;fill-rule:nonzero;stroke:none"
           id="text1560"
           x="1009.2462"
           y="-136.18585"><tspan
             x="1009.2462 1015.6087"
             y="-136.18585"
             sodipodi:role="line"
             id="tspan1558">30</tspan></text>
<path
           inkscape:connector-curvature="0"
           id="path1562"
           style="fill:#000000;fill-opacity:1;fill-rule:nonzero;stroke:none;stroke-width:0.1"
           d="m 1080.5362,150.77956 v -3.5" /><path
           inkscape:connector-curvature="0"
           id="path1564"
           style="fill:none;stroke:#000000;stroke-width:0.80000001;stroke-linecap:butt;stroke-linejoin:round;stroke-miterlimit:10;stroke-dasharray:none;stroke-opacity:1"
           d="m 1080.5362,150.77956 v -3.5" /><text
           transform="scale(1,-1)"
           style="font-variant:normal;font-weight:normal;font-size:10px;font-family:Arial;-inkscape-font-specification:Arial;writing-mode:lr-tb;fill:#000000;fill-opacity:1;fill-rule:nonzero;stroke:none"
           id="text1570"
           x="1074.1771"
           y="-136.18585"><tspan
             x="1074.1771 1080.5393"
             y="-136.18585"
             sodipodi:role="line"
             id="tspan1568">40</tspan></text>
<path
           inkscape:connector-curvature="0"
           id="path1572"
           style="fill:#000000;fill-opacity:1;fill-rule:nonzero;stroke:none;stroke-width:0.1"
           d="m 1145.4672,150.77956 v -3.5" /><path
           inkscape:connector-curvature="0"
           id="path1574"
           style="fill:none;stroke:#000000;stroke-width:0.80000001;stroke-linecap:butt;stroke-linejoin:round;stroke-miterlimit:10;stroke-dasharray:none;stroke-opacity:1"
           d="m 1145.4672,150.77956 v -3.5" /><text
           transform="scale(1,-1)"
           style="font-variant:normal;font-weight:normal;font-size:10px;font-family:Arial;-inkscape-font-specification:Arial;writing-mode:lr-tb;fill:#000000;fill-opacity:1;fill-rule:nonzero;stroke:none"
           id="text1580"
           x="1139.1082"
           y="-136.18585"><tspan
             x="1139.1082 1145.4703"
             y="-136.18585"
             sodipodi:role="line"
             id="tspan1578">50</tspan></text>
<path
           inkscape:connector-curvature="0"
           id="path1582"
           style="fill:#000000;fill-opacity:1;fill-rule:nonzero;stroke:none;stroke-width:0.1"
           d="m 811.06019,151.13936 h -3.5" /><path
           inkscape:connector-curvature="0"
           id="path1584"
           style="fill:none;stroke:#000000;stroke-width:0.80000001;stroke-linecap:butt;stroke-linejoin:round;stroke-miterlimit:10;stroke-dasharray:none;stroke-opacity:1"
           d="m 811.06019,151.13936 h -3.5" /><text
           transform="scale(1,-1)"
           style="font-variant:normal;font-weight:normal;font-size:10px;font-family:Arial;-inkscape-font-specification:Arial;writing-mode:lr-tb;fill:#000000;fill-opacity:1;fill-rule:nonzero;stroke:none"
           id="text1590"
           x="797.70081"
           y="-147.34206"><tspan
             x="797.70081"
             y="-147.34206"
             id="tspan1588">0</tspan></text>
<path
           inkscape:connector-curvature="0"
           id="path1592"
           style="fill:#000000;fill-opacity:1;fill-rule:nonzero;stroke:none;stroke-width:0.1"
           d="m 811.06019,195.15416 h -3.5" /><path
           inkscape:connector-curvature="0"
           id="path1594"
           style="fill:none;stroke:#000000;stroke-width:0.80000001;stroke-linecap:butt;stroke-linejoin:round;stroke-miterlimit:10;stroke-dasharray:none;stroke-opacity:1"
           d="m 811.06019,195.15416 h -3.5" /><text
           transform="scale(1,-1)"
           style="font-variant:normal;font-weight:normal;font-size:10px;font-family:Arial;-inkscape-font-specification:Arial;writing-mode:lr-tb;fill:#000000;fill-opacity:1;fill-rule:nonzero;stroke:none"
           id="text1600"
           x="791.34149"
           y="-191.35736"><tspan
             x="791.34149 797.70398"
             y="-191.35736"
             sodipodi:role="line"
             id="tspan1598">20</tspan></text>
<path
           inkscape:connector-curvature="0"
           id="path1602"
           style="fill:#000000;fill-opacity:1;fill-rule:nonzero;stroke:none;stroke-width:0.1"
           d="m 811.06019,239.16956 h -3.5" /><path
           inkscape:connector-curvature="0"
           id="path1604"
           style="fill:none;stroke:#000000;stroke-width:0.80000001;stroke-linecap:butt;stroke-linejoin:round;stroke-miterlimit:10;stroke-dasharray:none;stroke-opacity:1"
           d="m 811.06019,239.16956 h -3.5" /><text
           transform="scale(1,-1)"
           style="font-variant:normal;font-weight:normal;font-size:10px;font-family:Arial;-inkscape-font-specification:Arial;writing-mode:lr-tb;fill:#000000;fill-opacity:1;fill-rule:nonzero;stroke:none"
           id="text1610"
           x="791.34149"
           y="-235.37256"><tspan
             x="791.34149 797.70398"
             y="-235.37256"
             sodipodi:role="line"
             id="tspan1608">40</tspan></text>
<path
           inkscape:connector-curvature="0"
           id="path1612"
           style="fill:#000000;fill-opacity:1;fill-rule:nonzero;stroke:none;stroke-width:0.1"
           d="m 811.06019,283.18356 h -3.5" /><path
           inkscape:connector-curvature="0"
           id="path1614"
           style="fill:none;stroke:#000000;stroke-width:0.80000001;stroke-linecap:butt;stroke-linejoin:round;stroke-miterlimit:10;stroke-dasharray:none;stroke-opacity:1"
           d="m 811.06019,283.18356 h -3.5" /><text
           transform="scale(1,-1)"
           style="font-variant:normal;font-weight:normal;font-size:10px;font-family:Arial;-inkscape-font-specification:Arial;writing-mode:lr-tb;fill:#000000;fill-opacity:1;fill-rule:nonzero;stroke:none"
           id="text1620"
           x="791.34149"
           y="-279.38757"><tspan
             x="791.34149 797.70398"
             y="-279.38757"
             sodipodi:role="line"
             id="tspan1618">60</tspan></text>
<path
           inkscape:connector-curvature="0"
           id="path1622"
           style="fill:#000000;fill-opacity:1;fill-rule:nonzero;stroke:none;stroke-width:0.1"
           d="m 811.06019,327.19856 h -3.5" /><path
           inkscape:connector-curvature="0"
           id="path1624"
           style="fill:none;stroke:#000000;stroke-width:0.80000001;stroke-linecap:butt;stroke-linejoin:round;stroke-miterlimit:10;stroke-dasharray:none;stroke-opacity:1"
           d="m 811.06019,327.19856 h -3.5" /><text
           transform="scale(1,-1)"
           style="font-variant:normal;font-weight:normal;font-size:10px;font-family:Arial;-inkscape-font-specification:Arial;writing-mode:lr-tb;fill:#000000;fill-opacity:1;fill-rule:nonzero;stroke:none"
           id="text1630"
           x="791.34149"
           y="-323.40256"><tspan
             x="791.34149 797.70398"
             y="-323.40256"
             sodipodi:role="line"
             id="tspan1628">80</tspan></text>
<path
           inkscape:connector-curvature="0"
           id="path1632"
           style="fill:#000000;fill-opacity:1;fill-rule:nonzero;stroke:none;stroke-width:0.1"
           d="m 811.06019,371.21356 h -3.5" /><path
           inkscape:connector-curvature="0"
           id="path1634"
           style="fill:none;stroke:#000000;stroke-width:0.80000001;stroke-linecap:butt;stroke-linejoin:round;stroke-miterlimit:10;stroke-dasharray:none;stroke-opacity:1"
           d="m 811.06019,371.21356 h -3.5" /><text
           transform="scale(1,-1)"
           style="font-variant:normal;font-weight:normal;font-size:10px;font-family:Arial;-inkscape-font-specification:Arial;writing-mode:lr-tb;fill:#000000;fill-opacity:1;fill-rule:nonzero;stroke:none"
           id="text1640"
           x="784.98212"
           y="-367.41757"><tspan
             x="784.98212 791.3446 797.70673"
             y="-367.41757"
             sodipodi:role="line"
             id="tspan1638">100</tspan></text>
<path
           inkscape:connector-curvature="0"
           id="path1642"
           style="fill:#000000;fill-opacity:1;fill-rule:nonzero;stroke:none;stroke-width:0.1"
           d="m 811.06019,415.22856 h -3.5" /><path
           inkscape:connector-curvature="0"
           id="path1644"
           style="fill:none;stroke:#000000;stroke-width:0.80000001;stroke-linecap:butt;stroke-linejoin:round;stroke-miterlimit:10;stroke-dasharray:none;stroke-opacity:1"
           d="m 811.06019,415.22856 h -3.5" /><text
           transform="scale(1,-1)"
           style="font-variant:normal;font-weight:normal;font-size:10px;font-family:Arial;-inkscape-font-specification:Arial;writing-mode:lr-tb;fill:#000000;fill-opacity:1;fill-rule:nonzero;stroke:none"
           id="text1650"
           x="784.98212"
           y="-411.43256"><tspan
             x="784.98212 791.3446 797.70673"
             y="-411.43256"
             sodipodi:role="line"
             id="tspan1648">120</tspan></text>
<path
           inkscape:connector-curvature="0"
           id="path1660"
           style="fill:none;stroke:#1f77b4;stroke-width:1.5;stroke-linecap:square;stroke-linejoin:round;stroke-miterlimit:10;stroke-dasharray:none;stroke-opacity:1"
           d="m 820.81289,170.79556 6.493,241.92 6.4934,-146.478 6.4929,-55.6521 6.493,-17.5762 6.493,-4.6453 6.493,-0.9899 6.493,-0.1421 6.494,-0.009 6.493,-8e-4 h 6.493 6.493 6.493 6.493 l 6.493,-4e-4 h 6.493 6.493 6.493 6.494 6.492 6.493 6.494 6.493 6.493 6.493 6.493 6.493 6.493 6.49301 6.493 6.493 6.494 6.493 6.493 6.493 6.493 6.493 6.493 6.493 6.493 6.494 6.493 6.493 6.492 6.494 6.493 6.493 6.493 6.493 6.493 6.493" /><path
           inkscape:connector-curvature="0"
           id="path1670"
           style="fill:none;stroke:#000000;stroke-width:0.80000001;stroke-linecap:square;stroke-linejoin:miter;stroke-miterlimit:10;stroke-dasharray:none;stroke-opacity:1"
           d="m 811.06019,150.77956 v 266.112" /><path
           inkscape:connector-curvature="0"
           id="path1672"
           style="fill:none;stroke:#000000;stroke-width:0.80000001;stroke-linecap:square;stroke-linejoin:miter;stroke-miterlimit:10;stroke-dasharray:none;stroke-opacity:1"
           d="m 1168.1802,150.77956 v 266.112" /><path
           inkscape:connector-curvature="0"
           id="path1674"
           style="fill:none;stroke:#000000;stroke-width:0.80000001;stroke-linecap:square;stroke-linejoin:miter;stroke-miterlimit:10;stroke-dasharray:none;stroke-opacity:1"
           d="M 811.06019,150.77956 H 1168.1802" /><path
           inkscape:connector-curvature="0"
           id="path1676"
           style="fill:none;stroke:#000000;stroke-width:0.80000001;stroke-linecap:square;stroke-linejoin:miter;stroke-miterlimit:10;stroke-dasharray:none;stroke-opacity:1"
           d="M 811.06019,416.89156 H 1168.1802" /></g><g
         id="text_4"
         style="stroke-linecap:butt;stroke-linejoin:round"
         transform="matrix(1,0,0,-1,1293.0805,395.01817)"><!-- Iteration --><g
           transform="matrix(0.1,0,0,-0.1,214.95141,335.86056)"
           id="g2532"
           style="stroke-linecap:butt;stroke-linejoin:round"><defs
             id="defs2512" /><use
             xlink:href="#DejaVuSans-73"
             id="use2514"
             style="stroke-linecap:butt;stroke-linejoin:round"
             x="0"
             y="0"
             width="100%"
             height="100%" /><use
             x="29.492188"
             xlink:href="#DejaVuSans-116"
             id="use2516"
             style="stroke-linecap:butt;stroke-linejoin:round"
             y="0"
             width="100%"
             height="100%" /><use
             x="68.701172"
             xlink:href="#DejaVuSans-101"
             id="use2518"
             style="stroke-linecap:butt;stroke-linejoin:round"
             y="0"
             width="100%"
             height="100%" /><use
             x="130.22461"
             xlink:href="#DejaVuSans-114"
             id="use2520"
             style="stroke-linecap:butt;stroke-linejoin:round"
             y="0"
             width="100%"
             height="100%" /><use
             x="171.33789"
             xlink:href="#DejaVuSans-97"
             id="use2522"
             style="stroke-linecap:butt;stroke-linejoin:round"
             y="0"
             width="100%"
             height="100%" /><use
             x="232.61719"
             xlink:href="#DejaVuSans-116"
             id="use2524"
             style="stroke-linecap:butt;stroke-linejoin:round"
             y="0"
             width="100%"
             height="100%" /><use
             x="271.82617"
             xlink:href="#DejaVuSans-105"
             id="use2526"
             style="stroke-linecap:butt;stroke-linejoin:round"
             y="0"
             width="100%"
             height="100%" /><use
             x="299.60938"
             xlink:href="#DejaVuSans-111"
             id="use2528"
             style="stroke-linecap:butt;stroke-linejoin:round"
             y="0"
             width="100%"
             height="100%" /><use
             x="360.79102"
             xlink:href="#DejaVuSans-110"
             id="use2530"
             style="stroke-linecap:butt;stroke-linejoin:round"
             y="0"
             width="100%"
             height="100%" /></g></g><g
         style="stroke-linecap:butt;stroke-linejoin:round"
         transform="matrix(0,1.2887622,1.2887622,0,1158.5998,10.655885)"
         ns1:version="0.11.0"
         ns1:texconverter="pdflatex"
         ns1:pdfconverter="pdf2svg"
         ns1:text="$J(p)$\n"
         ns1:preamble="default_packages.tex"
         ns1:scale="0.996579690344"
         ns1:alignment="middle center"
         ns1:jacobian_sqrt="0.99658"
         id="g4185"><g
           style="stroke-linecap:butt;stroke-linejoin:round"
           id="surface1"><g
             style="fill:#000000;fill-opacity:1;stroke-linecap:butt;stroke-linejoin:round"
             id="g4170"><path
               inkscape:connector-curvature="0"
               style="stroke:none;stroke-width:0;stroke-linecap:butt;stroke-linejoin:round"
               d="M 5.390625,-6.078125 C 5.46875,-6.40625 5.5,-6.5 6.046875,-6.5 c 0.15625,0 0.265625,0 0.265625,-0.1875 0,-0.09375 -0.0625,-0.125 -0.140625,-0.125 -0.25,0 -0.859375,0.03125 -1.109375,0.03125 -0.328125,0 -1.140625,-0.03125 -1.46875,-0.03125 -0.078125,0 -0.203125,0 -0.203125,0.203125 C 3.390625,-6.5 3.46875,-6.5 3.734375,-6.5 c 0.21875,0 0.328125,0 0.578125,0.015625 0.234375,0.03125 0.296875,0.0625 0.296875,0.203125 0,0.0625 -0.015625,0.125 -0.03125,0.203125 L 3.421875,-1.5 C 3.1875,-0.53125 2.515625,0 2,0 1.734375,0 1.203125,-0.09375 1.046875,-0.625 c 0.03125,0.015625 0.09375,0.015625 0.125,0.015625 0.390625,0 0.640625,-0.34375 0.640625,-0.640625 0,-0.3125 -0.265625,-0.421875 -0.4375,-0.421875 -0.171875,0 -0.671875,0.125 -0.671875,0.796875 0,0.625 0.53125,1.09375 1.328125,1.09375 0.90625,0 1.953125,-0.65625 2.203125,-1.640625 z m 0,0"
               transform="translate(148.712,134.765)"
               id="path4168" /></g><g
             style="fill:#000000;fill-opacity:1;stroke-linecap:butt;stroke-linejoin:round"
             id="g4174"><path
               inkscape:connector-curvature="0"
               style="stroke:none;stroke-width:0;stroke-linecap:butt;stroke-linejoin:round"
               d="m 3.296875,2.390625 c 0,-0.03125 0,-0.046875 -0.171875,-0.21875 C 1.890625,0.921875 1.5625,-0.96875 1.5625,-2.5 c 0,-1.734375 0.375,-3.46875 1.609375,-4.703125 0.125,-0.125 0.125,-0.140625 0.125,-0.171875 0,-0.078125 -0.03125,-0.109375 -0.09375,-0.109375 -0.109375,0 -1,0.6875 -1.59375,1.953125 -0.5,1.09375 -0.625,2.203125 -0.625,3.03125 0,0.78125 0.109375,1.984375 0.65625,3.125 C 2.25,1.84375 3.09375,2.5 3.203125,2.5 c 0.0625,0 0.09375,-0.03125 0.09375,-0.109375 z m 0,0"
               transform="translate(155.195,134.765)"
               id="path4172" /></g><g
             style="fill:#000000;fill-opacity:1;stroke-linecap:butt;stroke-linejoin:round"
             id="g4178"><path
               inkscape:connector-curvature="0"
               style="stroke:none;stroke-width:0;stroke-linecap:butt;stroke-linejoin:round"
               d="M 0.453125,1.21875 C 0.375,1.5625 0.34375,1.625 -0.09375,1.625 c -0.109375,0 -0.21875,0 -0.21875,0.1875 0,0.078125 0.046875,0.125 0.125,0.125 0.265625,0 0.5625,-0.03125 0.828125,-0.03125 0.34375,0 0.671875,0.03125 1,0.03125 0.046875,0 0.171875,0 0.171875,-0.203125 C 1.8125,1.625 1.71875,1.625 1.578125,1.625 c -0.5,0 -0.5,-0.0625 -0.5,-0.15625 0,-0.125 0.421875,-1.75 0.484375,-2 0.125,0.296875 0.40625,0.640625 0.921875,0.640625 1.15625,0 2.40625,-1.453125 2.40625,-2.921875 0,-0.9375 -0.578125,-1.59375 -1.328125,-1.59375 -0.5,0 -0.984375,0.359375 -1.3125,0.75 -0.09375,-0.546875 -0.53125,-0.75 -0.890625,-0.75 -0.46875,0 -0.65625,0.390625 -0.734375,0.5625 C 0.4375,-3.5 0.3125,-2.90625 0.3125,-2.875 c 0,0.109375 0.09375,0.109375 0.109375,0.109375 0.109375,0 0.109375,-0.015625 0.171875,-0.234375 0.171875,-0.703125 0.375,-1.1875 0.734375,-1.1875 0.171875,0 0.3125,0.078125 0.3125,0.453125 0,0.234375 -0.03125,0.34375 -0.078125,0.515625 z m 1.75,-4.328125 C 2.265625,-3.375 2.546875,-3.65625 2.71875,-3.8125 c 0.359375,-0.296875 0.640625,-0.375 0.8125,-0.375 0.390625,0 0.640625,0.34375 0.640625,0.9375 0,0.59375 -0.328125,1.734375 -0.515625,2.109375 -0.34375,0.703125 -0.8125,1.03125 -1.1875,1.03125 C 1.8125,-0.109375 1.6875,-0.9375 1.6875,-1 c 0,-0.015625 0,-0.03125 0.03125,-0.15625 z m 0,0"
               transform="translate(159.069,134.765)"
               id="path4176" /></g><g
             style="fill:#000000;fill-opacity:1;stroke-linecap:butt;stroke-linejoin:round"
             id="g4182"><path
               inkscape:connector-curvature="0"
               style="stroke:none;stroke-width:0;stroke-linecap:butt;stroke-linejoin:round"
               d="m 2.875,-2.5 c 0,-0.765625 -0.109375,-1.96875 -0.65625,-3.109375 -0.59375,-1.21875 -1.453125,-1.875 -1.546875,-1.875 -0.0625,0 -0.109375,0.046875 -0.109375,0.109375 0,0.03125 0,0.046875 0.1875,0.234375 0.984375,0.984375 1.546875,2.5625 1.546875,4.640625 0,1.71875 -0.359375,3.46875 -1.59375,4.71875 C 0.5625,2.34375 0.5625,2.359375 0.5625,2.390625 0.5625,2.453125 0.609375,2.5 0.671875,2.5 0.765625,2.5 1.671875,1.8125 2.25,0.546875 2.765625,-0.546875 2.875,-1.65625 2.875,-2.5 Z m 0,0"
               transform="translate(164.082,134.765)"
               id="path4180" /></g></g></g></g></g></svg>