<?xml version="1.0" encoding="utf-8" standalone="no"?>
<!DOCTYPE svg PUBLIC "-//W3C//DTD SVG 1.1//EN"
  "http://www.w3.org/Graphics/SVG/1.1/DTD/svg11.dtd">
<!-- Created with matplotlib (http://matplotlib.org/) -->
<svg height="345pt" version="1.1" viewBox="0 0 460 345" width="460pt" xmlns="http://www.w3.org/2000/svg" xmlns:xlink="http://www.w3.org/1999/xlink">
 <defs>
  <style type="text/css">
*{stroke-linecap:butt;stroke-linejoin:round;}
  </style>
 </defs>
 <g id="figure_1">
  <g id="patch_1">
   <path d="M 0 345.6 
L 460.8 345.6 
L 460.8 0 
L 0 0 
z
" style="fill:#ffffff;"/>
  </g>
  <g id="axes_1">
   <g id="patch_2">
    <path d="M 57.6 307.584 
L 414.72 307.584 
L 414.72 41.472 
L 57.6 41.472 
z
" style="fill:#ffffff;"/>
   </g>
   <g id="matplotlib.axis_1">
    <g id="xtick_1">
     <g id="line2d_1">
      <defs>
       <path d="M 0 0 
L 0 3.5 
" id="m626eab615a" style="stroke:#000000;stroke-width:0.8;"/>
      </defs>
      <g>
       <use style="stroke:#000000;stroke-width:0.8;" x="57.6" xlink:href="#m626eab615a" y="307.584"/>
      </g>
     </g>
     <g id="text_1">
      <!-- 0.0 -->
      <defs>
       <path d="M 31.78125 66.40625 
Q 24.171875 66.40625 20.328125 58.90625 
Q 16.5 51.421875 16.5 36.375 
Q 16.5 21.390625 20.328125 13.890625 
Q 24.171875 6.390625 31.78125 6.390625 
Q 39.453125 6.390625 43.28125 13.890625 
Q 47.125 21.390625 47.125 36.375 
Q 47.125 51.421875 43.28125 58.90625 
Q 39.453125 66.40625 31.78125 66.40625 
z
M 31.78125 74.21875 
Q 44.046875 74.21875 50.515625 64.515625 
Q 56.984375 54.828125 56.984375 36.375 
Q 56.984375 17.96875 50.515625 8.265625 
Q 44.046875 -1.421875 31.78125 -1.421875 
Q 19.53125 -1.421875 13.0625 8.265625 
Q 6.59375 17.96875 6.59375 36.375 
Q 6.59375 54.828125 13.0625 64.515625 
Q 19.53125 74.21875 31.78125 74.21875 
z
" id="DejaVuSans-30"/>
       <path d="M 10.6875 12.40625 
L 21 12.40625 
L 21 0 
L 10.6875 0 
z
" id="DejaVuSans-2e"/>
      </defs>
      <g transform="translate(49.648438 322.182437)scale(0.1 -0.1)">
       <use xlink:href="#DejaVuSans-30"/>
       <use x="63.623047" xlink:href="#DejaVuSans-2e"/>
       <use x="95.410156" xlink:href="#DejaVuSans-30"/>
      </g>
     </g>
    </g>
    <g id="xtick_2">
     <g id="line2d_2">
      <g>
       <use style="stroke:#000000;stroke-width:0.8;" x="129.024" xlink:href="#m626eab615a" y="307.584"/>
      </g>
     </g>
     <g id="text_2">
      <!-- 0.2 -->
      <defs>
       <path d="M 19.1875 8.296875 
L 53.609375 8.296875 
L 53.609375 0 
L 7.328125 0 
L 7.328125 8.296875 
Q 12.9375 14.109375 22.625 23.890625 
Q 32.328125 33.6875 34.8125 36.53125 
Q 39.546875 41.84375 41.421875 45.53125 
Q 43.3125 49.21875 43.3125 52.78125 
Q 43.3125 58.59375 39.234375 62.25 
Q 35.15625 65.921875 28.609375 65.921875 
Q 23.96875 65.921875 18.8125 64.3125 
Q 13.671875 62.703125 7.8125 59.421875 
L 7.8125 69.390625 
Q 13.765625 71.78125 18.9375 73 
Q 24.125 74.21875 28.421875 74.21875 
Q 39.75 74.21875 46.484375 68.546875 
Q 53.21875 62.890625 53.21875 53.421875 
Q 53.21875 48.921875 51.53125 44.890625 
Q 49.859375 40.875 45.40625 35.40625 
Q 44.1875 33.984375 37.640625 27.21875 
Q 31.109375 20.453125 19.1875 8.296875 
z
" id="DejaVuSans-32"/>
      </defs>
      <g transform="translate(121.072438 322.182437)scale(0.1 -0.1)">
       <use xlink:href="#DejaVuSans-30"/>
       <use x="63.623047" xlink:href="#DejaVuSans-2e"/>
       <use x="95.410156" xlink:href="#DejaVuSans-32"/>
      </g>
     </g>
    </g>
    <g id="xtick_3">
     <g id="line2d_3">
      <g>
       <use style="stroke:#000000;stroke-width:0.8;" x="200.448" xlink:href="#m626eab615a" y="307.584"/>
      </g>
     </g>
     <g id="text_3">
      <!-- 0.4 -->
      <defs>
       <path d="M 37.796875 64.3125 
L 12.890625 25.390625 
L 37.796875 25.390625 
z
M 35.203125 72.90625 
L 47.609375 72.90625 
L 47.609375 25.390625 
L 58.015625 25.390625 
L 58.015625 17.1875 
L 47.609375 17.1875 
L 47.609375 0 
L 37.796875 0 
L 37.796875 17.1875 
L 4.890625 17.1875 
L 4.890625 26.703125 
z
" id="DejaVuSans-34"/>
      </defs>
      <g transform="translate(192.496438 322.182437)scale(0.1 -0.1)">
       <use xlink:href="#DejaVuSans-30"/>
       <use x="63.623047" xlink:href="#DejaVuSans-2e"/>
       <use x="95.410156" xlink:href="#DejaVuSans-34"/>
      </g>
     </g>
    </g>
    <g id="xtick_4">
     <g id="line2d_4">
      <g>
       <use style="stroke:#000000;stroke-width:0.8;" x="271.872" xlink:href="#m626eab615a" y="307.584"/>
      </g>
     </g>
     <g id="text_4">
      <!-- 0.6 -->
      <defs>
       <path d="M 33.015625 40.375 
Q 26.375 40.375 22.484375 35.828125 
Q 18.609375 31.296875 18.609375 23.390625 
Q 18.609375 15.53125 22.484375 10.953125 
Q 26.375 6.390625 33.015625 6.390625 
Q 39.65625 6.390625 43.53125 10.953125 
Q 47.40625 15.53125 47.40625 23.390625 
Q 47.40625 31.296875 43.53125 35.828125 
Q 39.65625 40.375 33.015625 40.375 
z
M 52.59375 71.296875 
L 52.59375 62.3125 
Q 48.875 64.0625 45.09375 64.984375 
Q 41.3125 65.921875 37.59375 65.921875 
Q 27.828125 65.921875 22.671875 59.328125 
Q 17.53125 52.734375 16.796875 39.40625 
Q 19.671875 43.65625 24.015625 45.921875 
Q 28.375 48.1875 33.59375 48.1875 
Q 44.578125 48.1875 50.953125 41.515625 
Q 57.328125 34.859375 57.328125 23.390625 
Q 57.328125 12.15625 50.6875 5.359375 
Q 44.046875 -1.421875 33.015625 -1.421875 
Q 20.359375 -1.421875 13.671875 8.265625 
Q 6.984375 17.96875 6.984375 36.375 
Q 6.984375 53.65625 15.1875 63.9375 
Q 23.390625 74.21875 37.203125 74.21875 
Q 40.921875 74.21875 44.703125 73.484375 
Q 48.484375 72.75 52.59375 71.296875 
z
" id="DejaVuSans-36"/>
      </defs>
      <g transform="translate(263.920438 322.182437)scale(0.1 -0.1)">
       <use xlink:href="#DejaVuSans-30"/>
       <use x="63.623047" xlink:href="#DejaVuSans-2e"/>
       <use x="95.410156" xlink:href="#DejaVuSans-36"/>
      </g>
     </g>
    </g>
    <g id="xtick_5">
     <g id="line2d_5">
      <g>
       <use style="stroke:#000000;stroke-width:0.8;" x="343.296" xlink:href="#m626eab615a" y="307.584"/>
      </g>
     </g>
     <g id="text_5">
      <!-- 0.8 -->
      <defs>
       <path d="M 31.78125 34.625 
Q 24.75 34.625 20.71875 30.859375 
Q 16.703125 27.09375 16.703125 20.515625 
Q 16.703125 13.921875 20.71875 10.15625 
Q 24.75 6.390625 31.78125 6.390625 
Q 38.8125 6.390625 42.859375 10.171875 
Q 46.921875 13.96875 46.921875 20.515625 
Q 46.921875 27.09375 42.890625 30.859375 
Q 38.875 34.625 31.78125 34.625 
z
M 21.921875 38.8125 
Q 15.578125 40.375 12.03125 44.71875 
Q 8.5 49.078125 8.5 55.328125 
Q 8.5 64.0625 14.71875 69.140625 
Q 20.953125 74.21875 31.78125 74.21875 
Q 42.671875 74.21875 48.875 69.140625 
Q 55.078125 64.0625 55.078125 55.328125 
Q 55.078125 49.078125 51.53125 44.71875 
Q 48 40.375 41.703125 38.8125 
Q 48.828125 37.15625 52.796875 32.3125 
Q 56.78125 27.484375 56.78125 20.515625 
Q 56.78125 9.90625 50.3125 4.234375 
Q 43.84375 -1.421875 31.78125 -1.421875 
Q 19.734375 -1.421875 13.25 4.234375 
Q 6.78125 9.90625 6.78125 20.515625 
Q 6.78125 27.484375 10.78125 32.3125 
Q 14.796875 37.15625 21.921875 38.8125 
z
M 18.3125 54.390625 
Q 18.3125 48.734375 21.84375 45.5625 
Q 25.390625 42.390625 31.78125 42.390625 
Q 38.140625 42.390625 41.71875 45.5625 
Q 45.3125 48.734375 45.3125 54.390625 
Q 45.3125 60.0625 41.71875 63.234375 
Q 38.140625 66.40625 31.78125 66.40625 
Q 25.390625 66.40625 21.84375 63.234375 
Q 18.3125 60.0625 18.3125 54.390625 
z
" id="DejaVuSans-38"/>
      </defs>
      <g transform="translate(335.344438 322.182437)scale(0.1 -0.1)">
       <use xlink:href="#DejaVuSans-30"/>
       <use x="63.623047" xlink:href="#DejaVuSans-2e"/>
       <use x="95.410156" xlink:href="#DejaVuSans-38"/>
      </g>
     </g>
    </g>
    <g id="xtick_6">
     <g id="line2d_6">
      <g>
       <use style="stroke:#000000;stroke-width:0.8;" x="414.72" xlink:href="#m626eab615a" y="307.584"/>
      </g>
     </g>
     <g id="text_6">
      <!-- 1.0 -->
      <defs>
       <path d="M 12.40625 8.296875 
L 28.515625 8.296875 
L 28.515625 63.921875 
L 10.984375 60.40625 
L 10.984375 69.390625 
L 28.421875 72.90625 
L 38.28125 72.90625 
L 38.28125 8.296875 
L 54.390625 8.296875 
L 54.390625 0 
L 12.40625 0 
z
" id="DejaVuSans-31"/>
      </defs>
      <g transform="translate(406.768438 322.182437)scale(0.1 -0.1)">
       <use xlink:href="#DejaVuSans-31"/>
       <use x="63.623047" xlink:href="#DejaVuSans-2e"/>
       <use x="95.410156" xlink:href="#DejaVuSans-30"/>
      </g>
     </g>
    </g>
    <g id="text_7">
     <!-- $x'_{i}$ -->
     <defs>
      <path d="M 60.015625 54.6875 
L 34.90625 27.875 
L 50.296875 0 
L 39.984375 0 
L 28.421875 21.6875 
L 8.296875 0 
L -2.59375 0 
L 24.3125 28.8125 
L 10.015625 54.6875 
L 20.3125 54.6875 
L 30.8125 34.90625 
L 49.125 54.6875 
z
" id="DejaVuSans-Oblique-78"/>
      <path d="M 3.515625 5.421875 
Q 2.875 5.609375 2.875 6.390625 
L 15.09375 51.8125 
Q 15.671875 53.65625 17.078125 54.78125 
Q 18.5 55.90625 20.3125 55.90625 
Q 22.65625 55.90625 24.4375 54.359375 
Q 26.21875 52.828125 26.21875 50.484375 
Q 26.21875 49.46875 25.6875 48.1875 
L 7.625 4.984375 
Q 7.28125 4.296875 6.6875 4.296875 
Q 6.15625 4.296875 5 4.78125 
Q 3.859375 5.28125 3.515625 5.421875 
z
" id="Cmsy10-30"/>
      <path d="M 18.3125 75.984375 
L 27.296875 75.984375 
L 25.09375 64.59375 
L 16.109375 64.59375 
z
M 14.203125 54.6875 
L 23.1875 54.6875 
L 12.5 0 
L 3.515625 0 
z
" id="DejaVuSans-Oblique-69"/>
     </defs>
     <g transform="translate(230.71 335.860562)scale(0.1 -0.1)">
      <use transform="translate(0 0.584375)" xlink:href="#DejaVuSans-Oblique-78"/>
      <use transform="translate(63.645833 38.865625)scale(0.7)" xlink:href="#Cmsy10-30"/>
      <use transform="translate(86.580404 -15.821875)scale(0.7)" xlink:href="#DejaVuSans-Oblique-69"/>
     </g>
    </g>
   </g>
   <g id="matplotlib.axis_2">
    <g id="ytick_1">
     <g id="line2d_7">
      <defs>
       <path d="M 0 0 
L -3.5 0 
" id="m62c590d831" style="stroke:#000000;stroke-width:0.8;"/>
      </defs>
      <g>
       <use style="stroke:#000000;stroke-width:0.8;" x="57.6" xlink:href="#m62c590d831" y="307.584"/>
      </g>
     </g>
     <g id="text_8">
      <!-- 0.0 -->
      <g transform="translate(34.696875 311.383219)scale(0.1 -0.1)">
       <use xlink:href="#DejaVuSans-30"/>
       <use x="63.623047" xlink:href="#DejaVuSans-2e"/>
       <use x="95.410156" xlink:href="#DejaVuSans-30"/>
      </g>
     </g>
    </g>
    <g id="ytick_2">
     <g id="line2d_8">
      <g>
       <use style="stroke:#000000;stroke-width:0.8;" x="57.6" xlink:href="#m62c590d831" y="254.3616"/>
      </g>
     </g>
     <g id="text_9">
      <!-- 0.2 -->
      <g transform="translate(34.696875 258.160819)scale(0.1 -0.1)">
       <use xlink:href="#DejaVuSans-30"/>
       <use x="63.623047" xlink:href="#DejaVuSans-2e"/>
       <use x="95.410156" xlink:href="#DejaVuSans-32"/>
      </g>
     </g>
    </g>
    <g id="ytick_3">
     <g id="line2d_9">
      <g>
       <use style="stroke:#000000;stroke-width:0.8;" x="57.6" xlink:href="#m62c590d831" y="201.1392"/>
      </g>
     </g>
     <g id="text_10">
      <!-- 0.4 -->
      <g transform="translate(34.696875 204.938419)scale(0.1 -0.1)">
       <use xlink:href="#DejaVuSans-30"/>
       <use x="63.623047" xlink:href="#DejaVuSans-2e"/>
       <use x="95.410156" xlink:href="#DejaVuSans-34"/>
      </g>
     </g>
    </g>
    <g id="ytick_4">
     <g id="line2d_10">
      <g>
       <use style="stroke:#000000;stroke-width:0.8;" x="57.6" xlink:href="#m62c590d831" y="147.9168"/>
      </g>
     </g>
     <g id="text_11">
      <!-- 0.6 -->
      <g transform="translate(34.696875 151.716019)scale(0.1 -0.1)">
       <use xlink:href="#DejaVuSans-30"/>
       <use x="63.623047" xlink:href="#DejaVuSans-2e"/>
       <use x="95.410156" xlink:href="#DejaVuSans-36"/>
      </g>
     </g>
    </g>
    <g id="ytick_5">
     <g id="line2d_11">
      <g>
       <use style="stroke:#000000;stroke-width:0.8;" x="57.6" xlink:href="#m62c590d831" y="94.6944"/>
      </g>
     </g>
     <g id="text_12">
      <!-- 0.8 -->
      <g transform="translate(34.696875 98.493619)scale(0.1 -0.1)">
       <use xlink:href="#DejaVuSans-30"/>
       <use x="63.623047" xlink:href="#DejaVuSans-2e"/>
       <use x="95.410156" xlink:href="#DejaVuSans-38"/>
      </g>
     </g>
    </g>
    <g id="ytick_6">
     <g id="line2d_12">
      <g>
       <use style="stroke:#000000;stroke-width:0.8;" x="57.6" xlink:href="#m62c590d831" y="41.472"/>
      </g>
     </g>
     <g id="text_13">
      <!-- 1.0 -->
      <g transform="translate(34.696875 45.271219)scale(0.1 -0.1)">
       <use xlink:href="#DejaVuSans-31"/>
       <use x="63.623047" xlink:href="#DejaVuSans-2e"/>
       <use x="95.410156" xlink:href="#DejaVuSans-30"/>
      </g>
     </g>
    </g>
    <g id="text_14">
     <!-- $x_{i}$ -->
     <g transform="translate(28.617188 178.628)rotate(-90)scale(0.1 -0.1)">
      <use transform="translate(0 0.3125)" xlink:href="#DejaVuSans-Oblique-78"/>
      <use transform="translate(59.179688 -16.09375)scale(0.7)" xlink:href="#DejaVuSans-Oblique-69"/>
     </g>
    </g>
   </g>
   <g id="line2d_13">
    <path clip-path="url(#pc3666344d0)" d="M 57.6 307.584 
L 61.1712 304.789158 
L 64.7424 302.002545 
L 68.3136 299.223981 
L 71.8848 296.453285 
L 75.456 293.690279 
L 79.0272 290.934783 
L 82.5984 288.186621 
L 86.1696 285.445615 
L 89.7408 282.71159 
L 93.312 279.984368 
L 96.8832 277.263777 
L 100.4544 274.549641 
L 104.0256 271.841788 
L 107.5968 269.140044 
L 111.168 266.444236 
L 114.7392 263.754194 
L 118.3104 261.069746 
L 121.8816 258.390722 
L 125.4528 255.716951 
L 129.024 253.048265 
L 132.5952 250.384493 
L 136.1664 247.725468 
L 139.7376 245.071022 
L 143.3088 242.420987 
L 146.88 239.775196 
L 150.4512 237.133483 
L 154.0224 234.49568 
L 157.5936 231.861623 
L 161.1648 229.231145 
L 164.736 226.604082 
L 168.3072 223.980268 
L 171.8784 221.35954 
L 175.4496 218.741733 
L 179.0208 216.126682 
L 182.592 213.514226 
L 186.1632 210.904199 
L 189.7344 208.29644 
L 193.3056 205.690785 
L 196.8768 203.087071 
L 200.448 200.485136 
L 204.0192 197.884819 
L 207.5904 195.285955 
L 211.1616 192.688385 
L 214.7328 190.091945 
L 218.304 187.496474 
L 221.8752 184.901811 
L 225.4464 182.307793 
L 229.0176 179.71426 
L 232.5888 177.121049 
L 236.16 174.528 
L 239.7312 171.934951 
L 243.3024 169.34174 
L 246.8736 166.748207 
L 250.4448 164.154189 
L 254.016 161.559526 
L 257.5872 158.964055 
L 261.1584 156.367615 
L 264.7296 153.770045 
L 268.3008 151.171181 
L 271.872 148.570864 
L 275.4432 145.968929 
L 279.0144 143.365215 
L 282.5856 140.75956 
L 286.1568 138.151801 
L 289.728 135.541774 
L 293.2992 132.929318 
L 296.8704 130.314267 
L 300.4416 127.69646 
L 304.0128 125.075732 
L 307.584 122.451918 
L 311.1552 119.824855 
L 314.7264 117.194377 
L 318.2976 114.56032 
L 321.8688 111.922517 
L 325.44 109.280804 
L 329.0112 106.635013 
L 332.5824 103.984978 
L 336.1536 101.330532 
L 339.7248 98.671507 
L 343.296 96.007735 
L 346.8672 93.339049 
L 350.4384 90.665278 
L 354.0096 87.986254 
L 357.5808 85.301806 
L 361.152 82.611764 
L 364.7232 79.915956 
L 368.2944 77.214212 
L 371.8656 74.506359 
L 375.4368 71.792223 
L 379.008 69.071632 
L 382.5792 66.34441 
L 386.1504 63.610385 
L 389.7216 60.869379 
L 393.2928 58.121217 
L 396.864 55.365721 
L 400.4352 52.602715 
L 404.0064 49.832019 
L 407.5776 47.053455 
L 411.1488 44.266842 
L 414.72 41.472 
" style="fill:none;stroke:#1f77b4;stroke-dasharray:1.5,2.475;stroke-dashoffset:0;stroke-width:1.5;"/>
   </g>
   <g id="line2d_14">
    <path clip-path="url(#pc3666344d0)" d="M 57.6 307.584 
L 61.1712 294.921291 
L 64.7424 283.46346 
L 68.3136 273.095833 
L 71.8848 263.71465 
L 75.456 255.226021 
L 79.0272 247.54499 
L 82.5984 240.594685 
L 86.1696 234.305545 
L 89.7408 228.614628 
L 93.312 223.464979 
L 96.8832 218.805059 
L 100.4544 214.588232 
L 104.0256 210.772295 
L 107.5968 207.319059 
L 111.168 204.193962 
L 114.7392 201.365731 
L 118.3104 198.806059 
L 121.8816 196.489331 
L 125.4528 194.39236 
L 129.024 192.494161 
L 132.5952 190.775736 
L 136.1664 189.21989 
L 139.7376 187.811051 
L 143.3088 186.535121 
L 146.88 185.379331 
L 150.4512 184.332114 
L 154.0224 183.382991 
L 157.5936 182.522464 
L 161.1648 181.741922 
L 164.736 181.033553 
L 168.3072 180.39027 
L 171.8784 179.805636 
L 175.4496 179.2738 
L 179.0208 178.789442 
L 182.592 178.347714 
L 186.1632 177.944196 
L 189.7344 177.574853 
L 193.3056 177.235987 
L 196.8768 176.92421 
L 200.448 176.636401 
L 204.0192 176.369682 
L 207.5904 176.121384 
L 211.1616 175.889023 
L 214.7328 175.670276 
L 218.304 175.462953 
L 221.8752 175.264982 
L 225.4464 175.074382 
L 229.0176 174.889247 
L 232.5888 174.707725 
L 236.16 174.528 
L 239.7312 174.348275 
L 243.3024 174.166753 
L 246.8736 173.981618 
L 250.4448 173.791018 
L 254.016 173.593047 
L 257.5872 173.385724 
L 261.1584 173.166977 
L 264.7296 172.934616 
L 268.3008 172.686318 
L 271.872 172.419599 
L 275.4432 172.13179 
L 279.0144 171.820013 
L 282.5856 171.481147 
L 286.1568 171.111804 
L 289.728 170.708286 
L 293.2992 170.266558 
L 296.8704 169.7822 
L 300.4416 169.250364 
L 304.0128 168.66573 
L 307.584 168.022447 
L 311.1552 167.314078 
L 314.7264 166.533536 
L 318.2976 165.673009 
L 321.8688 164.723886 
L 325.44 163.676669 
L 329.0112 162.520879 
L 332.5824 161.244949 
L 336.1536 159.83611 
L 339.7248 158.280264 
L 343.296 156.561839 
L 346.8672 154.66364 
L 350.4384 152.566669 
L 354.0096 150.249941 
L 357.5808 147.690269 
L 361.152 144.862038 
L 364.7232 141.736941 
L 368.2944 138.283705 
L 371.8656 134.467768 
L 375.4368 130.250941 
L 379.008 125.591021 
L 382.5792 120.441372 
L 386.1504 114.750455 
L 389.7216 108.461315 
L 393.2928 101.51101 
L 396.864 93.829979 
L 400.4352 85.34135 
L 404.0064 75.960167 
L 407.5776 65.59254 
L 411.1488 54.134709 
L 414.72 41.472 
" style="fill:none;stroke:#ff7f0e;stroke-dasharray:9.6,2.4,1.5,2.4;stroke-dashoffset:0;stroke-width:1.5;"/>
   </g>
   <g id="line2d_15">
    <path clip-path="url(#pc3666344d0)" d="M 57.6 307.584 
L 61.1712 283.465039 
L 64.7424 263.718104 
L 68.3136 247.550681 
L 71.8848 234.313914 
L 75.456 223.476566 
L 79.0272 214.603696 
L 82.5984 207.339205 
L 86.1696 201.391542 
L 89.7408 196.522007 
L 93.312 192.53517 
L 96.8832 189.271023 
L 100.4544 186.598565 
L 104.0256 184.410542 
L 107.5968 182.619139 
L 111.168 181.152463 
L 114.7392 179.951649 
L 118.3104 178.968506 
L 121.8816 178.163575 
L 125.4528 177.504553 
L 129.024 176.964991 
L 132.5952 176.523233 
L 136.1664 176.161552 
L 139.7376 175.86543 
L 143.3088 175.622984 
L 146.88 175.424484 
L 150.4512 175.261962 
L 154.0224 175.128898 
L 157.5936 175.019949 
L 161.1648 174.930744 
L 164.736 174.857702 
L 168.3072 174.797893 
L 171.8784 174.748915 
L 175.4496 174.708804 
L 179.0208 174.675948 
L 182.592 174.649031 
L 186.1632 174.62697 
L 189.7344 174.608882 
L 193.3056 174.59404 
L 196.8768 174.581848 
L 200.448 174.571818 
L 204.0192 174.563546 
L 207.5904 174.5567 
L 211.1616 174.551007 
L 214.7328 174.546237 
L 218.304 174.542198 
L 221.8752 174.53873 
L 225.4464 174.535692 
L 229.0176 174.532963 
L 232.5888 174.530432 
L 236.16 174.528 
L 239.7312 174.525568 
L 243.3024 174.523037 
L 246.8736 174.520308 
L 250.4448 174.51727 
L 254.016 174.513802 
L 257.5872 174.509763 
L 261.1584 174.504993 
L 264.7296 174.4993 
L 268.3008 174.492454 
L 271.872 174.484182 
L 275.4432 174.474152 
L 279.0144 174.46196 
L 282.5856 174.447118 
L 286.1568 174.42903 
L 289.728 174.406969 
L 293.2992 174.380052 
L 296.8704 174.347196 
L 300.4416 174.307085 
L 304.0128 174.258107 
L 307.584 174.198298 
L 311.1552 174.125256 
L 314.7264 174.036051 
L 318.2976 173.927102 
L 321.8688 173.794038 
L 325.44 173.631516 
L 329.0112 173.433016 
L 332.5824 173.19057 
L 336.1536 172.894448 
L 339.7248 172.532767 
L 343.296 172.091009 
L 346.8672 171.551447 
L 350.4384 170.892425 
L 354.0096 170.087494 
L 357.5808 169.104351 
L 361.152 167.903537 
L 364.7232 166.436861 
L 368.2944 164.645458 
L 371.8656 162.457435 
L 375.4368 159.784977 
L 379.008 156.52083 
L 382.5792 152.533993 
L 386.1504 147.664458 
L 389.7216 141.716795 
L 393.2928 134.452304 
L 396.864 125.579434 
L 400.4352 114.742086 
L 404.0064 101.505319 
L 407.5776 85.337896 
L 411.1488 65.590961 
L 414.72 41.472 
" style="fill:none;stroke:#2ca02c;stroke-dasharray:5.55,2.4;stroke-dashoffset:0;stroke-width:1.5;"/>
   </g>
   <g id="line2d_16">
    <path clip-path="url(#pc3666344d0)" d="M 57.6 307.584 
L 61.1712 255.230543 
L 64.7424 223.476567 
L 68.3136 204.216807 
L 71.8848 192.535171 
L 75.456 185.449902 
L 79.0272 181.152468 
L 82.5984 178.545943 
L 86.1696 176.965006 
L 89.7408 176.006119 
L 93.312 175.424524 
L 96.8832 175.071769 
L 100.4544 174.857813 
L 104.0256 174.728042 
L 107.5968 174.649331 
L 111.168 174.601591 
L 114.7392 174.572635 
L 118.3104 174.555073 
L 121.8816 174.54442 
L 125.4528 174.537959 
L 129.024 174.534041 
L 132.5952 174.531664 
L 136.1664 174.530222 
L 139.7376 174.529348 
L 143.3088 174.528818 
L 146.88 174.528496 
L 150.4512 174.528301 
L 154.0224 174.528182 
L 157.5936 174.528111 
L 161.1648 174.528067 
L 164.736 174.528041 
L 168.3072 174.528025 
L 171.8784 174.528015 
L 175.4496 174.528009 
L 179.0208 174.528006 
L 182.592 174.528003 
L 186.1632 174.528002 
L 189.7344 174.528001 
L 193.3056 174.528001 
L 196.8768 174.528 
L 200.448 174.528 
L 204.0192 174.528 
L 207.5904 174.528 
L 211.1616 174.528 
L 214.7328 174.528 
L 218.304 174.528 
L 221.8752 174.528 
L 225.4464 174.528 
L 229.0176 174.528 
L 232.5888 174.528 
L 236.16 174.528 
L 239.7312 174.528 
L 243.3024 174.528 
L 246.8736 174.528 
L 250.4448 174.528 
L 254.016 174.528 
L 257.5872 174.528 
L 261.1584 174.528 
L 264.7296 174.528 
L 268.3008 174.528 
L 271.872 174.528 
L 275.4432 174.528 
L 279.0144 174.527999 
L 282.5856 174.527999 
L 286.1568 174.527998 
L 289.728 174.527997 
L 293.2992 174.527994 
L 296.8704 174.527991 
L 300.4416 174.527985 
L 304.0128 174.527975 
L 307.584 174.527959 
L 311.1552 174.527933 
L 314.7264 174.527889 
L 318.2976 174.527818 
L 321.8688 174.527699 
L 325.44 174.527504 
L 329.0112 174.527182 
L 332.5824 174.526652 
L 336.1536 174.525778 
L 339.7248 174.524336 
L 343.296 174.521959 
L 346.8672 174.518041 
L 350.4384 174.51158 
L 354.0096 174.500927 
L 357.5808 174.483365 
L 361.152 174.454409 
L 364.7232 174.406669 
L 368.2944 174.327958 
L 371.8656 174.198187 
L 375.4368 173.984231 
L 379.008 173.631476 
L 382.5792 173.049881 
L 386.1504 172.090994 
L 389.7216 170.510057 
L 393.2928 167.903532 
L 396.864 163.606098 
L 400.4352 156.520829 
L 404.0064 144.839193 
L 407.5776 125.579433 
L 411.1488 93.825457 
L 414.72 41.472 
" style="fill:none;stroke:#d62728;stroke-linecap:square;stroke-width:1.5;"/>
   </g>
   <g id="patch_3">
    <path d="M 57.6 307.584 
L 57.6 41.472 
" style="fill:none;stroke:#000000;stroke-linecap:square;stroke-linejoin:miter;stroke-width:0.8;"/>
   </g>
   <g id="patch_4">
    <path d="M 414.72 307.584 
L 414.72 41.472 
" style="fill:none;stroke:#000000;stroke-linecap:square;stroke-linejoin:miter;stroke-width:0.8;"/>
   </g>
   <g id="patch_5">
    <path d="M 57.6 307.584 
L 414.72 307.584 
" style="fill:none;stroke:#000000;stroke-linecap:square;stroke-linejoin:miter;stroke-width:0.8;"/>
   </g>
   <g id="patch_6">
    <path d="M 57.6 41.472 
L 414.72 41.472 
" style="fill:none;stroke:#000000;stroke-linecap:square;stroke-linejoin:miter;stroke-width:0.8;"/>
   </g>
   <g id="legend_1">
    <g id="patch_7">
     <path d="M 64.6 108.1845 
L 129.270312 108.1845 
Q 131.270312 108.1845 131.270312 106.1845 
L 131.270312 48.472 
Q 131.270312 46.472 129.270312 46.472 
L 64.6 46.472 
Q 62.6 46.472 62.6 48.472 
L 62.6 106.1845 
Q 62.6 108.1845 64.6 108.1845 
z
" style="fill:#ffffff;opacity:0.8;stroke:#cccccc;stroke-linejoin:miter;"/>
    </g>
    <g id="line2d_17">
     <path d="M 66.6 54.570438 
L 86.6 54.570438 
" style="fill:none;stroke:#1f77b4;stroke-dasharray:1.5,2.475;stroke-dashoffset:0;stroke-width:1.5;"/>
    </g>
    <g id="line2d_18"/>
    <g id="text_15">
     <!-- s = 1 -->
     <defs>
      <path d="M 44.28125 53.078125 
L 44.28125 44.578125 
Q 40.484375 46.53125 36.375 47.5 
Q 32.28125 48.484375 27.875 48.484375 
Q 21.1875 48.484375 17.84375 46.4375 
Q 14.5 44.390625 14.5 40.28125 
Q 14.5 37.15625 16.890625 35.375 
Q 19.28125 33.59375 26.515625 31.984375 
L 29.59375 31.296875 
Q 39.15625 29.25 43.1875 25.515625 
Q 47.21875 21.78125 47.21875 15.09375 
Q 47.21875 7.46875 41.1875 3.015625 
Q 35.15625 -1.421875 24.609375 -1.421875 
Q 20.21875 -1.421875 15.453125 -0.5625 
Q 10.6875 0.296875 5.421875 2 
L 5.421875 11.28125 
Q 10.40625 8.6875 15.234375 7.390625 
Q 20.0625 6.109375 24.8125 6.109375 
Q 31.15625 6.109375 34.5625 8.28125 
Q 37.984375 10.453125 37.984375 14.40625 
Q 37.984375 18.0625 35.515625 20.015625 
Q 33.0625 21.96875 24.703125 23.78125 
L 21.578125 24.515625 
Q 13.234375 26.265625 9.515625 29.90625 
Q 5.8125 33.546875 5.8125 39.890625 
Q 5.8125 47.609375 11.28125 51.796875 
Q 16.75 56 26.8125 56 
Q 31.78125 56 36.171875 55.265625 
Q 40.578125 54.546875 44.28125 53.078125 
z
" id="DejaVuSans-73"/>
      <path id="DejaVuSans-20"/>
      <path d="M 10.59375 45.40625 
L 73.1875 45.40625 
L 73.1875 37.203125 
L 10.59375 37.203125 
z
M 10.59375 25.484375 
L 73.1875 25.484375 
L 73.1875 17.1875 
L 10.59375 17.1875 
z
" id="DejaVuSans-3d"/>
     </defs>
     <g transform="translate(94.6 58.070438)scale(0.1 -0.1)">
      <use xlink:href="#DejaVuSans-73"/>
      <use x="52.099609" xlink:href="#DejaVuSans-20"/>
      <use x="83.886719" xlink:href="#DejaVuSans-3d"/>
      <use x="167.675781" xlink:href="#DejaVuSans-20"/>
      <use x="199.462891" xlink:href="#DejaVuSans-31"/>
     </g>
    </g>
    <g id="line2d_19">
     <path d="M 66.6 69.248563 
L 86.6 69.248563 
" style="fill:none;stroke:#ff7f0e;stroke-dasharray:9.6,2.4,1.5,2.4;stroke-dashoffset:0;stroke-width:1.5;"/>
    </g>
    <g id="line2d_20"/>
    <g id="text_16">
     <!-- s = 10 -->
     <g transform="translate(94.6 72.748563)scale(0.1 -0.1)">
      <use xlink:href="#DejaVuSans-73"/>
      <use x="52.099609" xlink:href="#DejaVuSans-20"/>
      <use x="83.886719" xlink:href="#DejaVuSans-3d"/>
      <use x="167.675781" xlink:href="#DejaVuSans-20"/>
      <use x="199.462891" xlink:href="#DejaVuSans-31"/>
      <use x="263.085938" xlink:href="#DejaVuSans-30"/>
     </g>
    </g>
    <g id="line2d_21">
     <path d="M 66.6 83.926688 
L 86.6 83.926688 
" style="fill:none;stroke:#2ca02c;stroke-dasharray:5.55,2.4;stroke-dashoffset:0;stroke-width:1.5;"/>
    </g>
    <g id="line2d_22"/>
    <g id="text_17">
     <!-- s = 20 -->
     <g transform="translate(94.6 87.426688)scale(0.1 -0.1)">
      <use xlink:href="#DejaVuSans-73"/>
      <use x="52.099609" xlink:href="#DejaVuSans-20"/>
      <use x="83.886719" xlink:href="#DejaVuSans-3d"/>
      <use x="167.675781" xlink:href="#DejaVuSans-20"/>
      <use x="199.462891" xlink:href="#DejaVuSans-32"/>
      <use x="263.085938" xlink:href="#DejaVuSans-30"/>
     </g>
    </g>
    <g id="line2d_23">
     <path d="M 66.6 98.604813 
L 86.6 98.604813 
" style="fill:none;stroke:#d62728;stroke-linecap:square;stroke-width:1.5;"/>
    </g>
    <g id="line2d_24"/>
    <g id="text_18">
     <!-- s = 50 -->
     <defs>
      <path d="M 10.796875 72.90625 
L 49.515625 72.90625 
L 49.515625 64.59375 
L 19.828125 64.59375 
L 19.828125 46.734375 
Q 21.96875 47.46875 24.109375 47.828125 
Q 26.265625 48.1875 28.421875 48.1875 
Q 40.625 48.1875 47.75 41.5 
Q 54.890625 34.8125 54.890625 23.390625 
Q 54.890625 11.625 47.5625 5.09375 
Q 40.234375 -1.421875 26.90625 -1.421875 
Q 22.3125 -1.421875 17.546875 -0.640625 
Q 12.796875 0.140625 7.71875 1.703125 
L 7.71875 11.625 
Q 12.109375 9.234375 16.796875 8.0625 
Q 21.484375 6.890625 26.703125 6.890625 
Q 35.15625 6.890625 40.078125 11.328125 
Q 45.015625 15.765625 45.015625 23.390625 
Q 45.015625 31 40.078125 35.4375 
Q 35.15625 39.890625 26.703125 39.890625 
Q 22.75 39.890625 18.8125 39.015625 
Q 14.890625 38.140625 10.796875 36.28125 
z
" id="DejaVuSans-35"/>
     </defs>
     <g transform="translate(94.6 102.104813)scale(0.1 -0.1)">
      <use xlink:href="#DejaVuSans-73"/>
      <use x="52.099609" xlink:href="#DejaVuSans-20"/>
      <use x="83.886719" xlink:href="#DejaVuSans-3d"/>
      <use x="167.675781" xlink:href="#DejaVuSans-20"/>
      <use x="199.462891" xlink:href="#DejaVuSans-35"/>
      <use x="263.085938" xlink:href="#DejaVuSans-30"/>
     </g>
    </g>
   </g>
  </g>
 </g>
 <defs>
  <clipPath id="pc3666344d0">
   <rect height="266.112" width="357.12" x="57.6" y="41.472"/>
  </clipPath>
 </defs>
</svg>
