<?xml version="1.0" encoding="UTF-8" standalone="no"?>
<!-- Created with Inkscape (http://www.inkscape.org/) -->

<svg
   xmlns:dc="http://purl.org/dc/elements/1.1/"
   xmlns:cc="http://creativecommons.org/ns#"
   xmlns:rdf="http://www.w3.org/1999/02/22-rdf-syntax-ns#"
   xmlns:svg="http://www.w3.org/2000/svg"
   xmlns="http://www.w3.org/2000/svg"
   xmlns:sodipodi="http://sodipodi.sourceforge.net/DTD/sodipodi-0.dtd"
   xmlns:inkscape="http://www.inkscape.org/namespaces/inkscape"
   width="70.430405mm"
   height="50.879513mm"
   viewBox="0 0 70.430405 50.879513"
   version="1.1"
   id="svg8"
   inkscape:version="0.92.3 (2405546, 2018-03-11)"
   sodipodi:docname="WPP.svg">
  <defs
     id="defs2" />
  <sodipodi:namedview
     id="base"
     pagecolor="#ffffff"
     bordercolor="#666666"
     borderopacity="1.0"
     inkscape:pageopacity="0.0"
     inkscape:pageshadow="2"
     inkscape:zoom="0.98994949"
     inkscape:cx="83.75416"
     inkscape:cy="157.64602"
     inkscape:document-units="mm"
     inkscape:current-layer="layer1"
     showgrid="false"
     inkscape:window-width="1366"
     inkscape:window-height="713"
     inkscape:window-x="0"
     inkscape:window-y="27"
     inkscape:window-maximized="1"
     fit-margin-top="0"
     fit-margin-left="0"
     fit-margin-right="0"
     fit-margin-bottom="0" />
  <metadata
     id="metadata5">
    <rdf:RDF>
      <cc:Work
         rdf:about="">
        <dc:format>image/svg+xml</dc:format>
        <dc:type
           rdf:resource="http://purl.org/dc/dcmitype/StillImage" />
        <dc:title></dc:title>
      </cc:Work>
    </rdf:RDF>
  </metadata>
  <g
     inkscape:label="Layer 1"
     inkscape:groupmode="layer"
     id="layer1"
     transform="translate(158.47897,-36.313967)">
    <g
       id="g3424"
       transform="translate(74.572016,-22.586859)" />
    <g
       id="g3968">
      <g
         transform="translate(75.24019,-25.62705)"
         id="g3813">
        <text
           y="109.8934"
           x="-212.88481"
           id="text1450"
           style="font-variant:normal;font-weight:bold;font-stretch:normal;font-size:2.06674862px;font-family:Helvetica;-inkscape-font-specification:Helvetica-Bold;writing-mode:lr-tb;fill:#000000;fill-opacity:1;fill-rule:nonzero;stroke:none;stroke-width:0.35277778">
          <tspan
             style="stroke-width:0.35277778"
             id="tspan1448"
             sodipodi:role="line"
             x="-212.88481 -211.74211 -210.47313 -209.20415 -207.93515 -206.79245 -205.64975 -204.95119 -204.37042 -203.10144 -201.83246"
             y="109.8934">Connection</tspan>
        </text>
        <text
           y="112.36998"
           x="-211.99591"
           id="text1454"
           style="font-variant:normal;font-weight:bold;font-stretch:normal;font-size:2.06674862px;font-family:Helvetica;-inkscape-font-specification:Helvetica-Bold;writing-mode:lr-tb;fill:#000000;fill-opacity:1;fill-rule:nonzero;stroke:none;stroke-width:0.35277778">
          <tspan
             style="stroke-width:0.35277778"
             id="tspan1452"
             sodipodi:role="line"
             y="112.36998"
             x="-211.99591 -211.29858 -210.0267 -209.45483 -208.75752 -207.48564 -206.34293 -205.77106 -204.43718 -203.67558 -203.10371">to the grid</tspan>
        </text>
      </g>
      <g
         transform="rotate(-56.865886,-188.0569,28.754479)"
         id="g3442">
        <path
           d="m -199.54975,109.82981 -0.127,0.1905 3.3655,1.0795 0.0635,-0.254"
           style="fill:#0000ff;fill-opacity:1;fill-rule:nonzero;stroke:none;stroke-width:0.35277778"
           id="path1456"
           inkscape:connector-curvature="0" />
        <path
           d="m -198.08925,111.29031 1.8415,-0.3175 -1.3335,-1.3335"
           style="fill:none;stroke:#0000ff;stroke-width:0.25752777;stroke-linecap:round;stroke-linejoin:round;stroke-miterlimit:10;stroke-dasharray:none;stroke-opacity:1"
           id="path1458"
           inkscape:connector-curvature="0" />
      </g>
      <g
         transform="translate(19.087797,32.978423)"
         id="g3466">
        <text
           style="font-variant:normal;font-weight:bold;font-stretch:normal;font-size:2.06674862px;font-family:Helvetica;-inkscape-font-specification:Helvetica-Bold;writing-mode:lr-tb;fill:#000000;fill-opacity:1;fill-rule:nonzero;stroke:none;stroke-width:0.35277778"
           id="text1462"
           x="-134.93094"
           y="36.965076">
          <tspan
             x="-134.93094 -133.40733 -132.1369 -131.56772 -130.99854 -129.8548 -128.71106 -128.0125 -126.74207 -125.91682 -125.34495 -123.94782 -122.80408 -121.66035 -120.96178 -119.81805 -118.04044"
             y="36.965076"
             sodipodi:role="line"
             id="tspan1460"
             style="stroke-width:0.35277778">Collector System</tspan>
        </text>
        <text
           style="font-variant:normal;font-weight:bold;font-stretch:normal;font-size:2.06674862px;font-family:Helvetica;-inkscape-font-specification:Helvetica-Bold;writing-mode:lr-tb;fill:#000000;fill-opacity:1;fill-rule:nonzero;stroke:none;stroke-width:0.35277778"
           id="text1466"
           x="-134.93094"
           y="39.441662">
          <tspan
             x="-134.93094 -133.53795 -132.83525 -131.69255 -130.99399 -130.42212 -129.15169"
             y="39.441662"
             sodipodi:role="line"
             id="tspan1464"
             style="stroke-width:0.35277778">Station</tspan>
        </text>
      </g>
      <g
         transform="translate(45.735119,63.688988)"
         id="g3470">
        <g
           transform="rotate(76.443391,-128.03685,6.2437179)"
           id="g3583">
          <path
             inkscape:connector-curvature="0"
             id="path1468"
             style="fill:#0000ff;fill-opacity:1;fill-rule:nonzero;stroke:none;stroke-width:0.35277778"
             d="m -136.07394,39.568575 -0.1905,-0.1905 -5.1435,6.223 0.127,0.1905" />
          <path
             inkscape:connector-curvature="0"
             id="path1470"
             style="fill:none;stroke:#0000ff;stroke-width:0.25752777;stroke-linecap:round;stroke-linejoin:round;stroke-miterlimit:10;stroke-dasharray:none;stroke-opacity:1"
             d="m -140.89994,43.886575 -0.4445,1.778 1.7145,-0.6985" />
        </g>
      </g>
      <g
         transform="translate(47.284372,-42.386062)"
         id="g3430">
        <text
           style="font-variant:normal;font-weight:bold;font-stretch:normal;font-size:2.06674862px;font-family:Helvetica;-inkscape-font-specification:Helvetica-Bold;writing-mode:lr-tb;fill:#000000;fill-opacity:1;fill-rule:nonzero;stroke:none;stroke-width:0.35277778"
           id="text1474"
           x="-154.31583"
           y="82.532372">
          <tspan
             x="-154.31583 -153.04539 -151.90227 -150.75916 -149.48872 -148.3456 -147.52036 -123.13624"
             y="82.532372"
             sodipodi:role="line"
             id="tspan1472"
             style="stroke-width:0.35277778">Feeders</tspan>
        </text>
      </g>
      <g
         transform="rotate(-124.64614,-191.27005,43.283208)"
         id="g3438">
        <path
           d="m -216.10813,87.299407 0.254,-0.0635 -2.0955,-5.1435 -0.1905,0.0635"
           style="fill:#0000ff;fill-opacity:1;fill-rule:nonzero;stroke:none;stroke-width:0.35277778"
           id="path1480"
           inkscape:connector-curvature="0" />
        <path
           d="m -216.61613,83.362407 -1.4605,-1.27 -0.127,1.905"
           style="fill:none;stroke:#0000ff;stroke-width:0.25752777;stroke-linecap:round;stroke-linejoin:round;stroke-miterlimit:10;stroke-dasharray:none;stroke-opacity:1"
           id="path1482"
           inkscape:connector-curvature="0" />
      </g>
      <g
         transform="rotate(-151.37924,-167.12183,50.073497)"
         id="g3434">
        <path
           d="m -216.04463,87.172407 0.127,0.1905 13.5255,-18.605499 -0.1905,-0.1905"
           style="fill:#0000ff;fill-opacity:1;fill-rule:nonzero;stroke:none;stroke-width:0.35277778"
           id="path1484"
           inkscape:connector-curvature="0" />
        <path
           d="m -202.77313,70.535408 0.254,-1.8415 -1.651,0.889"
           style="fill:none;stroke:#0000ff;stroke-width:0.25752777;stroke-linecap:round;stroke-linejoin:round;stroke-miterlimit:10;stroke-dasharray:none;stroke-opacity:1"
           id="path1486"
           inkscape:connector-curvature="0" />
      </g>
      <text
         y="37.853695"
         x="-148.45268"
         id="text1490"
         style="font-variant:normal;font-weight:bold;font-stretch:normal;font-size:2.06674862px;font-family:Helvetica;-inkscape-font-specification:Helvetica-Bold;writing-mode:lr-tb;fill:#000000;fill-opacity:1;fill-rule:nonzero;stroke:none;stroke-width:0.35277778">
        <tspan
           style="stroke-width:0.35277778"
           id="tspan1488"
           sodipodi:role="line"
           y="37.853695"
           x="-148.45268 -147.87172 -146.60254 -145.33333 -144.75237 -143.60966 -143.03781 -141.76862 -140.49942 -139.35672 -138.72141 -138.14932 -136.19191 -134.92271 -133.33484">Individual WTGs</tspan>
      </text>
      <g
         transform="translate(16.063988,23.245536)"
         id="g3456">
        <text
           style="font-variant:normal;font-weight:bold;font-stretch:normal;font-size:2.06674862px;font-family:Helvetica;-inkscape-font-specification:Helvetica-Bold;writing-mode:lr-tb;fill:#000000;fill-opacity:1;fill-rule:nonzero;stroke:none;stroke-width:0.35277778"
           id="text1500"
           x="-165.41093"
           y="49.347576">
          <tspan
             x="-165.41093 -164.83018 -163.5612 -162.86678 -161.72406 -160.96246 -159.81976 -158.48589 -157.2169 -155.94792 -154.80521 -153.66251 -152.96394 -152.38319 -151.11421 -149.84523"
             y="49.347576"
             sodipodi:role="line"
             id="tspan1498"
             style="stroke-width:0.35277778">Interconnection</tspan>
        </text>
        <text
           style="font-variant:normal;font-weight:bold;font-stretch:normal;font-size:2.06674862px;font-family:Helvetica;-inkscape-font-specification:Helvetica-Bold;writing-mode:lr-tb;fill:#000000;fill-opacity:1;fill-rule:nonzero;stroke:none;stroke-width:0.35277778"
           id="text1504"
           x="-168.20499"
           y="51.824158">
          <tspan
             x="-168.20499 -166.93661 -166.11136 -164.96866 -163.69823 -162.55553 -160.71426 -160.13412 -158.99141 -157.84871 -157.27684 -156.00848 -154.74011 -154.1048 -152.83643 -152.2563 -150.98793"
             y="51.824158"
             sodipodi:role="line"
             id="tspan1502"
             style="stroke-width:0.35277778">Transmission Line</tspan>
        </text>
      </g>
      <g
         transform="rotate(50.156383,-170.76825,81.584786)"
         id="g3460">
        <path
           d="m -152.83794,46.617075 0.1905,0.1905 4.1275,-5.1435 -0.1905,-0.1905"
           style="fill:#0000ff;fill-opacity:1;fill-rule:nonzero;stroke:none;stroke-width:0.35277778"
           id="path1506"
           inkscape:connector-curvature="0" />
        <path
           d="m -148.96444,43.442075 0.381,-1.905 -1.7145,0.8255"
           style="fill:none;stroke:#0000ff;stroke-width:0.25752777;stroke-linecap:round;stroke-linejoin:round;stroke-miterlimit:10;stroke-dasharray:none;stroke-opacity:1"
           id="path1508"
           inkscape:connector-curvature="0" />
      </g>
      <path
         inkscape:connector-curvature="0"
         id="path1352"
         style="fill:#00cc9a;fill-opacity:1;fill-rule:evenodd;stroke:#000000;stroke-width:0.12876388;stroke-linecap:round;stroke-linejoin:round;stroke-miterlimit:10;stroke-dasharray:none;stroke-opacity:1"
         d="m -114.91987,41.099819 c -0.14642,0.28172 -0.0382,0.624236 0.24353,0.77066 0.28172,0.146424 0.62424,0.03819 0.77066,-0.243533 0.14643,-0.28172 0.0675,-0.680579 -0.21424,-0.827004 -0.28172,-0.146424 -0.65352,0.01816 -0.79995,0.299877 z" />
      <path
         inkscape:connector-curvature="0"
         id="path1354"
         style="fill:none;stroke:#000000;stroke-width:0.12876388;stroke-linecap:round;stroke-linejoin:round;stroke-miterlimit:10;stroke-dasharray:none;stroke-opacity:1"
         d="m -114.94693,41.01419 -1.98539,-0.173131" />
      <g
         id="g3795">
        <path
           d="m -158.35888,52.801927 c -0.14642,0.28172 0.0182,0.653521 0.29988,0.799945 0.28172,0.146424 0.62423,0.03819 0.77066,-0.243533 0.11714,-0.225376 0.0382,-0.624236 -0.24354,-0.77066 -0.28172,-0.146424 -0.70986,-0.01113 -0.827,0.214248 z"
           style="fill:#00cc9a;fill-opacity:1;fill-rule:evenodd;stroke:#000000;stroke-width:0.12876388;stroke-linecap:round;stroke-linejoin:round;stroke-miterlimit:10;stroke-dasharray:none;stroke-opacity:1"
           id="path1236"
           inkscape:connector-curvature="0" />
        <path
           d="m -155.96502,55.906822 c -0.14642,0.28172 -0.0382,0.624236 0.24353,0.77066 0.28172,0.146424 0.62424,0.03819 0.77066,-0.243533 0.11714,-0.225376 0.0382,-0.624236 -0.24353,-0.77066 -0.28172,-0.146424 -0.65352,0.01816 -0.77066,0.243533 z"
           style="fill:#00cc9a;fill-opacity:1;fill-rule:evenodd;stroke:#000000;stroke-width:0.12876388;stroke-linecap:round;stroke-linejoin:round;stroke-miterlimit:10;stroke-dasharray:none;stroke-opacity:1"
           id="path1238"
           inkscape:connector-curvature="0" />
        <path
           d="m -133.6618,78.949297 0.0226,0.369575 30.61648,0.02553 0.063,-0.396634"
           style="fill:#ff0000;fill-opacity:1;fill-rule:nonzero;stroke:none;stroke-width:0.35277778"
           id="path1240"
           inkscape:connector-curvature="0" />
        <path
           d="m -126.1219,65.406349 -0.34251,0.108237 3.8472,13.664654 0.34252,-0.108237"
           style="fill:#ff0000;fill-opacity:1;fill-rule:nonzero;stroke:none;stroke-width:0.35277778"
           id="path1242"
           inkscape:connector-curvature="0" />
        <path
           d="m -126.64715,64.489265 0.20054,-0.110462 -0.19387,-0.315456 -0.16458,-0.371801 -0.19164,-0.457429 -0.2187,-0.543058 -0.27504,-0.572342 -0.49152,-1.257374 -0.3021,-0.657972 -0.57492,-1.372287 -0.63126,-1.401572 -0.33139,-0.601627 -0.3021,-0.657972 -0.33139,-0.601627 -0.30433,-0.515999 -0.11491,0.0834 0.11491,-0.0834 -0.44185,-0.80217 -0.49819,-0.831455 -0.41479,-0.716541 -0.41479,-0.716542 -0.38773,-0.630912 -0.41702,-0.574568 -0.33361,-0.459655 -0.11269,-0.05857 -0.33361,-0.459654 -0.30656,-0.374026 -0.36512,-0.261338 -0.30878,-0.232053 -0.36735,-0.119365 -0.28172,-0.146424 -0.25466,-0.06079 -0.39441,-0.204994 -0.19831,-0.03151 -0.25466,-0.06079 -0.0856,0.02706 -0.0564,-0.02929 -0.0856,0.02706 -0.11268,-0.05857 -0.11492,0.0834 -0.0856,0.02706 -0.0856,0.02706 0.0271,0.08563 0.0586,-0.112688 -0.14197,-0.0022 -0.19832,-0.03151 0.0271,0.08563 0.0293,-0.05634 -0.11269,-0.05857 -0.14197,-0.0022 -0.11269,-0.05857 -0.25689,0.08118 -0.19832,-0.03151 -0.28394,-0.0045 -0.2276,0.02483 -0.14198,-0.0022 -0.20054,0.110463 -0.17126,0.05412 -0.2276,0.02483 -0.17126,0.05412 -0.2276,0.02483 -0.14197,-0.0022 0.0541,0.171258 0.0586,-0.112689 -0.19832,-0.03151 -0.28394,-0.0045 -0.0564,-0.02929 -0.2276,0.02483 -0.17126,0.05412 0.0271,0.08563 0.002,-0.141973 -0.25689,0.08118 -0.25689,0.08118 -0.19831,-0.03151 0.0271,0.08563 0.0293,-0.05634 -0.19832,-0.03151 -0.0563,-0.02929 -1.31149,0.320259 -0.62869,0.245759 -0.62646,0.103785 -0.0293,0.05634 -0.20055,0.110463 -0.28617,0.137521 -0.2276,0.02483 -0.25689,0.08118 -0.5994,0.189414 -0.57234,0.275043 -1.14246,0.408114 -0.17348,0.196091 0.11268,0.05857 -0.0541,-0.171258 -0.17348,0.196091 -0.3718,0.164581 -0.40108,0.220925 -0.34252,0.108237 -0.0856,0.02706 -0.1442,0.139747 0.11269,0.05857 -0.0271,-0.08563 -0.17126,0.05412 -0.11491,0.0834 -0.0293,0.05634 -0.11492,0.0834 -0.60385,0.47336 -0.49117,0.53193 0.0293,-0.05634 -0.0586,0.112688 -0.1442,0.139747 -0.1442,0.139747 -0.11491,0.0834 0.0563,0.02928 -0.0271,-0.08563 -0.11491,0.0834 -0.25689,0.08118 -0.1442,0.139748 0.11269,0.05857 -0.0271,-0.08563 -0.17125,0.05412 -0.34252,0.108237 -0.28617,0.137521 -0.34252,0.108237 -0.31545,0.193866 -0.3718,0.16458 -0.77066,0.243533 -0.82701,0.214248 -0.74137,0.187189 -0.25689,0.08118 -0.25688,0.08118 -0.22761,0.02483 0.0271,0.08563 0.0293,-0.05634 -0.25466,-0.0608 -0.0293,0.05634 -0.0563,-0.02928 -0.56789,-0.0089 0.0248,0.227602 0.31323,-0.05189 0.28395,0.0045 -0.0271,-0.08563 0.0271,0.08563 0.19831,0.03151 0.0856,-0.02706 0.28395,0.0045 0.25689,-0.08118 0.25688,-0.08118 1.48275,-0.374378 0.79995,-0.299877 0.34251,-0.108237 0.40109,-0.220924 0.28617,-0.137522 0.34251,-0.108237 0.34252,-0.108237 0.11491,-0.0834 0.0856,-0.02706 0.0586,-0.112688 -0.0271,-0.08563 -0.002,0.141973 0.0293,-0.05634 0.0563,0.02929 0.0856,-0.02706 0.17126,-0.05412 0.0586,-0.112688 0.0856,-0.02706 0.17348,-0.196091 0.1442,-0.139748 -0.11269,-0.05857 0.11269,0.05857 0.5768,-0.558989 0.51822,-0.446301 0.1442,-0.139747 -0.11269,-0.05857 0.0271,0.08563 0.17126,-0.05412 0.11491,-0.0834 0.0856,-0.02706 0.0586,-0.112688 -0.0563,-0.02928 0.0271,0.08563 0.17126,-0.05412 0.20054,-0.110462 0.42815,-0.135296 0.34474,-0.25021 0.20054,-0.110462 0.0293,-0.05634 0.1442,-0.139748 -0.0564,-0.02928 0.0271,0.08563 1.08612,-0.437398 0.5994,-0.189415 0.54306,-0.218699 0.31323,-0.05189 0.25688,-0.08118 0.22983,-0.166807 0.28617,-0.137521 -0.11269,-0.05857 0.0271,0.08563 0.71209,-0.130845 0.59941,-0.189414 0.5994,-0.189415 0.65574,-0.160129 -0.0271,-0.08563 -0.0293,0.05634 0.19832,0.03151 0.0563,0.02928 0.28395,0.0045 0.2276,-0.02483 0.20054,-0.110462 0.17126,-0.05412 -0.17126,0.05412 0.2276,-0.02483 0.14197,0.0022 0.002,-0.141973 -0.0586,0.112688 0.34029,0.03374 0.14197,0.0022 0.0564,0.02928 0.17126,-0.05412 0.17125,-0.05412 0.2276,-0.02483 0.17126,-0.05412 0.2276,-0.02483 0.17126,-0.05412 0.11492,-0.0834 0.28394,0.0045 0.19832,0.03151 0.28394,0.0045 0.17126,-0.05412 -0.0271,-0.08563 0.0271,0.08563 0.11269,0.05857 0.14197,0.0022 0.0563,0.02929 0.14197,0.0022 -0.0271,-0.08563 0.0271,0.08563 0.0856,-0.02706 0.0563,0.02929 0.14198,0.0022 0.0856,-0.02706 0.11492,-0.0834 -0.0271,-0.08563 -0.0586,0.112688 0.0856,-0.02706 0.0563,0.02928 -0.0271,-0.08563 -0.0586,0.112689 0.0856,-0.02706 0.0856,-0.02706 0.25466,0.06079 0.33807,0.175709 0.25466,0.0608 0.22537,0.117139 0.31101,0.09008 0.33806,0.175709 0.30878,0.232053 0.36512,0.261338 0.2795,0.288397 0.38996,0.488939 0.0586,-0.112688 -0.11492,0.0834 0.38996,0.48894 0.36067,0.545284 0.38773,0.630912 0.44408,0.660197 0.47113,0.745826 0.44185,0.80217 0.46891,0.887799 -0.0834,-0.114913 0.0834,0.114913 0.30433,0.515999 0.33139,0.601628 0.33138,0.601627 0.30211,0.657972 0.6042,1.315943 0.63126,1.401572 0.24576,0.628687 0.27282,0.714315 0.55009,1.144686 0.16235,0.513773 0.24799,0.486714 0.16458,0.3718"
           style="fill:#000000;fill-opacity:1;fill-rule:nonzero;stroke:none;stroke-width:0.35277778"
           id="path1244"
           inkscape:connector-curvature="0" />
        <path
           d="m -157.66237,53.664893 0.0904,1.478298 m 1.9246,0.427793 -0.33139,-0.601628"
           style="fill:none;stroke:#000000;stroke-width:0.12876388;stroke-linecap:round;stroke-linejoin:round;stroke-miterlimit:10;stroke-dasharray:none;stroke-opacity:1"
           id="path1246"
           inkscape:connector-curvature="0" />
        <path
           d="m -152.46537,55.507259 c -0.14642,0.28172 -0.0382,0.624236 0.24354,0.77066 0.28172,0.146424 0.62423,0.03819 0.77066,-0.243533 0.11714,-0.225376 0.0382,-0.624235 -0.24354,-0.77066 -0.28172,-0.146424 -0.65352,0.01816 -0.77066,0.243533 z"
           style="fill:#00cc9a;fill-opacity:1;fill-rule:evenodd;stroke:#000000;stroke-width:0.12876388;stroke-linecap:round;stroke-linejoin:round;stroke-miterlimit:10;stroke-dasharray:none;stroke-opacity:1"
           id="path1248"
           inkscape:connector-curvature="0" />
        <path
           d="m -152.14768,55.171421 -0.83404,-1.149137"
           style="fill:none;stroke:#000000;stroke-width:0.12876388;stroke-linecap:round;stroke-linejoin:round;stroke-miterlimit:10;stroke-dasharray:none;stroke-opacity:1"
           id="path1250"
           inkscape:connector-curvature="0" />
        <path
           d="m -153.90618,51.394849 c -0.14642,0.28172 -0.0382,0.624235 0.24353,0.77066 0.28172,0.146424 0.56789,0.0089 0.71432,-0.272818 0.11714,-0.225376 0.0945,-0.594951 -0.18719,-0.741375 -0.28172,-0.146424 -0.65352,0.01816 -0.77066,0.243533 z"
           style="fill:#00cc9a;fill-opacity:1;fill-rule:evenodd;stroke:#000000;stroke-width:0.12876388;stroke-linecap:round;stroke-linejoin:round;stroke-miterlimit:10;stroke-dasharray:none;stroke-opacity:1"
           id="path1252"
           inkscape:connector-curvature="0" />
        <path
           d="m -152.94833,51.892691 1.97204,1.024969"
           style="fill:none;stroke:#000000;stroke-width:0.12876388;stroke-linecap:round;stroke-linejoin:round;stroke-miterlimit:10;stroke-dasharray:none;stroke-opacity:1"
           id="path1254"
           inkscape:connector-curvature="0" />
        <path
           d="m -148.92752,54.483461 c -0.14643,0.28172 -0.0382,0.624235 0.24353,0.77066 0.28172,0.146424 0.62423,0.03819 0.77066,-0.243533 0.14642,-0.28172 0.0675,-0.68058 -0.21425,-0.827004 -0.28172,-0.146424 -0.65352,0.01816 -0.79994,0.299877 z"
           style="fill:#00cc9a;fill-opacity:1;fill-rule:evenodd;stroke:#000000;stroke-width:0.12876388;stroke-linecap:round;stroke-linejoin:round;stroke-miterlimit:10;stroke-dasharray:none;stroke-opacity:1"
           id="path1256"
           inkscape:connector-curvature="0" />
        <path
           d="m -148.60984,54.147622 -0.78249,-2.625209"
           style="fill:none;stroke:#000000;stroke-width:0.12876388;stroke-linecap:round;stroke-linejoin:round;stroke-miterlimit:10;stroke-dasharray:none;stroke-opacity:1"
           id="path1258"
           inkscape:connector-curvature="0" />
        <path
           d="m -144.75947,49.493325 0.17348,-0.196092 -0.53415,-0.349192 -0.50488,-0.405536 -0.0586,0.112688 0.0586,-0.112688 -0.0834,-0.114914 -0.0586,0.112688 0.0856,-0.02706 0.002,-0.141973 -0.0834,-0.114913 0.002,-0.141973 -0.11046,-0.200543 -0.0834,-0.114914 -0.0563,-0.02928 -0.11046,-0.200543 -0.0834,-0.114914 -0.0563,-0.02928 -0.14197,-0.0022 -0.16904,-0.08785 -0.19831,-0.03151 -0.0856,0.02706 -0.14197,-0.0022 -0.28395,-0.0045 -0.17126,0.05412 -0.17126,0.05412 -0.0856,0.02706 0.0856,-0.02706 -0.25688,0.08118 -0.25689,0.08118 -0.20054,0.110463 -0.14197,-0.0022 0.0271,0.08563 0.0586,-0.112688 -0.14198,-0.0022 -0.20054,0.110463 -0.14197,-0.0022 -0.11492,0.0834 -0.14197,-0.0022 -0.17126,0.05412 -0.11491,0.0834 -0.28395,-0.0045 0.0563,0.02929 -0.0563,-0.02929 -0.25688,0.08118 -1.02755,0.32471 -0.2276,0.02483 0.0271,0.08563 0.0586,-0.112689 -0.2276,0.02483 -0.28172,-0.146424 -0.0879,0.169032 0.28172,0.146424 0.19832,0.03151 0.0856,-0.02706 0.28394,0.0045 0.2276,-0.02483 0.51378,-0.162355 0.25688,-0.08118 0.20055,-0.110462 -0.0271,-0.08563 0.0271,0.08563 0.31323,-0.05189 0.17126,-0.05412 0.11491,-0.0834 -0.0271,-0.08563 -0.002,0.141972 0.17126,-0.05412 0.17126,-0.05412 0.0856,-0.02706 0.17126,-0.05412 -0.0271,-0.08563 -0.0293,0.05634 0.0564,0.02929 0.14197,0.0022 0.0856,-0.02706 0.25688,-0.08118 0.25689,-0.08118 0.20054,-0.110462 -0.0271,-0.08563 0.0271,0.08563 0.14198,0.0022 0.2276,-0.02483 0.25688,-0.08118 0.14198,0.0022 -0.0271,-0.08563 -0.0586,0.112688 0.19832,0.03151 0.19831,0.03151 0.16903,0.08786 0.0586,-0.112689 -0.11491,0.0834 0.13975,0.144198 0.13974,0.144199 0.0586,-0.112688 -0.0856,0.02706 0.0541,0.171258 0.0834,0.114913 0.0541,0.171258 -0.002,0.141973 0.0834,0.114913 0.0271,0.08563 0.11269,0.05857 0.50487,0.405536"
           style="fill:#000000;fill-opacity:1;fill-rule:nonzero;stroke:none;stroke-width:0.35277778"
           id="path1260"
           inkscape:connector-curvature="0" />
        <path
           d="m -154.56743,46.471014 c -0.14643,0.28172 -0.0382,0.624236 0.24353,0.77066 0.28172,0.146424 0.56789,0.0089 0.71432,-0.272818 0.11714,-0.225376 0.0945,-0.59495 -0.18719,-0.741375 -0.28172,-0.146424 -0.65352,0.01816 -0.77066,0.243533 z"
           style="fill:#00cc9a;fill-opacity:1;fill-rule:evenodd;stroke:#000000;stroke-width:0.12876388;stroke-linecap:round;stroke-linejoin:round;stroke-miterlimit:10;stroke-dasharray:none;stroke-opacity:1"
           id="path1262"
           inkscape:connector-curvature="0" />
        <path
           d="m -153.60958,46.968856 1.85267,1.392318"
           style="fill:none;stroke:#000000;stroke-width:0.12876388;stroke-linecap:round;stroke-linejoin:round;stroke-miterlimit:10;stroke-dasharray:none;stroke-opacity:1"
           id="path1264"
           inkscape:connector-curvature="0" />
        <path
           d="m -151.46219,45.866458 c -0.14642,0.28172 -0.0382,0.624235 0.24354,0.770659 0.28172,0.146424 0.56789,0.0089 0.71431,-0.272817 0.14643,-0.28172 0.12382,-0.651295 -0.1579,-0.797719 -0.28172,-0.146424 -0.65352,0.01816 -0.79995,0.299877 z"
           style="fill:#00cc9a;fill-opacity:1;fill-rule:evenodd;stroke:#000000;stroke-width:0.12876388;stroke-linecap:round;stroke-linejoin:round;stroke-miterlimit:10;stroke-dasharray:none;stroke-opacity:1"
           id="path1266"
           inkscape:connector-curvature="0" />
        <path
           d="m -150.47505,46.307956 1.22399,1.638076"
           style="fill:none;stroke:#000000;stroke-width:0.12876388;stroke-linecap:round;stroke-linejoin:round;stroke-miterlimit:10;stroke-dasharray:none;stroke-opacity:1"
           id="path1268"
           inkscape:connector-curvature="0" />
        <path
           d="m -148.26686,44.950896 c -0.14642,0.28172 -0.0382,0.624236 0.24353,0.77066 0.28172,0.146424 0.62424,0.03819 0.77066,-0.243533 0.14643,-0.28172 0.0675,-0.68058 -0.21424,-0.827004 -0.28172,-0.146424 -0.65352,0.01816 -0.79995,0.299877 z"
           style="fill:#00cc9a;fill-opacity:1;fill-rule:evenodd;stroke:#000000;stroke-width:0.12876388;stroke-linecap:round;stroke-linejoin:round;stroke-miterlimit:10;stroke-dasharray:none;stroke-opacity:1"
           id="path1270"
           inkscape:connector-curvature="0" />
        <path
           d="m -147.59741,45.728233 0.0296,1.732959"
           style="fill:none;stroke:#000000;stroke-width:0.12876388;stroke-linecap:round;stroke-linejoin:round;stroke-miterlimit:10;stroke-dasharray:none;stroke-opacity:1"
           id="path1272"
           inkscape:connector-curvature="0" />
        <path
           d="m -145.15939,44.204367 c -0.14642,0.28172 -0.0382,0.624235 0.24354,0.770659 0.28172,0.146424 0.62423,0.03819 0.77066,-0.243532 0.11713,-0.225377 0.0382,-0.624236 -0.24354,-0.77066 -0.28172,-0.146424 -0.65352,0.01816 -0.77066,0.243533 z"
           style="fill:#00cc9a;fill-opacity:1;fill-rule:evenodd;stroke:#000000;stroke-width:0.12876388;stroke-linecap:round;stroke-linejoin:round;stroke-miterlimit:10;stroke-dasharray:none;stroke-opacity:1"
           id="path1274"
           inkscape:connector-curvature="0" />
        <path
           d="m -144.91585,44.975026 -0.90303,3.252023"
           style="fill:none;stroke:#000000;stroke-width:0.12876388;stroke-linecap:round;stroke-linejoin:round;stroke-miterlimit:10;stroke-dasharray:none;stroke-opacity:1"
           id="path1276"
           inkscape:connector-curvature="0" />
        <path
           d="m -137.09997,48.250124 -0.19831,-0.03151 -0.0337,0.34029 0.0271,0.08563 -0.0337,0.34029 0.0519,0.31323 0.0226,0.369575 0.11047,0.200542 0.0248,0.227602 -0.002,0.141973 0.0271,0.08563 0.0271,0.08563 0.0856,-0.02706 -0.11269,-0.05857 -0.0315,0.198317 -0.0315,0.198317 -0.0315,0.198317 -0.0608,0.25466 0.14197,0.0022 -0.11269,-0.05857 -0.52712,1.014193 -0.17349,0.196091 -0.1442,0.139747 0.0563,0.02929 -0.0271,-0.08563 -0.20054,0.110463 -0.22983,0.166806 -0.45743,0.19164 -0.20054,0.110463 -0.25689,0.08118 0.0834,0.114914 -0.0834,-0.114914 -0.11491,0.0834 -0.0856,0.02706 -0.0856,0.02706 -0.0293,0.05634 -0.0856,0.02706 0.0834,0.114914 0.0586,-0.112688 -0.0564,-0.02929 -0.14197,-0.0022 -0.0563,-0.02928 -0.20054,0.110463 -0.17126,0.05412 -0.48449,0.106011 -0.39886,0.07895 -0.42814,0.135296 -0.17126,0.05412 -0.14197,-0.0022 -0.74361,0.329162 -0.19831,-0.03151 -0.11492,0.0834 -0.0563,-0.02929 -0.20054,0.110462 -0.11492,0.0834 -0.2276,0.02483 -0.20054,0.110462 -0.17126,0.05412 0.0541,0.171258 0.0563,0.02928 0.0856,-0.02706 0.0293,-0.05634 0.2276,-0.02483 0.20054,-0.110463 0.17126,-0.05412 0.20054,-0.110463 -0.0271,-0.08563 -0.0293,0.05635 0.19832,0.03151 0.17125,-0.05412 0.34252,-0.108237 0.42814,-0.135296 0.17126,-0.05412 0.11491,-0.0834 0.39886,-0.07895 0.48449,-0.106011 0.39886,-0.07895 0.20054,-0.110462 0.25689,-0.08118 -0.0834,-0.114914 -0.002,0.141973 0.0563,0.02929 0.0856,-0.02706 0.0564,0.02929 0.0293,-0.05634 0.0563,0.02928 0.0293,-0.05634 0.11492,-0.0834 0.17125,-0.05412 -0.17125,0.05412 0.17125,-0.05412 0.20055,-0.110463 0.25688,-0.08118 0.45743,-0.19164 0.20054,-0.110463 0.22983,-0.166806 0.0293,-0.05634 0.14419,-0.139747 0.17349,-0.196092 0.26356,-0.507096 0.31991,-0.477811 -0.0293,0.05634 -0.0271,-0.08563 0.0879,-0.169032 0.0315,-0.198317 0.0315,-0.198317 0.004,-0.283946 0.0293,-0.05634 -0.0563,-0.02929 0.002,-0.141972 -0.0271,-0.08563 -0.0248,-0.227602 -0.0541,-0.171258 -0.079,-0.398859 -0.0226,-0.369575 0.004,-0.283945 -0.0856,0.02706 0.11269,0.05857"
           style="fill:#000000;fill-opacity:1;fill-rule:nonzero;stroke:none;stroke-width:0.35277778"
           id="path1278"
           inkscape:connector-curvature="0" />
        <path
           d="m -145.38453,56.754324 c -0.14642,0.28172 -0.0382,0.624235 0.24354,0.770659 0.28172,0.146424 0.62423,0.03819 0.77066,-0.243533 0.11713,-0.225376 0.0382,-0.624235 -0.24354,-0.770659 -0.28172,-0.146424 -0.65352,0.01816 -0.77066,0.243533 z"
           style="fill:#00cc9a;fill-opacity:1;fill-rule:evenodd;stroke:#000000;stroke-width:0.12876388;stroke-linecap:round;stroke-linejoin:round;stroke-miterlimit:10;stroke-dasharray:none;stroke-opacity:1"
           id="path1280"
           inkscape:connector-curvature="0" />
        <path
           d="m -142.55655,55.719397 c -0.14642,0.28172 -0.0382,0.624236 0.24353,0.77066 0.28172,0.146424 0.62424,0.03819 0.77066,-0.243533 0.11714,-0.225376 0.0382,-0.624236 -0.24353,-0.77066 -0.28172,-0.146424 -0.65352,0.01816 -0.77066,0.243533 z"
           style="fill:#00cc9a;fill-opacity:1;fill-rule:evenodd;stroke:#000000;stroke-width:0.12876388;stroke-linecap:round;stroke-linejoin:round;stroke-miterlimit:10;stroke-dasharray:none;stroke-opacity:1"
           id="path1282"
           inkscape:connector-curvature="0" />
        <path
           d="m -144.61387,56.510791 0.65317,-1.80746 m 1.69255,0.736572 -0.72135,-1.090567"
           style="fill:none;stroke:#000000;stroke-width:0.12876388;stroke-linecap:round;stroke-linejoin:round;stroke-miterlimit:10;stroke-dasharray:none;stroke-opacity:1"
           id="path1284"
           inkscape:connector-curvature="0" />
        <path
           d="m -139.57992,54.260778 c -0.14643,0.28172 0.0181,0.65352 0.29988,0.799944 0.28172,0.146424 0.62423,0.03819 0.77065,-0.243533 0.14643,-0.28172 0.0675,-0.680579 -0.21424,-0.827003 -0.28172,-0.146424 -0.70987,-0.01113 -0.85629,0.270592 z"
           style="fill:#00cc9a;fill-opacity:1;fill-rule:evenodd;stroke:#000000;stroke-width:0.12876388;stroke-linecap:round;stroke-linejoin:round;stroke-miterlimit:10;stroke-dasharray:none;stroke-opacity:1"
           id="path1286"
           inkscape:connector-curvature="0" />
        <path
           d="m -139.2059,53.954224 -0.0452,-0.739149"
           style="fill:none;stroke:#000000;stroke-width:0.12876388;stroke-linecap:round;stroke-linejoin:round;stroke-miterlimit:10;stroke-dasharray:none;stroke-opacity:1"
           id="path1288"
           inkscape:connector-curvature="0" />
        <path
           d="m -143.54661,51.841265 c -0.14643,0.28172 -0.0382,0.624236 0.24353,0.77066 0.28172,0.146424 0.62424,0.03819 0.77066,-0.243533 0.11714,-0.225376 0.0382,-0.624235 -0.24353,-0.770659 -0.28172,-0.146425 -0.65352,0.01816 -0.77066,0.243532 z"
           style="fill:#00cc9a;fill-opacity:1;fill-rule:evenodd;stroke:#000000;stroke-width:0.12876388;stroke-linecap:round;stroke-linejoin:round;stroke-miterlimit:10;stroke-dasharray:none;stroke-opacity:1"
           id="path1290"
           inkscape:connector-curvature="0" />
        <path
           d="m -142.90644,52.674946 1.28701,1.241442"
           style="fill:none;stroke:#000000;stroke-width:0.12876388;stroke-linecap:round;stroke-linejoin:round;stroke-miterlimit:10;stroke-dasharray:none;stroke-opacity:1"
           id="path1292"
           inkscape:connector-curvature="0" />
        <path
           d="m -136.45687,52.520438 c -0.14642,0.28172 -0.0382,0.624236 0.24353,0.77066 0.28172,0.146424 0.62424,0.03819 0.77066,-0.243533 0.14643,-0.28172 0.0675,-0.68058 -0.21425,-0.827004 -0.28172,-0.146424 -0.65352,0.01816 -0.79994,0.299877 z"
           style="fill:#00cc9a;fill-opacity:1;fill-rule:evenodd;stroke:#000000;stroke-width:0.12876388;stroke-linecap:round;stroke-linejoin:round;stroke-miterlimit:10;stroke-dasharray:none;stroke-opacity:1"
           id="path1294"
           inkscape:connector-curvature="0" />
        <path
           d="m -136.48393,52.434809 -1.13356,-0.159778"
           style="fill:none;stroke:#000000;stroke-width:0.12876388;stroke-linecap:round;stroke-linejoin:round;stroke-miterlimit:10;stroke-dasharray:none;stroke-opacity:1"
           id="path1296"
           inkscape:connector-curvature="0" />
        <path
           d="m -128.97167,58.772515 -0.0812,-0.256887 -0.25689,0.08118 -0.25689,0.08118 -0.56789,-0.0089 0.0271,0.08563 0.0586,-0.112688 -0.53861,-0.06525 -0.5386,-0.06525 -0.0564,-0.02929 -0.42814,0.135296 -0.42815,0.135296 -0.3718,0.16458 -0.40108,0.220925 0.0271,0.08563 -0.0271,-0.08563 -0.0856,0.02706 -0.14197,-0.0022 -0.0856,0.02706 -0.11491,0.0834 0.0563,0.02929 -0.0271,-0.08563 -0.22983,0.166807 -0.28617,0.137521 -0.28617,0.137522 -0.31323,0.05189 -0.0856,0.02706 -0.0586,0.112688 0.11269,0.05857 -0.0834,-0.114914 -0.0856,0.02706 -0.22983,0.166807 -0.25689,0.08118 -0.34251,0.108237 -0.34252,0.108237 -0.34029,-0.03374 -0.28394,-0.0045 0.0834,0.114913 0.0293,-0.05634 -1.01419,-0.527127 -0.11714,0.225376 0.78882,0.409988 0.14197,0.0022 0.11269,0.05857 0.0856,-0.02706 0.25466,0.0608 0.31323,-0.05189 0.31323,-0.05189 0.34252,-0.108237 0.28617,-0.137522 0.25688,-0.08118 0.11492,-0.0834 0.0293,-0.05634 0.0856,-0.02706 -0.0834,-0.114913 -0.002,0.141973 0.34252,-0.108237 0.57234,-0.275044 0.28617,-0.137521 0.0293,-0.05634 -0.0293,0.05634 0.0293,-0.05634 0.14197,0.0022 0.0856,-0.02706 0.0856,-0.02706 0.0856,-0.02706 -0.0293,0.05634 0.40109,-0.220925 0.3718,-0.164581 0.3718,-0.164581 0.42814,-0.135296 -0.0271,-0.08563 -0.002,0.141972 0.45297,0.09231 0.53861,0.06525 0.14197,0.0022 0.22761,-0.02483 0.28394,0.0045 0.2276,-0.02483"
           style="fill:#000000;fill-opacity:1;fill-rule:nonzero;stroke:none;stroke-width:0.35277778"
           id="path1298"
           inkscape:connector-curvature="0" />
        <path
           d="m -139.25673,59.008903 c -0.14643,0.28172 -0.0382,0.624236 0.24353,0.77066 0.28172,0.146424 0.56789,0.0089 0.71431,-0.272818 0.14643,-0.28172 0.12382,-0.651294 -0.1579,-0.797718 -0.28172,-0.146425 -0.65352,0.01816 -0.79994,0.299876 z"
           style="fill:#00cc9a;fill-opacity:1;fill-rule:evenodd;stroke:#000000;stroke-width:0.12876388;stroke-linecap:round;stroke-linejoin:round;stroke-miterlimit:10;stroke-dasharray:none;stroke-opacity:1"
           id="path1300"
           inkscape:connector-curvature="0" />
        <path
           d="m -138.58728,59.78624 1.24847,0.07637"
           style="fill:none;stroke:#000000;stroke-width:0.12876388;stroke-linecap:round;stroke-linejoin:round;stroke-miterlimit:10;stroke-dasharray:none;stroke-opacity:1"
           id="path1302"
           inkscape:connector-curvature="0" />
        <path
           d="m -135.49574,58.244217 c -0.14643,0.28172 -0.0382,0.624236 0.24353,0.77066 0.28172,0.146424 0.62424,0.03819 0.77066,-0.243533 0.11714,-0.225376 0.0382,-0.624235 -0.24353,-0.77066 -0.28172,-0.146424 -0.65352,0.01816 -0.77066,0.243533 z"
           style="fill:#00cc9a;fill-opacity:1;fill-rule:evenodd;stroke:#000000;stroke-width:0.12876388;stroke-linecap:round;stroke-linejoin:round;stroke-miterlimit:10;stroke-dasharray:none;stroke-opacity:1"
           id="path1304"
           inkscape:connector-curvature="0" />
        <path
           d="m -134.82629,59.021554 0.46891,0.887799"
           style="fill:none;stroke:#000000;stroke-width:0.12876388;stroke-linecap:round;stroke-linejoin:round;stroke-miterlimit:10;stroke-dasharray:none;stroke-opacity:1"
           id="path1306"
           inkscape:connector-curvature="0" />
        <path
           d="m -132.35231,57.015425 c -0.14642,0.28172 -0.0382,0.624236 0.24354,0.77066 0.28172,0.146424 0.56789,0.0089 0.71431,-0.272818 0.11714,-0.225376 0.0945,-0.594951 -0.18719,-0.741375 -0.28172,-0.146424 -0.65352,0.01816 -0.77066,0.243533 z"
           style="fill:#00cc9a;fill-opacity:1;fill-rule:evenodd;stroke:#000000;stroke-width:0.12876388;stroke-linecap:round;stroke-linejoin:round;stroke-miterlimit:10;stroke-dasharray:none;stroke-opacity:1"
           id="path1308"
           inkscape:connector-curvature="0" />
        <path
           d="m -131.68286,57.792762 0.55677,0.718767"
           style="fill:none;stroke:#000000;stroke-width:0.12876388;stroke-linecap:round;stroke-linejoin:round;stroke-miterlimit:10;stroke-dasharray:none;stroke-opacity:1"
           id="path1310"
           inkscape:connector-curvature="0" />
        <path
           d="m -126.38804,64.266115 0.17126,-0.05412 -0.0541,-0.171257 0.002,-0.141973 -0.13975,-0.144199 -0.0248,-0.227601 -0.11046,-0.200543 -0.2187,-0.543058 -0.24576,-0.628687 -0.3021,-0.657971 -0.3021,-0.657972 -0.32916,-0.7436 -0.27282,-0.714316 -0.3021,-0.657972 -0.27282,-0.714315 -0.55009,-1.144686 -0.11046,-0.200542 -0.0541,-0.171258 -0.10823,-0.342515 -0.0834,-0.114914 -0.0271,-0.08563 -0.11491,0.0834 0.14197,0.0022 -0.0789,-0.398859 -0.0519,-0.313231 0.009,-0.567891 0.0608,-0.254661 -0.0856,0.02706 0.0563,0.02929 0.0315,-0.198317 0.063,-0.396634 0.17571,-0.338064 0.0901,-0.311005 0.14643,-0.28172 0.0901,-0.311005 0.14642,-0.28172 0.17348,-0.196092 0.14643,-0.28172 0.17348,-0.196091 0.17571,-0.338064 -0.0271,-0.08563 0.0586,-0.112688 -0.0271,-0.08563 -0.11491,0.0834 0.11491,-0.0834 -0.0541,-0.171258 0.0315,-0.198316 -0.0541,-0.171258 -0.0856,0.02706 0.11268,0.05857 0.002,-0.141973 0.0608,-0.254661 0.0608,-0.254661 0.0608,-0.254661 -0.027,-0.08563 -0.0271,-0.08563 0.002,-0.141972 -0.0271,-0.08563 -0.0834,-0.114914 -0.0563,-0.02929 -0.0834,-0.114913 -0.13974,-0.144199 -0.30878,-0.232053 -0.33584,-0.317682 -0.39219,-0.346966 -0.36289,-0.403311 -0.42147,-0.290623 -0.39218,-0.346966 -0.47781,-0.319908 -0.39441,-0.204994 -0.50932,-0.12159 -0.48227,-0.03596 -0.0563,-0.02928 -0.53861,-0.06525 -0.51155,0.02038 -0.56789,-0.0089 -0.4552,0.04967 -0.4552,0.04967 -0.34029,-0.03374 -0.002,0.141973 0.0586,-0.112688 -0.19832,-0.03151 -0.0563,-0.02929 -0.17126,0.05412 -0.2276,0.02483 -0.20054,0.110463 -0.20054,0.110462 -0.20055,0.110463 -0.25688,0.08118 -0.14198,-0.0022 -0.31323,0.05189 -0.28394,-0.0045 0.0271,0.08563 0.0586,-0.112688 -0.50933,-0.121591 -0.53638,-0.207219 -0.59272,-0.236504 -0.0564,-0.02929 -0.0856,0.02706 -0.0856,0.02706 -0.22983,0.166807 -0.20054,0.110462 -0.0856,0.02706 -0.0586,0.112688 -0.0563,-0.02928 0.22538,0.117139 -0.11269,-0.05857 0.0271,0.08563 0.11491,-0.0834 0.20055,-0.110463 0.25688,-0.08118 0.0856,-0.02706 0.0293,-0.05634 -0.0271,-0.08563 -0.0293,0.05634 0.56344,0.292848 0.53638,0.207219 0.25467,0.0608 0.28394,0.0045 0.0563,0.02929 0.28394,0.0045 0.28395,0.0045 0.2276,-0.02483 0.17126,-0.05412 0.20054,-0.110462 0.20054,-0.110462 0.25689,-0.08118 0.20054,-0.110462 0.19832,0.03151 -0.0541,-0.171258 -0.0586,0.112688 0.19832,0.03151 0.0563,0.02929 0.36957,-0.02261 0.45521,-0.04967 0.51155,-0.02038 0.51154,-0.02038 0.48227,0.03596 0.56789,0.0089 -0.0271,-0.08563 -0.0586,0.112688 0.48226,0.03596 0.48004,0.177935 0.9015,0.468557 0.78437,0.693933 0.39218,0.346967 0.39218,0.346966 0.33584,0.317682 0.25244,0.202768 0.19609,0.173484 0.0834,0.114913 0.0586,-0.112688 -0.11491,0.0834 0.0834,0.114914 0.0271,0.08563 0.0271,0.08563 -0.002,0.141973 0.11492,-0.0834 -0.11269,-0.05857 -0.004,0.283946 -0.11714,0.225376 -0.004,0.283945 -0.0586,0.112688 0.0271,0.08563 -0.0315,0.198317 0.0541,0.171258 0.0248,0.227602 -0.0271,-0.08563 0.0271,0.08563 -0.0293,0.05634 0.14198,0.0022 -0.11269,-0.05857 -0.32214,0.619784 -0.20276,0.252435 -0.40999,0.788817 -0.0901,0.311004 -0.14642,0.281721 -0.11937,0.367349 -0.063,0.396633 -0.0315,0.198317 -0.0293,0.05634 -0.004,0.283946 -0.004,0.283946 -0.004,0.283945 0.0519,0.313231 0.0226,0.369575 0.0293,-0.05634 -0.0293,0.05634 0.0541,0.171257 0.0834,0.114914 0.0541,0.171258 0.11046,0.200542 0.0812,0.256887 0.24798,0.486714 0.24576,0.628686 0.30211,0.657972 0.3021,0.657972 0.32916,0.7436 0.32916,0.743601 0.27282,0.714315 0.3021,0.657972 0.27504,0.572342 0.2187,0.543058 0.0812,0.256887 0.0541,0.171258 0.0541,0.171257 0.0834,0.114914 -0.002,0.141973"
           style="fill:#000000;fill-opacity:1;fill-rule:nonzero;stroke:none;stroke-width:0.35277778"
           id="path1312"
           inkscape:connector-curvature="0" />
        <path
           d="m -141.24717,44.663318 c -0.14642,0.28172 -0.0382,0.624236 0.24354,0.77066 0.28172,0.146424 0.62423,0.03819 0.77066,-0.243533 0.11713,-0.225376 0.0382,-0.624236 -0.24354,-0.77066 -0.28172,-0.146424 -0.65352,0.01816 -0.77066,0.243533 z"
           style="fill:#00cc9a;fill-opacity:1;fill-rule:evenodd;stroke:#000000;stroke-width:0.12876388;stroke-linecap:round;stroke-linejoin:round;stroke-miterlimit:10;stroke-dasharray:none;stroke-opacity:1"
           id="path1314"
           inkscape:connector-curvature="0" />
        <path
           d="m -140.607,45.496999 0.2932,1.225863"
           style="fill:none;stroke:#000000;stroke-width:0.12876388;stroke-linecap:round;stroke-linejoin:round;stroke-miterlimit:10;stroke-dasharray:none;stroke-opacity:1"
           id="path1316"
           inkscape:connector-curvature="0" />
        <path
           d="m -138.80434,44.64481 c -0.14643,0.28172 -0.0382,0.624235 0.24353,0.770659 0.28172,0.146424 0.56789,0.0089 0.71431,-0.272817 0.11714,-0.225376 0.0945,-0.594951 -0.18718,-0.741375 -0.28172,-0.146424 -0.65352,0.01816 -0.77066,0.243533 z"
           style="fill:#00cc9a;fill-opacity:1;fill-rule:evenodd;stroke:#000000;stroke-width:0.12876388;stroke-linecap:round;stroke-linejoin:round;stroke-miterlimit:10;stroke-dasharray:none;stroke-opacity:1"
           id="path1318"
           inkscape:connector-curvature="0" />
        <path
           d="m -138.13489,45.422146 0.80029,1.489427"
           style="fill:none;stroke:#000000;stroke-width:0.12876388;stroke-linecap:round;stroke-linejoin:round;stroke-miterlimit:10;stroke-dasharray:none;stroke-opacity:1"
           id="path1320"
           inkscape:connector-curvature="0" />
        <path
           d="m -136.07535,44.48878 c -0.14642,0.28172 -0.0382,0.624235 0.24353,0.770659 0.28172,0.146424 0.62424,0.03819 0.77066,-0.243533 0.11714,-0.225376 0.0382,-0.624235 -0.24353,-0.770659 -0.28172,-0.146424 -0.65352,0.01816 -0.77066,0.243533 z"
           style="fill:#00cc9a;fill-opacity:1;fill-rule:evenodd;stroke:#000000;stroke-width:0.12876388;stroke-linecap:round;stroke-linejoin:round;stroke-miterlimit:10;stroke-dasharray:none;stroke-opacity:1"
           id="path1322"
           inkscape:connector-curvature="0" />
        <path
           d="m -135.4059,45.266116 -0.38738,1.158391"
           style="fill:none;stroke:#000000;stroke-width:0.12876388;stroke-linecap:round;stroke-linejoin:round;stroke-miterlimit:10;stroke-dasharray:none;stroke-opacity:1"
           id="path1324"
           inkscape:connector-curvature="0" />
        <path
           d="m -128.57011,49.4631 0.17125,-0.05412 -0.0248,-0.227602 -0.0248,-0.227602 -0.0248,-0.227601 -0.0248,-0.227602 -0.0856,0.02706 0.0856,-0.02706 0.0879,-0.169032 -0.0271,-0.08563 0.002,-0.141973 -0.0563,-0.02928 0.0563,0.02928 0.0879,-0.169032 0.002,-0.141973 0.0293,-0.05634 -0.14198,-0.0022 0.11269,0.05857 0.32213,-0.619783 0.23651,-0.592725 0.11714,-0.225376 0.20276,-0.252436 0.20277,-0.252435 -0.0563,-0.02928 -0.002,0.141973 0.25912,-0.22315 0.0293,-0.05634 0.34474,-0.25021 -0.11269,-0.05857 0.0271,0.08563 0.37403,-0.306553 0.20054,-0.110463 0.20054,-0.110462 0.17126,-0.05412 0.25689,-0.08118 0.22983,-0.166807 0.3718,-0.164581 0.45742,-0.19164 0.3718,-0.16458 0.48449,-0.106012 0.77066,-0.243532 0.31323,-0.05189 0.0856,-0.02706 0.11492,-0.0834 0.14197,0.0022 0.20054,-0.110462 0.28395,0.0045 -0.0834,-0.114914 -0.0586,0.112688 0.19832,0.03151 0.16903,0.08785 0.25689,-0.08118 0.2276,-0.02483 0.14197,0.0022 0.0856,-0.02706 0.0293,-0.05634 0.11491,-0.0834 0.0293,-0.05634 -0.11269,-0.05857 -0.0856,0.02706 0.0271,0.08563 0.0856,-0.02706 -0.0834,-0.114913 -0.0586,0.112688 0.16904,0.08785 0.0856,-0.02706 0.11491,-0.0834 0.0856,-0.02706 0.0293,-0.05634 0.0856,-0.02706 0.11714,-0.225376 0.1442,-0.139747 -0.11269,-0.05857 0.0271,0.08563 0.17348,-0.196091 -0.0563,-0.02929 0.0271,0.08563 0.0856,-0.02706 0.14197,0.0022 0.0856,-0.02706 0.0293,-0.05634 0.0856,-0.02706 0.0293,-0.05634 0.0856,-0.02706 -0.11269,-0.05857 -0.002,0.141973 0.0856,-0.02706 0.0586,-0.112688 0.0564,0.02928 0.65797,-0.302103 0.31545,-0.193866 0.3718,-0.16458 0.22983,-0.166807 0.31546,-0.193865 0.17126,-0.05412 0.14419,-0.139747 0.0293,-0.05634 0.11491,-0.0834 0.0879,-0.169032 -0.16904,-0.08785 -0.0879,0.169032 -0.11491,0.0834 0.11268,0.05857 -0.0271,-0.08563 -0.17126,0.05412 -0.1442,0.139747 -0.31546,0.193866 -0.28617,0.137521 -0.31545,0.193866 -0.34252,0.108237 -0.68726,0.358446 0.0271,0.08563 -0.0271,-0.08563 -0.0856,0.02706 -0.0856,0.02706 -0.0586,0.112688 -0.0856,0.02706 0.11269,0.05857 -0.0271,-0.08563 -0.17126,0.05412 -0.0856,0.02706 -0.0563,-0.02929 -0.0293,0.05634 -0.1442,0.139748 -0.0856,0.02706 -0.0879,0.169032 -0.17348,0.196091 -0.0293,0.05634 0.11269,0.05857 -0.0271,-0.08563 -0.0856,0.02706 -0.11491,0.0834 -0.0563,-0.02929 0.0271,0.08563 0.0293,-0.05634 -0.0563,-0.02929 -0.0293,0.05635 0.14197,0.0022 -0.0563,-0.02929 -0.0856,0.02706 0.11269,0.05857 -0.0541,-0.171258 -0.0856,0.02706 -0.0293,0.05634 -0.0856,0.02706 -0.0293,0.05634 0.0834,0.114914 -0.0541,-0.171258 -0.0293,0.05634 -0.2276,0.02483 -0.2276,0.02483 -0.17126,0.05412 0.0271,0.08563 0.0586,-0.112688 -0.14197,-0.0022 -0.16904,-0.08785 -0.0856,0.02706 -0.2276,0.02483 -0.2276,0.02483 -0.11491,0.0834 -0.17126,0.05412 0.0834,0.114914 -0.0271,-0.08563 -0.36957,0.02261 -0.39886,0.07895 -0.42814,0.135296 -0.45743,0.19164 -0.42815,0.135296 -0.3718,0.164581 -0.40108,0.220925 -0.28617,0.137521 0.0271,0.08563 -0.0271,-0.08563 -0.17126,0.05412 -0.25689,0.08118 -0.17126,0.05412 -0.17348,0.196091 -0.40108,0.220925 -0.0586,0.112688 -0.2884,0.279494 0.11269,0.05857 -0.0834,-0.114914 -0.22982,0.166807 -0.0293,0.05634 -0.20277,0.252435 -0.20277,0.252435 -0.40998,0.788817 -0.0901,0.311005 -0.17571,0.338063 0.0293,-0.05634 -0.0879,0.169032 -0.002,0.141973 -0.0586,0.112688 0.0586,-0.112688 -0.002,0.141973 -0.0608,0.254661 0.11492,-0.0834 -0.11269,-0.05857 -0.0608,0.254661 -0.0293,0.05634 0.0812,0.256886 0.0248,0.227602 0.0248,0.227602"
           style="fill:#000000;fill-opacity:1;fill-rule:nonzero;stroke:none;stroke-width:0.35277778"
           id="path1326"
           inkscape:connector-curvature="0" />
        <path
           d="m -133.03757,44.564803 c -0.14643,0.281721 -0.0382,0.624235 0.24353,0.770659 0.28172,0.146424 0.56789,0.0089 0.71431,-0.272816 0.14643,-0.281721 0.12382,-0.651295 -0.1579,-0.797719 -0.28172,-0.146424 -0.65352,0.01816 -0.79994,0.299876 z"
           style="fill:#00cc9a;fill-opacity:1;fill-rule:evenodd;stroke:#000000;stroke-width:0.12876388;stroke-linecap:round;stroke-linejoin:round;stroke-miterlimit:10;stroke-dasharray:none;stroke-opacity:1"
           id="path1328"
           inkscape:connector-curvature="0" />
        <path
           d="m -132.36812,45.342139 0.57714,1.230314"
           style="fill:none;stroke:#000000;stroke-width:0.12876388;stroke-linecap:round;stroke-linejoin:round;stroke-miterlimit:10;stroke-dasharray:none;stroke-opacity:1"
           id="path1330"
           inkscape:connector-curvature="0" />
        <path
           d="m -126.00863,45.498637 c -0.14642,0.28172 -0.0382,0.624236 0.24353,0.77066 0.28172,0.146424 0.62424,0.03819 0.77066,-0.243533 0.14643,-0.28172 0.0675,-0.68058 -0.21424,-0.827004 -0.28172,-0.146424 -0.65352,0.01816 -0.79995,0.299877 z"
           style="fill:#00cc9a;fill-opacity:1;fill-rule:evenodd;stroke:#000000;stroke-width:0.12876388;stroke-linecap:round;stroke-linejoin:round;stroke-miterlimit:10;stroke-dasharray:none;stroke-opacity:1"
           id="path1332"
           inkscape:connector-curvature="0" />
        <path
           d="m -125.69095,45.162799 -1.35225,-0.702836 m 4.46195,-0.185667 0.0968,-0.736923"
           style="fill:none;stroke:#000000;stroke-width:0.12876388;stroke-linecap:round;stroke-linejoin:round;stroke-miterlimit:10;stroke-dasharray:none;stroke-opacity:1"
           id="path1334"
           inkscape:connector-curvature="0" />
        <path
           d="m -119.96272,43.917724 c -0.14642,0.28172 -0.0382,0.624235 0.24354,0.770659 0.28172,0.146425 0.62423,0.03819 0.77066,-0.243532 0.11713,-0.225376 0.0382,-0.624236 -0.24354,-0.77066 -0.28172,-0.146424 -0.65352,0.01816 -0.77066,0.243533 z"
           style="fill:#00cc9a;fill-opacity:1;fill-rule:evenodd;stroke:#000000;stroke-width:0.12876388;stroke-linecap:round;stroke-linejoin:round;stroke-miterlimit:10;stroke-dasharray:none;stroke-opacity:1"
           id="path1336"
           inkscape:connector-curvature="0" />
        <path
           d="m -120.01906,43.888439 -0.47114,-0.745826"
           style="fill:none;stroke:#000000;stroke-width:0.12876388;stroke-linecap:round;stroke-linejoin:round;stroke-miterlimit:10;stroke-dasharray:none;stroke-opacity:1"
           id="path1338"
           inkscape:connector-curvature="0" />
        <path
           d="m -128.09336,44.415099 c -0.14642,0.28172 -0.0382,0.624235 0.24353,0.770659 0.28173,0.146424 0.62424,0.03819 0.77066,-0.243532 0.11714,-0.225377 0.0382,-0.624236 -0.24353,-0.77066 -0.28172,-0.146424 -0.65352,0.01816 -0.77066,0.243533 z"
           style="fill:#00cc9a;fill-opacity:1;fill-rule:evenodd;stroke:#000000;stroke-width:0.12876388;stroke-linecap:round;stroke-linejoin:round;stroke-miterlimit:10;stroke-dasharray:none;stroke-opacity:1"
           id="path1340"
           inkscape:connector-curvature="0" />
        <path
           d="m -127.42391,45.192435 0.22093,0.401085"
           style="fill:none;stroke:#000000;stroke-width:0.12876388;stroke-linecap:round;stroke-linejoin:round;stroke-miterlimit:10;stroke-dasharray:none;stroke-opacity:1"
           id="path1342"
           inkscape:connector-curvature="0" />
        <path
           d="m -117.07617,42.770109 c -0.14642,0.28172 -0.0382,0.624236 0.24353,0.77066 0.28172,0.146424 0.62424,0.03819 0.77066,-0.243533 0.11714,-0.225376 0.0382,-0.624235 -0.24353,-0.770659 -0.28172,-0.146425 -0.65352,0.01816 -0.77066,0.243532 z"
           style="fill:#00cc9a;fill-opacity:1;fill-rule:evenodd;stroke:#000000;stroke-width:0.12876388;stroke-linecap:round;stroke-linejoin:round;stroke-miterlimit:10;stroke-dasharray:none;stroke-opacity:1"
           id="path1344"
           inkscape:connector-curvature="0" />
        <path
           d="m -117.07617,42.770109 -0.89038,-1.178421"
           style="fill:none;stroke:#000000;stroke-width:0.12876388;stroke-linecap:round;stroke-linejoin:round;stroke-miterlimit:10;stroke-dasharray:none;stroke-opacity:1"
           id="path1346"
           inkscape:connector-curvature="0" />
        <path
           d="m -126.16044,64.241281 0.25689,-0.08118 -0.11046,-0.200543 -0.0541,-0.171258 -0.10824,-0.342515 -0.13752,-0.286171 -0.10824,-0.342516 -0.16458,-0.3718 -0.29988,-0.799945 -0.32916,-0.7436 -0.24353,-0.77066 -0.16458,-0.3718 -0.10824,-0.342515 -0.0812,-0.256887 -0.0812,-0.256886 -0.11046,-0.200543 -0.0248,-0.227602 -0.13752,-0.286171 -0.0812,-0.256886 -0.11046,-0.200543 -0.0248,-0.227602 -0.14198,-0.0022 0.11269,0.05857 0.0315,-0.198317 0.0586,-0.112688 0.002,-0.141973 0.11714,-0.225376 0.14419,-0.139747 0.11714,-0.225376 0.20277,-0.252435 0.20277,-0.252436 0.25911,-0.22315 0.23206,-0.308779 0.28839,-0.279495 0.60608,-0.615333 0.60608,-0.615333 0.63314,-0.529704 0.2884,-0.279495 0.28839,-0.279494 -0.0563,-0.02929 0.0271,0.08563 0.22982,-0.166806 0.25912,-0.223151 0.45965,-0.333613 0.43037,-0.277269 0.40109,-0.220925 0.40108,-0.220924 0.77066,-0.243533 0.39886,-0.07895 0.31323,-0.05189 0.36958,-0.02261 -0.0271,-0.08563 -0.0586,0.112688 0.34029,0.03374 0.62201,0.180161 0.36735,0.119364 1.01419,0.527127 0.19609,0.173484 0.13975,0.144198 0.0293,-0.05634 -0.0856,0.02706 0.13975,0.144199 0.0834,0.114913 0.13975,0.144199 0.13975,0.144198 0.11269,0.05857 0.0856,-0.02706 0.14198,0.0022 0.0856,-0.02706 0.0856,-0.02706 0.11492,-0.0834 0.17126,-0.05412 0.0293,-0.05635 0.1442,-0.139747 0.20277,-0.252435 0.31768,-0.335839 0.23205,-0.308779 0.1442,-0.139747 0.1442,-0.139747 -0.11269,-0.05857 -0.002,0.141973 0.20054,-0.110463 0.0856,-0.02706 0.17125,-0.05412 -0.0834,-0.114914 -0.0586,0.112688 0.19832,0.03151 0.22537,0.117139 0.0834,0.114914 0.0586,-0.112688 -0.0856,0.02706 0.0834,0.114913 0.19387,0.315457 0.16458,0.3718 0.22092,0.401085 0.27727,0.43037 0.33362,0.459654 0.0271,0.08563 0.3629,0.403311 0.2795,0.288397 0.25243,0.202768 0.2795,0.288397 0.36512,0.261338 0.67168,0.635364 0.70096,0.579019 0.70096,0.57902 0.33584,0.317682 0.36512,0.261337 0.30878,0.232053 0.25244,0.202769 0.25243,0.202768 0.19609,0.173483 0.0563,0.02929 -0.0563,-0.02929 0.11269,0.05857 0.13975,0.144198 0.33806,0.175709 0.13975,0.144199 0.16903,0.08785 0.0834,0.114914 0.78881,0.409987 0.0856,-0.02706 -0.14197,-0.0022 0.0834,0.114914 0.33807,0.175709 0.19831,0.03151 0.16903,0.08785 0.14198,0.0022 0.13974,0.144198 0.0586,-0.112688 -0.14197,-0.0022 0.0834,0.114914 0.0856,-0.02706 -0.0856,0.02706 0.0271,0.08563 -0.0293,0.05634 0.14197,0.0022 -0.11269,-0.05857 -0.0586,0.112688 -0.002,0.141973 -0.0337,0.34029 -0.11936,0.367349 -0.063,0.396633 -0.0315,0.198317 -0.0586,0.112688 -0.0315,0.198317 -0.0293,0.05634 -0.002,0.141973 -0.0293,0.05634 0.11269,0.05857 -0.0563,-0.02929 0.25021,0.344741 0.0586,-0.112688 -0.0856,0.02706 0.11047,0.200543 0.0834,0.114913 -0.0834,-0.114913 0.0834,0.114913 0.0248,0.227602 0.11047,0.200543 0.1668,0.229827 0.0564,0.02929 0.0834,0.114913 0.0271,0.08563 0.19832,0.03151 0.19831,0.03151 0.0564,0.02929 0.2276,-0.02483 0.14197,0.0022 0.2276,-0.02483 0.22761,-0.02483 0.19831,0.03151 -0.0834,-0.114913 -0.0586,0.112688 0.14197,0.0022 0.0563,0.02929 0.31323,-0.05189 0.2276,-0.02483 0.17126,-0.05412 0.19831,0.03151 0.0586,-0.112688 -0.0586,0.112688 0.14198,0.0022 0.11268,0.05857 0.14198,0.0022 0.17125,-0.05412 0.11269,0.05857 0.002,-0.141973 -0.0586,0.112688 0.0563,0.02929 0.14198,0.0022 0.16903,0.08785 -0.0563,-0.02929 0.0856,-0.02706 0.22538,0.117139 0.311,0.09008 0.25466,0.06079 0.563444,0.292848 0.252436,0.202768 0.0834,0.114914 0.28172,0.146424 0.08563,-0.02706 0.112688,0.05857 0.171258,-0.05412 0.171257,-0.05412 0.200543,-0.110463 0.171258,-0.05412 0.200542,-0.110463 0.256887,-0.08118 0.171257,-0.05412 0.171258,-0.05412 0.198317,0.03151 -0.0834,-0.114914 -0.02929,0.05634 0.198317,0.03151 0.619784,0.322133 0.198317,0.03151 0.05634,0.02928 0.08786,-0.169032 -0.507097,-0.263564 -0.367349,-0.119365 -0.198317,-0.03151 -0.05634,-0.02929 -0.141972,-0.0022 -0.171258,0.05412 -0.256887,0.08118 -0.171257,0.05412 -0.200543,0.110462 -0.200542,0.110463 -0.200543,0.110462 -0.171258,0.05412 -0.141973,-0.0022 -0.141972,-0.0022 0.02706,0.08563 0.05857,-0.112688 -0.198316,-0.03151 -0.0834,-0.114913 -0.112688,-0.05857 -0.252435,-0.202768 -0.0834,-0.114914 -0.169036,-0.08785 -0.311,-0.09008 -0.22538,-0.11714 -0.311,-0.09008 -0.25466,-0.06079 -0.0586,0.112688 0.0586,-0.112688 -0.19832,-0.03151 -0.11269,-0.05857 -0.0856,0.02706 -0.11269,-0.05857 -0.0856,0.02706 -0.0856,0.02706 -0.11269,-0.05857 -0.002,0.141973 0.0586,-0.112688 -0.14197,-0.0022 -0.16903,-0.08786 -0.0856,0.02706 0.0856,-0.02706 -0.31323,0.05189 -0.2276,0.02483 -0.17126,0.05412 -0.28395,-0.0045 0.0271,0.08563 0.0293,-0.05634 -0.11269,-0.05857 -0.0856,0.02706 -0.14197,-0.0022 -0.2276,0.02483 -0.19832,-0.03151 -0.2276,0.02483 -0.22761,0.02483 0.0834,0.114913 0.0586,-0.112688 -0.19832,-0.03151 -0.16903,-0.08786 -0.0586,0.112688 0.0586,-0.112688 -0.13975,-0.144198 -0.0586,0.112688 0.0856,-0.02706 -0.11046,-0.200543 -0.11046,-0.200542 -0.0812,-0.256887 -0.0856,0.02706 0.0856,-0.02706 -0.0541,-0.171258 -0.0834,-0.114913 -0.0834,-0.114914 -0.22315,-0.259112 -0.0586,0.112688 0.11492,-0.0834 -0.0271,-0.08563 -0.0856,0.02706 0.11269,0.05857 -0.0271,-0.08563 0.0879,-0.169032 0.002,-0.141973 0.0315,-0.198317 0.11936,-0.367349 0.063,-0.396634 0.0901,-0.311005 0.004,-0.283946 0.0293,-0.05634 0.002,-0.141972 0.0293,-0.05634 -0.0293,0.05634 0.0293,-0.05634 -0.11269,-0.05857 -0.0271,-0.08563 -0.28172,-0.146424 -0.39663,-0.06302 -0.28172,-0.146424 -0.0586,0.112688 0.17126,-0.05412 -0.0834,-0.114914 -0.0563,-0.02929 -0.42147,-0.290623 -0.33806,-0.175709 -0.0586,0.112689 0.0586,-0.112689 -0.33807,-0.175708 -0.13974,-0.144199 -0.16903,-0.08785 -0.13975,-0.144199 -0.28172,-0.146424 -0.0586,0.112687 0.0586,-0.112687 -0.19609,-0.173483 -0.25244,-0.202769 -0.25243,-0.202768 -0.30878,-0.232053 -0.33584,-0.317681 -0.36513,-0.261338 -0.70096,-0.57902 -0.67167,-0.635364 -0.70097,-0.579019 -0.36512,-0.261338 -0.27949,-0.288397 -0.22315,-0.259112 -0.25244,-0.202768 -0.38996,-0.48894 -0.0586,0.112688 0.0856,-0.02706 -0.33361,-0.459655 -0.22093,-0.401085 -0.24798,-0.486714 -0.19386,-0.315456 -0.19387,-0.315456 -0.0834,-0.114914 -0.0271,-0.08563 -0.0834,-0.114914 -0.28172,-0.146424 -0.14197,-0.0022 -0.0856,0.02706 -0.0856,0.02706 -0.17125,0.05412 -0.11492,0.0834 -0.0293,0.05634 -0.1442,0.139747 -0.1442,0.139748 -0.2884,0.279494 -0.26133,0.365123 -0.25912,0.223151 -0.1442,0.139747 0.11269,0.05857 -0.0271,-0.08563 -0.11491,0.0834 -0.11491,0.0834 -0.0856,0.02706 -0.14198,-0.0022 -0.0856,0.02706 0.0271,0.08563 0.0586,-0.112688 -0.28172,-0.146424 -0.13974,-0.144199 -0.0293,0.05634 0.0856,-0.02706 -0.19609,-0.173483 -0.0271,-0.08563 -0.13975,-0.144198 -0.19609,-0.173484 -1.35225,-0.702836 -0.31101,-0.09008 -0.311,-0.09008 -0.34029,-0.03374 -0.0856,0.02706 -0.34029,-0.03374 -0.39886,0.07895 -0.34252,0.108236 -0.39886,0.07895 -0.3718,0.164581 -0.80217,0.44185 -0.48671,0.247984 -0.45966,0.333613 -0.22982,0.166806 -0.25911,0.22315 -0.0293,0.05635 -0.2884,0.279494 -0.34474,0.25021 -0.57679,0.558989 -0.66242,0.586048 -0.54974,0.644618 -0.2884,0.279494 -0.28839,0.279495 -0.20277,0.252435 -0.40554,0.504871 -0.17348,0.196091 -0.26356,0.507096 -0.002,0.141973 -0.0315,0.198317 -0.0586,0.112688 0.11046,0.200542 0.0248,0.227602 0.1668,0.229827 0.10824,0.342516 0.0541,0.171258 0.0541,0.171257 0.13752,0.286172 0.0519,0.31323 0.13752,0.286172 0.0789,0.398859 0.32917,0.7436 0.32916,0.743601 0.29987,0.799944 0.10824,0.342516 0.16458,0.3718 0.13752,0.286171 0.0519,0.313231 0.0812,0.256886"
           style="fill:#000000;fill-opacity:1;fill-rule:nonzero;stroke:none;stroke-width:0.35277778"
           id="path1356"
           inkscape:connector-curvature="0" />
        <path
           d="m -115.13423,51.150608 0.16903,0.08786 0.31768,-0.335839 -0.11269,-0.05857 0.0834,0.114913 0.34474,-0.250209 0.40108,-0.220925 0.40109,-0.220925 0.0293,-0.05634 0.25911,-0.223151 0.17349,-0.196091 0.22983,-0.166806 -0.11269,-0.05857 0.0271,0.08563 0.28617,-0.137522 0.0293,-0.05634 0.17349,-0.196091 0.22982,-0.166806 -0.11268,-0.05857 0.0271,0.08563 0.22983,-0.166807 0.22983,-0.166806 0.54528,-0.360672 0.20055,-0.110463 0.22982,-0.166806 0.22983,-0.166806 0.20054,-0.110463 0.28617,-0.137522 0.14198,0.0022 -0.0271,-0.08563 -0.0293,0.05634 0.14198,0.0022 0.11268,0.05857 0.0856,-0.02706 -0.0271,-0.08563 -0.0586,0.112689 0.0856,-0.02706 0.11269,0.05857 0.0293,-0.05634 0.2276,-0.02483 0.17125,-0.05412 0.25689,-0.08118 0.0563,0.02929 -0.0271,-0.08563 -0.0293,0.05634 0.14197,0.0022 0.34252,-0.108237 0.25689,-0.08118 0.34251,-0.108237 0.2276,-0.02483 0.22761,-0.02483 0.2276,-0.02483 0.0856,-0.02706 0.0563,0.02929 0.0856,-0.02706 0.17126,-0.05412 0.17125,-0.05412 0.39886,-0.07895 0.39886,-0.07895 0.19832,0.03151 -0.0541,-0.171257 -0.0586,0.112688 0.19832,0.03151 0.0563,0.02929 0.0293,-0.05634 0.14197,0.0022 0.17126,-0.05412 0.14197,0.0022 0.2276,-0.02483 0.17126,-0.05412 0.2276,-0.02483 0.14197,0.0022 0.002,-0.141973 -0.0586,0.112688 0.14197,0.0022 0.0564,0.02928 0.0856,-0.02706 0.0856,-0.02706 0.11491,-0.0834 0.17126,-0.05412 0.11491,-0.0834 -0.0271,-0.08563 -0.002,0.141973 0.2276,-0.02483 -0.0271,-0.08563 -0.0586,0.112688 0.25466,0.06079 0.22538,0.117139 0.19831,0.03151 0.28172,0.146424 0.0856,-0.02706 0.0563,0.02928 0.2276,-0.02483 0.14197,0.0022 0.3718,-0.164581 -0.0271,-0.08563 -0.002,0.141973 0.25688,-0.08118 0.17126,-0.05412 0.17126,-0.05412 0.20054,-0.110462 0.0856,-0.02706 0.0293,-0.05634 0.11492,-0.0834 -0.11269,-0.05857 0.0271,0.08563 0.22983,-0.166807 0.20054,-0.110462 0.11491,-0.0834 0.141975,0.0022 -0.0834,-0.114913 -0.05857,0.112688 0.141955,0.0022 0.08785,-0.169032 -0.112688,-0.05857 -0.08563,0.02706 -0.14197,-0.0022 -0.22983,0.166807 -0.25911,0.22315 -0.0293,0.05634 -0.11492,0.0834 0.11269,0.05857 -0.0541,-0.171258 -0.0586,0.112688 0.0271,0.08563 -0.0271,-0.08563 -0.17126,0.05412 -0.20054,0.110462 -0.17126,0.05412 -0.2276,0.02483 -0.39886,0.07895 -0.17126,0.05412 -0.0856,0.02706 -0.14198,-0.0022 0.0271,0.08563 0.0586,-0.112688 -0.0856,0.02706 -0.39441,-0.204994 -0.50932,-0.12159 -0.0563,-0.02928 -0.14197,-0.0022 -0.0563,-0.02929 -0.0856,0.02706 -0.0856,0.02706 -0.22982,0.166806 -0.0563,-0.02929 -0.0856,0.02706 -0.002,0.141973 0.002,-0.141973 -0.0856,0.02706 -0.0564,-0.02929 -0.2276,0.02483 -0.14197,-0.0022 -0.22761,0.02483 -0.17125,0.05412 -0.2276,0.02483 -0.17126,0.05412 -0.14198,-0.0022 0.0834,0.114914 -0.0271,-0.08563 -0.14197,-0.0022 -0.0564,-0.02929 -0.17126,0.05412 -0.36957,0.02261 -0.4552,0.04967 -0.20055,0.110463 -0.11491,0.0834 0.0271,0.08563 -0.0271,-0.08563 -0.0563,-0.02928 -0.0856,0.02706 -0.14198,-0.0022 -0.17125,0.05412 -0.19832,-0.03151 -0.002,0.141972 0.002,-0.141972 -0.31323,0.05189 -0.25689,0.08118 -0.34251,0.108237 -0.28617,0.137521 0.0271,0.08563 0.0586,-0.112688 -0.0856,0.02706 -0.0563,-0.02928 -0.14197,-0.0022 -0.17126,0.05412 -0.20054,0.110463 -0.2276,0.02483 0.0271,0.08563 0.0586,-0.112688 -0.0856,0.02706 -0.0563,-0.02929 -0.0856,0.02706 -0.11268,-0.05857 -0.0293,0.05634 -0.0563,-0.02928 0.0834,0.114914 0.002,-0.141973 -0.0856,0.02706 -0.14198,-0.0022 -0.0856,0.02706 -0.25689,0.08118 -0.22983,0.166807 -0.28617,0.137521 -0.20054,0.110463 -0.22983,0.166806 -0.48894,0.389957 -0.22983,0.166807 -0.22982,0.166806 -0.0856,0.02706 -0.17349,0.196092 -0.17348,0.196091 0.0563,0.02929 -0.027,-0.08563 -0.22983,0.166806 -0.0856,0.02706 -0.17348,0.196092 -0.22983,0.166806 -0.17348,0.196091 0.0834,0.114914 -0.0271,-0.08563 -0.45743,0.19164 -0.3718,0.164581 -0.37403,0.306554 -0.0293,0.05634"
           style="fill:#000000;fill-opacity:1;fill-rule:nonzero;stroke:none;stroke-width:0.35277778"
           id="path1358"
           inkscape:connector-curvature="0" />
        <path
           d="m -105.01,46.679867 -0.20054,0.110462 0.0271,0.08563 0.22092,0.401085 0.11047,0.200543 0.27727,0.43037 0.11046,0.200542 0.11046,0.200543 0.13752,0.286171 0.13752,0.286171 0.13752,0.286172 0.11047,0.200542 0.0856,-0.02706 -0.14198,-0.0022 0.0541,0.171257 0.10824,0.342516 0.0563,0.02928 0.0834,0.114914 0.0834,0.114914 0.11269,0.05857 0.11491,-0.0834 -0.11491,0.0834 0.0541,0.171258 0.13974,0.144199 0.0271,0.08563 0.30878,0.232052 -0.0293,0.05635 0.33806,0.175708 0.31101,0.09008 0.95784,0.497842 0.14198,0.0022 0.11268,0.05857 0.0856,-0.02706 0.16904,0.08785 0.19831,0.03151 0.0856,-0.02706 0.0856,-0.02706 0.11491,-0.0834 0.0856,-0.02706 0.1442,-0.139747 -0.11269,-0.05857 0.0271,0.08563 0.513776,-0.162355 0.455203,-0.04967 0.455204,-0.04967 -0.02706,-0.08563 -0.05857,0.112688 0.511547,-0.02038 0.05634,0.02929 0.200543,-0.110462 0.286171,-0.137522 0.401085,-0.220925 0.05634,0.02929 0.173483,-0.196091 0.11714,-0.225376 0.114913,-0.0834 -0.05634,-0.02928 0.02706,0.08563 0.144198,-0.139747 0.05634,0.02929 0.173483,-0.196091 -0.05634,-0.02929 0.02706,0.08563 0.114913,-0.0834 0.171258,-0.05412 0.141973,0.0022 -0.0834,-0.114914 -0.02929,0.05634 0.225376,0.117139 0.311005,0.09008 0.05634,0.02929 0.02929,-0.05634 0.171257,-0.05412 0.114914,-0.0834 0.227602,-0.02483 0.171257,-0.05412 0.200543,-0.110463 0.144198,-0.139747 0.200543,-0.110462 0.200543,-0.110463 0.02928,-0.05634 0.200543,-0.110462 0.283946,0.0045 0.227601,-0.02483 0.227602,-0.02483 0.02929,-0.05634 0.342515,-0.108237 0.171258,-0.05412 0.08563,-0.02706 0.05634,0.02929 0.171258,-0.05412 0.114913,-0.0834 0.08563,-0.02706 0.08563,-0.02706 0.08563,-0.02706 0.05634,0.02928 0.08563,-0.02706 0.02928,-0.05634 0.08563,-0.02706 0.02929,-0.05634 0.05634,0.02929 0.02929,-0.05634 0.05634,0.02929 -0.02706,-0.08563 -0.02929,0.05634 0.141973,0.0022 0.112688,0.05857 0.08563,-0.02706 0.112688,0.05857 0.08785,-0.169032 -0.112688,-0.05857 -0.08785,0.169032 0.05634,0.02929 -0.05412,-0.171258 -0.05857,0.112688 0.171257,-0.05412 -0.0834,-0.114914 -0.0022,0.141973 0.05857,-0.112688 -0.05634,-0.02929 -0.198317,-0.03151 -0.08563,0.02706 -0.112688,-0.05857 -0.02928,0.05634 -0.05634,-0.02928 -0.05857,0.112688 -0.114914,0.0834 0.02706,0.08563 0.0022,-0.141973 -0.141973,-0.0022 -0.02929,0.05634 -0.08563,0.02706 -0.08563,0.02706 -0.08563,0.02706 -0.171258,0.05412 -0.171258,0.05412 0.0834,0.114913 -0.02706,-0.08563 -0.198316,-0.03151 -0.114914,0.0834 -0.171258,0.05412 -0.171257,0.05412 0.02706,0.08563 -0.02706,-0.08563 -0.227602,0.02483 -0.313231,0.05189 -0.227602,0.02483 -0.286171,0.137522 0.0834,0.114913 -0.0834,-0.114913 -0.344741,0.250209 -0.200542,0.110463 -0.200543,0.110462 0.0834,0.114914 -0.02706,-0.08563 -0.227602,0.02483 -0.141973,-0.0022 -0.171257,0.05412 -0.200543,0.110463 0.0834,0.114913 -0.02706,-0.08563 -0.225376,-0.117139 -0.141973,-0.0022 -0.112688,-0.05857 -0.08563,0.02706 -0.141972,-0.0022 -0.08563,0.02706 -0.200543,0.110462 -0.02929,0.05634 -0.144198,0.139747 0.05634,0.02929 -0.02706,-0.08563 -0.200543,0.110463 -0.02929,0.05634 -0.114913,0.0834 -0.173484,0.196091 -0.08785,0.169032 0.05634,0.02929 -0.02706,-0.08563 -0.200543,0.110463 -0.256886,0.08118 -0.200543,0.110463 -0.286171,0.137521 0.0834,0.114914 0.0022,-0.141973 -0.425919,-0.0067 -0.08563,0.02706 -0.425919,-0.0067 -0.484488,0.106011 -0.513773,0.162355 -0.0856,0.02706 -0.11492,0.0834 -0.0856,0.02706 -0.11491,0.0834 0.0271,0.08563 0.0586,-0.112688 -0.14197,-0.0022 -0.19832,-0.03151 -0.0856,0.02706 -0.11269,-0.05857 -0.14197,-0.0022 -1.57763,-0.819976 -0.0586,0.112688 0.0586,-0.112688 -0.2795,-0.288397 -0.0586,0.112688 0.0856,-0.02706 -0.0541,-0.171257 -0.11046,-0.200543 -0.11269,-0.05857 0.0293,-0.05634 -0.11269,-0.05857 -0.0834,-0.114914 -0.0586,0.112688 0.0856,-0.02706 -0.13974,-0.144199 -0.0271,-0.08563 -0.0271,-0.08563 0.002,-0.141973 -0.0271,-0.08563 -0.11047,-0.200543 -0.0812,-0.256886 -0.19387,-0.315456 -0.16458,-0.3718 -0.0834,-0.114914 -0.11047,-0.200543 -0.24798,-0.486714 -0.11046,-0.200542 -0.11047,-0.200543 -0.0541,-0.171257"
           style="fill:#000000;fill-opacity:1;fill-rule:nonzero;stroke:none;stroke-width:0.35277778"
           id="path1360"
           inkscape:connector-curvature="0" />
        <path
           d="m -106.09623,57.995058 c -0.14642,0.28172 -0.0382,0.624236 0.24353,0.77066 0.28172,0.146424 0.62424,0.03819 0.77066,-0.243533 0.11714,-0.225376 0.0382,-0.624235 -0.24353,-0.77066 -0.28172,-0.146424 -0.65352,0.01816 -0.77066,0.243533 z"
           style="fill:#00cc9a;fill-opacity:1;fill-rule:evenodd;stroke:#000000;stroke-width:0.12876388;stroke-linecap:round;stroke-linejoin:round;stroke-miterlimit:10;stroke-dasharray:none;stroke-opacity:1"
           id="path1362"
           inkscape:connector-curvature="0" />
        <path
           d="m -103.50476,57.552857 c -0.14642,0.28172 -0.0382,0.624235 0.24354,0.77066 0.28172,0.146424 0.62423,0.03819 0.77066,-0.243533 0.11714,-0.225376 0.0382,-0.624236 -0.24354,-0.77066 -0.28172,-0.146424 -0.65352,0.01816 -0.77066,0.243533 z"
           style="fill:#00cc9a;fill-opacity:1;fill-rule:evenodd;stroke:#000000;stroke-width:0.12876388;stroke-linecap:round;stroke-linejoin:round;stroke-miterlimit:10;stroke-dasharray:none;stroke-opacity:1"
           id="path1364"
           inkscape:connector-curvature="0" />
        <path
           d="m -105.8527,58.765718 -0.20499,0.394407 m 2.48991,-1.210634 -1.4216,1.909019"
           style="fill:none;stroke:#000000;stroke-width:0.12876388;stroke-linecap:round;stroke-linejoin:round;stroke-miterlimit:10;stroke-dasharray:none;stroke-opacity:1"
           id="path1366"
           inkscape:connector-curvature="0" />
        <path
           d="m -104.58794,61.426888 c -0.14643,0.28172 0.0182,0.653521 0.29988,0.799945 0.28172,0.146424 0.62423,0.03819 0.77065,-0.243533 0.14643,-0.28172 0.0675,-0.68058 -0.21424,-0.827004 -0.28172,-0.146424 -0.70987,-0.01113 -0.85629,0.270592 z"
           style="fill:#00cc9a;fill-opacity:1;fill-rule:evenodd;stroke:#000000;stroke-width:0.12876388;stroke-linecap:round;stroke-linejoin:round;stroke-miterlimit:10;stroke-dasharray:none;stroke-opacity:1"
           id="path1368"
           inkscape:connector-curvature="0" />
        <path
           d="m -104.59462,61.852807 -0.77066,0.243533"
           style="fill:none;stroke:#000000;stroke-width:0.12876388;stroke-linecap:round;stroke-linejoin:round;stroke-miterlimit:10;stroke-dasharray:none;stroke-opacity:1"
           id="path1370"
           inkscape:connector-curvature="0" />
        <path
           d="m -109.19702,58.315668 c -0.14643,0.28172 -0.0382,0.624236 0.24353,0.77066 0.28172,0.146424 0.62423,0.03819 0.77066,-0.243533 0.11714,-0.225376 0.0382,-0.624235 -0.24353,-0.77066 -0.28172,-0.146424 -0.65352,0.01816 -0.77066,0.243533 z"
           style="fill:#00cc9a;fill-opacity:1;fill-rule:evenodd;stroke:#000000;stroke-width:0.12876388;stroke-linecap:round;stroke-linejoin:round;stroke-miterlimit:10;stroke-dasharray:none;stroke-opacity:1"
           id="path1372"
           inkscape:connector-curvature="0" />
        <path
           d="m -108.18283,58.842795 1.33632,-0.09266"
           style="fill:none;stroke:#000000;stroke-width:0.12876388;stroke-linecap:round;stroke-linejoin:round;stroke-miterlimit:10;stroke-dasharray:none;stroke-opacity:1"
           id="path1374"
           inkscape:connector-curvature="0" />
        <path
           d="m -101.97386,61.354261 c -0.14642,0.281721 -0.0382,0.624236 0.24353,0.77066 0.28172,0.146424 0.62424,0.03819 0.77066,-0.243533 0.11714,-0.225375 0.0382,-0.624234 -0.24353,-0.770659 -0.28172,-0.146424 -0.65352,0.01816 -0.77066,0.243532 z"
           style="fill:#00cc9a;fill-opacity:1;fill-rule:evenodd;stroke:#000000;stroke-width:0.12876388;stroke-linecap:round;stroke-linejoin:round;stroke-miterlimit:10;stroke-dasharray:none;stroke-opacity:1"
           id="path1376"
           inkscape:connector-curvature="0" />
        <path
           d="m -101.73033,62.124921 -1.32929,1.456042"
           style="fill:none;stroke:#000000;stroke-width:0.12876388;stroke-linecap:round;stroke-linejoin:round;stroke-miterlimit:10;stroke-dasharray:none;stroke-opacity:1"
           id="path1378"
           inkscape:connector-curvature="0" />
        <path
           d="m -101.98206,65.50076 c -0.14642,0.28172 -0.0382,0.624235 0.24353,0.770659 0.28172,0.146424 0.62424,0.03819 0.77066,-0.243533 0.11714,-0.225376 0.0382,-0.624235 -0.24353,-0.770659 -0.28172,-0.146424 -0.65352,0.01816 -0.77066,0.243533 z"
           style="fill:#00cc9a;fill-opacity:1;fill-rule:evenodd;stroke:#000000;stroke-width:0.12876388;stroke-linecap:round;stroke-linejoin:round;stroke-miterlimit:10;stroke-dasharray:none;stroke-opacity:1"
           id="path1380"
           inkscape:connector-curvature="0" />
        <path
           d="m -101.26774,65.227942 0.19574,-1.61582"
           style="fill:none;stroke:#000000;stroke-width:0.12876388;stroke-linecap:round;stroke-linejoin:round;stroke-miterlimit:10;stroke-dasharray:none;stroke-opacity:1"
           id="path1382"
           inkscape:connector-curvature="0" />
        <path
           d="m -99.338693,65.371789 c -0.146425,0.28172 -0.03819,0.624235 0.243532,0.770659 0.281721,0.146424 0.624236,0.03819 0.77066,-0.243532 0.117139,-0.225377 0.03819,-0.624236 -0.243533,-0.77066 -0.28172,-0.146424 -0.65352,0.01816 -0.770659,0.243533 z"
           style="fill:#00cc9a;fill-opacity:1;fill-rule:evenodd;stroke:#000000;stroke-width:0.12876388;stroke-linecap:round;stroke-linejoin:round;stroke-miterlimit:10;stroke-dasharray:none;stroke-opacity:1"
           id="path1384"
           inkscape:connector-curvature="0" />
        <path
           d="m -99.050296,65.092294 0.0923,-0.452978"
           style="fill:none;stroke:#000000;stroke-width:0.12876388;stroke-linecap:round;stroke-linejoin:round;stroke-miterlimit:10;stroke-dasharray:none;stroke-opacity:1"
           id="path1386"
           inkscape:connector-curvature="0" />
        <path
           d="m -97.125697,65.520087 c -0.146424,0.28172 -0.03819,0.624235 0.243533,0.770659 0.28172,0.146425 0.624235,0.03819 0.770659,-0.243532 0.146424,-0.28172 0.06747,-0.68058 -0.214248,-0.827004 -0.28172,-0.146424 -0.65352,0.01816 -0.799944,0.299877 z"
           style="fill:#00cc9a;fill-opacity:1;fill-rule:evenodd;stroke:#000000;stroke-width:0.12876388;stroke-linecap:round;stroke-linejoin:round;stroke-miterlimit:10;stroke-dasharray:none;stroke-opacity:1"
           id="path1388"
           inkscape:connector-curvature="0" />
        <path
           d="m -96.808015,65.184248 -0.635716,-1.117626"
           style="fill:none;stroke:#000000;stroke-width:0.12876388;stroke-linecap:round;stroke-linejoin:round;stroke-miterlimit:10;stroke-dasharray:none;stroke-opacity:1"
           id="path1390"
           inkscape:connector-curvature="0" />
        <path
           d="m -94.795561,65.443009 c -0.146425,0.28172 -0.03819,0.624235 0.243532,0.770659 0.28172,0.146425 0.624236,0.03819 0.77066,-0.243532 0.146424,-0.281721 0.06747,-0.680579 -0.214248,-0.827003 -0.281721,-0.146424 -0.65352,0.01816 -0.799944,0.299876 z"
           style="fill:#00cc9a;fill-opacity:1;fill-rule:evenodd;stroke:#000000;stroke-width:0.12876388;stroke-linecap:round;stroke-linejoin:round;stroke-miterlimit:10;stroke-dasharray:none;stroke-opacity:1"
           id="path1392"
           inkscape:connector-curvature="0" />
        <path
           d="m -94.822621,65.35738 -1.406375,-0.874094"
           style="fill:none;stroke:#000000;stroke-width:0.12876388;stroke-linecap:round;stroke-linejoin:round;stroke-miterlimit:10;stroke-dasharray:none;stroke-opacity:1"
           id="path1394"
           inkscape:connector-curvature="0" />
        <path
           d="m -99.560322,61.392098 c -0.146424,0.28172 -0.03819,0.624235 0.243533,0.77066 0.28172,0.146424 0.624235,0.03819 0.770659,-0.243533 0.11714,-0.225376 0.03819,-0.624236 -0.243532,-0.77066 -0.281721,-0.146424 -0.653521,0.01816 -0.77066,0.243533 z"
           style="fill:#00cc9a;fill-opacity:1;fill-rule:evenodd;stroke:#000000;stroke-width:0.12876388;stroke-linecap:round;stroke-linejoin:round;stroke-miterlimit:10;stroke-dasharray:none;stroke-opacity:1"
           id="path1396"
           inkscape:connector-curvature="0" />
        <path
           d="m -99.373133,62.133473 -0.596824,1.836744"
           style="fill:none;stroke:#000000;stroke-width:0.12876388;stroke-linecap:round;stroke-linejoin:round;stroke-miterlimit:10;stroke-dasharray:none;stroke-opacity:1"
           id="path1398"
           inkscape:connector-curvature="0" />
        <path
           d="m -100.78572,52.596808 c -0.14642,0.28172 -0.0382,0.624236 0.24353,0.77066 0.28172,0.146424 0.62424,0.03819 0.770664,-0.243533 0.11714,-0.225376 0.03819,-0.624235 -0.243534,-0.770659 -0.28172,-0.146425 -0.65352,0.01816 -0.77066,0.243532 z"
           style="fill:#00cc9a;fill-opacity:1;fill-rule:evenodd;stroke:#000000;stroke-width:0.12876388;stroke-linecap:round;stroke-linejoin:round;stroke-miterlimit:10;stroke-dasharray:none;stroke-opacity:1"
           id="path1400"
           inkscape:connector-curvature="0" />
        <path
           d="m -97.736816,51.962967 c -0.146424,0.28172 -0.03819,0.624235 0.243533,0.77066 0.28172,0.146424 0.624236,0.03819 0.77066,-0.243533 0.117139,-0.225376 0.03819,-0.624236 -0.243533,-0.77066 -0.28172,-0.146424 -0.65352,0.01816 -0.77066,0.243533 z"
           style="fill:#00cc9a;fill-opacity:1;fill-rule:evenodd;stroke:#000000;stroke-width:0.12876388;stroke-linecap:round;stroke-linejoin:round;stroke-miterlimit:10;stroke-dasharray:none;stroke-opacity:1"
           id="path1402"
           inkscape:connector-curvature="0" />
        <path
           d="m -100.04212,52.267647 -0.18719,-0.741375 m 3.292439,0.136818 0.220573,-1.388218"
           style="fill:none;stroke:#000000;stroke-width:0.12876388;stroke-linecap:round;stroke-linejoin:round;stroke-miterlimit:10;stroke-dasharray:none;stroke-opacity:1"
           id="path1404"
           inkscape:connector-curvature="0" />
        <path
           d="m -94.291279,51.392146 c -0.146424,0.281721 0.01816,0.653521 0.299877,0.799945 0.28172,0.146424 0.624235,0.03819 0.770659,-0.243533 0.11714,-0.225376 0.03819,-0.624235 -0.243533,-0.770659 -0.28172,-0.146425 -0.709864,-0.01113 -0.827003,0.214247 z"
           style="fill:#00cc9a;fill-opacity:1;fill-rule:evenodd;stroke:#000000;stroke-width:0.12876388;stroke-linecap:round;stroke-linejoin:round;stroke-miterlimit:10;stroke-dasharray:none;stroke-opacity:1"
           id="path1406"
           inkscape:connector-curvature="0" />
        <path
           d="m -93.491335,51.09227 0.342164,-1.89754"
           style="fill:none;stroke:#000000;stroke-width:0.12876388;stroke-linecap:round;stroke-linejoin:round;stroke-miterlimit:10;stroke-dasharray:none;stroke-opacity:1"
           id="path1408"
           inkscape:connector-curvature="0" />
        <path
           d="m -95.953019,46.878651 c -0.146424,0.28172 -0.03819,0.624236 0.243533,0.77066 0.28172,0.146424 0.624236,0.03819 0.77066,-0.243533 0.117139,-0.225376 0.03819,-0.624236 -0.243533,-0.77066 -0.28172,-0.146424 -0.65352,0.01816 -0.77066,0.243533 z"
           style="fill:#00cc9a;fill-opacity:1;fill-rule:evenodd;stroke:#000000;stroke-width:0.12876388;stroke-linecap:round;stroke-linejoin:round;stroke-miterlimit:10;stroke-dasharray:none;stroke-opacity:1"
           id="path1410"
           inkscape:connector-curvature="0" />
        <path
           d="m -95.283567,47.655988 0.333964,2.248958"
           style="fill:none;stroke:#000000;stroke-width:0.12876388;stroke-linecap:round;stroke-linejoin:round;stroke-miterlimit:10;stroke-dasharray:none;stroke-opacity:1"
           id="path1412"
           inkscape:connector-curvature="0" />
        <path
           d="m -91.672747,51.035574 c -0.146424,0.28172 -0.03819,0.624235 0.243533,0.77066 0.28172,0.146424 0.567892,0.0089 0.714316,-0.272818 0.117139,-0.225376 0.09453,-0.594951 -0.187189,-0.741375 -0.28172,-0.146424 -0.65352,0.01816 -0.77066,0.243533 z"
           style="fill:#00cc9a;fill-opacity:1;fill-rule:evenodd;stroke:#000000;stroke-width:0.12876388;stroke-linecap:round;stroke-linejoin:round;stroke-miterlimit:10;stroke-dasharray:none;stroke-opacity:1"
           id="path1414"
           inkscape:connector-curvature="0" />
        <path
           d="m -91.38435,50.756079 -0.02296,-2.158877"
           style="fill:none;stroke:#000000;stroke-width:0.12876388;stroke-linecap:round;stroke-linejoin:round;stroke-miterlimit:10;stroke-dasharray:none;stroke-opacity:1"
           id="path1416"
           inkscape:connector-curvature="0" />
        <path
           d="m -89.137617,50.564088 c -0.146424,0.28172 -0.03819,0.624235 0.243533,0.770659 0.28172,0.146425 0.567891,0.0089 0.714315,-0.272817 0.117139,-0.225376 0.09453,-0.594951 -0.187189,-0.741375 -0.28172,-0.146424 -0.65352,0.01816 -0.770659,0.243533 z"
           style="fill:#00cc9a;fill-opacity:1;fill-rule:evenodd;stroke:#000000;stroke-width:0.12876388;stroke-linecap:round;stroke-linejoin:round;stroke-miterlimit:10;stroke-dasharray:none;stroke-opacity:1"
           id="path1418"
           inkscape:connector-curvature="0" />
        <path
           d="m -89.193961,50.534803 -2.015031,-1.906091"
           style="fill:none;stroke:#000000;stroke-width:0.12876388;stroke-linecap:round;stroke-linejoin:round;stroke-miterlimit:10;stroke-dasharray:none;stroke-opacity:1"
           id="path1420"
           inkscape:connector-curvature="0" />
        <path
           d="m -99.396329,47.307499 c -0.146424,0.28172 -0.03819,0.624235 0.243533,0.770659 0.28172,0.146424 0.624235,0.03819 0.770659,-0.243532 0.146424,-0.281721 0.06747,-0.68058 -0.214248,-0.827004 -0.28172,-0.146424 -0.65352,0.01816 -0.799944,0.299877 z"
           style="fill:#00cc9a;fill-opacity:1;fill-rule:evenodd;stroke:#000000;stroke-width:0.12876388;stroke-linecap:round;stroke-linejoin:round;stroke-miterlimit:10;stroke-dasharray:none;stroke-opacity:1"
           id="path1422"
           inkscape:connector-curvature="0" />
        <path
           d="m -98.596385,47.007622 -1.230666,-1.212158"
           style="fill:none;stroke:#000000;stroke-width:0.12876388;stroke-linecap:round;stroke-linejoin:round;stroke-miterlimit:10;stroke-dasharray:none;stroke-opacity:1"
           id="path1424"
           inkscape:connector-curvature="0" />
        <path
           d="m -101.76243,47.866839 c -0.14642,0.28172 -0.0382,0.624236 0.24354,0.77066 0.28172,0.146424 0.56789,0.0089 0.71431,-0.272818 0.14643,-0.28172 0.12382,-0.651294 -0.1579,-0.797718 -0.28172,-0.146425 -0.65352,0.01816 -0.79995,0.299876 z"
           style="fill:#00cc9a;fill-opacity:1;fill-rule:evenodd;stroke:#000000;stroke-width:0.12876388;stroke-linecap:round;stroke-linejoin:round;stroke-miterlimit:10;stroke-dasharray:none;stroke-opacity:1"
           id="path1426"
           inkscape:connector-curvature="0" />
        <path
           d="m -101.01883,47.537678 0.2747,-1.216961"
           style="fill:none;stroke:#000000;stroke-width:0.12876388;stroke-linecap:round;stroke-linejoin:round;stroke-miterlimit:10;stroke-dasharray:none;stroke-opacity:1"
           id="path1428"
           inkscape:connector-curvature="0" />
        <path
           d="m -105.49413,48.575181 c -0.14643,0.281721 -0.0382,0.624236 0.24353,0.77066 0.28172,0.146424 0.62423,0.03819 0.77066,-0.243533 0.11714,-0.225376 0.0382,-0.624235 -0.24353,-0.770659 -0.28172,-0.146424 -0.65352,0.01816 -0.77066,0.243532 z"
           style="fill:#00cc9a;fill-opacity:1;fill-rule:evenodd;stroke:#000000;stroke-width:0.12876388;stroke-linecap:round;stroke-linejoin:round;stroke-miterlimit:10;stroke-dasharray:none;stroke-opacity:1"
           id="path1430"
           inkscape:connector-curvature="0" />
        <path
           d="m -104.38764,48.649331 0.007,-0.425919"
           style="fill:none;stroke:#000000;stroke-width:0.12876388;stroke-linecap:round;stroke-linejoin:round;stroke-miterlimit:10;stroke-dasharray:none;stroke-opacity:1"
           id="path1432"
           inkscape:connector-curvature="0" />
        <path
           d="m -112.22508,50.372568 c -0.14642,0.281721 -0.0382,0.624236 0.24354,0.77066 0.28172,0.146424 0.62423,0.03819 0.77066,-0.243533 0.14642,-0.28172 0.0675,-0.680579 -0.21425,-0.827003 -0.28172,-0.146424 -0.65352,0.01816 -0.79995,0.299876 z"
           style="fill:#00cc9a;fill-opacity:1;fill-rule:evenodd;stroke:#000000;stroke-width:0.12876388;stroke-linecap:round;stroke-linejoin:round;stroke-miterlimit:10;stroke-dasharray:none;stroke-opacity:1"
           id="path1434"
           inkscape:connector-curvature="0" />
        <path
           d="m -110.1407,49.666804 c -0.14642,0.28172 0.0182,0.65352 0.29988,0.799944 0.28172,0.146424 0.62423,0.03819 0.77066,-0.243533 0.11714,-0.225376 0.0382,-0.624235 -0.24354,-0.770659 -0.28172,-0.146424 -0.70986,-0.01113 -0.827,0.214248 z"
           style="fill:#00cc9a;fill-opacity:1;fill-rule:evenodd;stroke:#000000;stroke-width:0.12876388;stroke-linecap:round;stroke-linejoin:round;stroke-miterlimit:10;stroke-dasharray:none;stroke-opacity:1"
           id="path1436"
           inkscape:connector-curvature="0" />
        <path
           d="m -111.9074,50.03673 -0.92633,-0.696159 m 3.06706,0.01968 -1.22844,-1.354131"
           style="fill:none;stroke:#000000;stroke-width:0.12876388;stroke-linecap:round;stroke-linejoin:round;stroke-miterlimit:10;stroke-dasharray:none;stroke-opacity:1"
           id="path1438"
           inkscape:connector-curvature="0" />
        <path
           d="m -107.74087,48.767173 c -0.14642,0.28172 -0.0382,0.624236 0.24354,0.77066 0.28172,0.146424 0.62423,0.03819 0.77066,-0.243533 0.11714,-0.225376 0.0382,-0.624235 -0.24354,-0.77066 -0.28172,-0.146424 -0.65352,0.01816 -0.77066,0.243533 z"
           style="fill:#00cc9a;fill-opacity:1;fill-rule:evenodd;stroke:#000000;stroke-width:0.12876388;stroke-linecap:round;stroke-linejoin:round;stroke-miterlimit:10;stroke-dasharray:none;stroke-opacity:1"
           id="path1440"
           inkscape:connector-curvature="0" />
        <path
           d="m -107.42318,48.431335 -0.14901,-1.365611"
           style="fill:none;stroke:#000000;stroke-width:0.12876388;stroke-linecap:round;stroke-linejoin:round;stroke-miterlimit:10;stroke-dasharray:none;stroke-opacity:1"
           id="path1442"
           inkscape:connector-curvature="0" />
        <path
           d="m -122.89893,44.610135 c -0.14643,0.28172 -0.0382,0.624235 0.24353,0.770659 0.28172,0.146425 0.62424,0.03819 0.77066,-0.243532 0.14643,-0.28172 0.0675,-0.68058 -0.21425,-0.827004 -0.28172,-0.146424 -0.65352,0.01816 -0.79994,0.299877 z"
           style="fill:#00cc9a;fill-opacity:1;fill-rule:evenodd;stroke:#000000;stroke-width:0.12876388;stroke-linecap:round;stroke-linejoin:round;stroke-miterlimit:10;stroke-dasharray:none;stroke-opacity:1"
           id="path1496"
           inkscape:connector-curvature="0" />
        <path
           d="m -127.1676,65.077539 c -0.26357,0.507096 -0.0178,1.135783 0.43295,1.370062 0.50709,0.263563 1.10649,0.07415 1.37006,-0.432948 0.23428,-0.450752 0.0742,-1.106498 -0.43295,-1.370061 -0.45075,-0.234279 -1.13578,-0.01781 -1.37006,0.432947 z"
           style="fill:#ff0000;fill-opacity:1;fill-rule:evenodd;stroke:#000000;stroke-width:0.12876388;stroke-linecap:round;stroke-linejoin:round;stroke-miterlimit:10;stroke-dasharray:none;stroke-opacity:1"
           id="path1510"
           inkscape:connector-curvature="0" />
        <path
           d="m -123.62917,78.51014 c -0.26357,0.507096 -0.0178,1.135783 0.43295,1.370062 0.50709,0.263563 1.10649,0.07415 1.37006,-0.432948 0.23428,-0.450752 0.0742,-1.106498 -0.43295,-1.370061 -0.45075,-0.234279 -1.13578,-0.0178 -1.37006,0.432947 z"
           style="fill:#ff0000;fill-opacity:1;fill-rule:evenodd;stroke:#000000;stroke-width:0.12876388;stroke-linecap:round;stroke-linejoin:round;stroke-miterlimit:10;stroke-dasharray:none;stroke-opacity:1"
           id="path1512"
           inkscape:connector-curvature="0" />
      </g>
      <g
         transform="rotate(-143.1161,-168.9865,45.829714)"
         id="g3801">
        <path
           inkscape:connector-curvature="0"
           id="path3797"
           style="fill:#0000ff;fill-opacity:1;fill-rule:nonzero;stroke:none;stroke-width:0.35277778"
           d="m -216.10813,87.299407 0.254,-0.0635 -2.0955,-5.1435 -0.1905,0.0635" />
        <path
           inkscape:connector-curvature="0"
           id="path3799"
           style="fill:none;stroke:#0000ff;stroke-width:0.25752777;stroke-linecap:round;stroke-linejoin:round;stroke-miterlimit:10;stroke-dasharray:none;stroke-opacity:1"
           d="m -216.61613,83.362407 -1.4605,-1.27 -0.127,1.905" />
      </g>
      <g
         id="g3807"
         transform="rotate(176.03983,-177.6524,64.169887)">
        <path
           inkscape:connector-curvature="0"
           id="path3803"
           style="fill:#0000ff;fill-opacity:1;fill-rule:nonzero;stroke:none;stroke-width:0.35277778"
           d="m -216.10813,87.299407 0.254,-0.0635 -2.0955,-5.1435 -0.1905,0.0635" />
        <path
           inkscape:connector-curvature="0"
           id="path3805"
           style="fill:none;stroke:#0000ff;stroke-width:0.25752777;stroke-linecap:round;stroke-linejoin:round;stroke-miterlimit:10;stroke-dasharray:none;stroke-opacity:1"
           d="m -216.61613,83.362407 -1.4605,-1.27 -0.127,1.905" />
      </g>
    </g>
  </g>
</svg>
